G04 (created by PCBNEW (2013-jul-07)-stable) date Mon 11 Apr 2016 09:05:50 AM PDT*
%MOIN*%
G04 Gerber Fmt 3.4, Leading zero omitted, Abs format*
%FSLAX34Y34*%
G01*
G70*
G90*
G04 APERTURE LIST*
%ADD10C,0.00590551*%
%ADD11C,0.06*%
%ADD12C,0.145669*%
%ADD13C,0.0472441*%
%ADD14R,0.0315X0.0394*%
%ADD15R,0.055X0.035*%
%ADD16R,0.035X0.055*%
%ADD17R,0.016X0.026*%
%ADD18R,0.06X0.06*%
%ADD19R,0.023622X0.0610236*%
%ADD20C,0.065*%
%ADD21R,0.0208661X0.0779528*%
%ADD22R,0.055X0.055*%
%ADD23C,0.055*%
%ADD24C,0.076*%
%ADD25C,0.14*%
%ADD26C,0.16*%
%ADD27C,0.0709*%
%ADD28R,0.0709X0.0709*%
%ADD29R,0.063X0.063*%
%ADD30C,0.063*%
%ADD31R,0.07X0.07*%
%ADD32C,0.07*%
%ADD33C,0.13*%
%ADD34C,0.035*%
%ADD35C,0.015*%
G04 APERTURE END LIST*
G54D10*
G54D11*
X21000Y-41000D03*
X22000Y-41000D03*
X23000Y-41000D03*
X24000Y-41000D03*
X25000Y-41000D03*
X26000Y-41000D03*
X27000Y-41000D03*
X28000Y-41000D03*
X29000Y-41000D03*
X30000Y-41000D03*
X31000Y-41000D03*
X32000Y-41000D03*
X33000Y-41000D03*
X34000Y-41000D03*
X34000Y-40000D03*
X34000Y-39000D03*
X34000Y-38000D03*
X34000Y-37000D03*
X34000Y-36000D03*
X34000Y-35000D03*
X33000Y-35000D03*
X32000Y-35000D03*
X31000Y-35000D03*
X30000Y-35000D03*
X29000Y-35000D03*
X28000Y-35000D03*
X27000Y-35000D03*
X26000Y-35000D03*
X25000Y-35000D03*
X24000Y-35000D03*
X23000Y-35000D03*
X22000Y-35000D03*
X21000Y-35000D03*
X27000Y-38000D03*
X28000Y-38000D03*
X29000Y-38000D03*
X30000Y-38000D03*
X31000Y-38000D03*
X32000Y-38000D03*
X33000Y-38000D03*
X33000Y-37000D03*
X32000Y-37000D03*
X31000Y-37000D03*
X30000Y-37000D03*
X29000Y-37000D03*
X28000Y-37000D03*
X27000Y-37000D03*
X26000Y-36000D03*
X25000Y-36000D03*
X24000Y-36000D03*
X22000Y-36000D03*
G54D12*
X122753Y-49249D03*
X122753Y-26450D03*
G54D13*
X121253Y-46100D03*
X122003Y-45600D03*
X121253Y-45100D03*
X122003Y-44600D03*
X121253Y-44100D03*
X122003Y-43600D03*
X121253Y-43100D03*
X122003Y-42600D03*
X121253Y-42100D03*
X122003Y-41600D03*
X121253Y-41100D03*
X122003Y-40600D03*
X121253Y-40100D03*
X122003Y-39600D03*
X121253Y-39100D03*
X122003Y-38600D03*
X121253Y-38100D03*
X122003Y-37600D03*
X121253Y-37100D03*
X122003Y-36600D03*
X121253Y-36100D03*
X122003Y-35600D03*
X121253Y-35100D03*
X122003Y-34600D03*
X121253Y-34100D03*
X122003Y-33600D03*
X121253Y-33100D03*
X122003Y-32600D03*
X121253Y-32100D03*
X122003Y-31600D03*
X121253Y-31100D03*
X122003Y-30600D03*
X121253Y-30100D03*
X122003Y-29600D03*
X122753Y-46100D03*
X123503Y-45600D03*
X122753Y-45100D03*
X123503Y-44600D03*
X122753Y-44100D03*
X123503Y-43600D03*
X122753Y-43100D03*
X123503Y-42600D03*
X122753Y-42100D03*
X123503Y-41600D03*
X122753Y-41100D03*
X123503Y-40600D03*
X122753Y-40100D03*
X123503Y-39600D03*
X122753Y-39100D03*
X123503Y-38600D03*
X122753Y-38100D03*
X123503Y-37600D03*
X122753Y-37100D03*
X123503Y-36600D03*
X122753Y-36100D03*
X123503Y-35600D03*
X122753Y-35100D03*
X123503Y-34600D03*
X122753Y-34100D03*
X123503Y-33600D03*
X122753Y-33100D03*
X123503Y-32600D03*
X122753Y-32100D03*
X123503Y-31600D03*
X122753Y-31100D03*
X123503Y-30600D03*
X122753Y-30100D03*
X123503Y-29600D03*
G54D14*
X113900Y-39767D03*
X114275Y-40633D03*
X113525Y-40633D03*
X108400Y-39767D03*
X108775Y-40633D03*
X108025Y-40633D03*
X102900Y-39767D03*
X103275Y-40633D03*
X102525Y-40633D03*
X97400Y-39767D03*
X97775Y-40633D03*
X97025Y-40633D03*
X91900Y-39767D03*
X92275Y-40633D03*
X91525Y-40633D03*
X86400Y-39767D03*
X86775Y-40633D03*
X86025Y-40633D03*
X80900Y-39767D03*
X81275Y-40633D03*
X80525Y-40633D03*
X75400Y-39767D03*
X75775Y-40633D03*
X75025Y-40633D03*
X69900Y-39767D03*
X70275Y-40633D03*
X69525Y-40633D03*
X64400Y-39767D03*
X64775Y-40633D03*
X64025Y-40633D03*
G54D15*
X98400Y-34025D03*
X98400Y-34775D03*
X107000Y-25825D03*
X107000Y-26575D03*
X105600Y-25825D03*
X105600Y-26575D03*
X109400Y-34025D03*
X109400Y-34775D03*
X111100Y-29075D03*
X111100Y-28325D03*
X100100Y-29075D03*
X100100Y-28325D03*
X101600Y-29075D03*
X101600Y-28325D03*
X101600Y-25825D03*
X101600Y-26575D03*
X100100Y-25825D03*
X100100Y-26575D03*
X103900Y-34025D03*
X103900Y-34775D03*
X111100Y-31675D03*
X111100Y-30925D03*
X94600Y-29075D03*
X94600Y-28325D03*
X96000Y-29075D03*
X96000Y-28325D03*
X96000Y-25825D03*
X96000Y-26575D03*
X94600Y-25825D03*
X94600Y-26575D03*
X107000Y-29075D03*
X107000Y-28325D03*
X112900Y-37525D03*
X112900Y-38275D03*
X89100Y-29075D03*
X89100Y-28325D03*
X90500Y-29075D03*
X90500Y-28325D03*
X90500Y-25825D03*
X90500Y-26575D03*
X89100Y-25825D03*
X89100Y-26575D03*
X92900Y-34025D03*
X92900Y-34775D03*
X46000Y-32125D03*
X46000Y-32875D03*
X83600Y-29075D03*
X83600Y-28325D03*
X85000Y-29075D03*
X85000Y-28325D03*
X85000Y-25825D03*
X85000Y-26575D03*
X83600Y-25825D03*
X83600Y-26575D03*
X87400Y-34025D03*
X87400Y-34775D03*
X78100Y-29075D03*
X78100Y-28325D03*
X72600Y-31675D03*
X72600Y-30925D03*
X107400Y-37525D03*
X107400Y-38275D03*
X105600Y-31675D03*
X105600Y-30925D03*
X101900Y-37525D03*
X101900Y-38275D03*
X100100Y-31675D03*
X100100Y-30925D03*
X96400Y-37525D03*
X96400Y-38275D03*
X94600Y-31675D03*
X94600Y-30925D03*
X90900Y-37525D03*
X90900Y-38275D03*
X89100Y-31675D03*
X89100Y-30925D03*
X85400Y-37525D03*
X85400Y-38275D03*
X83600Y-31675D03*
X83600Y-30925D03*
X79900Y-37525D03*
X79900Y-38275D03*
X78100Y-31675D03*
X78100Y-30925D03*
X74400Y-37525D03*
X74400Y-38275D03*
X64400Y-25825D03*
X64400Y-26575D03*
X68900Y-37525D03*
X68900Y-38275D03*
X67100Y-31675D03*
X67100Y-30925D03*
X63400Y-37525D03*
X63400Y-38275D03*
X61600Y-31675D03*
X61600Y-30925D03*
X52000Y-27725D03*
X52000Y-28475D03*
X42500Y-27725D03*
X42500Y-28475D03*
X103900Y-45575D03*
X103900Y-44825D03*
G54D16*
X53375Y-37000D03*
X52625Y-37000D03*
G54D15*
X114900Y-34025D03*
X114900Y-34775D03*
X111100Y-25825D03*
X111100Y-26575D03*
X112600Y-25825D03*
X112600Y-26575D03*
X112600Y-29075D03*
X112600Y-28325D03*
X105600Y-29075D03*
X105600Y-28325D03*
X83600Y-40025D03*
X83600Y-40775D03*
X114000Y-25825D03*
X114000Y-26575D03*
X61600Y-37525D03*
X61600Y-38275D03*
X79400Y-29075D03*
X79400Y-28325D03*
X31000Y-27375D03*
X31000Y-26625D03*
X29000Y-27375D03*
X29000Y-26625D03*
X67100Y-37525D03*
X67100Y-38275D03*
X67100Y-40025D03*
X67100Y-40775D03*
X72600Y-37525D03*
X72600Y-38275D03*
X72600Y-40025D03*
X72600Y-40775D03*
X78100Y-37525D03*
X78100Y-38275D03*
X78100Y-40025D03*
X78100Y-40775D03*
G54D16*
X38425Y-49800D03*
X39175Y-49800D03*
G54D15*
X83600Y-37525D03*
X83600Y-38275D03*
X61600Y-40025D03*
X61600Y-40775D03*
G54D16*
X39625Y-43600D03*
X40375Y-43600D03*
G54D15*
X89100Y-37525D03*
X89100Y-38275D03*
X89100Y-40025D03*
X89100Y-40775D03*
X94600Y-37525D03*
X94600Y-38275D03*
X49000Y-49975D03*
X49000Y-49225D03*
X94600Y-40025D03*
X94600Y-40775D03*
X100100Y-37525D03*
X100100Y-38275D03*
X100100Y-40025D03*
X100100Y-40775D03*
X105600Y-37525D03*
X105600Y-38275D03*
X105600Y-40025D03*
X105600Y-40775D03*
X111100Y-37525D03*
X111100Y-38275D03*
X111100Y-40025D03*
X111100Y-40775D03*
X67100Y-25825D03*
X67100Y-26575D03*
X79400Y-25825D03*
X79400Y-26575D03*
X78100Y-25825D03*
X78100Y-26575D03*
X81900Y-34025D03*
X81900Y-34775D03*
X69900Y-25825D03*
X69900Y-26575D03*
X72600Y-29075D03*
X72600Y-28325D03*
X74000Y-29075D03*
X74000Y-28325D03*
X74000Y-25825D03*
X74000Y-26575D03*
X72600Y-25825D03*
X72600Y-26575D03*
X76400Y-34025D03*
X76400Y-34775D03*
X75300Y-25825D03*
X75300Y-26575D03*
X67100Y-29075D03*
X67100Y-28325D03*
X68500Y-29075D03*
X68500Y-28325D03*
X68500Y-25825D03*
X68500Y-26575D03*
X108400Y-25825D03*
X108400Y-26575D03*
X71000Y-34025D03*
X71000Y-34775D03*
X65500Y-34025D03*
X65500Y-34775D03*
X103000Y-25825D03*
X103000Y-26575D03*
X97400Y-25825D03*
X97400Y-26575D03*
X91800Y-25825D03*
X91800Y-26575D03*
X86300Y-25825D03*
X86300Y-26575D03*
X80700Y-25825D03*
X80700Y-26575D03*
X61600Y-25825D03*
X61600Y-26575D03*
X63000Y-25825D03*
X63000Y-26575D03*
X63000Y-29075D03*
X63000Y-28325D03*
X61600Y-29075D03*
X61600Y-28325D03*
G54D17*
X106160Y-44800D03*
X105640Y-44800D03*
X105900Y-44800D03*
X105640Y-45600D03*
X106160Y-45600D03*
X105900Y-45600D03*
X40240Y-28500D03*
X40760Y-28500D03*
X40500Y-28500D03*
X40760Y-27700D03*
X40240Y-27700D03*
X40500Y-27700D03*
X49740Y-28500D03*
X50260Y-28500D03*
X50000Y-28500D03*
X50260Y-27700D03*
X49740Y-27700D03*
X50000Y-27700D03*
G54D18*
X117900Y-44700D03*
G54D11*
X117900Y-45700D03*
X116900Y-44700D03*
X116900Y-45700D03*
G54D18*
X111900Y-44700D03*
G54D11*
X111900Y-45700D03*
X110900Y-44700D03*
X110900Y-45700D03*
G54D18*
X31200Y-47200D03*
G54D11*
X31200Y-46200D03*
X32200Y-47200D03*
X32200Y-46200D03*
G54D18*
X34000Y-29500D03*
G54D11*
X34000Y-28500D03*
X35000Y-29500D03*
X35000Y-28500D03*
G54D18*
X36000Y-47200D03*
G54D11*
X36000Y-46200D03*
G54D19*
X63850Y-33337D03*
X63350Y-33337D03*
X62850Y-33337D03*
X62350Y-33337D03*
X62350Y-35462D03*
X62850Y-35462D03*
X63350Y-35462D03*
X63850Y-35462D03*
X69350Y-33337D03*
X68850Y-33337D03*
X68350Y-33337D03*
X67850Y-33337D03*
X67850Y-35462D03*
X68350Y-35462D03*
X68850Y-35462D03*
X69350Y-35462D03*
X74850Y-33337D03*
X74350Y-33337D03*
X73850Y-33337D03*
X73350Y-33337D03*
X73350Y-35462D03*
X73850Y-35462D03*
X74350Y-35462D03*
X74850Y-35462D03*
X107850Y-33337D03*
X107350Y-33337D03*
X106850Y-33337D03*
X106350Y-33337D03*
X106350Y-35462D03*
X106850Y-35462D03*
X107350Y-35462D03*
X107850Y-35462D03*
X102350Y-33337D03*
X101850Y-33337D03*
X101350Y-33337D03*
X100850Y-33337D03*
X100850Y-35462D03*
X101350Y-35462D03*
X101850Y-35462D03*
X102350Y-35462D03*
X96850Y-33337D03*
X96350Y-33337D03*
X95850Y-33337D03*
X95350Y-33337D03*
X95350Y-35462D03*
X95850Y-35462D03*
X96350Y-35462D03*
X96850Y-35462D03*
X91350Y-33337D03*
X90850Y-33337D03*
X90350Y-33337D03*
X89850Y-33337D03*
X89850Y-35462D03*
X90350Y-35462D03*
X90850Y-35462D03*
X91350Y-35462D03*
X113350Y-33337D03*
X112850Y-33337D03*
X112350Y-33337D03*
X111850Y-33337D03*
X111850Y-35462D03*
X112350Y-35462D03*
X112850Y-35462D03*
X113350Y-35462D03*
X80350Y-33337D03*
X79850Y-33337D03*
X79350Y-33337D03*
X78850Y-33337D03*
X78850Y-35462D03*
X79350Y-35462D03*
X79850Y-35462D03*
X80350Y-35462D03*
X85850Y-33337D03*
X85350Y-33337D03*
X84850Y-33337D03*
X84350Y-33337D03*
X84350Y-35462D03*
X84850Y-35462D03*
X85350Y-35462D03*
X85850Y-35462D03*
G54D20*
X43500Y-35000D03*
X43500Y-36000D03*
X43500Y-37000D03*
X43500Y-38000D03*
X43500Y-39000D03*
X43500Y-40000D03*
G54D21*
X54250Y-39029D03*
X53750Y-39029D03*
X53250Y-39029D03*
X52750Y-39029D03*
X52750Y-40970D03*
X53250Y-40970D03*
X53750Y-40970D03*
X54250Y-40970D03*
G54D22*
X41200Y-48300D03*
G54D23*
X42200Y-48300D03*
X43200Y-48300D03*
X43200Y-45300D03*
X42200Y-45300D03*
X41200Y-45300D03*
G54D24*
X21180Y-46800D03*
G54D25*
X22360Y-46800D03*
G54D26*
X24720Y-46800D03*
G54D25*
X21970Y-48570D03*
X21970Y-45030D03*
G54D27*
X75811Y-56100D03*
G54D28*
X74433Y-56100D03*
G54D27*
X77189Y-56100D03*
X78764Y-56100D03*
X117811Y-56100D03*
G54D28*
X116433Y-56100D03*
G54D27*
X119189Y-56100D03*
X120764Y-56100D03*
X103811Y-56100D03*
G54D28*
X102433Y-56100D03*
G54D27*
X105189Y-56100D03*
X106764Y-56100D03*
X96811Y-56100D03*
G54D28*
X95433Y-56100D03*
G54D27*
X98189Y-56100D03*
X99764Y-56100D03*
X89811Y-56100D03*
G54D28*
X88433Y-56100D03*
G54D27*
X91189Y-56100D03*
X92764Y-56100D03*
X82811Y-56100D03*
G54D28*
X81433Y-56100D03*
G54D27*
X84189Y-56100D03*
X85764Y-56100D03*
X110811Y-56100D03*
G54D28*
X109433Y-56100D03*
G54D27*
X112189Y-56100D03*
X113764Y-56100D03*
X63500Y-21400D03*
G54D28*
X62122Y-21400D03*
G54D27*
X64878Y-21400D03*
X91000Y-21400D03*
G54D28*
X89622Y-21400D03*
G54D27*
X92378Y-21400D03*
X85500Y-21400D03*
G54D28*
X84122Y-21400D03*
G54D27*
X86878Y-21400D03*
X80000Y-21400D03*
G54D28*
X78622Y-21400D03*
G54D27*
X81378Y-21400D03*
X74500Y-21400D03*
G54D28*
X73122Y-21400D03*
G54D27*
X75878Y-21400D03*
X69000Y-21400D03*
G54D28*
X67622Y-21400D03*
G54D27*
X70378Y-21400D03*
X113000Y-21400D03*
G54D28*
X111622Y-21400D03*
G54D27*
X114378Y-21400D03*
X102000Y-21400D03*
G54D28*
X100622Y-21400D03*
G54D27*
X103378Y-21400D03*
X96500Y-21400D03*
G54D28*
X95122Y-21400D03*
G54D27*
X97878Y-21400D03*
X107500Y-21400D03*
G54D28*
X106122Y-21400D03*
G54D27*
X108878Y-21400D03*
G54D29*
X56811Y-21400D03*
G54D30*
X58189Y-21400D03*
G54D29*
X53311Y-56100D03*
G54D30*
X54689Y-56100D03*
G54D29*
X57311Y-56100D03*
G54D30*
X58689Y-56100D03*
G54D29*
X69311Y-56100D03*
G54D30*
X70689Y-56100D03*
G54D29*
X51311Y-21400D03*
G54D30*
X52689Y-21400D03*
G54D29*
X65311Y-56100D03*
G54D30*
X66689Y-56100D03*
G54D29*
X61311Y-56100D03*
G54D30*
X62689Y-56100D03*
G54D29*
X47311Y-21400D03*
G54D30*
X48689Y-21400D03*
G54D29*
X49311Y-56100D03*
G54D30*
X50689Y-56100D03*
G54D29*
X43811Y-56100D03*
G54D30*
X45189Y-56100D03*
G54D29*
X39811Y-56100D03*
G54D30*
X41189Y-56100D03*
G54D29*
X35811Y-56100D03*
G54D30*
X37189Y-56100D03*
G54D29*
X41811Y-21400D03*
G54D30*
X43189Y-21400D03*
G54D29*
X37811Y-21400D03*
G54D30*
X39189Y-21400D03*
G54D31*
X28500Y-22500D03*
G54D32*
X28500Y-21500D03*
X29500Y-22500D03*
X29500Y-21500D03*
X30500Y-22500D03*
X30500Y-21500D03*
X31500Y-22500D03*
X31500Y-21500D03*
X32500Y-22500D03*
X32500Y-21500D03*
G54D18*
X24000Y-54600D03*
G54D11*
X24000Y-55600D03*
X24000Y-56600D03*
G54D18*
X26000Y-54600D03*
G54D11*
X26000Y-55600D03*
X26000Y-56600D03*
G54D18*
X28000Y-54600D03*
G54D11*
X28000Y-55600D03*
X28000Y-56600D03*
G54D18*
X30000Y-54600D03*
G54D11*
X30000Y-55600D03*
X30000Y-56600D03*
G54D18*
X32000Y-54600D03*
G54D11*
X32000Y-55600D03*
X32000Y-56600D03*
X21000Y-32000D03*
X22000Y-32000D03*
X23000Y-32000D03*
X24000Y-32000D03*
X25000Y-32000D03*
X25000Y-26000D03*
X24000Y-26000D03*
X23000Y-26000D03*
X22000Y-26000D03*
X21000Y-26000D03*
G54D33*
X21500Y-56000D03*
X123500Y-56000D03*
X123500Y-21500D03*
X21500Y-21500D03*
G54D34*
X62163Y-28961D03*
X95163Y-29075D03*
X53575Y-40292D03*
X105578Y-29526D03*
X77535Y-29042D03*
X103732Y-40784D03*
X35098Y-44704D03*
X98459Y-40801D03*
X62170Y-41005D03*
X108403Y-41041D03*
X110501Y-42300D03*
X45253Y-32130D03*
X38684Y-43494D03*
X41377Y-41956D03*
X43106Y-41977D03*
X39862Y-26975D03*
X46661Y-28290D03*
X24194Y-29559D03*
X30059Y-39554D03*
X32541Y-32267D03*
X31561Y-26449D03*
X29125Y-26134D03*
X27623Y-22522D03*
X103993Y-46036D03*
X105142Y-44887D03*
X41635Y-42571D03*
X83853Y-43142D03*
X51286Y-41835D03*
X40015Y-38785D03*
X45137Y-32835D03*
X24704Y-33161D03*
X112579Y-29600D03*
X114303Y-30008D03*
X70967Y-40770D03*
X59834Y-35126D03*
X115052Y-30511D03*
X76709Y-40775D03*
X59804Y-34601D03*
X116928Y-31600D03*
X118427Y-32600D03*
X88257Y-40394D03*
X61353Y-34101D03*
X117715Y-24458D03*
X93233Y-40754D03*
X59203Y-33487D03*
X37021Y-49800D03*
X31931Y-33036D03*
X41126Y-28500D03*
X80030Y-33926D03*
X79400Y-27063D03*
X96492Y-32738D03*
X96000Y-27157D03*
X90778Y-32750D03*
X90733Y-27047D03*
X107350Y-32733D03*
X107000Y-27031D03*
X102647Y-32791D03*
X102260Y-27161D03*
X84945Y-32754D03*
X84300Y-28462D03*
X85373Y-32545D03*
X85000Y-27030D03*
X63053Y-27039D03*
X63350Y-32742D03*
X68350Y-32754D03*
X67784Y-28325D03*
X68942Y-32752D03*
X68582Y-27044D03*
X112943Y-32756D03*
X111653Y-27871D03*
G54D35*
X53375Y-37000D02*
X53725Y-37000D01*
X53750Y-39029D02*
X53750Y-39594D01*
X107350Y-35462D02*
X107350Y-35943D01*
X85400Y-37525D02*
X85400Y-37875D01*
X43905Y-39594D02*
X43500Y-40000D01*
X53750Y-39594D02*
X43905Y-39594D01*
X74350Y-37124D02*
X74400Y-37174D01*
X74350Y-35462D02*
X74350Y-37124D01*
X74400Y-37525D02*
X74400Y-37174D01*
X79850Y-35462D02*
X79850Y-35943D01*
X79900Y-35993D02*
X79900Y-37174D01*
X79850Y-35943D02*
X79900Y-35993D01*
X68850Y-35462D02*
X68850Y-35943D01*
X63398Y-35943D02*
X63400Y-35944D01*
X63350Y-35943D02*
X63398Y-35943D01*
X63400Y-37525D02*
X63400Y-35944D01*
X63350Y-35462D02*
X63350Y-35943D01*
X96350Y-35462D02*
X96350Y-35943D01*
X101850Y-35462D02*
X101850Y-35943D01*
X96350Y-37124D02*
X96350Y-35943D01*
X96400Y-37174D02*
X96350Y-37124D01*
X101900Y-35993D02*
X101850Y-35943D01*
X101900Y-37174D02*
X101900Y-35993D01*
X107400Y-37525D02*
X107400Y-37174D01*
X112900Y-37525D02*
X112900Y-37174D01*
X107350Y-37124D02*
X107400Y-37174D01*
X107350Y-35943D02*
X107350Y-37124D01*
X112850Y-37124D02*
X112900Y-37174D01*
X112850Y-35462D02*
X112850Y-37124D01*
X85400Y-37525D02*
X85400Y-37174D01*
X85400Y-37875D02*
X90900Y-37875D01*
X74400Y-37525D02*
X74400Y-37875D01*
X85400Y-36596D02*
X85400Y-37174D01*
X85350Y-36546D02*
X85400Y-36596D01*
X85350Y-35462D02*
X85350Y-36546D01*
X81168Y-34982D02*
X79850Y-34982D01*
X81325Y-35139D02*
X81168Y-34982D01*
X82954Y-35139D02*
X81325Y-35139D01*
X83668Y-34424D02*
X82954Y-35139D01*
X87778Y-34424D02*
X83668Y-34424D01*
X87871Y-34518D02*
X87778Y-34424D01*
X87871Y-35018D02*
X87871Y-34518D01*
X86293Y-36596D02*
X87871Y-35018D01*
X85400Y-36596D02*
X86293Y-36596D01*
X79850Y-35462D02*
X79850Y-34982D01*
X79900Y-37525D02*
X79900Y-37349D01*
X79900Y-37349D02*
X79900Y-37174D01*
X68900Y-37525D02*
X68900Y-37174D01*
X68900Y-35974D02*
X68900Y-37174D01*
X68881Y-35974D02*
X68850Y-35943D01*
X68900Y-35974D02*
X68881Y-35974D01*
X79374Y-37875D02*
X74400Y-37875D01*
X79900Y-37349D02*
X79374Y-37875D01*
X70514Y-36181D02*
X70514Y-35974D01*
X72208Y-37875D02*
X70514Y-36181D01*
X74400Y-37875D02*
X72208Y-37875D01*
X71461Y-35027D02*
X70514Y-35974D01*
X71461Y-34515D02*
X71461Y-35027D01*
X71371Y-34424D02*
X71461Y-34515D01*
X67297Y-34424D02*
X71371Y-34424D01*
X65778Y-35944D02*
X67297Y-34424D01*
X63400Y-35944D02*
X65778Y-35944D01*
X70514Y-35974D02*
X68900Y-35974D01*
X101900Y-37412D02*
X101900Y-37174D01*
X101900Y-37412D02*
X101900Y-37425D01*
X102350Y-37875D02*
X107400Y-37875D01*
X101900Y-37425D02*
X102350Y-37875D01*
X107400Y-37525D02*
X107400Y-37812D01*
X107400Y-37812D02*
X107400Y-37875D01*
X107400Y-37875D02*
X112900Y-37875D01*
X112900Y-37525D02*
X112900Y-37875D01*
X90900Y-37662D02*
X90900Y-37875D01*
X90900Y-35993D02*
X90850Y-35943D01*
X90900Y-37525D02*
X90900Y-35993D01*
X90850Y-35462D02*
X90850Y-35943D01*
X96400Y-37349D02*
X96400Y-37174D01*
X90900Y-37662D02*
X90900Y-37525D01*
X91112Y-37875D02*
X90900Y-37662D01*
X96400Y-37875D02*
X91112Y-37875D01*
X96400Y-37349D02*
X96400Y-37525D01*
X96400Y-37525D02*
X96400Y-37875D01*
X101900Y-37525D02*
X101900Y-37475D01*
X101900Y-37475D02*
X101900Y-37425D01*
X101499Y-37875D02*
X96400Y-37875D01*
X101900Y-37475D02*
X101499Y-37875D01*
X63400Y-37525D02*
X63400Y-37875D01*
X53750Y-37875D02*
X63400Y-37875D01*
X53750Y-39029D02*
X53750Y-37875D01*
X53750Y-37024D02*
X53725Y-37000D01*
X53750Y-37875D02*
X53750Y-37024D01*
X111100Y-31675D02*
X111100Y-32025D01*
X72600Y-31675D02*
X72149Y-31675D01*
X72600Y-31675D02*
X73050Y-31675D01*
X73350Y-31974D02*
X73050Y-31675D01*
X73350Y-32856D02*
X73350Y-31974D01*
X105600Y-31675D02*
X105600Y-31850D01*
X89100Y-31675D02*
X89550Y-31675D01*
X67100Y-31675D02*
X67550Y-31675D01*
X67937Y-31675D02*
X67850Y-31762D01*
X72149Y-31675D02*
X67937Y-31675D01*
X67637Y-31762D02*
X67550Y-31675D01*
X67850Y-31762D02*
X67637Y-31762D01*
X73350Y-33159D02*
X73350Y-32856D01*
X83600Y-31675D02*
X83600Y-32025D01*
X78100Y-32106D02*
X78850Y-32856D01*
X78100Y-31675D02*
X78100Y-32106D01*
X78850Y-33337D02*
X78850Y-32856D01*
X89850Y-33159D02*
X89850Y-32856D01*
X94600Y-32106D02*
X95350Y-32856D01*
X94600Y-31675D02*
X94600Y-32106D01*
X95350Y-33337D02*
X95350Y-32856D01*
X106350Y-33337D02*
X106350Y-32856D01*
X73350Y-33159D02*
X73350Y-33337D01*
X73350Y-33337D02*
X73350Y-33817D01*
X78850Y-33337D02*
X78850Y-33817D01*
X84350Y-33337D02*
X84350Y-32856D01*
X78292Y-34375D02*
X78850Y-33817D01*
X73907Y-34375D02*
X78292Y-34375D01*
X73350Y-33817D02*
X73907Y-34375D01*
X84350Y-33337D02*
X84350Y-33817D01*
X83869Y-33817D02*
X84350Y-33817D01*
X83311Y-34375D02*
X83869Y-33817D01*
X79407Y-34375D02*
X83311Y-34375D01*
X78850Y-33817D02*
X79407Y-34375D01*
X84355Y-32851D02*
X84350Y-32856D01*
X84355Y-32780D02*
X84355Y-32851D01*
X83600Y-32025D02*
X84355Y-32780D01*
X85461Y-31675D02*
X89100Y-31675D01*
X84355Y-32780D02*
X85461Y-31675D01*
X89550Y-32556D02*
X89850Y-32856D01*
X89550Y-31675D02*
X89550Y-32556D01*
X62350Y-32775D02*
X61600Y-32025D01*
X62350Y-33337D02*
X62350Y-32775D01*
X61600Y-31675D02*
X61600Y-32025D01*
X100850Y-32775D02*
X100850Y-33337D01*
X100100Y-32025D02*
X100850Y-32775D01*
X100100Y-31675D02*
X100100Y-32025D01*
X106350Y-32600D02*
X106350Y-32856D01*
X105600Y-31850D02*
X106350Y-32600D01*
X89850Y-33159D02*
X89850Y-33337D01*
X89850Y-33337D02*
X89850Y-33817D01*
X95350Y-33337D02*
X95350Y-33817D01*
X94792Y-34375D02*
X95350Y-33817D01*
X90407Y-34375D02*
X94792Y-34375D01*
X89850Y-33817D02*
X90407Y-34375D01*
X100850Y-33337D02*
X100850Y-33817D01*
X100292Y-34375D02*
X100850Y-33817D01*
X95907Y-34375D02*
X100292Y-34375D01*
X95350Y-33817D02*
X95907Y-34375D01*
X106350Y-33337D02*
X106350Y-33817D01*
X105792Y-34375D02*
X106350Y-33817D01*
X101407Y-34375D02*
X105792Y-34375D01*
X100850Y-33817D02*
X101407Y-34375D01*
X111850Y-32775D02*
X111100Y-32025D01*
X111850Y-33337D02*
X111850Y-32775D01*
X106907Y-34375D02*
X106350Y-33817D01*
X111292Y-34375D02*
X106907Y-34375D01*
X111850Y-33817D02*
X111292Y-34375D01*
X111850Y-33337D02*
X111850Y-33817D01*
X62350Y-33337D02*
X62350Y-33817D01*
X67850Y-31762D02*
X67850Y-33337D01*
X67850Y-33337D02*
X67850Y-33817D01*
X62350Y-34400D02*
X62350Y-33817D01*
X60418Y-36331D02*
X62350Y-34400D01*
X45168Y-36331D02*
X60418Y-36331D01*
X43500Y-38000D02*
X45168Y-36331D01*
X67369Y-33817D02*
X67850Y-33817D01*
X66787Y-34400D02*
X67369Y-33817D01*
X62350Y-34400D02*
X66787Y-34400D01*
X89100Y-29075D02*
X89100Y-29425D01*
X83600Y-29075D02*
X83600Y-29425D01*
X83600Y-29425D02*
X78100Y-29425D01*
X78100Y-29075D02*
X78100Y-29425D01*
X83600Y-29425D02*
X89100Y-29425D01*
X105600Y-29075D02*
X105600Y-29425D01*
X111100Y-29075D02*
X111100Y-29425D01*
X61600Y-29075D02*
X62050Y-29075D01*
X94600Y-29075D02*
X95050Y-29075D01*
X100100Y-29075D02*
X100100Y-29425D01*
X95050Y-29075D02*
X95163Y-29075D01*
X95513Y-29425D02*
X100100Y-29425D01*
X95163Y-29075D02*
X95513Y-29425D01*
X111550Y-29875D02*
X111100Y-29425D01*
X111550Y-31203D02*
X111550Y-29875D01*
X111478Y-31275D02*
X111550Y-31203D01*
X107450Y-31275D02*
X111478Y-31275D01*
X105600Y-29425D02*
X107450Y-31275D01*
X53463Y-40405D02*
X53575Y-40292D01*
X53250Y-40405D02*
X53463Y-40405D01*
X53250Y-40970D02*
X53250Y-40405D01*
X105600Y-29504D02*
X105578Y-29526D01*
X105600Y-29425D02*
X105600Y-29504D01*
X77617Y-29042D02*
X77649Y-29075D01*
X77535Y-29042D02*
X77617Y-29042D01*
X78100Y-29075D02*
X77649Y-29075D01*
X62163Y-28961D02*
X62050Y-29075D01*
X67100Y-29075D02*
X67100Y-29425D01*
X62626Y-29425D02*
X67100Y-29425D01*
X62163Y-28961D02*
X62626Y-29425D01*
X67100Y-29425D02*
X72600Y-29425D01*
X72600Y-29075D02*
X72600Y-29425D01*
X64775Y-40632D02*
X65107Y-40632D01*
X65334Y-40406D02*
X65107Y-40632D01*
X68050Y-40406D02*
X65334Y-40406D01*
X68651Y-41007D02*
X68050Y-40406D01*
X69755Y-41007D02*
X68651Y-41007D01*
X69942Y-40820D02*
X69755Y-41007D01*
X69942Y-40632D02*
X69942Y-40820D01*
X70108Y-40632D02*
X69942Y-40632D01*
X70108Y-40632D02*
X70275Y-40632D01*
X70275Y-40632D02*
X70607Y-40632D01*
X81275Y-40632D02*
X81607Y-40632D01*
X91942Y-40840D02*
X91942Y-40632D01*
X91658Y-41125D02*
X91942Y-40840D01*
X87599Y-41125D02*
X91658Y-41125D01*
X87107Y-40632D02*
X87599Y-41125D01*
X86775Y-40632D02*
X87107Y-40632D01*
X92275Y-40632D02*
X91942Y-40632D01*
X92275Y-40632D02*
X92607Y-40632D01*
X93108Y-41134D02*
X92607Y-40632D01*
X97273Y-41134D02*
X93108Y-41134D01*
X97775Y-40632D02*
X97273Y-41134D01*
X86775Y-40632D02*
X86442Y-40632D01*
X46493Y-46367D02*
X49000Y-48874D01*
X39377Y-46367D02*
X46493Y-46367D01*
X37713Y-44704D02*
X39377Y-46367D01*
X35098Y-44704D02*
X37713Y-44704D01*
X49000Y-49225D02*
X49000Y-48874D01*
X81815Y-40424D02*
X81607Y-40632D01*
X83968Y-40424D02*
X81815Y-40424D01*
X84548Y-41005D02*
X83968Y-40424D01*
X86278Y-41005D02*
X84548Y-41005D01*
X86442Y-40840D02*
X86278Y-41005D01*
X86442Y-40632D02*
X86442Y-40840D01*
X103275Y-40632D02*
X103607Y-40632D01*
X98276Y-40801D02*
X98107Y-40632D01*
X98459Y-40801D02*
X98276Y-40801D01*
X97775Y-40632D02*
X98107Y-40632D01*
X75282Y-41125D02*
X75775Y-40632D01*
X70824Y-41125D02*
X75282Y-41125D01*
X70607Y-40909D02*
X70824Y-41125D01*
X70607Y-40632D02*
X70607Y-40909D01*
X80775Y-41132D02*
X81275Y-40632D01*
X76565Y-41132D02*
X80775Y-41132D01*
X76107Y-40674D02*
X76565Y-41132D01*
X76107Y-40632D02*
X76107Y-40674D01*
X75775Y-40632D02*
X76107Y-40632D01*
X64775Y-40632D02*
X64775Y-41005D01*
X103732Y-40757D02*
X103732Y-40784D01*
X103607Y-40632D02*
X103732Y-40757D01*
X108439Y-41005D02*
X108403Y-41041D01*
X108775Y-41005D02*
X108439Y-41005D01*
X108775Y-40632D02*
X108775Y-41005D01*
X103900Y-45575D02*
X103900Y-45500D01*
X112607Y-42300D02*
X114275Y-40632D01*
X110501Y-42300D02*
X112607Y-42300D01*
X103871Y-45500D02*
X103900Y-45500D01*
X103449Y-45078D02*
X103871Y-45500D01*
X103449Y-44547D02*
X103449Y-45078D01*
X104939Y-43057D02*
X103449Y-44547D01*
X109744Y-43057D02*
X104939Y-43057D01*
X110501Y-42300D02*
X109744Y-43057D01*
X104105Y-45294D02*
X105900Y-45294D01*
X103900Y-45500D02*
X104105Y-45294D01*
X105900Y-45600D02*
X105900Y-45294D01*
X64775Y-41005D02*
X62170Y-41005D01*
X25320Y-46200D02*
X31200Y-46200D01*
X24720Y-46800D02*
X25320Y-46200D01*
X36000Y-47200D02*
X32200Y-47200D01*
X32200Y-47200D02*
X31200Y-47200D01*
X50000Y-27700D02*
X50000Y-28005D01*
X42500Y-27725D02*
X42950Y-27725D01*
X40500Y-27700D02*
X40500Y-27942D01*
X42500Y-27725D02*
X42049Y-27725D01*
X46000Y-32125D02*
X46000Y-31774D01*
X46000Y-27940D02*
X46000Y-31774D01*
X43165Y-27940D02*
X42950Y-27725D01*
X46000Y-27940D02*
X43165Y-27940D01*
X45544Y-32130D02*
X45549Y-32125D01*
X45253Y-32130D02*
X45544Y-32130D01*
X46000Y-32125D02*
X45549Y-32125D01*
X39169Y-43494D02*
X39274Y-43600D01*
X38684Y-43494D02*
X39169Y-43494D01*
X39625Y-43600D02*
X39274Y-43600D01*
X46871Y-28005D02*
X50000Y-28005D01*
X46806Y-27940D02*
X46871Y-28005D01*
X46000Y-27940D02*
X46806Y-27940D01*
X51269Y-28005D02*
X51549Y-27725D01*
X50000Y-28005D02*
X51269Y-28005D01*
X52000Y-27725D02*
X51549Y-27725D01*
X41769Y-28005D02*
X40500Y-28005D01*
X42049Y-27725D02*
X41769Y-28005D01*
X40500Y-28005D02*
X40500Y-27942D01*
X36425Y-28975D02*
X21500Y-28975D01*
X37395Y-28005D02*
X36425Y-28975D01*
X40500Y-28005D02*
X37395Y-28005D01*
X40500Y-28005D02*
X40500Y-28005D01*
X21500Y-26500D02*
X21500Y-28975D01*
X21000Y-26000D02*
X21500Y-26500D01*
X21500Y-34500D02*
X21000Y-35000D01*
X21500Y-28975D02*
X21500Y-34500D01*
X38194Y-43984D02*
X38684Y-43494D01*
X34415Y-43984D02*
X38194Y-43984D01*
X32200Y-46200D02*
X34415Y-43984D01*
X64025Y-40632D02*
X64357Y-40632D01*
X63400Y-38275D02*
X63850Y-38275D01*
X80857Y-40411D02*
X80857Y-40632D01*
X81232Y-40036D02*
X80857Y-40411D01*
X81232Y-39157D02*
X81232Y-40036D01*
X80350Y-38275D02*
X81232Y-39157D01*
X79900Y-38275D02*
X80350Y-38275D01*
X74400Y-38275D02*
X74850Y-38275D01*
X80525Y-40632D02*
X80192Y-40632D01*
X97025Y-40632D02*
X96692Y-40632D01*
X112900Y-38275D02*
X113350Y-38275D01*
X91800Y-25825D02*
X91800Y-25474D01*
X86300Y-25649D02*
X86300Y-25474D01*
X86300Y-25649D02*
X86300Y-25825D01*
X86300Y-25825D02*
X86300Y-26175D01*
X91800Y-25825D02*
X91800Y-26175D01*
X86877Y-21400D02*
X86877Y-24896D01*
X86877Y-24896D02*
X86300Y-25474D01*
X92377Y-21400D02*
X92377Y-24896D01*
X92377Y-24896D02*
X91800Y-25474D01*
X97400Y-25825D02*
X97400Y-26175D01*
X121253Y-33475D02*
X122003Y-34225D01*
X121253Y-33100D02*
X121253Y-33475D01*
X122003Y-34225D02*
X122003Y-34600D01*
X123503Y-35225D02*
X123503Y-35600D01*
X122628Y-34350D02*
X123503Y-35225D01*
X122628Y-34225D02*
X122628Y-34350D01*
X122003Y-34225D02*
X122628Y-34225D01*
X122628Y-34225D02*
X122753Y-34100D01*
X75025Y-40632D02*
X74692Y-40632D01*
X75734Y-39159D02*
X75734Y-40139D01*
X74850Y-38275D02*
X75734Y-39159D01*
X79934Y-40375D02*
X80192Y-40632D01*
X76861Y-40375D02*
X79934Y-40375D01*
X76625Y-40139D02*
X76861Y-40375D01*
X75734Y-40139D02*
X76625Y-40139D01*
X75357Y-40408D02*
X75357Y-40632D01*
X75626Y-40139D02*
X75357Y-40408D01*
X75734Y-40139D02*
X75626Y-40139D01*
X75734Y-40139D02*
X75734Y-40139D01*
X75025Y-40632D02*
X75357Y-40632D01*
X80525Y-40632D02*
X80857Y-40632D01*
X80700Y-37924D02*
X80350Y-38275D01*
X85049Y-37924D02*
X80700Y-37924D01*
X85400Y-38275D02*
X85049Y-37924D01*
X85400Y-38275D02*
X85850Y-38275D01*
X91525Y-40381D02*
X91525Y-40632D01*
X90900Y-38275D02*
X91350Y-38275D01*
X92674Y-40255D02*
X92260Y-40255D01*
X92794Y-40375D02*
X92674Y-40255D01*
X96434Y-40375D02*
X92794Y-40375D01*
X96692Y-40632D02*
X96434Y-40375D01*
X91651Y-40255D02*
X91525Y-40381D01*
X92260Y-40255D02*
X91651Y-40255D01*
X97400Y-25825D02*
X97850Y-25825D01*
X101900Y-38275D02*
X102350Y-38275D01*
X92260Y-39185D02*
X91350Y-38275D01*
X92260Y-40255D02*
X92260Y-39185D01*
X68900Y-38275D02*
X69350Y-38275D01*
X70250Y-39175D02*
X69350Y-38275D01*
X70250Y-40245D02*
X70250Y-39175D01*
X69912Y-40245D02*
X69525Y-40632D01*
X70250Y-40245D02*
X69912Y-40245D01*
X68900Y-38275D02*
X68900Y-37924D01*
X66009Y-37924D02*
X68900Y-37924D01*
X64754Y-39179D02*
X66009Y-37924D01*
X63850Y-38275D02*
X64754Y-39179D01*
X64357Y-40443D02*
X64357Y-40632D01*
X64754Y-40046D02*
X64357Y-40443D01*
X64754Y-39179D02*
X64754Y-40046D01*
X80700Y-25825D02*
X80700Y-26175D01*
X80700Y-25825D02*
X81150Y-25825D01*
X81377Y-25374D02*
X81489Y-25485D01*
X81377Y-21400D02*
X81377Y-25374D01*
X82178Y-26175D02*
X81489Y-25485D01*
X86300Y-26175D02*
X82178Y-26175D01*
X81489Y-25485D02*
X81150Y-25825D01*
X113525Y-40632D02*
X113192Y-40632D01*
X108732Y-39157D02*
X108732Y-40230D01*
X107850Y-38275D02*
X108732Y-39157D01*
X109865Y-40230D02*
X108732Y-40230D01*
X110017Y-40382D02*
X109865Y-40230D01*
X112942Y-40382D02*
X110017Y-40382D01*
X113192Y-40632D02*
X112942Y-40382D01*
X107400Y-38275D02*
X107850Y-38275D01*
X113525Y-40632D02*
X113857Y-40632D01*
X113857Y-40428D02*
X113857Y-40632D01*
X114249Y-40035D02*
X113857Y-40428D01*
X114249Y-38275D02*
X114249Y-40035D01*
X116924Y-35600D02*
X114249Y-38275D01*
X121378Y-35600D02*
X116924Y-35600D01*
X122003Y-34975D02*
X121378Y-35600D01*
X122003Y-34600D02*
X122003Y-34975D01*
X114249Y-38275D02*
X113350Y-38275D01*
X72600Y-30925D02*
X72600Y-30749D01*
X72600Y-30749D02*
X72600Y-30574D01*
X67725Y-30749D02*
X67550Y-30925D01*
X72600Y-30749D02*
X67725Y-30749D01*
X67100Y-30925D02*
X67550Y-30925D01*
X89100Y-30925D02*
X89100Y-30749D01*
X84225Y-30749D02*
X84050Y-30925D01*
X89100Y-30749D02*
X84225Y-30749D01*
X83600Y-30925D02*
X84050Y-30925D01*
X75300Y-25825D02*
X75750Y-25825D01*
X76039Y-21561D02*
X75877Y-21400D01*
X76039Y-25535D02*
X76039Y-21561D01*
X76039Y-25535D02*
X75750Y-25825D01*
X94600Y-30925D02*
X94600Y-30574D01*
X97025Y-40632D02*
X97357Y-40632D01*
X96400Y-38275D02*
X96850Y-38275D01*
X97743Y-39168D02*
X96850Y-38275D01*
X97743Y-40247D02*
X97743Y-39168D01*
X97357Y-40425D02*
X97357Y-40632D01*
X97535Y-40247D02*
X97357Y-40425D01*
X97743Y-40247D02*
X97535Y-40247D01*
X93884Y-29859D02*
X94600Y-30574D01*
X93884Y-26175D02*
X93884Y-29859D01*
X97400Y-26175D02*
X93884Y-26175D01*
X93656Y-26175D02*
X92377Y-24896D01*
X93884Y-26175D02*
X93656Y-26175D01*
X78100Y-30925D02*
X83600Y-30925D01*
X76678Y-26175D02*
X76039Y-25535D01*
X80700Y-26175D02*
X76678Y-26175D01*
X89550Y-30299D02*
X89100Y-30749D01*
X89550Y-28822D02*
X89550Y-30299D01*
X89440Y-28712D02*
X89550Y-28822D01*
X88759Y-28712D02*
X89440Y-28712D01*
X88649Y-28602D02*
X88759Y-28712D01*
X88649Y-26175D02*
X88649Y-28602D01*
X88156Y-26175D02*
X88649Y-26175D01*
X86877Y-24896D02*
X88156Y-26175D01*
X88649Y-26175D02*
X91800Y-26175D01*
X103000Y-21777D02*
X103377Y-21400D01*
X103000Y-25825D02*
X103000Y-21777D01*
X108400Y-25825D02*
X108400Y-26175D01*
X105600Y-30925D02*
X105600Y-30574D01*
X108400Y-25825D02*
X108850Y-25825D01*
X108877Y-21400D02*
X108877Y-25797D01*
X108877Y-25797D02*
X108850Y-25825D01*
X114000Y-25825D02*
X114000Y-26175D01*
X110649Y-30124D02*
X110649Y-26175D01*
X111100Y-30574D02*
X110649Y-30124D01*
X114000Y-26175D02*
X110649Y-26175D01*
X109255Y-26175D02*
X108877Y-25797D01*
X110649Y-26175D02*
X109255Y-26175D01*
X111100Y-30925D02*
X111100Y-30574D01*
X88395Y-40036D02*
X86732Y-40036D01*
X88740Y-40381D02*
X88395Y-40036D01*
X91525Y-40381D02*
X88740Y-40381D01*
X86732Y-39157D02*
X86732Y-40036D01*
X85850Y-38275D02*
X86732Y-39157D01*
X86351Y-40306D02*
X86025Y-40632D01*
X86462Y-40306D02*
X86351Y-40306D01*
X86732Y-40036D02*
X86462Y-40306D01*
X64400Y-25825D02*
X64400Y-26175D01*
X69900Y-25825D02*
X69900Y-26175D01*
X73050Y-30124D02*
X72600Y-30574D01*
X73050Y-28812D02*
X73050Y-30124D01*
X72937Y-28700D02*
X73050Y-28812D01*
X72277Y-28700D02*
X72937Y-28700D01*
X70450Y-26872D02*
X72277Y-28700D01*
X70450Y-26415D02*
X70450Y-26872D01*
X70209Y-26175D02*
X70450Y-26415D01*
X69900Y-26175D02*
X70209Y-26175D01*
X64877Y-24996D02*
X64400Y-25474D01*
X64877Y-21400D02*
X64877Y-24996D01*
X64400Y-25825D02*
X64400Y-25474D01*
X69900Y-25825D02*
X69900Y-25474D01*
X70907Y-20870D02*
X70377Y-21400D01*
X75348Y-20870D02*
X70907Y-20870D01*
X75877Y-21400D02*
X75348Y-20870D01*
X70377Y-24996D02*
X69900Y-25474D01*
X70377Y-21400D02*
X70377Y-24996D01*
X97877Y-21400D02*
X97877Y-25797D01*
X97877Y-25797D02*
X97850Y-25825D01*
X100100Y-30925D02*
X100100Y-30574D01*
X108400Y-26175D02*
X104896Y-26175D01*
X104896Y-26175D02*
X103000Y-26175D01*
X103000Y-25825D02*
X103000Y-26175D01*
X99649Y-28574D02*
X99649Y-26224D01*
X99800Y-28724D02*
X99649Y-28574D01*
X100453Y-28724D02*
X99800Y-28724D01*
X100550Y-28821D02*
X100453Y-28724D01*
X100550Y-30124D02*
X100550Y-28821D01*
X100100Y-30574D02*
X100550Y-30124D01*
X99222Y-25797D02*
X97877Y-25797D01*
X99649Y-26224D02*
X99222Y-25797D01*
X99699Y-26175D02*
X103000Y-26175D01*
X99649Y-26224D02*
X99699Y-26175D01*
X108357Y-40414D02*
X108357Y-40632D01*
X108541Y-40230D02*
X108357Y-40414D01*
X108732Y-40230D02*
X108541Y-40230D01*
X108025Y-40632D02*
X107692Y-40632D01*
X104896Y-29871D02*
X105600Y-30574D01*
X104896Y-26175D02*
X104896Y-29871D01*
X69900Y-26175D02*
X64400Y-26175D01*
X61600Y-30925D02*
X61600Y-30574D01*
X60899Y-26577D02*
X60899Y-29874D01*
X61302Y-26175D02*
X60899Y-26577D01*
X64400Y-26175D02*
X61302Y-26175D01*
X60899Y-29874D02*
X61600Y-30574D01*
X70743Y-40245D02*
X70250Y-40245D01*
X70913Y-40414D02*
X70743Y-40245D01*
X74473Y-40414D02*
X70913Y-40414D01*
X74692Y-40632D02*
X74473Y-40414D01*
X98882Y-40247D02*
X97743Y-40247D01*
X99059Y-40424D02*
X98882Y-40247D01*
X101984Y-40424D02*
X99059Y-40424D01*
X102192Y-40632D02*
X101984Y-40424D01*
X102525Y-40632D02*
X102192Y-40632D01*
X107484Y-40424D02*
X107692Y-40632D01*
X103815Y-40424D02*
X107484Y-40424D01*
X103457Y-40066D02*
X103815Y-40424D01*
X103234Y-40066D02*
X103457Y-40066D01*
X103234Y-39158D02*
X103234Y-40066D01*
X102350Y-38275D02*
X103234Y-39158D01*
X102857Y-40442D02*
X102857Y-40632D01*
X103234Y-40066D02*
X102857Y-40442D01*
X102525Y-40632D02*
X102857Y-40632D01*
X108025Y-40632D02*
X108357Y-40632D01*
X57546Y-33227D02*
X60899Y-29874D01*
X32235Y-33227D02*
X57546Y-33227D01*
X32076Y-33386D02*
X32235Y-33227D01*
X25392Y-33386D02*
X32076Y-33386D01*
X24425Y-34353D02*
X25392Y-33386D01*
X22646Y-34353D02*
X24425Y-34353D01*
X22000Y-35000D02*
X22646Y-34353D01*
X74432Y-56100D02*
X73903Y-56100D01*
X109432Y-56100D02*
X108903Y-56100D01*
X74432Y-56100D02*
X74962Y-56100D01*
X107870Y-57133D02*
X108903Y-56100D01*
X75995Y-57133D02*
X107870Y-57133D01*
X74962Y-56100D02*
X75995Y-57133D01*
X67428Y-49624D02*
X73903Y-56100D01*
X45526Y-49624D02*
X67428Y-49624D01*
X42576Y-46675D02*
X45526Y-49624D01*
X31991Y-46675D02*
X42576Y-46675D01*
X31700Y-46383D02*
X31991Y-46675D01*
X31700Y-46025D02*
X31700Y-46383D01*
X31144Y-45470D02*
X31700Y-46025D01*
X28470Y-45470D02*
X31144Y-45470D01*
X24000Y-41000D02*
X28470Y-45470D01*
X81432Y-56100D02*
X81432Y-55570D01*
X82492Y-56629D02*
X81962Y-56100D01*
X83058Y-56629D02*
X82492Y-56629D01*
X83500Y-56187D02*
X83058Y-56629D01*
X83500Y-56039D02*
X83500Y-56187D01*
X84485Y-55053D02*
X83500Y-56039D01*
X114857Y-55053D02*
X84485Y-55053D01*
X115903Y-56100D02*
X114857Y-55053D01*
X116432Y-56100D02*
X115903Y-56100D01*
X81432Y-56100D02*
X81962Y-56100D01*
X70015Y-44152D02*
X81432Y-55570D01*
X42362Y-44152D02*
X70015Y-44152D01*
X40842Y-42631D02*
X42362Y-44152D01*
X35816Y-42631D02*
X40842Y-42631D01*
X35439Y-43008D02*
X35816Y-42631D01*
X28008Y-43008D02*
X35439Y-43008D01*
X26000Y-41000D02*
X28008Y-43008D01*
X88432Y-56100D02*
X87903Y-56100D01*
X87370Y-55567D02*
X87903Y-56100D01*
X85539Y-55567D02*
X87370Y-55567D01*
X84223Y-56883D02*
X85539Y-55567D01*
X81234Y-56883D02*
X84223Y-56883D01*
X68753Y-44402D02*
X81234Y-56883D01*
X42259Y-44402D02*
X68753Y-44402D01*
X40738Y-42882D02*
X42259Y-44402D01*
X35919Y-42882D02*
X40738Y-42882D01*
X35543Y-43258D02*
X35919Y-42882D01*
X27580Y-43258D02*
X35543Y-43258D01*
X25524Y-41202D02*
X27580Y-43258D01*
X25524Y-40798D02*
X25524Y-41202D01*
X25818Y-40504D02*
X25524Y-40798D01*
X27504Y-40504D02*
X25818Y-40504D01*
X28000Y-41000D02*
X27504Y-40504D01*
X41277Y-41856D02*
X41377Y-41956D01*
X35530Y-41856D02*
X41277Y-41856D01*
X35153Y-42233D02*
X35530Y-41856D01*
X31233Y-42233D02*
X35153Y-42233D01*
X30000Y-41000D02*
X31233Y-42233D01*
X30500Y-39500D02*
X29000Y-38000D01*
X40517Y-39500D02*
X30500Y-39500D01*
X42994Y-41977D02*
X40517Y-39500D01*
X43106Y-41977D02*
X42994Y-41977D01*
X51171Y-28500D02*
X50260Y-28500D01*
X51595Y-28075D02*
X51171Y-28500D01*
X52353Y-28075D02*
X51595Y-28075D01*
X53180Y-27248D02*
X52353Y-28075D01*
X53180Y-21193D02*
X53180Y-27248D01*
X52897Y-20909D02*
X53180Y-21193D01*
X30090Y-20909D02*
X52897Y-20909D01*
X29500Y-21500D02*
X30090Y-20909D01*
X49530Y-28290D02*
X49740Y-28500D01*
X46661Y-28290D02*
X49530Y-28290D01*
X30648Y-26975D02*
X39862Y-26975D01*
X29725Y-26052D02*
X30648Y-26975D01*
X29725Y-22725D02*
X29725Y-26052D01*
X29500Y-22500D02*
X29725Y-22725D01*
X24194Y-31805D02*
X24194Y-29559D01*
X24000Y-32000D02*
X24194Y-31805D01*
X30262Y-39758D02*
X30059Y-39554D01*
X32784Y-39758D02*
X30262Y-39758D01*
X34000Y-40974D02*
X32784Y-39758D01*
X34000Y-41000D02*
X34000Y-40974D01*
X32324Y-32483D02*
X32541Y-32267D01*
X23483Y-32483D02*
X32324Y-32483D01*
X23000Y-32000D02*
X23483Y-32483D01*
X30500Y-25774D02*
X31000Y-26274D01*
X30500Y-22500D02*
X30500Y-25774D01*
X31000Y-26625D02*
X31000Y-26449D01*
X31000Y-26449D02*
X31000Y-26274D01*
X31000Y-26449D02*
X31561Y-26449D01*
X29000Y-26174D02*
X29040Y-26134D01*
X29000Y-26625D02*
X29000Y-26174D01*
X29040Y-26134D02*
X29125Y-26134D01*
X27623Y-24718D02*
X27623Y-22522D01*
X29040Y-26134D02*
X27623Y-24718D01*
X106440Y-44214D02*
X106160Y-44494D01*
X111088Y-44214D02*
X106440Y-44214D01*
X111424Y-44551D02*
X111088Y-44214D01*
X111424Y-44700D02*
X111424Y-44551D01*
X106160Y-44800D02*
X106160Y-44494D01*
X111662Y-44700D02*
X111424Y-44700D01*
X111662Y-44700D02*
X111900Y-44700D01*
X117424Y-44551D02*
X117424Y-44700D01*
X117098Y-44224D02*
X117424Y-44551D01*
X112850Y-44224D02*
X117098Y-44224D01*
X112375Y-44700D02*
X112850Y-44224D01*
X111900Y-44700D02*
X112375Y-44700D01*
X117900Y-44700D02*
X117424Y-44700D01*
X64363Y-44652D02*
X75810Y-56100D01*
X42155Y-44652D02*
X64363Y-44652D01*
X40634Y-43132D02*
X42155Y-44652D01*
X36276Y-43132D02*
X40634Y-43132D01*
X35900Y-43508D02*
X36276Y-43132D01*
X27464Y-43508D02*
X35900Y-43508D01*
X25000Y-41044D02*
X27464Y-43508D01*
X25000Y-41000D02*
X25000Y-41044D01*
X106754Y-44700D02*
X106160Y-45294D01*
X110900Y-44700D02*
X106754Y-44700D01*
X106160Y-45600D02*
X106160Y-45294D01*
X110900Y-45700D02*
X111900Y-45700D01*
X105552Y-44887D02*
X105640Y-44800D01*
X105142Y-44887D02*
X105552Y-44887D01*
X92874Y-46036D02*
X82810Y-56100D01*
X103993Y-46036D02*
X92874Y-46036D01*
X70451Y-43740D02*
X82810Y-56100D01*
X42304Y-43740D02*
X70451Y-43740D01*
X40927Y-42363D02*
X42304Y-43740D01*
X35731Y-42363D02*
X40927Y-42363D01*
X35343Y-42751D02*
X35731Y-42363D01*
X28751Y-42751D02*
X35343Y-42751D01*
X27000Y-41000D02*
X28751Y-42751D01*
X108420Y-45905D02*
X105640Y-45905D01*
X109125Y-45200D02*
X108420Y-45905D01*
X116400Y-45200D02*
X109125Y-45200D01*
X116900Y-44700D02*
X116400Y-45200D01*
X105640Y-45600D02*
X105640Y-45905D01*
X41497Y-42571D02*
X41635Y-42571D01*
X41038Y-42113D02*
X41497Y-42571D01*
X35627Y-42113D02*
X41038Y-42113D01*
X35256Y-42483D02*
X35627Y-42113D01*
X30483Y-42483D02*
X35256Y-42483D01*
X29000Y-41000D02*
X30483Y-42483D01*
X43069Y-43142D02*
X83853Y-43142D01*
X41523Y-41596D02*
X43069Y-43142D01*
X35436Y-41596D02*
X41523Y-41596D01*
X35049Y-41983D02*
X35436Y-41596D01*
X31983Y-41983D02*
X35049Y-41983D01*
X31000Y-41000D02*
X31983Y-41983D01*
X30522Y-38522D02*
X30000Y-38000D01*
X35329Y-38522D02*
X30522Y-38522D01*
X36031Y-39224D02*
X35329Y-38522D01*
X40596Y-39224D02*
X36031Y-39224D01*
X42998Y-41626D02*
X40596Y-39224D01*
X51078Y-41626D02*
X42998Y-41626D01*
X51286Y-41835D02*
X51078Y-41626D01*
X28500Y-21500D02*
X24300Y-21500D01*
X21000Y-30900D02*
X21000Y-32000D01*
X20350Y-30250D02*
X21000Y-30900D01*
X20350Y-25450D02*
X20350Y-30250D01*
X24300Y-21500D02*
X20350Y-25450D01*
X122753Y-49249D02*
X120764Y-49249D01*
X120750Y-49250D02*
X120764Y-49250D01*
X120763Y-49250D02*
X120750Y-49250D01*
X120764Y-49249D02*
X120763Y-49250D01*
X120764Y-56100D02*
X120764Y-49250D01*
X120764Y-49250D02*
X120764Y-48164D01*
X120200Y-47600D02*
X120200Y-41153D01*
X120764Y-48164D02*
X120200Y-47600D01*
X120764Y-56100D02*
X120864Y-56000D01*
X120231Y-56632D02*
X120764Y-56100D01*
X114296Y-56632D02*
X120231Y-56632D01*
X113764Y-56100D02*
X114296Y-56632D01*
X93293Y-56629D02*
X92764Y-56100D01*
X99234Y-56629D02*
X93293Y-56629D01*
X99764Y-56100D02*
X99234Y-56629D01*
X92234Y-56629D02*
X92764Y-56100D01*
X86293Y-56629D02*
X92234Y-56629D01*
X85764Y-56100D02*
X86293Y-56629D01*
X106234Y-56629D02*
X106764Y-56100D01*
X100293Y-56629D02*
X106234Y-56629D01*
X99764Y-56100D02*
X100293Y-56629D01*
X113228Y-55564D02*
X113764Y-56100D01*
X107299Y-55564D02*
X113228Y-55564D01*
X106764Y-56100D02*
X107299Y-55564D01*
X52625Y-37000D02*
X52625Y-37450D01*
X44035Y-38464D02*
X52750Y-38464D01*
X43500Y-39000D02*
X44035Y-38464D01*
X52750Y-39029D02*
X52750Y-38464D01*
X52750Y-37575D02*
X52625Y-37450D01*
X52750Y-38464D02*
X52750Y-37575D01*
X50000Y-28500D02*
X50000Y-28805D01*
X51219Y-28805D02*
X51549Y-28475D01*
X50000Y-28805D02*
X51219Y-28805D01*
X50000Y-29325D02*
X46450Y-32875D01*
X50000Y-28805D02*
X50000Y-29325D01*
X46000Y-32875D02*
X46450Y-32875D01*
X42500Y-28475D02*
X42049Y-28475D01*
X33974Y-38000D02*
X34000Y-38000D01*
X33499Y-37524D02*
X33974Y-38000D01*
X28475Y-37524D02*
X33499Y-37524D01*
X28000Y-38000D02*
X28475Y-37524D01*
X51774Y-28475D02*
X51549Y-28475D01*
X51774Y-28475D02*
X52000Y-28475D01*
X58189Y-22736D02*
X58189Y-21400D01*
X52450Y-28475D02*
X58189Y-22736D01*
X52000Y-28475D02*
X52450Y-28475D01*
X39230Y-38000D02*
X40015Y-38785D01*
X34000Y-38000D02*
X39230Y-38000D01*
X46000Y-32875D02*
X45549Y-32875D01*
X45509Y-32835D02*
X45137Y-32835D01*
X45549Y-32875D02*
X45509Y-32835D01*
X21000Y-45440D02*
X21000Y-41000D01*
X22360Y-46800D02*
X21000Y-45440D01*
X27500Y-37500D02*
X28000Y-38000D01*
X27500Y-36791D02*
X27500Y-37500D01*
X27223Y-36515D02*
X27500Y-36791D01*
X25736Y-36515D02*
X27223Y-36515D01*
X21252Y-41000D02*
X25736Y-36515D01*
X21000Y-41000D02*
X21252Y-41000D01*
X105900Y-44389D02*
X105900Y-44483D01*
X106741Y-43547D02*
X105900Y-44389D01*
X117806Y-43547D02*
X106741Y-43547D01*
X121253Y-40100D02*
X120200Y-41153D01*
X120200Y-41153D02*
X117806Y-43547D01*
X105900Y-44483D02*
X105900Y-44800D01*
X104691Y-44483D02*
X104350Y-44825D01*
X105900Y-44483D02*
X104691Y-44483D01*
X103900Y-44825D02*
X104350Y-44825D01*
X40500Y-28500D02*
X40500Y-28805D01*
X40560Y-28865D02*
X41719Y-28865D01*
X40500Y-28805D02*
X40560Y-28865D01*
X41719Y-29417D02*
X41719Y-28865D01*
X45137Y-32835D02*
X41719Y-29417D01*
X41719Y-28805D02*
X42049Y-28475D01*
X41719Y-28865D02*
X41719Y-28805D01*
X98718Y-55570D02*
X98189Y-56100D01*
X104659Y-55570D02*
X98718Y-55570D01*
X105189Y-56100D02*
X104659Y-55570D01*
X91718Y-55570D02*
X91189Y-56100D01*
X97659Y-55570D02*
X91718Y-55570D01*
X98189Y-56100D02*
X97659Y-55570D01*
X84971Y-55317D02*
X84189Y-56100D01*
X90406Y-55317D02*
X84971Y-55317D01*
X91189Y-56100D02*
X90406Y-55317D01*
X41650Y-45750D02*
X41200Y-45300D01*
X42749Y-45750D02*
X41650Y-45750D01*
X43200Y-45300D02*
X42749Y-45750D01*
X40375Y-44475D02*
X40375Y-43600D01*
X41200Y-45300D02*
X40375Y-44475D01*
X54291Y-55609D02*
X53801Y-56100D01*
X56330Y-55609D02*
X54291Y-55609D01*
X56820Y-56100D02*
X56330Y-55609D01*
X57310Y-56100D02*
X56820Y-56100D01*
X53310Y-56100D02*
X53801Y-56100D01*
X68330Y-56590D02*
X68820Y-56100D01*
X66291Y-56590D02*
X68330Y-56590D01*
X65801Y-56100D02*
X66291Y-56590D01*
X65310Y-56100D02*
X65801Y-56100D01*
X69310Y-56100D02*
X68820Y-56100D01*
X64330Y-56590D02*
X64820Y-56100D01*
X62291Y-56590D02*
X64330Y-56590D01*
X61801Y-56100D02*
X62291Y-56590D01*
X61310Y-56100D02*
X61801Y-56100D01*
X65310Y-56100D02*
X64820Y-56100D01*
X53310Y-56100D02*
X52820Y-56100D01*
X49310Y-50461D02*
X49000Y-50150D01*
X49310Y-56100D02*
X49310Y-50461D01*
X52330Y-56590D02*
X52820Y-56100D01*
X50291Y-56590D02*
X52330Y-56590D01*
X49801Y-56100D02*
X50291Y-56590D01*
X49310Y-56100D02*
X49801Y-56100D01*
X49000Y-49975D02*
X49000Y-50150D01*
X24000Y-54600D02*
X24000Y-54124D01*
X26500Y-35500D02*
X27000Y-35000D01*
X25816Y-35500D02*
X26500Y-35500D01*
X25500Y-35816D02*
X25816Y-35500D01*
X25500Y-36173D02*
X25500Y-35816D01*
X24925Y-36747D02*
X25500Y-36173D01*
X24570Y-36747D02*
X24925Y-36747D01*
X20509Y-40808D02*
X24570Y-36747D01*
X20509Y-50634D02*
X20509Y-40808D01*
X24000Y-54124D02*
X20509Y-50634D01*
X20249Y-38750D02*
X24000Y-35000D01*
X20249Y-51715D02*
X20249Y-38750D01*
X23608Y-55075D02*
X20249Y-51715D01*
X29049Y-55075D02*
X23608Y-55075D01*
X29524Y-54600D02*
X29049Y-55075D01*
X30000Y-54600D02*
X29524Y-54600D01*
X23161Y-33161D02*
X24704Y-33161D01*
X22000Y-32000D02*
X23161Y-33161D01*
X61600Y-40775D02*
X61600Y-41125D01*
X33475Y-34524D02*
X33000Y-35000D01*
X37311Y-34524D02*
X33475Y-34524D01*
X43292Y-40506D02*
X37311Y-34524D01*
X51543Y-40506D02*
X43292Y-40506D01*
X52573Y-41535D02*
X51543Y-40506D01*
X61189Y-41535D02*
X52573Y-41535D01*
X61600Y-41125D02*
X61189Y-41535D01*
X61600Y-22451D02*
X61600Y-25825D01*
X62122Y-21929D02*
X61600Y-22451D01*
X62122Y-21400D02*
X62122Y-21929D01*
X63500Y-24974D02*
X63000Y-25474D01*
X63500Y-21400D02*
X63500Y-24974D01*
X63000Y-25825D02*
X63000Y-25474D01*
X122003Y-29600D02*
X112579Y-29600D01*
X67100Y-40775D02*
X67100Y-41125D01*
X32522Y-35522D02*
X32000Y-35000D01*
X37954Y-35522D02*
X32522Y-35522D01*
X43188Y-40756D02*
X37954Y-35522D01*
X51440Y-40756D02*
X43188Y-40756D01*
X52469Y-41785D02*
X51440Y-40756D01*
X66439Y-41785D02*
X52469Y-41785D01*
X67100Y-41125D02*
X66439Y-41785D01*
X67622Y-24952D02*
X67100Y-25474D01*
X67622Y-21400D02*
X67622Y-24952D01*
X67100Y-25825D02*
X67100Y-25474D01*
X121162Y-30008D02*
X114303Y-30008D01*
X121253Y-30100D02*
X121162Y-30008D01*
X68500Y-25825D02*
X68500Y-25474D01*
X70054Y-20345D02*
X69000Y-21400D01*
X114492Y-20345D02*
X70054Y-20345D01*
X122794Y-28647D02*
X114492Y-20345D01*
X122794Y-29515D02*
X122794Y-28647D01*
X123503Y-30225D02*
X122794Y-29515D01*
X123503Y-30600D02*
X123503Y-30225D01*
X69000Y-24974D02*
X68500Y-25474D01*
X69000Y-21400D02*
X69000Y-24974D01*
X72145Y-40770D02*
X70967Y-40770D01*
X72149Y-40775D02*
X72145Y-40770D01*
X72600Y-40775D02*
X72149Y-40775D01*
X45056Y-35126D02*
X59834Y-35126D01*
X44203Y-34273D02*
X45056Y-35126D01*
X32603Y-34273D02*
X44203Y-34273D01*
X32431Y-34445D02*
X32603Y-34273D01*
X31554Y-34445D02*
X32431Y-34445D01*
X31000Y-35000D02*
X31554Y-34445D01*
X73122Y-24952D02*
X72600Y-25474D01*
X73122Y-21400D02*
X73122Y-24952D01*
X72600Y-25825D02*
X72600Y-25474D01*
X121290Y-30511D02*
X115052Y-30511D01*
X121878Y-31100D02*
X121290Y-30511D01*
X122753Y-31100D02*
X121878Y-31100D01*
X74500Y-24974D02*
X74000Y-25474D01*
X74500Y-21400D02*
X74500Y-24974D01*
X74000Y-25825D02*
X74000Y-25474D01*
X78100Y-40775D02*
X76709Y-40775D01*
X44885Y-34601D02*
X59804Y-34601D01*
X44307Y-34023D02*
X44885Y-34601D01*
X32500Y-34023D02*
X44307Y-34023D01*
X32328Y-34195D02*
X32500Y-34023D01*
X30804Y-34195D02*
X32328Y-34195D01*
X30000Y-35000D02*
X30804Y-34195D01*
X78100Y-22451D02*
X78100Y-25825D01*
X78622Y-21929D02*
X78100Y-22451D01*
X78622Y-21400D02*
X78622Y-21929D01*
X80000Y-24874D02*
X79400Y-25474D01*
X80000Y-21400D02*
X80000Y-24874D01*
X79400Y-25825D02*
X79400Y-25474D01*
X121378Y-31600D02*
X116928Y-31600D01*
X121878Y-32100D02*
X121378Y-31600D01*
X122753Y-32100D02*
X121878Y-32100D01*
X29951Y-35951D02*
X29000Y-35000D01*
X33102Y-35951D02*
X29951Y-35951D01*
X33626Y-36475D02*
X33102Y-35951D01*
X38554Y-36475D02*
X33626Y-36475D01*
X43092Y-41013D02*
X38554Y-36475D01*
X51344Y-41013D02*
X43092Y-41013D01*
X52365Y-42035D02*
X51344Y-41013D01*
X82689Y-42035D02*
X52365Y-42035D01*
X83600Y-41125D02*
X82689Y-42035D01*
X83600Y-40775D02*
X83600Y-41125D01*
X84122Y-24952D02*
X83600Y-25474D01*
X84122Y-21400D02*
X84122Y-24952D01*
X83600Y-25825D02*
X83600Y-25474D01*
X118427Y-32600D02*
X122003Y-32600D01*
X85000Y-25825D02*
X85000Y-25474D01*
X86291Y-20608D02*
X85500Y-21400D01*
X114366Y-20608D02*
X86291Y-20608D01*
X122423Y-28665D02*
X114366Y-20608D01*
X122423Y-29762D02*
X122423Y-28665D01*
X122316Y-29869D02*
X122423Y-29762D01*
X122316Y-30250D02*
X122316Y-29869D01*
X122665Y-30600D02*
X122316Y-30250D01*
X122858Y-30600D02*
X122665Y-30600D01*
X123173Y-30915D02*
X122858Y-30600D01*
X123173Y-31262D02*
X123173Y-30915D01*
X123084Y-31351D02*
X123173Y-31262D01*
X123084Y-31762D02*
X123084Y-31351D01*
X123191Y-31869D02*
X123084Y-31762D01*
X123191Y-32287D02*
X123191Y-31869D01*
X122753Y-32725D02*
X123191Y-32287D01*
X122753Y-33100D02*
X122753Y-32725D01*
X85500Y-24974D02*
X85000Y-25474D01*
X85500Y-21400D02*
X85500Y-24974D01*
X89100Y-40775D02*
X88649Y-40775D01*
X88638Y-40775D02*
X88257Y-40394D01*
X88649Y-40775D02*
X88638Y-40775D01*
X44738Y-34101D02*
X61353Y-34101D01*
X44402Y-33765D02*
X44738Y-34101D01*
X32404Y-33765D02*
X44402Y-33765D01*
X32224Y-33945D02*
X32404Y-33765D01*
X29054Y-33945D02*
X32224Y-33945D01*
X28000Y-35000D02*
X29054Y-33945D01*
X89100Y-25825D02*
X89100Y-25474D01*
X89622Y-24952D02*
X89100Y-25474D01*
X89622Y-21400D02*
X89622Y-24952D01*
X116675Y-24458D02*
X117715Y-24458D01*
X113688Y-21471D02*
X116675Y-24458D01*
X113688Y-21318D02*
X113688Y-21471D01*
X113232Y-20861D02*
X113688Y-21318D01*
X90689Y-20861D02*
X113232Y-20861D01*
X90151Y-21400D02*
X90689Y-20861D01*
X89622Y-21400D02*
X90151Y-21400D01*
X91000Y-24974D02*
X90500Y-25474D01*
X91000Y-21400D02*
X91000Y-24974D01*
X90500Y-25825D02*
X90500Y-25474D01*
X94128Y-40754D02*
X93233Y-40754D01*
X94149Y-40775D02*
X94128Y-40754D01*
X94600Y-40775D02*
X94149Y-40775D01*
X32328Y-33487D02*
X59203Y-33487D01*
X32179Y-33636D02*
X32328Y-33487D01*
X26691Y-33636D02*
X32179Y-33636D01*
X25524Y-34803D02*
X26691Y-33636D01*
X25524Y-35253D02*
X25524Y-34803D01*
X25000Y-35778D02*
X25524Y-35253D01*
X25000Y-36000D02*
X25000Y-35778D01*
X95122Y-24952D02*
X94600Y-25474D01*
X95122Y-21400D02*
X95122Y-24952D01*
X94600Y-25825D02*
X94600Y-25474D01*
X96500Y-24974D02*
X96000Y-25474D01*
X96500Y-21400D02*
X96500Y-24974D01*
X96000Y-25825D02*
X96000Y-25474D01*
X100100Y-40775D02*
X100100Y-41125D01*
X26201Y-36201D02*
X26000Y-36000D01*
X32873Y-36201D02*
X26201Y-36201D01*
X33524Y-36852D02*
X32873Y-36201D01*
X33524Y-37196D02*
X33524Y-36852D01*
X33803Y-37475D02*
X33524Y-37196D01*
X39200Y-37475D02*
X33803Y-37475D01*
X42998Y-41273D02*
X39200Y-37475D01*
X51250Y-41273D02*
X42998Y-41273D01*
X52266Y-42289D02*
X51250Y-41273D01*
X98935Y-42289D02*
X52266Y-42289D01*
X100100Y-41125D02*
X98935Y-42289D01*
X100622Y-24952D02*
X100100Y-25474D01*
X100622Y-21400D02*
X100622Y-24952D01*
X100100Y-25825D02*
X100100Y-25474D01*
X102000Y-25074D02*
X101600Y-25474D01*
X102000Y-21400D02*
X102000Y-25074D01*
X101600Y-25825D02*
X101600Y-25474D01*
X105600Y-40775D02*
X105600Y-41125D01*
X29008Y-40008D02*
X27000Y-38000D01*
X32680Y-40008D02*
X29008Y-40008D01*
X33475Y-40803D02*
X32680Y-40008D01*
X33475Y-41162D02*
X33475Y-40803D01*
X33796Y-41483D02*
X33475Y-41162D01*
X34518Y-41483D02*
X33796Y-41483D01*
X34913Y-41088D02*
X34518Y-41483D01*
X41722Y-41088D02*
X34913Y-41088D01*
X43176Y-42541D02*
X41722Y-41088D01*
X104183Y-42541D02*
X43176Y-42541D01*
X105600Y-41125D02*
X104183Y-42541D01*
X106122Y-24952D02*
X105600Y-25474D01*
X106122Y-21400D02*
X106122Y-24952D01*
X105600Y-25825D02*
X105600Y-25474D01*
X107000Y-25825D02*
X107000Y-25474D01*
X107000Y-21900D02*
X107000Y-25474D01*
X107500Y-21400D02*
X107000Y-21900D01*
X26507Y-37492D02*
X27000Y-37000D01*
X26507Y-38214D02*
X26507Y-37492D01*
X28597Y-40303D02*
X26507Y-38214D01*
X31990Y-40303D02*
X28597Y-40303D01*
X32500Y-40812D02*
X31990Y-40303D01*
X32500Y-41183D02*
X32500Y-40812D01*
X33050Y-41733D02*
X32500Y-41183D01*
X34758Y-41733D02*
X33050Y-41733D01*
X35153Y-41338D02*
X34758Y-41733D01*
X41618Y-41338D02*
X35153Y-41338D01*
X43072Y-42792D02*
X41618Y-41338D01*
X109432Y-42792D02*
X43072Y-42792D01*
X111100Y-41125D02*
X109432Y-42792D01*
X111100Y-40775D02*
X111100Y-41125D01*
X111100Y-25825D02*
X111100Y-25474D01*
X111622Y-24952D02*
X111622Y-21929D01*
X111100Y-25474D02*
X111622Y-24952D01*
X111622Y-21400D02*
X111622Y-21929D01*
X113000Y-25074D02*
X112600Y-25474D01*
X113000Y-21400D02*
X113000Y-25074D01*
X112600Y-25825D02*
X112600Y-25474D01*
X38425Y-49800D02*
X37021Y-49800D01*
X32233Y-32734D02*
X31931Y-33036D01*
X36311Y-32734D02*
X32233Y-32734D01*
X40240Y-28805D02*
X36311Y-32734D01*
X40240Y-28500D02*
X40240Y-28805D01*
X40760Y-28500D02*
X41126Y-28500D01*
X29000Y-27375D02*
X29450Y-27375D01*
X28500Y-22500D02*
X28500Y-23025D01*
X31000Y-27375D02*
X30549Y-27375D01*
X29450Y-27375D02*
X30549Y-27375D01*
X35000Y-28500D02*
X34000Y-28500D01*
X32875Y-27375D02*
X31000Y-27375D01*
X34000Y-28500D02*
X32875Y-27375D01*
X29475Y-24000D02*
X28500Y-23025D01*
X29475Y-27349D02*
X29475Y-24000D01*
X29450Y-27375D02*
X29475Y-27349D01*
X40240Y-24319D02*
X40240Y-27700D01*
X37810Y-21890D02*
X40240Y-24319D01*
X37810Y-21400D02*
X37810Y-21890D01*
X81900Y-34775D02*
X81449Y-34775D01*
X79350Y-35222D02*
X79350Y-34982D01*
X79600Y-34732D02*
X79350Y-34982D01*
X81407Y-34732D02*
X79600Y-34732D01*
X81449Y-34775D02*
X81407Y-34732D01*
X79350Y-35222D02*
X79350Y-35462D01*
X79331Y-35943D02*
X78100Y-37174D01*
X79350Y-35943D02*
X79331Y-35943D01*
X78100Y-37525D02*
X78100Y-37174D01*
X79350Y-35462D02*
X79350Y-35943D01*
X75400Y-39767D02*
X75067Y-39767D01*
X72600Y-39767D02*
X75067Y-39767D01*
X72600Y-40025D02*
X72600Y-39767D01*
X72600Y-39767D02*
X72600Y-38275D01*
X91900Y-39767D02*
X91567Y-39767D01*
X89100Y-39767D02*
X91567Y-39767D01*
X89100Y-40025D02*
X89100Y-39767D01*
X89100Y-39767D02*
X89100Y-38275D01*
X86400Y-39767D02*
X86067Y-39767D01*
X83600Y-39767D02*
X86067Y-39767D01*
X83600Y-38275D02*
X83600Y-39767D01*
X83600Y-39767D02*
X83600Y-40025D01*
X69900Y-39767D02*
X69567Y-39767D01*
X67100Y-39767D02*
X69567Y-39767D01*
X67100Y-40025D02*
X67100Y-39767D01*
X67100Y-39767D02*
X67100Y-38275D01*
X98400Y-34775D02*
X97949Y-34775D01*
X97742Y-34982D02*
X95850Y-34982D01*
X97949Y-34775D02*
X97742Y-34982D01*
X95850Y-35222D02*
X95850Y-34982D01*
X95850Y-35222D02*
X95850Y-35462D01*
X95831Y-35943D02*
X94600Y-37174D01*
X95850Y-35943D02*
X95831Y-35943D01*
X94600Y-37525D02*
X94600Y-37174D01*
X95850Y-35462D02*
X95850Y-35943D01*
X79850Y-33337D02*
X79850Y-33817D01*
X81900Y-34025D02*
X81449Y-34025D01*
X79400Y-27063D02*
X79400Y-26575D01*
X80140Y-33817D02*
X80140Y-33817D01*
X79850Y-33817D02*
X80140Y-33817D01*
X81242Y-33817D02*
X80140Y-33817D01*
X81449Y-34025D02*
X81242Y-33817D01*
X80140Y-33817D02*
X80030Y-33926D01*
X113900Y-39767D02*
X113567Y-39767D01*
X111100Y-39767D02*
X113567Y-39767D01*
X111100Y-40025D02*
X111100Y-39767D01*
X111100Y-39767D02*
X111100Y-38275D01*
X78100Y-28325D02*
X79400Y-28325D01*
X78100Y-26575D02*
X78100Y-28325D01*
X77171Y-28803D02*
X77649Y-28325D01*
X77171Y-30697D02*
X77171Y-28803D01*
X77798Y-31324D02*
X77171Y-30697D01*
X78454Y-31324D02*
X77798Y-31324D01*
X79350Y-32220D02*
X78454Y-31324D01*
X79350Y-33337D02*
X79350Y-32220D01*
X78100Y-28325D02*
X77649Y-28325D01*
X102900Y-39767D02*
X102567Y-39767D01*
X100100Y-39767D02*
X102567Y-39767D01*
X100100Y-40025D02*
X100100Y-39767D01*
X100100Y-39767D02*
X100100Y-38275D01*
X103900Y-34775D02*
X103449Y-34775D01*
X103242Y-34982D02*
X101350Y-34982D01*
X103449Y-34775D02*
X103242Y-34982D01*
X101350Y-35222D02*
X101350Y-34982D01*
X101350Y-35222D02*
X101350Y-35462D01*
X101331Y-35943D02*
X100100Y-37174D01*
X101350Y-35943D02*
X101331Y-35943D01*
X100100Y-37525D02*
X100100Y-37174D01*
X101350Y-35462D02*
X101350Y-35943D01*
X94600Y-40025D02*
X95050Y-40025D01*
X97400Y-39767D02*
X97067Y-39767D01*
X95061Y-39767D02*
X97067Y-39767D01*
X94600Y-39305D02*
X95061Y-39767D01*
X94600Y-38275D02*
X94600Y-39305D01*
X95061Y-40013D02*
X95050Y-40025D01*
X95061Y-39767D02*
X95061Y-40013D01*
X114242Y-34982D02*
X114449Y-34775D01*
X112350Y-34982D02*
X114242Y-34982D01*
X112350Y-35462D02*
X112350Y-34982D01*
X114900Y-34775D02*
X114449Y-34775D01*
X112331Y-35943D02*
X112350Y-35943D01*
X111100Y-37174D02*
X112331Y-35943D01*
X111100Y-37525D02*
X111100Y-37174D01*
X112350Y-35462D02*
X112350Y-35943D01*
X105600Y-40025D02*
X106050Y-40025D01*
X106308Y-39333D02*
X106308Y-39767D01*
X105600Y-38625D02*
X106308Y-39333D01*
X106050Y-40025D02*
X106308Y-39767D01*
X106308Y-39767D02*
X108400Y-39767D01*
X105600Y-38275D02*
X105600Y-38625D01*
X109400Y-34775D02*
X108949Y-34775D01*
X106850Y-35222D02*
X106850Y-35045D01*
X107120Y-34775D02*
X108949Y-34775D01*
X106850Y-35045D02*
X107120Y-34775D01*
X106850Y-35222D02*
X106850Y-35462D01*
X106831Y-35943D02*
X105600Y-37174D01*
X106850Y-35943D02*
X106831Y-35943D01*
X105600Y-37525D02*
X105600Y-37174D01*
X106850Y-35462D02*
X106850Y-35943D01*
X72600Y-28325D02*
X72901Y-28325D01*
X72600Y-26575D02*
X72600Y-26925D01*
X72901Y-27226D02*
X72600Y-26925D01*
X72901Y-28325D02*
X72901Y-27226D01*
X74000Y-28325D02*
X73549Y-28325D01*
X73850Y-31011D02*
X73850Y-33337D01*
X73549Y-30711D02*
X73850Y-31011D01*
X73549Y-28325D02*
X73549Y-30711D01*
X73549Y-28325D02*
X72901Y-28325D01*
X107000Y-28325D02*
X106549Y-28325D01*
X106549Y-28325D02*
X105600Y-28325D01*
X105600Y-26575D02*
X105600Y-26925D01*
X105600Y-28325D02*
X105600Y-26925D01*
X105293Y-28675D02*
X105600Y-28675D01*
X105147Y-28821D02*
X105293Y-28675D01*
X105147Y-29745D02*
X105147Y-28821D01*
X106850Y-31448D02*
X105147Y-29745D01*
X106850Y-33337D02*
X106850Y-31448D01*
X105600Y-28325D02*
X105600Y-28675D01*
X94600Y-28325D02*
X94600Y-26575D01*
X94600Y-28325D02*
X94600Y-28462D01*
X95412Y-28462D02*
X95549Y-28325D01*
X94600Y-28462D02*
X95412Y-28462D01*
X96000Y-28325D02*
X95549Y-28325D01*
X94514Y-28462D02*
X94600Y-28462D01*
X94149Y-28827D02*
X94514Y-28462D01*
X94149Y-29686D02*
X94149Y-28827D01*
X95850Y-31386D02*
X94149Y-29686D01*
X95850Y-33337D02*
X95850Y-31386D01*
X96373Y-32856D02*
X96492Y-32738D01*
X96350Y-32856D02*
X96373Y-32856D01*
X96350Y-33159D02*
X96350Y-32856D01*
X96350Y-33159D02*
X96350Y-33337D01*
X97742Y-33817D02*
X97949Y-34025D01*
X96350Y-33817D02*
X97742Y-33817D01*
X96350Y-33337D02*
X96350Y-33817D01*
X98400Y-34025D02*
X97949Y-34025D01*
X96000Y-26575D02*
X96000Y-27157D01*
X89100Y-26575D02*
X89100Y-28325D01*
X89100Y-28325D02*
X89100Y-28462D01*
X90500Y-28325D02*
X90049Y-28325D01*
X90350Y-33337D02*
X90350Y-32856D01*
X89912Y-32419D02*
X89912Y-28462D01*
X90350Y-32856D02*
X89912Y-32419D01*
X89100Y-28462D02*
X89912Y-28462D01*
X89912Y-28462D02*
X90049Y-28325D01*
X90500Y-26575D02*
X90500Y-26925D01*
X90850Y-32821D02*
X90778Y-32750D01*
X90850Y-33337D02*
X90850Y-32821D01*
X91057Y-34025D02*
X90850Y-33817D01*
X92449Y-34025D02*
X91057Y-34025D01*
X92900Y-34025D02*
X92449Y-34025D01*
X90850Y-33337D02*
X90850Y-33817D01*
X90610Y-26925D02*
X90733Y-27047D01*
X90500Y-26925D02*
X90610Y-26925D01*
X107350Y-32733D02*
X107350Y-33337D01*
X108742Y-33817D02*
X108949Y-34025D01*
X107350Y-33817D02*
X108742Y-33817D01*
X107350Y-33337D02*
X107350Y-33817D01*
X109400Y-34025D02*
X108949Y-34025D01*
X107000Y-26575D02*
X107000Y-27031D01*
X75742Y-34982D02*
X75949Y-34775D01*
X73850Y-34982D02*
X75742Y-34982D01*
X76400Y-34775D02*
X75949Y-34775D01*
X73850Y-35222D02*
X73850Y-34982D01*
X73850Y-35222D02*
X73850Y-35462D01*
X73831Y-35943D02*
X72600Y-37174D01*
X73850Y-35943D02*
X73831Y-35943D01*
X72600Y-37525D02*
X72600Y-37174D01*
X73850Y-35462D02*
X73850Y-35943D01*
X100100Y-26575D02*
X100100Y-26925D01*
X100100Y-28325D02*
X100100Y-26925D01*
X100699Y-28325D02*
X101149Y-28775D01*
X100100Y-28325D02*
X100699Y-28325D01*
X101149Y-28775D02*
X101600Y-28325D01*
X101149Y-32656D02*
X101149Y-28775D01*
X101350Y-32856D02*
X101149Y-32656D01*
X101350Y-33337D02*
X101350Y-32856D01*
X101850Y-33337D02*
X101850Y-33817D01*
X103900Y-34025D02*
X103449Y-34025D01*
X101600Y-26575D02*
X102050Y-26575D01*
X101850Y-33817D02*
X102647Y-33817D01*
X103242Y-33817D02*
X103449Y-34025D01*
X102647Y-33817D02*
X103242Y-33817D01*
X102647Y-33817D02*
X102647Y-32791D01*
X102260Y-26785D02*
X102260Y-27161D01*
X102050Y-26575D02*
X102260Y-26785D01*
X112350Y-33337D02*
X112350Y-32856D01*
X111100Y-28325D02*
X111550Y-28325D01*
X111100Y-26575D02*
X111100Y-28325D01*
X112000Y-28775D02*
X111550Y-28325D01*
X112149Y-28775D02*
X112000Y-28775D01*
X112149Y-32656D02*
X112149Y-28775D01*
X112350Y-32856D02*
X112149Y-32656D01*
X112149Y-28775D02*
X112600Y-28325D01*
X92242Y-34982D02*
X92449Y-34775D01*
X90350Y-34982D02*
X92242Y-34982D01*
X90350Y-35462D02*
X90350Y-34982D01*
X92900Y-34775D02*
X92449Y-34775D01*
X90331Y-35943D02*
X90350Y-35943D01*
X89100Y-37174D02*
X90331Y-35943D01*
X89100Y-37525D02*
X89100Y-37174D01*
X90350Y-35462D02*
X90350Y-35943D01*
X83600Y-26575D02*
X83600Y-26925D01*
X83600Y-28325D02*
X83600Y-26925D01*
X83600Y-28325D02*
X84050Y-28325D01*
X85000Y-28325D02*
X84549Y-28325D01*
X84187Y-28462D02*
X84300Y-28462D01*
X84050Y-28325D02*
X84187Y-28462D01*
X84412Y-28462D02*
X84549Y-28325D01*
X84300Y-28462D02*
X84412Y-28462D01*
X84945Y-32760D02*
X84945Y-32754D01*
X84850Y-32856D02*
X84945Y-32760D01*
X84850Y-33337D02*
X84850Y-32856D01*
X74000Y-26575D02*
X74000Y-26925D01*
X74709Y-27635D02*
X74000Y-26925D01*
X74709Y-32496D02*
X74709Y-27635D01*
X74350Y-32856D02*
X74709Y-32496D01*
X74350Y-33159D02*
X74350Y-32856D01*
X74350Y-33159D02*
X74350Y-33337D01*
X75742Y-33817D02*
X75949Y-34025D01*
X74350Y-33817D02*
X75742Y-33817D01*
X74350Y-33337D02*
X74350Y-33817D01*
X76400Y-34025D02*
X75949Y-34025D01*
X86742Y-34982D02*
X86949Y-34775D01*
X84850Y-34982D02*
X86742Y-34982D01*
X84850Y-35462D02*
X84850Y-34982D01*
X87400Y-34775D02*
X86949Y-34775D01*
X84831Y-35943D02*
X84850Y-35943D01*
X83600Y-37174D02*
X84831Y-35943D01*
X83600Y-37525D02*
X83600Y-37174D01*
X84850Y-35462D02*
X84850Y-35943D01*
X85000Y-27030D02*
X85000Y-26575D01*
X85350Y-32568D02*
X85350Y-33337D01*
X85373Y-32545D02*
X85350Y-32568D01*
X86742Y-33817D02*
X86949Y-34025D01*
X85350Y-33817D02*
X86742Y-33817D01*
X85350Y-33337D02*
X85350Y-33817D01*
X87400Y-34025D02*
X86949Y-34025D01*
X40749Y-48575D02*
X39525Y-49800D01*
X40749Y-48300D02*
X40749Y-48575D01*
X39175Y-49800D02*
X39525Y-49800D01*
X41200Y-48300D02*
X40749Y-48300D01*
X63000Y-26575D02*
X63000Y-26925D01*
X63053Y-26978D02*
X63053Y-27039D01*
X63000Y-26925D02*
X63053Y-26978D01*
X63350Y-32742D02*
X63350Y-33337D01*
X64842Y-33817D02*
X65049Y-34025D01*
X63350Y-33817D02*
X64842Y-33817D01*
X63350Y-33337D02*
X63350Y-33817D01*
X65500Y-34025D02*
X65049Y-34025D01*
X65500Y-34775D02*
X65049Y-34775D01*
X62850Y-35222D02*
X62850Y-34982D01*
X62850Y-35222D02*
X62850Y-35462D01*
X62831Y-35943D02*
X61600Y-37174D01*
X62850Y-35943D02*
X62831Y-35943D01*
X61600Y-37525D02*
X61600Y-37174D01*
X62850Y-35462D02*
X62850Y-35943D01*
X63057Y-34775D02*
X62850Y-34982D01*
X65049Y-34775D02*
X63057Y-34775D01*
X68331Y-35943D02*
X68350Y-35943D01*
X67100Y-37174D02*
X68331Y-35943D01*
X67100Y-37525D02*
X67100Y-37174D01*
X68350Y-35703D02*
X68350Y-35943D01*
X68350Y-35703D02*
X68350Y-35462D01*
X68557Y-34775D02*
X70549Y-34775D01*
X68350Y-34982D02*
X68557Y-34775D01*
X68350Y-35462D02*
X68350Y-34982D01*
X71000Y-34775D02*
X70549Y-34775D01*
X67100Y-28325D02*
X67100Y-26575D01*
X67550Y-28325D02*
X67550Y-28325D01*
X67784Y-28325D02*
X67550Y-28325D01*
X67100Y-28325D02*
X67550Y-28325D01*
X68350Y-33337D02*
X68350Y-32754D01*
X67785Y-28325D02*
X67784Y-28325D01*
X68500Y-28325D02*
X67785Y-28325D01*
X68500Y-26961D02*
X68500Y-26575D01*
X68582Y-27044D02*
X68500Y-26961D01*
X68850Y-32845D02*
X68850Y-33337D01*
X68942Y-32752D02*
X68850Y-32845D01*
X70342Y-33817D02*
X70549Y-34025D01*
X68850Y-33817D02*
X70342Y-33817D01*
X68850Y-33337D02*
X68850Y-33817D01*
X71000Y-34025D02*
X70549Y-34025D01*
X61600Y-28325D02*
X61600Y-26575D01*
X61600Y-28325D02*
X62549Y-28325D01*
X63000Y-28325D02*
X62549Y-28325D01*
X61600Y-28325D02*
X61600Y-28675D01*
X61293Y-28675D02*
X61600Y-28675D01*
X61149Y-28818D02*
X61293Y-28675D01*
X61149Y-29395D02*
X61149Y-28818D01*
X62850Y-31095D02*
X61149Y-29395D01*
X62850Y-33337D02*
X62850Y-31095D01*
X107306Y-28724D02*
X107000Y-28724D01*
X108400Y-27631D02*
X107306Y-28724D01*
X108400Y-26575D02*
X108400Y-27631D01*
X107000Y-29075D02*
X107000Y-28724D01*
X101906Y-28724D02*
X101600Y-28724D01*
X103000Y-27631D02*
X101906Y-28724D01*
X103000Y-26575D02*
X103000Y-27631D01*
X101600Y-29075D02*
X101600Y-28724D01*
X96306Y-28724D02*
X96000Y-28724D01*
X97400Y-27631D02*
X96306Y-28724D01*
X97400Y-26575D02*
X97400Y-27631D01*
X96000Y-29075D02*
X96000Y-28724D01*
X90500Y-29075D02*
X90500Y-28724D01*
X90806Y-28724D02*
X90500Y-28724D01*
X91800Y-27731D02*
X90806Y-28724D01*
X91800Y-26925D02*
X91800Y-27731D01*
X91800Y-26575D02*
X91800Y-26925D01*
X85306Y-28724D02*
X85000Y-28724D01*
X86300Y-27731D02*
X85306Y-28724D01*
X86300Y-26575D02*
X86300Y-27731D01*
X85000Y-29075D02*
X85000Y-28724D01*
X79706Y-28724D02*
X79400Y-28724D01*
X80700Y-27731D02*
X79706Y-28724D01*
X80700Y-26575D02*
X80700Y-27731D01*
X79400Y-29075D02*
X79400Y-28724D01*
X74306Y-28724D02*
X74000Y-28724D01*
X74450Y-28581D02*
X74306Y-28724D01*
X74450Y-27763D02*
X74450Y-28581D01*
X73544Y-26858D02*
X74450Y-27763D01*
X73544Y-26327D02*
X73544Y-26858D01*
X73647Y-26224D02*
X73544Y-26327D01*
X75300Y-26224D02*
X73647Y-26224D01*
X75300Y-26575D02*
X75300Y-26224D01*
X74000Y-29075D02*
X74000Y-28724D01*
X69900Y-27631D02*
X69900Y-26575D01*
X68806Y-28724D02*
X69900Y-27631D01*
X68500Y-28724D02*
X68806Y-28724D01*
X68500Y-29075D02*
X68500Y-28724D01*
X61600Y-38275D02*
X61600Y-38625D01*
X64400Y-39767D02*
X64067Y-39767D01*
X61681Y-39767D02*
X64067Y-39767D01*
X61681Y-39943D02*
X61681Y-39767D01*
X61600Y-40025D02*
X61681Y-39943D01*
X61681Y-38706D02*
X61600Y-38625D01*
X61681Y-39767D02*
X61681Y-38706D01*
X112906Y-28724D02*
X112600Y-28724D01*
X114000Y-27631D02*
X112906Y-28724D01*
X114000Y-26575D02*
X114000Y-27631D01*
X112600Y-29075D02*
X112600Y-28724D01*
X112600Y-26575D02*
X112600Y-26925D01*
X112850Y-32850D02*
X112850Y-33337D01*
X112943Y-32756D02*
X112850Y-32850D01*
X114242Y-33817D02*
X114449Y-34025D01*
X112850Y-33817D02*
X114242Y-33817D01*
X112850Y-33337D02*
X112850Y-33817D01*
X114900Y-34025D02*
X114449Y-34025D01*
X112600Y-26925D02*
X111653Y-27871D01*
X50260Y-22941D02*
X50260Y-27700D01*
X51310Y-21890D02*
X50260Y-22941D01*
X51310Y-21400D02*
X51310Y-21890D01*
X64400Y-27631D02*
X64400Y-26575D01*
X63306Y-28724D02*
X64400Y-27631D01*
X63000Y-28724D02*
X63306Y-28724D01*
X63000Y-29075D02*
X63000Y-28724D01*
X49740Y-24319D02*
X49740Y-27700D01*
X47310Y-21890D02*
X49740Y-24319D01*
X47310Y-21400D02*
X47310Y-21890D01*
X40760Y-22941D02*
X40760Y-27700D01*
X41810Y-21890D02*
X40760Y-22941D01*
X41810Y-21400D02*
X41810Y-21890D01*
X37189Y-56100D02*
X39810Y-56100D01*
X41189Y-56100D02*
X43810Y-56100D01*
X80900Y-39767D02*
X80733Y-39767D01*
X78576Y-39767D02*
X80733Y-39767D01*
X78550Y-39793D02*
X78576Y-39767D01*
X78550Y-40025D02*
X78550Y-39793D01*
X78576Y-39101D02*
X78100Y-38625D01*
X78576Y-39767D02*
X78576Y-39101D01*
X78100Y-38275D02*
X78100Y-38625D01*
X78100Y-40025D02*
X78550Y-40025D01*
M02*
