M48
;DRILL file {Pcbnew (2013-jul-07)-stable} date Sun 10 Apr 2016 10:04:40 PM PDT
;FORMAT={-:-/ absolute / inch / decimal}
FMAT,2
INCH,TZ
T1C0.025
T2C0.031
T3C0.032
T4C0.039
T5C0.040
T6C0.047
T7C0.063
T8C0.106
T9C0.106
T10C0.120
T11C0.124
%
G90
G05
M72
T1
X2.4195Y-2.9559
X2.4705Y-3.3161
X2.7624Y-2.2522
X2.9125Y-2.6135
X3.0059Y-3.9555
X3.1561Y-2.645
X3.1931Y-3.3036
X3.2542Y-3.2267
X3.5099Y-4.4704
X3.7021Y-4.98
X3.8684Y-4.3495
X3.9862Y-2.6975
X4.0016Y-3.8786
X4.1127Y-2.85
X4.1378Y-4.1956
X4.1635Y-4.2572
X4.3107Y-4.1977
X4.5137Y-3.2835
X4.5254Y-3.2131
X4.6662Y-2.829
X5.1286Y-4.1835
X5.3576Y-4.0293
X5.9203Y-3.3488
X5.9804Y-3.4601
X5.9835Y-3.5127
X6.1353Y-3.4101
X6.2163Y-2.8962
X6.217Y-4.1005
X6.3053Y-2.704
X6.335Y-3.2742
X6.7785Y-2.8325
X6.835Y-3.2754
X6.8583Y-2.7044
X6.8943Y-3.2753
X7.0968Y-4.077
X7.6709Y-4.0775
X7.7536Y-2.9042
X7.94Y-2.7064
X8.0031Y-3.3927
X8.3853Y-4.3142
X8.43Y-2.8462
X8.4946Y-3.2755
X8.5Y-2.7031
X8.5374Y-3.2545
X8.8258Y-4.0394
X9.0733Y-2.7048
X9.0778Y-3.275
X9.3233Y-4.0754
X9.5163Y-2.9075
X9.6Y-2.7158
X9.6492Y-3.2739
X9.846Y-4.0802
X10.2261Y-2.7162
X10.2648Y-3.2791
X10.3733Y-4.0785
X10.3994Y-4.6037
X10.5143Y-4.4888
X10.5578Y-2.9527
X10.7Y-2.7032
X10.735Y-3.2734
X10.8404Y-4.1041
X11.0501Y-4.2301
X11.1654Y-2.7872
X11.2579Y-2.96
X11.2944Y-3.2756
X11.4304Y-3.0009
X11.5053Y-3.0511
X11.6928Y-3.16
X11.7715Y-2.4458
X11.8427Y-3.26
T2
X12.1254Y-3.01
X12.1254Y-3.11
X12.1254Y-3.21
X12.1254Y-3.31
X12.1254Y-3.41
X12.1254Y-3.51
X12.1254Y-3.61
X12.1254Y-3.71
X12.1254Y-3.81
X12.1254Y-3.91
X12.1254Y-4.01
X12.1254Y-4.11
X12.1254Y-4.21
X12.1254Y-4.31
X12.1254Y-4.41
X12.1254Y-4.51
X12.1254Y-4.61
X12.2004Y-2.96
X12.2004Y-3.06
X12.2004Y-3.16
X12.2004Y-3.26
X12.2004Y-3.36
X12.2004Y-3.46
X12.2004Y-3.56
X12.2004Y-3.66
X12.2004Y-3.76
X12.2004Y-3.86
X12.2004Y-3.96
X12.2004Y-4.06
X12.2004Y-4.16
X12.2004Y-4.26
X12.2004Y-4.36
X12.2004Y-4.46
X12.2004Y-4.56
X12.2754Y-3.01
X12.2754Y-3.11
X12.2754Y-3.21
X12.2754Y-3.31
X12.2754Y-3.41
X12.2754Y-3.51
X12.2754Y-3.61
X12.2754Y-3.71
X12.2754Y-3.81
X12.2754Y-3.91
X12.2754Y-4.01
X12.2754Y-4.11
X12.2754Y-4.21
X12.2754Y-4.31
X12.2754Y-4.41
X12.2754Y-4.51
X12.2754Y-4.61
X12.3504Y-2.96
X12.3504Y-3.06
X12.3504Y-3.16
X12.3504Y-3.26
X12.3504Y-3.36
X12.3504Y-3.46
X12.3504Y-3.56
X12.3504Y-3.66
X12.3504Y-3.76
X12.3504Y-3.86
X12.3504Y-3.96
X12.3504Y-4.06
X12.3504Y-4.16
X12.3504Y-4.26
X12.3504Y-4.36
X12.3504Y-4.46
X12.3504Y-4.56
T3
X4.12Y-4.53
X4.12Y-4.83
X4.22Y-4.53
X4.22Y-4.83
X4.32Y-4.53
X4.32Y-4.83
T4
X3.5811Y-5.61
X3.7189Y-5.61
X3.7811Y-2.14
X3.9189Y-2.14
X3.9811Y-5.61
X4.1189Y-5.61
X4.1811Y-2.14
X4.3189Y-2.14
X4.3811Y-5.61
X4.5189Y-5.61
X4.7311Y-2.14
X4.8689Y-2.14
X4.9311Y-5.61
X5.0689Y-5.61
X5.1311Y-2.14
X5.2689Y-2.14
X5.3311Y-5.61
X5.4689Y-5.61
X5.6811Y-2.14
X5.7311Y-5.61
X5.8189Y-2.14
X5.8689Y-5.61
X6.1311Y-5.61
X6.2689Y-5.61
X6.5311Y-5.61
X6.6689Y-5.61
X6.9311Y-5.61
X7.0689Y-5.61
T5
X2.1Y-2.6
X2.1Y-3.2
X2.1Y-3.5
X2.1Y-4.1
X2.2Y-2.6
X2.2Y-3.2
X2.2Y-3.5
X2.2Y-3.6
X2.2Y-4.1
X2.3Y-2.6
X2.3Y-3.2
X2.3Y-3.5
X2.3Y-4.1
X2.4Y-2.6
X2.4Y-3.2
X2.4Y-3.5
X2.4Y-3.6
X2.4Y-4.1
X2.4Y-5.46
X2.4Y-5.56
X2.4Y-5.66
X2.5Y-2.6
X2.5Y-3.2
X2.5Y-3.5
X2.5Y-3.6
X2.5Y-4.1
X2.6Y-3.5
X2.6Y-3.6
X2.6Y-4.1
X2.6Y-5.46
X2.6Y-5.56
X2.6Y-5.66
X2.7Y-3.5
X2.7Y-3.7
X2.7Y-3.8
X2.7Y-4.1
X2.8Y-3.5
X2.8Y-3.7
X2.8Y-3.8
X2.8Y-4.1
X2.8Y-5.46
X2.8Y-5.56
X2.8Y-5.66
X2.85Y-2.15
X2.85Y-2.25
X2.9Y-3.5
X2.9Y-3.7
X2.9Y-3.8
X2.9Y-4.1
X2.95Y-2.15
X2.95Y-2.25
X3.Y-3.5
X3.Y-3.7
X3.Y-3.8
X3.Y-4.1
X3.Y-5.46
X3.Y-5.56
X3.Y-5.66
X3.05Y-2.15
X3.05Y-2.25
X3.1Y-3.5
X3.1Y-3.7
X3.1Y-3.8
X3.1Y-4.1
X3.12Y-4.62
X3.12Y-4.72
X3.15Y-2.15
X3.15Y-2.25
X3.2Y-3.5
X3.2Y-3.7
X3.2Y-3.8
X3.2Y-4.1
X3.2Y-5.46
X3.2Y-5.56
X3.2Y-5.66
X3.22Y-4.62
X3.22Y-4.72
X3.25Y-2.15
X3.25Y-2.25
X3.3Y-3.5
X3.3Y-3.7
X3.3Y-3.8
X3.3Y-4.1
X3.4Y-2.85
X3.4Y-2.95
X3.4Y-3.5
X3.4Y-3.6
X3.4Y-3.7
X3.4Y-3.8
X3.4Y-3.9
X3.4Y-4.
X3.4Y-4.1
X3.5Y-2.85
X3.5Y-2.95
X3.6Y-4.62
X3.6Y-4.72
X4.35Y-3.5
X4.35Y-3.6
X4.35Y-3.7
X4.35Y-3.8
X4.35Y-3.9
X4.35Y-4.
X11.09Y-4.47
X11.09Y-4.57
X11.19Y-4.47
X11.19Y-4.57
X11.69Y-4.47
X11.69Y-4.57
X11.79Y-4.47
X11.79Y-4.57
T6
X6.2122Y-2.14
X6.35Y-2.14
X6.4878Y-2.14
X6.7622Y-2.14
X6.9Y-2.14
X7.0378Y-2.14
X7.3122Y-2.14
X7.4433Y-5.61
X7.45Y-2.14
X7.5811Y-5.61
X7.5878Y-2.14
X7.7189Y-5.61
X7.8622Y-2.14
X7.8764Y-5.61
X8.Y-2.14
X8.1378Y-2.14
X8.1433Y-5.61
X8.2811Y-5.61
X8.4122Y-2.14
X8.4189Y-5.61
X8.55Y-2.14
X8.5764Y-5.61
X8.6878Y-2.14
X8.8433Y-5.61
X8.9622Y-2.14
X8.9811Y-5.61
X9.1Y-2.14
X9.1189Y-5.61
X9.2378Y-2.14
X9.2764Y-5.61
X9.5122Y-2.14
X9.5433Y-5.61
X9.65Y-2.14
X9.6811Y-5.61
X9.7878Y-2.14
X9.8189Y-5.61
X9.9764Y-5.61
X10.0622Y-2.14
X10.2Y-2.14
X10.2433Y-5.61
X10.3378Y-2.14
X10.3811Y-5.61
X10.5189Y-5.61
X10.6122Y-2.14
X10.6764Y-5.61
X10.75Y-2.14
X10.8878Y-2.14
X10.9433Y-5.61
X11.0811Y-5.61
X11.1622Y-2.14
X11.2189Y-5.61
X11.3Y-2.14
X11.3764Y-5.61
X11.4378Y-2.14
X11.6433Y-5.61
X11.7811Y-5.61
X11.9189Y-5.61
X12.0764Y-5.61
T7
X2.118Y-4.68
T8
X2.197Y-4.503
X2.197Y-4.857
X2.236Y-4.68
T9
X12.2754Y-2.645
X12.2754Y-4.925
T10
X2.15Y-2.15
X2.15Y-5.6
X12.35Y-2.15
X12.35Y-5.6
T11
X2.472Y-4.68
T0
M30
