999
dxfrw 0.5.10
0
SECTION
2
HEADER
9
$ACADVER
1
AC1009
9
$DWGCODEPAGE
3
ANSI_1252
9
$INSBASE
10
0
20
0
30
0
9
$EXTMIN
10
0.1
20
0
30
0
9
$EXTMAX
10
25
20
8.15
30
0
9
$LIMMIN
10
0
20
0
9
$LIMMAX
10
420
20
297
9
$ORTHOMODE
70
0
9
$LTSCALE
40
1
9
$TEXTSTYLE
7
STANDARD
9
$CLAYER
8
0
9
$DIMASZ
40
0.1
9
$DIMLFAC
40
1
9
$DIMSCALE
40
1
9
$DIMEXO
40
0.025
9
$DIMEXE
40
0.05
9
$DIMTXT
40
0.1
9
$DIMTSZ
40
0
9
$DIMUNIT
70
2
9
$DIMSTYLE
2
STANDARD
9
$DIMGAP
40
0.025
9
$DIMTIH
70
0
9
$LUNITS
70
2
9
$LUPREC
70
4
9
$AUNITS
70
0
9
$AUPREC
70
2
9
$GRIDMODE
70
1
9
$SNAPSTYLE
70
0
9
$GRIDUNIT
10
0
20
0
9
$PLIMMIN
10
0
20
0
9
$PLIMMAX
10
4.7721774e-11
20
6.7492118e-11
0
ENDSEC
0
SECTION
2
CLASSES
0
ENDSEC
0
SECTION
2
TABLES
0
TABLE
2
VPORT
70
1
0
VPORT
2
*ACTIVE
70
0
10
0
20
0
11
1
21
1
12
7.57288633631
22
5.49755813888
13
0
23
0
14
10
24
10
15
10
25
10
16
0
26
0
36
1
17
0
27
0
37
0
40
10.7889578476
41
1.77834394904
42
50
43
0
44
0
50
0
51
0
71
0
72
100
73
1
74
3
75
0
76
1
77
0
78
0
0
ENDTAB
0
TABLE
2
LTYPE
70
4
0
LTYPE
2
BYBLOCK
70
0
3

72
65
73
0
40
0
0
LTYPE
2
BYLAYER
70
0
3

72
65
73
0
40
0
0
LTYPE
2
CONTINUOUS
70
0
3
Solid line
72
65
73
0
40
0
0
LTYPE
2
DOT
70
0
3
Dot . . . . . . . . . . . . . . . . . . . . . .
72
65
73
2
40
6.35
49
0
49
-6.35
0
LTYPE
2
DOT2
70
0
3
Dot (.5x) .....................................
72
65
73
2
40
3.175
49
0
49
-3.175
0
LTYPE
2
DOTX2
70
0
3
Dot (2x) .  .  .  .  .  .  .  .  .  .  .  .  .
72
65
73
2
40
12.7
49
0
49
-12.7
0
LTYPE
2
DASHED
70
0
3
Dot . . . . . . . . . . . . . . . . . . . . . .
72
65
73
2
40
19.05
49
12.7
49
-6.35
0
LTYPE
2
DASHED2
70
0
3
Dashed (.5x) _ _ _ _ _ _ _ _ _ _ _ _ _ _ _ _ _
72
65
73
2
40
9.525
49
6.35
49
-3.175
0
LTYPE
2
DASHEDX2
70
0
3
Dashed (2x) ____  ____  ____  ____  ____  ___
72
65
73
2
40
38.1
49
25.4
49
-12.7
0
LTYPE
2
DASHDOT
70
0
3
Dash dot __ . __ . __ . __ . __ . __ . __ . __
72
65
73
4
40
25.4
49
12.7
49
-6.35
49
0
49
-6.35
0
LTYPE
2
DASHDOT2
70
0
3
Dash dot (.5x) _._._._._._._._._._._._._._._.
72
65
73
4
40
12.7
49
6.35
49
-3.175
49
0
49
-3.175
0
LTYPE
2
DASHDOTX2
70
0
3
Dash dot (2x) ____  .  ____  .  ____  .  ___
72
65
73
4
40
50.8
49
25.4
49
-12.7
49
0
49
-12.7
0
LTYPE
2
DIVIDE
70
0
3
Divide ____ . . ____ . . ____ . . ____ . . ____
72
65
73
6
40
31.75
49
12.7
49
-6.35
49
0
49
-6.35
49
0
49
-6.35
0
LTYPE
2
DIVIDE2
70
0
3
Divide (.5x) __..__..__..__..__..__..__..__.._
72
65
73
6
40
15.875
49
6.35
49
-3.175
49
0
49
-3.175
49
0
49
-3.175
0
LTYPE
2
DIVIDEX2
70
0
3
Divide (2x) ________  .  .  ________  .  .  _
72
65
73
6
40
63.5
49
25.4
49
-12.7
49
0
49
-12.7
49
0
49
-12.7
0
LTYPE
2
BORDER
70
0
3
Border __ __ . __ __ . __ __ . __ __ . __ __ .
72
65
73
6
40
44.45
49
12.7
49
-6.35
49
12.7
49
-6.35
49
0
49
-6.35
0
LTYPE
2
BORDER2
70
0
3
Border (.5x) __.__.__.__.__.__.__.__.__.__.__.
72
65
73
6
40
22.225
49
6.35
49
-3.175
49
6.35
49
-3.175
49
0
49
-3.175
0
LTYPE
2
BORDERX2
70
0
3
Border (2x) ____  ____  .  ____  ____  .  ___
72
65
73
6
40
88.9
49
25.4
49
-12.7
49
25.4
49
-12.7
49
0
49
-12.7
0
LTYPE
2
CENTER
70
0
3
Center ____ _ ____ _ ____ _ ____ _ ____ _ ____
72
65
73
4
40
50.8
49
31.75
49
-6.35
49
6.35
49
-6.35
0
LTYPE
2
CENTER2
70
0
3
Center (.5x) ___ _ ___ _ ___ _ ___ _ ___ _ ___
72
65
73
4
40
28.575
49
19.05
49
-3.175
49
3.175
49
-3.175
0
LTYPE
2
CENTERX2
70
0
3
Center (2x) ________  __  ________  __  _____
72
65
73
4
40
101.6
49
63.5
49
-12.7
49
12.7
49
-12.7
0
ENDTAB
0
TABLE
2
LAYER
70
1
0
LAYER
2
0
70
0
62
7
6
CONTINUOUS
0
LAYER
2
WATERJET
70
0
62
3
6
CONTINUOUS
0
ENDTAB
0
TABLE
2
STYLE
70
3
0
STYLE
2
STANDARD
70
0
40
0
41
1
50
0
71
0
42
1
3
TXT
4

0
ENDTAB
0
TABLE
2
VIEW
70
0
0
ENDTAB
0
TABLE
2
UCS
70
0
0
ENDTAB
0
TABLE
2
APPID
70
1
0
APPID
2
ACAD
70
0
0
ENDTAB
0
TABLE
2
DIMSTYLE
70
1
0
DIMSTYLE
2
STANDARD
70
0
3

4

5

6

7

40
1
41
0.1
42
0.025
43
0.38
44
0.05
45
0
46
0
47
0
48
0
140
0.1
141
0.09
142
0
143
25.4
144
1
145
0
146
1
147
0.025
71
0
72
0
73
0
74
1
75
0
76
0
77
0
78
0
170
0
171
2
172
0
173
0
174
0
175
0
176
0
177
0
178
0
0
ENDTAB
0
ENDSEC
0
SECTION
2
BLOCKS
0
BLOCK
8
0
2
$MODEL_SPACE
70
0
10
0
20
0
30
0
3
$MODEL_SPACE
1

0
ENDBLK
8
0
0
BLOCK
8
0
2
$PAPER_SPACE
70
0
10
0
20
0
30
0
3
$PAPER_SPACE
1

0
ENDBLK
8
0
0
ENDSEC
0
SECTION
2
ENTITIES
0
CIRCLE
5
31
8
WATERJET
6
BYLAYER
62
256
10
1.6
20
3.6
40
0.098
0
CIRCLE
5
32
8
WATERJET
6
BYLAYER
62
256
10
2.6
20
3.6
40
0.098
0
CIRCLE
5
33
8
WATERJET
6
BYLAYER
62
256
10
3.6
20
2.6
40
0.098
0
CIRCLE
5
34
8
WATERJET
6
BYLAYER
62
256
10
3.6
20
1.6
40
0.098
0
CIRCLE
5
35
8
WATERJET
6
BYLAYER
62
256
10
2.6
20
0.6
40
0.098
0
CIRCLE
5
36
8
WATERJET
6
BYLAYER
62
256
10
1.6
20
0.6
40
0.098
0
CIRCLE
5
37
8
WATERJET
6
BYLAYER
62
256
10
0.6
20
1.6
40
0.098
0
CIRCLE
5
38
8
WATERJET
6
BYLAYER
62
256
10
0.6
20
2.6
40
0.098
0
CIRCLE
5
39
8
WATERJET
6
BYLAYER
62
256
10
1.70454492315
20
2.61536708997
40
0.0620078740157
0
CIRCLE
5
3A
8
WATERJET
6
BYLAYER
62
256
10
2.74404853062
20
2.18479059762
40
0.0620078740157
0
CIRCLE
5
3B
8
WATERJET
6
BYLAYER
62
256
10
1.85140654624
20
1.4998423124
40
0.0620078740157
0
ARC
5
3C
8
WATERJET
6
BYLAYER
62
256
10
1.66267860789
20
3.9875
40
0.0625
50
90
51
103.04488317
0
ARC
5
3D
8
WATERJET
6
BYLAYER
62
256
10
2.53732139211
20
3.9875
40
0.0625
50
76.95511683
51
90
0
ARC
5
3E
8
WATERJET
6
BYLAYER
62
256
10
2.1
20
2.1
40
2
50
103.04488317
51
76.95511683
0
LINE
5
3F
8
WATERJET
6
BYLAYER
62
256
10
1.66267860789
20
4.05
11
2.53732139211
21
4.05
0
CIRCLE
5
40
8
WATERJET
6
BYLAYER
62
256
10
2.6
20
6.7
40
0.1005
0
CIRCLE
5
41
8
WATERJET
6
BYLAYER
62
256
10
1.6
20
6.7
40
0.1005
0
CIRCLE
5
42
8
WATERJET
6
BYLAYER
62
256
10
1.6
20
5.7
40
0.1005
0
CIRCLE
5
43
8
WATERJET
6
BYLAYER
62
256
10
2.6
20
5.7
40
0.1005
0
CIRCLE
5
44
8
WATERJET
6
BYLAYER
62
256
10
3.6
20
5.7
40
0.1005
0
CIRCLE
5
45
8
WATERJET
6
BYLAYER
62
256
10
3.6
20
6.7
40
0.1005
0
CIRCLE
5
46
8
WATERJET
6
BYLAYER
62
256
10
0.6
20
6.7
40
0.1005
0
CIRCLE
5
47
8
WATERJET
6
BYLAYER
62
256
10
0.6
20
5.7
40
0.1005
0
CIRCLE
5
48
8
WATERJET
6
BYLAYER
62
256
10
1.6
20
4.7
40
0.1005
0
CIRCLE
5
49
8
WATERJET
6
BYLAYER
62
256
10
2.6
20
4.7
40
0.1005
0
CIRCLE
5
4A
8
WATERJET
6
BYLAYER
62
256
10
2.6
20
7.7
40
0.1005
0
CIRCLE
5
4B
8
WATERJET
6
BYLAYER
62
256
10
1.6
20
7.7
40
0.1005
0
CIRCLE
5
4C
8
WATERJET
6
BYLAYER
62
256
10
2.1
20
6.849606
40
0.098
0
CIRCLE
5
4D
8
WATERJET
6
BYLAYER
62
256
10
2.1
20
5.875197
40
0.098
0
CIRCLE
5
4E
8
WATERJET
6
BYLAYER
62
256
10
1.450394
20
6.2
40
0.098
0
CIRCLE
5
4F
8
WATERJET
6
BYLAYER
62
256
10
2.749606
20
6.2
40
0.098
0
ARC
5
50
8
WATERJET
6
BYLAYER
62
256
10
1.66267860789
20
8.0875
40
0.0625
50
90
51
103.04488317
0
ARC
5
51
8
WATERJET
6
BYLAYER
62
256
10
2.53732139211
20
8.0875
40
0.0625
50
76.95511683
51
90
0
LINE
5
52
8
WATERJET
6
BYLAYER
62
256
10
2.1
20
8.15
11
2.53732139211
21
8.15
0
ARC
5
53
8
WATERJET
6
BYLAYER
62
256
10
2.1
20
6.2
40
2
50
103.04488317
51
76.95511683
0
LINE
5
54
8
WATERJET
6
BYLAYER
62
256
10
2.1
20
8.15
11
1.66267860789
21
8.15
0
CIRCLE
5
55
8
WATERJET
6
BYLAYER
62
256
10
2.1
20
6.2
40
0.0625
0
ARC
5
56
8
WATERJET
6
BYLAYER
62
256
10
4.4625
20
0.4625
40
0.0625
50
180
51
270
0
LINE
5
57
8
WATERJET
6
BYLAYER
62
256
10
4.4
20
0.4625
11
4.4
21
3.3375
0
ARC
5
58
8
WATERJET
6
BYLAYER
62
256
10
4.4625
20
3.3375
40
0.0625
50
90
51
180
0
LINE
5
59
8
WATERJET
6
BYLAYER
62
256
10
10.3375
20
3.4
11
4.4625
21
3.4
0
ARC
5
5A
8
WATERJET
6
BYLAYER
62
256
10
10.3375
20
3.3375
40
0.0625
50
360
51
90
0
LINE
5
5B
8
WATERJET
6
BYLAYER
62
256
10
10.4
20
0.4625
11
10.4
21
3.3375
0
LINE
5
5C
8
WATERJET
6
BYLAYER
62
256
10
4.4625
20
0.4
11
10.3375
21
0.4
0
ARC
5
5D
8
WATERJET
6
BYLAYER
62
256
10
10.3375
20
0.4625
40
0.0625
50
270
51
360
0
CIRCLE
5
5E
8
WATERJET
6
BYLAYER
62
256
10
6.23
20
2.65
40
0.0795
0
CIRCLE
5
5F
8
WATERJET
6
BYLAYER
62
256
10
9.42
20
2.65
40
0.0795
0
CIRCLE
5
60
8
WATERJET
6
BYLAYER
62
256
10
9.42
20
1.15
40
0.0795
0
CIRCLE
5
61
8
WATERJET
6
BYLAYER
62
256
10
6.23
20
1.15
40
0.0795
0
CIRCLE
5
62
8
WATERJET
6
BYLAYER
62
256
10
4.765
20
1.15
40
0.1615
0
CIRCLE
5
63
8
WATERJET
6
BYLAYER
62
256
10
4.765
20
2.65
40
0.1615
0
CIRCLE
5
64
8
WATERJET
6
BYLAYER
62
256
10
10.035
20
1.15
40
0.1615
0
CIRCLE
5
65
8
WATERJET
6
BYLAYER
62
256
10
10.035
20
2.65
40
0.1615
0
CIRCLE
5
66
8
WATERJET
6
BYLAYER
62
256
10
6.3
20
6.349606
40
0.098
0
CIRCLE
5
67
8
WATERJET
6
BYLAYER
62
256
10
6.3
20
5.375197
40
0.098
0
CIRCLE
5
68
8
WATERJET
6
BYLAYER
62
256
10
5.650394
20
5.7
40
0.098
0
CIRCLE
5
69
8
WATERJET
6
BYLAYER
62
256
10
6.949606
20
5.7
40
0.098
0
ARC
5
6A
8
WATERJET
6
BYLAYER
62
256
10
5.86267860789
20
7.5875
40
0.0625
50
90
51
103.04488317
0
ARC
5
6B
8
WATERJET
6
BYLAYER
62
256
10
6.73732139211
20
7.5875
40
0.0625
50
76.95511683
51
90
0
LINE
5
6C
8
WATERJET
6
BYLAYER
62
256
10
6.3
20
7.65
11
6.73732139211
21
7.65
0
ARC
5
6D
8
WATERJET
6
BYLAYER
62
256
10
6.3
20
5.7
40
2
50
103.04488317
51
76.95511683
0
LINE
5
6E
8
WATERJET
6
BYLAYER
62
256
10
6.3
20
7.65
11
5.86267860789
21
7.65
0
CIRCLE
5
6F
8
WATERJET
6
BYLAYER
62
256
10
6.3
20
5.7
40
0.0625
0
CIRCLE
5
70
8
WATERJET
6
BYLAYER
62
256
10
4.8
20
5.2
40
0.0795
0
CIRCLE
5
71
8
WATERJET
6
BYLAYER
62
256
10
5.8
20
5.2
40
0.0795
0
CIRCLE
5
72
8
WATERJET
6
BYLAYER
62
256
10
6.8
20
5.2
40
0.0795
0
CIRCLE
5
73
8
WATERJET
6
BYLAYER
62
256
10
7.8
20
5.2
40
0.0795
0
CIRCLE
5
74
8
WATERJET
6
BYLAYER
62
256
10
5.8
20
4.2
40
0.0795
0
CIRCLE
5
75
8
WATERJET
6
BYLAYER
62
256
10
6.8
20
4.2
40
0.0795
0
CIRCLE
5
76
8
WATERJET
6
BYLAYER
62
256
10
4.8
20
6.2
40
0.0795
0
CIRCLE
5
77
8
WATERJET
6
BYLAYER
62
256
10
5.8
20
6.2
40
0.0795
0
CIRCLE
5
78
8
WATERJET
6
BYLAYER
62
256
10
6.8
20
6.2
40
0.0795
0
CIRCLE
5
79
8
WATERJET
6
BYLAYER
62
256
10
7.8
20
6.2
40
0.0795
0
CIRCLE
5
7A
8
WATERJET
6
BYLAYER
62
256
10
5.8
20
7.2
40
0.0795
0
CIRCLE
5
7B
8
WATERJET
6
BYLAYER
62
256
10
6.8
20
7.2
40
0.0795
0
CIRCLE
5
7C
8
WATERJET
6
BYLAYER
62
256
10
9.4
20
5.249606
40
0.0795
0
CIRCLE
5
7D
8
WATERJET
6
BYLAYER
62
256
10
8.83742470155
20
4.924803
40
0.0620078740157
0
CIRCLE
5
7E
8
WATERJET
6
BYLAYER
62
256
10
9.96257529845
20
4.924803
40
0.0620078740157
0
CIRCLE
5
7F
8
WATERJET
6
BYLAYER
62
256
10
9.4
20
3.950394
40
0.0620078740157
0
CIRCLE
5
80
8
WATERJET
6
BYLAYER
62
256
10
9.4
20
4.275197
40
0.0795
0
CIRCLE
5
81
8
WATERJET
6
BYLAYER
62
256
10
8.750394
20
4.6
40
0.0795
0
CIRCLE
5
82
8
WATERJET
6
BYLAYER
62
256
10
10.049606
20
4.6
40
0.0795
0
ARC
5
83
8
WATERJET
6
BYLAYER
62
256
10
9.11745323013
20
5.37332677165
40
0.0625
50
90
51
110.070549643
0
ARC
5
84
8
WATERJET
6
BYLAYER
62
256
10
9.68254676987
20
5.37332677165
40
0.0625
50
69.9294503567
51
90
0
LINE
5
85
8
WATERJET
6
BYLAYER
62
256
10
9.4
20
5.43582677165
11
9.11745322027
21
5.43582677165
0
ARC
5
86
8
WATERJET
6
BYLAYER
62
256
10
9.4
20
4.6
40
0.885826771654
50
110.070549643
51
69.9294503567
0
LINE
5
87
8
WATERJET
6
BYLAYER
62
256
10
9.4
20
5.43582677165
11
9.68254677633
21
5.43582677165
0
CIRCLE
5
88
8
WATERJET
6
BYLAYER
62
256
10
9.4
20
7.249606
40
0.0795
0
CIRCLE
5
89
8
WATERJET
6
BYLAYER
62
256
10
8.83742470155
20
6.924803
40
0.0620078740157
0
CIRCLE
5
8A
8
WATERJET
6
BYLAYER
62
256
10
9.96257529845
20
6.924803
40
0.0620078740157
0
CIRCLE
5
8B
8
WATERJET
6
BYLAYER
62
256
10
9.4
20
5.950394
40
0.0620078740157
0
CIRCLE
5
8C
8
WATERJET
6
BYLAYER
62
256
10
9.4
20
6.275197
40
0.0795
0
CIRCLE
5
8D
8
WATERJET
6
BYLAYER
62
256
10
8.750394
20
6.6
40
0.0795
0
CIRCLE
5
8E
8
WATERJET
6
BYLAYER
62
256
10
10.049606
20
6.6
40
0.0795
0
ARC
5
8F
8
WATERJET
6
BYLAYER
62
256
10
9.11745323013
20
7.37332677165
40
0.0625
50
90
51
110.070549643
0
ARC
5
90
8
WATERJET
6
BYLAYER
62
256
10
9.68254676987
20
7.37332677165
40
0.0625
50
69.9294503567
51
90
0
LINE
5
91
8
WATERJET
6
BYLAYER
62
256
10
9.4
20
7.43582677165
11
9.11745322027
21
7.43582677165
0
ARC
5
92
8
WATERJET
6
BYLAYER
62
256
10
9.4
20
6.6
40
0.885826771654
50
110.070549643
51
69.9294503567
0
LINE
5
93
8
WATERJET
6
BYLAYER
62
256
10
9.4
20
7.43582677165
11
9.68254677633
21
7.43582677165
0
ENDSEC
0
EOF
