999
dxfrw 0.5.10
0
SECTION
2
HEADER
9
$ACADVER
1
AC1021
9
$HANDSEED
5
20000
9
$DWGCODEPAGE
3
ANSI_1252
9
$INSBASE
10
0
20
0
30
0
9
$EXTMIN
10
10000000000
20
10000000000
30
0
9
$EXTMAX
10
-10000000000
20
-10000000000
30
0
9
$LIMMIN
10
0
20
0
9
$LIMMAX
10
420
20
297
9
$ORTHOMODE
70
0
9
$LTSCALE
40
1
9
$TEXTSTYLE
7
STANDARD
9
$CLAYER
8
labels
9
$DIMASZ
40
0.25
9
$DIMLFAC
40
1
9
$DIMSCALE
40
1
9
$DIMEXO
40
0.025
9
$DIMEXE
40
0.05
9
$DIMTXT
40
0.25
9
$DIMTSZ
40
0
9
$DIMAUNIT
70
0
9
$DIMADEC
70
2
9
$DIMLUNIT
70
2
9
$DIMSTYLE
2
STANDARD
9
$DIMGAP
40
0.025
9
$DIMTIH
70
0
9
$LUNITS
70
2
9
$LUPREC
70
4
9
$AUNITS
70
0
9
$AUPREC
70
2
9
$SPLINESEGS
70
8
9
$GRIDMODE
70
1
9
$SNAPSTYLE
70
0
9
$GRIDUNIT
10
0
20
0
9
$PINSBASE
10
0
20
0
30
0
9
$PLIMMIN
10
0
20
0
9
$PLIMMAX
10
8.26771653543
20
11.6929133858
9
$INSUNITS
70
1
9
$PSVPSCALE
40
1
0
ENDSEC
0
SECTION
2
CLASSES
0
ENDSEC
0
SECTION
2
TABLES
0
TABLE
2
VPORT
5
8
330
0
100
AcDbSymbolTable
70
1
0
VPORT
5
31
330
2
100
AcDbSymbolTableRecord
100
AcDbViewportTableRecord
2
*ACTIVE
70
0
10
0
20
0
11
1
21
1
12
4.14378444719
22
4.67292441805
13
0
23
0
14
10
24
10
15
10
25
10
16
0
26
0
36
1
17
0
27
0
37
0
40
10.7889578476
41
1.59363057325
42
50
43
0
44
0
50
0
51
0
71
0
72
100
73
1
74
3
75
0
76
1
77
0
78
0
281
0
65
1
110
0
120
0
130
0
111
1
121
0
131
0
112
0
122
1
132
0
79
0
146
0
348
10020
60
7
61
5
292
1
282
1
141
0
142
0
63
250
421
3358443
0
ENDTAB
0
TABLE
2
LTYPE
5
5
330
0
100
AcDbSymbolTable
70
4
0
LTYPE
5
14
330
5
100
AcDbSymbolTableRecord
100
AcDbLinetypeTableRecord
2
ByBlock
70
0
3

72
65
73
0
40
0
0
LTYPE
5
15
330
5
100
AcDbSymbolTableRecord
100
AcDbLinetypeTableRecord
2
ByLayer
70
0
3

72
65
73
0
40
0
0
LTYPE
5
16
330
5
100
AcDbSymbolTableRecord
100
AcDbLinetypeTableRecord
2
Continuous
70
0
3
Solid line
72
65
73
0
40
0
0
LTYPE
5
32
330
5
100
AcDbSymbolTableRecord
100
AcDbLinetypeTableRecord
2
DOT
70
0
3
Dot . . . . . . . . . . . . . . . . . . . . . .
72
65
73
2
40
6.35
49
0
74
0
49
-6.35
74
0
0
LTYPE
5
33
330
5
100
AcDbSymbolTableRecord
100
AcDbLinetypeTableRecord
2
DOT2
70
0
3
Dot (.5x) .....................................
72
65
73
2
40
3.175
49
0
74
0
49
-3.175
74
0
0
LTYPE
5
34
330
5
100
AcDbSymbolTableRecord
100
AcDbLinetypeTableRecord
2
DOTX2
70
0
3
Dot (2x) .  .  .  .  .  .  .  .  .  .  .  .  .
72
65
73
2
40
12.7
49
0
74
0
49
-12.7
74
0
0
LTYPE
5
35
330
5
100
AcDbSymbolTableRecord
100
AcDbLinetypeTableRecord
2
DASHED
70
0
3
Dot . . . . . . . . . . . . . . . . . . . . . .
72
65
73
2
40
19.05
49
12.7
74
0
49
-6.35
74
0
0
LTYPE
5
36
330
5
100
AcDbSymbolTableRecord
100
AcDbLinetypeTableRecord
2
DASHED2
70
0
3
Dashed (.5x) _ _ _ _ _ _ _ _ _ _ _ _ _ _ _ _ _
72
65
73
2
40
9.525
49
6.35
74
0
49
-3.175
74
0
0
LTYPE
5
37
330
5
100
AcDbSymbolTableRecord
100
AcDbLinetypeTableRecord
2
DASHEDX2
70
0
3
Dashed (2x) ____  ____  ____  ____  ____  ___
72
65
73
2
40
38.1
49
25.4
74
0
49
-12.7
74
0
0
LTYPE
5
38
330
5
100
AcDbSymbolTableRecord
100
AcDbLinetypeTableRecord
2
DASHDOT
70
0
3
Dash dot __ . __ . __ . __ . __ . __ . __ . __
72
65
73
4
40
25.4
49
12.7
74
0
49
-6.35
74
0
49
0
74
0
49
-6.35
74
0
0
LTYPE
5
39
330
5
100
AcDbSymbolTableRecord
100
AcDbLinetypeTableRecord
2
DASHDOT2
70
0
3
Dash dot (.5x) _._._._._._._._._._._._._._._.
72
65
73
4
40
12.7
49
6.35
74
0
49
-3.175
74
0
49
0
74
0
49
-3.175
74
0
0
LTYPE
5
3A
330
5
100
AcDbSymbolTableRecord
100
AcDbLinetypeTableRecord
2
DASHDOTX2
70
0
3
Dash dot (2x) ____  .  ____  .  ____  .  ___
72
65
73
4
40
50.8
49
25.4
74
0
49
-12.7
74
0
49
0
74
0
49
-12.7
74
0
0
LTYPE
5
3B
330
5
100
AcDbSymbolTableRecord
100
AcDbLinetypeTableRecord
2
DIVIDE
70
0
3
Divide ____ . . ____ . . ____ . . ____ . . ____
72
65
73
6
40
31.75
49
12.7
74
0
49
-6.35
74
0
49
0
74
0
49
-6.35
74
0
49
0
74
0
49
-6.35
74
0
0
LTYPE
5
3C
330
5
100
AcDbSymbolTableRecord
100
AcDbLinetypeTableRecord
2
DIVIDE2
70
0
3
Divide (.5x) __..__..__..__..__..__..__..__.._
72
65
73
6
40
15.875
49
6.35
74
0
49
-3.175
74
0
49
0
74
0
49
-3.175
74
0
49
0
74
0
49
-3.175
74
0
0
LTYPE
5
3D
330
5
100
AcDbSymbolTableRecord
100
AcDbLinetypeTableRecord
2
DIVIDEX2
70
0
3
Divide (2x) ________  .  .  ________  .  .  _
72
65
73
6
40
63.5
49
25.4
74
0
49
-12.7
74
0
49
0
74
0
49
-12.7
74
0
49
0
74
0
49
-12.7
74
0
0
LTYPE
5
3E
330
5
100
AcDbSymbolTableRecord
100
AcDbLinetypeTableRecord
2
BORDER
70
0
3
Border __ __ . __ __ . __ __ . __ __ . __ __ .
72
65
73
6
40
44.45
49
12.7
74
0
49
-6.35
74
0
49
12.7
74
0
49
-6.35
74
0
49
0
74
0
49
-6.35
74
0
0
LTYPE
5
3F
330
5
100
AcDbSymbolTableRecord
100
AcDbLinetypeTableRecord
2
BORDER2
70
0
3
Border (.5x) __.__.__.__.__.__.__.__.__.__.__.
72
65
73
6
40
22.225
49
6.35
74
0
49
-3.175
74
0
49
6.35
74
0
49
-3.175
74
0
49
0
74
0
49
-3.175
74
0
0
LTYPE
5
40
330
5
100
AcDbSymbolTableRecord
100
AcDbLinetypeTableRecord
2
BORDERX2
70
0
3
Border (2x) ____  ____  .  ____  ____  .  ___
72
65
73
6
40
88.9
49
25.4
74
0
49
-12.7
74
0
49
25.4
74
0
49
-12.7
74
0
49
0
74
0
49
-12.7
74
0
0
LTYPE
5
41
330
5
100
AcDbSymbolTableRecord
100
AcDbLinetypeTableRecord
2
CENTER
70
0
3
Center ____ _ ____ _ ____ _ ____ _ ____ _ ____
72
65
73
4
40
50.8
49
31.75
74
0
49
-6.35
74
0
49
6.35
74
0
49
-6.35
74
0
0
LTYPE
5
42
330
5
100
AcDbSymbolTableRecord
100
AcDbLinetypeTableRecord
2
CENTER2
70
0
3
Center (.5x) ___ _ ___ _ ___ _ ___ _ ___ _ ___
72
65
73
4
40
28.575
49
19.05
74
0
49
-3.175
74
0
49
3.175
74
0
49
-3.175
74
0
0
LTYPE
5
43
330
5
100
AcDbSymbolTableRecord
100
AcDbLinetypeTableRecord
2
CENTERX2
70
0
3
Center (2x) ________  __  ________  __  _____
72
65
73
4
40
101.6
49
63.5
74
0
49
-12.7
74
0
49
12.7
74
0
49
-12.7
74
0
0
ENDTAB
0
TABLE
2
LAYER
5
2
330
0
100
AcDbSymbolTable
70
1
0
LAYER
5
10
330
2
100
AcDbSymbolTableRecord
100
AcDbLayerTableRecord
2
0
70
0
62
7
6
CONTINUOUS
370
0
390
F
0
LAYER
5
44
330
2
100
AcDbSymbolTableRecord
100
AcDbLayerTableRecord
2
boundary
70
0
62
5
6
CONTINUOUS
370
0
390
F
0
LAYER
5
45
330
2
100
AcDbSymbolTableRecord
100
AcDbLayerTableRecord
2
scratch
70
0
62
7
6
CONTINUOUS
370
0
390
F
0
LAYER
5
46
330
2
100
AcDbSymbolTableRecord
100
AcDbLayerTableRecord
2
dimension
70
1
62
7
6
CONTINUOUS
370
0
390
F
0
LAYER
5
47
330
2
100
AcDbSymbolTableRecord
100
AcDbLayerTableRecord
2
gantry_viz
70
0
62
8
6
CONTINUOUS
370
0
390
F
0
LAYER
5
48
330
2
100
AcDbSymbolTableRecord
100
AcDbLayerTableRecord
2
1/4-20_tap_hole
70
0
62
6
6
CONTINUOUS
370
0
390
F
0
LAYER
5
49
330
2
100
AcDbSymbolTableRecord
100
AcDbLayerTableRecord
2
5/16-through_hole
70
0
62
4
6
CONTINUOUS
370
0
390
F
0
LAYER
5
4A
330
2
100
AcDbSymbolTableRecord
100
AcDbLayerTableRecord
2
5/16_screw_pocket_bot
70
0
62
56
420
8421376
6
CONTINUOUS
370
0
390
F
0
LAYER
5
4B
330
2
100
AcDbSymbolTableRecord
100
AcDbLayerTableRecord
2
5/16_screw_pocket_top
70
0
62
2
6
CONTINUOUS
370
0
390
F
0
LAYER
5
4C
330
2
100
AcDbSymbolTableRecord
100
AcDbLayerTableRecord
2
rail_pocket
70
0
62
32
420
12605440
6
CONTINUOUS
370
0
390
F
0
LAYER
5
4D
330
2
100
AcDbSymbolTableRecord
100
AcDbLayerTableRecord
2
rail_pocket_hatch
70
0
62
32
420
12605440
6
CONTINUOUS
370
0
390
F
0
LAYER
5
4E
330
2
100
AcDbSymbolTableRecord
100
AcDbLayerTableRecord
2
5/16_screw_pocket_bot_hatch
70
0
62
56
420
8421376
6
CONTINUOUS
370
0
390
F
0
LAYER
5
4F
330
2
100
AcDbSymbolTableRecord
100
AcDbLayerTableRecord
2
5/16_screw_pocket_top_hatch
70
0
62
2
6
CONTINUOUS
370
0
390
F
0
LAYER
5
50
330
2
100
AcDbSymbolTableRecord
100
AcDbLayerTableRecord
2
5/16_through_hole_side
70
0
62
4
6
CONTINUOUS
370
0
390
F
0
LAYER
5
51
330
2
100
AcDbSymbolTableRecord
100
AcDbLayerTableRecord
2
5/16-18_tap_hole
70
0
62
2
6
CONTINUOUS
370
0
390
F
0
LAYER
5
52
330
2
100
AcDbSymbolTableRecord
100
AcDbLayerTableRecord
2
5/16_screw_pocket_side
70
0
62
4
6
CONTINUOUS
370
0
390
F
0
LAYER
5
53
330
2
100
AcDbSymbolTableRecord
100
AcDbLayerTableRecord
2
reference
70
0
62
253
420
10526884
6
DOT2
370
0
390
F
0
LAYER
5
54
330
2
100
AcDbSymbolTableRecord
100
AcDbLayerTableRecord
2
1/4-20_tap_hole_side
70
0
62
6
6
CONTINUOUS
370
0
390
F
0
LAYER
5
55
330
2
100
AcDbSymbolTableRecord
100
AcDbLayerTableRecord
2
5/16-18_tap_hole_side
70
0
62
2
6
CONTINUOUS
370
0
390
F
0
LAYER
5
56
330
2
100
AcDbSymbolTableRecord
100
AcDbLayerTableRecord
2
labels
70
0
62
7
6
CONTINUOUS
370
0
390
F
0
ENDTAB
0
TABLE
2
STYLE
5
3
330
0
100
AcDbSymbolTable
70
3
0
STYLE
5
57
330
2
100
AcDbSymbolTableRecord
100
AcDbTextStyleTableRecord
2
standard
70
0
40
0
41
1
50
0
71
0
42
1
3
standard
4

0
STYLE
5
58
330
2
100
AcDbSymbolTableRecord
100
AcDbTextStyleTableRecord
2
iso
70
0
40
0
41
1
50
0
71
0
42
1
3
iso
4

0
ENDTAB
0
TABLE
2
VIEW
5
6
330
0
100
AcDbSymbolTable
70
0
0
ENDTAB
0
TABLE
2
UCS
5
7
330
0
100
AcDbSymbolTable
70
0
0
ENDTAB
0
TABLE
2
APPID
5
9
330
0
100
AcDbSymbolTable
70
1
0
APPID
5
12
330
9
100
AcDbSymbolTableRecord
100
AcDbRegAppTableRecord
2
ACAD
70
0
0
ENDTAB
0
TABLE
2
DIMSTYLE
5
A
330
0
100
AcDbSymbolTable
70
1
100
AcDbDimStyleTable
71
1
0
DIMSTYLE
105
59
330
A
100
AcDbSymbolTableRecord
100
AcDbDimStyleTableRecord
2
Standard
70
0
40
1
41
0.25
42
0.025
43
0.38
44
0.05
45
0
46
0
47
0
48
0
140
0.25
141
0.09
142
0
143
25.4
144
1
145
0
146
1
147
0.025
148
0
71
0
72
0
73
0
74
1
75
0
76
0
77
0
78
0
79
0
170
0
171
2
172
0
173
0
174
0
175
0
176
0
177
0
178
0
179
0
271
4
272
4
273
2
274
2
275
0
276
0
277
2
278
46
279
0
280
0
281
0
282
0
283
1
284
0
285
0
286
0
288
0
289
3
340
Standard
341

371
-2
372
-2
0
ENDTAB
0
TABLE
2
BLOCK_RECORD
5
1
330
0
100
AcDbSymbolTable
70
2
0
BLOCK_RECORD
5
1F
330
1
100
AcDbSymbolTableRecord
100
AcDbBlockTableRecord
2
*Model_Space
70
0
280
1
281
0
0
BLOCK_RECORD
5
1E
330
1
100
AcDbSymbolTableRecord
100
AcDbBlockTableRecord
2
*Paper_Space
70
0
280
1
281
0
0
BLOCK_RECORD
5
5A
330
1
100
AcDbSymbolTableRecord
100
AcDbBlockTableRecord
2
*D2
70
0
280
1
281
0
0
BLOCK_RECORD
5
5D
330
1
100
AcDbSymbolTableRecord
100
AcDbBlockTableRecord
2
*D1
70
0
280
1
281
0
0
BLOCK_RECORD
5
60
330
1
100
AcDbSymbolTableRecord
100
AcDbBlockTableRecord
2
*D3
70
0
280
1
281
0
0
BLOCK_RECORD
5
63
330
1
100
AcDbSymbolTableRecord
100
AcDbBlockTableRecord
2
*D7
70
0
280
1
281
0
0
BLOCK_RECORD
5
66
330
1
100
AcDbSymbolTableRecord
100
AcDbBlockTableRecord
2
*D6
70
0
280
1
281
0
0
BLOCK_RECORD
5
69
330
1
100
AcDbSymbolTableRecord
100
AcDbBlockTableRecord
2
*D5
70
0
280
1
281
0
0
BLOCK_RECORD
5
6C
330
1
100
AcDbSymbolTableRecord
100
AcDbBlockTableRecord
2
*D4
70
0
280
1
281
0
0
BLOCK_RECORD
5
6F
330
1
100
AcDbSymbolTableRecord
100
AcDbBlockTableRecord
2
*D8
70
0
280
1
281
0
0
BLOCK_RECORD
5
72
330
1
100
AcDbSymbolTableRecord
100
AcDbBlockTableRecord
2
*D9
70
0
280
1
281
0
0
BLOCK_RECORD
5
75
330
1
100
AcDbSymbolTableRecord
100
AcDbBlockTableRecord
2
*D10
70
0
280
1
281
0
0
ENDTAB
0
ENDSEC
0
SECTION
2
BLOCKS
0
BLOCK
5
20
330
1F
100
AcDbEntity
8
0
100
AcDbBlockBegin
2
*Model_Space
70
0
10
0
20
0
30
0
3
*Model_Space
1

0
ENDBLK
5
21
330
1F
100
AcDbEntity
8
0
100
AcDbBlockEnd
0
BLOCK
5
1C
330
1B
100
AcDbEntity
8
0
100
AcDbBlockBegin
2
*Paper_Space
70
0
10
0
20
0
30
0
3
*Paper_Space
1

0
ENDBLK
5
1D
330
1F
100
AcDbEntity
8
0
100
AcDbBlockEnd
0
BLOCK
5
5B
330
5A
100
AcDbEntity
8
0
100
AcDbBlockBegin
2
*D2
70
1
10
0
20
0
3
*D2
1

0
ENDBLK
5
5C
330
5A
100
AcDbEntity
8
0
100
AcDbBlockEnd
0
BLOCK
5
5E
330
5D
100
AcDbEntity
8
0
100
AcDbBlockBegin
2
*D1
70
1
10
0
20
0
3
*D1
1

0
LINE
5
78
100
AcDbEntity
8
labels
6
CONTINUOUS
62
7
370
0
100
AcDbLine
10
0.4
20
5.2
11
2.2
21
6.3
0
SOLID
5
79
100
AcDbEntity
8
labels
6
CONTINUOUS
62
7
370
0
100
AcDbTrace
10
0.4
20
5.2
30
0
11
0.59161329454
21
5.36588331597
31
0
12
0.635027622286
22
5.29484168875
32
0
13
0.635027622286
23
5.29484168875
33
0
0
ENDBLK
5
5F
330
5D
100
AcDbEntity
8
0
100
AcDbBlockEnd
0
BLOCK
5
61
330
60
100
AcDbEntity
8
0
100
AcDbBlockBegin
2
*D3
70
1
10
0
20
0
3
*D3
1

0
ENDBLK
5
62
330
60
100
AcDbEntity
8
0
100
AcDbBlockEnd
0
BLOCK
5
64
330
63
100
AcDbEntity
8
0
100
AcDbBlockBegin
2
*D7
70
1
10
0
20
0
3
*D7
1

0
LINE
5
7A
100
AcDbEntity
8
labels
6
CONTINUOUS
62
7
370
0
100
AcDbLine
10
-4.5
20
-0.2
11
-5.8
21
0.7
0
SOLID
5
7B
100
AcDbEntity
8
labels
6
CONTINUOUS
62
7
370
0
100
AcDbTrace
10
-4.5
20
-0.2
30
0
11
-4.72924338603
21
-0.0919241048046
31
0
12
-4.68185270979
22
-0.0234709057802
32
0
13
-4.68185270979
23
-0.0234709057802
33
0
0
ENDBLK
5
65
330
63
100
AcDbEntity
8
0
100
AcDbBlockEnd
0
BLOCK
5
67
330
66
100
AcDbEntity
8
0
100
AcDbBlockBegin
2
*D6
70
1
10
0
20
0
3
*D6
1

0
LINE
5
7C
100
AcDbEntity
8
labels
6
CONTINUOUS
62
7
370
0
100
AcDbLine
10
-3
20
0.2
11
-4.9
21
1.5
0
SOLID
5
7D
100
AcDbEntity
8
labels
6
CONTINUOUS
62
7
370
0
100
AcDbTrace
10
-3
20
0.2
30
0
11
-3.22983374037
21
0.306814703817
31
0
12
-3.18281989026
22
0.375527253979
32
0
13
-3.18281989026
23
0.375527253979
33
0
0
ENDBLK
5
68
330
66
100
AcDbEntity
8
0
100
AcDbBlockEnd
0
BLOCK
5
6A
330
69
100
AcDbEntity
8
0
100
AcDbBlockBegin
2
*D5
70
1
10
0
20
0
3
*D5
1

0
LINE
5
7E
100
AcDbEntity
8
labels
6
CONTINUOUS
62
7
370
0
100
AcDbLine
10
-1.7
20
5.7
11
-3.7
21
4.2
0
SOLID
5
7F
100
AcDbEntity
8
labels
6
CONTINUOUS
62
7
370
0
100
AcDbTrace
10
-1.7
20
5.7
30
0
11
-1.87502292053
21
5.51669722738
31
0
12
-1.92497707947
22
5.58330277262
32
0
13
-1.92497707947
23
5.58330277262
33
0
0
ENDBLK
5
6B
330
69
100
AcDbEntity
8
0
100
AcDbBlockEnd
0
BLOCK
5
6D
330
6C
100
AcDbEntity
8
0
100
AcDbBlockBegin
2
*D4
70
1
10
0
20
0
3
*D4
1

0
LINE
5
80
100
AcDbEntity
8
labels
6
CONTINUOUS
62
7
370
0
100
AcDbLine
10
-1.7
20
1.8
11
-3.7
21
3.5
0
LINE
5
81
100
AcDbEntity
8
labels
6
CONTINUOUS
62
7
370
0
100
AcDbLine
10
-3.7
20
3.5
11
-3.7
21
3.5
0
SOLID
5
82
100
AcDbEntity
8
labels
6
CONTINUOUS
62
7
370
0
100
AcDbTrace
10
-1.7
20
1.8
30
0
11
-1.91744543953
21
1.93019374021
31
0
12
-1.86352421935
22
1.99363046984
32
0
13
-1.86352421935
23
1.99363046984
33
0
0
ENDBLK
5
6E
330
6C
100
AcDbEntity
8
0
100
AcDbBlockEnd
0
BLOCK
5
70
330
6F
100
AcDbEntity
8
0
100
AcDbBlockBegin
2
*D8
70
1
10
0
20
0
3
*D8
1

0
LINE
5
83
100
AcDbEntity
8
labels
6
CONTINUOUS
62
7
370
0
100
AcDbLine
10
-0.6
20
18.2
11
-2.4
21
18.8
0
SOLID
5
84
100
AcDbEntity
8
labels
6
CONTINUOUS
62
7
370
0
100
AcDbTrace
10
-0.6
20
18.2
30
0
11
-0.850334901248
21
18.2395647113
31
0
12
-0.824006747777
22
18.3185491717
32
0
13
-0.824006747777
23
18.3185491717
33
0
0
ENDBLK
5
71
330
6F
100
AcDbEntity
8
0
100
AcDbBlockEnd
0
BLOCK
5
73
330
72
100
AcDbEntity
8
0
100
AcDbBlockBegin
2
*D9
70
1
10
0
20
0
3
*D9
1

0
LINE
5
85
100
AcDbEntity
8
labels
6
CONTINUOUS
62
7
370
0
100
AcDbLine
10
-2.4
20
15.2
11
-4.8
21
16.1
0
SOLID
5
86
100
AcDbEntity
8
labels
6
CONTINUOUS
62
7
370
0
100
AcDbTrace
10
-2.4
20
15.2
30
0
11
-2.64869902456
21
15.2488029133
31
0
12
-2.61946556422
22
15.3267588075
32
0
13
-2.61946556422
23
15.3267588075
33
0
0
ENDBLK
5
74
330
72
100
AcDbEntity
8
0
100
AcDbBlockEnd
0
BLOCK
5
76
330
75
100
AcDbEntity
8
0
100
AcDbBlockBegin
2
*D10
70
1
10
0
20
0
3
*D10
1

0
LINE
5
87
100
AcDbEntity
8
labels
6
CONTINUOUS
62
7
370
0
100
AcDbLine
10
-3.9
20
12.9
11
-6.1
21
13.8
0
SOLID
5
88
100
AcDbEntity
8
labels
6
CONTINUOUS
62
7
370
0
100
AcDbTrace
10
-3.9
20
12.9
30
0
11
-4.14714864351
21
12.9561291116
31
0
12
-4.11562483459
22
13.0331873112
32
0
13
-4.11562483459
23
13.0331873112
33
0
0
ENDBLK
5
77
330
75
100
AcDbEntity
8
0
100
AcDbBlockEnd
0
ENDSEC
0
SECTION
2
ENTITIES
0
LINE
5
89
100
AcDbEntity
8
boundary
6
ByLayer
62
256
370
-1
100
AcDbLine
10
2.75
20
0
11
-4.25
21
0
0
LINE
5
8A
100
AcDbEntity
8
boundary
6
ByLayer
62
256
370
-1
100
AcDbLine
10
2.75
20
0.8
11
2.75
21
0
0
LINE
5
8B
100
AcDbEntity
8
boundary
6
ByLayer
62
256
370
-1
100
AcDbLine
10
-1.5
20
0.25
11
-4.25
21
0.25
0
LINE
5
8C
100
AcDbEntity
8
boundary
6
ByLayer
62
256
370
-1
100
AcDbLine
10
-4.25
20
0
11
-4.25
21
0.25
0
LINE
5
8D
100
AcDbEntity
8
boundary
6
ByLayer
62
256
370
-1
100
AcDbLine
10
-1.5
20
0.8
11
-1.5
21
0.25
0
LINE
5
8E
100
AcDbEntity
8
5/16_through_hole_side
6
ByLayer
62
256
370
-1
100
AcDbLine
10
-3.9115
20
0.25
11
-3.9115
21
0
0
LINE
5
8F
100
AcDbEntity
8
5/16_through_hole_side
6
ByLayer
62
256
370
-1
100
AcDbLine
10
-3.5885
20
0.25
11
-3.5885
21
0
0
LINE
5
90
100
AcDbEntity
8
5/16_through_hole_side
6
ByLayer
62
256
370
-1
100
AcDbLine
10
-2.4115
20
0.25
11
-2.4115
21
0
0
LINE
5
91
100
AcDbEntity
8
5/16_through_hole_side
6
ByLayer
62
256
370
-1
100
AcDbLine
10
-2.0885
20
0.25
11
-2.0885
21
0
0
LINE
5
92
100
AcDbEntity
8
5/16_screw_pocket_side
6
ByLayer
62
256
370
-1
100
AcDbLine
10
-1.125
20
0
11
-1.125
21
0.375
0
LINE
5
93
100
AcDbEntity
8
5/16_screw_pocket_side
6
ByLayer
62
256
370
-1
100
AcDbLine
10
-0.375
20
0
11
-0.375
21
0.375
0
LINE
5
94
100
AcDbEntity
8
5/16_screw_pocket_side
6
ByLayer
62
256
370
-1
100
AcDbLine
10
0.375
20
0
11
0.375
21
0.375
0
LINE
5
95
100
AcDbEntity
8
5/16_screw_pocket_side
6
ByLayer
62
256
370
-1
100
AcDbLine
10
1.125
20
0
11
1.125
21
0.375
0
LINE
5
96
100
AcDbEntity
8
5/16_screw_pocket_side
6
ByLayer
62
256
370
-1
100
AcDbLine
10
1.875
20
0.8
11
1.875
21
0.425
0
LINE
5
97
100
AcDbEntity
8
5/16_screw_pocket_side
6
ByLayer
62
256
370
-1
100
AcDbLine
10
2.625
20
0.8
11
2.625
21
0.425
0
LINE
5
98
100
AcDbEntity
8
5/16_through_hole_side
6
ByLayer
62
256
370
-1
100
AcDbLine
10
-0.9115
20
0.8
11
-0.9115
21
0.375
0
LINE
5
99
100
AcDbEntity
8
5/16_through_hole_side
6
ByLayer
62
256
370
-1
100
AcDbLine
10
-0.5885
20
0.8
11
-0.5885
21
0.375
0
LINE
5
9A
100
AcDbEntity
8
5/16_through_hole_side
6
ByLayer
62
256
370
-1
100
AcDbLine
10
0.5885
20
0.8
11
0.5885
21
0.375
0
LINE
5
9B
100
AcDbEntity
8
5/16_through_hole_side
6
ByLayer
62
256
370
-1
100
AcDbLine
10
0.9115
20
0.8
11
0.9115
21
0.375
0
LINE
5
9C
100
AcDbEntity
8
5/16_screw_pocket_side
6
ByLayer
62
256
370
-1
100
AcDbLine
10
-1.125
20
0.375
11
-0.9115
21
0.375
0
LINE
5
9D
100
AcDbEntity
8
5/16_screw_pocket_side
6
ByLayer
62
256
370
-1
100
AcDbLine
10
-0.5885
20
0.375
11
-0.375
21
0.375
0
LINE
5
9E
100
AcDbEntity
8
5/16_screw_pocket_side
6
ByLayer
62
256
370
-1
100
AcDbLine
10
0.375
20
0.375
11
0.5885
21
0.375
0
LINE
5
9F
100
AcDbEntity
8
5/16_screw_pocket_side
6
ByLayer
62
256
370
-1
100
AcDbLine
10
0.9115
20
0.375
11
1.125
21
0.375
0
LINE
5
A0
100
AcDbEntity
8
5/16_screw_pocket_side
6
ByLayer
62
256
370
-1
100
AcDbLine
10
1.875
20
0.425
11
2.0885
21
0.425
0
LINE
5
A1
100
AcDbEntity
8
5/16_screw_pocket_side
6
ByLayer
62
256
370
-1
100
AcDbLine
10
2.4115
20
0.425
11
2.625
21
0.425
0
LINE
5
A2
100
AcDbEntity
8
5/16_through_hole_side
6
ByLayer
62
256
370
-1
100
AcDbLine
10
2.0885
20
0.425
11
2.0885
21
0
0
LINE
5
A3
100
AcDbEntity
8
5/16_through_hole_side
6
ByLayer
62
256
370
-1
100
AcDbLine
10
2.4115
20
0.425
11
2.4115
21
0
0
LINE
5
A4
100
AcDbEntity
8
gantry_viz
6
ByLayer
62
256
370
-1
100
AcDbLine
10
-1.5
20
6.8
11
1.5
21
6.8
0
LINE
5
A5
100
AcDbEntity
8
gantry_viz
6
ByLayer
62
256
370
-1
100
AcDbLine
10
1.5
20
6.8
11
1.5
21
0.8
0
LINE
5
A6
100
AcDbEntity
8
gantry_viz
6
ByLayer
62
256
370
-1
100
AcDbLine
10
1.5
20
0.8
11
-1.5
21
0.8
0
LINE
5
A7
100
AcDbEntity
8
gantry_viz
6
ByLayer
62
256
370
-1
100
AcDbLine
10
-1.5
20
0.8
11
-1.5
21
6.8
0
LINE
5
A8
100
AcDbEntity
8
gantry_viz
6
ByLayer
62
256
370
-1
100
AcDbLine
10
-1.5
20
0.8
11
-1.5
21
1.55
0
LINE
5
A9
100
AcDbEntity
8
gantry_viz
6
ByLayer
62
256
370
-1
100
AcDbLine
10
-1.5
20
1.55
11
-1.5
21
0.3
0
LINE
5
AA
100
AcDbEntity
8
gantry_viz
6
ByLayer
62
256
370
-1
100
AcDbLine
10
-1.5
20
1.55
11
-1.5
21
2.8
0
LINE
5
AB
100
AcDbEntity
8
gantry_viz
6
ByLayer
62
256
370
-1
100
AcDbLine
10
-1.5
20
2.8
11
-1.75
21
2.8
0
LINE
5
AC
100
AcDbEntity
8
gantry_viz
6
ByLayer
62
256
370
-1
100
AcDbLine
10
-1.5
20
0.3
11
-1.75
21
0.3
0
LINE
5
AD
100
AcDbEntity
8
gantry_viz
6
ByLayer
62
256
370
-1
100
AcDbLine
10
-1.75
20
2.8
11
-1.75
21
0.3
0
LINE
5
AE
100
AcDbEntity
8
gantry_viz
6
ByLayer
62
256
370
-1
100
AcDbLine
10
-1.75
20
7.3
11
-1.5
21
7.3
0
LINE
5
AF
100
AcDbEntity
8
gantry_viz
6
ByLayer
62
256
370
-1
100
AcDbLine
10
-1.5
20
7.3
11
-1.5
21
4.8
0
LINE
5
B0
100
AcDbEntity
8
gantry_viz
6
ByLayer
62
256
370
-1
100
AcDbLine
10
-1.5
20
4.8
11
-1.75
21
4.8
0
LINE
5
B1
100
AcDbEntity
8
gantry_viz
6
ByLayer
62
256
370
-1
100
AcDbLine
10
-1.75
20
4.8
11
-1.75
21
7.3
0
LINE
5
B2
100
AcDbEntity
8
boundary
6
ByLayer
62
256
370
-1
100
AcDbLine
10
-1.5
20
0.8
11
2.75
21
0.8
0
LINE
5
B3
100
AcDbEntity
8
reference
6
ByLayer
62
256
370
-1
100
AcDbLine
10
0
20
9
11
0
21
-2
0
LINE
5
B4
100
AcDbEntity
8
boundary
6
ByLayer
62
256
370
-1
100
AcDbLine
10
-5.25
20
0
11
3.75
21
0
0
LINE
5
B5
100
AcDbEntity
8
boundary
6
ByLayer
62
256
370
-1
100
AcDbLine
10
3.75
20
0
11
3.75
21
-0.375
0
LINE
5
B6
100
AcDbEntity
8
boundary
6
ByLayer
62
256
370
-1
100
AcDbLine
10
3.75
20
-0.375
11
-5.25
21
-0.375
0
LINE
5
B7
100
AcDbEntity
8
boundary
6
ByLayer
62
256
370
-1
100
AcDbLine
10
-5.25
20
-0.375
11
-5.25
21
0
0
LINE
5
B8
100
AcDbEntity
8
1/4-20_tap_hole_side
6
ByLayer
62
256
370
-1
100
AcDbLine
10
-4.7895
20
-0.375
11
-4.7895
21
0
0
LINE
5
B9
100
AcDbEntity
8
1/4-20_tap_hole_side
6
ByLayer
62
256
370
-1
100
AcDbLine
10
-4.9905
20
0
11
-4.9905
21
-0.375
0
LINE
5
BA
100
AcDbEntity
8
1/4-20_tap_hole_side
6
ByLayer
62
256
370
-1
100
AcDbLine
10
3.4905
20
-0.375
11
3.4905
21
0
0
LINE
5
BB
100
AcDbEntity
8
1/4-20_tap_hole_side
6
ByLayer
62
256
370
-1
100
AcDbLine
10
3.2895
20
0
11
3.2895
21
-0.375
0
LINE
5
BC
100
AcDbEntity
8
5/16-18_tap_hole_side
6
ByLayer
62
256
370
-1
100
AcDbLine
10
-3.8785
20
0
11
-3.8785
21
-0.375
0
LINE
5
BD
100
AcDbEntity
8
5/16-18_tap_hole_side
6
ByLayer
62
256
370
-1
100
AcDbLine
10
-3.6215
20
-0.375
11
-3.6215
21
0
0
LINE
5
BE
100
AcDbEntity
8
5/16-18_tap_hole_side
6
ByLayer
62
256
370
-1
100
AcDbLine
10
-2.3785
20
0
11
-2.3785
21
-0.375
0
LINE
5
BF
100
AcDbEntity
8
5/16-18_tap_hole_side
6
ByLayer
62
256
370
-1
100
AcDbLine
10
-2.1215
20
-0.375
11
-2.1215
21
0
0
LINE
5
C0
100
AcDbEntity
8
5/16-18_tap_hole_side
6
ByLayer
62
256
370
-1
100
AcDbLine
10
2.1215
20
0
11
2.1215
21
-0.375
0
LINE
5
C1
100
AcDbEntity
8
5/16-18_tap_hole_side
6
ByLayer
62
256
370
-1
100
AcDbLine
10
2.3785
20
-0.375
11
2.3785
21
0
0
LEADER
5
C2
100
AcDbEntity
8
labels
6
ByLayer
62
256
370
-1
100
AcDbLeader
3
Standard
71
1
72
0
73
3
74
0
75
0
40
1
41
10
76
2
76
2
10
0.4
20
5.2
30
0
10
2.2
20
6.3
30
0
0
LEADER
5
C3
100
AcDbEntity
8
labels
6
ByLayer
62
256
370
-1
100
AcDbLeader
3
Standard
71
1
72
0
73
3
74
0
75
0
40
1
41
10
76
0
76
0
0
LEADER
5
C4
100
AcDbEntity
8
labels
6
ByLayer
62
256
370
-1
100
AcDbLeader
3
Standard
71
1
72
0
73
3
74
0
75
0
40
1
41
10
76
0
76
0
0
LEADER
5
C5
100
AcDbEntity
8
labels
6
ByLayer
62
256
370
-1
100
AcDbLeader
3
Standard
71
1
72
0
73
3
74
0
75
0
40
1
41
10
76
3
76
3
10
-1.7
20
1.8
30
0
10
-3.7
20
3.5
30
0
10
-3.7
20
3.5
30
0
0
LEADER
5
C6
100
AcDbEntity
8
labels
6
ByLayer
62
256
370
-1
100
AcDbLeader
3
Standard
71
1
72
0
73
3
74
0
75
0
40
1
41
10
76
2
76
2
10
-1.7
20
5.7
30
0
10
-3.7
20
4.2
30
0
0
LEADER
5
C7
100
AcDbEntity
8
labels
6
ByLayer
62
256
370
-1
100
AcDbLeader
3
Standard
71
1
72
0
73
3
74
0
75
0
40
1
41
10
76
2
76
2
10
-3
20
0.2
30
0
10
-4.9
20
1.5
30
0
0
LEADER
5
C8
100
AcDbEntity
8
labels
6
ByLayer
62
256
370
-1
100
AcDbLeader
3
Standard
71
1
72
0
73
3
74
0
75
0
40
1
41
10
76
2
76
2
10
-4.5
20
-0.2
30
0
10
-5.8
20
0.7
30
0
0
MTEXT
5
C9
100
AcDbEntity
8
labels
6
ByLayer
62
256
370
-1
100
AcDbMText
10
2
20
6.7
30
0
40
0.25
41
3.79166679524
71
1
72
1
1
3060 Gantry Extrusion
7
iso
210
0
220
0
230
1
50
0
73
2
44
1
0
MTEXT
5
CA
100
AcDbEntity
8
labels
6
ByLayer
62
256
370
-1
100
AcDbMText
10
-8.13
20
1.83
30
0
40
0.25
41
3.31944444444
71
1
72
1
1
Gantry Mount Plate
7
iso
210
0
220
0
230
1
50
0
73
2
44
1
0
MTEXT
5
CB
100
AcDbEntity
8
labels
6
ByLayer
62
256
370
-1
100
AcDbMText
10
-8.11
20
1.07
30
0
40
0.25
41
2.38194444444
71
1
72
1
1
Carriage Plate
7
iso
210
0
220
0
230
1
50
0
73
2
44
1
0
MTEXT
5
CC
100
AcDbEntity
8
labels
6
ByLayer
62
256
370
-1
100
AcDbMText
10
-5.9
20
4
30
0
40
0.25
41
2.04861123968
71
1
72
1
1
Gantry Rails
7
iso
210
0
220
0
230
1
50
0
73
2
44
1
0
MTEXT
5
CD
100
AcDbEntity
8
labels
6
ByLayer
62
256
370
-1
100
AcDbMText
10
-1.7
20
8.8
30
0
40
0.5
41
3.15277767178
71
1
72
1
1
Side View
7
iso
210
0
220
0
230
1
50
0
73
2
44
1
0
CIRCLE
5
CE
100
AcDbEntity
8
5/16_screw_pocket_bot_hatch
6
ByLayer
62
256
370
-1
100
AcDbCircle
10
0
20
13
40
0.1615
0
CIRCLE
5
CF
100
AcDbEntity
8
5/16_screw_pocket_bot_hatch
6
ByLayer
62
256
370
-1
100
AcDbCircle
10
0
20
11.5
40
0.1615
0
CIRCLE
5
D0
100
AcDbEntity
8
5/16_screw_pocket_bot_hatch
6
ByLayer
62
256
370
-1
100
AcDbCircle
10
1.5
20
11.5
40
0.1615
0
CIRCLE
5
D1
100
AcDbEntity
8
5/16_screw_pocket_bot_hatch
6
ByLayer
62
256
370
-1
100
AcDbCircle
10
1.5
20
13
40
0.1615
0
CIRCLE
5
D2
100
AcDbEntity
8
5/16_screw_pocket_bot_hatch
6
ByLayer
62
256
370
-1
100
AcDbCircle
10
0
20
13
40
0.375
0
CIRCLE
5
D3
100
AcDbEntity
8
5/16_screw_pocket_bot_hatch
6
ByLayer
62
256
370
-1
100
AcDbCircle
10
0
20
11.5
40
0.375
0
CIRCLE
5
D4
100
AcDbEntity
8
5/16_screw_pocket_bot_hatch
6
ByLayer
62
256
370
-1
100
AcDbCircle
10
1.5
20
11.5
40
0.375
0
CIRCLE
5
D5
100
AcDbEntity
8
5/16_screw_pocket_bot_hatch
6
ByLayer
62
256
370
-1
100
AcDbCircle
10
1.5
20
13
40
0.375
0
CIRCLE
5
D6
100
AcDbEntity
8
5/16_screw_pocket_top_hatch
6
ByLayer
62
256
370
-1
100
AcDbCircle
10
3
20
13
40
0.1615
0
CIRCLE
5
D7
100
AcDbEntity
8
5/16_screw_pocket_top_hatch
6
ByLayer
62
256
370
-1
100
AcDbCircle
10
3
20
11.5
40
0.1615
0
CIRCLE
5
D8
100
AcDbEntity
8
5/16_screw_pocket_top_hatch
6
ByLayer
62
256
370
-1
100
AcDbCircle
10
3
20
13
40
0.375
0
CIRCLE
5
D9
100
AcDbEntity
8
5/16_screw_pocket_top_hatch
6
ByLayer
62
256
370
-1
100
AcDbCircle
10
3
20
11.5
40
0.375
0
CIRCLE
5
DA
100
AcDbEntity
8
rail_pocket_hatch
6
ByLayer
62
256
370
-1
100
AcDbCircle
10
-1.5
20
13
40
0.1615
0
CIRCLE
5
DB
100
AcDbEntity
8
rail_pocket_hatch
6
ByLayer
62
256
370
-1
100
AcDbCircle
10
-1.5
20
11.5
40
0.1615
0
CIRCLE
5
DC
100
AcDbEntity
8
rail_pocket_hatch
6
ByLayer
62
256
370
-1
100
AcDbCircle
10
-3
20
13
40
0.1615
0
CIRCLE
5
DD
100
AcDbEntity
8
rail_pocket_hatch
6
ByLayer
62
256
370
-1
100
AcDbCircle
10
-3
20
11.5
40
0.1615
0
LINE
5
DE
100
AcDbEntity
8
rail_pocket_hatch
6
ByLayer
62
256
370
-1
100
AcDbLine
10
-0.75
20
13.625
11
-0.75
21
10.875
0
LINE
5
DF
100
AcDbEntity
8
rail_pocket_hatch
6
ByLayer
62
256
370
-1
100
AcDbLine
10
-0.75
20
10.875
11
-3.3125
21
10.875
0
ARC
5
E0
100
AcDbEntity
8
rail_pocket_hatch
6
ByLayer
62
256
370
-1
100
AcDbCircle
10
-3.3125
20
11.0625
40
0.1875
100
AcDbArc
50
180
51
270
0
LINE
5
E1
100
AcDbEntity
8
rail_pocket_hatch
6
ByLayer
62
256
370
-1
100
AcDbLine
10
-3.5
20
11.0625
11
-3.5
21
13.4375
0
ARC
5
E2
100
AcDbEntity
8
rail_pocket_hatch
6
ByLayer
62
256
370
-1
100
AcDbCircle
10
-3.3125
20
13.4375
40
0.1875
100
AcDbArc
50
90
51
180
0
LINE
5
E3
100
AcDbEntity
8
rail_pocket_hatch
6
ByLayer
62
256
370
-1
100
AcDbLine
10
-3.3125
20
13.625
11
-0.75
21
13.625
0
LINE
5
E4
100
AcDbEntity
8
dimension
6
ByLayer
62
256
370
-1
100
AcDbLine
10
3.60777252864
20
0.8
11
3.60777252864
21
-5.33298534265e-17
0
SOLID
5
E5
100
AcDbEntity
8
dimension
6
ByLayer
62
256
370
-1
100
AcDbTrace
10
3.60777252864
20
0.8
30
0
11
3.64940099442
21
0.55
31
0
12
3.56614406286
22
0.55
32
0
13
3.56614406286
23
0.55
33
0
0
SOLID
5
E6
100
AcDbEntity
8
dimension
6
ByLayer
62
256
370
-1
100
AcDbTrace
10
3.60777252864
20
-5.33298534265e-17
30
0
11
3.56614406286
21
0.25
31
0
12
3.64940099442
22
0.25
32
0
13
3.64940099442
23
0.25
33
0
0
MTEXT
5
E7
100
AcDbEntity
8
dimension
6
ByLayer
62
256
370
-1
100
AcDbMText
10
3.45777252864
20
0.4
30
0
40
0.25
41
0.388888888889
71
5
72
1
1
0.8
7
standard
210
0
220
0
230
1
50
90
73
2
44
1
0
LINE
5
E8
100
AcDbEntity
8
dimension
6
ByLayer
62
256
370
-1
100
AcDbLine
10
2.775
20
0.8
11
3.65777252864
21
0.8
0
LINE
5
E9
100
AcDbEntity
8
dimension
6
ByLayer
62
256
370
-1
100
AcDbLine
10
2.775
20
0
11
3.65777252864
21
-5.33298534265e-17
0
LINE
5
EA
100
AcDbEntity
8
dimension
6
ByLayer
62
256
370
-1
100
AcDbLine
10
-4.83433272501
20
0.75
11
-4.83433272501
21
-0.5
0
SOLID
5
EB
100
AcDbEntity
8
dimension
6
ByLayer
62
256
370
-1
100
AcDbTrace
10
-4.83433272501
20
0.25
30
0
11
-4.87596119079
21
0.5
31
0
12
-4.79270425923
22
0.5
32
0
13
-4.79270425923
23
0.5
33
0
0
SOLID
5
EC
100
AcDbEntity
8
dimension
6
ByLayer
62
256
370
-1
100
AcDbTrace
10
-4.83433272501
20
3.63294201395e-17
30
0
11
-4.79270425923
21
-0.25
31
0
12
-4.87596119079
22
-0.25
32
0
13
-4.87596119079
23
-0.25
33
0
0
MTEXT
5
ED
100
AcDbEntity
8
dimension
6
ByLayer
62
256
370
-1
100
AcDbMText
10
-4.98433272501
20
0.566666666667
30
0
40
0.25
41
0.583333333333
71
5
72
1
1
0.25
7
standard
210
0
220
0
230
1
50
90
73
2
44
1
0
LINE
5
EE
100
AcDbEntity
8
dimension
6
ByLayer
62
256
370
-1
100
AcDbLine
10
-4.275
20
0.25
11
-4.88433272501
21
0.25
0
LINE
5
EF
100
AcDbEntity
8
dimension
6
ByLayer
62
256
370
-1
100
AcDbLine
10
-4.275
20
3.06161699787e-18
11
-4.88433272501
21
4.24526541352e-17
0
LINE
5
F0
100
AcDbEntity
8
dimension
6
ByLayer
62
256
370
-1
100
AcDbLine
10
-1.5
20
0.527765581333
11
-4.25
21
0.527765581333
0
SOLID
5
F1
100
AcDbEntity
8
dimension
6
ByLayer
62
256
370
-1
100
AcDbTrace
10
-1.5
20
0.527765581333
30
0
11
-1.75
21
0.486137115556
31
0
12
-1.75
22
0.56939404711
32
0
13
-1.75
23
0.56939404711
33
0
0
SOLID
5
F2
100
AcDbEntity
8
dimension
6
ByLayer
62
256
370
-1
100
AcDbTrace
10
-4.25
20
0.527765581333
30
0
11
-4
21
0.56939404711
31
0
12
-4
22
0.486137115556
32
0
13
-4
23
0.486137115556
33
0
0
MTEXT
5
F3
100
AcDbEntity
8
dimension
6
ByLayer
62
256
370
-1
100
AcDbMText
10
-2.875
20
0.677765581333
30
0
40
0.25
41
0.583333333333
71
5
72
1
1
2.75
7
standard
210
0
220
0
230
1
50
360
73
2
44
1
0
LINE
5
F4
100
AcDbEntity
8
dimension
6
ByLayer
62
256
370
-1
100
AcDbLine
10
-1.5
20
0.275
11
-1.5
21
0.577765581333
0
LINE
5
F5
100
AcDbEntity
8
dimension
6
ByLayer
62
256
370
-1
100
AcDbLine
10
-4.25
20
0.275
11
-4.25
21
0.577765581333
0
LINE
5
F6
100
AcDbEntity
8
dimension
6
ByLayer
62
256
370
-1
100
AcDbLine
10
2.31928233984
20
6.8
11
2.31928233984
21
0.8
0
SOLID
5
F7
100
AcDbEntity
8
dimension
6
ByLayer
62
256
370
-1
100
AcDbTrace
10
2.31928233984
20
6.8
30
0
11
2.36091080562
21
6.55
31
0
12
2.27765387406
22
6.55
32
0
13
2.27765387406
23
6.55
33
0
0
SOLID
5
F8
100
AcDbEntity
8
dimension
6
ByLayer
62
256
370
-1
100
AcDbTrace
10
2.31928233984
20
0.8
30
0
11
2.27765387406
21
1.05
31
0
12
2.36091080562
22
1.05
32
0
13
2.36091080562
23
1.05
33
0
0
MTEXT
5
F9
100
AcDbEntity
8
dimension
6
ByLayer
62
256
370
-1
100
AcDbMText
10
2.16928233984
20
3.8
30
0
40
0.25
41
0.111111111111
71
5
72
1
1
6
7
standard
210
0
220
0
230
1
50
90
73
2
44
1
0
LINE
5
FA
100
AcDbEntity
8
dimension
6
ByLayer
62
256
370
-1
100
AcDbLine
10
1.525
20
6.8
11
2.36928233984
21
6.8
0
LINE
5
FB
100
AcDbEntity
8
dimension
6
ByLayer
62
256
370
-1
100
AcDbLine
10
1.525
20
0.8
11
2.36928233984
21
0.8
0
LINE
5
FC
100
AcDbEntity
8
dimension
6
ByLayer
62
256
370
-1
100
AcDbLine
10
-1.5
20
7.37016387994
11
1.5
21
7.37016387994
0
SOLID
5
FD
100
AcDbEntity
8
dimension
6
ByLayer
62
256
370
-1
100
AcDbTrace
10
-1.5
20
7.37016387994
30
0
11
-1.25
21
7.41179234572
31
0
12
-1.25
22
7.32853541416
32
0
13
-1.25
23
7.32853541416
33
0
0
SOLID
5
FE
100
AcDbEntity
8
dimension
6
ByLayer
62
256
370
-1
100
AcDbTrace
10
1.5
20
7.37016387994
30
0
11
1.25
21
7.32853541416
31
0
12
1.25
22
7.41179234572
32
0
13
1.25
23
7.41179234572
33
0
0
MTEXT
5
FF
100
AcDbEntity
8
dimension
6
ByLayer
62
256
370
-1
100
AcDbMText
10
9.18485099361e-18
20
7.52016387994
30
0
40
0.25
41
0.111111111111
71
5
72
1
1
3
7
standard
210
0
220
0
230
1
50
0
73
2
44
1
0
LINE
5
100
100
AcDbEntity
8
dimension
6
ByLayer
62
256
370
-1
100
AcDbLine
10
-1.5
20
6.825
11
-1.5
21
7.42016387994
0
LINE
5
101
100
AcDbEntity
8
dimension
6
ByLayer
62
256
370
-1
100
AcDbLine
10
1.5
20
6.825
11
1.5
21
7.42016387994
0
LINE
5
102
100
AcDbEntity
8
dimension
6
ByLayer
62
256
370
-1
100
AcDbLine
10
4.52765581332
20
0.5
11
4.52765581332
21
-0.875
0
SOLID
5
103
100
AcDbEntity
8
dimension
6
ByLayer
62
256
370
-1
100
AcDbTrace
10
4.52765581332
20
-1.11022302463e-16
30
0
11
4.48602734754
21
0.25
31
0
12
4.5692842791
22
0.25
32
0
13
4.5692842791
23
0.25
33
0
0
SOLID
5
104
100
AcDbEntity
8
dimension
6
ByLayer
62
256
370
-1
100
AcDbTrace
10
4.52765581332
20
-0.375
30
0
11
4.5692842791
21
-0.625
31
0
12
4.48602734754
22
-0.625
32
0
13
4.48602734754
23
-0.625
33
0
0
MTEXT
5
105
100
AcDbEntity
8
dimension
6
ByLayer
62
256
370
-1
100
AcDbMText
10
4.37765581332
20
0.413888888889
30
0
40
0.25
41
0.777777777778
71
5
72
1
1
0.375
7
standard
210
0
220
0
230
1
50
90
73
2
44
1
0
LINE
5
106
100
AcDbEntity
8
dimension
6
ByLayer
62
256
370
-1
100
AcDbLine
10
3.775
20
0
11
4.57765581332
21
-1.11022302463e-16
0
LINE
5
107
100
AcDbEntity
8
dimension
6
ByLayer
62
256
370
-1
100
AcDbLine
10
3.775
20
-0.375
11
4.57765581332
21
-0.375
0
ARC
5
108
100
AcDbEntity
8
boundary
6
ByLayer
62
256
370
-1
100
AcDbCircle
10
-2.2625
20
16.0375
40
0.1875
100
AcDbArc
50
180
51
270
0
LINE
5
109
100
AcDbEntity
8
boundary
6
ByLayer
62
256
370
-1
100
AcDbLine
10
-2.2375
20
15.85
11
-2.2625
21
15.85
0
ARC
5
10A
100
AcDbEntity
8
boundary
6
ByLayer
62
256
370
-1
100
AcDbCircle
10
-2.2375
20
16.0375
40
0.1875
100
AcDbArc
50
270
51
0
0
ARC
5
10B
100
AcDbEntity
8
boundary
6
ByLayer
62
256
370
-1
100
AcDbCircle
10
-0.7625
20
16.0375
40
0.1875
100
AcDbArc
50
180
51
270
0
LINE
5
10C
100
AcDbEntity
8
boundary
6
ByLayer
62
256
370
-1
100
AcDbLine
10
-0.7375
20
15.85
11
-0.7625
21
15.85
0
ARC
5
10D
100
AcDbEntity
8
boundary
6
ByLayer
62
256
370
-1
100
AcDbCircle
10
-0.7375
20
16.0375
40
0.1875
100
AcDbArc
50
270
51
0
0
ARC
5
10E
100
AcDbEntity
8
boundary
6
ByLayer
62
256
370
-1
100
AcDbCircle
10
0.7375
20
16.0375
40
0.1875
100
AcDbArc
50
180
51
270
0
LINE
5
10F
100
AcDbEntity
8
boundary
6
ByLayer
62
256
370
-1
100
AcDbLine
10
0.7625
20
15.85
11
0.7375
21
15.85
0
ARC
5
110
100
AcDbEntity
8
boundary
6
ByLayer
62
256
370
-1
100
AcDbCircle
10
0.7625
20
16.0375
40
0.1875
100
AcDbArc
50
270
51
0
0
ARC
5
111
100
AcDbEntity
8
boundary
6
ByLayer
62
256
370
-1
100
AcDbCircle
10
2.2375
20
16.0375
40
0.1875
100
AcDbArc
50
180
51
270
0
LINE
5
112
100
AcDbEntity
8
boundary
6
ByLayer
62
256
370
-1
100
AcDbLine
10
2.2625
20
15.85
11
2.2375
21
15.85
0
ARC
5
113
100
AcDbEntity
8
boundary
6
ByLayer
62
256
370
-1
100
AcDbCircle
10
2.2625
20
16.0375
40
0.1875
100
AcDbArc
50
270
51
0
0
ARC
5
114
100
AcDbEntity
8
boundary
6
ByLayer
62
256
370
-1
100
AcDbCircle
10
-2.2625
20
12.4625
40
0.1875
100
AcDbArc
50
90
51
180
0
LINE
5
115
100
AcDbEntity
8
boundary
6
ByLayer
62
256
370
-1
100
AcDbLine
10
-2.2375
20
12.65
11
-2.2625
21
12.65
0
ARC
5
116
100
AcDbEntity
8
boundary
6
ByLayer
62
256
370
-1
100
AcDbCircle
10
-2.2375
20
12.4625
40
0.1875
100
AcDbArc
50
0
51
90
0
ARC
5
117
100
AcDbEntity
8
boundary
6
ByLayer
62
256
370
-1
100
AcDbCircle
10
-0.7625
20
12.4625
40
0.1875
100
AcDbArc
50
90
51
180
0
LINE
5
118
100
AcDbEntity
8
boundary
6
ByLayer
62
256
370
-1
100
AcDbLine
10
-0.7375
20
12.65
11
-0.7625
21
12.65
0
ARC
5
119
100
AcDbEntity
8
boundary
6
ByLayer
62
256
370
-1
100
AcDbCircle
10
-0.7375
20
12.4625
40
0.1875
100
AcDbArc
50
0
51
90
0
ARC
5
11A
100
AcDbEntity
8
boundary
6
ByLayer
62
256
370
-1
100
AcDbCircle
10
0.7375
20
12.4625
40
0.1875
100
AcDbArc
50
90
51
180
0
LINE
5
11B
100
AcDbEntity
8
boundary
6
ByLayer
62
256
370
-1
100
AcDbLine
10
0.7625
20
12.65
11
0.7375
21
12.65
0
ARC
5
11C
100
AcDbEntity
8
boundary
6
ByLayer
62
256
370
-1
100
AcDbCircle
10
0.7625
20
12.4625
40
0.1875
100
AcDbArc
50
0
51
90
0
ARC
5
11D
100
AcDbEntity
8
boundary
6
ByLayer
62
256
370
-1
100
AcDbCircle
10
2.2375
20
12.4625
40
0.1875
100
AcDbArc
50
90
51
180
0
LINE
5
11E
100
AcDbEntity
8
boundary
6
ByLayer
62
256
370
-1
100
AcDbLine
10
2.2625
20
12.65
11
2.2375
21
12.65
0
ARC
5
11F
100
AcDbEntity
8
boundary
6
ByLayer
62
256
370
-1
100
AcDbCircle
10
2.2625
20
12.4625
40
0.1875
100
AcDbArc
50
0
51
90
0
CIRCLE
5
120
100
AcDbEntity
8
1/4-20_tap_hole
6
ByLayer
62
256
370
-1
100
AcDbCircle
10
-4.14
20
15
40
0.1005
0
CIRCLE
5
121
100
AcDbEntity
8
1/4-20_tap_hole
6
ByLayer
62
256
370
-1
100
AcDbCircle
10
-4.14
20
13.5
40
0.1005
0
CIRCLE
5
122
100
AcDbEntity
8
1/4-20_tap_hole
6
ByLayer
62
256
370
-1
100
AcDbCircle
10
4.14
20
15
40
0.1005
0
CIRCLE
5
123
100
AcDbEntity
8
1/4-20_tap_hole
6
ByLayer
62
256
370
-1
100
AcDbCircle
10
4.14
20
13.5
40
0.1005
0
ARC
5
124
100
AcDbEntity
8
boundary
6
ByLayer
62
256
370
-1
100
AcDbCircle
10
-4.3125
20
16.3125
40
0.1875
100
AcDbArc
50
90
51
180
0
LINE
5
125
100
AcDbEntity
8
boundary
6
ByLayer
62
256
370
-1
100
AcDbLine
10
-4.5
20
16.3125
11
-4.5
21
12.1875
0
ARC
5
126
100
AcDbEntity
8
boundary
6
ByLayer
62
256
370
-1
100
AcDbCircle
10
-4.3125
20
12.1875
40
0.1875
100
AcDbArc
50
180
51
270
0
ARC
5
127
100
AcDbEntity
8
boundary
6
ByLayer
62
256
370
-1
100
AcDbCircle
10
4.3125
20
16.3125
40
0.1875
100
AcDbArc
50
0
51
90
0
LINE
5
128
100
AcDbEntity
8
boundary
6
ByLayer
62
256
370
-1
100
AcDbLine
10
4.5
20
12.1875
11
4.5
21
16.3125
0
ARC
5
129
100
AcDbEntity
8
boundary
6
ByLayer
62
256
370
-1
100
AcDbCircle
10
4.3125
20
12.1875
40
0.1875
100
AcDbArc
50
270
51
0
0
LINE
5
12A
100
AcDbEntity
8
scratch
6
ByLayer
62
256
370
-1
100
AcDbLine
10
4.5
20
14.25
11
4.5
21
14.25
0
LINE
5
12B
100
AcDbEntity
8
scratch
6
ByLayer
62
256
370
-1
100
AcDbLine
10
4.5
20
14.25
11
-4.5
21
14.25
0
LINE
5
12C
100
AcDbEntity
8
scratch
6
ByLayer
62
256
370
-1
100
AcDbLine
10
-4.5
20
14.25
11
-4.5
21
14.25
0
LINE
5
12D
100
AcDbEntity
8
scratch
6
ByLayer
62
256
370
-1
100
AcDbLine
10
-3.5
20
14.25
11
3.5
21
14.25
0
LINE
5
12E
100
AcDbEntity
8
boundary
6
ByLayer
62
256
370
-1
100
AcDbLine
10
-2.45
20
16.0375
11
-2.45
21
16.4375
0
LINE
5
12F
100
AcDbEntity
8
boundary
6
ByLayer
62
256
370
-1
100
AcDbLine
10
-2.5125
20
16.5
11
-4.3125
21
16.5
0
ARC
5
130
100
AcDbEntity
8
boundary
6
ByLayer
62
256
370
-1
100
AcDbCircle
10
-2.5125
20
16.4375
40
0.0625
100
AcDbArc
50
0
51
90
0
LINE
5
131
100
AcDbEntity
8
boundary
6
ByLayer
62
256
370
-1
100
AcDbLine
10
-2.05
20
16.4375
11
-2.05
21
16.0375
0
ARC
5
132
100
AcDbEntity
8
boundary
6
ByLayer
62
256
370
-1
100
AcDbCircle
10
-1.9875
20
16.4375
40
0.0625
100
AcDbArc
50
90
51
180
0
LINE
5
133
100
AcDbEntity
8
boundary
6
ByLayer
62
256
370
-1
100
AcDbLine
10
-0.95
20
16.0375
11
-0.95
21
16.4375
0
LINE
5
134
100
AcDbEntity
8
boundary
6
ByLayer
62
256
370
-1
100
AcDbLine
10
-1.0125
20
16.5
11
-1.9875
21
16.5
0
ARC
5
135
100
AcDbEntity
8
boundary
6
ByLayer
62
256
370
-1
100
AcDbCircle
10
-1.0125
20
16.4375
40
0.0625
100
AcDbArc
50
0
51
90
0
LINE
5
136
100
AcDbEntity
8
boundary
6
ByLayer
62
256
370
-1
100
AcDbLine
10
-0.55
20
16.4375
11
-0.55
21
16.0375
0
ARC
5
137
100
AcDbEntity
8
boundary
6
ByLayer
62
256
370
-1
100
AcDbCircle
10
-0.4875
20
16.4375
40
0.0625
100
AcDbArc
50
90
51
180
0
LINE
5
138
100
AcDbEntity
8
boundary
6
ByLayer
62
256
370
-1
100
AcDbLine
10
0.4875
20
16.5
11
-0.4875
21
16.5
0
LINE
5
139
100
AcDbEntity
8
boundary
6
ByLayer
62
256
370
-1
100
AcDbLine
10
0.55
20
16.0375
11
0.55
21
16.4375
0
ARC
5
13A
100
AcDbEntity
8
boundary
6
ByLayer
62
256
370
-1
100
AcDbCircle
10
0.4875
20
16.4375
40
0.0625
100
AcDbArc
50
0
51
90
0
LINE
5
13B
100
AcDbEntity
8
boundary
6
ByLayer
62
256
370
-1
100
AcDbLine
10
0.95
20
16.4375
11
0.95
21
16.0375
0
ARC
5
13C
100
AcDbEntity
8
boundary
6
ByLayer
62
256
370
-1
100
AcDbCircle
10
1.0125
20
16.4375
40
0.0625
100
AcDbArc
50
90
51
180
0
LINE
5
13D
100
AcDbEntity
8
boundary
6
ByLayer
62
256
370
-1
100
AcDbLine
10
1.9875
20
16.5
11
1.0125
21
16.5
0
LINE
5
13E
100
AcDbEntity
8
boundary
6
ByLayer
62
256
370
-1
100
AcDbLine
10
2.05
20
16.0375
11
2.05
21
16.4375
0
ARC
5
13F
100
AcDbEntity
8
boundary
6
ByLayer
62
256
370
-1
100
AcDbCircle
10
1.9875
20
16.4375
40
0.0625
100
AcDbArc
50
0
51
90
0
LINE
5
140
100
AcDbEntity
8
boundary
6
ByLayer
62
256
370
-1
100
AcDbLine
10
2.45
20
16.4375
11
2.45
21
16.0375
0
LINE
5
141
100
AcDbEntity
8
boundary
6
ByLayer
62
256
370
-1
100
AcDbLine
10
4.3125
20
16.5
11
2.5125
21
16.5
0
ARC
5
142
100
AcDbEntity
8
boundary
6
ByLayer
62
256
370
-1
100
AcDbCircle
10
2.5125
20
16.4375
40
0.0625
100
AcDbArc
50
90
51
180
0
LINE
5
143
100
AcDbEntity
8
boundary
6
ByLayer
62
256
370
-1
100
AcDbLine
10
-4.3125
20
12
11
-2.5125
21
12
0
LINE
5
144
100
AcDbEntity
8
boundary
6
ByLayer
62
256
370
-1
100
AcDbLine
10
-2.45
20
12.4625
11
-2.45
21
12.0625
0
ARC
5
145
100
AcDbEntity
8
boundary
6
ByLayer
62
256
370
-1
100
AcDbCircle
10
-2.5125
20
12.0625
40
0.0625
100
AcDbArc
50
270
51
0
0
LINE
5
146
100
AcDbEntity
8
boundary
6
ByLayer
62
256
370
-1
100
AcDbLine
10
-2.05
20
12.0625
11
-2.05
21
12.4625
0
ARC
5
147
100
AcDbEntity
8
boundary
6
ByLayer
62
256
370
-1
100
AcDbCircle
10
-1.9875
20
12.0625
40
0.0625
100
AcDbArc
50
180
51
270
0
LINE
5
148
100
AcDbEntity
8
boundary
6
ByLayer
62
256
370
-1
100
AcDbLine
10
-1.9875
20
12
11
-1.0125
21
12
0
LINE
5
149
100
AcDbEntity
8
boundary
6
ByLayer
62
256
370
-1
100
AcDbLine
10
-0.95
20
12.4625
11
-0.95
21
12.0625
0
ARC
5
14A
100
AcDbEntity
8
boundary
6
ByLayer
62
256
370
-1
100
AcDbCircle
10
-1.0125
20
12.0625
40
0.0625
100
AcDbArc
50
270
51
0
0
LINE
5
14B
100
AcDbEntity
8
boundary
6
ByLayer
62
256
370
-1
100
AcDbLine
10
-0.55
20
12.0625
11
-0.55
21
12.4625
0
ARC
5
14C
100
AcDbEntity
8
boundary
6
ByLayer
62
256
370
-1
100
AcDbCircle
10
-0.4875
20
12.0625
40
0.0625
100
AcDbArc
50
180
51
270
0
LINE
5
14D
100
AcDbEntity
8
boundary
6
ByLayer
62
256
370
-1
100
AcDbLine
10
-0.4875
20
12
11
0.4875
21
12
0
LINE
5
14E
100
AcDbEntity
8
boundary
6
ByLayer
62
256
370
-1
100
AcDbLine
10
0.55
20
12.4625
11
0.55
21
12.0625
0
ARC
5
14F
100
AcDbEntity
8
boundary
6
ByLayer
62
256
370
-1
100
AcDbCircle
10
0.4875
20
12.0625
40
0.0625
100
AcDbArc
50
270
51
0
0
LINE
5
150
100
AcDbEntity
8
boundary
6
ByLayer
62
256
370
-1
100
AcDbLine
10
0.95
20
12.0625
11
0.95
21
12.4625
0
ARC
5
151
100
AcDbEntity
8
boundary
6
ByLayer
62
256
370
-1
100
AcDbCircle
10
1.0125
20
12.0625
40
0.0625
100
AcDbArc
50
180
51
270
0
LINE
5
152
100
AcDbEntity
8
boundary
6
ByLayer
62
256
370
-1
100
AcDbLine
10
1.0125
20
12
11
1.9875
21
12
0
LINE
5
153
100
AcDbEntity
8
boundary
6
ByLayer
62
256
370
-1
100
AcDbLine
10
2.05
20
12.4625
11
2.05
21
12.0625
0
ARC
5
154
100
AcDbEntity
8
boundary
6
ByLayer
62
256
370
-1
100
AcDbCircle
10
1.9875
20
12.0625
40
0.0625
100
AcDbArc
50
270
51
0
0
LINE
5
155
100
AcDbEntity
8
boundary
6
ByLayer
62
256
370
-1
100
AcDbLine
10
2.45
20
12.0625
11
2.45
21
12.4625
0
LINE
5
156
100
AcDbEntity
8
boundary
6
ByLayer
62
256
370
-1
100
AcDbLine
10
2.5125
20
12
11
4.3125
21
12
0
ARC
5
157
100
AcDbEntity
8
boundary
6
ByLayer
62
256
370
-1
100
AcDbCircle
10
2.5125
20
12.0625
40
0.0625
100
AcDbArc
50
180
51
270
0
CIRCLE
5
158
100
AcDbEntity
8
5/16-18_tap_hole
6
ByLayer
62
256
370
-1
100
AcDbCircle
10
-3
20
15
40
0.1285
0
CIRCLE
5
159
100
AcDbEntity
8
5/16-18_tap_hole
6
ByLayer
62
256
370
-1
100
AcDbCircle
10
-1.5
20
15
40
0.1285
0
CIRCLE
5
15A
100
AcDbEntity
8
5/16-18_tap_hole
6
ByLayer
62
256
370
-1
100
AcDbCircle
10
-3
20
13.5
40
0.1285
0
CIRCLE
5
15B
100
AcDbEntity
8
5/16-18_tap_hole
6
ByLayer
62
256
370
-1
100
AcDbCircle
10
-1.5
20
13.5
40
0.1285
0
CIRCLE
5
15C
100
AcDbEntity
8
5/16-18_tap_hole
6
ByLayer
62
256
370
-1
100
AcDbCircle
10
3
20
15
40
0.1285
0
CIRCLE
5
15D
100
AcDbEntity
8
5/16-18_tap_hole
6
ByLayer
62
256
370
-1
100
AcDbCircle
10
3
20
13.5
40
0.1285
0
LINE
5
15E
100
AcDbEntity
8
gantry_viz
6
ByLayer
62
256
370
-1
100
AcDbLine
10
-0.75
20
12
11
2.25
21
12
0
CIRCLE
5
15F
100
AcDbEntity
8
5/16-through_hole
6
ByLayer
62
256
370
-1
100
AcDbCircle
10
0
20
15
40
0.1615
0
CIRCLE
5
160
100
AcDbEntity
8
5/16-through_hole
6
ByLayer
62
256
370
-1
100
AcDbCircle
10
0
20
13.5
40
0.1615
0
CIRCLE
5
161
100
AcDbEntity
8
5/16-through_hole
6
ByLayer
62
256
370
-1
100
AcDbCircle
10
1.5
20
13.5
40
0.1615
0
CIRCLE
5
162
100
AcDbEntity
8
5/16-through_hole
6
ByLayer
62
256
370
-1
100
AcDbCircle
10
1.5
20
15
40
0.1615
0
CIRCLE
5
163
100
AcDbEntity
8
5/16-through_hole
6
ByLayer
62
256
370
-1
100
AcDbCircle
10
-1.5
20
15
40
0.1615
0
CIRCLE
5
164
100
AcDbEntity
8
5/16-through_hole
6
ByLayer
62
256
370
-1
100
AcDbCircle
10
-1.5
20
13.5
40
0.1615
0
CIRCLE
5
165
100
AcDbEntity
8
5/16-through_hole
6
ByLayer
62
256
370
-1
100
AcDbCircle
10
3
20
15
40
0.1615
0
CIRCLE
5
166
100
AcDbEntity
8
5/16-through_hole
6
ByLayer
62
256
370
-1
100
AcDbCircle
10
3
20
13.5
40
0.1615
0
CIRCLE
5
167
100
AcDbEntity
8
5/16-through_hole
6
ByLayer
62
256
370
-1
100
AcDbCircle
10
-3
20
15
40
0.1615
0
CIRCLE
5
168
100
AcDbEntity
8
5/16-through_hole
6
ByLayer
62
256
370
-1
100
AcDbCircle
10
-3
20
13.5
40
0.1615
0
LINE
5
169
100
AcDbEntity
8
gantry_viz
6
ByLayer
62
256
370
-1
100
AcDbLine
10
-0.75
20
12
11
-1
21
12
0
CIRCLE
5
16A
100
AcDbEntity
8
5/16_screw_pocket_bot
6
ByLayer
62
256
370
-1
100
AcDbCircle
10
0
20
15
40
0.375
0
CIRCLE
5
16B
100
AcDbEntity
8
5/16_screw_pocket_bot
6
ByLayer
62
256
370
-1
100
AcDbCircle
10
0
20
13.5
40
0.375
0
CIRCLE
5
16C
100
AcDbEntity
8
5/16_screw_pocket_bot
6
ByLayer
62
256
370
-1
100
AcDbCircle
10
1.5
20
13.5
40
0.375
0
CIRCLE
5
16D
100
AcDbEntity
8
5/16_screw_pocket_bot
6
ByLayer
62
256
370
-1
100
AcDbCircle
10
1.5
20
15
40
0.375
0
CIRCLE
5
16E
100
AcDbEntity
8
5/16_screw_pocket_top
6
ByLayer
62
256
370
-1
100
AcDbCircle
10
3
20
15
40
0.375
0
CIRCLE
5
16F
100
AcDbEntity
8
5/16_screw_pocket_top
6
ByLayer
62
256
370
-1
100
AcDbCircle
10
3
20
13.5
40
0.375
0
ARC
5
170
100
AcDbEntity
8
boundary
6
ByLayer
62
256
370
-1
100
AcDbCircle
10
-3.3125
20
15.4375
40
0.1875
100
AcDbArc
50
90
51
180
0
LINE
5
171
100
AcDbEntity
8
boundary
6
ByLayer
62
256
370
-1
100
AcDbLine
10
-3.5
20
13.0625
11
-3.5
21
15.4375
0
ARC
5
172
100
AcDbEntity
8
boundary
6
ByLayer
62
256
370
-1
100
AcDbCircle
10
-3.3125
20
13.0625
40
0.1875
100
AcDbArc
50
180
51
270
0
LINE
5
173
100
AcDbEntity
8
boundary
6
ByLayer
62
256
370
-1
100
AcDbLine
10
-3.3125
20
15.625
11
3.3125
21
15.625
0
ARC
5
174
100
AcDbEntity
8
boundary
6
ByLayer
62
256
370
-1
100
AcDbCircle
10
3.3125
20
15.4375
40
0.1875
100
AcDbArc
50
0
51
90
0
LINE
5
175
100
AcDbEntity
8
boundary
6
ByLayer
62
256
370
-1
100
AcDbLine
10
3.3125
20
12.875
11
-3.3125
21
12.875
0
LINE
5
176
100
AcDbEntity
8
boundary
6
ByLayer
62
256
370
-1
100
AcDbLine
10
3.5
20
15.4375
11
3.5
21
13.0625
0
ARC
5
177
100
AcDbEntity
8
boundary
6
ByLayer
62
256
370
-1
100
AcDbCircle
10
3.3125
20
13.0625
40
0.1875
100
AcDbArc
50
270
51
0
0
LINE
5
178
100
AcDbEntity
8
rail_pocket
6
ByLayer
62
256
370
-1
100
AcDbLine
10
-0.75
20
15.625
11
-0.75
21
12.875
0
LINE
5
179
100
AcDbEntity
8
rail_pocket
6
ByLayer
62
256
370
-1
100
AcDbLine
10
-3.3125
20
15.625
11
-0.75
21
15.625
0
ARC
5
17A
100
AcDbEntity
8
rail_pocket
6
ByLayer
62
256
370
-1
100
AcDbCircle
10
-3.3125
20
15.4375
40
0.1875
100
AcDbArc
50
90
51
180
0
LINE
5
17B
100
AcDbEntity
8
rail_pocket
6
ByLayer
62
256
370
-1
100
AcDbLine
10
-3.5
20
13.0625
11
-3.5
21
15.4375
0
LINE
5
17C
100
AcDbEntity
8
rail_pocket
6
ByLayer
62
256
370
-1
100
AcDbLine
10
-0.75
20
12.875
11
-3.3125
21
12.875
0
ARC
5
17D
100
AcDbEntity
8
rail_pocket
6
ByLayer
62
256
370
-1
100
AcDbCircle
10
-3.3125
20
13.0625
40
0.1875
100
AcDbArc
50
180
51
270
0
LINE
5
17E
100
AcDbEntity
8
gantry_viz
6
ByLayer
62
256
370
-1
100
AcDbLine
10
-1
20
12
11
-1
21
19.179869184
0
LINE
5
17F
100
AcDbEntity
8
gantry_viz
6
ByLayer
62
256
370
-1
100
AcDbLine
10
-0.75
20
19.2811190449
11
-0.75
21
12
0
LINE
5
180
100
AcDbEntity
8
gantry_viz
6
ByLayer
62
256
370
-1
100
AcDbLine
10
2.25
20
12
11
2.25
21
19.2755266956
0
LINE
5
181
100
AcDbEntity
8
reference
6
ByLayer
62
256
370
-1
100
AcDbLine
10
0.75
20
18.9122253983
11
0.75
21
19.9122253983
0
LINE
5
182
100
AcDbEntity
8
scratch
6
ByLayer
62
256
370
-1
100
AcDbLine
10
-3.5
20
14.25
11
3.5
21
14.25
0
LINE
5
183
100
AcDbEntity
8
reference
6
ByLayer
62
256
370
-1
100
AcDbLine
10
0
20
20.25
11
0
21
12
0
LINE
5
184
100
AcDbEntity
8
reference
6
ByLayer
62
256
370
-1
100
AcDbLine
10
0
20
12
11
0
21
11
0
LINE
5
185
100
AcDbEntity
8
reference
6
ByLayer
62
256
370
-1
100
AcDbLine
10
0
20
20.25
11
0
21
19.25
0
LEADER
5
186
100
AcDbEntity
8
labels
6
ByLayer
62
256
370
-1
100
AcDbLeader
3
Standard
71
1
72
0
73
3
74
0
75
0
40
1
41
10
76
2
76
2
10
-0.6
20
18.2
30
0
10
-2.4
20
18.8
30
0
0
MTEXT
5
187
100
AcDbEntity
8
labels
6
ByLayer
62
256
370
-1
100
AcDbMText
10
-6.3
20
19.2
30
0
40
0.25
41
3.79166679524
71
1
72
1
1
3060 Gantry Extrusion
7
iso
210
0
220
0
230
1
50
0
73
2
44
1
0
LEADER
5
188
100
AcDbEntity
8
labels
6
ByLayer
62
256
370
-1
100
AcDbLeader
3
Standard
71
1
72
0
73
3
74
0
75
0
40
1
41
10
76
2
76
2
10
-2.4
20
15.2
30
0
10
-4.8
20
16.1
30
0
0
MTEXT
5
189
100
AcDbEntity
8
labels
6
ByLayer
62
256
370
-1
100
AcDbMText
10
-8.1
20
16.5
30
0
40
0.25
41
3.31944444444
71
1
72
1
1
Gantry Mount Plate
7
iso
210
0
220
0
230
1
50
0
73
2
44
1
0
LEADER
5
18A
100
AcDbEntity
8
labels
6
ByLayer
62
256
370
-1
100
AcDbLeader
3
Standard
71
1
72
0
73
3
74
0
75
0
40
1
41
10
76
2
76
2
10
-3.9
20
12.9
30
0
10
-6.1
20
13.8
30
0
0
MTEXT
5
18B
100
AcDbEntity
8
labels
6
ByLayer
62
256
370
-1
100
AcDbMText
10
-8.4
20
14.2
30
0
40
0.25
41
2.38194444444
71
1
72
1
1
Carriage Plate
7
iso
210
0
220
0
230
1
50
0
73
2
44
1
0
MTEXT
5
18C
100
AcDbEntity
8
labels
6
ByLayer
62
256
370
-1
100
AcDbMText
10
-1.6
20
21.2
30
0
40
0.5
41
2.98611111111
71
1
72
1
1
Top View
7
iso
210
0
220
0
230
1
50
0
73
2
44
1
0
LINE
5
18D
100
AcDbEntity
8
5/16_screw_pocket_bot_hatch
6
ByLayer
62
256
370
-1
100
AcDbLine
10
-0.338387446681
20
15.1616135388
11
-0.161613553319
21
15.3383874398
0
LINE
5
18E
100
AcDbEntity
8
5/16_screw_pocket_bot_hatch
6
ByLayer
62
256
370
-1
100
AcDbLine
10
-0.374104778687
20
15.0258962268
11
-0.0258962213125
21
15.3741047791
0
LINE
5
18F
100
AcDbEntity
8
5/16_screw_pocket_bot_hatch
6
ByLayer
62
256
370
-1
100
AcDbLine
10
-0.368660856567
20
14.9313401658
11
-3.99999999345e-07
21
15.3000006
0
LINE
5
190
100
AcDbEntity
8
5/16_screw_pocket_bot_hatch
6
ByLayer
62
256
370
-1
100
AcDbLine
10
-0.345586328609
20
14.854414666
11
-0.155145990373
21
15.0448550072
0
LINE
5
191
100
AcDbEntity
8
5/16_screw_pocket_bot_hatch
6
ByLayer
62
256
370
-1
100
AcDbLine
10
-0.0448550096275
20
15.1551459897
11
-3.99999999345e-07
21
15.2000006
0
LINE
5
192
100
AcDbEntity
8
5/16_screw_pocket_bot_hatch
6
ByLayer
62
256
370
-1
100
AcDbLine
10
-0.310408662465
20
14.7895921526
11
-0.152670188102
21
14.9473306193
0
LINE
5
193
100
AcDbEntity
8
5/16_screw_pocket_bot_hatch
6
ByLayer
62
256
370
-1
100
AcDbLine
10
-0.265165549574
20
14.7348354637
11
-0.114198248015
21
14.8858027577
0
LINE
5
194
100
AcDbEntity
8
5/16_screw_pocket_bot_hatch
6
ByLayer
62
256
370
-1
100
AcDbLine
10
-0.210408599709
20
14.6895918475
11
-0.0526702871837
21
14.8473301246
0
LINE
5
195
100
AcDbEntity
8
5/16_screw_pocket_bot_hatch
6
ByLayer
62
256
370
-1
100
AcDbLine
10
-0.145586739228
20
14.6544142634
11
-3.99999999345e-07
21
14.8000006
0
LINE
5
196
100
AcDbEntity
8
5/16_screw_pocket_bot_hatch
6
ByLayer
62
256
370
-1
100
AcDbLine
10
-0.0686615444124
20
14.6313394619
11
-3.99999999345e-07
21
14.7000006
0
LINE
5
197
100
AcDbEntity
8
5/16_screw_pocket_bot_hatch
6
ByLayer
62
256
370
-1
100
AcDbLine
10
-0.338387889152
20
13.6616126124
11
-0.161612510848
21
13.8383879376
0
LINE
5
198
100
AcDbEntity
8
5/16_screw_pocket_bot_hatch
6
ByLayer
62
256
370
-1
100
AcDbLine
10
-0.374104735708
20
13.5258968477
11
-0.0258970642927
21
13.8741047207
0
LINE
5
199
100
AcDbEntity
8
5/16_screw_pocket_bot_hatch
6
ByLayer
62
256
370
-1
100
AcDbLine
10
-0.368660779759
20
13.4313397534
11
8.881784197e-16
21
13.8000004
0
LINE
5
19A
100
AcDbEntity
8
5/16_screw_pocket_bot_hatch
6
ByLayer
62
256
370
-1
100
AcDbLine
10
-0.345586138277
20
13.3544142142
11
-0.155146286902
21
13.5448539815
0
LINE
5
19B
100
AcDbEntity
8
5/16_screw_pocket_bot_hatch
6
ByLayer
62
256
370
-1
100
AcDbLine
10
-0.0448539130975
20
13.6551463067
11
8.881784197e-16
21
13.7000002
0
LINE
5
19C
100
AcDbEntity
8
5/16_screw_pocket_bot_hatch
6
ByLayer
62
256
370
-1
100
AcDbLine
10
-0.310409005529
20
13.2895926587
11
-0.152670425572
21
13.4473313076
0
LINE
5
19D
100
AcDbEntity
8
5/16_screw_pocket_bot_hatch
6
ByLayer
62
256
370
-1
100
AcDbLine
10
-0.265165151914
20
13.234835066
11
-0.114197806324
21
13.385802316
0
LINE
5
19E
100
AcDbEntity
8
5/16_screw_pocket_bot_hatch
6
ByLayer
62
256
370
-1
100
AcDbLine
10
-0.21040937603
20
13.1895923737
11
-0.0526713656773
21
13.3473304967
0
LINE
5
19F
100
AcDbEntity
8
5/16_screw_pocket_bot_hatch
6
ByLayer
62
256
370
-1
100
AcDbLine
10
-0.145587178697
20
13.1544144485
11
-7.99999998691e-07
21
13.3000009
0
LINE
5
1A0
100
AcDbEntity
8
5/16_screw_pocket_bot_hatch
6
ByLayer
62
256
370
-1
100
AcDbLine
10
-0.0686620134979
20
13.1313395493
11
-7.99999998691e-07
21
13.2000008
0
LINE
5
1A1
100
AcDbEntity
8
5/16_screw_pocket_bot_hatch
6
ByLayer
62
256
370
-1
100
AcDbLine
10
1.23483465706
20
13.2348352571
11
1.38580195484
21
13.3858025548
0
LINE
5
1A2
100
AcDbEntity
8
5/16_screw_pocket_bot_hatch
6
ByLayer
62
256
370
-1
100
AcDbLine
10
1.61419744516
20
13.6141980452
11
1.76516474294
21
13.7651653429
0
LINE
5
1A3
100
AcDbEntity
8
5/16_screw_pocket_bot_hatch
6
ByLayer
62
256
370
-1
100
AcDbLine
10
1.1895914244
20
13.2895920244
11
1.34732986509
21
13.4473304651
0
LINE
5
1A4
100
AcDbEntity
8
5/16_screw_pocket_bot_hatch
6
ByLayer
62
256
370
-1
100
AcDbLine
10
1.55266953491
20
13.6526701349
11
1.7104079756
21
13.8104085756
0
LINE
5
1A5
100
AcDbEntity
8
5/16_screw_pocket_bot_hatch
6
ByLayer
62
256
370
-1
100
AcDbLine
10
1.15441378835
20
13.3544143884
11
1.34485384794
21
13.5448544479
0
LINE
5
1A6
100
AcDbEntity
8
5/16_screw_pocket_bot_hatch
6
ByLayer
62
256
370
-1
100
AcDbLine
10
1.45514555206
20
13.6551461521
11
1.64558561165
21
13.8455862116
0
LINE
5
1A7
100
AcDbEntity
8
5/16_screw_pocket_bot_hatch
6
ByLayer
62
256
370
-1
100
AcDbLine
10
1.13133920974
20
13.4313398097
11
1.56866019026
21
13.8686607903
0
LINE
5
1A8
100
AcDbEntity
8
5/16_screw_pocket_bot_hatch
6
ByLayer
62
256
370
-1
100
AcDbLine
10
1.12589518554
20
13.52589571
11
1.47410428185
21
13.8741048139
0
LINE
5
1A9
100
AcDbEntity
8
5/16_screw_pocket_bot_hatch
6
ByLayer
62
256
370
-1
100
AcDbLine
10
1.16161226871
20
13.6616129429
11
1.33838706463
21
13.8383877349
0
LINE
5
1AA
100
AcDbEntity
8
5/16_screw_pocket_bot_hatch
6
ByLayer
62
256
370
-1
100
AcDbLine
10
0.161610687514
20
13.1616111916
11
0.338388812486
21
13.3383893209
0
LINE
5
1AB
100
AcDbEntity
8
5/16_screw_pocket_bot_hatch
6
ByLayer
62
256
370
-1
100
AcDbLine
10
1.66161061573
20
14.6616111573
11
1.83838884677
21
14.8383893927
0
LINE
5
1AC
100
AcDbEntity
8
5/16_screw_pocket_bot_hatch
6
ByLayer
62
256
370
-1
100
AcDbLine
10
0.0258942884697
20
13.1258950871
11
0.37410491153
21
13.4741056923
0
LINE
5
1AD
100
AcDbEntity
8
5/16_screw_pocket_bot_hatch
6
ByLayer
62
256
370
-1
100
AcDbLine
10
1.52589437111
20
14.6258950929
11
1.87410490581
21
14.9741056097
0
LINE
5
1AE
100
AcDbEntity
8
5/16_screw_pocket_bot_hatch
6
ByLayer
62
256
370
-1
100
AcDbLine
10
6.12323424067e-16
20
13.2000006
11
0.368660601855
21
13.5686612019
0
LINE
5
1AF
100
AcDbEntity
8
5/16_screw_pocket_bot_hatch
6
ByLayer
62
256
370
-1
100
AcDbLine
10
1.43133879815
20
14.6313393981
11
1.86866060185
21
15.0686612019
0
LINE
5
1B0
100
AcDbEntity
8
5/16_screw_pocket_bot_hatch
6
ByLayer
62
256
370
-1
100
AcDbLine
10
6.12323424067e-16
20
13.3000006
11
0.0448527599225
21
13.3448533599
0
LINE
5
1B1
100
AcDbEntity
8
5/16_screw_pocket_bot_hatch
6
ByLayer
62
256
370
-1
100
AcDbLine
10
0.155146640078
20
13.4551472401
11
0.345585855961
21
13.645586456
0
LINE
5
1B2
100
AcDbEntity
8
5/16_screw_pocket_bot_hatch
6
ByLayer
62
256
370
-1
100
AcDbLine
10
1.35441354404
20
14.654414144
11
1.54485275992
21
14.8448533599
0
LINE
5
1B3
100
AcDbEntity
8
5/16_screw_pocket_bot_hatch
6
ByLayer
62
256
370
-1
100
AcDbLine
10
1.65514664008
20
14.9551472401
11
1.84558585596
21
15.145586456
0
LINE
5
1B4
100
AcDbEntity
8
5/16_screw_pocket_bot_hatch
6
ByLayer
62
256
370
-1
100
AcDbLine
10
0.152669876231
20
13.5526702847
11
0.310408164634
21
13.7104085819
0
LINE
5
1B5
100
AcDbEntity
8
5/16_screw_pocket_bot_hatch
6
ByLayer
62
256
370
-1
100
AcDbLine
10
1.2895913857
20
14.6895918573
11
1.44732966181
21
14.8473301422
0
LINE
5
1B6
100
AcDbEntity
8
5/16_screw_pocket_bot_hatch
6
ByLayer
62
256
370
-1
100
AcDbLine
10
1.65266985486
20
15.0526703467
11
1.81040813097
21
15.2104086315
0
LINE
5
1B7
100
AcDbEntity
8
5/16_screw_pocket_bot_hatch
6
ByLayer
62
256
370
-1
100
AcDbLine
10
0.114197396793
20
13.6141980935
11
0.265164696733
21
13.7651653892
0
LINE
5
1B8
100
AcDbEntity
8
5/16_screw_pocket_bot_hatch
6
ByLayer
62
256
370
-1
100
AcDbLine
10
1.2348346247
20
14.7348352894
11
1.38580192464
21
14.885802585
0
LINE
5
1B9
100
AcDbEntity
8
5/16_screw_pocket_bot_hatch
6
ByLayer
62
256
370
-1
100
AcDbLine
10
1.61419741822
20
15.1141980721
11
1.76516471816
21
15.2651653677
0
LINE
5
1BA
100
AcDbEntity
8
5/16_screw_pocket_bot_hatch
6
ByLayer
62
256
370
-1
100
AcDbLine
10
0.0526695349073
20
13.6526701349
11
0.210407975598
21
13.8104085756
0
LINE
5
1BB
100
AcDbEntity
8
5/16_screw_pocket_bot_hatch
6
ByLayer
62
256
370
-1
100
AcDbLine
10
1.1895914244
20
14.7895920244
11
1.34732986509
21
14.9473304651
0
LINE
5
1BC
100
AcDbEntity
8
5/16_screw_pocket_bot_hatch
6
ByLayer
62
256
370
-1
100
AcDbLine
10
1.55266953491
20
15.1526701349
11
1.7104079756
21
15.3104085756
0
LINE
5
1BD
100
AcDbEntity
8
5/16_screw_pocket_bot_hatch
6
ByLayer
62
256
370
-1
100
AcDbLine
10
6.12323424067e-16
20
13.7000004
11
0.145585746159
21
13.845586155
0
LINE
5
1BE
100
AcDbEntity
8
5/16_screw_pocket_bot_hatch
6
ByLayer
62
256
370
-1
100
AcDbLine
10
1.1544138269
20
14.8544142969
11
1.34485379975
21
15.0448542813
0
LINE
5
1BF
100
AcDbEntity
8
5/16_screw_pocket_bot_hatch
6
ByLayer
62
256
370
-1
100
AcDbLine
10
1.45514570935
20
15.1551461975
11
1.6455856822
21
15.3455861819
0
LINE
5
1C0
100
AcDbEntity
8
5/16_screw_pocket_bot_hatch
6
ByLayer
62
256
370
-1
100
AcDbLine
10
6.12323424067e-16
20
13.8000006
11
0.0686601902581
21
13.8686607903
0
LINE
5
1C1
100
AcDbEntity
8
5/16_screw_pocket_bot_hatch
6
ByLayer
62
256
370
-1
100
AcDbLine
10
1.13133920974
20
14.9313398097
11
1.56866019026
21
15.3686607903
0
LINE
5
1C2
100
AcDbEntity
8
5/16_screw_pocket_bot_hatch
6
ByLayer
62
256
370
-1
100
AcDbLine
10
1.12589519116
20
15.0258957912
11
1.47410420884
21
15.3741048088
0
LINE
5
1C3
100
AcDbEntity
8
5/16_screw_pocket_bot_hatch
6
ByLayer
62
256
370
-1
100
AcDbLine
10
1.16161208884
20
15.1616125663
11
1.33838741116
21
15.3383879004
0
LINE
5
1C4
100
AcDbEntity
8
5/16_screw_pocket_bot_hatch
6
ByLayer
62
256
370
-1
100
AcDbLine
10
0.161610503828
20
14.6616111038
11
0.338388896172
21
14.8383894962
0
LINE
5
1C5
100
AcDbEntity
8
5/16_screw_pocket_bot_hatch
6
ByLayer
62
256
370
-1
100
AcDbLine
10
0.0258945019158
20
14.6258951019
11
0.374104898084
21
14.9741054981
0
LINE
5
1C6
100
AcDbEntity
8
5/16_screw_pocket_bot_hatch
6
ByLayer
62
256
370
-1
100
AcDbLine
10
6.12323424067e-16
20
14.7000006
11
0.368660601855
21
15.0686612019
0
LINE
5
1C7
100
AcDbEntity
8
5/16_screw_pocket_bot_hatch
6
ByLayer
62
256
370
-1
100
AcDbLine
10
6.12323424067e-16
20
14.8000006
11
0.0448527599226
21
14.8448533599
0
LINE
5
1C8
100
AcDbEntity
8
5/16_screw_pocket_bot_hatch
6
ByLayer
62
256
370
-1
100
AcDbLine
10
0.155146640077
20
14.9551472401
11
0.345585855961
21
15.145586456
0
LINE
5
1C9
100
AcDbEntity
8
5/16_screw_pocket_bot_hatch
6
ByLayer
62
256
370
-1
100
AcDbLine
10
0.152669827106
20
15.0526704271
11
0.310408090802
21
15.2104086908
0
LINE
5
1CA
100
AcDbEntity
8
5/16_screw_pocket_bot_hatch
6
ByLayer
62
256
370
-1
100
AcDbLine
10
0.114197445161
20
15.1141980452
11
0.265164742945
21
15.2651653429
0
LINE
5
1CB
100
AcDbEntity
8
5/16_screw_pocket_bot_hatch
6
ByLayer
62
256
370
-1
100
AcDbLine
10
0.0526695349072
20
15.1526701349
11
0.210407975598
21
15.3104085756
0
LINE
5
1CC
100
AcDbEntity
8
5/16_screw_pocket_bot_hatch
6
ByLayer
62
256
370
-1
100
AcDbLine
10
6.12323424067e-16
20
15.2000006
11
0.145585611648
21
15.3455862116
0
LINE
5
1CD
100
AcDbEntity
8
5/16_screw_pocket_bot_hatch
6
ByLayer
62
256
370
-1
100
AcDbLine
10
6.12323424067e-16
20
15.3000006
11
0.068660190258
21
15.3686607903
0
LINE
5
1CE
100
AcDbEntity
8
5/16_screw_pocket_bot_hatch
6
ByLayer
62
256
370
-1
100
AcDbLine
10
1.28959119344
20
13.1895919877
11
1.44732940935
21
13.3473302293
0
LINE
5
1CF
100
AcDbEntity
8
5/16_screw_pocket_bot_hatch
6
ByLayer
62
256
370
-1
100
AcDbLine
10
1.65266976208
20
13.5526706156
11
1.81040797799
21
13.7104088572
0
LINE
5
1D0
100
AcDbEntity
8
5/16_screw_pocket_bot_hatch
6
ByLayer
62
256
370
-1
100
AcDbLine
10
1.35441354404
20
13.154414144
11
1.54485275992
21
13.3448533599
0
LINE
5
1D1
100
AcDbEntity
8
5/16_screw_pocket_bot_hatch
6
ByLayer
62
256
370
-1
100
AcDbLine
10
1.65514664008
20
13.4551472401
11
1.84558585596
21
13.645586456
0
LINE
5
1D2
100
AcDbEntity
8
5/16_screw_pocket_bot_hatch
6
ByLayer
62
256
370
-1
100
AcDbLine
10
1.43133879815
20
13.1313393981
11
1.86866060185
21
13.5686612019
0
LINE
5
1D3
100
AcDbEntity
8
5/16_screw_pocket_bot_hatch
6
ByLayer
62
256
370
-1
100
AcDbLine
10
1.52589442078
20
13.1258950963
11
1.87410490314
21
13.4741055711
0
LINE
5
1D4
100
AcDbEntity
8
5/16_screw_pocket_bot_hatch
6
ByLayer
62
256
370
-1
100
AcDbLine
10
1.66161064584
20
13.1616111716
11
1.83838883194
21
13.3383893617
0
LINE
5
1D5
100
AcDbEntity
8
5/16_screw_pocket_top_hatch
6
ByLayer
62
256
370
-1
100
AcDbLine
10
2.73483465706
20
14.7348352571
11
2.88580195484
21
14.8858025548
0
LINE
5
1D6
100
AcDbEntity
8
5/16_screw_pocket_top_hatch
6
ByLayer
62
256
370
-1
100
AcDbLine
10
3.11419744516
20
15.1141980452
11
3.26516474294
21
15.2651653429
0
LINE
5
1D7
100
AcDbEntity
8
5/16_screw_pocket_top_hatch
6
ByLayer
62
256
370
-1
100
AcDbLine
10
2.6895914244
20
14.7895920244
11
2.84732986509
21
14.9473304651
0
LINE
5
1D8
100
AcDbEntity
8
5/16_screw_pocket_top_hatch
6
ByLayer
62
256
370
-1
100
AcDbLine
10
3.05266953491
20
15.1526701349
11
3.2104079756
21
15.3104085756
0
LINE
5
1D9
100
AcDbEntity
8
5/16_screw_pocket_top_hatch
6
ByLayer
62
256
370
-1
100
AcDbLine
10
2.65441378835
20
14.8544143884
11
2.84485384794
21
15.0448544479
0
LINE
5
1DA
100
AcDbEntity
8
5/16_screw_pocket_top_hatch
6
ByLayer
62
256
370
-1
100
AcDbLine
10
2.95514555206
20
15.1551461521
11
3.14558561165
21
15.3455862116
0
LINE
5
1DB
100
AcDbEntity
8
5/16_screw_pocket_top_hatch
6
ByLayer
62
256
370
-1
100
AcDbLine
10
2.63133920974
20
14.9313398097
11
3.06866019026
21
15.3686607903
0
LINE
5
1DC
100
AcDbEntity
8
5/16_screw_pocket_top_hatch
6
ByLayer
62
256
370
-1
100
AcDbLine
10
2.62589518796
20
15.025895745
11
2.97410424682
21
15.3741048115
0
LINE
5
1DD
100
AcDbEntity
8
5/16_screw_pocket_top_hatch
6
ByLayer
62
256
370
-1
100
AcDbLine
10
2.66161223823
20
15.1616128791
11
2.83838712843
21
15.3383877654
0
LINE
5
1DE
100
AcDbEntity
8
5/16_screw_pocket_top_hatch
6
ByLayer
62
256
370
-1
100
AcDbLine
10
2.78959104748
20
14.6895920866
11
2.94732922727
21
14.8473302921
0
LINE
5
1DF
100
AcDbEntity
8
5/16_screw_pocket_top_hatch
6
ByLayer
62
256
370
-1
100
AcDbLine
10
3.15266969927
20
15.0526707977
11
3.31040787905
21
15.2104090032
0
LINE
5
1E0
100
AcDbEntity
8
5/16_screw_pocket_top_hatch
6
ByLayer
62
256
370
-1
100
AcDbLine
10
2.85441354404
20
14.654414144
11
3.04485275992
21
14.8448533599
0
LINE
5
1E1
100
AcDbEntity
8
5/16_screw_pocket_top_hatch
6
ByLayer
62
256
370
-1
100
AcDbLine
10
3.15514664008
20
14.9551472401
11
3.34558585596
21
15.145586456
0
LINE
5
1E2
100
AcDbEntity
8
5/16_screw_pocket_top_hatch
6
ByLayer
62
256
370
-1
100
AcDbLine
10
2.93133879815
20
14.6313393981
11
3.36866060185
21
15.0686612019
0
LINE
5
1E3
100
AcDbEntity
8
5/16_screw_pocket_top_hatch
6
ByLayer
62
256
370
-1
100
AcDbLine
10
3.02589445581
20
14.6258950987
11
3.37410490071
21
14.9741055361
0
LINE
5
1E4
100
AcDbEntity
8
5/16_screw_pocket_top_hatch
6
ByLayer
62
256
370
-1
100
AcDbLine
10
3.16161058203
20
14.6616111412
11
3.33838886242
21
14.8383894255
0
LINE
5
1E5
100
AcDbEntity
8
5/16_screw_pocket_top_hatch
6
ByLayer
62
256
370
-1
100
AcDbLine
10
2.66161222761
20
13.6616128568
11
2.83838714739
21
13.8383877744
0
LINE
5
1E6
100
AcDbEntity
8
5/16_screw_pocket_top_hatch
6
ByLayer
62
256
370
-1
100
AcDbLine
10
2.6258951821
20
13.5258956604
11
2.97410432046
21
13.8741048166
0
LINE
5
1E7
100
AcDbEntity
8
5/16_screw_pocket_top_hatch
6
ByLayer
62
256
370
-1
100
AcDbLine
10
2.63133924237
20
13.4313396345
11
3.06866045763
21
13.8686607405
0
LINE
5
1E8
100
AcDbEntity
8
5/16_screw_pocket_top_hatch
6
ByLayer
62
256
370
-1
100
AcDbLine
10
2.65441381654
20
13.3544143214
11
2.8448538124
21
13.544854325
0
LINE
5
1E9
100
AcDbEntity
8
5/16_screw_pocket_top_hatch
6
ByLayer
62
256
370
-1
100
AcDbLine
10
2.95514566868
20
13.6551461858
11
3.14558566454
21
13.8455861894
0
LINE
5
1EA
100
AcDbEntity
8
5/16_screw_pocket_top_hatch
6
ByLayer
62
256
370
-1
100
AcDbLine
10
2.68959133366
20
13.2895921583
11
2.84732981141
21
13.4473306207
0
LINE
5
1EB
100
AcDbEntity
8
5/16_screw_pocket_top_hatch
6
ByLayer
62
256
370
-1
100
AcDbLine
10
3.05266939415
20
13.6526701835
11
3.2104078719
21
13.8104086459
0
LINE
5
1EC
100
AcDbEntity
8
5/16_screw_pocket_top_hatch
6
ByLayer
62
256
370
-1
100
AcDbLine
10
2.73483470559
20
13.2348352085
11
2.88580200014
21
13.3858025095
0
LINE
5
1ED
100
AcDbEntity
8
5/16_screw_pocket_top_hatch
6
ByLayer
62
256
370
-1
100
AcDbLine
10
3.11419748557
20
13.6141980048
11
3.26516478012
21
13.7651653058
0
LINE
5
1EE
100
AcDbEntity
8
5/16_screw_pocket_top_hatch
6
ByLayer
62
256
370
-1
100
AcDbLine
10
2.78959128982
20
13.1895919223
11
2.94732955045
21
13.3473301806
0
LINE
5
1EF
100
AcDbEntity
8
5/16_screw_pocket_top_hatch
6
ByLayer
62
256
370
-1
100
AcDbLine
10
3.15266982014
20
13.5526704473
11
3.31040808076
21
13.7104087056
0
LINE
5
1F0
100
AcDbEntity
8
5/16_screw_pocket_top_hatch
6
ByLayer
62
256
370
-1
100
AcDbLine
10
2.85441345255
20
13.1544141826
11
3.04485259324
21
13.3448533117
0
LINE
5
1F1
100
AcDbEntity
8
5/16_screw_pocket_top_hatch
6
ByLayer
62
256
370
-1
100
AcDbLine
10
3.15514668555
20
13.4551473974
11
3.34558582624
21
13.6455865265
0
LINE
5
1F2
100
AcDbEntity
8
5/16_screw_pocket_top_hatch
6
ByLayer
62
256
370
-1
100
AcDbLine
10
2.93133882539
20
13.1313393931
11
3.36866060586
21
13.5686611804
0
LINE
5
1F3
100
AcDbEntity
8
5/16_screw_pocket_top_hatch
6
ByLayer
62
256
370
-1
100
AcDbLine
10
3.02589461416
20
13.1258951097
11
3.37410488906
21
13.4741053677
0
LINE
5
1F4
100
AcDbEntity
8
5/16_screw_pocket_top_hatch
6
ByLayer
62
256
370
-1
100
AcDbLine
10
3.16161032788
20
13.1616110198
11
3.33838897212
21
13.3383896552
0
LINE
5
1F5
100
AcDbEntity
8
rail_pocket_hatch
6
ByLayer
62
256
370
-1
100
AcDbLine
10
-3.5
20
13.500001
11
-1.375001
21
15.625
0
LINE
5
1F6
100
AcDbEntity
8
rail_pocket_hatch
6
ByLayer
62
256
370
-1
100
AcDbLine
10
-3.5
20
13.600001
11
-1.475001
21
15.625
0
LINE
5
1F7
100
AcDbEntity
8
rail_pocket_hatch
6
ByLayer
62
256
370
-1
100
AcDbLine
10
-3.5
20
13.700001
11
-1.575001
21
15.625
0
LINE
5
1F8
100
AcDbEntity
8
rail_pocket_hatch
6
ByLayer
62
256
370
-1
100
AcDbLine
10
-3.5
20
13.800001
11
-1.675001
21
15.625
0
LINE
5
1F9
100
AcDbEntity
8
rail_pocket_hatch
6
ByLayer
62
256
370
-1
100
AcDbLine
10
-3.5
20
13.9000009326
11
-1.77500097011
21
15.625
0
LINE
5
1FA
100
AcDbEntity
8
rail_pocket_hatch
6
ByLayer
62
256
370
-1
100
AcDbLine
10
-3.5
20
14.0000010667
11
-1.87500103056
21
15.625
0
LINE
5
1FB
100
AcDbEntity
8
rail_pocket_hatch
6
ByLayer
62
256
370
-1
100
AcDbLine
10
-3.5
20
14.100001
11
-1.975001
21
15.625
0
LINE
5
1FC
100
AcDbEntity
8
rail_pocket_hatch
6
ByLayer
62
256
370
-1
100
AcDbLine
10
-3.5
20
14.2000009349
11
-2.07500096802
21
15.625
0
LINE
5
1FD
100
AcDbEntity
8
rail_pocket_hatch
6
ByLayer
62
256
370
-1
100
AcDbLine
10
-3.5
20
14.3000010643
11
-2.95514787492
21
14.8448531764
0
LINE
5
1FE
100
AcDbEntity
8
rail_pocket_hatch
6
ByLayer
62
256
370
-1
100
AcDbLine
10
-2.84485317746
20
14.9551478712
11
-2.17500103274
21
15.625
0
LINE
5
1FF
100
AcDbEntity
8
rail_pocket_hatch
6
ByLayer
62
256
370
-1
100
AcDbLine
10
-3.5
20
14.400001
11
-3.0526707245
21
14.8473302755
0
LINE
5
200
100
AcDbEntity
8
rail_pocket_hatch
6
ByLayer
62
256
370
-1
100
AcDbLine
10
-2.8473302755
20
15.0526707245
11
-2.275001
21
15.625
0
LINE
5
201
100
AcDbEntity
8
rail_pocket_hatch
6
ByLayer
62
256
370
-1
100
AcDbLine
10
-3.5
20
14.5000009375
11
-3.11419821873
21
14.8858027284
0
LINE
5
202
100
AcDbEntity
8
rail_pocket_hatch
6
ByLayer
62
256
370
-1
100
AcDbLine
10
-2.88580273127
20
15.1141982216
11
-2.37500096562
21
15.625
0
LINE
5
203
100
AcDbEntity
8
rail_pocket_hatch
6
ByLayer
62
256
370
-1
100
AcDbLine
10
-3.5
20
14.6000011231
11
-3.15267026451
21
14.9473308408
0
LINE
5
204
100
AcDbEntity
8
rail_pocket_hatch
6
ByLayer
62
256
370
-1
100
AcDbLine
10
-2.94733083293
20
15.1526702618
11
-2.47500107051
21
15.625
0
LINE
5
205
100
AcDbEntity
8
rail_pocket_hatch
6
ByLayer
62
256
370
-1
100
AcDbLine
10
-3.5
20
14.700001
11
-3.15514598939
21
15.0448550106
0
LINE
5
206
100
AcDbEntity
8
rail_pocket_hatch
6
ByLayer
62
256
370
-1
100
AcDbLine
10
-3.04485501061
20
15.1551459894
11
-2.575001
21
15.625
0
LINE
5
207
100
AcDbEntity
8
rail_pocket_hatch
6
ByLayer
62
256
370
-1
100
AcDbLine
10
-3.5
20
14.800001
11
-2.675001
21
15.625
0
LINE
5
208
100
AcDbEntity
8
rail_pocket_hatch
6
ByLayer
62
256
370
-1
100
AcDbLine
10
-3.5
20
14.9000008833
11
-2.77500092361
21
15.625
0
LINE
5
209
100
AcDbEntity
8
rail_pocket_hatch
6
ByLayer
62
256
370
-1
100
AcDbLine
10
-3.5
20
15.0000010571
11
-2.87500103929
21
15.625
0
LINE
5
20A
100
AcDbEntity
8
rail_pocket_hatch
6
ByLayer
62
256
370
-1
100
AcDbLine
10
-3.5
20
15.100001
11
-2.975001
21
15.625
0
LINE
5
20B
100
AcDbEntity
8
rail_pocket_hatch
6
ByLayer
62
256
370
-1
100
AcDbLine
10
-3.5
20
15.2000008909
11
-3.07500091667
21
15.625
0
LINE
5
20C
100
AcDbEntity
8
rail_pocket_hatch
6
ByLayer
62
256
370
-1
100
AcDbLine
10
-3.5
20
15.300001
11
-3.175001
21
15.625
0
LINE
5
20D
100
AcDbEntity
8
rail_pocket_hatch
6
ByLayer
62
256
370
-1
100
AcDbLine
10
-3.5
20
15.400001
11
-3.275001
21
15.625
0
LINE
5
20E
100
AcDbEntity
8
rail_pocket_hatch
6
ByLayer
62
256
370
-1
100
AcDbLine
10
-3.4816933499
20
15.5183075513
11
-3.3933075626
21
15.6066933445
0
LINE
5
20F
100
AcDbEntity
8
rail_pocket_hatch
6
ByLayer
62
256
370
-1
100
AcDbLine
10
-3.5
20
13.4000012286
11
-1.27500159184
21
15.625
0
LINE
5
210
100
AcDbEntity
8
rail_pocket_hatch
6
ByLayer
62
256
370
-1
100
AcDbLine
10
-3.5
20
13.300001
11
-1.175001
21
15.625
0
LINE
5
211
100
AcDbEntity
8
rail_pocket_hatch
6
ByLayer
62
256
370
-1
100
AcDbLine
10
-3.5
20
13.200001
11
-3.15514598939
21
13.5448550106
0
LINE
5
212
100
AcDbEntity
8
rail_pocket_hatch
6
ByLayer
62
256
370
-1
100
AcDbLine
10
-3.04485501061
20
13.6551459894
11
-1.65514598939
21
15.0448550106
0
LINE
5
213
100
AcDbEntity
8
rail_pocket_hatch
6
ByLayer
62
256
370
-1
100
AcDbLine
10
-1.54485501061
20
15.1551459894
11
-1.075001
21
15.625
0
LINE
5
214
100
AcDbEntity
8
rail_pocket_hatch
6
ByLayer
62
256
370
-1
100
AcDbLine
10
-3.5
20
13.1000010761
11
-3.15267025509
21
13.4473308135
0
LINE
5
215
100
AcDbEntity
8
rail_pocket_hatch
6
ByLayer
62
256
370
-1
100
AcDbLine
10
-2.94733081013
20
13.6526702539
11
-1.65267024672
21
14.9473307892
0
LINE
5
216
100
AcDbEntity
8
rail_pocket_hatch
6
ByLayer
62
256
370
-1
100
AcDbLine
10
-1.44733078589
20
15.1526702456
11
-0.975001021196
21
15.625
0
LINE
5
217
100
AcDbEntity
8
rail_pocket_hatch
6
ByLayer
62
256
370
-1
100
AcDbLine
10
-3.49192700801
20
13.0080739144
11
-3.11419821056
21
13.3858027202
0
LINE
5
218
100
AcDbEntity
8
rail_pocket_hatch
6
ByLayer
62
256
370
-1
100
AcDbLine
10
-2.88580272277
20
13.6141982131
11
-1.61419822723
21
14.8858027369
0
LINE
5
219
100
AcDbEntity
8
rail_pocket_hatch
6
ByLayer
62
256
370
-1
100
AcDbLine
10
-1.38580273944
20
15.1141982298
11
-0.875000980556
21
15.625
0
LINE
5
21A
100
AcDbEntity
8
rail_pocket_hatch
6
ByLayer
62
256
370
-1
100
AcDbLine
10
-3.45699243872
20
12.9430086398
11
-3.05267077609
21
13.3473302933
0
LINE
5
21B
100
AcDbEntity
8
rail_pocket_hatch
6
ByLayer
62
256
370
-1
100
AcDbLine
10
-2.84733029209
20
13.5526707726
11
-1.55267075074
21
14.8473302845
0
LINE
5
21C
100
AcDbEntity
8
rail_pocket_hatch
6
ByLayer
62
256
370
-1
100
AcDbLine
10
-1.34733028335
20
15.0526707473
11
-0.775001017614
21
15.625
0
LINE
5
21D
100
AcDbEntity
8
rail_pocket_hatch
6
ByLayer
62
256
370
-1
100
AcDbLine
10
-3.40216943708
20
12.8978317212
11
-2.95514799609
21
13.3448531414
0
LINE
5
21E
100
AcDbEntity
8
rail_pocket_hatch
6
ByLayer
62
256
370
-1
100
AcDbLine
10
-2.84485314345
20
13.4551479889
11
-1.45514789795
21
14.8448531697
0
LINE
5
21F
100
AcDbEntity
8
rail_pocket_hatch
6
ByLayer
62
256
370
-1
100
AcDbLine
10
-1.34485317182
20
14.9551478907
11
-0.75
21
15.5500010349
0
LINE
5
220
100
AcDbEntity
8
rail_pocket_hatch
6
ByLayer
62
256
370
-1
100
AcDbLine
10
-3.32460943676
20
12.8753914445
11
-0.75
21
15.4500009732
0
LINE
5
221
100
AcDbEntity
8
rail_pocket_hatch
6
ByLayer
62
256
370
-1
100
AcDbLine
10
-3.22500096067
20
12.875
11
-0.75
21
15.3500009909
0
LINE
5
222
100
AcDbEntity
8
rail_pocket_hatch
6
ByLayer
62
256
370
-1
100
AcDbLine
10
-3.12500103906
20
12.875
11
-0.75
21
15.2500010094
0
LINE
5
223
100
AcDbEntity
8
rail_pocket_hatch
6
ByLayer
62
256
370
-1
100
AcDbLine
10
-3.02500084487
20
12.875
11
-0.75
21
15.1500009615
0
LINE
5
224
100
AcDbEntity
8
rail_pocket_hatch
6
ByLayer
62
256
370
-1
100
AcDbLine
10
-2.92500093125
20
12.875
11
-0.75
21
15.0500003875
0
LINE
5
225
100
AcDbEntity
8
rail_pocket_hatch
6
ByLayer
62
256
370
-1
100
AcDbLine
10
-2.82500088547
20
12.875
11
-0.75
21
14.9500009696
0
LINE
5
226
100
AcDbEntity
8
rail_pocket_hatch
6
ByLayer
62
256
370
-1
100
AcDbLine
10
-2.72500126493
20
12.875
11
-0.75
21
14.8500010729
0
LINE
5
227
100
AcDbEntity
8
rail_pocket_hatch
6
ByLayer
62
256
370
-1
100
AcDbLine
10
-2.6250008875
20
12.875
11
-0.75
21
14.7500009679
0
LINE
5
228
100
AcDbEntity
8
rail_pocket_hatch
6
ByLayer
62
256
370
-1
100
AcDbLine
10
-2.52500103713
20
12.875
11
-0.75
21
14.650001011
0
LINE
5
229
100
AcDbEntity
8
rail_pocket_hatch
6
ByLayer
62
256
370
-1
100
AcDbLine
10
-2.42500114697
20
12.875
11
-0.75
21
14.5500010455
0
LINE
5
22A
100
AcDbEntity
8
rail_pocket_hatch
6
ByLayer
62
256
370
-1
100
AcDbLine
10
-2.32500096367
20
12.875
11
-1.6551459999
21
13.5448549742
0
LINE
5
22B
100
AcDbEntity
8
rail_pocket_hatch
6
ByLayer
62
256
370
-1
100
AcDbLine
10
-1.54485497666
20
13.6551459992
11
-0.75
21
14.4500009883
0
LINE
5
22C
100
AcDbEntity
8
rail_pocket_hatch
6
ByLayer
62
256
370
-1
100
AcDbLine
10
-2.22500090766
20
12.875
11
-1.65267020672
21
13.4473306732
0
LINE
5
22D
100
AcDbEntity
8
rail_pocket_hatch
6
ByLayer
62
256
370
-1
100
AcDbLine
10
-1.44733066586
20
13.6526702042
11
-0.75
21
14.3500008363
0
LINE
5
22E
100
AcDbEntity
8
rail_pocket_hatch
6
ByLayer
62
256
370
-1
100
AcDbLine
10
-2.12500110625
20
12.875
11
-1.61419828552
21
13.3858027952
0
LINE
5
22F
100
AcDbEntity
8
rail_pocket_hatch
6
ByLayer
62
256
370
-1
100
AcDbLine
10
-1.38580278948
20
13.6141982798
11
-0.75
21
14.2500010375
0
LINE
5
230
100
AcDbEntity
8
rail_pocket_hatch
6
ByLayer
62
256
370
-1
100
AcDbLine
10
-2.02500085388
20
12.875
11
-1.55267053715
21
13.3473302109
0
LINE
5
231
100
AcDbEntity
8
rail_pocket_hatch
6
ByLayer
62
256
370
-1
100
AcDbLine
10
-1.34733019905
20
13.5526705029
11
-0.75
21
14.1500005681
0
LINE
5
232
100
AcDbEntity
8
rail_pocket_hatch
6
ByLayer
62
256
370
-1
100
AcDbLine
10
-1.92500103438
20
12.875
11
-1.45514783929
21
13.3448531867
0
LINE
5
233
100
AcDbEntity
8
rail_pocket_hatch
6
ByLayer
62
256
370
-1
100
AcDbLine
10
-1.34485318749
20
13.4551478365
11
-0.75
21
14.0500010134
0
LINE
5
234
100
AcDbEntity
8
rail_pocket_hatch
6
ByLayer
62
256
370
-1
100
AcDbLine
10
-1.82500116898
20
12.875
11
-0.75
21
13.9500010694
0
LINE
5
235
100
AcDbEntity
8
rail_pocket_hatch
6
ByLayer
62
256
370
-1
100
AcDbLine
10
-1.72500113173
20
12.875
11
-0.75
21
13.8500009442
0
LINE
5
236
100
AcDbEntity
8
rail_pocket_hatch
6
ByLayer
62
256
370
-1
100
AcDbLine
10
-1.625001
20
12.875
11
-0.75
21
13.750001
0
LINE
5
237
100
AcDbEntity
8
rail_pocket_hatch
6
ByLayer
62
256
370
-1
100
AcDbLine
10
-1.52500088229
20
12.875
11
-0.75
21
13.6500010438
0
LINE
5
238
100
AcDbEntity
8
rail_pocket_hatch
6
ByLayer
62
256
370
-1
100
AcDbLine
10
-1.42500103098
20
12.875
11
-0.75
21
13.5500010163
0
LINE
5
239
100
AcDbEntity
8
rail_pocket_hatch
6
ByLayer
62
256
370
-1
100
AcDbLine
10
-1.32500120852
20
12.875
11
-0.75
21
13.4500013784
0
LINE
5
23A
100
AcDbEntity
8
rail_pocket_hatch
6
ByLayer
62
256
370
-1
100
AcDbLine
10
-1.22500084167
20
12.875
11
-0.75
21
13.3500005929
0
LINE
5
23B
100
AcDbEntity
8
rail_pocket_hatch
6
ByLayer
62
256
370
-1
100
AcDbLine
10
-1.1250007375
20
12.875
11
-0.75
21
13.250000625
0
LINE
5
23C
100
AcDbEntity
8
rail_pocket_hatch
6
ByLayer
62
256
370
-1
100
AcDbLine
10
-1.02500120658
20
12.875
11
-0.75
21
13.1500013658
0
LINE
5
23D
100
AcDbEntity
8
rail_pocket_hatch
6
ByLayer
62
256
370
-1
100
AcDbLine
10
-0.925000734028
20
12.875
11
-0.75
21
13.0500006708
0
LINE
5
23E
100
AcDbEntity
8
rail_pocket_hatch
6
ByLayer
62
256
370
-1
100
AcDbLine
10
-0.825000563971
20
12.875
11
-0.75
21
12.9500005309
0
LINE
5
23F
100
AcDbEntity
8
dimension
6
ByLayer
62
256
370
-1
100
AcDbLine
10
-4.5
20
10.992587776
11
4.5
21
10.992587776
0
SOLID
5
240
100
AcDbEntity
8
dimension
6
ByLayer
62
256
370
-1
100
AcDbTrace
10
-4.5
20
10.992587776
30
0
11
-4.25
21
11.0342162418
31
0
12
-4.25
22
10.9509593102
32
0
13
-4.25
23
10.9509593102
33
0
0
SOLID
5
241
100
AcDbEntity
8
dimension
6
ByLayer
62
256
370
-1
100
AcDbTrace
10
4.5
20
10.992587776
30
0
11
4.25
21
10.9509593102
31
0
12
4.25
22
11.0342162418
32
0
13
4.25
23
11.0342162418
33
0
0
MTEXT
5
242
100
AcDbEntity
8
dimension
6
ByLayer
62
256
370
-1
100
AcDbMText
10
0
20
11.142587776
30
0
40
0.25
41
0.111111111111
71
5
72
1
1
9
7
standard
210
0
220
0
230
1
50
0
73
2
44
1
0
LINE
5
243
100
AcDbEntity
8
dimension
6
ByLayer
62
256
370
-1
100
AcDbLine
10
-4.5
20
12.1625
11
-4.5
21
10.942587776
0
LINE
5
244
100
AcDbEntity
8
dimension
6
ByLayer
62
256
370
-1
100
AcDbLine
10
4.5
20
12.1625
11
4.5
21
10.942587776
0
LINE
5
245
100
AcDbEntity
8
dimension
6
ByLayer
62
256
370
-1
100
AcDbLine
10
-2.25
20
17.1732604633
11
-0.75
21
17.1732604633
0
SOLID
5
246
100
AcDbEntity
8
dimension
6
ByLayer
62
256
370
-1
100
AcDbTrace
10
-2.25
20
17.1732604633
30
0
11
-2
21
17.2148889291
31
0
12
-2
22
17.1316319975
32
0
13
-2
23
17.1316319975
33
0
0
SOLID
5
247
100
AcDbEntity
8
dimension
6
ByLayer
62
256
370
-1
100
AcDbTrace
10
-0.75
20
17.1732604633
30
0
11
-1
21
17.1316319975
31
0
12
-1
22
17.2148889291
32
0
13
-1
23
17.2148889291
33
0
0
MTEXT
5
248
100
AcDbEntity
8
dimension
6
ByLayer
62
256
370
-1
100
AcDbMText
10
-1.5
20
17.3232604633
30
0
40
0.25
41
0.333333333333
71
5
72
1
1
1.5
7
standard
210
0
220
0
230
1
50
0
73
2
44
1
0
LINE
5
249
100
AcDbEntity
8
dimension
6
ByLayer
62
256
370
-1
100
AcDbLine
10
-2.25
20
15.875
11
-2.25
21
17.2232604633
0
LINE
5
24A
100
AcDbEntity
8
dimension
6
ByLayer
62
256
370
-1
100
AcDbLine
10
-0.75
20
15.875
11
-0.75
21
17.2232604633
0
LINE
5
24B
100
AcDbEntity
8
dimension
6
ByLayer
62
256
370
-1
100
AcDbLine
10
3.1203335421
20
16.5
11
3.1203335421
21
15.85
0
SOLID
5
24C
100
AcDbEntity
8
dimension
6
ByLayer
62
256
370
-1
100
AcDbTrace
10
3.1203335421
20
16.5
30
0
11
3.16196200788
21
16.25
31
0
12
3.07870507632
22
16.25
32
0
13
3.07870507632
23
16.25
33
0
0
SOLID
5
24D
100
AcDbEntity
8
dimension
6
ByLayer
62
256
370
-1
100
AcDbTrace
10
3.1203335421
20
15.85
30
0
11
3.07870507632
21
16.1
31
0
12
3.16196200788
22
16.1
32
0
13
3.16196200788
23
16.1
33
0
0
MTEXT
5
24E
100
AcDbEntity
8
dimension
6
ByLayer
62
256
370
-1
100
AcDbMText
10
2.9703335421
20
16.175
30
0
40
0.25
41
0.583333333333
71
5
72
1
1
0.65
7
standard
210
0
220
0
230
1
50
90
73
2
44
1
0
LINE
5
24F
100
AcDbEntity
8
dimension
6
ByLayer
62
256
370
-1
100
AcDbLine
10
2.5375
20
16.5
11
3.1703335421
21
16.5
0
LINE
5
250
100
AcDbEntity
8
dimension
6
ByLayer
62
256
370
-1
100
AcDbLine
10
2.275
20
15.85
11
3.1703335421
21
15.85
0
SOLID
5
251
100
AcDbEntity
8
dimension
6
ByLayer
62
256
370
-1
100
AcDbTrace
10
-4.4345439544
20
16.4548429774
30
0
11
-4.62887199895
21
16.6175376001
31
0
12
-4.56566645482
22
16.6717296276
32
0
13
-4.56566645482
23
16.6717296276
33
0
0
LINE
5
252
100
AcDbEntity
8
dimension
6
ByLayer
62
256
370
-1
100
AcDbLine
10
-4.3125
20
16.3125
11
-5.35665383182
21
17.5303232508
0
MTEXT
5
253
100
AcDbEntity
8
dimension
6
ByLayer
62
256
370
-1
100
AcDbMText
10
-4.78172451111
20
17.0902182776
30
0
40
0.25
41
0.916666666667
71
5
72
1
1
0.1875
7
standard
210
0
220
0
230
1
50
310.609574693
73
2
44
1
0
SOLID
5
254
100
AcDbEntity
8
dimension
6
ByLayer
62
256
370
-1
100
AcDbTrace
10
0.8841511135
20
15.8948211418
30
0
11
1.078029942
21
15.73159146
31
0
12
1.01467525436
22
15.6775738684
32
0
13
1.01467525436
23
15.6775738684
33
0
0
LINE
5
255
100
AcDbEntity
8
dimension
6
ByLayer
62
256
370
-1
100
AcDbLine
10
0.7625
20
16.0375
11
1.80329286004
21
14.816803102
0
MTEXT
5
256
100
AcDbEntity
8
dimension
6
ByLayer
62
256
370
-1
100
AcDbMText
10
1.4578650732
20
15.4531330125
30
0
40
0.25
41
0.916666666667
71
5
72
1
1
0.1875
7
standard
210
0
220
0
230
1
50
310.451635154
73
2
44
1
0
LINE
5
257
100
AcDbEntity
8
dimension
6
ByLayer
62
256
370
-1
100
AcDbLine
10
-3
20
12.9951162778
11
-1.5
21
12.9951162778
0
SOLID
5
258
100
AcDbEntity
8
dimension
6
ByLayer
62
256
370
-1
100
AcDbTrace
10
-3
20
12.9951162778
30
0
11
-2.75
21
13.0367447436
31
0
12
-2.75
22
12.953487812
32
0
13
-2.75
23
12.953487812
33
0
0
SOLID
5
259
100
AcDbEntity
8
dimension
6
ByLayer
62
256
370
-1
100
AcDbTrace
10
-1.5
20
12.9951162778
30
0
11
-1.75
21
12.953487812
31
0
12
-1.75
22
13.0367447436
32
0
13
-1.75
23
13.0367447436
33
0
0
MTEXT
5
25A
100
AcDbEntity
8
dimension
6
ByLayer
62
256
370
-1
100
AcDbMText
10
-2.25
20
13.1451162778
30
0
40
0.25
41
0.333333333333
71
5
72
1
1
1.5
7
standard
210
0
220
0
230
1
50
0
73
2
44
1
0
LINE
5
25B
100
AcDbEntity
8
dimension
6
ByLayer
62
256
370
-1
100
AcDbLine
10
-3
20
13.475
11
-3
21
12.9451162778
0
LINE
5
25C
100
AcDbEntity
8
dimension
6
ByLayer
62
256
370
-1
100
AcDbLine
10
-1.5
20
13.475
11
-1.5
21
12.9451162778
0
LINE
5
25D
100
AcDbEntity
8
dimension
6
ByLayer
62
256
370
-1
100
AcDbLine
10
-1.5
20
12.9951162778
11
3
21
12.9951162778
0
SOLID
5
25E
100
AcDbEntity
8
dimension
6
ByLayer
62
256
370
-1
100
AcDbTrace
10
-1.5
20
12.9951162778
30
0
11
-1.25
21
13.0367447436
31
0
12
-1.25
22
12.953487812
32
0
13
-1.25
23
12.953487812
33
0
0
SOLID
5
25F
100
AcDbEntity
8
dimension
6
ByLayer
62
256
370
-1
100
AcDbTrace
10
3
20
12.9951162778
30
0
11
2.75
21
12.953487812
31
0
12
2.75
22
13.0367447436
32
0
13
2.75
23
13.0367447436
33
0
0
MTEXT
5
260
100
AcDbEntity
8
dimension
6
ByLayer
62
256
370
-1
100
AcDbMText
10
0.75
20
13.1451162778
30
0
40
0.25
41
0.416666666667
71
5
72
1
1
4.5
7
standard
210
0
220
0
230
1
50
0
73
2
44
1
0
LINE
5
261
100
AcDbEntity
8
dimension
6
ByLayer
62
256
370
-1
100
AcDbLine
10
-1.5
20
13.475
11
-1.5
21
12.9451162778
0
LINE
5
262
100
AcDbEntity
8
dimension
6
ByLayer
62
256
370
-1
100
AcDbLine
10
3
20
13.475
11
3
21
12.9451162778
0
LINE
5
263
100
AcDbEntity
8
dimension
6
ByLayer
62
256
370
-1
100
AcDbLine
10
3
20
12.9951162778
11
4.14
21
12.9951162778
0
SOLID
5
264
100
AcDbEntity
8
dimension
6
ByLayer
62
256
370
-1
100
AcDbTrace
10
3
20
12.9951162778
30
0
11
3.25
21
13.0367447436
31
0
12
3.25
22
12.953487812
32
0
13
3.25
23
12.953487812
33
0
0
SOLID
5
265
100
AcDbEntity
8
dimension
6
ByLayer
62
256
370
-1
100
AcDbTrace
10
4.14
20
12.9951162778
30
0
11
3.89
21
12.953487812
31
0
12
3.89
22
13.0367447436
32
0
13
3.89
23
13.0367447436
33
0
0
MTEXT
5
266
100
AcDbEntity
8
dimension
6
ByLayer
62
256
370
-1
100
AcDbMText
10
3.57
20
13.1451162778
30
0
40
0.25
41
0.5
71
5
72
1
1
1.14
7
standard
210
0
220
0
230
1
50
0
73
2
44
1
0
LINE
5
267
100
AcDbEntity
8
dimension
6
ByLayer
62
256
370
-1
100
AcDbLine
10
3
20
13.475
11
3
21
12.9451162778
0
LINE
5
268
100
AcDbEntity
8
dimension
6
ByLayer
62
256
370
-1
100
AcDbLine
10
4.14
20
13.475
11
4.14
21
12.9451162778
0
LINE
5
269
100
AcDbEntity
8
dimension
6
ByLayer
62
256
370
-1
100
AcDbLine
10
-4.14
20
12.9944125903
11
-3
21
12.9944125903
0
SOLID
5
26A
100
AcDbEntity
8
dimension
6
ByLayer
62
256
370
-1
100
AcDbTrace
10
-4.14
20
12.9944125903
30
0
11
-3.89
21
13.0360410561
31
0
12
-3.89
22
12.9527841245
32
0
13
-3.89
23
12.9527841245
33
0
0
SOLID
5
26B
100
AcDbEntity
8
dimension
6
ByLayer
62
256
370
-1
100
AcDbTrace
10
-3
20
12.9944125903
30
0
11
-3.25
21
12.9527841245
31
0
12
-3.25
22
13.0360410561
32
0
13
-3.25
23
13.0360410561
33
0
0
MTEXT
5
26C
100
AcDbEntity
8
dimension
6
ByLayer
62
256
370
-1
100
AcDbMText
10
-3.57
20
13.1444125903
30
0
40
0.25
41
0.5
71
5
72
1
1
1.14
7
standard
210
0
220
0
230
1
50
0
73
2
44
1
0
LINE
5
26D
100
AcDbEntity
8
dimension
6
ByLayer
62
256
370
-1
100
AcDbLine
10
-4.14
20
13.475
11
-4.14
21
12.9444125903
0
LINE
5
26E
100
AcDbEntity
8
dimension
6
ByLayer
62
256
370
-1
100
AcDbLine
10
-3
20
13.475
11
-3
21
12.9444125903
0
LINE
5
26F
100
AcDbEntity
8
dimension
6
ByLayer
62
256
370
-1
100
AcDbLine
10
5.1194106081
20
15
11
5.1194106081
21
13.5
0
SOLID
5
270
100
AcDbEntity
8
dimension
6
ByLayer
62
256
370
-1
100
AcDbTrace
10
5.1194106081
20
15
30
0
11
5.16103907388
21
14.75
31
0
12
5.07778214232
22
14.75
32
0
13
5.07778214232
23
14.75
33
0
0
SOLID
5
271
100
AcDbEntity
8
dimension
6
ByLayer
62
256
370
-1
100
AcDbTrace
10
5.1194106081
20
13.5
30
0
11
5.07778214232
21
13.75
31
0
12
5.16103907388
22
13.75
32
0
13
5.16103907388
23
13.75
33
0
0
MTEXT
5
272
100
AcDbEntity
8
dimension
6
ByLayer
62
256
370
-1
100
AcDbMText
10
4.9694106081
20
14.25
30
0
40
0.25
41
0.333333333333
71
5
72
1
1
1.5
7
standard
210
0
220
0
230
1
50
90
73
2
44
1
0
LINE
5
273
100
AcDbEntity
8
dimension
6
ByLayer
62
256
370
-1
100
AcDbLine
10
4.165
20
15
11
5.1694106081
21
15
0
LINE
5
274
100
AcDbEntity
8
dimension
6
ByLayer
62
256
370
-1
100
AcDbLine
10
4.165
20
13.5
11
5.1694106081
21
13.5
0
LINE
5
275
100
AcDbEntity
8
dimension
6
ByLayer
62
256
370
-1
100
AcDbLine
10
5.1188058767
20
15
11
5.1188058767
21
16.5
0
SOLID
5
276
100
AcDbEntity
8
dimension
6
ByLayer
62
256
370
-1
100
AcDbTrace
10
5.1188058767
20
15
30
0
11
5.07717741092
21
15.25
31
0
12
5.16043434248
22
15.25
32
0
13
5.16043434248
23
15.25
33
0
0
SOLID
5
277
100
AcDbEntity
8
dimension
6
ByLayer
62
256
370
-1
100
AcDbTrace
10
5.1188058767
20
16.5
30
0
11
5.16043434248
21
16.25
31
0
12
5.07717741092
22
16.25
32
0
13
5.07717741092
23
16.25
33
0
0
MTEXT
5
278
100
AcDbEntity
8
dimension
6
ByLayer
62
256
370
-1
100
AcDbMText
10
4.9688058767
20
15.75
30
0
40
0.25
41
0.333333333333
71
5
72
1
1
1.5
7
standard
210
0
220
0
230
1
50
90
73
2
44
1
0
LINE
5
279
100
AcDbEntity
8
dimension
6
ByLayer
62
256
370
-1
100
AcDbLine
10
4.165
20
15
11
5.1688058767
21
15
0
LINE
5
27A
100
AcDbEntity
8
dimension
6
ByLayer
62
256
370
-1
100
AcDbLine
10
4.3375
20
16.5
11
5.1688058767
21
16.5
0
LINE
5
27B
100
AcDbEntity
8
dimension
6
ByLayer
62
256
370
-1
100
AcDbLine
10
6.005891858
20
16.5
11
6.005891858
21
12
0
SOLID
5
27C
100
AcDbEntity
8
dimension
6
ByLayer
62
256
370
-1
100
AcDbTrace
10
6.005891858
20
16.5
30
0
11
6.04752032378
21
16.25
31
0
12
5.96426339222
22
16.25
32
0
13
5.96426339222
23
16.25
33
0
0
SOLID
5
27D
100
AcDbEntity
8
dimension
6
ByLayer
62
256
370
-1
100
AcDbTrace
10
6.005891858
20
12
30
0
11
5.96426339222
21
12.25
31
0
12
6.04752032378
22
12.25
32
0
13
6.04752032378
23
12.25
33
0
0
MTEXT
5
27E
100
AcDbEntity
8
dimension
6
ByLayer
62
256
370
-1
100
AcDbMText
10
5.855891858
20
14.25
30
0
40
0.25
41
0.416666666667
71
5
72
1
1
4.5
7
standard
210
0
220
0
230
1
50
90
73
2
44
1
0
LINE
5
27F
100
AcDbEntity
8
dimension
6
ByLayer
62
256
370
-1
100
AcDbLine
10
4.3375
20
16.5
11
6.055891858
21
16.5
0
LINE
5
280
100
AcDbEntity
8
dimension
6
ByLayer
62
256
370
-1
100
AcDbLine
10
4.3375
20
12
11
6.055891858
21
12
0
LINE
5
281
100
AcDbEntity
8
dimension
6
ByLayer
62
256
370
-1
100
AcDbLine
10
-4.50200127034
20
15.4791193278
11
-3.77799872966
21
14.5208806722
0
SOLID
5
282
100
AcDbEntity
8
dimension
6
ByLayer
62
256
370
-1
100
AcDbTrace
10
-4.2005847255
20
15.080185666
30
0
11
-4.38450699049
21
15.2545574802
31
0
12
-4.31807900535
22
15.3047475135
32
0
13
-4.31807900535
23
15.3047475135
33
0
0
SOLID
5
283
100
AcDbEntity
8
dimension
6
ByLayer
62
256
370
-1
100
AcDbTrace
10
-4.0794152745
20
14.919814334
30
0
11
-3.89549300951
21
14.7454425198
31
0
12
-3.96192099465
22
14.6952524865
32
0
13
-3.96192099465
23
14.6952524865
33
0
0
MTEXT
5
284
100
AcDbEntity
8
dimension
6
ByLayer
62
256
370
-1
100
AcDbMText
10
-3.72697462183
20
14.7021738586
30
0
40
0.25
41
0.722222222222
71
5
72
1
1
0.201
7
standard
210
0
220
0
230
1
50
307.073073353
73
2
44
1
0
LINE
5
285
100
AcDbEntity
8
dimension
6
ByLayer
62
256
370
-1
100
AcDbLine
10
-1.922774851
20
15.4650523361
11
-1.077225149
21
14.5349476639
0
SOLID
5
286
100
AcDbEntity
8
dimension
6
ByLayer
62
256
370
-1
100
AcDbTrace
10
-1.586438454
20
15.0950822994
30
0
11
-1.78540922252
21
15.2520649814
31
0
12
-1.72380408248
22
15.3080696541
32
0
13
-1.72380408248
23
15.3080696541
33
0
0
SOLID
5
287
100
AcDbEntity
8
dimension
6
ByLayer
62
256
370
-1
100
AcDbTrace
10
-1.413561546
20
14.9049177006
30
0
11
-1.21459077748
21
14.7479350186
31
0
12
-1.27619591752
22
14.6919303459
32
0
13
-1.27619591752
23
14.6919303459
33
0
0
MTEXT
5
288
100
AcDbEntity
8
dimension
6
ByLayer
62
256
370
-1
100
AcDbMText
10
-1.02415873971
20
14.6995656449
30
0
40
0.25
41
0.777777777778
71
5
72
1
1
0.257
7
standard
210
0
220
0
230
1
50
312.273689006
73
2
44
1
0
LINE
5
289
100
AcDbEntity
8
gantry_viz
6
ByLayer
62
256
370
-1
100
AcDbLine
10
-1
20
19.179869184
11
-0.964526587348
21
19.2037025262
0
LINE
5
28A
100
AcDbEntity
8
gantry_viz
6
ByLayer
62
256
370
-1
100
AcDbLine
10
-0.964526587348
20
19.2037025262
11
-0.928884794177
21
19.2239833129
0
LINE
5
28B
100
AcDbEntity
8
gantry_viz
6
ByLayer
62
256
370
-1
100
AcDbLine
10
-0.928884794177
20
19.2239833129
11
-0.89315699454
21
19.2409656262
0
LINE
5
28C
100
AcDbEntity
8
gantry_viz
6
ByLayer
62
256
370
-1
100
AcDbLine
10
-0.89315699454
20
19.2409656262
11
-0.857425562489
21
19.2549035484
0
LINE
5
28D
100
AcDbEntity
8
gantry_viz
6
ByLayer
62
256
370
-1
100
AcDbLine
10
-0.857425562489
20
19.2549035484
11
-0.821772872079
21
19.2660511616
0
LINE
5
28E
100
AcDbEntity
8
gantry_viz
6
ByLayer
62
256
370
-1
100
AcDbLine
10
-0.821772872079
20
19.2660511616
11
-0.786281297361
21
19.274662548
0
LINE
5
28F
100
AcDbEntity
8
gantry_viz
6
ByLayer
62
256
370
-1
100
AcDbLine
10
-0.786281297361
20
19.274662548
11
-0.751033212388
21
19.2809917898
0
LINE
5
290
100
AcDbEntity
8
gantry_viz
6
ByLayer
62
256
370
-1
100
AcDbLine
10
-0.751033212388
20
19.2809917898
11
-0.716110991214
21
19.2852929692
0
LINE
5
291
100
AcDbEntity
8
gantry_viz
6
ByLayer
62
256
370
-1
100
AcDbLine
10
-0.716110991214
20
19.2852929692
11
-0.681597007892
21
19.2878201684
0
LINE
5
292
100
AcDbEntity
8
gantry_viz
6
ByLayer
62
256
370
-1
100
AcDbLine
10
-0.681597007892
20
19.2878201684
11
-0.647573636475
21
19.2888274696
0
LINE
5
293
100
AcDbEntity
8
gantry_viz
6
ByLayer
62
256
370
-1
100
AcDbLine
10
-0.647573636475
20
19.2888274696
11
-0.614123251015
21
19.2885689549
0
LINE
5
294
100
AcDbEntity
8
gantry_viz
6
ByLayer
62
256
370
-1
100
AcDbLine
10
-0.614123251015
20
19.2885689549
11
-0.58130840177
21
19.2872795366
0
LINE
5
295
100
AcDbEntity
8
gantry_viz
6
ByLayer
62
256
370
-1
100
AcDbLine
10
-0.58130840177
20
19.2872795366
11
-0.548996890036
21
19.2850058
0
LINE
5
296
100
AcDbEntity
8
gantry_viz
6
ByLayer
62
256
370
-1
100
AcDbLine
10
-0.548996890036
20
19.2850058
11
-0.516945979627
21
19.281687438
0
LINE
5
297
100
AcDbEntity
8
gantry_viz
6
ByLayer
62
256
370
-1
100
AcDbLine
10
-0.516945979627
20
19.281687438
11
-0.484911665634
21
19.2772629168
0
LINE
5
298
100
AcDbEntity
8
gantry_viz
6
ByLayer
62
256
370
-1
100
AcDbLine
10
-0.484911665634
20
19.2772629168
11
-0.452649943148
21
19.2716707026
0
LINE
5
299
100
AcDbEntity
8
gantry_viz
6
ByLayer
62
256
370
-1
100
AcDbLine
10
-0.452649943148
20
19.2716707026
11
-0.419916807259
21
19.2648492616
0
LINE
5
29A
100
AcDbEntity
8
gantry_viz
6
ByLayer
62
256
370
-1
100
AcDbLine
10
-0.419916807259
20
19.2648492616
11
-0.38646825306
21
19.2567370598
0
LINE
5
29B
100
AcDbEntity
8
gantry_viz
6
ByLayer
62
256
370
-1
100
AcDbLine
10
-0.38646825306
20
19.2567370598
11
-0.352060275641
21
19.2472725635
0
LINE
5
29C
100
AcDbEntity
8
gantry_viz
6
ByLayer
62
256
370
-1
100
AcDbLine
10
-0.352060275641
20
19.2472725635
11
-0.316448870094
21
19.2363942387
0
LINE
5
29D
100
AcDbEntity
8
gantry_viz
6
ByLayer
62
256
370
-1
100
AcDbLine
10
-0.316448870094
20
19.2363942387
11
-0.279390031509
21
19.2240405516
0
LINE
5
29E
100
AcDbEntity
8
gantry_viz
6
ByLayer
62
256
370
-1
100
AcDbLine
10
-0.279390031509
20
19.2240405516
11
-0.240639754977
21
19.2101499685
0
LINE
5
29F
100
AcDbEntity
8
gantry_viz
6
ByLayer
62
256
370
-1
100
AcDbLine
10
-0.240639754977
20
19.2101499685
11
-0.199957512017
21
19.1946652806
0
LINE
5
2A0
100
AcDbEntity
8
gantry_viz
6
ByLayer
62
256
370
-1
100
AcDbLine
10
-0.199957512017
20
19.1946652806
11
-0.157217624968
21
19.1776721761
0
LINE
5
2A1
100
AcDbEntity
8
gantry_viz
6
ByLayer
62
256
370
-1
100
AcDbLine
10
-0.157217624968
20
19.1776721761
11
-0.112432829437
21
19.1594285553
0
LINE
5
2A2
100
AcDbEntity
8
gantry_viz
6
ByLayer
62
256
370
-1
100
AcDbLine
10
-0.112432829437
20
19.1594285553
11
-0.0656241014513
21
19.1402025715
0
LINE
5
2A3
100
AcDbEntity
8
gantry_viz
6
ByLayer
62
256
370
-1
100
AcDbLine
10
-0.0656241014513
20
19.1402025715
11
-0.0168124170352
21
19.1202623779
0
LINE
5
2A4
100
AcDbEntity
8
gantry_viz
6
ByLayer
62
256
370
-1
100
AcDbLine
10
-0.0168124170352
20
19.1202623779
11
0.0339812477855
21
19.0998761276
0
LINE
5
2A5
100
AcDbEntity
8
gantry_viz
6
ByLayer
62
256
370
-1
100
AcDbLine
10
0.0339812477855
20
19.0998761276
11
0.0867359169854
21
19.0793119739
0
LINE
5
2A6
100
AcDbEntity
8
gantry_viz
6
ByLayer
62
256
370
-1
100
AcDbLine
10
0.0867359169854
20
19.0793119739
11
0.141430614539
21
19.0588380698
0
LINE
5
2A7
100
AcDbEntity
8
gantry_viz
6
ByLayer
62
256
370
-1
100
AcDbLine
10
0.141430614539
20
19.0588380698
11
0.198044364421
21
19.0387225687
0
LINE
5
2A8
100
AcDbEntity
8
gantry_viz
6
ByLayer
62
256
370
-1
100
AcDbLine
10
0.198044364421
20
19.0387225687
11
0.256556190605
21
19.0192336237
0
LINE
5
2A9
100
AcDbEntity
8
gantry_viz
6
ByLayer
62
256
370
-1
100
AcDbLine
10
0.256556190605
20
19.0192336237
11
0.316945117067
21
19.000639388
0
LINE
5
2AA
100
AcDbEntity
8
gantry_viz
6
ByLayer
62
256
370
-1
100
AcDbLine
10
0.316945117067
20
19.000639388
11
0.379189983414
21
18.9832078997
0
LINE
5
2AB
100
AcDbEntity
8
gantry_viz
6
ByLayer
62
256
370
-1
100
AcDbLine
10
0.379189983414
20
18.9832078997
11
0.44317597143
21
18.9671487295
0
LINE
5
2AC
100
AcDbEntity
8
gantry_viz
6
ByLayer
62
256
370
-1
100
AcDbLine
10
0.44317597143
20
18.9671487295
11
0.508542503289
21
18.9525180294
0
LINE
5
2AD
100
AcDbEntity
8
gantry_viz
6
ByLayer
62
256
370
-1
100
AcDbLine
10
0.508542503289
20
18.9525180294
11
0.574889178151
21
18.9393470911
0
LINE
5
2AE
100
AcDbEntity
8
gantry_viz
6
ByLayer
62
256
370
-1
100
AcDbLine
10
0.574889178151
20
18.9393470911
11
0.641815595178
21
18.9276672061
0
LINE
5
2AF
100
AcDbEntity
8
gantry_viz
6
ByLayer
62
256
370
-1
100
AcDbLine
10
0.641815595178
20
18.9276672061
11
0.70892135353
21
18.9175096664
0
LINE
5
2B0
100
AcDbEntity
8
gantry_viz
6
ByLayer
62
256
370
-1
100
AcDbLine
10
0.70892135353
20
18.9175096664
11
0.775806052368
21
18.9089057635
0
LINE
5
2B1
100
AcDbEntity
8
gantry_viz
6
ByLayer
62
256
370
-1
100
AcDbLine
10
0.775806052368
20
18.9089057635
11
0.842069290853
21
18.9018867893
0
LINE
5
2B2
100
AcDbEntity
8
gantry_viz
6
ByLayer
62
256
370
-1
100
AcDbLine
10
0.842069290853
20
18.9018867893
11
0.907310668147
21
18.8964840354
0
LINE
5
2B3
100
AcDbEntity
8
gantry_viz
6
ByLayer
62
256
370
-1
100
AcDbLine
10
0.907310668147
20
18.8964840354
11
0.97112978341
21
18.8927287936
0
LINE
5
2B4
100
AcDbEntity
8
gantry_viz
6
ByLayer
62
256
370
-1
100
AcDbLine
10
0.97112978341
20
18.8927287936
11
1.0331262358
21
18.8906523555
0
LINE
5
2B5
100
AcDbEntity
8
gantry_viz
6
ByLayer
62
256
370
-1
100
AcDbLine
10
1.0331262358
20
18.8906523555
11
1.09289962449
21
18.8902860129
0
LINE
5
2B6
100
AcDbEntity
8
gantry_viz
6
ByLayer
62
256
370
-1
100
AcDbLine
10
1.09289962449
20
18.8902860129
11
1.15010211655
21
18.8916461611
0
LINE
5
2B7
100
AcDbEntity
8
gantry_viz
6
ByLayer
62
256
370
-1
100
AcDbLine
10
1.15010211655
20
18.8916461611
11
1.20471029128
21
18.894657266
0
LINE
5
2B8
100
AcDbEntity
8
gantry_viz
6
ByLayer
62
256
370
-1
100
AcDbLine
10
1.20471029128
20
18.894657266
11
1.25682435997
21
18.8992087594
0
LINE
5
2B9
100
AcDbEntity
8
gantry_viz
6
ByLayer
62
256
370
-1
100
AcDbLine
10
1.25682435997
20
18.8992087594
11
1.30654477725
21
18.9051900039
0
LINE
5
2BA
100
AcDbEntity
8
gantry_viz
6
ByLayer
62
256
370
-1
100
AcDbLine
10
1.30654477725
20
18.9051900039
11
1.35397199776
21
18.9124903625
0
LINE
5
2BB
100
AcDbEntity
8
gantry_viz
6
ByLayer
62
256
370
-1
100
AcDbLine
10
1.35397199776
20
18.9124903625
11
1.39920647614
21
18.9209991979
0
LINE
5
2BC
100
AcDbEntity
8
gantry_viz
6
ByLayer
62
256
370
-1
100
AcDbLine
10
1.39920647614
20
18.9209991979
11
1.44234866704
21
18.9306058731
0
LINE
5
2BD
100
AcDbEntity
8
gantry_viz
6
ByLayer
62
256
370
-1
100
AcDbLine
10
1.44234866704
20
18.9306058731
11
1.48349902508
21
18.9411997508
0
LINE
5
2BE
100
AcDbEntity
8
gantry_viz
6
ByLayer
62
256
370
-1
100
AcDbLine
10
1.48349902508
20
18.9411997508
11
1.52275800492
21
18.9526701938
0
LINE
5
2BF
100
AcDbEntity
8
gantry_viz
6
ByLayer
62
256
370
-1
100
AcDbLine
10
1.52275800492
20
18.9526701938
11
1.56022606119
21
18.964906565
0
LINE
5
2C0
100
AcDbEntity
8
gantry_viz
6
ByLayer
62
256
370
-1
100
AcDbLine
10
1.56022606119
20
18.964906565
11
1.59600364853
21
18.9777982272
0
LINE
5
2C1
100
AcDbEntity
8
gantry_viz
6
ByLayer
62
256
370
-1
100
AcDbLine
10
1.59600364853
20
18.9777982272
11
1.63019643187
21
18.9912365376
0
LINE
5
2C2
100
AcDbEntity
8
gantry_viz
6
ByLayer
62
256
370
-1
100
AcDbLine
10
1.63019643187
20
18.9912365376
11
1.66299759251
21
19.0051463519
0
LINE
5
2C3
100
AcDbEntity
8
gantry_viz
6
ByLayer
62
256
370
-1
100
AcDbLine
10
1.66299759251
20
19.0051463519
11
1.69467293004
21
19.019480322
0
LINE
5
2C4
100
AcDbEntity
8
gantry_viz
6
ByLayer
62
256
370
-1
100
AcDbLine
10
1.69467293004
20
19.019480322
11
1.72549044213
21
19.0341919411
0
LINE
5
2C5
100
AcDbEntity
8
gantry_viz
6
ByLayer
62
256
370
-1
100
AcDbLine
10
1.72549044213
20
19.0341919411
11
1.75571812642
21
19.0492347024
0
LINE
5
2C6
100
AcDbEntity
8
gantry_viz
6
ByLayer
62
256
370
-1
100
AcDbLine
10
1.75571812642
20
19.0492347024
11
1.78562398059
21
19.0645620993
0
LINE
5
2C7
100
AcDbEntity
8
gantry_viz
6
ByLayer
62
256
370
-1
100
AcDbLine
10
1.78562398059
20
19.0645620993
11
1.8154760023
21
19.0801276248
0
LINE
5
2C8
100
AcDbEntity
8
gantry_viz
6
ByLayer
62
256
370
-1
100
AcDbLine
10
1.8154760023
20
19.0801276248
11
1.84554218922
21
19.0958847722
0
LINE
5
2C9
100
AcDbEntity
8
gantry_viz
6
ByLayer
62
256
370
-1
100
AcDbLine
10
1.84554218922
20
19.0958847722
11
1.87609053899
21
19.1117870348
0
LINE
5
2CA
100
AcDbEntity
8
gantry_viz
6
ByLayer
62
256
370
-1
100
AcDbLine
10
1.87609053899
20
19.1117870348
11
1.9073890493
21
19.1277879057
0
LINE
5
2CB
100
AcDbEntity
8
gantry_viz
6
ByLayer
62
256
370
-1
100
AcDbLine
10
1.9073890493
20
19.1277879057
11
1.9397057178
21
19.1438408782
0
LINE
5
2CC
100
AcDbEntity
8
gantry_viz
6
ByLayer
62
256
370
-1
100
AcDbLine
10
1.9397057178
20
19.1438408782
11
1.97330441309
21
19.1598986653
0
LINE
5
2CD
100
AcDbEntity
8
gantry_viz
6
ByLayer
62
256
370
-1
100
AcDbLine
10
1.97330441309
20
19.1598986653
11
2.00808925976
21
19.1758460026
0
LINE
5
2CE
100
AcDbEntity
8
gantry_viz
6
ByLayer
62
256
370
-1
100
AcDbLine
10
2.00808925976
20
19.1758460026
11
2.04333057221
21
19.191447861
0
LINE
5
2CF
100
AcDbEntity
8
gantry_viz
6
ByLayer
62
256
370
-1
100
AcDbLine
10
2.04333057221
20
19.191447861
11
2.07823414836
21
19.2064570203
0
LINE
5
2D0
100
AcDbEntity
8
gantry_viz
6
ByLayer
62
256
370
-1
100
AcDbLine
10
2.07823414836
20
19.2064570203
11
2.11200578611
21
19.2206262601
0
LINE
5
2D1
100
AcDbEntity
8
gantry_viz
6
ByLayer
62
256
370
-1
100
AcDbLine
10
2.11200578611
20
19.2206262601
11
2.14385128339
21
19.2337083604
0
LINE
5
2D2
100
AcDbEntity
8
gantry_viz
6
ByLayer
62
256
370
-1
100
AcDbLine
10
2.14385128339
20
19.2337083604
11
2.17297643809
21
19.2454561007
0
LINE
5
2D3
100
AcDbEntity
8
gantry_viz
6
ByLayer
62
256
370
-1
100
AcDbLine
10
2.17297643809
20
19.2454561007
11
2.19858704814
21
19.2556222609
0
LINE
5
2D4
100
AcDbEntity
8
gantry_viz
6
ByLayer
62
256
370
-1
100
AcDbLine
10
2.19858704814
20
19.2556222609
11
2.21988891145
21
19.2639596207
0
LINE
5
2D5
100
AcDbEntity
8
gantry_viz
6
ByLayer
62
256
370
-1
100
AcDbLine
10
2.21988891145
20
19.2639596207
11
2.23608782592
21
19.2702209599
0
LINE
5
2D6
100
AcDbEntity
8
gantry_viz
6
ByLayer
62
256
370
-1
100
AcDbLine
10
2.23608782592
20
19.2702209599
11
2.24638958946
21
19.2741590583
0
LINE
5
2D7
100
AcDbEntity
8
gantry_viz
6
ByLayer
62
256
370
-1
100
AcDbLine
10
2.24638958946
20
19.2741590583
11
2.25
21
19.2755266956
0
ENDSEC
0
SECTION
2
OBJECTS
0
DICTIONARY
5
C
330
0
100
AcDbDictionary
281
1
3
ACAD_GROUP
350
D
0
DICTIONARY
5
D
330
C
100
AcDbDictionary
281
1
0
ENDSEC
0
EOF
