999
dxfrw 0.5.11
0
SECTION
2
HEADER
9
$ACADVER
1
AC1021
9
$HANDSEED
5
20000
9
$DWGCODEPAGE
3
ANSI_1252
9
$INSBASE
10
0
20
0
30
0
9
$EXTMIN
10
-4.75
20
-6.16651386311
30
0
9
$EXTMAX
10
22.1665138631
20
39
30
0
9
$LIMMIN
10
0
20
0
9
$LIMMAX
10
420
20
297
9
$ORTHOMODE
70
0
9
$LTSCALE
40
1
9
$TEXTSTYLE
7
STANDARD
9
$CLAYER
8
scratch
9
$DIMASZ
40
1
9
$DIMLFAC
40
1
9
$DIMSCALE
40
1
9
$DIMEXO
40
0.025
9
$DIMEXE
40
0.05
9
$DIMTXT
40
1
9
$DIMTSZ
40
0
9
$DIMAUNIT
70
0
9
$DIMADEC
70
2
9
$DIMLUNIT
70
2
9
$DIMSTYLE
2
STANDARD
9
$DIMGAP
40
0.025
9
$DIMTIH
70
0
9
$LUNITS
70
2
9
$LUPREC
70
4
9
$AUNITS
70
0
9
$AUPREC
70
2
9
$SPLINESEGS
70
8
9
$GRIDMODE
70
1
9
$SNAPSTYLE
70
0
9
$GRIDUNIT
10
0
20
0
9
$PINSBASE
10
0
20
0
30
0
9
$PLIMMIN
10
0
20
0
9
$PLIMMAX
10
3.0788102e-08
20
4.354322e-08
9
$INSUNITS
70
1
9
$PSVPSCALE
40
1
0
ENDSEC
0
SECTION
2
CLASSES
0
ENDSEC
0
SECTION
2
TABLES
0
TABLE
2
VPORT
5
8
330
0
100
AcDbSymbolTable
70
1
0
VPORT
5
31
330
2
100
AcDbSymbolTableRecord
100
AcDbViewportTableRecord
2
*ACTIVE
70
0
10
0
20
0
11
1
21
1
12
6.40385275595
22
5.91060561156
13
0
23
0
14
10
24
10
15
10
25
10
16
0
26
0
36
1
17
0
27
0
37
0
40
11.6874492857
41
1.31330472103
42
50
43
0
44
0
50
0
51
0
71
0
72
100
73
1
74
3
75
0
76
1
77
0
78
0
281
0
65
1
110
0
120
0
130
0
111
1
121
0
131
0
112
0
122
1
132
0
79
0
146
0
348
10020
60
7
61
5
292
1
282
1
141
0
142
0
63
250
421
3358443
0
ENDTAB
0
TABLE
2
LTYPE
5
5
330
0
100
AcDbSymbolTable
70
4
0
LTYPE
5
14
330
5
100
AcDbSymbolTableRecord
100
AcDbLinetypeTableRecord
2
ByBlock
70
0
3

72
65
73
0
40
0
0
LTYPE
5
15
330
5
100
AcDbSymbolTableRecord
100
AcDbLinetypeTableRecord
2
ByLayer
70
0
3

72
65
73
0
40
0
0
LTYPE
5
16
330
5
100
AcDbSymbolTableRecord
100
AcDbLinetypeTableRecord
2
Continuous
70
0
3
Solid line
72
65
73
0
40
0
0
LTYPE
5
32
330
5
100
AcDbSymbolTableRecord
100
AcDbLinetypeTableRecord
2
DOT
70
0
3
Dot . . . . . . . . . . . . . . . . . . . . . .
72
65
73
2
40
6.35
49
0
74
0
49
-6.35
74
0
0
LTYPE
5
33
330
5
100
AcDbSymbolTableRecord
100
AcDbLinetypeTableRecord
2
DOT2
70
0
3
Dot (.5x) .....................................
72
65
73
2
40
3.175
49
0
74
0
49
-3.175
74
0
0
LTYPE
5
34
330
5
100
AcDbSymbolTableRecord
100
AcDbLinetypeTableRecord
2
DOTX2
70
0
3
Dot (2x) .  .  .  .  .  .  .  .  .  .  .  .  .
72
65
73
2
40
12.7
49
0
74
0
49
-12.7
74
0
0
LTYPE
5
35
330
5
100
AcDbSymbolTableRecord
100
AcDbLinetypeTableRecord
2
DASHED
70
0
3
Dot . . . . . . . . . . . . . . . . . . . . . .
72
65
73
2
40
19.05
49
12.7
74
0
49
-6.35
74
0
0
LTYPE
5
36
330
5
100
AcDbSymbolTableRecord
100
AcDbLinetypeTableRecord
2
DASHED2
70
0
3
Dashed (.5x) _ _ _ _ _ _ _ _ _ _ _ _ _ _ _ _ _
72
65
73
2
40
9.525
49
6.35
74
0
49
-3.175
74
0
0
LTYPE
5
37
330
5
100
AcDbSymbolTableRecord
100
AcDbLinetypeTableRecord
2
DASHEDX2
70
0
3
Dashed (2x) ____  ____  ____  ____  ____  ___
72
65
73
2
40
38.1
49
25.4
74
0
49
-12.7
74
0
0
LTYPE
5
38
330
5
100
AcDbSymbolTableRecord
100
AcDbLinetypeTableRecord
2
DASHDOT
70
0
3
Dash dot __ . __ . __ . __ . __ . __ . __ . __
72
65
73
4
40
25.4
49
12.7
74
0
49
-6.35
74
0
49
0
74
0
49
-6.35
74
0
0
LTYPE
5
39
330
5
100
AcDbSymbolTableRecord
100
AcDbLinetypeTableRecord
2
DASHDOT2
70
0
3
Dash dot (.5x) _._._._._._._._._._._._._._._.
72
65
73
4
40
12.7
49
6.35
74
0
49
-3.175
74
0
49
0
74
0
49
-3.175
74
0
0
LTYPE
5
3A
330
5
100
AcDbSymbolTableRecord
100
AcDbLinetypeTableRecord
2
DASHDOTX2
70
0
3
Dash dot (2x) ____  .  ____  .  ____  .  ___
72
65
73
4
40
50.8
49
25.4
74
0
49
-12.7
74
0
49
0
74
0
49
-12.7
74
0
0
LTYPE
5
3B
330
5
100
AcDbSymbolTableRecord
100
AcDbLinetypeTableRecord
2
DIVIDE
70
0
3
Divide ____ . . ____ . . ____ . . ____ . . ____
72
65
73
6
40
31.75
49
12.7
74
0
49
-6.35
74
0
49
0
74
0
49
-6.35
74
0
49
0
74
0
49
-6.35
74
0
0
LTYPE
5
3C
330
5
100
AcDbSymbolTableRecord
100
AcDbLinetypeTableRecord
2
DIVIDE2
70
0
3
Divide (.5x) __..__..__..__..__..__..__..__.._
72
65
73
6
40
15.875
49
6.35
74
0
49
-3.175
74
0
49
0
74
0
49
-3.175
74
0
49
0
74
0
49
-3.175
74
0
0
LTYPE
5
3D
330
5
100
AcDbSymbolTableRecord
100
AcDbLinetypeTableRecord
2
DIVIDEX2
70
0
3
Divide (2x) ________  .  .  ________  .  .  _
72
65
73
6
40
63.5
49
25.4
74
0
49
-12.7
74
0
49
0
74
0
49
-12.7
74
0
49
0
74
0
49
-12.7
74
0
0
LTYPE
5
3E
330
5
100
AcDbSymbolTableRecord
100
AcDbLinetypeTableRecord
2
BORDER
70
0
3
Border __ __ . __ __ . __ __ . __ __ . __ __ .
72
65
73
6
40
44.45
49
12.7
74
0
49
-6.35
74
0
49
12.7
74
0
49
-6.35
74
0
49
0
74
0
49
-6.35
74
0
0
LTYPE
5
3F
330
5
100
AcDbSymbolTableRecord
100
AcDbLinetypeTableRecord
2
BORDER2
70
0
3
Border (.5x) __.__.__.__.__.__.__.__.__.__.__.
72
65
73
6
40
22.225
49
6.35
74
0
49
-3.175
74
0
49
6.35
74
0
49
-3.175
74
0
49
0
74
0
49
-3.175
74
0
0
LTYPE
5
40
330
5
100
AcDbSymbolTableRecord
100
AcDbLinetypeTableRecord
2
BORDERX2
70
0
3
Border (2x) ____  ____  .  ____  ____  .  ___
72
65
73
6
40
88.9
49
25.4
74
0
49
-12.7
74
0
49
25.4
74
0
49
-12.7
74
0
49
0
74
0
49
-12.7
74
0
0
LTYPE
5
41
330
5
100
AcDbSymbolTableRecord
100
AcDbLinetypeTableRecord
2
CENTER
70
0
3
Center ____ _ ____ _ ____ _ ____ _ ____ _ ____
72
65
73
4
40
50.8
49
31.75
74
0
49
-6.35
74
0
49
6.35
74
0
49
-6.35
74
0
0
LTYPE
5
42
330
5
100
AcDbSymbolTableRecord
100
AcDbLinetypeTableRecord
2
CENTER2
70
0
3
Center (.5x) ___ _ ___ _ ___ _ ___ _ ___ _ ___
72
65
73
4
40
28.575
49
19.05
74
0
49
-3.175
74
0
49
3.175
74
0
49
-3.175
74
0
0
LTYPE
5
43
330
5
100
AcDbSymbolTableRecord
100
AcDbLinetypeTableRecord
2
CENTERX2
70
0
3
Center (2x) ________  __  ________  __  _____
72
65
73
4
40
101.6
49
63.5
74
0
49
-12.7
74
0
49
12.7
74
0
49
-12.7
74
0
0
ENDTAB
0
TABLE
2
LAYER
5
2
330
0
100
AcDbSymbolTable
70
1
0
LAYER
5
10
330
2
100
AcDbSymbolTableRecord
100
AcDbLayerTableRecord
2
0
70
0
62
7
6
CONTINUOUS
370
0
390
F
0
LAYER
5
44
330
2
100
AcDbSymbolTableRecord
100
AcDbLayerTableRecord
2
1/4_through_hole
70
0
62
255
420
12648447
6
CONTINUOUS
370
0
390
F
0
LAYER
5
45
330
2
100
AcDbSymbolTableRecord
100
AcDbLayerTableRecord
2
10-32_insert_hole
70
0
62
6
6
CONTINUOUS
370
0
390
F
0
LAYER
5
46
330
2
100
AcDbSymbolTableRecord
100
AcDbLayerTableRecord
2
10-32_through_hole
70
0
62
9
420
16761024
6
CONTINUOUS
370
0
390
F
0
LAYER
5
47
330
2
100
AcDbSymbolTableRecord
100
AcDbLayerTableRecord
2
15/16_through_hole
70
0
62
7
6
CONTINUOUS
370
0
390
F
0
LAYER
5
48
330
2
100
AcDbSymbolTableRecord
100
AcDbLayerTableRecord
2
15/16_washers
70
0
62
253
420
10526884
6
CONTINUOUS
370
0
390
F
0
LAYER
5
49
330
2
100
AcDbSymbolTableRecord
100
AcDbLayerTableRecord
2
4-40_insert_hole
70
0
62
2
6
CONTINUOUS
370
0
390
F
0
LAYER
5
4A
330
2
100
AcDbSymbolTableRecord
100
AcDbLayerTableRecord
2
6-32_insert_hole
70
0
62
3
6
CONTINUOUS
370
0
390
F
0
LAYER
5
4B
330
2
100
AcDbSymbolTableRecord
100
AcDbLayerTableRecord
2
M4_clearance_hole
70
0
62
4
6
CONTINUOUS
370
0
390
F
0
LAYER
5
4C
330
2
100
AcDbSymbolTableRecord
100
AcDbLayerTableRecord
2
M4_through_hole
70
0
62
2
6
CONTINUOUS
370
0
390
F
0
LAYER
5
4D
330
2
100
AcDbSymbolTableRecord
100
AcDbLayerTableRecord
2
boundary
70
0
62
5
6
CONTINUOUS
370
0
390
F
0
LAYER
5
4E
330
2
100
AcDbSymbolTableRecord
100
AcDbLayerTableRecord
2
bulkhead_connector_plate
70
0
62
96
420
32768
6
CONTINUOUS
370
0
390
F
0
LAYER
5
4F
330
2
100
AcDbSymbolTableRecord
100
AcDbLayerTableRecord
2
cable_tie_holder
70
0
62
32
420
12605440
6
CONTINUOUS
370
0
390
F
0
LAYER
5
50
330
2
100
AcDbSymbolTableRecord
100
AcDbLayerTableRecord
2
dimension
70
0
62
7
6
CONTINUOUS
370
0
390
F
0
LAYER
5
51
330
2
100
AcDbSymbolTableRecord
100
AcDbLayerTableRecord
2
finned_heat_sink
70
0
62
216
420
8388736
6
CONTINUOUS
370
0
390
F
0
LAYER
5
52
330
2
100
AcDbSymbolTableRecord
100
AcDbLayerTableRecord
2
motion_controller_pcb
70
0
62
56
420
8421376
6
CONTINUOUS
370
0
390
F
0
LAYER
5
53
330
2
100
AcDbSymbolTableRecord
100
AcDbLayerTableRecord
2
power_supply_plate
70
0
62
136
420
32896
6
CONTINUOUS
370
0
390
F
0
LAYER
5
54
330
2
100
AcDbSymbolTableRecord
100
AcDbLayerTableRecord
2
scratch
70
0
62
7
6
CONTINUOUS
370
0
390
F
0
LAYER
5
55
330
2
100
AcDbSymbolTableRecord
100
AcDbLayerTableRecord
2
support_beams
70
0
62
8
6
CONTINUOUS
370
0
390
F
0
ENDTAB
0
TABLE
2
STYLE
5
3
330
0
100
AcDbSymbolTable
70
3
0
STYLE
5
56
330
2
100
AcDbSymbolTableRecord
100
AcDbTextStyleTableRecord
2
iso
70
0
40
0
41
1
50
0
71
0
42
1
3
iso
4

0
STYLE
5
57
330
2
100
AcDbSymbolTableRecord
100
AcDbTextStyleTableRecord
2
Standard
70
0
40
0
41
1
50
0
71
0
42
1
3
txt
4

0
ENDTAB
0
TABLE
2
VIEW
5
6
330
0
100
AcDbSymbolTable
70
0
0
ENDTAB
0
TABLE
2
UCS
5
7
330
0
100
AcDbSymbolTable
70
0
0
ENDTAB
0
TABLE
2
APPID
5
9
330
0
100
AcDbSymbolTable
70
1
0
APPID
5
12
330
9
100
AcDbSymbolTableRecord
100
AcDbRegAppTableRecord
2
ACAD
70
0
0
ENDTAB
0
TABLE
2
DIMSTYLE
5
A
330
0
100
AcDbSymbolTable
70
1
100
AcDbDimStyleTable
71
1
0
DIMSTYLE
105
58
330
A
100
AcDbSymbolTableRecord
100
AcDbDimStyleTableRecord
2
Standard
70
0
40
1
41
1
42
0.025
43
0.38
44
0.05
45
0
46
0
47
0
48
0
140
1
141
0.09
142
0
143
25.4
144
1
145
0
146
1
147
0.025
148
0
71
0
72
0
73
0
74
1
75
0
76
0
77
0
78
0
79
0
170
0
171
2
172
0
173
0
174
0
175
0
176
0
177
0
178
0
179
0
271
4
272
4
273
2
274
2
275
0
276
0
277
2
278
46
279
0
280
0
281
0
282
0
283
1
284
0
285
0
286
0
288
0
289
3
340
Standard
341

371
-2
372
-2
0
ENDTAB
0
TABLE
2
BLOCK_RECORD
5
1
330
0
100
AcDbSymbolTable
70
2
0
BLOCK_RECORD
5
1F
330
1
100
AcDbSymbolTableRecord
100
AcDbBlockTableRecord
2
*Model_Space
70
0
280
1
281
0
0
BLOCK_RECORD
5
1E
330
1
100
AcDbSymbolTableRecord
100
AcDbBlockTableRecord
2
*Paper_Space
70
0
280
1
281
0
0
BLOCK_RECORD
5
59
330
1
100
AcDbSymbolTableRecord
100
AcDbBlockTableRecord
2
*D1
70
0
280
1
281
0
0
BLOCK_RECORD
5
5C
330
1
100
AcDbSymbolTableRecord
100
AcDbBlockTableRecord
2
*D2
70
0
280
1
281
0
0
BLOCK_RECORD
5
5F
330
1
100
AcDbSymbolTableRecord
100
AcDbBlockTableRecord
2
*D3
70
0
280
1
281
0
0
BLOCK_RECORD
5
62
330
1
100
AcDbSymbolTableRecord
100
AcDbBlockTableRecord
2
cable_tie_holder-0-0
70
0
280
1
281
0
0
BLOCK_RECORD
5
65
330
1
100
AcDbSymbolTableRecord
100
AcDbBlockTableRecord
2
temp-0
70
0
280
1
281
0
0
BLOCK_RECORD
5
68
330
1
100
AcDbSymbolTableRecord
100
AcDbBlockTableRecord
2
power_supply_plate-0
70
0
280
1
281
0
0
ENDTAB
0
ENDSEC
0
SECTION
2
BLOCKS
0
BLOCK
5
20
330
1F
100
AcDbEntity
8
0
100
AcDbBlockBegin
2
*Model_Space
70
0
10
0
20
0
30
0
3
*Model_Space
1

0
ENDBLK
5
21
330
1F
100
AcDbEntity
8
0
100
AcDbBlockEnd
0
BLOCK
5
1C
330
1B
100
AcDbEntity
8
0
100
AcDbBlockBegin
2
*Paper_Space
70
0
10
0
20
0
30
0
3
*Paper_Space
1

0
ENDBLK
5
1D
330
1F
100
AcDbEntity
8
0
100
AcDbBlockEnd
0
BLOCK
5
5A
330
59
100
AcDbEntity
8
0
100
AcDbBlockBegin
2
*D1
70
1
10
0
20
0
3
*D1
1

0
LINE
5
6B
100
AcDbEntity
8
0
6
CONTINUOUS
62
7
370
0
100
AcDbLine
10
22
20
36
11
22
21
-3.26183524635e-16
0
SOLID
5
6C
100
AcDbEntity
8
0
6
CONTINUOUS
62
7
370
0
100
AcDbTrace
10
22
20
36
30
0
11
22.1665138631
21
35
31
0
12
21.8334861369
22
35
32
0
13
21.8334861369
23
35
33
0
0
SOLID
5
6D
100
AcDbEntity
8
0
6
CONTINUOUS
62
7
370
0
100
AcDbTrace
10
22
20
-3.26183524635e-16
30
0
11
21.8334861369
21
1
31
0
12
22.1665138631
22
1
32
0
13
22.1665138631
23
1
33
0
0
MTEXT
5
6E
100
AcDbEntity
8
0
6
CONTINUOUS
62
7
370
0
100
AcDbMText
10
21.475
20
18
30
0
40
1
41
1.22222222222
71
5
72
1
1
36
7
standard
210
0
220
0
230
1
50
90
73
2
44
1
0
LINE
5
6F
100
AcDbEntity
8
0
6
CONTINUOUS
62
7
370
0
100
AcDbLine
10
17.825
20
36
11
22.05
21
36
0
LINE
5
70
100
AcDbEntity
8
0
6
CONTINUOUS
62
7
370
0
100
AcDbLine
10
17.825
20
-2.77555756156e-17
11
22.05
21
-3.26183524635e-16
0
ENDBLK
5
5B
330
59
100
AcDbEntity
8
0
100
AcDbBlockEnd
0
BLOCK
5
5D
330
5C
100
AcDbEntity
8
0
100
AcDbBlockBegin
2
*D2
70
1
10
0
20
0
3
*D2
1

0
LINE
5
71
100
AcDbEntity
8
0
6
CONTINUOUS
62
7
370
0
100
AcDbLine
10
18
20
-6
11
4.93038065763e-32
21
-6
0
SOLID
5
72
100
AcDbEntity
8
0
6
CONTINUOUS
62
7
370
0
100
AcDbTrace
10
18
20
-6
30
0
11
17
21
-6.16651386311
31
0
12
17
22
-5.83348613689
32
0
13
17
23
-5.83348613689
33
0
0
SOLID
5
73
100
AcDbEntity
8
0
6
CONTINUOUS
62
7
370
0
100
AcDbTrace
10
4.93038065763e-32
20
-6
30
0
11
1
21
-5.83348613689
31
0
12
1
22
-6.16651386311
32
0
13
1
23
-6.16651386311
33
0
0
MTEXT
5
74
100
AcDbEntity
8
0
6
CONTINUOUS
62
7
370
0
100
AcDbMText
10
9
20
-5.475
30
0
40
1
41
1
71
5
72
1
1
18
7
standard
210
0
220
0
230
1
50
360
73
2
44
1
0
LINE
5
75
100
AcDbEntity
8
0
6
CONTINUOUS
62
7
370
0
100
AcDbLine
10
18
20
0.225
11
18
21
-6.05
0
LINE
5
76
100
AcDbEntity
8
0
6
CONTINUOUS
62
7
370
0
100
AcDbLine
10
-4.59227382683e-18
20
0.225
11
-9.18454765367e-18
21
-6.05
0
ENDBLK
5
5E
330
5C
100
AcDbEntity
8
0
100
AcDbBlockEnd
0
BLOCK
5
60
330
5F
100
AcDbEntity
8
0
100
AcDbBlockBegin
2
*D3
70
1
10
0
20
0
3
*D3
1

0
LINE
5
77
100
AcDbEntity
8
scratch
6
CONTINUOUS
62
7
370
0
100
AcDbLine
10
-1
20
8.5
11
-1
21
3.5
0
SOLID
5
78
100
AcDbEntity
8
scratch
6
CONTINUOUS
62
7
370
0
100
AcDbTrace
10
-1
20
6.5
30
0
11
-1.16651386311
21
7.5
31
0
12
-0.833486136891
22
7.5
32
0
13
-0.833486136891
23
7.5
33
0
0
SOLID
5
79
100
AcDbEntity
8
scratch
6
CONTINUOUS
62
7
370
0
100
AcDbTrace
10
-1
20
5.5
30
0
11
-0.833486136891
21
4.5
31
0
12
-1.16651386311
22
4.5
32
0
13
-1.16651386311
23
4.5
33
0
0
MTEXT
5
7A
100
AcDbEntity
8
scratch
6
CONTINUOUS
62
7
370
0
100
AcDbMText
10
-1.525
20
6
30
0
40
1
41
0.222222222222
71
5
72
1
1
1
7
standard
210
0
220
0
230
1
50
90
73
2
44
1
0
LINE
5
7B
100
AcDbEntity
8
scratch
6
CONTINUOUS
62
7
370
0
100
AcDbLine
10
0.475
20
6.5
11
-1.05
21
6.5
0
LINE
5
7C
100
AcDbEntity
8
scratch
6
CONTINUOUS
62
7
370
0
100
AcDbLine
10
0.475
20
5.5
11
-1.05
21
5.5
0
ENDBLK
5
61
330
5F
100
AcDbEntity
8
0
100
AcDbBlockEnd
0
BLOCK
5
63
330
62
100
AcDbEntity
8
0
100
AcDbBlockBegin
2
cable_tie_holder-0-0
70
0
10
0
20
0
3
cable_tie_holder-0-0
1

0
ENDBLK
5
64
330
62
100
AcDbEntity
8
0
100
AcDbBlockEnd
0
BLOCK
5
66
330
65
100
AcDbEntity
8
0
100
AcDbBlockBegin
2
temp-0
70
0
10
0
20
0
3
temp-0
1

0
LINE
5
7D
100
AcDbEntity
8
cable_tie_holder
6
ByLayer
62
256
370
-1
100
AcDbLine
10
1.3
20
12.4
11
2.185
21
12.4
0
LINE
5
7E
100
AcDbEntity
8
cable_tie_holder
6
ByLayer
62
256
370
-1
100
AcDbLine
10
2.185
20
12.4
11
2.185
21
13.025
0
LINE
5
7F
100
AcDbEntity
8
cable_tie_holder
6
ByLayer
62
256
370
-1
100
AcDbLine
10
2.185
20
13.025
11
1.3
21
13.025
0
LINE
5
80
100
AcDbEntity
8
cable_tie_holder
6
ByLayer
62
256
370
-1
100
AcDbLine
10
1.3
20
13.025
11
1.3
21
12.4
0
CIRCLE
5
81
100
AcDbEntity
8
cable_tie_holder
6
ByLayer
62
256
370
-1
100
AcDbCircle
10
1.7425
20
12.7125
40
0.13
0
LINE
5
82
100
AcDbEntity
8
cable_tie_holder
6
ByLayer
62
256
370
-1
100
AcDbLine
10
1.3
20
6.3
11
2.185
21
6.3
0
LINE
5
83
100
AcDbEntity
8
cable_tie_holder
6
ByLayer
62
256
370
-1
100
AcDbLine
10
2.185
20
6.3
11
2.185
21
6.925
0
LINE
5
84
100
AcDbEntity
8
cable_tie_holder
6
ByLayer
62
256
370
-1
100
AcDbLine
10
2.185
20
6.925
11
1.3
21
6.925
0
LINE
5
85
100
AcDbEntity
8
cable_tie_holder
6
ByLayer
62
256
370
-1
100
AcDbLine
10
1.3
20
6.925
11
1.3
21
6.3
0
CIRCLE
5
86
100
AcDbEntity
8
cable_tie_holder
6
ByLayer
62
256
370
-1
100
AcDbCircle
10
1.7425
20
6.6125
40
0.13
0
LINE
5
87
100
AcDbEntity
8
cable_tie_holder
6
ByLayer
62
256
370
-1
100
AcDbLine
10
2.185
20
11.575
11
3.07
21
11.575
0
LINE
5
88
100
AcDbEntity
8
cable_tie_holder
6
ByLayer
62
256
370
-1
100
AcDbLine
10
3.07
20
11.575
11
3.07
21
12.2
0
LINE
5
89
100
AcDbEntity
8
cable_tie_holder
6
ByLayer
62
256
370
-1
100
AcDbLine
10
3.07
20
12.2
11
2.185
21
12.2
0
LINE
5
8A
100
AcDbEntity
8
cable_tie_holder
6
ByLayer
62
256
370
-1
100
AcDbLine
10
2.185
20
12.2
11
2.185
21
11.575
0
CIRCLE
5
8B
100
AcDbEntity
8
cable_tie_holder
6
ByLayer
62
256
370
-1
100
AcDbCircle
10
2.6275
20
11.8875
40
0.13
0
LINE
5
8C
100
AcDbEntity
8
cable_tie_holder
6
ByLayer
62
256
370
-1
100
AcDbLine
10
2.185
20
5.475
11
3.07
21
5.475
0
LINE
5
8D
100
AcDbEntity
8
cable_tie_holder
6
ByLayer
62
256
370
-1
100
AcDbLine
10
3.07
20
5.475
11
3.07
21
6.1
0
LINE
5
8E
100
AcDbEntity
8
cable_tie_holder
6
ByLayer
62
256
370
-1
100
AcDbLine
10
3.07
20
6.1
11
2.185
21
6.1
0
LINE
5
8F
100
AcDbEntity
8
cable_tie_holder
6
ByLayer
62
256
370
-1
100
AcDbLine
10
2.185
20
6.1
11
2.185
21
5.475
0
CIRCLE
5
90
100
AcDbEntity
8
cable_tie_holder
6
ByLayer
62
256
370
-1
100
AcDbCircle
10
2.6275
20
5.7875
40
0.13
0
CIRCLE
5
91
100
AcDbEntity
8
10-32_insert_hole
6
ByLayer
62
256
370
-1
100
AcDbCircle
10
1.7425
20
12.7125
40
0.13625
0
CIRCLE
5
92
100
AcDbEntity
8
10-32_insert_hole
6
ByLayer
62
256
370
-1
100
AcDbCircle
10
2.6275
20
11.8875
40
0.13625
0
CIRCLE
5
93
100
AcDbEntity
8
10-32_insert_hole
6
ByLayer
62
256
370
-1
100
AcDbCircle
10
1.7425
20
6.6125
40
0.13625
0
CIRCLE
5
94
100
AcDbEntity
8
10-32_insert_hole
6
ByLayer
62
256
370
-1
100
AcDbCircle
10
2.6275
20
5.7875
40
0.13625
0
CIRCLE
5
95
100
AcDbEntity
8
10-32_through_hole
6
ByLayer
62
256
370
-1
100
AcDbCircle
10
3.74999999998
20
12.7462598425
40
0.099
0
CIRCLE
5
96
100
AcDbEntity
8
10-32_through_hole
6
ByLayer
62
256
370
-1
100
AcDbCircle
10
14.25
20
12.7462598425
40
0.099
0
CIRCLE
5
97
100
AcDbEntity
8
10-32_through_hole
6
ByLayer
62
256
370
-1
100
AcDbCircle
10
3.74999999998
20
1.3
40
0.099
0
CIRCLE
5
98
100
AcDbEntity
8
10-32_through_hole
6
ByLayer
62
256
370
-1
100
AcDbCircle
10
14.25
20
1.3
40
0.099
0
CIRCLE
5
99
100
AcDbEntity
8
10-32_through_hole
6
ByLayer
62
256
370
-1
100
AcDbCircle
10
8.99999999999
20
12.7462598425
40
0.099
0
CIRCLE
5
9A
100
AcDbEntity
8
10-32_through_hole
6
ByLayer
62
256
370
-1
100
AcDbCircle
10
8.99999999999
20
1.3
40
0.099
0
ENDBLK
5
67
330
65
100
AcDbEntity
8
0
100
AcDbBlockEnd
0
BLOCK
5
69
330
68
100
AcDbEntity
8
0
100
AcDbBlockBegin
2
power_supply_plate-0
70
0
10
0
20
0
3
power_supply_plate-0
1

0
CIRCLE
5
9B
100
AcDbEntity
8
M4_through_hole
6
ByLayer
62
256
370
-1
100
AcDbCircle
10
5.3031496063
20
1.48228346457
40
0.0826771653543
0
CIRCLE
5
9C
100
AcDbEntity
8
M4_through_hole
6
ByLayer
62
256
370
-1
100
AcDbCircle
10
12.0551181102
20
1.48228346457
40
0.0826771653543
0
CIRCLE
5
9D
100
AcDbEntity
8
M4_through_hole
6
ByLayer
62
256
370
-1
100
AcDbCircle
10
12.0551181102
20
5.47834346457
40
0.0826771653543
0
CIRCLE
5
9E
100
AcDbEntity
8
M4_through_hole
6
ByLayer
62
256
370
-1
100
AcDbCircle
10
5.3031496063
20
5.47834645669
40
0.0826771653543
0
LINE
5
9F
100
AcDbEntity
8
scratch
6
ByLayer
62
256
370
-1
100
AcDbLine
10
10.0275590551
20
1
11
10.0275590551
21
5.96062992126
0
LINE
5
A0
100
AcDbEntity
8
scratch
6
ByLayer
62
256
370
-1
100
AcDbLine
10
15.5
20
3.48031496063
11
4.55511811024
21
3.48031496063
0
LINE
5
A1
100
AcDbEntity
8
scratch
6
ByLayer
62
256
370
-1
100
AcDbLine
10
10.0275590551
20
5.96062992126
11
10.0275590551
21
6.08562992126
0
CIRCLE
5
A2
100
AcDbEntity
8
M4_through_hole
6
ByLayer
62
256
370
-1
100
AcDbCircle
10
5.3031496063
20
6.56791338583
40
0.0826771653543
0
CIRCLE
5
A3
100
AcDbEntity
8
M4_through_hole
6
ByLayer
62
256
370
-1
100
AcDbCircle
10
12.0551181102
20
6.56791338583
40
0.0826771653543
0
CIRCLE
5
A4
100
AcDbEntity
8
M4_through_hole
6
ByLayer
62
256
370
-1
100
AcDbCircle
10
12.0551181102
20
10.5639733858
40
0.0826771653543
0
CIRCLE
5
A5
100
AcDbEntity
8
M4_through_hole
6
ByLayer
62
256
370
-1
100
AcDbCircle
10
5.3031496063
20
10.563976378
40
0.0826771653543
0
LINE
5
A6
100
AcDbEntity
8
scratch
6
ByLayer
62
256
370
-1
100
AcDbLine
10
10.0275590551
20
6.08562992126
11
10.0275590551
21
11.0462598425
0
LINE
5
A7
100
AcDbEntity
8
scratch
6
ByLayer
62
256
370
-1
100
AcDbLine
10
15.5
20
8.56594488189
11
4.55511811024
21
8.56594488189
0
LINE
5
A8
100
AcDbEntity
8
cable_tie_holder
6
ByLayer
62
256
370
-1
100
AcDbLine
10
0.05000000002
20
11.4
11
0.93500000002
21
11.4
0
LINE
5
A9
100
AcDbEntity
8
cable_tie_holder
6
ByLayer
62
256
370
-1
100
AcDbLine
10
0.93500000002
20
11.4
11
0.93500000002
21
12.025
0
LINE
5
AA
100
AcDbEntity
8
cable_tie_holder
6
ByLayer
62
256
370
-1
100
AcDbLine
10
0.93500000002
20
12.025
11
0.05000000002
21
12.025
0
LINE
5
AB
100
AcDbEntity
8
cable_tie_holder
6
ByLayer
62
256
370
-1
100
AcDbLine
10
0.05000000002
20
12.025
11
0.05000000002
21
11.4
0
CIRCLE
5
AC
100
AcDbEntity
8
cable_tie_holder
6
ByLayer
62
256
370
-1
100
AcDbCircle
10
0.49250000002
20
11.7125
40
0.13
0
LINE
5
AD
100
AcDbEntity
8
cable_tie_holder
6
ByLayer
62
256
370
-1
100
AcDbLine
10
0.05000000002
20
5.3
11
0.93500000002
21
5.3
0
LINE
5
AE
100
AcDbEntity
8
cable_tie_holder
6
ByLayer
62
256
370
-1
100
AcDbLine
10
0.93500000002
20
5.3
11
0.93500000002
21
5.925
0
LINE
5
AF
100
AcDbEntity
8
cable_tie_holder
6
ByLayer
62
256
370
-1
100
AcDbLine
10
0.93500000002
20
5.925
11
0.05000000002
21
5.925
0
LINE
5
B0
100
AcDbEntity
8
cable_tie_holder
6
ByLayer
62
256
370
-1
100
AcDbLine
10
0.05000000002
20
5.925
11
0.05000000002
21
5.3
0
CIRCLE
5
B1
100
AcDbEntity
8
cable_tie_holder
6
ByLayer
62
256
370
-1
100
AcDbCircle
10
0.49250000002
20
5.6125
40
0.13
0
LINE
5
B2
100
AcDbEntity
8
cable_tie_holder
6
ByLayer
62
256
370
-1
100
AcDbLine
10
0.93500000002
20
10.575
11
1.82000000002
21
10.575
0
LINE
5
B3
100
AcDbEntity
8
cable_tie_holder
6
ByLayer
62
256
370
-1
100
AcDbLine
10
1.82000000002
20
10.575
11
1.82000000002
21
11.2
0
LINE
5
B4
100
AcDbEntity
8
cable_tie_holder
6
ByLayer
62
256
370
-1
100
AcDbLine
10
1.82000000002
20
11.2
11
0.93500000002
21
11.2
0
LINE
5
B5
100
AcDbEntity
8
cable_tie_holder
6
ByLayer
62
256
370
-1
100
AcDbLine
10
0.93500000002
20
11.2
11
0.93500000002
21
10.575
0
CIRCLE
5
B6
100
AcDbEntity
8
cable_tie_holder
6
ByLayer
62
256
370
-1
100
AcDbCircle
10
1.37750000002
20
10.8875
40
0.13
0
LINE
5
B7
100
AcDbEntity
8
cable_tie_holder
6
ByLayer
62
256
370
-1
100
AcDbLine
10
0.93500000002
20
4.475
11
1.82000000002
21
4.475
0
LINE
5
B8
100
AcDbEntity
8
cable_tie_holder
6
ByLayer
62
256
370
-1
100
AcDbLine
10
1.82000000002
20
4.475
11
1.82000000002
21
5.1
0
LINE
5
B9
100
AcDbEntity
8
cable_tie_holder
6
ByLayer
62
256
370
-1
100
AcDbLine
10
1.82000000002
20
5.1
11
0.93500000002
21
5.1
0
LINE
5
BA
100
AcDbEntity
8
cable_tie_holder
6
ByLayer
62
256
370
-1
100
AcDbLine
10
0.93500000002
20
5.1
11
0.93500000002
21
4.475
0
CIRCLE
5
BB
100
AcDbEntity
8
cable_tie_holder
6
ByLayer
62
256
370
-1
100
AcDbCircle
10
1.37750000002
20
4.7875
40
0.13
0
CIRCLE
5
BC
100
AcDbEntity
8
10-32_insert_hole
6
ByLayer
62
256
370
-1
100
AcDbCircle
10
0.49250000002
20
11.7125
40
0.13625
0
CIRCLE
5
BD
100
AcDbEntity
8
10-32_insert_hole
6
ByLayer
62
256
370
-1
100
AcDbCircle
10
1.37750000002
20
10.8875
40
0.13625
0
CIRCLE
5
BE
100
AcDbEntity
8
10-32_insert_hole
6
ByLayer
62
256
370
-1
100
AcDbCircle
10
0.49250000002
20
5.6125
40
0.13625
0
CIRCLE
5
BF
100
AcDbEntity
8
10-32_insert_hole
6
ByLayer
62
256
370
-1
100
AcDbCircle
10
1.37750000002
20
4.7875
40
0.13625
0
CIRCLE
5
C0
100
AcDbEntity
8
10-32_through_hole
6
ByLayer
62
256
370
-1
100
AcDbCircle
10
2.5
20
11.7462598425
40
0.099
0
CIRCLE
5
C1
100
AcDbEntity
8
10-32_through_hole
6
ByLayer
62
256
370
-1
100
AcDbCircle
10
13
20
11.7462598425
40
0.099
0
CIRCLE
5
C2
100
AcDbEntity
8
10-32_through_hole
6
ByLayer
62
256
370
-1
100
AcDbCircle
10
2.5
20
0.3
40
0.099
0
CIRCLE
5
C3
100
AcDbEntity
8
10-32_through_hole
6
ByLayer
62
256
370
-1
100
AcDbCircle
10
13
20
0.3
40
0.099
0
CIRCLE
5
C4
100
AcDbEntity
8
10-32_through_hole
6
ByLayer
62
256
370
-1
100
AcDbCircle
10
7.75000000001
20
11.7462598425
40
0.099
0
CIRCLE
5
C5
100
AcDbEntity
8
10-32_through_hole
6
ByLayer
62
256
370
-1
100
AcDbCircle
10
7.75000000001
20
0.3
40
0.099
0
ARC
5
C6
100
AcDbEntity
8
boundary
6
ByLayer
62
256
370
-1
100
AcDbCircle
10
0.125
20
11.9212598425
40
0.125
100
AcDbArc
50
90
51
180
0
LINE
5
C7
100
AcDbEntity
8
boundary
6
ByLayer
62
256
370
-1
100
AcDbLine
10
0.125
20
12.0462598425
11
15.375
21
12.0462598425
0
ARC
5
C8
100
AcDbEntity
8
boundary
6
ByLayer
62
256
370
-1
100
AcDbCircle
10
15.375
20
11.9212598425
40
0.125
100
AcDbArc
50
0
51
90
0
LINE
5
C9
100
AcDbEntity
8
boundary
6
ByLayer
62
256
370
-1
100
AcDbLine
10
15.5
20
11.9212598425
11
15.5
21
0.125
0
ARC
5
CA
100
AcDbEntity
8
boundary
6
ByLayer
62
256
370
-1
100
AcDbCircle
10
15.375
20
0.125
40
0.125
100
AcDbArc
50
270
51
0
0
LINE
5
CB
100
AcDbEntity
8
boundary
6
ByLayer
62
256
370
-1
100
AcDbLine
10
0
20
0.125
11
0
21
11.9212598425
0
LINE
5
CC
100
AcDbEntity
8
boundary
6
ByLayer
62
256
370
-1
100
AcDbLine
10
15.375
20
0
11
0.125
21
0
0
ARC
5
CD
100
AcDbEntity
8
boundary
6
ByLayer
62
256
370
-1
100
AcDbCircle
10
0.125
20
0.125
40
0.125
100
AcDbArc
50
180
51
270
0
ENDBLK
5
6A
330
68
100
AcDbEntity
8
0
100
AcDbBlockEnd
0
ENDSEC
0
SECTION
2
ENTITIES
0
LINE
5
CE
100
AcDbEntity
8
finned_heat_sink
6
ByLayer
62
256
370
-1
100
AcDbLine
10
8.3
20
16.5
11
8.3
21
26.35
0
LINE
5
CF
100
AcDbEntity
8
finned_heat_sink
6
ByLayer
62
256
370
-1
100
AcDbLine
10
8.3
20
26.35
11
5.3
21
26.35
0
LINE
5
D0
100
AcDbEntity
8
finned_heat_sink
6
ByLayer
62
256
370
-1
100
AcDbLine
10
5.3
20
26.35
11
5.3
21
16.5
0
LINE
5
D1
100
AcDbEntity
8
finned_heat_sink
6
ByLayer
62
256
370
-1
100
AcDbLine
10
5.3
20
16.5
11
8.3
21
16.5
0
CIRCLE
5
D2
100
AcDbEntity
8
finned_heat_sink
6
ByLayer
62
256
370
-1
100
AcDbCircle
10
5.8
20
16.875
40
0.1005
0
CIRCLE
5
D3
100
AcDbEntity
8
finned_heat_sink
6
ByLayer
62
256
370
-1
100
AcDbCircle
10
7.8
20
16.875
40
0.1005
0
CIRCLE
5
D4
100
AcDbEntity
8
finned_heat_sink
6
ByLayer
62
256
370
-1
100
AcDbCircle
10
7.8
20
25.975
40
0.1005
0
CIRCLE
5
D5
100
AcDbEntity
8
finned_heat_sink
6
ByLayer
62
256
370
-1
100
AcDbCircle
10
5.8
20
25.975
40
0.1005
0
CIRCLE
5
D6
100
AcDbEntity
8
bulkhead_connector_plate
6
ByLayer
62
256
370
-1
100
AcDbCircle
10
10.425
20
18.645
40
0.465
0
CIRCLE
5
D7
100
AcDbEntity
8
bulkhead_connector_plate
6
ByLayer
62
256
370
-1
100
AcDbCircle
10
10.8
20
18.18
40
0.079
0
CIRCLE
5
D8
100
AcDbEntity
8
bulkhead_connector_plate
6
ByLayer
62
256
370
-1
100
AcDbCircle
10
10.05
20
19.11
40
0.079
0
CIRCLE
5
D9
100
AcDbEntity
8
bulkhead_connector_plate
6
ByLayer
62
256
370
-1
100
AcDbCircle
10
10.425
20
21.425
40
0.465
0
CIRCLE
5
DA
100
AcDbEntity
8
bulkhead_connector_plate
6
ByLayer
62
256
370
-1
100
AcDbCircle
10
10.8
20
20.96
40
0.079
0
CIRCLE
5
DB
100
AcDbEntity
8
bulkhead_connector_plate
6
ByLayer
62
256
370
-1
100
AcDbCircle
10
10.05
20
21.89
40
0.079
0
CIRCLE
5
DC
100
AcDbEntity
8
bulkhead_connector_plate
6
ByLayer
62
256
370
-1
100
AcDbCircle
10
10.425
20
24.205
40
0.465
0
CIRCLE
5
DD
100
AcDbEntity
8
bulkhead_connector_plate
6
ByLayer
62
256
370
-1
100
AcDbCircle
10
10.8
20
23.74
40
0.079
0
CIRCLE
5
DE
100
AcDbEntity
8
bulkhead_connector_plate
6
ByLayer
62
256
370
-1
100
AcDbCircle
10
10.05
20
24.67
40
0.079
0
CIRCLE
5
DF
100
AcDbEntity
8
bulkhead_connector_plate
6
ByLayer
62
256
370
-1
100
AcDbCircle
10
9.925
20
20.035
40
0.072
0
CIRCLE
5
E0
100
AcDbEntity
8
bulkhead_connector_plate
6
ByLayer
62
256
370
-1
100
AcDbCircle
10
10.925
20
20.035
40
0.072
0
CIRCLE
5
E1
100
AcDbEntity
8
bulkhead_connector_plate
6
ByLayer
62
256
370
-1
100
AcDbCircle
10
9.925
20
22.815
40
0.072
0
CIRCLE
5
E2
100
AcDbEntity
8
bulkhead_connector_plate
6
ByLayer
62
256
370
-1
100
AcDbCircle
10
10.925
20
22.815
40
0.072
0
CIRCLE
5
E3
100
AcDbEntity
8
bulkhead_connector_plate
6
ByLayer
62
256
370
-1
100
AcDbCircle
10
9.925
20
17.65
40
0.072
0
CIRCLE
5
E4
100
AcDbEntity
8
bulkhead_connector_plate
6
ByLayer
62
256
370
-1
100
AcDbCircle
10
10.925
20
17.65
40
0.072
0
CIRCLE
5
E5
100
AcDbEntity
8
bulkhead_connector_plate
6
ByLayer
62
256
370
-1
100
AcDbCircle
10
9.925
20
25.2
40
0.072
0
CIRCLE
5
E6
100
AcDbEntity
8
bulkhead_connector_plate
6
ByLayer
62
256
370
-1
100
AcDbCircle
10
10.925
20
25.2
40
0.072
0
ARC
5
E7
100
AcDbEntity
8
bulkhead_connector_plate
6
ByLayer
62
256
370
-1
100
AcDbCircle
10
9.95
20
17.675
40
0.25
100
AcDbArc
50
180
51
270
0
LINE
5
E8
100
AcDbEntity
8
bulkhead_connector_plate
6
ByLayer
62
256
370
-1
100
AcDbLine
10
10.9
20
17.425
11
9.95
21
17.425
0
ARC
5
E9
100
AcDbEntity
8
bulkhead_connector_plate
6
ByLayer
62
256
370
-1
100
AcDbCircle
10
10.9
20
17.675
40
0.25
100
AcDbArc
50
270
51
360
0
LINE
5
EA
100
AcDbEntity
8
bulkhead_connector_plate
6
ByLayer
62
256
370
-1
100
AcDbLine
10
11.15
20
25.175
11
11.15
21
17.675
0
ARC
5
EB
100
AcDbEntity
8
bulkhead_connector_plate
6
ByLayer
62
256
370
-1
100
AcDbCircle
10
10.9
20
25.175
40
0.25
100
AcDbArc
50
360
51
90
0
LINE
5
EC
100
AcDbEntity
8
bulkhead_connector_plate
6
ByLayer
62
256
370
-1
100
AcDbLine
10
9.7
20
17.675
11
9.7
21
25.175
0
LINE
5
ED
100
AcDbEntity
8
bulkhead_connector_plate
6
ByLayer
62
256
370
-1
100
AcDbLine
10
9.95
20
25.425
11
10.9
21
25.425
0
ARC
5
EE
100
AcDbEntity
8
bulkhead_connector_plate
6
ByLayer
62
256
370
-1
100
AcDbCircle
10
9.95
20
25.175
40
0.25
100
AcDbArc
50
90
51
180
0
LINE
5
EF
100
AcDbEntity
8
motion_controller_pcb
6
ByLayer
62
256
370
-1
100
AcDbLine
10
3.75
20
29.625
11
14.25
21
29.625
0
LINE
5
F0
100
AcDbEntity
8
motion_controller_pcb
6
ByLayer
62
256
370
-1
100
AcDbLine
10
14.25
20
29.625
11
14.25
21
33.375
0
LINE
5
F1
100
AcDbEntity
8
motion_controller_pcb
6
ByLayer
62
256
370
-1
100
AcDbLine
10
14.25
20
33.375
11
3.75
21
33.375
0
LINE
5
F2
100
AcDbEntity
8
motion_controller_pcb
6
ByLayer
62
256
370
-1
100
AcDbLine
10
3.75
20
33.375
11
3.75
21
29.625
0
CIRCLE
5
F3
100
AcDbEntity
8
motion_controller_pcb
6
ByLayer
62
256
370
-1
100
AcDbCircle
10
3.9
20
33.225
40
0.0625
0
CIRCLE
5
F4
100
AcDbEntity
8
motion_controller_pcb
6
ByLayer
62
256
370
-1
100
AcDbCircle
10
3.9
20
29.775
40
0.0625
0
CIRCLE
5
F5
100
AcDbEntity
8
motion_controller_pcb
6
ByLayer
62
256
370
-1
100
AcDbCircle
10
14.1
20
29.775
40
0.0625
0
CIRCLE
5
F6
100
AcDbEntity
8
motion_controller_pcb
6
ByLayer
62
256
370
-1
100
AcDbCircle
10
14.1
20
33.225
40
0.0625
0
LINE
5
F7
100
AcDbEntity
8
motion_controller_pcb
6
ByLayer
62
256
370
-1
100
AcDbLine
10
9.05
20
29.625
11
9.05
21
30.125
0
LINE
5
F8
100
AcDbEntity
8
motion_controller_pcb
6
ByLayer
62
256
370
-1
100
AcDbLine
10
13.9
20
29.625
11
13.9
21
30.125
0
LINE
5
F9
100
AcDbEntity
8
motion_controller_pcb
6
ByLayer
62
256
370
-1
100
AcDbLine
10
9.05
20
30.125
11
13.9
21
30.125
0
LINE
5
FA
100
AcDbEntity
8
motion_controller_pcb
6
ByLayer
62
256
370
-1
100
AcDbLine
10
8.94
20
29.625
11
8.94
21
30.125
0
LINE
5
FB
100
AcDbEntity
8
motion_controller_pcb
6
ByLayer
62
256
370
-1
100
AcDbLine
10
6.53
20
29.625
11
6.53
21
30.125
0
LINE
5
FC
100
AcDbEntity
8
motion_controller_pcb
6
ByLayer
62
256
370
-1
100
AcDbLine
10
6.53
20
30.125
11
8.94
21
30.125
0
MTEXT
5
FD
100
AcDbEntity
8
motion_controller_pcb
6
ByLayer
62
256
370
-1
100
AcDbMText
10
7.75
20
29.925
30
0
40
0.1
41
1.90555558578
71
2
72
1
1
Homing Switches - INT, GND
7
iso
210
0
220
0
230
1
50
0
73
2
44
1
0
MTEXT
5
FE
100
AcDbEntity
8
motion_controller_pcb
6
ByLayer
62
256
370
-1
100
AcDbMText
10
11.55
20
29.925
30
0
40
0.1
41
2.76666664547
71
2
72
1
1
Stepper Motor - CLK, DIR, ENABLE, GND
7
iso
210
0
220
0
230
1
50
0
73
2
44
1
0
LINE
5
FF
100
AcDbEntity
8
motion_controller_pcb
6
ByLayer
62
256
370
-1
100
AcDbLine
10
6.39
20
29.625
11
6.39
21
30.125
0
LINE
5
100
100
AcDbEntity
8
motion_controller_pcb
6
ByLayer
62
256
370
-1
100
AcDbLine
10
5.19
20
29.625
11
5.19
21
30.125
0
LINE
5
101
100
AcDbEntity
8
motion_controller_pcb
6
ByLayer
62
256
370
-1
100
AcDbLine
10
5.19
20
30.125
11
6.39
21
30.125
0
MTEXT
5
102
100
AcDbEntity
8
motion_controller_pcb
6
ByLayer
62
256
370
-1
100
AcDbMText
10
5.78562703157
20
29.9357483743
30
0
40
0.1
41
0.941666696895
71
2
72
1
1
Limit Switches
7
iso
210
0
220
0
230
1
50
0
73
2
44
1
0
LINE
5
103
100
AcDbEntity
8
motion_controller_pcb
6
ByLayer
62
256
370
-1
100
AcDbLine
10
5.06
20
29.625
11
5.06
21
30.125
0
LINE
5
104
100
AcDbEntity
8
motion_controller_pcb
6
ByLayer
62
256
370
-1
100
AcDbLine
10
4.05
20
29.625
11
4.05
21
30.125
0
LINE
5
105
100
AcDbEntity
8
motion_controller_pcb
6
ByLayer
62
256
370
-1
100
AcDbLine
10
4.05
20
30.125
11
5.06
21
30.125
0
MTEXT
5
106
100
AcDbEntity
8
motion_controller_pcb
6
ByLayer
62
256
370
-1
100
AcDbMText
10
4.55
20
29.925
30
0
40
0.1
41
0.597222201022
71
2
72
1
1
RC Servo
7
iso
210
0
220
0
230
1
50
0
73
2
44
1
0
LINE
5
107
100
AcDbEntity
8
motion_controller_pcb
6
ByLayer
62
256
370
-1
100
AcDbLine
10
3.75
20
30.425
11
4.75
21
30.425
0
LINE
5
108
100
AcDbEntity
8
motion_controller_pcb
6
ByLayer
62
256
370
-1
100
AcDbLine
10
3.75
20
30.975
11
4.75
21
30.975
0
LINE
5
109
100
AcDbEntity
8
motion_controller_pcb
6
ByLayer
62
256
370
-1
100
AcDbLine
10
4.75
20
30.975
11
4.75
21
30.425
0
MTEXT
5
10A
100
AcDbEntity
8
motion_controller_pcb
6
ByLayer
62
256
370
-1
100
AcDbMText
10
4.17
20
30.765
30
0
40
0.1
41
0.675
71
2
72
1
1
Ext Power
7
iso
210
0
220
0
230
1
50
0
73
2
44
1
0
LINE
5
10B
100
AcDbEntity
8
motion_controller_pcb
6
ByLayer
62
256
370
-1
100
AcDbLine
10
3.75
20
31.225
11
4.75
21
31.225
0
LINE
5
10C
100
AcDbEntity
8
motion_controller_pcb
6
ByLayer
62
256
370
-1
100
AcDbLine
10
3.75
20
31.925
11
4.75
21
31.925
0
LINE
5
10D
100
AcDbEntity
8
motion_controller_pcb
6
ByLayer
62
256
370
-1
100
AcDbLine
10
4.75
20
31.925
11
4.75
21
31.225
0
MTEXT
5
10E
100
AcDbEntity
8
motion_controller_pcb
6
ByLayer
62
256
370
-1
100
AcDbMText
10
3.95
20
31.625
30
0
40
0.1
41
0.233333312133
71
2
72
1
1
USB
7
iso
210
0
220
0
230
1
50
0
73
2
44
1
0
LINE
5
10F
100
AcDbEntity
8
motion_controller_pcb
6
ByLayer
62
256
370
-1
100
AcDbLine
10
13.75
20
32.855
11
13.75
21
30.325
0
LINE
5
110
100
AcDbEntity
8
motion_controller_pcb
6
ByLayer
62
256
370
-1
100
AcDbLine
10
14.25
20
32.855
11
13.75
21
32.855
0
LINE
5
111
100
AcDbEntity
8
motion_controller_pcb
6
ByLayer
62
256
370
-1
100
AcDbLine
10
14.25
20
30.325
11
13.75
21
30.325
0
MTEXT
5
112
100
AcDbEntity
8
motion_controller_pcb
6
ByLayer
62
256
370
-1
100
AcDbMText
10
13.95
20
31.725
30
0
40
0.1
41
0.752777808006
71
2
72
1
1
F/T Sensor
7
iso
210
0
220
0
230
1
50
90
73
2
44
1
0
LINE
5
113
100
AcDbEntity
8
motion_controller_pcb
6
ByLayer
62
256
370
-1
100
AcDbLine
10
5.39
20
33.375
11
5.39
21
32.775
0
LINE
5
114
100
AcDbEntity
8
motion_controller_pcb
6
ByLayer
62
256
370
-1
100
AcDbLine
10
7.13
20
33.375
11
7.13
21
32.775
0
LINE
5
115
100
AcDbEntity
8
motion_controller_pcb
6
ByLayer
62
256
370
-1
100
AcDbLine
10
5.39
20
32.775
11
7.13
21
32.775
0
MTEXT
5
116
100
AcDbEntity
8
motion_controller_pcb
6
ByLayer
62
256
370
-1
100
AcDbMText
10
6.25
20
33.125
30
0
40
0.1
41
1.225
71
2
72
1
1
Camera Trig + DIO
7
iso
210
0
220
0
230
1
50
0
73
2
44
1
0
CIRCLE
5
117
100
AcDbEntity
8
bulkhead_connector_plate
6
ByLayer
62
256
370
-1
100
AcDbCircle
10
1.125
20
18.645
40
0.465
0
CIRCLE
5
118
100
AcDbEntity
8
bulkhead_connector_plate
6
ByLayer
62
256
370
-1
100
AcDbCircle
10
1.5
20
18.18
40
0.079
0
CIRCLE
5
119
100
AcDbEntity
8
bulkhead_connector_plate
6
ByLayer
62
256
370
-1
100
AcDbCircle
10
0.75
20
19.11
40
0.079
0
CIRCLE
5
11A
100
AcDbEntity
8
bulkhead_connector_plate
6
ByLayer
62
256
370
-1
100
AcDbCircle
10
1.125
20
21.425
40
0.465
0
CIRCLE
5
11B
100
AcDbEntity
8
bulkhead_connector_plate
6
ByLayer
62
256
370
-1
100
AcDbCircle
10
1.5
20
20.96
40
0.079
0
CIRCLE
5
11C
100
AcDbEntity
8
bulkhead_connector_plate
6
ByLayer
62
256
370
-1
100
AcDbCircle
10
0.75
20
21.89
40
0.079
0
CIRCLE
5
11D
100
AcDbEntity
8
bulkhead_connector_plate
6
ByLayer
62
256
370
-1
100
AcDbCircle
10
1.125
20
24.205
40
0.465
0
CIRCLE
5
11E
100
AcDbEntity
8
bulkhead_connector_plate
6
ByLayer
62
256
370
-1
100
AcDbCircle
10
1.5
20
23.74
40
0.079
0
CIRCLE
5
11F
100
AcDbEntity
8
bulkhead_connector_plate
6
ByLayer
62
256
370
-1
100
AcDbCircle
10
0.75
20
24.67
40
0.079
0
CIRCLE
5
120
100
AcDbEntity
8
bulkhead_connector_plate
6
ByLayer
62
256
370
-1
100
AcDbCircle
10
0.625
20
20.035
40
0.072
0
CIRCLE
5
121
100
AcDbEntity
8
bulkhead_connector_plate
6
ByLayer
62
256
370
-1
100
AcDbCircle
10
1.625
20
20.035
40
0.072
0
CIRCLE
5
122
100
AcDbEntity
8
bulkhead_connector_plate
6
ByLayer
62
256
370
-1
100
AcDbCircle
10
0.625
20
22.815
40
0.072
0
CIRCLE
5
123
100
AcDbEntity
8
bulkhead_connector_plate
6
ByLayer
62
256
370
-1
100
AcDbCircle
10
1.625
20
22.815
40
0.072
0
CIRCLE
5
124
100
AcDbEntity
8
bulkhead_connector_plate
6
ByLayer
62
256
370
-1
100
AcDbCircle
10
0.625
20
17.65
40
0.072
0
CIRCLE
5
125
100
AcDbEntity
8
bulkhead_connector_plate
6
ByLayer
62
256
370
-1
100
AcDbCircle
10
1.625
20
17.65
40
0.072
0
CIRCLE
5
126
100
AcDbEntity
8
bulkhead_connector_plate
6
ByLayer
62
256
370
-1
100
AcDbCircle
10
0.625
20
25.2
40
0.072
0
CIRCLE
5
127
100
AcDbEntity
8
bulkhead_connector_plate
6
ByLayer
62
256
370
-1
100
AcDbCircle
10
1.625
20
25.2
40
0.072
0
ARC
5
128
100
AcDbEntity
8
bulkhead_connector_plate
6
ByLayer
62
256
370
-1
100
AcDbCircle
10
0.65
20
17.675
40
0.25
100
AcDbArc
50
180
51
270
0
LINE
5
129
100
AcDbEntity
8
bulkhead_connector_plate
6
ByLayer
62
256
370
-1
100
AcDbLine
10
1.6
20
17.425
11
0.65
21
17.425
0
ARC
5
12A
100
AcDbEntity
8
bulkhead_connector_plate
6
ByLayer
62
256
370
-1
100
AcDbCircle
10
1.6
20
17.675
40
0.25
100
AcDbArc
50
270
51
360
0
LINE
5
12B
100
AcDbEntity
8
bulkhead_connector_plate
6
ByLayer
62
256
370
-1
100
AcDbLine
10
1.85
20
25.175
11
1.85
21
17.675
0
ARC
5
12C
100
AcDbEntity
8
bulkhead_connector_plate
6
ByLayer
62
256
370
-1
100
AcDbCircle
10
1.6
20
25.175
40
0.25
100
AcDbArc
50
360
51
90
0
LINE
5
12D
100
AcDbEntity
8
bulkhead_connector_plate
6
ByLayer
62
256
370
-1
100
AcDbLine
10
0.4
20
17.675
11
0.4
21
25.175
0
LINE
5
12E
100
AcDbEntity
8
bulkhead_connector_plate
6
ByLayer
62
256
370
-1
100
AcDbLine
10
0.65
20
25.425
11
1.6
21
25.425
0
ARC
5
12F
100
AcDbEntity
8
bulkhead_connector_plate
6
ByLayer
62
256
370
-1
100
AcDbCircle
10
0.65
20
25.175
40
0.25
100
AcDbArc
50
90
51
180
0
LINE
5
130
100
AcDbEntity
8
finned_heat_sink
6
ByLayer
62
256
370
-1
100
AcDbLine
10
17.6
20
16.5
11
17.6
21
26.35
0
LINE
5
131
100
AcDbEntity
8
finned_heat_sink
6
ByLayer
62
256
370
-1
100
AcDbLine
10
17.6
20
26.35
11
14.6
21
26.35
0
LINE
5
132
100
AcDbEntity
8
finned_heat_sink
6
ByLayer
62
256
370
-1
100
AcDbLine
10
14.6
20
26.35
11
14.6
21
16.5
0
LINE
5
133
100
AcDbEntity
8
finned_heat_sink
6
ByLayer
62
256
370
-1
100
AcDbLine
10
14.6
20
16.5
11
17.6
21
16.5
0
CIRCLE
5
134
100
AcDbEntity
8
finned_heat_sink
6
ByLayer
62
256
370
-1
100
AcDbCircle
10
15.1
20
16.875
40
0.1005
0
CIRCLE
5
135
100
AcDbEntity
8
finned_heat_sink
6
ByLayer
62
256
370
-1
100
AcDbCircle
10
17.1
20
16.875
40
0.1005
0
CIRCLE
5
136
100
AcDbEntity
8
finned_heat_sink
6
ByLayer
62
256
370
-1
100
AcDbCircle
10
17.1
20
25.975
40
0.1005
0
CIRCLE
5
137
100
AcDbEntity
8
finned_heat_sink
6
ByLayer
62
256
370
-1
100
AcDbCircle
10
15.1
20
25.975
40
0.1005
0
LINE
5
138
100
AcDbEntity
8
cable_tie_holder
6
ByLayer
62
256
370
-1
100
AcDbLine
10
3.41
20
24.475
11
4.295
21
24.475
0
LINE
5
139
100
AcDbEntity
8
cable_tie_holder
6
ByLayer
62
256
370
-1
100
AcDbLine
10
4.295
20
24.475
11
4.295
21
25.1
0
LINE
5
13A
100
AcDbEntity
8
cable_tie_holder
6
ByLayer
62
256
370
-1
100
AcDbLine
10
4.295
20
25.1
11
3.41
21
25.1
0
LINE
5
13B
100
AcDbEntity
8
cable_tie_holder
6
ByLayer
62
256
370
-1
100
AcDbLine
10
3.41
20
25.1
11
3.41
21
24.475
0
CIRCLE
5
13C
100
AcDbEntity
8
cable_tie_holder
6
ByLayer
62
256
370
-1
100
AcDbCircle
10
3.8525
20
24.7875
40
0.13
0
LINE
5
13D
100
AcDbEntity
8
cable_tie_holder
6
ByLayer
62
256
370
-1
100
AcDbLine
10
3.41
20
22.09
11
4.295
21
22.09
0
LINE
5
13E
100
AcDbEntity
8
cable_tie_holder
6
ByLayer
62
256
370
-1
100
AcDbLine
10
4.295
20
22.09
11
4.295
21
22.715
0
LINE
5
13F
100
AcDbEntity
8
cable_tie_holder
6
ByLayer
62
256
370
-1
100
AcDbLine
10
4.295
20
22.715
11
3.41
21
22.715
0
LINE
5
140
100
AcDbEntity
8
cable_tie_holder
6
ByLayer
62
256
370
-1
100
AcDbLine
10
3.41
20
22.715
11
3.41
21
22.09
0
CIRCLE
5
141
100
AcDbEntity
8
cable_tie_holder
6
ByLayer
62
256
370
-1
100
AcDbCircle
10
3.8525
20
22.4025
40
0.13
0
LINE
5
142
100
AcDbEntity
8
cable_tie_holder
6
ByLayer
62
256
370
-1
100
AcDbLine
10
3.41
20
19.31
11
4.295
21
19.31
0
LINE
5
143
100
AcDbEntity
8
cable_tie_holder
6
ByLayer
62
256
370
-1
100
AcDbLine
10
4.295
20
19.31
11
4.295
21
19.935
0
LINE
5
144
100
AcDbEntity
8
cable_tie_holder
6
ByLayer
62
256
370
-1
100
AcDbLine
10
4.295
20
19.935
11
3.41
21
19.935
0
LINE
5
145
100
AcDbEntity
8
cable_tie_holder
6
ByLayer
62
256
370
-1
100
AcDbLine
10
3.41
20
19.935
11
3.41
21
19.31
0
CIRCLE
5
146
100
AcDbEntity
8
cable_tie_holder
6
ByLayer
62
256
370
-1
100
AcDbCircle
10
3.8525
20
19.6225
40
0.13
0
LINE
5
147
100
AcDbEntity
8
cable_tie_holder
6
ByLayer
62
256
370
-1
100
AcDbLine
10
3.41
20
16.925
11
4.295
21
16.925
0
LINE
5
148
100
AcDbEntity
8
cable_tie_holder
6
ByLayer
62
256
370
-1
100
AcDbLine
10
4.295
20
16.925
11
4.295
21
17.55
0
LINE
5
149
100
AcDbEntity
8
cable_tie_holder
6
ByLayer
62
256
370
-1
100
AcDbLine
10
4.295
20
17.55
11
3.41
21
17.55
0
LINE
5
14A
100
AcDbEntity
8
cable_tie_holder
6
ByLayer
62
256
370
-1
100
AcDbLine
10
3.41
20
17.55
11
3.41
21
16.925
0
CIRCLE
5
14B
100
AcDbEntity
8
cable_tie_holder
6
ByLayer
62
256
370
-1
100
AcDbCircle
10
3.8525
20
17.2375
40
0.13
0
LINE
5
14C
100
AcDbEntity
8
cable_tie_holder
6
ByLayer
62
256
370
-1
100
AcDbLine
10
12.71
20
24.475
11
13.595
21
24.475
0
LINE
5
14D
100
AcDbEntity
8
cable_tie_holder
6
ByLayer
62
256
370
-1
100
AcDbLine
10
13.595
20
24.475
11
13.595
21
25.1
0
LINE
5
14E
100
AcDbEntity
8
cable_tie_holder
6
ByLayer
62
256
370
-1
100
AcDbLine
10
13.595
20
25.1
11
12.71
21
25.1
0
LINE
5
14F
100
AcDbEntity
8
cable_tie_holder
6
ByLayer
62
256
370
-1
100
AcDbLine
10
12.71
20
25.1
11
12.71
21
24.475
0
CIRCLE
5
150
100
AcDbEntity
8
cable_tie_holder
6
ByLayer
62
256
370
-1
100
AcDbCircle
10
13.1525
20
24.7875
40
0.13
0
LINE
5
151
100
AcDbEntity
8
cable_tie_holder
6
ByLayer
62
256
370
-1
100
AcDbLine
10
12.71
20
22.09
11
13.595
21
22.09
0
LINE
5
152
100
AcDbEntity
8
cable_tie_holder
6
ByLayer
62
256
370
-1
100
AcDbLine
10
13.595
20
22.09
11
13.595
21
22.715
0
LINE
5
153
100
AcDbEntity
8
cable_tie_holder
6
ByLayer
62
256
370
-1
100
AcDbLine
10
13.595
20
22.715
11
12.71
21
22.715
0
LINE
5
154
100
AcDbEntity
8
cable_tie_holder
6
ByLayer
62
256
370
-1
100
AcDbLine
10
12.71
20
22.715
11
12.71
21
22.09
0
CIRCLE
5
155
100
AcDbEntity
8
cable_tie_holder
6
ByLayer
62
256
370
-1
100
AcDbCircle
10
13.1525
20
22.4025
40
0.13
0
LINE
5
156
100
AcDbEntity
8
cable_tie_holder
6
ByLayer
62
256
370
-1
100
AcDbLine
10
12.71
20
19.31
11
13.595
21
19.31
0
LINE
5
157
100
AcDbEntity
8
cable_tie_holder
6
ByLayer
62
256
370
-1
100
AcDbLine
10
13.595
20
19.31
11
13.595
21
19.935
0
LINE
5
158
100
AcDbEntity
8
cable_tie_holder
6
ByLayer
62
256
370
-1
100
AcDbLine
10
13.595
20
19.935
11
12.71
21
19.935
0
LINE
5
159
100
AcDbEntity
8
cable_tie_holder
6
ByLayer
62
256
370
-1
100
AcDbLine
10
12.71
20
19.935
11
12.71
21
19.31
0
CIRCLE
5
15A
100
AcDbEntity
8
cable_tie_holder
6
ByLayer
62
256
370
-1
100
AcDbCircle
10
13.1525
20
19.6225
40
0.13
0
LINE
5
15B
100
AcDbEntity
8
cable_tie_holder
6
ByLayer
62
256
370
-1
100
AcDbLine
10
12.71
20
16.925
11
13.595
21
16.925
0
LINE
5
15C
100
AcDbEntity
8
cable_tie_holder
6
ByLayer
62
256
370
-1
100
AcDbLine
10
13.595
20
16.925
11
13.595
21
17.55
0
LINE
5
15D
100
AcDbEntity
8
cable_tie_holder
6
ByLayer
62
256
370
-1
100
AcDbLine
10
13.595
20
17.55
11
12.71
21
17.55
0
LINE
5
15E
100
AcDbEntity
8
cable_tie_holder
6
ByLayer
62
256
370
-1
100
AcDbLine
10
12.71
20
17.55
11
12.71
21
16.925
0
CIRCLE
5
15F
100
AcDbEntity
8
cable_tie_holder
6
ByLayer
62
256
370
-1
100
AcDbCircle
10
13.1525
20
17.2375
40
0.13
0
LINE
5
160
100
AcDbEntity
8
cable_tie_holder
6
ByLayer
62
256
370
-1
100
AcDbLine
10
2.525
20
25.3
11
3.41
21
25.3
0
LINE
5
161
100
AcDbEntity
8
cable_tie_holder
6
ByLayer
62
256
370
-1
100
AcDbLine
10
3.41
20
25.3
11
3.41
21
25.925
0
LINE
5
162
100
AcDbEntity
8
cable_tie_holder
6
ByLayer
62
256
370
-1
100
AcDbLine
10
3.41
20
25.925
11
2.525
21
25.925
0
LINE
5
163
100
AcDbEntity
8
cable_tie_holder
6
ByLayer
62
256
370
-1
100
AcDbLine
10
2.525
20
25.925
11
2.525
21
25.3
0
CIRCLE
5
164
100
AcDbEntity
8
cable_tie_holder
6
ByLayer
62
256
370
-1
100
AcDbCircle
10
2.9675
20
25.6125
40
0.13
0
LINE
5
165
100
AcDbEntity
8
cable_tie_holder
6
ByLayer
62
256
370
-1
100
AcDbLine
10
2.525
20
22.915
11
3.41
21
22.915
0
LINE
5
166
100
AcDbEntity
8
cable_tie_holder
6
ByLayer
62
256
370
-1
100
AcDbLine
10
3.41
20
22.915
11
3.41
21
23.54
0
LINE
5
167
100
AcDbEntity
8
cable_tie_holder
6
ByLayer
62
256
370
-1
100
AcDbLine
10
3.41
20
23.54
11
2.525
21
23.54
0
LINE
5
168
100
AcDbEntity
8
cable_tie_holder
6
ByLayer
62
256
370
-1
100
AcDbLine
10
2.525
20
23.54
11
2.525
21
22.915
0
CIRCLE
5
169
100
AcDbEntity
8
cable_tie_holder
6
ByLayer
62
256
370
-1
100
AcDbCircle
10
2.9675
20
23.2275
40
0.13
0
LINE
5
16A
100
AcDbEntity
8
cable_tie_holder
6
ByLayer
62
256
370
-1
100
AcDbLine
10
2.525
20
20.135
11
3.41
21
20.135
0
LINE
5
16B
100
AcDbEntity
8
cable_tie_holder
6
ByLayer
62
256
370
-1
100
AcDbLine
10
3.41
20
20.135
11
3.41
21
20.76
0
LINE
5
16C
100
AcDbEntity
8
cable_tie_holder
6
ByLayer
62
256
370
-1
100
AcDbLine
10
3.41
20
20.76
11
2.525
21
20.76
0
LINE
5
16D
100
AcDbEntity
8
cable_tie_holder
6
ByLayer
62
256
370
-1
100
AcDbLine
10
2.525
20
20.76
11
2.525
21
20.135
0
CIRCLE
5
16E
100
AcDbEntity
8
cable_tie_holder
6
ByLayer
62
256
370
-1
100
AcDbCircle
10
2.9675
20
20.4475
40
0.13
0
LINE
5
16F
100
AcDbEntity
8
cable_tie_holder
6
ByLayer
62
256
370
-1
100
AcDbLine
10
2.525
20
17.75
11
3.41
21
17.75
0
LINE
5
170
100
AcDbEntity
8
cable_tie_holder
6
ByLayer
62
256
370
-1
100
AcDbLine
10
3.41
20
17.75
11
3.41
21
18.375
0
LINE
5
171
100
AcDbEntity
8
cable_tie_holder
6
ByLayer
62
256
370
-1
100
AcDbLine
10
3.41
20
18.375
11
2.525
21
18.375
0
LINE
5
172
100
AcDbEntity
8
cable_tie_holder
6
ByLayer
62
256
370
-1
100
AcDbLine
10
2.525
20
18.375
11
2.525
21
17.75
0
CIRCLE
5
173
100
AcDbEntity
8
cable_tie_holder
6
ByLayer
62
256
370
-1
100
AcDbCircle
10
2.9675
20
18.0625
40
0.13
0
LINE
5
174
100
AcDbEntity
8
cable_tie_holder
6
ByLayer
62
256
370
-1
100
AcDbLine
10
11.825
20
25.3
11
12.71
21
25.3
0
LINE
5
175
100
AcDbEntity
8
cable_tie_holder
6
ByLayer
62
256
370
-1
100
AcDbLine
10
12.71
20
25.3
11
12.71
21
25.925
0
LINE
5
176
100
AcDbEntity
8
cable_tie_holder
6
ByLayer
62
256
370
-1
100
AcDbLine
10
12.71
20
25.925
11
11.825
21
25.925
0
LINE
5
177
100
AcDbEntity
8
cable_tie_holder
6
ByLayer
62
256
370
-1
100
AcDbLine
10
11.825
20
25.925
11
11.825
21
25.3
0
CIRCLE
5
178
100
AcDbEntity
8
cable_tie_holder
6
ByLayer
62
256
370
-1
100
AcDbCircle
10
12.2675
20
25.6125
40
0.13
0
LINE
5
179
100
AcDbEntity
8
cable_tie_holder
6
ByLayer
62
256
370
-1
100
AcDbLine
10
11.825
20
22.915
11
12.71
21
22.915
0
LINE
5
17A
100
AcDbEntity
8
cable_tie_holder
6
ByLayer
62
256
370
-1
100
AcDbLine
10
12.71
20
22.915
11
12.71
21
23.54
0
LINE
5
17B
100
AcDbEntity
8
cable_tie_holder
6
ByLayer
62
256
370
-1
100
AcDbLine
10
12.71
20
23.54
11
11.825
21
23.54
0
LINE
5
17C
100
AcDbEntity
8
cable_tie_holder
6
ByLayer
62
256
370
-1
100
AcDbLine
10
11.825
20
23.54
11
11.825
21
22.915
0
CIRCLE
5
17D
100
AcDbEntity
8
cable_tie_holder
6
ByLayer
62
256
370
-1
100
AcDbCircle
10
12.2675
20
23.2275
40
0.13
0
LINE
5
17E
100
AcDbEntity
8
cable_tie_holder
6
ByLayer
62
256
370
-1
100
AcDbLine
10
11.825
20
20.135
11
12.71
21
20.135
0
LINE
5
17F
100
AcDbEntity
8
cable_tie_holder
6
ByLayer
62
256
370
-1
100
AcDbLine
10
12.71
20
20.135
11
12.71
21
20.76
0
LINE
5
180
100
AcDbEntity
8
cable_tie_holder
6
ByLayer
62
256
370
-1
100
AcDbLine
10
12.71
20
20.76
11
11.825
21
20.76
0
LINE
5
181
100
AcDbEntity
8
cable_tie_holder
6
ByLayer
62
256
370
-1
100
AcDbLine
10
11.825
20
20.76
11
11.825
21
20.135
0
CIRCLE
5
182
100
AcDbEntity
8
cable_tie_holder
6
ByLayer
62
256
370
-1
100
AcDbCircle
10
12.2675
20
20.4475
40
0.13
0
LINE
5
183
100
AcDbEntity
8
cable_tie_holder
6
ByLayer
62
256
370
-1
100
AcDbLine
10
11.825
20
17.75
11
12.71
21
17.75
0
LINE
5
184
100
AcDbEntity
8
cable_tie_holder
6
ByLayer
62
256
370
-1
100
AcDbLine
10
12.71
20
17.75
11
12.71
21
18.375
0
LINE
5
185
100
AcDbEntity
8
cable_tie_holder
6
ByLayer
62
256
370
-1
100
AcDbLine
10
12.71
20
18.375
11
11.825
21
18.375
0
LINE
5
186
100
AcDbEntity
8
cable_tie_holder
6
ByLayer
62
256
370
-1
100
AcDbLine
10
11.825
20
18.375
11
11.825
21
17.75
0
CIRCLE
5
187
100
AcDbEntity
8
cable_tie_holder
6
ByLayer
62
256
370
-1
100
AcDbCircle
10
12.2675
20
18.0625
40
0.13
0
LINE
5
188
100
AcDbEntity
8
cable_tie_holder
6
ByLayer
62
256
370
-1
100
AcDbLine
10
5.125
20
33.915
11
5.125
21
34.8
0
LINE
5
189
100
AcDbEntity
8
cable_tie_holder
6
ByLayer
62
256
370
-1
100
AcDbLine
10
5.125
20
34.8
11
4.5
21
34.8
0
LINE
5
18A
100
AcDbEntity
8
cable_tie_holder
6
ByLayer
62
256
370
-1
100
AcDbLine
10
4.5
20
34.8
11
4.5
21
33.915
0
LINE
5
18B
100
AcDbEntity
8
cable_tie_holder
6
ByLayer
62
256
370
-1
100
AcDbLine
10
4.5
20
33.915
11
5.125
21
33.915
0
CIRCLE
5
18C
100
AcDbEntity
8
cable_tie_holder
6
ByLayer
62
256
370
-1
100
AcDbCircle
10
4.8125
20
34.3575
40
0.13
0
LINE
5
18D
100
AcDbEntity
8
cable_tie_holder
6
ByLayer
62
256
370
-1
100
AcDbLine
10
9.625
20
33.915
11
9.625
21
34.8
0
LINE
5
18E
100
AcDbEntity
8
cable_tie_holder
6
ByLayer
62
256
370
-1
100
AcDbLine
10
9.625
20
34.8
11
9
21
34.8
0
LINE
5
18F
100
AcDbEntity
8
cable_tie_holder
6
ByLayer
62
256
370
-1
100
AcDbLine
10
9
20
34.8
11
9
21
33.915
0
LINE
5
190
100
AcDbEntity
8
cable_tie_holder
6
ByLayer
62
256
370
-1
100
AcDbLine
10
9
20
33.915
11
9.625
21
33.915
0
CIRCLE
5
191
100
AcDbEntity
8
cable_tie_holder
6
ByLayer
62
256
370
-1
100
AcDbCircle
10
9.3125
20
34.3575
40
0.13
0
LINE
5
192
100
AcDbEntity
8
cable_tie_holder
6
ByLayer
62
256
370
-1
100
AcDbLine
10
14.125
20
33.915
11
14.125
21
34.8
0
LINE
5
193
100
AcDbEntity
8
cable_tie_holder
6
ByLayer
62
256
370
-1
100
AcDbLine
10
14.125
20
34.8
11
13.5
21
34.8
0
LINE
5
194
100
AcDbEntity
8
cable_tie_holder
6
ByLayer
62
256
370
-1
100
AcDbLine
10
13.5
20
34.8
11
13.5
21
33.915
0
LINE
5
195
100
AcDbEntity
8
cable_tie_holder
6
ByLayer
62
256
370
-1
100
AcDbLine
10
13.5
20
33.915
11
14.125
21
33.915
0
CIRCLE
5
196
100
AcDbEntity
8
cable_tie_holder
6
ByLayer
62
256
370
-1
100
AcDbCircle
10
13.8125
20
34.3575
40
0.13
0
CIRCLE
5
197
100
AcDbEntity
8
15/16_through_hole
6
ByLayer
62
256
370
-1
100
AcDbCircle
10
9
20
0.4
40
0.1615
0
CIRCLE
5
198
100
AcDbEntity
8
15/16_through_hole
6
ByLayer
62
256
370
-1
100
AcDbCircle
10
10.5
20
0.4
40
0.1615
0
CIRCLE
5
199
100
AcDbEntity
8
15/16_through_hole
6
ByLayer
62
256
370
-1
100
AcDbCircle
10
7.5
20
0.4
40
0.1615
0
CIRCLE
5
19A
100
AcDbEntity
8
15/16_through_hole
6
ByLayer
62
256
370
-1
100
AcDbCircle
10
9
20
35.6
40
0.1615
0
CIRCLE
5
19B
100
AcDbEntity
8
15/16_through_hole
6
ByLayer
62
256
370
-1
100
AcDbCircle
10
7.5
20
35.6
40
0.1615
0
CIRCLE
5
19C
100
AcDbEntity
8
15/16_through_hole
6
ByLayer
62
256
370
-1
100
AcDbCircle
10
10.5
20
35.6
40
0.1615
0
CIRCLE
5
19D
100
AcDbEntity
8
15/16_washers
6
ByLayer
62
256
370
-1
100
AcDbCircle
10
7.5
20
35.6
40
0.375
0
CIRCLE
5
19E
100
AcDbEntity
8
15/16_washers
6
ByLayer
62
256
370
-1
100
AcDbCircle
10
9
20
35.6
40
0.375
0
CIRCLE
5
19F
100
AcDbEntity
8
15/16_washers
6
ByLayer
62
256
370
-1
100
AcDbCircle
10
10.5
20
35.6
40
0.375
0
CIRCLE
5
1A0
100
AcDbEntity
8
15/16_washers
6
ByLayer
62
256
370
-1
100
AcDbCircle
10
7.5
20
0.4
40
0.375
0
CIRCLE
5
1A1
100
AcDbEntity
8
15/16_washers
6
ByLayer
62
256
370
-1
100
AcDbCircle
10
9
20
0.4
40
0.375
0
CIRCLE
5
1A2
100
AcDbEntity
8
15/16_washers
6
ByLayer
62
256
370
-1
100
AcDbCircle
10
10.5
20
0.4
40
0.375
0
CIRCLE
5
1A3
100
AcDbEntity
8
15/16_through_hole
6
ByLayer
62
256
370
-1
100
AcDbCircle
10
8.99999999999
20
13.4962598425
40
0.1615
0
CIRCLE
5
1A4
100
AcDbEntity
8
15/16_through_hole
6
ByLayer
62
256
370
-1
100
AcDbCircle
10
7.49999999999
20
13.4962598425
40
0.1615
0
CIRCLE
5
1A5
100
AcDbEntity
8
15/16_through_hole
6
ByLayer
62
256
370
-1
100
AcDbCircle
10
10.5
20
13.4962598425
40
0.1615
0
CIRCLE
5
1A6
100
AcDbEntity
8
15/16_washers
6
ByLayer
62
256
370
-1
100
AcDbCircle
10
10.5
20
13.4962598425
40
0.375
0
CIRCLE
5
1A7
100
AcDbEntity
8
15/16_washers
6
ByLayer
62
256
370
-1
100
AcDbCircle
10
8.99999999999
20
13.4962598425
40
0.375
0
CIRCLE
5
1A8
100
AcDbEntity
8
15/16_washers
6
ByLayer
62
256
370
-1
100
AcDbCircle
10
7.49999999999
20
13.4962598425
40
0.375
0
LINE
5
1A9
100
AcDbEntity
8
cable_tie_holder
6
ByLayer
62
256
370
-1
100
AcDbLine
10
4.8125
20
28.115
11
4.8125
21
29
0
LINE
5
1AA
100
AcDbEntity
8
cable_tie_holder
6
ByLayer
62
256
370
-1
100
AcDbLine
10
4.8125
20
29
11
4.1875
21
29
0
LINE
5
1AB
100
AcDbEntity
8
cable_tie_holder
6
ByLayer
62
256
370
-1
100
AcDbLine
10
4.1875
20
29
11
4.1875
21
28.115
0
LINE
5
1AC
100
AcDbEntity
8
cable_tie_holder
6
ByLayer
62
256
370
-1
100
AcDbLine
10
4.1875
20
28.115
11
4.8125
21
28.115
0
CIRCLE
5
1AD
100
AcDbEntity
8
cable_tie_holder
6
ByLayer
62
256
370
-1
100
AcDbCircle
10
4.5
20
28.5575
40
0.13
0
LINE
5
1AE
100
AcDbEntity
8
cable_tie_holder
6
ByLayer
62
256
370
-1
100
AcDbLine
10
5.4375
20
27.03
11
5.4375
21
27.915
0
LINE
5
1AF
100
AcDbEntity
8
cable_tie_holder
6
ByLayer
62
256
370
-1
100
AcDbLine
10
5.4375
20
27.915
11
4.8125
21
27.915
0
LINE
5
1B0
100
AcDbEntity
8
cable_tie_holder
6
ByLayer
62
256
370
-1
100
AcDbLine
10
4.8125
20
27.915
11
4.8125
21
27.03
0
LINE
5
1B1
100
AcDbEntity
8
cable_tie_holder
6
ByLayer
62
256
370
-1
100
AcDbLine
10
4.8125
20
27.03
11
5.4375
21
27.03
0
CIRCLE
5
1B2
100
AcDbEntity
8
cable_tie_holder
6
ByLayer
62
256
370
-1
100
AcDbCircle
10
5.125
20
27.4725
40
0.13
0
LINE
5
1B3
100
AcDbEntity
8
cable_tie_holder
6
ByLayer
62
256
370
-1
100
AcDbLine
10
9
20
28.115
11
9
21
29
0
LINE
5
1B4
100
AcDbEntity
8
cable_tie_holder
6
ByLayer
62
256
370
-1
100
AcDbLine
10
9
20
29
11
8.375
21
29
0
LINE
5
1B5
100
AcDbEntity
8
cable_tie_holder
6
ByLayer
62
256
370
-1
100
AcDbLine
10
8.375
20
29
11
8.375
21
28.115
0
LINE
5
1B6
100
AcDbEntity
8
cable_tie_holder
6
ByLayer
62
256
370
-1
100
AcDbLine
10
8.375
20
28.115
11
9
21
28.115
0
CIRCLE
5
1B7
100
AcDbEntity
8
cable_tie_holder
6
ByLayer
62
256
370
-1
100
AcDbCircle
10
8.6875
20
28.5575
40
0.13
0
LINE
5
1B8
100
AcDbEntity
8
cable_tie_holder
6
ByLayer
62
256
370
-1
100
AcDbLine
10
9.625
20
27.03
11
9.625
21
27.915
0
LINE
5
1B9
100
AcDbEntity
8
cable_tie_holder
6
ByLayer
62
256
370
-1
100
AcDbLine
10
9.625
20
27.915
11
9
21
27.915
0
LINE
5
1BA
100
AcDbEntity
8
cable_tie_holder
6
ByLayer
62
256
370
-1
100
AcDbLine
10
9
20
27.915
11
9
21
27.03
0
LINE
5
1BB
100
AcDbEntity
8
cable_tie_holder
6
ByLayer
62
256
370
-1
100
AcDbLine
10
9
20
27.03
11
9.625
21
27.03
0
CIRCLE
5
1BC
100
AcDbEntity
8
cable_tie_holder
6
ByLayer
62
256
370
-1
100
AcDbCircle
10
9.3125
20
27.4725
40
0.13
0
LINE
5
1BD
100
AcDbEntity
8
cable_tie_holder
6
ByLayer
62
256
370
-1
100
AcDbLine
10
13.1875
20
28.115
11
13.1875
21
29
0
LINE
5
1BE
100
AcDbEntity
8
cable_tie_holder
6
ByLayer
62
256
370
-1
100
AcDbLine
10
13.1875
20
29
11
12.5625
21
29
0
LINE
5
1BF
100
AcDbEntity
8
cable_tie_holder
6
ByLayer
62
256
370
-1
100
AcDbLine
10
12.5625
20
29
11
12.5625
21
28.115
0
LINE
5
1C0
100
AcDbEntity
8
cable_tie_holder
6
ByLayer
62
256
370
-1
100
AcDbLine
10
12.5625
20
28.115
11
13.1875
21
28.115
0
CIRCLE
5
1C1
100
AcDbEntity
8
cable_tie_holder
6
ByLayer
62
256
370
-1
100
AcDbCircle
10
12.875
20
28.5575
40
0.13
0
LINE
5
1C2
100
AcDbEntity
8
cable_tie_holder
6
ByLayer
62
256
370
-1
100
AcDbLine
10
13.8125
20
27.03
11
13.8125
21
27.915
0
LINE
5
1C3
100
AcDbEntity
8
cable_tie_holder
6
ByLayer
62
256
370
-1
100
AcDbLine
10
13.8125
20
27.915
11
13.1875
21
27.915
0
LINE
5
1C4
100
AcDbEntity
8
cable_tie_holder
6
ByLayer
62
256
370
-1
100
AcDbLine
10
13.1875
20
27.915
11
13.1875
21
27.03
0
LINE
5
1C5
100
AcDbEntity
8
cable_tie_holder
6
ByLayer
62
256
370
-1
100
AcDbLine
10
13.1875
20
27.03
11
13.8125
21
27.03
0
CIRCLE
5
1C6
100
AcDbEntity
8
cable_tie_holder
6
ByLayer
62
256
370
-1
100
AcDbCircle
10
13.5
20
27.4725
40
0.13
0
ARC
5
1C7
100
AcDbEntity
8
boundary
6
ByLayer
62
256
370
-1
100
AcDbCircle
10
0.25
20
35.75
40
0.25
100
AcDbArc
50
90
51
180
0
LINE
5
1C8
100
AcDbEntity
8
boundary
6
ByLayer
62
256
370
-1
100
AcDbLine
10
17.75
20
36
11
0.25
21
36
0
ARC
5
1C9
100
AcDbEntity
8
boundary
6
ByLayer
62
256
370
-1
100
AcDbCircle
10
17.75
20
35.75
40
0.25
100
AcDbArc
50
0
51
90
0
LINE
5
1CA
100
AcDbEntity
8
boundary
6
ByLayer
62
256
370
-1
100
AcDbLine
10
18
20
0.25
11
18
21
35.75
0
ARC
5
1CB
100
AcDbEntity
8
boundary
6
ByLayer
62
256
370
-1
100
AcDbCircle
10
17.75
20
0.25
40
0.25
100
AcDbArc
50
270
51
0
0
LINE
5
1CC
100
AcDbEntity
8
boundary
6
ByLayer
62
256
370
-1
100
AcDbLine
10
0
20
35.75
11
0
21
0.25
0
LINE
5
1CD
100
AcDbEntity
8
boundary
6
ByLayer
62
256
370
-1
100
AcDbLine
10
0.25
20
0
11
17.75
21
0
0
ARC
5
1CE
100
AcDbEntity
8
boundary
6
ByLayer
62
256
370
-1
100
AcDbCircle
10
0.25
20
0.25
40
0.25
100
AcDbArc
50
180
51
270
0
LINE
5
1CF
100
AcDbEntity
8
cable_tie_holder
6
ByLayer
62
256
370
-1
100
AcDbLine
10
0.825
20
28.115
11
0.825
21
29
0
LINE
5
1D0
100
AcDbEntity
8
cable_tie_holder
6
ByLayer
62
256
370
-1
100
AcDbLine
10
0.825
20
29
11
0.2
21
29
0
LINE
5
1D1
100
AcDbEntity
8
cable_tie_holder
6
ByLayer
62
256
370
-1
100
AcDbLine
10
0.2
20
29
11
0.2
21
28.115
0
LINE
5
1D2
100
AcDbEntity
8
cable_tie_holder
6
ByLayer
62
256
370
-1
100
AcDbLine
10
0.2
20
28.115
11
0.825
21
28.115
0
CIRCLE
5
1D3
100
AcDbEntity
8
cable_tie_holder
6
ByLayer
62
256
370
-1
100
AcDbCircle
10
0.5125
20
28.5575
40
0.13
0
LINE
5
1D4
100
AcDbEntity
8
cable_tie_holder
6
ByLayer
62
256
370
-1
100
AcDbLine
10
1.45
20
27.03
11
1.45
21
27.915
0
LINE
5
1D5
100
AcDbEntity
8
cable_tie_holder
6
ByLayer
62
256
370
-1
100
AcDbLine
10
1.45
20
27.915
11
0.825
21
27.915
0
LINE
5
1D6
100
AcDbEntity
8
cable_tie_holder
6
ByLayer
62
256
370
-1
100
AcDbLine
10
0.825
20
27.915
11
0.825
21
27.03
0
LINE
5
1D7
100
AcDbEntity
8
cable_tie_holder
6
ByLayer
62
256
370
-1
100
AcDbLine
10
0.825
20
27.03
11
1.45
21
27.03
0
CIRCLE
5
1D8
100
AcDbEntity
8
cable_tie_holder
6
ByLayer
62
256
370
-1
100
AcDbCircle
10
1.1375
20
27.4725
40
0.13
0
LINE
5
1D9
100
AcDbEntity
8
cable_tie_holder
6
ByLayer
62
256
370
-1
100
AcDbLine
10
0.825
20
33.915
11
0.825
21
34.8
0
LINE
5
1DA
100
AcDbEntity
8
cable_tie_holder
6
ByLayer
62
256
370
-1
100
AcDbLine
10
0.825
20
34.8
11
0.2
21
34.8
0
LINE
5
1DB
100
AcDbEntity
8
cable_tie_holder
6
ByLayer
62
256
370
-1
100
AcDbLine
10
0.2
20
34.8
11
0.2
21
33.915
0
LINE
5
1DC
100
AcDbEntity
8
cable_tie_holder
6
ByLayer
62
256
370
-1
100
AcDbLine
10
0.2
20
33.915
11
0.825
21
33.915
0
CIRCLE
5
1DD
100
AcDbEntity
8
cable_tie_holder
6
ByLayer
62
256
370
-1
100
AcDbCircle
10
0.5125
20
34.3575
40
0.13
0
LINE
5
1DE
100
AcDbEntity
8
cable_tie_holder
6
ByLayer
62
256
370
-1
100
AcDbLine
10
0.825
20
29.9575
11
0.825
21
30.8425
0
LINE
5
1DF
100
AcDbEntity
8
cable_tie_holder
6
ByLayer
62
256
370
-1
100
AcDbLine
10
0.825
20
30.8425
11
0.2
21
30.8425
0
LINE
5
1E0
100
AcDbEntity
8
cable_tie_holder
6
ByLayer
62
256
370
-1
100
AcDbLine
10
0.2
20
30.8425
11
0.2
21
29.9575
0
LINE
5
1E1
100
AcDbEntity
8
cable_tie_holder
6
ByLayer
62
256
370
-1
100
AcDbLine
10
0.2
20
29.9575
11
0.825
21
29.9575
0
CIRCLE
5
1E2
100
AcDbEntity
8
cable_tie_holder
6
ByLayer
62
256
370
-1
100
AcDbCircle
10
0.5125
20
30.4
40
0.13
0
LINE
5
1E3
100
AcDbEntity
8
cable_tie_holder
6
ByLayer
62
256
370
-1
100
AcDbLine
10
0.825
20
31.415
11
0.825
21
32.3
0
LINE
5
1E4
100
AcDbEntity
8
cable_tie_holder
6
ByLayer
62
256
370
-1
100
AcDbLine
10
0.825
20
32.3
11
0.2
21
32.3
0
LINE
5
1E5
100
AcDbEntity
8
cable_tie_holder
6
ByLayer
62
256
370
-1
100
AcDbLine
10
0.2
20
32.3
11
0.2
21
31.415
0
LINE
5
1E6
100
AcDbEntity
8
cable_tie_holder
6
ByLayer
62
256
370
-1
100
AcDbLine
10
0.2
20
31.415
11
0.825
21
31.415
0
CIRCLE
5
1E7
100
AcDbEntity
8
cable_tie_holder
6
ByLayer
62
256
370
-1
100
AcDbCircle
10
0.5125
20
31.8575
40
0.13
0
LINE
5
1E8
100
AcDbEntity
8
cable_tie_holder
6
ByLayer
62
256
370
-1
100
AcDbLine
10
17.8
20
33.915
11
17.8
21
34.8
0
LINE
5
1E9
100
AcDbEntity
8
cable_tie_holder
6
ByLayer
62
256
370
-1
100
AcDbLine
10
17.8
20
34.8
11
17.175
21
34.8
0
LINE
5
1EA
100
AcDbEntity
8
cable_tie_holder
6
ByLayer
62
256
370
-1
100
AcDbLine
10
17.175
20
34.8
11
17.175
21
33.915
0
LINE
5
1EB
100
AcDbEntity
8
cable_tie_holder
6
ByLayer
62
256
370
-1
100
AcDbLine
10
17.175
20
33.915
11
17.8
21
33.915
0
CIRCLE
5
1EC
100
AcDbEntity
8
cable_tie_holder
6
ByLayer
62
256
370
-1
100
AcDbCircle
10
17.4875
20
34.3575
40
0.13
0
LINE
5
1ED
100
AcDbEntity
8
cable_tie_holder
6
ByLayer
62
256
370
-1
100
AcDbLine
10
16.4290414499
20
31.1475
11
16.4290414499
21
32.0325
0
LINE
5
1EE
100
AcDbEntity
8
cable_tie_holder
6
ByLayer
62
256
370
-1
100
AcDbLine
10
16.4290414499
20
32.0325
11
15.8040414499
21
32.0325
0
LINE
5
1EF
100
AcDbEntity
8
cable_tie_holder
6
ByLayer
62
256
370
-1
100
AcDbLine
10
15.8040414499
20
32.0325
11
15.8040414499
21
31.1475
0
LINE
5
1F0
100
AcDbEntity
8
cable_tie_holder
6
ByLayer
62
256
370
-1
100
AcDbLine
10
15.8040414499
20
31.1475
11
16.4290414499
21
31.1475
0
CIRCLE
5
1F1
100
AcDbEntity
8
cable_tie_holder
6
ByLayer
62
256
370
-1
100
AcDbCircle
10
16.1165414499
20
31.59
40
0.13
0
LINE
5
1F2
100
AcDbEntity
8
cable_tie_holder
6
ByLayer
62
256
370
-1
100
AcDbLine
10
17.7440925411
20
31.1475
11
17.7440925411
21
32.0325
0
LINE
5
1F3
100
AcDbEntity
8
cable_tie_holder
6
ByLayer
62
256
370
-1
100
AcDbLine
10
17.7440925411
20
32.0325
11
17.1190925411
21
32.0325
0
LINE
5
1F4
100
AcDbEntity
8
cable_tie_holder
6
ByLayer
62
256
370
-1
100
AcDbLine
10
17.1190925411
20
32.0325
11
17.1190925411
21
31.1475
0
LINE
5
1F5
100
AcDbEntity
8
cable_tie_holder
6
ByLayer
62
256
370
-1
100
AcDbLine
10
17.1190925411
20
31.1475
11
17.7440925411
21
31.1475
0
CIRCLE
5
1F6
100
AcDbEntity
8
cable_tie_holder
6
ByLayer
62
256
370
-1
100
AcDbCircle
10
17.4315925411
20
31.59
40
0.13
0
LINE
5
1F7
100
AcDbEntity
8
cable_tie_holder
6
ByLayer
62
256
370
-1
100
AcDbLine
10
17.175
20
28.115
11
17.175
21
29
0
LINE
5
1F8
100
AcDbEntity
8
cable_tie_holder
6
ByLayer
62
256
370
-1
100
AcDbLine
10
17.175
20
29
11
16.55
21
29
0
LINE
5
1F9
100
AcDbEntity
8
cable_tie_holder
6
ByLayer
62
256
370
-1
100
AcDbLine
10
16.55
20
29
11
16.55
21
28.115
0
LINE
5
1FA
100
AcDbEntity
8
cable_tie_holder
6
ByLayer
62
256
370
-1
100
AcDbLine
10
16.55
20
28.115
11
17.175
21
28.115
0
CIRCLE
5
1FB
100
AcDbEntity
8
cable_tie_holder
6
ByLayer
62
256
370
-1
100
AcDbCircle
10
16.8625
20
28.5575
40
0.13
0
LINE
5
1FC
100
AcDbEntity
8
cable_tie_holder
6
ByLayer
62
256
370
-1
100
AcDbLine
10
17.8
20
27.03
11
17.8
21
27.915
0
LINE
5
1FD
100
AcDbEntity
8
cable_tie_holder
6
ByLayer
62
256
370
-1
100
AcDbLine
10
17.8
20
27.915
11
17.175
21
27.915
0
LINE
5
1FE
100
AcDbEntity
8
cable_tie_holder
6
ByLayer
62
256
370
-1
100
AcDbLine
10
17.175
20
27.915
11
17.175
21
27.03
0
LINE
5
1FF
100
AcDbEntity
8
cable_tie_holder
6
ByLayer
62
256
370
-1
100
AcDbLine
10
17.175
20
27.03
11
17.8
21
27.03
0
CIRCLE
5
200
100
AcDbEntity
8
cable_tie_holder
6
ByLayer
62
256
370
-1
100
AcDbCircle
10
17.4875
20
27.4725
40
0.13
0
CIRCLE
5
201
100
AcDbEntity
8
10-32_insert_hole
6
ByLayer
62
256
370
-1
100
AcDbCircle
10
0.5125
20
34.3575
40
0.13625
0
CIRCLE
5
202
100
AcDbEntity
8
10-32_insert_hole
6
ByLayer
62
256
370
-1
100
AcDbCircle
10
4.8125
20
34.3575
40
0.13625
0
CIRCLE
5
203
100
AcDbEntity
8
10-32_insert_hole
6
ByLayer
62
256
370
-1
100
AcDbCircle
10
9.3125
20
34.3575
40
0.13625
0
CIRCLE
5
204
100
AcDbEntity
8
10-32_insert_hole
6
ByLayer
62
256
370
-1
100
AcDbCircle
10
13.8125
20
34.3575
40
0.13625
0
CIRCLE
5
205
100
AcDbEntity
8
10-32_insert_hole
6
ByLayer
62
256
370
-1
100
AcDbCircle
10
17.4875
20
34.3575
40
0.13625
0
CIRCLE
5
206
100
AcDbEntity
8
10-32_insert_hole
6
ByLayer
62
256
370
-1
100
AcDbCircle
10
17.4315925411
20
31.59
40
0.13625
0
CIRCLE
5
207
100
AcDbEntity
8
10-32_insert_hole
6
ByLayer
62
256
370
-1
100
AcDbCircle
10
16.1165414499
20
31.59
40
0.13625
0
CIRCLE
5
208
100
AcDbEntity
8
10-32_insert_hole
6
ByLayer
62
256
370
-1
100
AcDbCircle
10
0.5125
20
31.8575
40
0.13625
0
CIRCLE
5
209
100
AcDbEntity
8
10-32_insert_hole
6
ByLayer
62
256
370
-1
100
AcDbCircle
10
0.5125
20
30.4
40
0.13625
0
CIRCLE
5
20A
100
AcDbEntity
8
10-32_insert_hole
6
ByLayer
62
256
370
-1
100
AcDbCircle
10
0.5125
20
28.5575
40
0.13625
0
CIRCLE
5
20B
100
AcDbEntity
8
10-32_insert_hole
6
ByLayer
62
256
370
-1
100
AcDbCircle
10
1.1375
20
27.4725
40
0.13625
0
CIRCLE
5
20C
100
AcDbEntity
8
10-32_insert_hole
6
ByLayer
62
256
370
-1
100
AcDbCircle
10
4.5
20
28.5575
40
0.13625
0
CIRCLE
5
20D
100
AcDbEntity
8
10-32_insert_hole
6
ByLayer
62
256
370
-1
100
AcDbCircle
10
5.125
20
27.4725
40
0.13625
0
CIRCLE
5
20E
100
AcDbEntity
8
10-32_insert_hole
6
ByLayer
62
256
370
-1
100
AcDbCircle
10
2.9675
20
25.6125
40
0.13625
0
CIRCLE
5
20F
100
AcDbEntity
8
10-32_insert_hole
6
ByLayer
62
256
370
-1
100
AcDbCircle
10
3.8525
20
24.7875
40
0.13625
0
CIRCLE
5
210
100
AcDbEntity
8
10-32_insert_hole
6
ByLayer
62
256
370
-1
100
AcDbCircle
10
8.6875
20
28.5575
40
0.13625
0
CIRCLE
5
211
100
AcDbEntity
8
10-32_insert_hole
6
ByLayer
62
256
370
-1
100
AcDbCircle
10
9.3125
20
27.4725
40
0.13625
0
CIRCLE
5
212
100
AcDbEntity
8
10-32_insert_hole
6
ByLayer
62
256
370
-1
100
AcDbCircle
10
12.875
20
28.5575
40
0.13625
0
CIRCLE
5
213
100
AcDbEntity
8
10-32_insert_hole
6
ByLayer
62
256
370
-1
100
AcDbCircle
10
13.5
20
27.4725
40
0.13625
0
CIRCLE
5
214
100
AcDbEntity
8
10-32_insert_hole
6
ByLayer
62
256
370
-1
100
AcDbCircle
10
16.8625
20
28.5575
40
0.13625
0
CIRCLE
5
215
100
AcDbEntity
8
10-32_insert_hole
6
ByLayer
62
256
370
-1
100
AcDbCircle
10
17.4875
20
27.4725
40
0.13625
0
CIRCLE
5
216
100
AcDbEntity
8
10-32_insert_hole
6
ByLayer
62
256
370
-1
100
AcDbCircle
10
13.1525
20
24.7875
40
0.13625
0
CIRCLE
5
217
100
AcDbEntity
8
10-32_insert_hole
6
ByLayer
62
256
370
-1
100
AcDbCircle
10
12.2675
20
25.6125
40
0.13625
0
CIRCLE
5
218
100
AcDbEntity
8
10-32_insert_hole
6
ByLayer
62
256
370
-1
100
AcDbCircle
10
12.2675
20
23.2275
40
0.13625
0
CIRCLE
5
219
100
AcDbEntity
8
10-32_insert_hole
6
ByLayer
62
256
370
-1
100
AcDbCircle
10
2.9675
20
23.2275
40
0.13625
0
CIRCLE
5
21A
100
AcDbEntity
8
10-32_insert_hole
6
ByLayer
62
256
370
-1
100
AcDbCircle
10
3.8525
20
22.4025
40
0.13625
0
CIRCLE
5
21B
100
AcDbEntity
8
10-32_insert_hole
6
ByLayer
62
256
370
-1
100
AcDbCircle
10
2.9675
20
20.4475
40
0.13625
0
CIRCLE
5
21C
100
AcDbEntity
8
10-32_insert_hole
6
ByLayer
62
256
370
-1
100
AcDbCircle
10
3.8525
20
19.6225
40
0.13625
0
CIRCLE
5
21D
100
AcDbEntity
8
10-32_insert_hole
6
ByLayer
62
256
370
-1
100
AcDbCircle
10
13.1525
20
22.4025
40
0.13625
0
CIRCLE
5
21E
100
AcDbEntity
8
10-32_insert_hole
6
ByLayer
62
256
370
-1
100
AcDbCircle
10
12.2675
20
20.4475
40
0.13625
0
CIRCLE
5
21F
100
AcDbEntity
8
10-32_insert_hole
6
ByLayer
62
256
370
-1
100
AcDbCircle
10
13.1525
20
19.6225
40
0.13625
0
CIRCLE
5
220
100
AcDbEntity
8
10-32_insert_hole
6
ByLayer
62
256
370
-1
100
AcDbCircle
10
2.9675
20
18.0625
40
0.13625
0
CIRCLE
5
221
100
AcDbEntity
8
10-32_insert_hole
6
ByLayer
62
256
370
-1
100
AcDbCircle
10
3.8525
20
17.2375
40
0.13625
0
CIRCLE
5
222
100
AcDbEntity
8
10-32_insert_hole
6
ByLayer
62
256
370
-1
100
AcDbCircle
10
12.2675
20
18.0625
40
0.13625
0
CIRCLE
5
223
100
AcDbEntity
8
10-32_insert_hole
6
ByLayer
62
256
370
-1
100
AcDbCircle
10
13.1525
20
17.2375
40
0.13625
0
CIRCLE
5
224
100
AcDbEntity
8
10-32_insert_hole
6
ByLayer
62
256
370
-1
100
AcDbCircle
10
5.8
20
25.975
40
0.13625
0
CIRCLE
5
225
100
AcDbEntity
8
10-32_insert_hole
6
ByLayer
62
256
370
-1
100
AcDbCircle
10
7.8
20
25.975
40
0.13625
0
CIRCLE
5
226
100
AcDbEntity
8
10-32_insert_hole
6
ByLayer
62
256
370
-1
100
AcDbCircle
10
5.8
20
16.875
40
0.13625
0
CIRCLE
5
227
100
AcDbEntity
8
10-32_insert_hole
6
ByLayer
62
256
370
-1
100
AcDbCircle
10
7.8
20
16.875
40
0.13625
0
CIRCLE
5
228
100
AcDbEntity
8
10-32_insert_hole
6
ByLayer
62
256
370
-1
100
AcDbCircle
10
15.1
20
16.875
40
0.13625
0
CIRCLE
5
229
100
AcDbEntity
8
10-32_insert_hole
6
ByLayer
62
256
370
-1
100
AcDbCircle
10
17.1
20
16.875
40
0.13625
0
CIRCLE
5
22A
100
AcDbEntity
8
10-32_insert_hole
6
ByLayer
62
256
370
-1
100
AcDbCircle
10
15.1
20
25.975
40
0.13625
0
CIRCLE
5
22B
100
AcDbEntity
8
10-32_insert_hole
6
ByLayer
62
256
370
-1
100
AcDbCircle
10
17.1
20
25.975
40
0.13625
0
CIRCLE
5
22C
100
AcDbEntity
8
6-32_insert_hole
6
ByLayer
62
256
370
-1
100
AcDbCircle
10
0.625
20
25.2
40
0.102
0
CIRCLE
5
22D
100
AcDbEntity
8
6-32_insert_hole
6
ByLayer
62
256
370
-1
100
AcDbCircle
10
1.625
20
22.815
40
0.102
0
CIRCLE
5
22E
100
AcDbEntity
8
6-32_insert_hole
6
ByLayer
62
256
370
-1
100
AcDbCircle
10
0.625
20
22.815
40
0.102
0
CIRCLE
5
22F
100
AcDbEntity
8
6-32_insert_hole
6
ByLayer
62
256
370
-1
100
AcDbCircle
10
0.625
20
20.035
40
0.102
0
CIRCLE
5
230
100
AcDbEntity
8
6-32_insert_hole
6
ByLayer
62
256
370
-1
100
AcDbCircle
10
1.625
20
20.035
40
0.102
0
CIRCLE
5
231
100
AcDbEntity
8
6-32_insert_hole
6
ByLayer
62
256
370
-1
100
AcDbCircle
10
0.625
20
17.65
40
0.102
0
CIRCLE
5
232
100
AcDbEntity
8
6-32_insert_hole
6
ByLayer
62
256
370
-1
100
AcDbCircle
10
1.625
20
17.65
40
0.102
0
CIRCLE
5
233
100
AcDbEntity
8
6-32_insert_hole
6
ByLayer
62
256
370
-1
100
AcDbCircle
10
9.925
20
17.65
40
0.102
0
CIRCLE
5
234
100
AcDbEntity
8
6-32_insert_hole
6
ByLayer
62
256
370
-1
100
AcDbCircle
10
10.925
20
17.65
40
0.102
0
CIRCLE
5
235
100
AcDbEntity
8
6-32_insert_hole
6
ByLayer
62
256
370
-1
100
AcDbCircle
10
10.925
20
20.035
40
0.102
0
CIRCLE
5
236
100
AcDbEntity
8
6-32_insert_hole
6
ByLayer
62
256
370
-1
100
AcDbCircle
10
9.925
20
20.035
40
0.102
0
CIRCLE
5
237
100
AcDbEntity
8
6-32_insert_hole
6
ByLayer
62
256
370
-1
100
AcDbCircle
10
10.925
20
22.815
40
0.102
0
CIRCLE
5
238
100
AcDbEntity
8
6-32_insert_hole
6
ByLayer
62
256
370
-1
100
AcDbCircle
10
9.925
20
22.815
40
0.102
0
CIRCLE
5
239
100
AcDbEntity
8
6-32_insert_hole
6
ByLayer
62
256
370
-1
100
AcDbCircle
10
10.925
20
25.2
40
0.102
0
CIRCLE
5
23A
100
AcDbEntity
8
6-32_insert_hole
6
ByLayer
62
256
370
-1
100
AcDbCircle
10
9.925
20
25.2
40
0.102
0
CIRCLE
5
23B
100
AcDbEntity
8
6-32_insert_hole
6
ByLayer
62
256
370
-1
100
AcDbCircle
10
1.625
20
25.2
40
0.102
0
CIRCLE
5
23C
100
AcDbEntity
8
4-40_insert_hole
6
ByLayer
62
256
370
-1
100
AcDbCircle
10
3.9
20
33.225
40
0.079
0
CIRCLE
5
23D
100
AcDbEntity
8
4-40_insert_hole
6
ByLayer
62
256
370
-1
100
AcDbCircle
10
3.9
20
29.775
40
0.079
0
CIRCLE
5
23E
100
AcDbEntity
8
4-40_insert_hole
6
ByLayer
62
256
370
-1
100
AcDbCircle
10
14.1
20
29.775
40
0.079
0
CIRCLE
5
23F
100
AcDbEntity
8
4-40_insert_hole
6
ByLayer
62
256
370
-1
100
AcDbCircle
10
14.1
20
33.225
40
0.079
0
CIRCLE
5
240
100
AcDbEntity
8
1/4_through_hole
6
ByLayer
62
256
370
-1
100
AcDbCircle
10
0.5
20
35.5
40
0.1285
0
CIRCLE
5
241
100
AcDbEntity
8
1/4_through_hole
6
ByLayer
62
256
370
-1
100
AcDbCircle
10
17.5
20
35.5
40
0.1285
0
CIRCLE
5
242
100
AcDbEntity
8
1/4_through_hole
6
ByLayer
62
256
370
-1
100
AcDbCircle
10
16.5
20
0.5
40
0.1285
0
CIRCLE
5
243
100
AcDbEntity
8
1/4_through_hole
6
ByLayer
62
256
370
-1
100
AcDbCircle
10
0.5
20
15.5
40
0.1285
0
CIRCLE
5
244
100
AcDbEntity
8
1/4_through_hole
6
ByLayer
62
256
370
-1
100
AcDbCircle
10
17.5
20
15.5
40
0.1285
0
CIRCLE
5
245
100
AcDbEntity
8
10-32_insert_hole
6
ByLayer
62
256
370
-1
100
AcDbCircle
10
1.5
20
35.5
40
0.13625
0
CIRCLE
5
246
100
AcDbEntity
8
10-32_insert_hole
6
ByLayer
62
256
370
-1
100
AcDbCircle
10
16.5
20
35.5
40
0.13625
0
CIRCLE
5
247
100
AcDbEntity
8
10-32_insert_hole
6
ByLayer
62
256
370
-1
100
AcDbCircle
10
1.5
20
15.5
40
0.13625
0
CIRCLE
5
248
100
AcDbEntity
8
10-32_insert_hole
6
ByLayer
62
256
370
-1
100
AcDbCircle
10
15.5
20
0.5
40
0.13625
0
CIRCLE
5
249
100
AcDbEntity
8
10-32_insert_hole
6
ByLayer
62
256
370
-1
100
AcDbCircle
10
16.5
20
15.5
40
0.13625
0
CIRCLE
5
24A
100
AcDbEntity
8
10-32_insert_hole
6
ByLayer
62
256
370
-1
100
AcDbCircle
10
1.5
20
14.5
40
0.13625
0
DIMENSION
5
24B
100
AcDbEntity
8
0
6
ByLayer
62
256
370
-1
100
AcDbDimension
2
*D1
10
22
20
-5.42107231258e-16
30
0
11
21.475
21
18
31
0
70
32
71
5
72
0
3
Standard
53
0
210
0
220
0
230
1
100
AcDbAlignedDimension
13
17.8
23
36
33
0
14
17.8
24
-2.77555756156e-17
34
0
50
90
100
AcDbRotatedDimension
0
DIMENSION
5
24C
100
AcDbEntity
8
0
6
ByLayer
62
256
370
-1
100
AcDbDimension
2
*D2
10
-3.82702124734e-16
20
-6
30
0
11
9
21
-5.475
31
0
70
32
71
5
72
0
3
Standard
53
0
210
0
220
0
230
1
100
AcDbAlignedDimension
13
18
23
0.25
33
0
14
0
24
0.25
34
0
100
AcDbRotatedDimension
0
LINE
5
24D
100
AcDbEntity
8
support_beams
6
ByLayer
62
256
370
-1
100
AcDbLine
10
-4.75
20
39
11
-0.25
21
39
0
LINE
5
24E
100
AcDbEntity
8
support_beams
6
ByLayer
62
256
370
-1
100
AcDbLine
10
-0.25
20
39
11
-0.25
21
-3
0
LINE
5
24F
100
AcDbEntity
8
support_beams
6
ByLayer
62
256
370
-1
100
AcDbLine
10
-0.25
20
-3
11
-4.75
21
-3
0
LINE
5
250
100
AcDbEntity
8
support_beams
6
ByLayer
62
256
370
-1
100
AcDbLine
10
-4.75
20
-3
11
-4.75
21
39
0
LINE
5
251
100
AcDbEntity
8
cable_tie_holder
6
ByLayer
62
256
370
-1
100
AcDbLine
10
0.93499999998
20
0.375
11
0.04999999998
21
0.375
0
LINE
5
252
100
AcDbEntity
8
cable_tie_holder
6
ByLayer
62
256
370
-1
100
AcDbLine
10
0.04999999998
20
0.375
11
0.04999999998
21
1
0
LINE
5
253
100
AcDbEntity
8
cable_tie_holder
6
ByLayer
62
256
370
-1
100
AcDbLine
10
0.04999999998
20
1
11
0.93499999998
21
1
0
LINE
5
254
100
AcDbEntity
8
cable_tie_holder
6
ByLayer
62
256
370
-1
100
AcDbLine
10
0.93499999998
20
1
11
0.93499999998
21
0.375
0
CIRCLE
5
255
100
AcDbEntity
8
cable_tie_holder
6
ByLayer
62
256
370
-1
100
AcDbCircle
10
0.49249999998
20
0.6875
40
0.13
0
CIRCLE
5
256
100
AcDbEntity
8
10-32_insert_hole
6
ByLayer
62
256
370
-1
100
AcDbCircle
10
0.49249999998
20
0.6875
40
0.13625
0
CIRCLE
5
257
100
AcDbEntity
8
10-32_insert_hole
6
ByLayer
62
256
370
-1
100
AcDbCircle
10
14.25
20
12.7462598425
40
0.13625
0
CIRCLE
5
258
100
AcDbEntity
8
10-32_insert_hole
6
ByLayer
62
256
370
-1
100
AcDbCircle
10
8.99999999999
20
12.7462598425
40
0.13625
0
CIRCLE
5
259
100
AcDbEntity
8
10-32_insert_hole
6
ByLayer
62
256
370
-1
100
AcDbCircle
10
3.74999999998
20
12.7462598425
40
0.13625
0
CIRCLE
5
25A
100
AcDbEntity
8
10-32_insert_hole
6
ByLayer
62
256
370
-1
100
AcDbCircle
10
14.25
20
1.3
40
0.13625
0
CIRCLE
5
25B
100
AcDbEntity
8
10-32_insert_hole
6
ByLayer
62
256
370
-1
100
AcDbCircle
10
8.99999999999
20
1.3
40
0.13625
0
CIRCLE
5
25C
100
AcDbEntity
8
10-32_insert_hole
6
ByLayer
62
256
370
-1
100
AcDbCircle
10
3.74999999998
20
1.3
40
0.13625
0
LINE
5
25D
100
AcDbEntity
8
power_supply_plate
6
ByLayer
62
256
370
-1
100
AcDbLine
10
6.72244094488
20
6.96062992126
11
6.72244094488
21
7.08562992126
0
CIRCLE
5
25E
100
AcDbEntity
8
power_supply_plate
6
ByLayer
62
256
370
-1
100
AcDbCircle
10
14.25
20
12.7462598425
40
0.099
0
CIRCLE
5
25F
100
AcDbEntity
8
power_supply_plate
6
ByLayer
62
256
370
-1
100
AcDbCircle
10
3.74999999998
20
12.7462598425
40
0.099
0
CIRCLE
5
260
100
AcDbEntity
8
power_supply_plate
6
ByLayer
62
256
370
-1
100
AcDbCircle
10
14.25
20
1.3
40
0.099
0
CIRCLE
5
261
100
AcDbEntity
8
power_supply_plate
6
ByLayer
62
256
370
-1
100
AcDbCircle
10
3.74999999998
20
1.3
40
0.099
0
CIRCLE
5
262
100
AcDbEntity
8
power_supply_plate
6
ByLayer
62
256
370
-1
100
AcDbCircle
10
8.99999999999
20
12.7462598425
40
0.099
0
CIRCLE
5
263
100
AcDbEntity
8
power_supply_plate
6
ByLayer
62
256
370
-1
100
AcDbCircle
10
8.99999999999
20
1.3
40
0.099
0
ARC
5
264
100
AcDbEntity
8
power_supply_plate
6
ByLayer
62
256
370
-1
100
AcDbCircle
10
16.625
20
12.9212598425
40
0.125
100
AcDbArc
50
360
51
90
0
LINE
5
265
100
AcDbEntity
8
power_supply_plate
6
ByLayer
62
256
370
-1
100
AcDbLine
10
16.625
20
13.0462598425
11
1.37499999998
21
13.0462598425
0
ARC
5
266
100
AcDbEntity
8
power_supply_plate
6
ByLayer
62
256
370
-1
100
AcDbCircle
10
1.37499999998
20
12.9212598425
40
0.125
100
AcDbArc
50
90
51
180
0
LINE
5
267
100
AcDbEntity
8
power_supply_plate
6
ByLayer
62
256
370
-1
100
AcDbLine
10
1.24999999998
20
12.9212598425
11
1.24999999998
21
1.125
0
ARC
5
268
100
AcDbEntity
8
power_supply_plate
6
ByLayer
62
256
370
-1
100
AcDbCircle
10
1.37499999998
20
1.125
40
0.125
100
AcDbArc
50
180
51
270
0
LINE
5
269
100
AcDbEntity
8
power_supply_plate
6
ByLayer
62
256
370
-1
100
AcDbLine
10
16.75
20
1.125
11
16.75
21
12.9212598425
0
LINE
5
26A
100
AcDbEntity
8
power_supply_plate
6
ByLayer
62
256
370
-1
100
AcDbLine
10
1.37499999998
20
1
11
16.625
21
1
0
ARC
5
26B
100
AcDbEntity
8
power_supply_plate
6
ByLayer
62
256
370
-1
100
AcDbCircle
10
16.625
20
1.125
40
0.125
100
AcDbArc
50
270
51
360
0
LINE
5
26C
100
AcDbEntity
8
cable_tie_holder
6
ByLayer
62
256
370
-1
100
AcDbLine
10
6.8125
20
14.5575
11
6.8125
21
15.4425
0
LINE
5
26D
100
AcDbEntity
8
cable_tie_holder
6
ByLayer
62
256
370
-1
100
AcDbLine
10
6.8125
20
15.4425
11
6.1875
21
15.4425
0
LINE
5
26E
100
AcDbEntity
8
cable_tie_holder
6
ByLayer
62
256
370
-1
100
AcDbLine
10
6.1875
20
15.4425
11
6.1875
21
14.5575
0
LINE
5
26F
100
AcDbEntity
8
cable_tie_holder
6
ByLayer
62
256
370
-1
100
AcDbLine
10
6.1875
20
14.5575
11
6.8125
21
14.5575
0
CIRCLE
5
270
100
AcDbEntity
8
cable_tie_holder
6
ByLayer
62
256
370
-1
100
AcDbCircle
10
6.5
20
15
40
0.13
0
LINE
5
271
100
AcDbEntity
8
cable_tie_holder
6
ByLayer
62
256
370
-1
100
AcDbLine
10
11.8125
20
14.5575
11
11.8125
21
15.4425
0
LINE
5
272
100
AcDbEntity
8
cable_tie_holder
6
ByLayer
62
256
370
-1
100
AcDbLine
10
11.8125
20
15.4425
11
11.1875
21
15.4425
0
LINE
5
273
100
AcDbEntity
8
cable_tie_holder
6
ByLayer
62
256
370
-1
100
AcDbLine
10
11.1875
20
15.4425
11
11.1875
21
14.5575
0
LINE
5
274
100
AcDbEntity
8
cable_tie_holder
6
ByLayer
62
256
370
-1
100
AcDbLine
10
11.1875
20
14.5575
11
11.8125
21
14.5575
0
CIRCLE
5
275
100
AcDbEntity
8
cable_tie_holder
6
ByLayer
62
256
370
-1
100
AcDbCircle
10
11.5
20
15
40
0.13
0
LINE
5
276
100
AcDbEntity
8
cable_tie_holder
6
ByLayer
62
256
370
-1
100
AcDbLine
10
9.3125
20
14.5575
11
9.3125
21
15.4425
0
LINE
5
277
100
AcDbEntity
8
cable_tie_holder
6
ByLayer
62
256
370
-1
100
AcDbLine
10
9.3125
20
15.4425
11
8.6875
21
15.4425
0
LINE
5
278
100
AcDbEntity
8
cable_tie_holder
6
ByLayer
62
256
370
-1
100
AcDbLine
10
8.6875
20
15.4425
11
8.6875
21
14.5575
0
LINE
5
279
100
AcDbEntity
8
cable_tie_holder
6
ByLayer
62
256
370
-1
100
AcDbLine
10
8.6875
20
14.5575
11
9.3125
21
14.5575
0
CIRCLE
5
27A
100
AcDbEntity
8
cable_tie_holder
6
ByLayer
62
256
370
-1
100
AcDbCircle
10
9
20
15
40
0.13
0
CIRCLE
5
27B
100
AcDbEntity
8
10-32_insert_hole
6
ByLayer
62
256
370
-1
100
AcDbCircle
10
6.5
20
15
40
0.13625
0
CIRCLE
5
27C
100
AcDbEntity
8
10-32_insert_hole
6
ByLayer
62
256
370
-1
100
AcDbCircle
10
9
20
15
40
0.13625
0
CIRCLE
5
27D
100
AcDbEntity
8
10-32_insert_hole
6
ByLayer
62
256
370
-1
100
AcDbCircle
10
11.5
20
15
40
0.13625
0
CIRCLE
5
27E
100
AcDbEntity
8
1/4_through_hole
6
ByLayer
62
256
370
-1
100
AcDbCircle
10
1.5
20
0.5
40
0.1285
0
CIRCLE
5
27F
100
AcDbEntity
8
10-32_insert_hole
6
ByLayer
62
256
370
-1
100
AcDbCircle
10
2.5
20
0.5
40
0.13625
0
CIRCLE
5
280
100
AcDbEntity
8
M4_clearance_hole
6
ByLayer
62
256
370
-1
100
AcDbCircle
10
11.4468503937
20
7.56791338578
40
0.2
0
CIRCLE
5
281
100
AcDbEntity
8
M4_clearance_hole
6
ByLayer
62
256
370
-1
100
AcDbCircle
10
4.69488188978
20
7.56791637798
40
0.2
0
CIRCLE
5
282
100
AcDbEntity
8
M4_clearance_hole
6
ByLayer
62
256
370
-1
100
AcDbCircle
10
4.69488188978
20
11.5639763779
40
0.2
0
CIRCLE
5
283
100
AcDbEntity
8
M4_clearance_hole
6
ByLayer
62
256
370
-1
100
AcDbCircle
10
11.4468503937
20
11.5639763779
40
0.2
0
LINE
5
284
100
AcDbEntity
8
power_supply_plate
6
ByLayer
62
256
370
-1
100
AcDbLine
10
1.24999999998
20
7.08562992128
11
12.1948818898
21
7.08562992128
0
LINE
5
285
100
AcDbEntity
8
power_supply_plate
6
ByLayer
62
256
370
-1
100
AcDbLine
10
12.1948818898
20
7.08562992128
11
12.1948818898
21
12.0462598425
0
LINE
5
286
100
AcDbEntity
8
power_supply_plate
6
ByLayer
62
256
370
-1
100
AcDbLine
10
12.1948818898
20
12.0462598425
11
1.24999999998
21
12.0462598425
0
LINE
5
287
100
AcDbEntity
8
power_supply_plate
6
ByLayer
62
256
370
-1
100
AcDbLine
10
1.24999999998
20
12.0462598425
11
1.24999999998
21
7.08562992128
0
LINE
5
288
100
AcDbEntity
8
power_supply_plate
6
ByLayer
62
256
370
-1
100
AcDbLine
10
1.24999999998
20
7.48562992128
11
0.50196899998
21
7.48562992128
0
LINE
5
289
100
AcDbEntity
8
power_supply_plate
6
ByLayer
62
256
370
-1
100
AcDbLine
10
1.24999999998
20
9.08562992128
11
0.50196899998
21
9.08562992128
0
LINE
5
28A
100
AcDbEntity
8
power_supply_plate
6
ByLayer
62
256
370
-1
100
AcDbLine
10
0.50196899998
20
9.08562992128
11
0.50196899998
21
7.48562992128
0
CIRCLE
5
28B
100
AcDbEntity
8
power_supply_plate
6
ByLayer
62
256
370
-1
100
AcDbCircle
10
11.4468503937
20
11.5639763779
40
0.0826771653543
0
CIRCLE
5
28C
100
AcDbEntity
8
power_supply_plate
6
ByLayer
62
256
370
-1
100
AcDbCircle
10
4.69488188978
20
11.5639763779
40
0.0826771653543
0
CIRCLE
5
28D
100
AcDbEntity
8
power_supply_plate
6
ByLayer
62
256
370
-1
100
AcDbCircle
10
4.69488188978
20
7.56791637798
40
0.0826771653543
0
CIRCLE
5
28E
100
AcDbEntity
8
power_supply_plate
6
ByLayer
62
256
370
-1
100
AcDbCircle
10
11.4468503937
20
7.56791338578
40
0.0826771653543
0
LINE
5
28F
100
AcDbEntity
8
power_supply_plate
6
ByLayer
62
256
370
-1
100
AcDbLine
10
6.72244094488
20
12.0462598425
11
6.72244094488
21
7.08562992128
0
LINE
5
290
100
AcDbEntity
8
power_supply_plate
6
ByLayer
62
256
370
-1
100
AcDbLine
10
1.24999999998
20
9.56594488189
11
12.1948818898
21
9.56594488189
0
LINE
5
291
100
AcDbEntity
8
power_supply_plate
6
ByLayer
62
256
370
-1
100
AcDbLine
10
12.1948818898
20
9.01594488188
11
13.7303118898
21
9.01594488188
0
LINE
5
292
100
AcDbEntity
8
power_supply_plate
6
ByLayer
62
256
370
-1
100
AcDbLine
10
12.1948818898
20
9.11594488188
11
13.7303149606
21
9.11594488188
0
LINE
5
293
100
AcDbEntity
8
power_supply_plate
6
ByLayer
62
256
370
-1
100
AcDbLine
10
12.1948818898
20
10.0159448819
11
13.7303149606
21
10.0159448819
0
LINE
5
294
100
AcDbEntity
8
power_supply_plate
6
ByLayer
62
256
370
-1
100
AcDbLine
10
12.1948818898
20
10.1159448819
11
13.7303149606
21
10.1159448819
0
LINE
5
295
100
AcDbEntity
8
power_supply_plate
6
ByLayer
62
256
370
-1
100
AcDbLine
10
13.7303149606
20
10.1159448819
11
13.7303149606
21
10.0159448819
0
LINE
5
296
100
AcDbEntity
8
power_supply_plate
6
ByLayer
62
256
370
-1
100
AcDbLine
10
13.7303149606
20
9.11594488188
11
13.7303118898
21
9.01594488188
0
CIRCLE
5
297
100
AcDbEntity
8
M4_clearance_hole
6
ByLayer
62
256
370
-1
100
AcDbCircle
10
11.4468503937
20
2.48228346457
40
0.2
0
CIRCLE
5
298
100
AcDbEntity
8
M4_clearance_hole
6
ByLayer
62
256
370
-1
100
AcDbCircle
10
4.69488188978
20
2.48228645669
40
0.2
0
CIRCLE
5
299
100
AcDbEntity
8
M4_clearance_hole
6
ByLayer
62
256
370
-1
100
AcDbCircle
10
4.69488188978
20
6.47834645669
40
0.2
0
CIRCLE
5
29A
100
AcDbEntity
8
M4_clearance_hole
6
ByLayer
62
256
370
-1
100
AcDbCircle
10
11.4468503937
20
6.47834645669
40
0.2
0
LINE
5
29B
100
AcDbEntity
8
power_supply_plate
6
ByLayer
62
256
370
-1
100
AcDbLine
10
1.24999999998
20
2
11
12.1948818898
21
2
0
LINE
5
29C
100
AcDbEntity
8
power_supply_plate
6
ByLayer
62
256
370
-1
100
AcDbLine
10
12.1948818898
20
2
11
12.1948818898
21
6.96062992126
0
LINE
5
29D
100
AcDbEntity
8
power_supply_plate
6
ByLayer
62
256
370
-1
100
AcDbLine
10
12.1948818898
20
6.96062992126
11
1.24999999998
21
6.96062992126
0
LINE
5
29E
100
AcDbEntity
8
power_supply_plate
6
ByLayer
62
256
370
-1
100
AcDbLine
10
1.24999999998
20
6.96062992126
11
1.24999999998
21
2
0
LINE
5
29F
100
AcDbEntity
8
power_supply_plate
6
ByLayer
62
256
370
-1
100
AcDbLine
10
1.24999999998
20
2.4
11
0.50196899998
21
2.4
0
LINE
5
2A0
100
AcDbEntity
8
power_supply_plate
6
ByLayer
62
256
370
-1
100
AcDbLine
10
1.24999999998
20
4
11
0.50196899998
21
4
0
LINE
5
2A1
100
AcDbEntity
8
power_supply_plate
6
ByLayer
62
256
370
-1
100
AcDbLine
10
0.50196899998
20
4
11
0.50196899998
21
2.4
0
CIRCLE
5
2A2
100
AcDbEntity
8
power_supply_plate
6
ByLayer
62
256
370
-1
100
AcDbCircle
10
11.4468503937
20
6.47834645669
40
0.0826771653543
0
CIRCLE
5
2A3
100
AcDbEntity
8
power_supply_plate
6
ByLayer
62
256
370
-1
100
AcDbCircle
10
4.69488188978
20
6.47834645669
40
0.0826771653543
0
CIRCLE
5
2A4
100
AcDbEntity
8
power_supply_plate
6
ByLayer
62
256
370
-1
100
AcDbCircle
10
4.69488188978
20
2.48228645669
40
0.0826771653543
0
CIRCLE
5
2A5
100
AcDbEntity
8
power_supply_plate
6
ByLayer
62
256
370
-1
100
AcDbCircle
10
11.4468503937
20
2.48228346457
40
0.0826771653543
0
LINE
5
2A6
100
AcDbEntity
8
power_supply_plate
6
ByLayer
62
256
370
-1
100
AcDbLine
10
6.72244094488
20
6.96062992126
11
6.72244094488
21
2
0
LINE
5
2A7
100
AcDbEntity
8
power_supply_plate
6
ByLayer
62
256
370
-1
100
AcDbLine
10
1.24999999998
20
4.48031496063
11
12.1948818898
21
4.48031496063
0
LINE
5
2A8
100
AcDbEntity
8
power_supply_plate
6
ByLayer
62
256
370
-1
100
AcDbLine
10
12.1948818898
20
3.93031496063
11
13.7303118898
21
3.93031496063
0
LINE
5
2A9
100
AcDbEntity
8
power_supply_plate
6
ByLayer
62
256
370
-1
100
AcDbLine
10
12.1948818898
20
4.03031496063
11
13.7303149606
21
4.03031496063
0
LINE
5
2AA
100
AcDbEntity
8
power_supply_plate
6
ByLayer
62
256
370
-1
100
AcDbLine
10
12.1948818898
20
4.93031496063
11
13.7303149606
21
4.93031496063
0
LINE
5
2AB
100
AcDbEntity
8
power_supply_plate
6
ByLayer
62
256
370
-1
100
AcDbLine
10
12.1948818898
20
5.03031496063
11
13.7303149606
21
5.03031496063
0
LINE
5
2AC
100
AcDbEntity
8
power_supply_plate
6
ByLayer
62
256
370
-1
100
AcDbLine
10
13.7303149606
20
5.03031496063
11
13.7303149606
21
4.93031496063
0
LINE
5
2AD
100
AcDbEntity
8
power_supply_plate
6
ByLayer
62
256
370
-1
100
AcDbLine
10
13.7303149606
20
4.03031496063
11
13.7303118898
21
3.93031496063
0
LINE
5
2AE
100
AcDbEntity
8
power_supply_plate
6
ByLayer
62
256
370
-1
100
AcDbLine
10
14.93
20
6.3
11
15.815
21
6.3
0
LINE
5
2AF
100
AcDbEntity
8
power_supply_plate
6
ByLayer
62
256
370
-1
100
AcDbLine
10
15.815
20
6.3
11
15.815
21
6.925
0
LINE
5
2B0
100
AcDbEntity
8
power_supply_plate
6
ByLayer
62
256
370
-1
100
AcDbLine
10
15.815
20
6.925
11
14.93
21
6.925
0
LINE
5
2B1
100
AcDbEntity
8
power_supply_plate
6
ByLayer
62
256
370
-1
100
AcDbLine
10
14.93
20
6.925
11
14.93
21
6.3
0
CIRCLE
5
2B2
100
AcDbEntity
8
power_supply_plate
6
ByLayer
62
256
370
-1
100
AcDbCircle
10
15.3725
20
6.6125
40
0.13
0
LINE
5
2B3
100
AcDbEntity
8
power_supply_plate
6
ByLayer
62
256
370
-1
100
AcDbLine
10
15.815
20
5.475
11
16.7
21
5.475
0
LINE
5
2B4
100
AcDbEntity
8
power_supply_plate
6
ByLayer
62
256
370
-1
100
AcDbLine
10
16.7
20
5.475
11
16.7
21
6.1
0
LINE
5
2B5
100
AcDbEntity
8
power_supply_plate
6
ByLayer
62
256
370
-1
100
AcDbLine
10
16.7
20
6.1
11
15.815
21
6.1
0
LINE
5
2B6
100
AcDbEntity
8
power_supply_plate
6
ByLayer
62
256
370
-1
100
AcDbLine
10
15.815
20
6.1
11
15.815
21
5.475
0
CIRCLE
5
2B7
100
AcDbEntity
8
power_supply_plate
6
ByLayer
62
256
370
-1
100
AcDbCircle
10
16.2575
20
5.7875
40
0.13
0
CIRCLE
5
2B8
100
AcDbEntity
8
power_supply_plate
6
ByLayer
62
256
370
-1
100
AcDbCircle
10
15.3725
20
6.6125
40
0.13625
0
CIRCLE
5
2B9
100
AcDbEntity
8
power_supply_plate
6
ByLayer
62
256
370
-1
100
AcDbCircle
10
16.2575
20
5.7875
40
0.13625
0
CIRCLE
5
2BA
100
AcDbEntity
8
15/16_through_hole
6
ByLayer
62
256
370
-1
100
AcDbCircle
10
0.5
20
33
40
0.1615
0
CIRCLE
5
2BB
100
AcDbEntity
8
15/16_washers
6
ByLayer
62
256
370
-1
100
AcDbCircle
10
0.5
20
33
40
0.375
0
CIRCLE
5
2BC
100
AcDbEntity
8
15/16_through_hole
6
ByLayer
62
256
370
-1
100
AcDbCircle
10
17.5
20
33
40
0.1615
0
CIRCLE
5
2BD
100
AcDbEntity
8
15/16_washers
6
ByLayer
62
256
370
-1
100
AcDbCircle
10
17.5
20
33
40
0.375
0
CIRCLE
5
2BE
100
AcDbEntity
8
15/16_through_hole
6
ByLayer
62
256
370
-1
100
AcDbCircle
10
17.5
20
13.5
40
0.1615
0
CIRCLE
5
2BF
100
AcDbEntity
8
15/16_washers
6
ByLayer
62
256
370
-1
100
AcDbCircle
10
17.5
20
13.5
40
0.375
0
CIRCLE
5
2C0
100
AcDbEntity
8
15/16_through_hole
6
ByLayer
62
256
370
-1
100
AcDbCircle
10
0.5
20
5.5
40
0.1615
0
CIRCLE
5
2C1
100
AcDbEntity
8
15/16_washers
6
ByLayer
62
256
370
-1
100
AcDbCircle
10
0.5
20
5.5
40
0.375
0
CIRCLE
5
2C2
100
AcDbEntity
8
15/16_through_hole
6
ByLayer
62
256
370
-1
100
AcDbCircle
10
17.5
20
5.5
40
0.1615
0
CIRCLE
5
2C3
100
AcDbEntity
8
15/16_washers
6
ByLayer
62
256
370
-1
100
AcDbCircle
10
17.5
20
5.5
40
0.375
0
CIRCLE
5
2C4
100
AcDbEntity
8
15/16_through_hole
6
ByLayer
62
256
370
-1
100
AcDbCircle
10
0.5
20
13.5
40
0.1615
0
CIRCLE
5
2C5
100
AcDbEntity
8
15/16_washers
6
ByLayer
62
256
370
-1
100
AcDbCircle
10
0.5
20
13.5
40
0.375
0
LINE
5
2C6
100
AcDbEntity
8
scratch
6
ByLayer
62
256
370
-1
100
AcDbLine
10
-0.25
20
5.5
11
-0.25
21
4.75
0
LINE
5
2C7
100
AcDbEntity
8
support_beams
6
ByLayer
62
256
370
-1
100
AcDbLine
10
18
20
33.75
11
-0.25
21
33.75
0
LINE
5
2C8
100
AcDbEntity
8
support_beams
6
ByLayer
62
256
370
-1
100
AcDbLine
10
-0.25
20
33.75
11
-0.25
21
30.75
0
LINE
5
2C9
100
AcDbEntity
8
support_beams
6
ByLayer
62
256
370
-1
100
AcDbLine
10
-0.25
20
30.75
11
18
21
30.75
0
LINE
5
2CA
100
AcDbEntity
8
support_beams
6
ByLayer
62
256
370
-1
100
AcDbLine
10
18
20
30.75
11
18
21
33.75
0
LINE
5
2CB
100
AcDbEntity
8
support_beams
6
ByLayer
62
256
370
-1
100
AcDbLine
10
18
20
7.75
11
-0.25
21
7.75
0
LINE
5
2CC
100
AcDbEntity
8
support_beams
6
ByLayer
62
256
370
-1
100
AcDbLine
10
-0.25
20
7.75
11
-0.25
21
4.75
0
LINE
5
2CD
100
AcDbEntity
8
support_beams
6
ByLayer
62
256
370
-1
100
AcDbLine
10
-0.25
20
4.75
11
18
21
4.75
0
LINE
5
2CE
100
AcDbEntity
8
support_beams
6
ByLayer
62
256
370
-1
100
AcDbLine
10
18
20
4.75
11
18
21
7.75
0
LINE
5
2CF
100
AcDbEntity
8
power_supply_plate
6
ByLayer
62
256
370
-1
100
AcDbLine
10
14.93
20
12.2
11
15.815
21
12.2
0
LINE
5
2D0
100
AcDbEntity
8
power_supply_plate
6
ByLayer
62
256
370
-1
100
AcDbLine
10
15.815
20
12.2
11
15.815
21
12.825
0
LINE
5
2D1
100
AcDbEntity
8
power_supply_plate
6
ByLayer
62
256
370
-1
100
AcDbLine
10
15.815
20
12.825
11
14.93
21
12.825
0
LINE
5
2D2
100
AcDbEntity
8
power_supply_plate
6
ByLayer
62
256
370
-1
100
AcDbLine
10
14.93
20
12.825
11
14.93
21
12.2
0
CIRCLE
5
2D3
100
AcDbEntity
8
power_supply_plate
6
ByLayer
62
256
370
-1
100
AcDbCircle
10
15.3725
20
12.5125
40
0.13
0
LINE
5
2D4
100
AcDbEntity
8
power_supply_plate
6
ByLayer
62
256
370
-1
100
AcDbLine
10
15.815
20
11.375
11
16.7
21
11.375
0
LINE
5
2D5
100
AcDbEntity
8
power_supply_plate
6
ByLayer
62
256
370
-1
100
AcDbLine
10
16.7
20
11.375
11
16.7
21
12
0
LINE
5
2D6
100
AcDbEntity
8
power_supply_plate
6
ByLayer
62
256
370
-1
100
AcDbLine
10
16.7
20
12
11
15.815
21
12
0
LINE
5
2D7
100
AcDbEntity
8
power_supply_plate
6
ByLayer
62
256
370
-1
100
AcDbLine
10
15.815
20
12
11
15.815
21
11.375
0
CIRCLE
5
2D8
100
AcDbEntity
8
power_supply_plate
6
ByLayer
62
256
370
-1
100
AcDbCircle
10
16.2575
20
11.6875
40
0.13
0
CIRCLE
5
2D9
100
AcDbEntity
8
power_supply_plate
6
ByLayer
62
256
370
-1
100
AcDbCircle
10
15.3725
20
12.5125
40
0.13625
0
CIRCLE
5
2DA
100
AcDbEntity
8
power_supply_plate
6
ByLayer
62
256
370
-1
100
AcDbCircle
10
16.2575
20
11.6875
40
0.13625
0
CIRCLE
5
2DB
100
AcDbEntity
8
10-32_insert_hole
6
ByLayer
62
256
370
-1
100
AcDbCircle
10
16.5
20
14.5
40
0.13625
0
LINE
5
2DC
100
AcDbEntity
8
cable_tie_holder
6
ByLayer
62
256
370
-1
100
AcDbLine
10
0.9425
20
6.1875
11
0.0575
21
6.1875
0
LINE
5
2DD
100
AcDbEntity
8
cable_tie_holder
6
ByLayer
62
256
370
-1
100
AcDbLine
10
0.0575
20
6.1875
11
0.0575
21
6.8125
0
LINE
5
2DE
100
AcDbEntity
8
cable_tie_holder
6
ByLayer
62
256
370
-1
100
AcDbLine
10
0.0575
20
6.8125
11
0.9425
21
6.8125
0
LINE
5
2DF
100
AcDbEntity
8
cable_tie_holder
6
ByLayer
62
256
370
-1
100
AcDbLine
10
0.9425
20
6.8125
11
0.9425
21
6.1875
0
CIRCLE
5
2E0
100
AcDbEntity
8
cable_tie_holder
6
ByLayer
62
256
370
-1
100
AcDbCircle
10
0.5
20
6.5
40
0.13
0
CIRCLE
5
2E1
100
AcDbEntity
8
10-32_insert_hole
6
ByLayer
62
256
370
-1
100
AcDbCircle
10
0.5
20
6.5
40
0.13625
0
LINE
5
2E2
100
AcDbEntity
8
scratch
6
ByLayer
62
256
370
-1
100
AcDbLine
10
0.5
20
6.5
11
0.5
21
5.5
0
DIMENSION
5
2E3
100
AcDbEntity
8
scratch
6
ByLayer
62
256
370
-1
100
AcDbDimension
2
*D3
10
-1
20
5.5
30
0
11
-1.525
21
6
31
0
70
32
71
5
3
Standard
53
0
210
0
220
0
230
1
100
AcDbAlignedDimension
13
0.5
23
6.5
33
0
14
0.5
24
5.5
34
0
50
90
100
AcDbRotatedDimension
0
ENDSEC
0
SECTION
2
OBJECTS
0
DICTIONARY
5
C
330
0
100
AcDbDictionary
281
1
3
ACAD_GROUP
350
D
0
DICTIONARY
5
D
330
C
100
AcDbDictionary
281
1
0
ENDSEC
0
EOF
