999
dxfrw 0.5.10
0
SECTION
2
HEADER
9
$ACADVER
1
AC1009
9
$DWGCODEPAGE
3
ANSI_1252
9
$INSBASE
10
0
20
0
30
0
9
$EXTMIN
10
-8.881784197e-16
20
-2.22044604925e-16
30
0
9
$EXTMAX
10
15.75
20
15.45
30
0
9
$LIMMIN
10
0
20
0
9
$LIMMAX
10
420
20
297
9
$ORTHOMODE
70
0
9
$LTSCALE
40
1
9
$TEXTSTYLE
7
STANDARD
9
$CLAYER
8
0
9
$DIMASZ
40
0.1
9
$DIMLFAC
40
1
9
$DIMSCALE
40
1
9
$DIMEXO
40
0.025
9
$DIMEXE
40
0.05
9
$DIMTXT
40
0.1
9
$DIMTSZ
40
0
9
$DIMUNIT
70
2
9
$DIMSTYLE
2
STANDARD
9
$DIMGAP
40
0.025
9
$DIMTIH
70
0
9
$LUNITS
70
2
9
$LUPREC
70
4
9
$AUNITS
70
0
9
$AUPREC
70
2
9
$GRIDMODE
70
1
9
$SNAPSTYLE
70
0
9
$GRIDUNIT
10
0
20
0
9
$PLIMMIN
10
0
20
0
9
$PLIMMAX
10
3.0788102e-08
20
4.354322e-08
0
ENDSEC
0
SECTION
2
CLASSES
0
ENDSEC
0
SECTION
2
TABLES
0
TABLE
2
VPORT
70
1
0
VPORT
2
*ACTIVE
70
0
10
0
20
0
11
1
21
1
12
16.726884352
22
8.74092953601
13
0
23
0
14
10
24
10
15
10
25
10
16
0
26
0
36
1
17
0
27
0
37
0
40
26.34022912
41
1.59363057325
42
50
43
0
44
0
50
0
51
0
71
0
72
100
73
1
74
3
75
0
76
1
77
0
78
0
0
ENDTAB
0
TABLE
2
LTYPE
70
4
0
LTYPE
2
BYBLOCK
70
0
3

72
65
73
0
40
0
0
LTYPE
2
BYLAYER
70
0
3

72
65
73
0
40
0
0
LTYPE
2
CONTINUOUS
70
0
3
Solid line
72
65
73
0
40
0
0
LTYPE
2
DOT
70
0
3
Dot . . . . . . . . . . . . . . . . . . . . . .
72
65
73
2
40
6.35
49
0
49
-6.35
0
LTYPE
2
DOT2
70
0
3
Dot (.5x) .....................................
72
65
73
2
40
3.175
49
0
49
-3.175
0
LTYPE
2
DOTX2
70
0
3
Dot (2x) .  .  .  .  .  .  .  .  .  .  .  .  .
72
65
73
2
40
12.7
49
0
49
-12.7
0
LTYPE
2
DASHED
70
0
3
Dot . . . . . . . . . . . . . . . . . . . . . .
72
65
73
2
40
19.05
49
12.7
49
-6.35
0
LTYPE
2
DASHED2
70
0
3
Dashed (.5x) _ _ _ _ _ _ _ _ _ _ _ _ _ _ _ _ _
72
65
73
2
40
9.525
49
6.35
49
-3.175
0
LTYPE
2
DASHEDX2
70
0
3
Dashed (2x) ____  ____  ____  ____  ____  ___
72
65
73
2
40
38.1
49
25.4
49
-12.7
0
LTYPE
2
DASHDOT
70
0
3
Dash dot __ . __ . __ . __ . __ . __ . __ . __
72
65
73
4
40
25.4
49
12.7
49
-6.35
49
0
49
-6.35
0
LTYPE
2
DASHDOT2
70
0
3
Dash dot (.5x) _._._._._._._._._._._._._._._.
72
65
73
4
40
12.7
49
6.35
49
-3.175
49
0
49
-3.175
0
LTYPE
2
DASHDOTX2
70
0
3
Dash dot (2x) ____  .  ____  .  ____  .  ___
72
65
73
4
40
50.8
49
25.4
49
-12.7
49
0
49
-12.7
0
LTYPE
2
DIVIDE
70
0
3
Divide ____ . . ____ . . ____ . . ____ . . ____
72
65
73
6
40
31.75
49
12.7
49
-6.35
49
0
49
-6.35
49
0
49
-6.35
0
LTYPE
2
DIVIDE2
70
0
3
Divide (.5x) __..__..__..__..__..__..__..__.._
72
65
73
6
40
15.875
49
6.35
49
-3.175
49
0
49
-3.175
49
0
49
-3.175
0
LTYPE
2
DIVIDEX2
70
0
3
Divide (2x) ________  .  .  ________  .  .  _
72
65
73
6
40
63.5
49
25.4
49
-12.7
49
0
49
-12.7
49
0
49
-12.7
0
LTYPE
2
BORDER
70
0
3
Border __ __ . __ __ . __ __ . __ __ . __ __ .
72
65
73
6
40
44.45
49
12.7
49
-6.35
49
12.7
49
-6.35
49
0
49
-6.35
0
LTYPE
2
BORDER2
70
0
3
Border (.5x) __.__.__.__.__.__.__.__.__.__.__.
72
65
73
6
40
22.225
49
6.35
49
-3.175
49
6.35
49
-3.175
49
0
49
-3.175
0
LTYPE
2
BORDERX2
70
0
3
Border (2x) ____  ____  .  ____  ____  .  ___
72
65
73
6
40
88.9
49
25.4
49
-12.7
49
25.4
49
-12.7
49
0
49
-12.7
0
LTYPE
2
CENTER
70
0
3
Center ____ _ ____ _ ____ _ ____ _ ____ _ ____
72
65
73
4
40
50.8
49
31.75
49
-6.35
49
6.35
49
-6.35
0
LTYPE
2
CENTER2
70
0
3
Center (.5x) ___ _ ___ _ ___ _ ___ _ ___ _ ___
72
65
73
4
40
28.575
49
19.05
49
-3.175
49
3.175
49
-3.175
0
LTYPE
2
CENTERX2
70
0
3
Center (2x) ________  __  ________  __  _____
72
65
73
4
40
101.6
49
63.5
49
-12.7
49
12.7
49
-12.7
0
ENDTAB
0
TABLE
2
LAYER
70
1
0
LAYER
2
0
70
0
62
7
6
CONTINUOUS
0
LAYER
2
WATERJET
70
0
62
3
6
CONTINUOUS
0
ENDTAB
0
TABLE
2
STYLE
70
3
0
STYLE
2
STANDARD
70
0
40
0
41
1
50
0
71
0
42
1
3
TXT
4

0
ENDTAB
0
TABLE
2
VIEW
70
0
0
ENDTAB
0
TABLE
2
UCS
70
0
0
ENDTAB
0
TABLE
2
APPID
70
1
0
APPID
2
ACAD
70
0
0
ENDTAB
0
TABLE
2
DIMSTYLE
70
1
0
DIMSTYLE
2
STANDARD
70
0
3

4

5

6

7

40
1
41
0.1
42
0.025
43
0.38
44
0.05
45
0
46
0
47
0
48
0
140
0.1
141
0.09
142
0
143
25.4
144
1
145
0
146
1
147
0.025
71
0
72
0
73
0
74
1
75
0
76
0
77
0
78
0
170
0
171
2
172
0
173
0
174
0
175
0
176
0
177
0
178
0
0
ENDTAB
0
ENDSEC
0
SECTION
2
BLOCKS
0
BLOCK
8
0
2
$MODEL_SPACE
70
0
10
0
20
0
30
0
3
$MODEL_SPACE
1

0
ENDBLK
8
0
0
BLOCK
8
0
2
$PAPER_SPACE
70
0
10
0
20
0
30
0
3
$PAPER_SPACE
1

0
ENDBLK
8
0
0
ENDSEC
0
SECTION
2
ENTITIES
0
ARC
5
31
8
WATERJET
6
BYLAYER
62
256
10
0.4625
20
2.2375
40
0.1875
50
270
51
360
0
LINE
5
32
8
WATERJET
6
BYLAYER
62
256
10
0.65
20
2.2625
11
0.65
21
2.2375
0
ARC
5
33
8
WATERJET
6
BYLAYER
62
256
10
0.4625
20
2.2625
40
0.1875
50
360
51
90
0
ARC
5
34
8
WATERJET
6
BYLAYER
62
256
10
0.4625
20
3.7375
40
0.1875
50
270
51
360
0
LINE
5
35
8
WATERJET
6
BYLAYER
62
256
10
0.65
20
3.7625
11
0.65
21
3.7375
0
ARC
5
36
8
WATERJET
6
BYLAYER
62
256
10
0.4625
20
3.7625
40
0.1875
50
360
51
90
0
ARC
5
37
8
WATERJET
6
BYLAYER
62
256
10
0.4625
20
5.2375
40
0.1875
50
270
51
360
0
LINE
5
38
8
WATERJET
6
BYLAYER
62
256
10
0.65
20
5.2625
11
0.65
21
5.2375
0
ARC
5
39
8
WATERJET
6
BYLAYER
62
256
10
0.4625
20
5.2625
40
0.1875
50
360
51
90
0
ARC
5
3A
8
WATERJET
6
BYLAYER
62
256
10
0.4625
20
6.7375
40
0.1875
50
270
51
360
0
LINE
5
3B
8
WATERJET
6
BYLAYER
62
256
10
0.65
20
6.7625
11
0.65
21
6.7375
0
ARC
5
3C
8
WATERJET
6
BYLAYER
62
256
10
0.4625
20
6.7625
40
0.1875
50
360
51
90
0
ARC
5
3D
8
WATERJET
6
BYLAYER
62
256
10
4.0375
20
2.2375
40
0.1875
50
180
51
270
0
LINE
5
3E
8
WATERJET
6
BYLAYER
62
256
10
3.85
20
2.2625
11
3.85
21
2.2375
0
ARC
5
3F
8
WATERJET
6
BYLAYER
62
256
10
4.0375
20
2.2625
40
0.1875
50
90
51
180
0
ARC
5
40
8
WATERJET
6
BYLAYER
62
256
10
4.0375
20
3.7375
40
0.1875
50
180
51
270
0
LINE
5
41
8
WATERJET
6
BYLAYER
62
256
10
3.85
20
3.7625
11
3.85
21
3.7375
0
ARC
5
42
8
WATERJET
6
BYLAYER
62
256
10
4.0375
20
3.7625
40
0.1875
50
90
51
180
0
ARC
5
43
8
WATERJET
6
BYLAYER
62
256
10
4.0375
20
5.2375
40
0.1875
50
180
51
270
0
LINE
5
44
8
WATERJET
6
BYLAYER
62
256
10
3.85
20
5.2625
11
3.85
21
5.2375
0
ARC
5
45
8
WATERJET
6
BYLAYER
62
256
10
4.0375
20
5.2625
40
0.1875
50
90
51
180
0
ARC
5
46
8
WATERJET
6
BYLAYER
62
256
10
4.0375
20
6.7375
40
0.1875
50
180
51
270
0
LINE
5
47
8
WATERJET
6
BYLAYER
62
256
10
3.85
20
6.7625
11
3.85
21
6.7375
0
ARC
5
48
8
WATERJET
6
BYLAYER
62
256
10
4.0375
20
6.7625
40
0.1875
50
90
51
180
0
CIRCLE
5
49
8
WATERJET
6
BYLAYER
62
256
10
1.5
20
0.36
40
0.1005
0
CIRCLE
5
4A
8
WATERJET
6
BYLAYER
62
256
10
3
20
0.36
40
0.1005
0
CIRCLE
5
4B
8
WATERJET
6
BYLAYER
62
256
10
1.5
20
8.64
40
0.1005
0
CIRCLE
5
4C
8
WATERJET
6
BYLAYER
62
256
10
3
20
8.64
40
0.1005
0
ARC
5
4D
8
WATERJET
6
BYLAYER
62
256
10
0.1875
20
0.1875
40
0.1875
50
180
51
270
0
LINE
5
4E
8
WATERJET
6
BYLAYER
62
256
10
0.1875
20
0
11
4.3125
21
0
0
ARC
5
4F
8
WATERJET
6
BYLAYER
62
256
10
4.3125
20
0.1875
40
0.1875
50
270
51
360
0
ARC
5
50
8
WATERJET
6
BYLAYER
62
256
10
0.1875
20
8.8125
40
0.1875
50
90
51
180
0
LINE
5
51
8
WATERJET
6
BYLAYER
62
256
10
4.3125
20
9
11
0.1875
21
9
0
ARC
5
52
8
WATERJET
6
BYLAYER
62
256
10
4.3125
20
8.8125
40
0.1875
50
360
51
90
0
LINE
5
53
8
WATERJET
6
BYLAYER
62
256
10
0.4625
20
2.05
11
0.0625
21
2.05
0
LINE
5
54
8
WATERJET
6
BYLAYER
62
256
10
-4.4408920985e-16
20
1.9875
11
-8.881784197e-16
21
0.1875
0
ARC
5
55
8
WATERJET
6
BYLAYER
62
256
10
0.0625
20
1.9875
40
0.0625
50
90
51
180
0
LINE
5
56
8
WATERJET
6
BYLAYER
62
256
10
0.0625
20
2.45
11
0.4625
21
2.45
0
ARC
5
57
8
WATERJET
6
BYLAYER
62
256
10
0.0625
20
2.5125
40
0.0625
50
180
51
270
0
LINE
5
58
8
WATERJET
6
BYLAYER
62
256
10
0.4625
20
3.55
11
0.0625
21
3.55
0
LINE
5
59
8
WATERJET
6
BYLAYER
62
256
10
-4.4408920985e-16
20
3.4875
11
-4.4408920985e-16
21
2.5125
0
ARC
5
5A
8
WATERJET
6
BYLAYER
62
256
10
0.0625
20
3.4875
40
0.0625
50
90
51
180
0
LINE
5
5B
8
WATERJET
6
BYLAYER
62
256
10
0.0625
20
3.95
11
0.4625
21
3.95
0
ARC
5
5C
8
WATERJET
6
BYLAYER
62
256
10
0.0625
20
4.0125
40
0.0625
50
180
51
270
0
LINE
5
5D
8
WATERJET
6
BYLAYER
62
256
10
-4.4408920985e-16
20
4.9875
11
-4.4408920985e-16
21
4.0125
0
LINE
5
5E
8
WATERJET
6
BYLAYER
62
256
10
0.4625
20
5.05
11
0.0625
21
5.05
0
ARC
5
5F
8
WATERJET
6
BYLAYER
62
256
10
0.0625
20
4.9875
40
0.0625
50
90
51
180
0
LINE
5
60
8
WATERJET
6
BYLAYER
62
256
10
0.0625
20
5.45
11
0.4625
21
5.45
0
ARC
5
61
8
WATERJET
6
BYLAYER
62
256
10
0.0625
20
5.5125
40
0.0625
50
180
51
270
0
LINE
5
62
8
WATERJET
6
BYLAYER
62
256
10
-4.4408920985e-16
20
6.4875
11
-4.4408920985e-16
21
5.5125
0
LINE
5
63
8
WATERJET
6
BYLAYER
62
256
10
0.4625
20
6.55
11
0.0625
21
6.55
0
ARC
5
64
8
WATERJET
6
BYLAYER
62
256
10
0.0625
20
6.4875
40
0.0625
50
90
51
180
0
LINE
5
65
8
WATERJET
6
BYLAYER
62
256
10
0.0625
20
6.95
11
0.4625
21
6.95
0
LINE
5
66
8
WATERJET
6
BYLAYER
62
256
10
0
20
8.8125
11
-4.4408920985e-16
21
7.0125
0
ARC
5
67
8
WATERJET
6
BYLAYER
62
256
10
0.0625
20
7.0125
40
0.0625
50
180
51
270
0
LINE
5
68
8
WATERJET
6
BYLAYER
62
256
10
4.5
20
0.1875
11
4.5
21
1.9875
0
LINE
5
69
8
WATERJET
6
BYLAYER
62
256
10
4.0375
20
2.05
11
4.4375
21
2.05
0
ARC
5
6A
8
WATERJET
6
BYLAYER
62
256
10
4.4375
20
1.9875
40
0.0625
50
360
51
90
0
LINE
5
6B
8
WATERJET
6
BYLAYER
62
256
10
4.4375
20
2.45
11
4.0375
21
2.45
0
ARC
5
6C
8
WATERJET
6
BYLAYER
62
256
10
4.4375
20
2.5125
40
0.0625
50
270
51
360
0
LINE
5
6D
8
WATERJET
6
BYLAYER
62
256
10
4.5
20
2.5125
11
4.5
21
3.4875
0
LINE
5
6E
8
WATERJET
6
BYLAYER
62
256
10
4.0375
20
3.55
11
4.4375
21
3.55
0
ARC
5
6F
8
WATERJET
6
BYLAYER
62
256
10
4.4375
20
3.4875
40
0.0625
50
360
51
90
0
LINE
5
70
8
WATERJET
6
BYLAYER
62
256
10
4.4375
20
3.95
11
4.0375
21
3.95
0
ARC
5
71
8
WATERJET
6
BYLAYER
62
256
10
4.4375
20
4.0125
40
0.0625
50
270
51
360
0
LINE
5
72
8
WATERJET
6
BYLAYER
62
256
10
4.5
20
4.0125
11
4.5
21
4.9875
0
LINE
5
73
8
WATERJET
6
BYLAYER
62
256
10
4.0375
20
5.05
11
4.4375
21
5.05
0
ARC
5
74
8
WATERJET
6
BYLAYER
62
256
10
4.4375
20
4.9875
40
0.0625
50
360
51
90
0
LINE
5
75
8
WATERJET
6
BYLAYER
62
256
10
4.4375
20
5.45
11
4.0375
21
5.45
0
ARC
5
76
8
WATERJET
6
BYLAYER
62
256
10
4.4375
20
5.5125
40
0.0625
50
270
51
360
0
LINE
5
77
8
WATERJET
6
BYLAYER
62
256
10
4.5
20
5.5125
11
4.5
21
6.4875
0
LINE
5
78
8
WATERJET
6
BYLAYER
62
256
10
4.0375
20
6.55
11
4.4375
21
6.55
0
ARC
5
79
8
WATERJET
6
BYLAYER
62
256
10
4.4375
20
6.4875
40
0.0625
50
360
51
90
0
LINE
5
7A
8
WATERJET
6
BYLAYER
62
256
10
4.4375
20
6.95
11
4.0375
21
6.95
0
LINE
5
7B
8
WATERJET
6
BYLAYER
62
256
10
4.5
20
7.0125
11
4.5
21
8.8125
0
ARC
5
7C
8
WATERJET
6
BYLAYER
62
256
10
4.4375
20
7.0125
40
0.0625
50
270
51
360
0
CIRCLE
5
7D
8
WATERJET
6
BYLAYER
62
256
10
0.4
20
8.25
40
0.1005
0
CIRCLE
5
7E
8
WATERJET
6
BYLAYER
62
256
10
4.1
20
8.25
40
0.1005
0
CIRCLE
5
7F
8
WATERJET
6
BYLAYER
62
256
10
1.25
20
1.5
40
0.1005
0
CIRCLE
5
80
8
WATERJET
6
BYLAYER
62
256
10
2.25
20
1.5
40
0.1005
0
CIRCLE
5
81
8
WATERJET
6
BYLAYER
62
256
10
3.25
20
1.5
40
0.1005
0
CIRCLE
5
82
8
WATERJET
6
BYLAYER
62
256
10
3.25
20
2.5
40
0.1005
0
CIRCLE
5
83
8
WATERJET
6
BYLAYER
62
256
10
2.25
20
2.5
40
0.1005
0
CIRCLE
5
84
8
WATERJET
6
BYLAYER
62
256
10
1.25
20
2.5
40
0.1005
0
CIRCLE
5
85
8
WATERJET
6
BYLAYER
62
256
10
1.25
20
3.5
40
0.1005
0
CIRCLE
5
86
8
WATERJET
6
BYLAYER
62
256
10
2.25
20
3.5
40
0.1005
0
CIRCLE
5
87
8
WATERJET
6
BYLAYER
62
256
10
3.25
20
3.5
40
0.1005
0
CIRCLE
5
88
8
WATERJET
6
BYLAYER
62
256
10
2.25
20
6.75
40
0.45
0
CIRCLE
5
89
8
WATERJET
6
BYLAYER
62
256
10
2.25
20
5.25
40
0.45
0
ARC
5
8A
8
WATERJET
6
BYLAYER
62
256
10
5.2625
20
2.2375
40
0.1875
50
270
51
360
0
LINE
5
8B
8
WATERJET
6
BYLAYER
62
256
10
5.45
20
2.2625
11
5.45
21
2.2375
0
ARC
5
8C
8
WATERJET
6
BYLAYER
62
256
10
5.2625
20
2.2625
40
0.1875
50
360
51
90
0
ARC
5
8D
8
WATERJET
6
BYLAYER
62
256
10
5.2625
20
3.7375
40
0.1875
50
270
51
360
0
LINE
5
8E
8
WATERJET
6
BYLAYER
62
256
10
5.45
20
3.7625
11
5.45
21
3.7375
0
ARC
5
8F
8
WATERJET
6
BYLAYER
62
256
10
5.2625
20
3.7625
40
0.1875
50
360
51
90
0
ARC
5
90
8
WATERJET
6
BYLAYER
62
256
10
5.2625
20
5.2375
40
0.1875
50
270
51
360
0
LINE
5
91
8
WATERJET
6
BYLAYER
62
256
10
5.45
20
5.2625
11
5.45
21
5.2375
0
ARC
5
92
8
WATERJET
6
BYLAYER
62
256
10
5.2625
20
5.2625
40
0.1875
50
360
51
90
0
ARC
5
93
8
WATERJET
6
BYLAYER
62
256
10
5.2625
20
6.7375
40
0.1875
50
270
51
360
0
LINE
5
94
8
WATERJET
6
BYLAYER
62
256
10
5.45
20
6.7625
11
5.45
21
6.7375
0
ARC
5
95
8
WATERJET
6
BYLAYER
62
256
10
5.2625
20
6.7625
40
0.1875
50
360
51
90
0
ARC
5
96
8
WATERJET
6
BYLAYER
62
256
10
8.8375
20
2.2375
40
0.1875
50
180
51
270
0
LINE
5
97
8
WATERJET
6
BYLAYER
62
256
10
8.65
20
2.2625
11
8.65
21
2.2375
0
ARC
5
98
8
WATERJET
6
BYLAYER
62
256
10
8.8375
20
2.2625
40
0.1875
50
90
51
180
0
ARC
5
99
8
WATERJET
6
BYLAYER
62
256
10
8.8375
20
3.7375
40
0.1875
50
180
51
270
0
LINE
5
9A
8
WATERJET
6
BYLAYER
62
256
10
8.65
20
3.7625
11
8.65
21
3.7375
0
ARC
5
9B
8
WATERJET
6
BYLAYER
62
256
10
8.8375
20
3.7625
40
0.1875
50
90
51
180
0
ARC
5
9C
8
WATERJET
6
BYLAYER
62
256
10
8.8375
20
5.2375
40
0.1875
50
180
51
270
0
LINE
5
9D
8
WATERJET
6
BYLAYER
62
256
10
8.65
20
5.2625
11
8.65
21
5.2375
0
ARC
5
9E
8
WATERJET
6
BYLAYER
62
256
10
8.8375
20
5.2625
40
0.1875
50
90
51
180
0
ARC
5
9F
8
WATERJET
6
BYLAYER
62
256
10
8.8375
20
6.7375
40
0.1875
50
180
51
270
0
LINE
5
A0
8
WATERJET
6
BYLAYER
62
256
10
8.65
20
6.7625
11
8.65
21
6.7375
0
ARC
5
A1
8
WATERJET
6
BYLAYER
62
256
10
8.8375
20
6.7625
40
0.1875
50
90
51
180
0
CIRCLE
5
A2
8
WATERJET
6
BYLAYER
62
256
10
6.3
20
0.36
40
0.1005
0
CIRCLE
5
A3
8
WATERJET
6
BYLAYER
62
256
10
7.8
20
0.36
40
0.1005
0
CIRCLE
5
A4
8
WATERJET
6
BYLAYER
62
256
10
6.3
20
8.64
40
0.1005
0
CIRCLE
5
A5
8
WATERJET
6
BYLAYER
62
256
10
7.8
20
8.64
40
0.1005
0
ARC
5
A6
8
WATERJET
6
BYLAYER
62
256
10
4.9875
20
0.1875
40
0.1875
50
180
51
270
0
LINE
5
A7
8
WATERJET
6
BYLAYER
62
256
10
4.9875
20
0
11
9.1125
21
0
0
ARC
5
A8
8
WATERJET
6
BYLAYER
62
256
10
9.1125
20
0.1875
40
0.1875
50
270
51
360
0
ARC
5
A9
8
WATERJET
6
BYLAYER
62
256
10
4.9875
20
8.8125
40
0.1875
50
90
51
180
0
LINE
5
AA
8
WATERJET
6
BYLAYER
62
256
10
9.1125
20
9
11
4.9875
21
9
0
ARC
5
AB
8
WATERJET
6
BYLAYER
62
256
10
9.1125
20
8.8125
40
0.1875
50
360
51
90
0
LINE
5
AC
8
WATERJET
6
BYLAYER
62
256
10
5.2625
20
2.05
11
4.8625
21
2.05
0
LINE
5
AD
8
WATERJET
6
BYLAYER
62
256
10
4.8
20
1.9875
11
4.8
21
0.1875
0
ARC
5
AE
8
WATERJET
6
BYLAYER
62
256
10
4.8625
20
1.9875
40
0.0625
50
90
51
180
0
LINE
5
AF
8
WATERJET
6
BYLAYER
62
256
10
4.8625
20
2.45
11
5.2625
21
2.45
0
ARC
5
B0
8
WATERJET
6
BYLAYER
62
256
10
4.8625
20
2.5125
40
0.0625
50
180
51
270
0
LINE
5
B1
8
WATERJET
6
BYLAYER
62
256
10
5.2625
20
3.55
11
4.8625
21
3.55
0
LINE
5
B2
8
WATERJET
6
BYLAYER
62
256
10
4.8
20
3.4875
11
4.8
21
2.5125
0
ARC
5
B3
8
WATERJET
6
BYLAYER
62
256
10
4.8625
20
3.4875
40
0.0625
50
90
51
180
0
LINE
5
B4
8
WATERJET
6
BYLAYER
62
256
10
4.8625
20
3.95
11
5.2625
21
3.95
0
ARC
5
B5
8
WATERJET
6
BYLAYER
62
256
10
4.8625
20
4.0125
40
0.0625
50
180
51
270
0
LINE
5
B6
8
WATERJET
6
BYLAYER
62
256
10
4.8
20
4.9875
11
4.8
21
4.0125
0
LINE
5
B7
8
WATERJET
6
BYLAYER
62
256
10
5.2625
20
5.05
11
4.8625
21
5.05
0
ARC
5
B8
8
WATERJET
6
BYLAYER
62
256
10
4.8625
20
4.9875
40
0.0625
50
90
51
180
0
LINE
5
B9
8
WATERJET
6
BYLAYER
62
256
10
4.8625
20
5.45
11
5.2625
21
5.45
0
ARC
5
BA
8
WATERJET
6
BYLAYER
62
256
10
4.8625
20
5.5125
40
0.0625
50
180
51
270
0
LINE
5
BB
8
WATERJET
6
BYLAYER
62
256
10
4.8
20
6.4875
11
4.8
21
5.5125
0
LINE
5
BC
8
WATERJET
6
BYLAYER
62
256
10
5.2625
20
6.55
11
4.8625
21
6.55
0
ARC
5
BD
8
WATERJET
6
BYLAYER
62
256
10
4.8625
20
6.4875
40
0.0625
50
90
51
180
0
LINE
5
BE
8
WATERJET
6
BYLAYER
62
256
10
4.8625
20
6.95
11
5.2625
21
6.95
0
LINE
5
BF
8
WATERJET
6
BYLAYER
62
256
10
4.8
20
8.8125
11
4.8
21
7.0125
0
ARC
5
C0
8
WATERJET
6
BYLAYER
62
256
10
4.8625
20
7.0125
40
0.0625
50
180
51
270
0
LINE
5
C1
8
WATERJET
6
BYLAYER
62
256
10
9.3
20
0.1875
11
9.3
21
1.9875
0
LINE
5
C2
8
WATERJET
6
BYLAYER
62
256
10
8.8375
20
2.05
11
9.2375
21
2.05
0
ARC
5
C3
8
WATERJET
6
BYLAYER
62
256
10
9.2375
20
1.9875
40
0.0625
50
360
51
90
0
LINE
5
C4
8
WATERJET
6
BYLAYER
62
256
10
9.2375
20
2.45
11
8.8375
21
2.45
0
ARC
5
C5
8
WATERJET
6
BYLAYER
62
256
10
9.2375
20
2.5125
40
0.0625
50
270
51
360
0
LINE
5
C6
8
WATERJET
6
BYLAYER
62
256
10
9.3
20
2.5125
11
9.3
21
3.4875
0
LINE
5
C7
8
WATERJET
6
BYLAYER
62
256
10
8.8375
20
3.55
11
9.2375
21
3.55
0
ARC
5
C8
8
WATERJET
6
BYLAYER
62
256
10
9.2375
20
3.4875
40
0.0625
50
360
51
90
0
LINE
5
C9
8
WATERJET
6
BYLAYER
62
256
10
9.2375
20
3.95
11
8.8375
21
3.95
0
ARC
5
CA
8
WATERJET
6
BYLAYER
62
256
10
9.2375
20
4.0125
40
0.0625
50
270
51
360
0
LINE
5
CB
8
WATERJET
6
BYLAYER
62
256
10
9.3
20
4.0125
11
9.3
21
4.9875
0
LINE
5
CC
8
WATERJET
6
BYLAYER
62
256
10
8.8375
20
5.05
11
9.2375
21
5.05
0
ARC
5
CD
8
WATERJET
6
BYLAYER
62
256
10
9.2375
20
4.9875
40
0.0625
50
360
51
90
0
LINE
5
CE
8
WATERJET
6
BYLAYER
62
256
10
9.2375
20
5.45
11
8.8375
21
5.45
0
ARC
5
CF
8
WATERJET
6
BYLAYER
62
256
10
9.2375
20
5.5125
40
0.0625
50
270
51
360
0
LINE
5
D0
8
WATERJET
6
BYLAYER
62
256
10
9.3
20
5.5125
11
9.3
21
6.4875
0
LINE
5
D1
8
WATERJET
6
BYLAYER
62
256
10
8.8375
20
6.55
11
9.2375
21
6.55
0
ARC
5
D2
8
WATERJET
6
BYLAYER
62
256
10
9.2375
20
6.4875
40
0.0625
50
360
51
90
0
LINE
5
D3
8
WATERJET
6
BYLAYER
62
256
10
9.2375
20
6.95
11
8.8375
21
6.95
0
LINE
5
D4
8
WATERJET
6
BYLAYER
62
256
10
9.3
20
7.0125
11
9.3
21
8.8125
0
ARC
5
D5
8
WATERJET
6
BYLAYER
62
256
10
9.2375
20
7.0125
40
0.0625
50
270
51
360
0
CIRCLE
5
D6
8
WATERJET
6
BYLAYER
62
256
10
5.2
20
8.25
40
0.1005
0
CIRCLE
5
D7
8
WATERJET
6
BYLAYER
62
256
10
8.9
20
8.25
40
0.1005
0
CIRCLE
5
D8
8
WATERJET
6
BYLAYER
62
256
10
6.05
20
1.5
40
0.1005
0
CIRCLE
5
D9
8
WATERJET
6
BYLAYER
62
256
10
7.05
20
1.5
40
0.1005
0
CIRCLE
5
DA
8
WATERJET
6
BYLAYER
62
256
10
8.05
20
1.5
40
0.1005
0
CIRCLE
5
DB
8
WATERJET
6
BYLAYER
62
256
10
8.05
20
2.5
40
0.1005
0
CIRCLE
5
DC
8
WATERJET
6
BYLAYER
62
256
10
7.05
20
2.5
40
0.1005
0
CIRCLE
5
DD
8
WATERJET
6
BYLAYER
62
256
10
6.05
20
2.5
40
0.1005
0
CIRCLE
5
DE
8
WATERJET
6
BYLAYER
62
256
10
6.05
20
3.5
40
0.1005
0
CIRCLE
5
DF
8
WATERJET
6
BYLAYER
62
256
10
7.05
20
3.5
40
0.1005
0
CIRCLE
5
E0
8
WATERJET
6
BYLAYER
62
256
10
8.05
20
3.5
40
0.1005
0
CIRCLE
5
E1
8
WATERJET
6
BYLAYER
62
256
10
7.05
20
6.75
40
0.45
0
CIRCLE
5
E2
8
WATERJET
6
BYLAYER
62
256
10
7.05
20
5.25
40
0.45
0
ARC
5
E3
8
WATERJET
6
BYLAYER
62
256
10
0.4625
20
10.0375
40
0.1875
50
270
51
360
0
LINE
5
E4
8
WATERJET
6
BYLAYER
62
256
10
0.65
20
10.0625
11
0.65
21
10.0375
0
ARC
5
E5
8
WATERJET
6
BYLAYER
62
256
10
0.4625
20
10.0625
40
0.1875
50
360
51
90
0
ARC
5
E6
8
WATERJET
6
BYLAYER
62
256
10
0.4625
20
11.5375
40
0.1875
50
270
51
360
0
LINE
5
E7
8
WATERJET
6
BYLAYER
62
256
10
0.65
20
11.5625
11
0.65
21
11.5375
0
ARC
5
E8
8
WATERJET
6
BYLAYER
62
256
10
0.4625
20
11.5625
40
0.1875
50
360
51
90
0
ARC
5
E9
8
WATERJET
6
BYLAYER
62
256
10
4.0375
20
10.0375
40
0.1875
50
180
51
270
0
LINE
5
EA
8
WATERJET
6
BYLAYER
62
256
10
3.85
20
10.0625
11
3.85
21
10.0375
0
ARC
5
EB
8
WATERJET
6
BYLAYER
62
256
10
4.0375
20
10.0625
40
0.1875
50
90
51
180
0
ARC
5
EC
8
WATERJET
6
BYLAYER
62
256
10
4.0375
20
11.5375
40
0.1875
50
180
51
270
0
LINE
5
ED
8
WATERJET
6
BYLAYER
62
256
10
3.85
20
11.5625
11
3.85
21
11.5375
0
ARC
5
EE
8
WATERJET
6
BYLAYER
62
256
10
4.0375
20
11.5625
40
0.1875
50
90
51
180
0
LINE
5
EF
8
WATERJET
6
BYLAYER
62
256
10
0.4625
20
9.85
11
0.0625
21
9.85
0
ARC
5
F0
8
WATERJET
6
BYLAYER
62
256
10
0.0625
20
9.7875
40
0.0625
50
90
51
180
0
LINE
5
F1
8
WATERJET
6
BYLAYER
62
256
10
0.0625
20
10.25
11
0.4625
21
10.25
0
ARC
5
F2
8
WATERJET
6
BYLAYER
62
256
10
0.0625
20
10.3125
40
0.0625
50
180
51
270
0
LINE
5
F3
8
WATERJET
6
BYLAYER
62
256
10
0
20
11.2875
11
0
21
10.3125
0
LINE
5
F4
8
WATERJET
6
BYLAYER
62
256
10
0.4625
20
11.35
11
0.0625
21
11.35
0
ARC
5
F5
8
WATERJET
6
BYLAYER
62
256
10
0.0625
20
11.2875
40
0.0625
50
90
51
180
0
LINE
5
F6
8
WATERJET
6
BYLAYER
62
256
10
0.0625
20
11.75
11
0.4625
21
11.75
0
ARC
5
F7
8
WATERJET
6
BYLAYER
62
256
10
0.0625
20
11.8125
40
0.0625
50
180
51
270
0
LINE
5
F8
8
WATERJET
6
BYLAYER
62
256
10
4.0375
20
9.85
11
4.4375
21
9.85
0
ARC
5
F9
8
WATERJET
6
BYLAYER
62
256
10
4.4375
20
9.7875
40
0.0625
50
360
51
90
0
LINE
5
FA
8
WATERJET
6
BYLAYER
62
256
10
4.4375
20
10.25
11
4.0375
21
10.25
0
ARC
5
FB
8
WATERJET
6
BYLAYER
62
256
10
4.4375
20
10.3125
40
0.0625
50
270
51
360
0
LINE
5
FC
8
WATERJET
6
BYLAYER
62
256
10
4.5
20
10.3125
11
4.5
21
11.2875
0
LINE
5
FD
8
WATERJET
6
BYLAYER
62
256
10
4.0375
20
11.35
11
4.4375
21
11.35
0
ARC
5
FE
8
WATERJET
6
BYLAYER
62
256
10
4.4375
20
11.2875
40
0.0625
50
360
51
90
0
LINE
5
FF
8
WATERJET
6
BYLAYER
62
256
10
4.4375
20
11.75
11
4.0375
21
11.75
0
ARC
5
100
8
WATERJET
6
BYLAYER
62
256
10
4.4375
20
11.8125
40
0.0625
50
270
51
360
0
CIRCLE
5
101
8
WATERJET
6
BYLAYER
62
256
10
2.25
20
10.05
40
0.1615
0
CIRCLE
5
102
8
WATERJET
6
BYLAYER
62
256
10
2.25
20
11.55
40
0.1615
0
CIRCLE
5
103
8
WATERJET
6
BYLAYER
62
256
10
1.25
20
10.05
40
0.0795
0
CIRCLE
5
104
8
WATERJET
6
BYLAYER
62
256
10
1.25
20
11.55
40
0.0795
0
CIRCLE
5
105
8
WATERJET
6
BYLAYER
62
256
10
3.25
20
10.05
40
0.0795
0
CIRCLE
5
106
8
WATERJET
6
BYLAYER
62
256
10
3.25
20
11.55
40
0.0795
0
CIRCLE
5
107
8
WATERJET
6
BYLAYER
62
256
10
1.25
20
12.8
40
0.0795
0
CIRCLE
5
108
8
WATERJET
6
BYLAYER
62
256
10
3.25
20
12.8
40
0.0795
0
CIRCLE
5
109
8
WATERJET
6
BYLAYER
62
256
10
3.25
20
14.95
40
0.0795
0
CIRCLE
5
10A
8
WATERJET
6
BYLAYER
62
256
10
1.25
20
14.95
40
0.0795
0
LINE
5
10B
8
WATERJET
6
BYLAYER
62
256
10
0
20
9.7875
11
0
21
9.3625
0
LINE
5
10C
8
WATERJET
6
BYLAYER
62
256
10
2.25
20
9.3
11
0.0625
21
9.3
0
ARC
5
10D
8
WATERJET
6
BYLAYER
62
256
10
0.0625
20
9.3625
40
0.0625
50
180
51
270
0
LINE
5
10E
8
WATERJET
6
BYLAYER
62
256
10
2.25
20
9.3
11
4.4375
21
9.3
0
LINE
5
10F
8
WATERJET
6
BYLAYER
62
256
10
4.5
20
9.3625
11
4.5
21
9.7875
0
ARC
5
110
8
WATERJET
6
BYLAYER
62
256
10
4.4375
20
9.3625
40
0.0625
50
270
51
360
0
ARC
5
111
8
WATERJET
6
BYLAYER
62
256
10
1.0625
20
15.3875
40
0.0625
50
90
51
180
0
LINE
5
112
8
WATERJET
6
BYLAYER
62
256
10
1.0625
20
15.45
11
3.4375
21
15.45
0
ARC
5
113
8
WATERJET
6
BYLAYER
62
256
10
3.4375
20
15.3875
40
0.0625
50
360
51
90
0
CIRCLE
5
114
8
WATERJET
6
BYLAYER
62
256
10
2.25
20
14.625
40
0.1285
0
CIRCLE
5
115
8
WATERJET
6
BYLAYER
62
256
10
2.25
20
13.125
40
0.1285
0
ARC
5
116
8
WATERJET
6
BYLAYER
62
256
10
0.1875
20
13.6125
40
0.1875
50
90
51
180
0
ARC
5
117
8
WATERJET
6
BYLAYER
62
256
10
4.3125
20
13.6125
40
0.1875
50
360
51
90
0
LINE
5
118
8
WATERJET
6
BYLAYER
62
256
10
0
20
13.6125
11
0
21
11.8125
0
LINE
5
119
8
WATERJET
6
BYLAYER
62
256
10
4.5
20
11.8125
11
4.5
21
13.6125
0
LINE
5
11A
8
WATERJET
6
BYLAYER
62
256
10
0.9375
20
13.8
11
0.1875
21
13.8
0
LINE
5
11B
8
WATERJET
6
BYLAYER
62
256
10
1
20
13.8625
11
1
21
15.3875
0
ARC
5
11C
8
WATERJET
6
BYLAYER
62
256
10
0.9375
20
13.8625
40
0.0625
50
270
51
360
0
LINE
5
11D
8
WATERJET
6
BYLAYER
62
256
10
4.3125
20
13.8
11
3.5625
21
13.8
0
LINE
5
11E
8
WATERJET
6
BYLAYER
62
256
10
3.5
20
13.8625
11
3.5
21
15.3875
0
ARC
5
11F
8
WATERJET
6
BYLAYER
62
256
10
3.5625
20
13.8625
40
0.0625
50
180
51
270
0
CIRCLE
5
120
8
WATERJET
6
BYLAYER
62
256
10
4.1
20
13.05
40
0.1285
0
CIRCLE
5
121
8
WATERJET
6
BYLAYER
62
256
10
0.4
20
13.05
40
0.1285
0
CIRCLE
5
122
8
WATERJET
6
BYLAYER
62
256
10
1.5
20
13.44
40
0.1285
0
CIRCLE
5
123
8
WATERJET
6
BYLAYER
62
256
10
3
20
13.44
40
0.1285
0
ARC
5
124
8
WATERJET
6
BYLAYER
62
256
10
5.2625
20
10.0375
40
0.1875
50
270
51
360
0
LINE
5
125
8
WATERJET
6
BYLAYER
62
256
10
5.45
20
10.0625
11
5.45
21
10.0375
0
ARC
5
126
8
WATERJET
6
BYLAYER
62
256
10
5.2625
20
10.0625
40
0.1875
50
360
51
90
0
ARC
5
127
8
WATERJET
6
BYLAYER
62
256
10
5.2625
20
11.5375
40
0.1875
50
270
51
360
0
LINE
5
128
8
WATERJET
6
BYLAYER
62
256
10
5.45
20
11.5625
11
5.45
21
11.5375
0
ARC
5
129
8
WATERJET
6
BYLAYER
62
256
10
5.2625
20
11.5625
40
0.1875
50
360
51
90
0
ARC
5
12A
8
WATERJET
6
BYLAYER
62
256
10
8.8375
20
10.0375
40
0.1875
50
180
51
270
0
LINE
5
12B
8
WATERJET
6
BYLAYER
62
256
10
8.65
20
10.0625
11
8.65
21
10.0375
0
ARC
5
12C
8
WATERJET
6
BYLAYER
62
256
10
8.8375
20
10.0625
40
0.1875
50
90
51
180
0
ARC
5
12D
8
WATERJET
6
BYLAYER
62
256
10
8.8375
20
11.5375
40
0.1875
50
180
51
270
0
LINE
5
12E
8
WATERJET
6
BYLAYER
62
256
10
8.65
20
11.5625
11
8.65
21
11.5375
0
ARC
5
12F
8
WATERJET
6
BYLAYER
62
256
10
8.8375
20
11.5625
40
0.1875
50
90
51
180
0
LINE
5
130
8
WATERJET
6
BYLAYER
62
256
10
5.2625
20
9.85
11
4.8625
21
9.85
0
ARC
5
131
8
WATERJET
6
BYLAYER
62
256
10
4.8625
20
9.7875
40
0.0625
50
90
51
180
0
LINE
5
132
8
WATERJET
6
BYLAYER
62
256
10
4.8625
20
10.25
11
5.2625
21
10.25
0
ARC
5
133
8
WATERJET
6
BYLAYER
62
256
10
4.8625
20
10.3125
40
0.0625
50
180
51
270
0
LINE
5
134
8
WATERJET
6
BYLAYER
62
256
10
4.8
20
11.2875
11
4.8
21
10.3125
0
LINE
5
135
8
WATERJET
6
BYLAYER
62
256
10
5.2625
20
11.35
11
4.8625
21
11.35
0
ARC
5
136
8
WATERJET
6
BYLAYER
62
256
10
4.8625
20
11.2875
40
0.0625
50
90
51
180
0
LINE
5
137
8
WATERJET
6
BYLAYER
62
256
10
4.8625
20
11.75
11
5.2625
21
11.75
0
ARC
5
138
8
WATERJET
6
BYLAYER
62
256
10
4.8625
20
11.8125
40
0.0625
50
180
51
270
0
LINE
5
139
8
WATERJET
6
BYLAYER
62
256
10
8.8375
20
9.85
11
9.2375
21
9.85
0
ARC
5
13A
8
WATERJET
6
BYLAYER
62
256
10
9.2375
20
9.7875
40
0.0625
50
360
51
90
0
LINE
5
13B
8
WATERJET
6
BYLAYER
62
256
10
9.2375
20
10.25
11
8.8375
21
10.25
0
ARC
5
13C
8
WATERJET
6
BYLAYER
62
256
10
9.2375
20
10.3125
40
0.0625
50
270
51
360
0
LINE
5
13D
8
WATERJET
6
BYLAYER
62
256
10
9.3
20
10.3125
11
9.3
21
11.2875
0
LINE
5
13E
8
WATERJET
6
BYLAYER
62
256
10
8.8375
20
11.35
11
9.2375
21
11.35
0
ARC
5
13F
8
WATERJET
6
BYLAYER
62
256
10
9.2375
20
11.2875
40
0.0625
50
360
51
90
0
LINE
5
140
8
WATERJET
6
BYLAYER
62
256
10
9.2375
20
11.75
11
8.8375
21
11.75
0
ARC
5
141
8
WATERJET
6
BYLAYER
62
256
10
9.2375
20
11.8125
40
0.0625
50
270
51
360
0
CIRCLE
5
142
8
WATERJET
6
BYLAYER
62
256
10
7.05
20
10.05
40
0.1615
0
CIRCLE
5
143
8
WATERJET
6
BYLAYER
62
256
10
7.05
20
11.55
40
0.1615
0
CIRCLE
5
144
8
WATERJET
6
BYLAYER
62
256
10
6.05
20
10.05
40
0.0795
0
CIRCLE
5
145
8
WATERJET
6
BYLAYER
62
256
10
6.05
20
11.55
40
0.0795
0
CIRCLE
5
146
8
WATERJET
6
BYLAYER
62
256
10
8.05
20
10.05
40
0.0795
0
CIRCLE
5
147
8
WATERJET
6
BYLAYER
62
256
10
8.05
20
11.55
40
0.0795
0
CIRCLE
5
148
8
WATERJET
6
BYLAYER
62
256
10
6.05
20
12.8
40
0.0795
0
CIRCLE
5
149
8
WATERJET
6
BYLAYER
62
256
10
8.05
20
12.8
40
0.0795
0
CIRCLE
5
14A
8
WATERJET
6
BYLAYER
62
256
10
8.05
20
14.95
40
0.0795
0
CIRCLE
5
14B
8
WATERJET
6
BYLAYER
62
256
10
6.05
20
14.95
40
0.0795
0
LINE
5
14C
8
WATERJET
6
BYLAYER
62
256
10
4.8
20
9.7875
11
4.8
21
9.3625
0
LINE
5
14D
8
WATERJET
6
BYLAYER
62
256
10
7.05
20
9.3
11
4.8625
21
9.3
0
ARC
5
14E
8
WATERJET
6
BYLAYER
62
256
10
4.8625
20
9.3625
40
0.0625
50
180
51
270
0
LINE
5
14F
8
WATERJET
6
BYLAYER
62
256
10
7.05
20
9.3
11
9.2375
21
9.3
0
LINE
5
150
8
WATERJET
6
BYLAYER
62
256
10
9.3
20
9.3625
11
9.3
21
9.7875
0
ARC
5
151
8
WATERJET
6
BYLAYER
62
256
10
9.2375
20
9.3625
40
0.0625
50
270
51
360
0
ARC
5
152
8
WATERJET
6
BYLAYER
62
256
10
5.8625
20
15.3875
40
0.0625
50
90
51
180
0
LINE
5
153
8
WATERJET
6
BYLAYER
62
256
10
5.8625
20
15.45
11
8.2375
21
15.45
0
ARC
5
154
8
WATERJET
6
BYLAYER
62
256
10
8.2375
20
15.3875
40
0.0625
50
360
51
90
0
CIRCLE
5
155
8
WATERJET
6
BYLAYER
62
256
10
7.05
20
14.625
40
0.1285
0
CIRCLE
5
156
8
WATERJET
6
BYLAYER
62
256
10
7.05
20
13.125
40
0.1285
0
ARC
5
157
8
WATERJET
6
BYLAYER
62
256
10
4.9875
20
13.6125
40
0.1875
50
90
51
180
0
ARC
5
158
8
WATERJET
6
BYLAYER
62
256
10
9.1125
20
13.6125
40
0.1875
50
360
51
90
0
LINE
5
159
8
WATERJET
6
BYLAYER
62
256
10
4.8
20
13.6125
11
4.8
21
11.8125
0
LINE
5
15A
8
WATERJET
6
BYLAYER
62
256
10
9.3
20
11.8125
11
9.3
21
13.6125
0
LINE
5
15B
8
WATERJET
6
BYLAYER
62
256
10
5.7375
20
13.8
11
4.9875
21
13.8
0
LINE
5
15C
8
WATERJET
6
BYLAYER
62
256
10
5.8
20
13.8625
11
5.8
21
15.3875
0
ARC
5
15D
8
WATERJET
6
BYLAYER
62
256
10
5.7375
20
13.8625
40
0.0625
50
270
51
360
0
LINE
5
15E
8
WATERJET
6
BYLAYER
62
256
10
9.1125
20
13.8
11
8.3625
21
13.8
0
LINE
5
15F
8
WATERJET
6
BYLAYER
62
256
10
8.3
20
13.8625
11
8.3
21
15.3875
0
ARC
5
160
8
WATERJET
6
BYLAYER
62
256
10
8.3625
20
13.8625
40
0.0625
50
180
51
270
0
CIRCLE
5
161
8
WATERJET
6
BYLAYER
62
256
10
8.9
20
13.05
40
0.1285
0
CIRCLE
5
162
8
WATERJET
6
BYLAYER
62
256
10
5.2
20
13.05
40
0.1285
0
CIRCLE
5
163
8
WATERJET
6
BYLAYER
62
256
10
6.3
20
13.44
40
0.1285
0
CIRCLE
5
164
8
WATERJET
6
BYLAYER
62
256
10
7.8
20
13.44
40
0.1285
0
CIRCLE
5
165
8
WATERJET
6
BYLAYER
62
256
10
10.35
20
2.25
40
0.098
0
CIRCLE
5
166
8
WATERJET
6
BYLAYER
62
256
10
11.85
20
2.25
40
0.098
0
CIRCLE
5
167
8
WATERJET
6
BYLAYER
62
256
10
11.85
20
0.25
40
0.098
0
CIRCLE
5
168
8
WATERJET
6
BYLAYER
62
256
10
10.35
20
0.25
40
0.098
0
CIRCLE
5
169
8
WATERJET
6
BYLAYER
62
256
10
13.1
20
0.25
40
0.098
0
CIRCLE
5
16A
8
WATERJET
6
BYLAYER
62
256
10
13.1
20
2.25
40
0.098
0
CIRCLE
5
16B
8
WATERJET
6
BYLAYER
62
256
10
15.25
20
2.25
40
0.098
0
CIRCLE
5
16C
8
WATERJET
6
BYLAYER
62
256
10
15.25
20
0.25
40
0.098
0
CIRCLE
5
16D
8
WATERJET
6
BYLAYER
62
256
10
11.85
20
1.25
40
0.1615
0
CIRCLE
5
16E
8
WATERJET
6
BYLAYER
62
256
10
10.35
20
1.25
40
0.1615
0
LINE
5
16F
8
WATERJET
6
BYLAYER
62
256
10
9.6625
20
2.5
11
12.6
21
2.5
0
ARC
5
170
8
WATERJET
6
BYLAYER
62
256
10
9.6625
20
2.4375
40
0.0625
50
90
51
180
0
LINE
5
171
8
WATERJET
6
BYLAYER
62
256
10
9.6
20
0.0625
11
9.6
21
2.4375
0
LINE
5
172
8
WATERJET
6
BYLAYER
62
256
10
12.6
20
-2.22044604925e-16
11
9.6625
21
-2.22044604925e-16
0
ARC
5
173
8
WATERJET
6
BYLAYER
62
256
10
9.6625
20
0.0625
40
0.0625
50
180
51
270
0
LINE
5
174
8
WATERJET
6
BYLAYER
62
256
10
12.6
20
2.5
11
15.6875
21
2.5
0
ARC
5
175
8
WATERJET
6
BYLAYER
62
256
10
15.6875
20
2.4375
40
0.0625
50
0
51
90
0
LINE
5
176
8
WATERJET
6
BYLAYER
62
256
10
15.75
20
2.4375
11
15.75
21
0.0625
0
LINE
5
177
8
WATERJET
6
BYLAYER
62
256
10
12.6
20
-2.22044604925e-16
11
15.6875
21
-2.22044604925e-16
0
ARC
5
178
8
WATERJET
6
BYLAYER
62
256
10
15.6875
20
0.0625
40
0.0625
50
270
51
0
0
CIRCLE
5
179
8
WATERJET
6
BYLAYER
62
256
10
13.425
20
1.25
40
0.1285
0
CIRCLE
5
17A
8
WATERJET
6
BYLAYER
62
256
10
14.925
20
1.25
40
0.1285
0
CIRCLE
5
17B
8
WATERJET
6
BYLAYER
62
256
10
10.35
20
5.05
40
0.098
0
CIRCLE
5
17C
8
WATERJET
6
BYLAYER
62
256
10
11.85
20
5.05
40
0.098
0
CIRCLE
5
17D
8
WATERJET
6
BYLAYER
62
256
10
11.85
20
3.05
40
0.098
0
CIRCLE
5
17E
8
WATERJET
6
BYLAYER
62
256
10
10.35
20
3.05
40
0.098
0
CIRCLE
5
17F
8
WATERJET
6
BYLAYER
62
256
10
13.1
20
3.05
40
0.098
0
CIRCLE
5
180
8
WATERJET
6
BYLAYER
62
256
10
13.1
20
5.05
40
0.098
0
CIRCLE
5
181
8
WATERJET
6
BYLAYER
62
256
10
15.25
20
5.05
40
0.098
0
CIRCLE
5
182
8
WATERJET
6
BYLAYER
62
256
10
15.25
20
3.05
40
0.098
0
CIRCLE
5
183
8
WATERJET
6
BYLAYER
62
256
10
11.85
20
4.05
40
0.1615
0
CIRCLE
5
184
8
WATERJET
6
BYLAYER
62
256
10
10.35
20
4.05
40
0.1615
0
LINE
5
185
8
WATERJET
6
BYLAYER
62
256
10
9.6625
20
5.3
11
12.6
21
5.3
0
ARC
5
186
8
WATERJET
6
BYLAYER
62
256
10
9.6625
20
5.2375
40
0.0625
50
90
51
180
0
LINE
5
187
8
WATERJET
6
BYLAYER
62
256
10
9.6
20
2.8625
11
9.6
21
5.2375
0
LINE
5
188
8
WATERJET
6
BYLAYER
62
256
10
12.6
20
2.8
11
9.6625
21
2.8
0
ARC
5
189
8
WATERJET
6
BYLAYER
62
256
10
9.6625
20
2.8625
40
0.0625
50
180
51
270
0
LINE
5
18A
8
WATERJET
6
BYLAYER
62
256
10
12.6
20
5.3
11
15.6875
21
5.3
0
ARC
5
18B
8
WATERJET
6
BYLAYER
62
256
10
15.6875
20
5.2375
40
0.0625
50
0
51
90
0
LINE
5
18C
8
WATERJET
6
BYLAYER
62
256
10
15.75
20
5.2375
11
15.75
21
2.8625
0
LINE
5
18D
8
WATERJET
6
BYLAYER
62
256
10
12.6
20
2.8
11
15.6875
21
2.8
0
ARC
5
18E
8
WATERJET
6
BYLAYER
62
256
10
15.6875
20
2.8625
40
0.0625
50
270
51
0
0
CIRCLE
5
18F
8
WATERJET
6
BYLAYER
62
256
10
13.425
20
4.05
40
0.1285
0
CIRCLE
5
190
8
WATERJET
6
BYLAYER
62
256
10
14.925
20
4.05
40
0.1285
0
CIRCLE
5
191
8
WATERJET
6
BYLAYER
62
256
10
10.35
20
7.85
40
0.098
0
CIRCLE
5
192
8
WATERJET
6
BYLAYER
62
256
10
11.85
20
7.85
40
0.098
0
CIRCLE
5
193
8
WATERJET
6
BYLAYER
62
256
10
11.85
20
5.85
40
0.098
0
CIRCLE
5
194
8
WATERJET
6
BYLAYER
62
256
10
10.35
20
5.85
40
0.098
0
CIRCLE
5
195
8
WATERJET
6
BYLAYER
62
256
10
13.1
20
5.85
40
0.098
0
CIRCLE
5
196
8
WATERJET
6
BYLAYER
62
256
10
13.1
20
7.85
40
0.098
0
CIRCLE
5
197
8
WATERJET
6
BYLAYER
62
256
10
15.25
20
7.85
40
0.098
0
CIRCLE
5
198
8
WATERJET
6
BYLAYER
62
256
10
15.25
20
5.85
40
0.098
0
CIRCLE
5
199
8
WATERJET
6
BYLAYER
62
256
10
11.85
20
6.85
40
0.1615
0
CIRCLE
5
19A
8
WATERJET
6
BYLAYER
62
256
10
10.35
20
6.85
40
0.1615
0
LINE
5
19B
8
WATERJET
6
BYLAYER
62
256
10
9.6625
20
8.1
11
12.6
21
8.1
0
ARC
5
19C
8
WATERJET
6
BYLAYER
62
256
10
9.6625
20
8.0375
40
0.0625
50
90
51
180
0
LINE
5
19D
8
WATERJET
6
BYLAYER
62
256
10
9.6
20
5.6625
11
9.6
21
8.0375
0
LINE
5
19E
8
WATERJET
6
BYLAYER
62
256
10
12.6
20
5.6
11
9.6625
21
5.6
0
ARC
5
19F
8
WATERJET
6
BYLAYER
62
256
10
9.6625
20
5.6625
40
0.0625
50
180
51
270
0
LINE
5
1A0
8
WATERJET
6
BYLAYER
62
256
10
12.6
20
8.1
11
15.6875
21
8.1
0
ARC
5
1A1
8
WATERJET
6
BYLAYER
62
256
10
15.6875
20
8.0375
40
0.0625
50
0
51
90
0
LINE
5
1A2
8
WATERJET
6
BYLAYER
62
256
10
15.75
20
8.0375
11
15.75
21
5.6625
0
LINE
5
1A3
8
WATERJET
6
BYLAYER
62
256
10
12.6
20
5.6
11
15.6875
21
5.6
0
ARC
5
1A4
8
WATERJET
6
BYLAYER
62
256
10
15.6875
20
5.6625
40
0.0625
50
270
51
0
0
CIRCLE
5
1A5
8
WATERJET
6
BYLAYER
62
256
10
13.425
20
6.85
40
0.1285
0
CIRCLE
5
1A6
8
WATERJET
6
BYLAYER
62
256
10
14.925
20
6.85
40
0.1285
0
CIRCLE
5
1A7
8
WATERJET
6
BYLAYER
62
256
10
10.35
20
10.65
40
0.098
0
CIRCLE
5
1A8
8
WATERJET
6
BYLAYER
62
256
10
11.85
20
10.65
40
0.098
0
CIRCLE
5
1A9
8
WATERJET
6
BYLAYER
62
256
10
11.85
20
8.65
40
0.098
0
CIRCLE
5
1AA
8
WATERJET
6
BYLAYER
62
256
10
10.35
20
8.65
40
0.098
0
CIRCLE
5
1AB
8
WATERJET
6
BYLAYER
62
256
10
13.1
20
8.65
40
0.098
0
CIRCLE
5
1AC
8
WATERJET
6
BYLAYER
62
256
10
13.1
20
10.65
40
0.098
0
CIRCLE
5
1AD
8
WATERJET
6
BYLAYER
62
256
10
15.25
20
10.65
40
0.098
0
CIRCLE
5
1AE
8
WATERJET
6
BYLAYER
62
256
10
15.25
20
8.65
40
0.098
0
CIRCLE
5
1AF
8
WATERJET
6
BYLAYER
62
256
10
11.85
20
9.65
40
0.1615
0
CIRCLE
5
1B0
8
WATERJET
6
BYLAYER
62
256
10
10.35
20
9.65
40
0.1615
0
LINE
5
1B1
8
WATERJET
6
BYLAYER
62
256
10
9.6625
20
10.9
11
12.6
21
10.9
0
ARC
5
1B2
8
WATERJET
6
BYLAYER
62
256
10
9.6625
20
10.8375
40
0.0625
50
90
51
180
0
LINE
5
1B3
8
WATERJET
6
BYLAYER
62
256
10
9.6
20
8.4625
11
9.6
21
10.8375
0
LINE
5
1B4
8
WATERJET
6
BYLAYER
62
256
10
12.6
20
8.4
11
9.6625
21
8.4
0
ARC
5
1B5
8
WATERJET
6
BYLAYER
62
256
10
9.6625
20
8.4625
40
0.0625
50
180
51
270
0
LINE
5
1B6
8
WATERJET
6
BYLAYER
62
256
10
12.6
20
10.9
11
15.6875
21
10.9
0
ARC
5
1B7
8
WATERJET
6
BYLAYER
62
256
10
15.6875
20
10.8375
40
0.0625
50
0
51
90
0
LINE
5
1B8
8
WATERJET
6
BYLAYER
62
256
10
15.75
20
10.8375
11
15.75
21
8.4625
0
LINE
5
1B9
8
WATERJET
6
BYLAYER
62
256
10
12.6
20
8.4
11
15.6875
21
8.4
0
ARC
5
1BA
8
WATERJET
6
BYLAYER
62
256
10
15.6875
20
8.4625
40
0.0625
50
270
51
0
0
CIRCLE
5
1BB
8
WATERJET
6
BYLAYER
62
256
10
13.425
20
9.65
40
0.1285
0
CIRCLE
5
1BC
8
WATERJET
6
BYLAYER
62
256
10
14.925
20
9.65
40
0.1285
0
CIRCLE
5
1BD
8
WATERJET
6
BYLAYER
62
256
10
10.1
20
11.95
40
0.1615
0
CIRCLE
5
1BE
8
WATERJET
6
BYLAYER
62
256
10
10.1
20
13.45
40
0.1615
0
CIRCLE
5
1BF
8
WATERJET
6
BYLAYER
62
256
10
15.1
20
11.95
40
0.1615
0
CIRCLE
5
1C0
8
WATERJET
6
BYLAYER
62
256
10
15.1
20
13.45
40
0.1615
0
CIRCLE
5
1C1
8
WATERJET
6
BYLAYER
62
256
10
11.16
20
13.45
40
0.0795
0
CIRCLE
5
1C2
8
WATERJET
6
BYLAYER
62
256
10
14.35
20
13.45
40
0.0795
0
CIRCLE
5
1C3
8
WATERJET
6
BYLAYER
62
256
10
14.35
20
11.95
40
0.0795
0
CIRCLE
5
1C4
8
WATERJET
6
BYLAYER
62
256
10
11.16
20
11.95
40
0.0795
0
ARC
5
1C5
8
WATERJET
6
BYLAYER
62
256
10
9.6625
20
11.2625
40
0.0625
50
180
51
270
0
LINE
5
1C6
8
WATERJET
6
BYLAYER
62
256
10
9.6
20
11.2625
11
9.6
21
14.1375
0
ARC
5
1C7
8
WATERJET
6
BYLAYER
62
256
10
9.6625
20
14.1375
40
0.0625
50
90
51
180
0
LINE
5
1C8
8
WATERJET
6
BYLAYER
62
256
10
15.5375
20
14.2
11
9.6625
21
14.2
0
ARC
5
1C9
8
WATERJET
6
BYLAYER
62
256
10
15.5375
20
14.1375
40
0.0625
50
360
51
90
0
LINE
5
1CA
8
WATERJET
6
BYLAYER
62
256
10
15.6
20
11.2625
11
15.6
21
14.1375
0
LINE
5
1CB
8
WATERJET
6
BYLAYER
62
256
10
9.6625
20
11.2
11
15.5375
21
11.2
0
ARC
5
1CC
8
WATERJET
6
BYLAYER
62
256
10
15.5375
20
11.2625
40
0.0625
50
270
51
360
0
ENDSEC
0
EOF
