999
dxfrw 0.5.10
0
SECTION
2
HEADER
9
$ACADVER
1
AC1021
9
$HANDSEED
5
20000
9
$DWGCODEPAGE
3
ANSI_1252
9
$INSBASE
10
0
20
0
30
0
9
$EXTMIN
10
-26
20
-46
30
0
9
$EXTMAX
10
196.222232286
20
93.6000000002
30
0
9
$LIMMIN
10
0
20
0
9
$LIMMAX
10
420
20
297
9
$ORTHOMODE
70
0
9
$LTSCALE
40
1
9
$TEXTSTYLE
7
STANDARD
9
$CLAYER
8
y_beam
9
$DIMASZ
40
2
9
$DIMLFAC
40
1
9
$DIMSCALE
40
1
9
$DIMEXO
40
0.025
9
$DIMEXE
40
0.05
9
$DIMTXT
40
2
9
$DIMTSZ
40
0
9
$DIMAUNIT
70
0
9
$DIMADEC
70
2
9
$DIMLUNIT
70
2
9
$DIMSTYLE
2
STANDARD
9
$DIMGAP
40
0.025
9
$DIMTIH
70
0
9
$LUNITS
70
2
9
$LUPREC
70
4
9
$AUNITS
70
0
9
$AUPREC
70
2
9
$SPLINESEGS
70
8
9
$GRIDMODE
70
1
9
$SNAPSTYLE
70
0
9
$GRIDUNIT
10
0
20
0
9
$PINSBASE
10
2.60918904304e-06
20
1.06676347007e-05
30
0
9
$PLIMMIN
10
0
20
0
9
$PLIMMAX
10
1.98632572e-05
20
2.80924e-05
9
$INSUNITS
70
1
9
$PSVPSCALE
40
1.00353444833e-07
0
ENDSEC
0
SECTION
2
CLASSES
0
ENDSEC
0
SECTION
2
TABLES
0
TABLE
2
VPORT
5
8
330
0
100
AcDbSymbolTable
70
1
0
VPORT
5
31
330
2
100
AcDbSymbolTableRecord
100
AcDbViewportTableRecord
2
*ACTIVE
70
0
10
0
20
0
11
1
21
1
12
113.8
22
48.1000000001
13
0
23
0
14
10
24
10
15
10
25
10
16
0
26
0
36
1
17
0
27
0
37
0
40
152.4
41
1.81102362205
42
50
43
0
44
0
50
0
51
0
71
0
72
100
73
1
74
3
75
0
76
1
77
0
78
0
281
0
65
1
110
0
120
0
130
0
111
1
121
0
131
0
112
0
122
1
132
0
79
0
146
0
348
10020
60
7
61
5
292
1
282
1
141
0
142
0
63
250
421
3358443
0
ENDTAB
0
TABLE
2
LTYPE
5
5
330
0
100
AcDbSymbolTable
70
4
0
LTYPE
5
14
330
5
100
AcDbSymbolTableRecord
100
AcDbLinetypeTableRecord
2
ByBlock
70
0
3

72
65
73
0
40
0
0
LTYPE
5
15
330
5
100
AcDbSymbolTableRecord
100
AcDbLinetypeTableRecord
2
ByLayer
70
0
3

72
65
73
0
40
0
0
LTYPE
5
16
330
5
100
AcDbSymbolTableRecord
100
AcDbLinetypeTableRecord
2
Continuous
70
0
3
Solid line
72
65
73
0
40
0
0
LTYPE
5
32
330
5
100
AcDbSymbolTableRecord
100
AcDbLinetypeTableRecord
2
DOT
70
0
3
Dot . . . . . . . . . . . . . . . . . . . . . .
72
65
73
2
40
6.35
49
0
74
0
49
-6.35
74
0
0
LTYPE
5
33
330
5
100
AcDbSymbolTableRecord
100
AcDbLinetypeTableRecord
2
DOT2
70
0
3
Dot (.5x) .....................................
72
65
73
2
40
3.175
49
0
74
0
49
-3.175
74
0
0
LTYPE
5
34
330
5
100
AcDbSymbolTableRecord
100
AcDbLinetypeTableRecord
2
DOTX2
70
0
3
Dot (2x) .  .  .  .  .  .  .  .  .  .  .  .  .
72
65
73
2
40
12.7
49
0
74
0
49
-12.7
74
0
0
LTYPE
5
35
330
5
100
AcDbSymbolTableRecord
100
AcDbLinetypeTableRecord
2
DASHED
70
0
3
Dot . . . . . . . . . . . . . . . . . . . . . .
72
65
73
2
40
19.05
49
12.7
74
0
49
-6.35
74
0
0
LTYPE
5
36
330
5
100
AcDbSymbolTableRecord
100
AcDbLinetypeTableRecord
2
DASHED2
70
0
3
Dashed (.5x) _ _ _ _ _ _ _ _ _ _ _ _ _ _ _ _ _
72
65
73
2
40
9.525
49
6.35
74
0
49
-3.175
74
0
0
LTYPE
5
37
330
5
100
AcDbSymbolTableRecord
100
AcDbLinetypeTableRecord
2
DASHEDX2
70
0
3
Dashed (2x) ____  ____  ____  ____  ____  ___
72
65
73
2
40
38.1
49
25.4
74
0
49
-12.7
74
0
0
LTYPE
5
38
330
5
100
AcDbSymbolTableRecord
100
AcDbLinetypeTableRecord
2
DASHDOT
70
0
3
Dash dot __ . __ . __ . __ . __ . __ . __ . __
72
65
73
4
40
25.4
49
12.7
74
0
49
-6.35
74
0
49
0
74
0
49
-6.35
74
0
0
LTYPE
5
39
330
5
100
AcDbSymbolTableRecord
100
AcDbLinetypeTableRecord
2
DASHDOT2
70
0
3
Dash dot (.5x) _._._._._._._._._._._._._._._.
72
65
73
4
40
12.7
49
6.35
74
0
49
-3.175
74
0
49
0
74
0
49
-3.175
74
0
0
LTYPE
5
3A
330
5
100
AcDbSymbolTableRecord
100
AcDbLinetypeTableRecord
2
DASHDOTX2
70
0
3
Dash dot (2x) ____  .  ____  .  ____  .  ___
72
65
73
4
40
50.8
49
25.4
74
0
49
-12.7
74
0
49
0
74
0
49
-12.7
74
0
0
LTYPE
5
3B
330
5
100
AcDbSymbolTableRecord
100
AcDbLinetypeTableRecord
2
DIVIDE
70
0
3
Divide ____ . . ____ . . ____ . . ____ . . ____
72
65
73
6
40
31.75
49
12.7
74
0
49
-6.35
74
0
49
0
74
0
49
-6.35
74
0
49
0
74
0
49
-6.35
74
0
0
LTYPE
5
3C
330
5
100
AcDbSymbolTableRecord
100
AcDbLinetypeTableRecord
2
DIVIDE2
70
0
3
Divide (.5x) __..__..__..__..__..__..__..__.._
72
65
73
6
40
15.875
49
6.35
74
0
49
-3.175
74
0
49
0
74
0
49
-3.175
74
0
49
0
74
0
49
-3.175
74
0
0
LTYPE
5
3D
330
5
100
AcDbSymbolTableRecord
100
AcDbLinetypeTableRecord
2
DIVIDEX2
70
0
3
Divide (2x) ________  .  .  ________  .  .  _
72
65
73
6
40
63.5
49
25.4
74
0
49
-12.7
74
0
49
0
74
0
49
-12.7
74
0
49
0
74
0
49
-12.7
74
0
0
LTYPE
5
3E
330
5
100
AcDbSymbolTableRecord
100
AcDbLinetypeTableRecord
2
BORDER
70
0
3
Border __ __ . __ __ . __ __ . __ __ . __ __ .
72
65
73
6
40
44.45
49
12.7
74
0
49
-6.35
74
0
49
12.7
74
0
49
-6.35
74
0
49
0
74
0
49
-6.35
74
0
0
LTYPE
5
3F
330
5
100
AcDbSymbolTableRecord
100
AcDbLinetypeTableRecord
2
BORDER2
70
0
3
Border (.5x) __.__.__.__.__.__.__.__.__.__.__.
72
65
73
6
40
22.225
49
6.35
74
0
49
-3.175
74
0
49
6.35
74
0
49
-3.175
74
0
49
0
74
0
49
-3.175
74
0
0
LTYPE
5
40
330
5
100
AcDbSymbolTableRecord
100
AcDbLinetypeTableRecord
2
BORDERX2
70
0
3
Border (2x) ____  ____  .  ____  ____  .  ___
72
65
73
6
40
88.9
49
25.4
74
0
49
-12.7
74
0
49
25.4
74
0
49
-12.7
74
0
49
0
74
0
49
-12.7
74
0
0
LTYPE
5
41
330
5
100
AcDbSymbolTableRecord
100
AcDbLinetypeTableRecord
2
CENTER
70
0
3
Center ____ _ ____ _ ____ _ ____ _ ____ _ ____
72
65
73
4
40
50.8
49
31.75
74
0
49
-6.35
74
0
49
6.35
74
0
49
-6.35
74
0
0
LTYPE
5
42
330
5
100
AcDbSymbolTableRecord
100
AcDbLinetypeTableRecord
2
CENTER2
70
0
3
Center (.5x) ___ _ ___ _ ___ _ ___ _ ___ _ ___
72
65
73
4
40
28.575
49
19.05
74
0
49
-3.175
74
0
49
3.175
74
0
49
-3.175
74
0
0
LTYPE
5
43
330
5
100
AcDbSymbolTableRecord
100
AcDbLinetypeTableRecord
2
CENTERX2
70
0
3
Center (2x) ________  __  ________  __  _____
72
65
73
4
40
101.6
49
63.5
74
0
49
-12.7
74
0
49
12.7
74
0
49
-12.7
74
0
0
ENDTAB
0
TABLE
2
LAYER
5
2
330
0
100
AcDbSymbolTable
70
1
0
LAYER
5
10
330
2
100
AcDbSymbolTableRecord
100
AcDbLayerTableRecord
2
0
70
0
62
7
6
CONTINUOUS
370
0
390
F
0
LAYER
5
44
330
2
100
AcDbSymbolTableRecord
100
AcDbLayerTableRecord
2
notes
70
0
62
7
6
CONTINUOUS
370
0
390
F
0
LAYER
5
45
330
2
100
AcDbSymbolTableRecord
100
AcDbLayerTableRecord
2
z_beam
70
0
62
2
6
CONTINUOUS
370
0
390
F
0
LAYER
5
46
330
2
100
AcDbSymbolTableRecord
100
AcDbLayerTableRecord
2
grantry_frame
70
0
62
3
6
CONTINUOUS
370
0
390
F
0
LAYER
5
47
330
2
100
AcDbSymbolTableRecord
100
AcDbLayerTableRecord
2
tunnel
70
0
62
253
420
10526884
6
CONTINUOUS
370
0
390
F
0
LAYER
5
48
330
2
100
AcDbSymbolTableRecord
100
AcDbLayerTableRecord
2
dimension
70
0
62
7
6
CONTINUOUS
370
0
390
F
0
LAYER
5
49
330
2
100
AcDbSymbolTableRecord
100
AcDbLayerTableRecord
2
x_beam
70
0
62
30
420
16744448
6
CONTINUOUS
370
0
390
F
0
LAYER
5
4A
330
2
100
AcDbSymbolTableRecord
100
AcDbLayerTableRecord
2
y_beam
70
0
62
6
6
CONTINUOUS
370
0
390
F
0
LAYER
5
4B
330
2
100
AcDbSymbolTableRecord
100
AcDbLayerTableRecord
2
scratch
70
0
62
8
6
CONTINUOUS
370
0
390
F
0
LAYER
5
4C
330
2
100
AcDbSymbolTableRecord
100
AcDbLayerTableRecord
2
45_deg_support
70
0
62
4
6
CONTINUOUS
370
0
390
F
0
ENDTAB
0
TABLE
2
STYLE
5
3
330
0
100
AcDbSymbolTable
70
3
0
STYLE
5
4D
330
2
100
AcDbSymbolTableRecord
100
AcDbTextStyleTableRecord
2
iso
70
0
40
0
41
1
50
0
71
0
42
1
3
iso
4

0
STYLE
5
4E
330
2
100
AcDbSymbolTableRecord
100
AcDbTextStyleTableRecord
2
Standard
70
0
40
0
41
1
50
0
71
0
42
1
3
txt
4

0
ENDTAB
0
TABLE
2
VIEW
5
6
330
0
100
AcDbSymbolTable
70
0
0
ENDTAB
0
TABLE
2
UCS
5
7
330
0
100
AcDbSymbolTable
70
0
0
ENDTAB
0
TABLE
2
APPID
5
9
330
0
100
AcDbSymbolTable
70
1
0
APPID
5
12
330
9
100
AcDbSymbolTableRecord
100
AcDbRegAppTableRecord
2
ACAD
70
0
0
ENDTAB
0
TABLE
2
DIMSTYLE
5
A
330
0
100
AcDbSymbolTable
70
1
100
AcDbDimStyleTable
71
1
0
DIMSTYLE
105
4F
330
A
100
AcDbSymbolTableRecord
100
AcDbDimStyleTableRecord
2
Standard
70
0
40
1
41
2
42
0.025
43
0.38
44
0.05
45
0
46
0
47
0
48
0
140
2
141
0.09
142
0
143
25.4
144
1
145
0
146
1
147
0.025
148
0
71
0
72
0
73
0
74
1
75
0
76
0
77
0
78
0
79
0
170
0
171
2
172
0
173
0
174
0
175
0
176
0
177
0
178
0
179
0
271
4
272
4
273
2
274
2
275
0
276
0
277
2
278
46
279
0
280
0
281
0
282
0
283
1
284
0
285
0
286
0
288
0
289
3
340
Standard
341

371
-2
372
-2
0
ENDTAB
0
TABLE
2
BLOCK_RECORD
5
1
330
0
100
AcDbSymbolTable
70
2
0
BLOCK_RECORD
5
1F
330
1
100
AcDbSymbolTableRecord
100
AcDbBlockTableRecord
2
*Model_Space
70
0
280
1
281
0
0
BLOCK_RECORD
5
1E
330
1
100
AcDbSymbolTableRecord
100
AcDbBlockTableRecord
2
*Paper_Space
70
0
280
1
281
0
0
BLOCK_RECORD
5
50
330
1
100
AcDbSymbolTableRecord
100
AcDbBlockTableRecord
2
*D19
70
0
280
1
281
0
0
BLOCK_RECORD
5
53
330
1
100
AcDbSymbolTableRecord
100
AcDbBlockTableRecord
2
*D15
70
0
280
1
281
0
0
BLOCK_RECORD
5
56
330
1
100
AcDbSymbolTableRecord
100
AcDbBlockTableRecord
2
*D35
70
0
280
1
281
0
0
BLOCK_RECORD
5
59
330
1
100
AcDbSymbolTableRecord
100
AcDbBlockTableRecord
2
*D6
70
0
280
1
281
0
0
BLOCK_RECORD
5
5C
330
1
100
AcDbSymbolTableRecord
100
AcDbBlockTableRecord
2
*D37
70
0
280
1
281
0
0
BLOCK_RECORD
5
5F
330
1
100
AcDbSymbolTableRecord
100
AcDbBlockTableRecord
2
*D39
70
0
280
1
281
0
0
BLOCK_RECORD
5
62
330
1
100
AcDbSymbolTableRecord
100
AcDbBlockTableRecord
2
*D9
70
0
280
1
281
0
0
BLOCK_RECORD
5
65
330
1
100
AcDbSymbolTableRecord
100
AcDbBlockTableRecord
2
*D24
70
0
280
1
281
0
0
BLOCK_RECORD
5
68
330
1
100
AcDbSymbolTableRecord
100
AcDbBlockTableRecord
2
*D33
70
0
280
1
281
0
0
BLOCK_RECORD
5
6B
330
1
100
AcDbSymbolTableRecord
100
AcDbBlockTableRecord
2
*D28
70
0
280
1
281
0
0
BLOCK_RECORD
5
6E
330
1
100
AcDbSymbolTableRecord
100
AcDbBlockTableRecord
2
*D1
70
0
280
1
281
0
0
BLOCK_RECORD
5
71
330
1
100
AcDbSymbolTableRecord
100
AcDbBlockTableRecord
2
*D16
70
0
280
1
281
0
0
BLOCK_RECORD
5
74
330
1
100
AcDbSymbolTableRecord
100
AcDbBlockTableRecord
2
*D13
70
0
280
1
281
0
0
BLOCK_RECORD
5
77
330
1
100
AcDbSymbolTableRecord
100
AcDbBlockTableRecord
2
*D31
70
0
280
1
281
0
0
BLOCK_RECORD
5
7A
330
1
100
AcDbSymbolTableRecord
100
AcDbBlockTableRecord
2
*D4
70
0
280
1
281
0
0
BLOCK_RECORD
5
7D
330
1
100
AcDbSymbolTableRecord
100
AcDbBlockTableRecord
2
*D26
70
0
280
1
281
0
0
BLOCK_RECORD
5
80
330
1
100
AcDbSymbolTableRecord
100
AcDbBlockTableRecord
2
*D14
70
0
280
1
281
0
0
BLOCK_RECORD
5
83
330
1
100
AcDbSymbolTableRecord
100
AcDbBlockTableRecord
2
*D23
70
0
280
1
281
0
0
BLOCK_RECORD
5
86
330
1
100
AcDbSymbolTableRecord
100
AcDbBlockTableRecord
2
*D36
70
0
280
1
281
0
0
BLOCK_RECORD
5
89
330
1
100
AcDbSymbolTableRecord
100
AcDbBlockTableRecord
2
*D12
70
0
280
1
281
0
0
BLOCK_RECORD
5
8C
330
1
100
AcDbSymbolTableRecord
100
AcDbBlockTableRecord
2
*D7
70
0
280
1
281
0
0
BLOCK_RECORD
5
8F
330
1
100
AcDbSymbolTableRecord
100
AcDbBlockTableRecord
2
*D38
70
0
280
1
281
0
0
BLOCK_RECORD
5
92
330
1
100
AcDbSymbolTableRecord
100
AcDbBlockTableRecord
2
*D20
70
0
280
1
281
0
0
BLOCK_RECORD
5
95
330
1
100
AcDbSymbolTableRecord
100
AcDbBlockTableRecord
2
*D32
70
0
280
1
281
0
0
BLOCK_RECORD
5
98
330
1
100
AcDbSymbolTableRecord
100
AcDbBlockTableRecord
2
*D10
70
0
280
1
281
0
0
BLOCK_RECORD
5
9B
330
1
100
AcDbSymbolTableRecord
100
AcDbBlockTableRecord
2
*D29
70
0
280
1
281
0
0
BLOCK_RECORD
5
9E
330
1
100
AcDbSymbolTableRecord
100
AcDbBlockTableRecord
2
*D18
70
0
280
1
281
0
0
BLOCK_RECORD
5
A1
330
1
100
AcDbSymbolTableRecord
100
AcDbBlockTableRecord
2
*D2
70
0
280
1
281
0
0
BLOCK_RECORD
5
A4
330
1
100
AcDbSymbolTableRecord
100
AcDbBlockTableRecord
2
*D27
70
0
280
1
281
0
0
BLOCK_RECORD
5
A7
330
1
100
AcDbSymbolTableRecord
100
AcDbBlockTableRecord
2
*D3
70
0
280
1
281
0
0
BLOCK_RECORD
5
AA
330
1
100
AcDbSymbolTableRecord
100
AcDbBlockTableRecord
2
*D22
70
0
280
1
281
0
0
BLOCK_RECORD
5
AD
330
1
100
AcDbSymbolTableRecord
100
AcDbBlockTableRecord
2
*D21
70
0
280
1
281
0
0
BLOCK_RECORD
5
B0
330
1
100
AcDbSymbolTableRecord
100
AcDbBlockTableRecord
2
*D5
70
0
280
1
281
0
0
BLOCK_RECORD
5
B3
330
1
100
AcDbSymbolTableRecord
100
AcDbBlockTableRecord
2
*D25
70
0
280
1
281
0
0
BLOCK_RECORD
5
B6
330
1
100
AcDbSymbolTableRecord
100
AcDbBlockTableRecord
2
*D8
70
0
280
1
281
0
0
BLOCK_RECORD
5
B9
330
1
100
AcDbSymbolTableRecord
100
AcDbBlockTableRecord
2
*D11
70
0
280
1
281
0
0
BLOCK_RECORD
5
BC
330
1
100
AcDbSymbolTableRecord
100
AcDbBlockTableRecord
2
*D17
70
0
280
1
281
0
0
BLOCK_RECORD
5
BF
330
1
100
AcDbSymbolTableRecord
100
AcDbBlockTableRecord
2
*D34
70
0
280
1
281
0
0
BLOCK_RECORD
5
C2
330
1
100
AcDbSymbolTableRecord
100
AcDbBlockTableRecord
2
*D30
70
0
280
1
281
0
0
ENDTAB
0
ENDSEC
0
SECTION
2
BLOCKS
0
BLOCK
5
20
330
1F
100
AcDbEntity
8
0
100
AcDbBlockBegin
2
*Model_Space
70
0
10
0
20
0
30
0
3
*Model_Space
1

0
ENDBLK
5
21
330
1F
100
AcDbEntity
8
0
100
AcDbBlockEnd
0
BLOCK
5
1C
330
1B
100
AcDbEntity
8
0
100
AcDbBlockBegin
2
*Paper_Space
70
0
10
0
20
0
30
0
3
*Paper_Space
1

0
ENDBLK
5
1D
330
1F
100
AcDbEntity
8
0
100
AcDbBlockEnd
0
BLOCK
5
51
330
50
100
AcDbEntity
8
0
100
AcDbBlockBegin
2
*D19
70
1
10
0
20
0
3
*D19
1

0
LINE
5
C5
100
AcDbEntity
8
notes
6
CONTINUOUS
62
7
370
0
100
AcDbLine
10
171.6
20
69.5
11
171.6
21
0
0
SOLID
5
C6
100
AcDbEntity
8
notes
6
CONTINUOUS
62
7
370
0
100
AcDbTrace
10
171.6
20
69.5
30
0
11
171.933027726
21
67.5
31
0
12
171.266972274
22
67.5
32
0
13
171.266972274
23
67.5
33
0
0
SOLID
5
C7
100
AcDbEntity
8
notes
6
CONTINUOUS
62
7
370
0
100
AcDbTrace
10
171.6
20
0
30
0
11
171.266972274
21
2
31
0
12
171.933027726
22
2
32
0
13
171.933027726
23
2
33
0
0
MTEXT
5
C8
100
AcDbEntity
8
notes
6
CONTINUOUS
62
7
370
0
100
AcDbMText
10
170.575
20
34.75
30
0
40
2
41
4.66666666667
71
5
72
1
1
69.5
7
standard
210
0
220
0
230
1
50
90
73
2
44
1
0
LINE
5
C9
100
AcDbEntity
8
notes
6
CONTINUOUS
62
7
370
0
100
AcDbLine
10
163.025
20
69.5
11
171.65
21
69.5
0
LINE
5
CA
100
AcDbEntity
8
notes
6
CONTINUOUS
62
7
370
0
100
AcDbLine
10
163.025
20
0
11
171.65
21
0
0
ENDBLK
5
52
330
50
100
AcDbEntity
8
0
100
AcDbBlockEnd
0
BLOCK
5
54
330
53
100
AcDbEntity
8
0
100
AcDbBlockBegin
2
*D15
70
1
10
0
20
0
3
*D15
1

0
LINE
5
CB
100
AcDbEntity
8
notes
6
CONTINUOUS
62
7
370
0
100
AcDbLine
10
130
20
80
11
163
21
80
0
SOLID
5
CC
100
AcDbEntity
8
notes
6
CONTINUOUS
62
7
370
0
100
AcDbTrace
10
130
20
80
30
0
11
132
21
80.3330277262
31
0
12
132
22
79.6669722738
32
0
13
132
23
79.6669722738
33
0
0
SOLID
5
CD
100
AcDbEntity
8
notes
6
CONTINUOUS
62
7
370
0
100
AcDbTrace
10
163
20
80
30
0
11
161
21
79.6669722738
31
0
12
161
22
80.3330277262
32
0
13
161
23
80.3330277262
33
0
0
MTEXT
5
CE
100
AcDbEntity
8
notes
6
CONTINUOUS
62
7
370
0
100
AcDbMText
10
146.5
20
81.025
30
0
40
2
41
2.44444444444
71
5
72
1
1
33
7
standard
210
0
220
0
230
1
50
0
73
2
44
1
0
LINE
5
CF
100
AcDbEntity
8
notes
6
CONTINUOUS
62
7
370
0
100
AcDbLine
10
130
20
74.025
11
130
21
80.05
0
LINE
5
D0
100
AcDbEntity
8
notes
6
CONTINUOUS
62
7
370
0
100
AcDbLine
10
163
20
74.025
11
163
21
80.05
0
ENDBLK
5
55
330
53
100
AcDbEntity
8
0
100
AcDbBlockEnd
0
BLOCK
5
57
330
56
100
AcDbEntity
8
0
100
AcDbBlockBegin
2
*D35
70
1
10
0
20
0
3
*D35
1

0
LINE
5
D1
100
AcDbEntity
8
dimension
6
CONTINUOUS
62
7
370
0
100
AcDbLine
10
157.5
20
-6.55360000001
11
167
21
-6.55360000001
0
SOLID
5
D2
100
AcDbEntity
8
dimension
6
CONTINUOUS
62
7
370
0
100
AcDbTrace
10
161.5
20
-6.55360000001
30
0
11
159.5
21
-6.88662772623
31
0
12
159.5
22
-6.22057227379
32
0
13
159.5
23
-6.22057227379
33
0
0
SOLID
5
D3
100
AcDbEntity
8
dimension
6
CONTINUOUS
62
7
370
0
100
AcDbTrace
10
163
20
-6.55360000001
30
0
11
165
21
-6.22057227379
31
0
12
165
22
-6.88662772623
32
0
13
165
23
-6.88662772623
33
0
0
MTEXT
5
D4
100
AcDbEntity
8
dimension
6
CONTINUOUS
62
7
370
0
100
AcDbMText
10
164.358333333
20
-5.52860000001
30
0
40
2
41
2.66666666667
71
5
72
1
1
1.5
7
standard
210
0
220
0
230
1
50
0
73
2
44
1
0
LINE
5
D5
100
AcDbEntity
8
dimension
6
CONTINUOUS
62
7
370
0
100
AcDbLine
10
161.5
20
-0.025
11
161.5
21
-6.60360000001
0
LINE
5
D6
100
AcDbEntity
8
dimension
6
CONTINUOUS
62
7
370
0
100
AcDbLine
10
163
20
-0.025
11
163
21
-6.60360000001
0
ENDBLK
5
58
330
56
100
AcDbEntity
8
0
100
AcDbBlockEnd
0
BLOCK
5
5A
330
59
100
AcDbEntity
8
0
100
AcDbBlockBegin
2
*D6
70
1
10
0
20
0
3
*D6
1

0
ENDBLK
5
5B
330
59
100
AcDbEntity
8
0
100
AcDbBlockEnd
0
BLOCK
5
5D
330
5C
100
AcDbEntity
8
0
100
AcDbBlockBegin
2
*D37
70
1
10
0
20
0
3
*D37
1

0
LINE
5
D7
100
AcDbEntity
8
45_deg_support
6
CONTINUOUS
62
7
370
0
100
AcDbLine
10
8.7
20
19.2
11
15
21
25
0
SOLID
5
D8
100
AcDbEntity
8
45_deg_support
6
CONTINUOUS
62
7
370
0
100
AcDbTrace
10
8.7
20
19.2
30
0
11
9.94583361127
21
20.7996268563
31
0
12
10.3969592801
22
20.3096110437
32
0
13
10.3969592801
23
20.3096110437
33
0
0
ENDBLK
5
5E
330
5C
100
AcDbEntity
8
0
100
AcDbBlockEnd
0
BLOCK
5
60
330
5F
100
AcDbEntity
8
0
100
AcDbBlockBegin
2
*D39
70
1
10
0
20
0
3
*D39
1

0
ENDBLK
5
61
330
5F
100
AcDbEntity
8
0
100
AcDbBlockEnd
0
BLOCK
5
63
330
62
100
AcDbEntity
8
0
100
AcDbBlockBegin
2
*D9
70
1
10
0
20
0
3
*D9
1

0
ENDBLK
5
64
330
62
100
AcDbEntity
8
0
100
AcDbBlockEnd
0
BLOCK
5
66
330
65
100
AcDbEntity
8
0
100
AcDbBlockBegin
2
*D24
70
1
10
0
20
0
3
*D24
1

0
ENDBLK
5
67
330
65
100
AcDbEntity
8
0
100
AcDbBlockEnd
0
BLOCK
5
69
330
68
100
AcDbEntity
8
0
100
AcDbBlockBegin
2
*D33
70
1
10
0
20
0
3
*D33
1

0
LINE
5
D9
100
AcDbEntity
8
dimension
6
CONTINUOUS
62
7
370
0
100
AcDbLine
10
-3.17440000001
20
18.5
11
-3.17440000001
21
6
0
SOLID
5
DA
100
AcDbEntity
8
dimension
6
CONTINUOUS
62
7
370
0
100
AcDbTrace
10
-3.17440000001
20
14.5
30
0
11
-3.50742772623
21
16.5
31
0
12
-2.84137227379
22
16.5
32
0
13
-2.84137227379
23
16.5
33
0
0
SOLID
5
DB
100
AcDbEntity
8
dimension
6
CONTINUOUS
62
7
370
0
100
AcDbTrace
10
-3.17440000001
20
10
30
0
11
-2.84137227379
21
8
31
0
12
-3.50742772623
22
8
32
0
13
-3.50742772623
23
8
33
0
0
MTEXT
5
DC
100
AcDbEntity
8
dimension
6
CONTINUOUS
62
7
370
0
100
AcDbMText
10
-4.19940000001
20
12.25
30
0
40
2
41
3.33333333333
71
5
72
1
1
4.5
7
standard
210
0
220
0
230
1
50
90
73
2
44
1
0
LINE
5
DD
100
AcDbEntity
8
dimension
6
CONTINUOUS
62
7
370
0
100
AcDbLine
10
4.475
20
14.5
11
-3.22440000001
21
14.5
0
LINE
5
DE
100
AcDbEntity
8
dimension
6
CONTINUOUS
62
7
370
0
100
AcDbLine
10
4.475
20
10
11
-3.22440000001
21
10
0
ENDBLK
5
6A
330
68
100
AcDbEntity
8
0
100
AcDbBlockEnd
0
BLOCK
5
6C
330
6B
100
AcDbEntity
8
0
100
AcDbBlockBegin
2
*D28
70
1
10
0
20
0
3
*D28
1

0
ENDBLK
5
6D
330
6B
100
AcDbEntity
8
0
100
AcDbBlockEnd
0
BLOCK
5
6F
330
6E
100
AcDbEntity
8
0
100
AcDbBlockBegin
2
*D1
70
1
10
0
20
0
3
*D1
1

0
LINE
5
DF
100
AcDbEntity
8
dimension
6
CONTINUOUS
62
7
370
0
100
AcDbLine
10
77.0000000001
20
69.5
11
77.0000000001
21
0
0
SOLID
5
E0
100
AcDbEntity
8
dimension
6
CONTINUOUS
62
7
370
0
100
AcDbTrace
10
77.0000000001
20
69.5
30
0
11
77.3330277263
21
67.5
31
0
12
76.6669722739
22
67.5
32
0
13
76.6669722739
23
67.5
33
0
0
SOLID
5
E1
100
AcDbEntity
8
dimension
6
CONTINUOUS
62
7
370
0
100
AcDbTrace
10
77.0000000001
20
0
30
0
11
76.6669722739
21
2
31
0
12
77.3330277263
22
2
32
0
13
77.3330277263
23
2
33
0
0
MTEXT
5
E2
100
AcDbEntity
8
dimension
6
CONTINUOUS
62
7
370
0
100
AcDbMText
10
75.9750000001
20
34.75
30
0
40
2
41
4.66666666667
71
5
72
1
1
69.5
7
standard
210
0
220
0
230
1
50
90
73
2
44
1
0
LINE
5
E3
100
AcDbEntity
8
dimension
6
CONTINUOUS
62
7
370
0
100
AcDbLine
10
60.025
20
69.5
11
77.0500000001
21
69.5
0
LINE
5
E4
100
AcDbEntity
8
dimension
6
CONTINUOUS
62
7
370
0
100
AcDbLine
10
60.025
20
0
11
77.0500000001
21
0
0
ENDBLK
5
70
330
6E
100
AcDbEntity
8
0
100
AcDbBlockEnd
0
BLOCK
5
72
330
71
100
AcDbEntity
8
0
100
AcDbBlockBegin
2
*D16
70
1
10
0
20
0
3
*D16
1

0
ENDBLK
5
73
330
71
100
AcDbEntity
8
0
100
AcDbBlockEnd
0
BLOCK
5
75
330
74
100
AcDbEntity
8
0
100
AcDbBlockBegin
2
*D13
70
1
10
0
20
0
3
*D13
1

0
ENDBLK
5
76
330
74
100
AcDbEntity
8
0
100
AcDbBlockEnd
0
BLOCK
5
78
330
77
100
AcDbEntity
8
0
100
AcDbBlockBegin
2
*D31
70
1
10
0
20
0
3
*D31
1

0
LINE
5
E5
100
AcDbEntity
8
y_beam
6
CONTINUOUS
62
7
370
0
100
AcDbLine
10
150
20
15
11
146
21
22
0
SOLID
5
E6
100
AcDbEntity
8
y_beam
6
CONTINUOUS
62
7
370
0
100
AcDbTrace
10
150
20
15
30
0
11
148.718573084
21
16.5712582617
31
0
12
149.296871163
22
16.9017143068
32
0
13
149.296871163
23
16.9017143068
33
0
0
ENDBLK
5
79
330
77
100
AcDbEntity
8
0
100
AcDbBlockEnd
0
BLOCK
5
7B
330
7A
100
AcDbEntity
8
0
100
AcDbBlockBegin
2
*D4
70
1
10
0
20
0
3
*D4
1

0
ENDBLK
5
7C
330
7A
100
AcDbEntity
8
0
100
AcDbBlockEnd
0
BLOCK
5
7E
330
7D
100
AcDbEntity
8
0
100
AcDbBlockBegin
2
*D26
70
1
10
0
20
0
3
*D26
1

0
LINE
5
E7
100
AcDbEntity
8
z_beam
6
CONTINUOUS
62
7
370
0
100
AcDbLine
10
-1
20
29
11
-9
21
29
0
SOLID
5
E8
100
AcDbEntity
8
z_beam
6
CONTINUOUS
62
7
370
0
100
AcDbTrace
10
-1
20
29
30
0
11
-3
21
28.6669722738
31
0
12
-3
22
29.3330277262
32
0
13
-3
23
29.3330277262
33
0
0
ENDBLK
5
7F
330
7D
100
AcDbEntity
8
0
100
AcDbBlockEnd
0
BLOCK
5
81
330
80
100
AcDbEntity
8
0
100
AcDbBlockBegin
2
*D14
70
1
10
0
20
0
3
*D14
1

0
ENDBLK
5
82
330
80
100
AcDbEntity
8
0
100
AcDbBlockEnd
0
BLOCK
5
84
330
83
100
AcDbEntity
8
0
100
AcDbBlockBegin
2
*D23
70
1
10
0
20
0
3
*D23
1

0
LINE
5
E9
100
AcDbEntity
8
tunnel
6
CONTINUOUS
62
7
370
0
100
AcDbLine
10
133
20
57
11
124
21
57
0
SOLID
5
EA
100
AcDbEntity
8
tunnel
6
CONTINUOUS
62
7
370
0
100
AcDbTrace
10
133
20
57
30
0
11
131
21
56.6669722738
31
0
12
131
22
57.3330277262
32
0
13
131
23
57.3330277262
33
0
0
ENDBLK
5
85
330
83
100
AcDbEntity
8
0
100
AcDbBlockEnd
0
BLOCK
5
87
330
86
100
AcDbEntity
8
0
100
AcDbBlockBegin
2
*D36
70
1
10
0
20
0
3
*D36
1

0
LINE
5
EB
100
AcDbEntity
8
x_beam
6
CONTINUOUS
62
7
370
0
100
AcDbLine
10
30
20
15
11
35
21
20
0
SOLID
5
EC
100
AcDbEntity
8
x_beam
6
CONTINUOUS
62
7
370
0
100
AcDbTrace
10
30
20
15
30
0
11
31.1787273988
21
16.6496997259
31
0
12
31.6496997259
22
16.1787273988
32
0
13
31.6496997259
23
16.1787273988
33
0
0
ENDBLK
5
88
330
86
100
AcDbEntity
8
0
100
AcDbBlockEnd
0
BLOCK
5
8A
330
89
100
AcDbEntity
8
0
100
AcDbBlockBegin
2
*D12
70
1
10
0
20
0
3
*D12
1

0
LINE
5
ED
100
AcDbEntity
8
dimension
6
CONTINUOUS
62
7
370
0
100
AcDbLine
10
131.5
20
5.37600000001
11
161.5
21
5.37600000001
0
SOLID
5
EE
100
AcDbEntity
8
dimension
6
CONTINUOUS
62
7
370
0
100
AcDbTrace
10
131.5
20
5.37600000001
30
0
11
133.5
21
5.70902772623
31
0
12
133.5
22
5.04297227379
32
0
13
133.5
23
5.04297227379
33
0
0
SOLID
5
EF
100
AcDbEntity
8
dimension
6
CONTINUOUS
62
7
370
0
100
AcDbTrace
10
161.5
20
5.37600000001
30
0
11
159.5
21
5.04297227379
31
0
12
159.5
22
5.70902772623
32
0
13
159.5
23
5.70902772623
33
0
0
MTEXT
5
F0
100
AcDbEntity
8
dimension
6
CONTINUOUS
62
7
370
0
100
AcDbMText
10
146.5
20
6.40100000001
30
0
40
2
41
2.44444444444
71
5
72
1
1
30
7
standard
210
0
220
0
230
1
50
0
73
2
44
1
0
LINE
5
F1
100
AcDbEntity
8
dimension
6
CONTINUOUS
62
7
370
0
100
AcDbLine
10
131.5
20
9.975
11
131.5
21
5.32600000001
0
LINE
5
F2
100
AcDbEntity
8
dimension
6
CONTINUOUS
62
7
370
0
100
AcDbLine
10
161.5
20
9.975
11
161.5
21
5.32600000001
0
ENDBLK
5
8B
330
89
100
AcDbEntity
8
0
100
AcDbBlockEnd
0
BLOCK
5
8D
330
8C
100
AcDbEntity
8
0
100
AcDbBlockBegin
2
*D7
70
1
10
0
20
0
3
*D7
1

0
ENDBLK
5
8E
330
8C
100
AcDbEntity
8
0
100
AcDbBlockEnd
0
BLOCK
5
90
330
8F
100
AcDbEntity
8
0
100
AcDbBlockBegin
2
*D38
70
1
10
0
20
0
3
*D38
1

0
LINE
5
F3
100
AcDbEntity
8
dimension
6
CONTINUOUS
62
7
370
0
100
AcDbLine
10
55.4823223305
20
23.0029590437
11
53.625205348
21
24.8600760262
0
LINE
5
F4
100
AcDbEntity
8
dimension
6
CONTINUOUS
62
7
370
0
100
AcDbLine
10
46.9970409563
20
14.5176776695
11
45.1399239738
21
16.374794652
0
LINE
5
F5
100
AcDbEntity
8
dimension
6
CONTINUOUS
62
7
370
0
100
AcDbLine
10
53.6605606871
20
24.8247206871
11
45.1752793129
21
16.3394393129
0
SOLID
5
F6
100
AcDbEntity
8
dimension
6
CONTINUOUS
62
7
370
0
100
AcDbTrace
10
53.6605606871
20
24.8247206871
30
0
11
52.4818332883
21
23.1750209612
31
0
12
52.0108609612
22
23.6459932883
32
0
13
52.0108609612
23
23.6459932883
33
0
0
SOLID
5
F7
100
AcDbEntity
8
dimension
6
CONTINUOUS
62
7
370
0
100
AcDbTrace
10
45.1752793129
20
16.3394393129
30
0
11
46.3540067117
21
17.9891390388
31
0
12
46.8249790388
22
17.5181667117
32
0
13
46.8249790388
23
17.5181667117
33
0
0
MTEXT
5
F8
100
AcDbEntity
8
dimension
6
CONTINUOUS
62
7
370
0
100
AcDbMText
10
48.6931355493
20
21.3068644507
30
0
40
2
41
2
71
5
72
1
1
12
7
standard
210
0
220
0
230
1
50
45
73
2
44
1
0
ENDBLK
5
91
330
8F
100
AcDbEntity
8
0
100
AcDbBlockEnd
0
BLOCK
5
93
330
92
100
AcDbEntity
8
0
100
AcDbBlockBegin
2
*D20
70
1
10
0
20
0
3
*D20
1

0
LINE
5
F9
100
AcDbEntity
8
grantry_frame
6
CONTINUOUS
62
7
370
0
100
AcDbLine
10
-1
20
72
11
-7
21
73
0
SOLID
5
FA
100
AcDbEntity
8
grantry_frame
6
CONTINUOUS
62
7
370
0
100
AcDbTrace
10
-1
20
72
30
0
11
-3.0275372686
21
72.000301449
31
0
12
-2.91803842673
22
72.6572945002
32
0
13
-2.91803842673
23
72.6572945002
33
0
0
ENDBLK
5
94
330
92
100
AcDbEntity
8
0
100
AcDbBlockEnd
0
BLOCK
5
96
330
95
100
AcDbEntity
8
0
100
AcDbBlockBegin
2
*D32
70
1
10
0
20
0
3
*D32
1

0
LINE
5
FB
100
AcDbEntity
8
dimension
6
CONTINUOUS
62
7
370
0
100
AcDbLine
10
127.6116992
20
18.5
11
127.6116992
21
6
0
SOLID
5
FC
100
AcDbEntity
8
dimension
6
CONTINUOUS
62
7
370
0
100
AcDbTrace
10
127.6116992
20
14.5
30
0
11
127.278671474
21
16.5
31
0
12
127.944726926
22
16.5
32
0
13
127.944726926
23
16.5
33
0
0
SOLID
5
FD
100
AcDbEntity
8
dimension
6
CONTINUOUS
62
7
370
0
100
AcDbTrace
10
127.6116992
20
10
30
0
11
127.944726926
21
8
31
0
12
127.278671474
22
8
32
0
13
127.278671474
23
8
33
0
0
MTEXT
5
FE
100
AcDbEntity
8
dimension
6
CONTINUOUS
62
7
370
0
100
AcDbMText
10
126.5866992
20
12.25
30
0
40
2
41
3.33333333333
71
5
72
1
1
4.5
7
standard
210
0
220
0
230
1
50
90
73
2
44
1
0
LINE
5
FF
100
AcDbEntity
8
dimension
6
CONTINUOUS
62
7
370
0
100
AcDbLine
10
131.475
20
14.5
11
127.5616992
21
14.5
0
LINE
5
100
100
AcDbEntity
8
dimension
6
CONTINUOUS
62
7
370
0
100
AcDbLine
10
131.475
20
10
11
127.5616992
21
10
0
ENDBLK
5
97
330
95
100
AcDbEntity
8
0
100
AcDbBlockEnd
0
BLOCK
5
99
330
98
100
AcDbEntity
8
0
100
AcDbBlockBegin
2
*D10
70
1
10
0
20
0
3
*D10
1

0
ENDBLK
5
9A
330
98
100
AcDbEntity
8
0
100
AcDbBlockEnd
0
BLOCK
5
9C
330
9B
100
AcDbEntity
8
0
100
AcDbBlockBegin
2
*D29
70
1
10
0
20
0
3
*D29
1

0
ENDBLK
5
9D
330
9B
100
AcDbEntity
8
0
100
AcDbBlockEnd
0
BLOCK
5
9F
330
9E
100
AcDbEntity
8
0
100
AcDbBlockBegin
2
*D18
70
1
10
0
20
0
3
*D18
1

0
LINE
5
101
100
AcDbEntity
8
notes
6
CONTINUOUS
62
7
370
0
100
AcDbLine
10
40
20
35
11
20
21
35
0
SOLID
5
102
100
AcDbEntity
8
notes
6
CONTINUOUS
62
7
370
0
100
AcDbTrace
10
40
20
35
30
0
11
38
21
34.6669722738
31
0
12
38
22
35.3330277262
32
0
13
38
23
35.3330277262
33
0
0
ENDBLK
5
A0
330
9E
100
AcDbEntity
8
0
100
AcDbBlockEnd
0
BLOCK
5
A2
330
A1
100
AcDbEntity
8
0
100
AcDbBlockBegin
2
*D2
70
1
10
0
20
0
3
*D2
1

0
LINE
5
103
100
AcDbEntity
8
dimension
6
CONTINUOUS
62
7
370
0
100
AcDbLine
10
0
20
80
11
60
21
80
0
SOLID
5
104
100
AcDbEntity
8
dimension
6
CONTINUOUS
62
7
370
0
100
AcDbTrace
10
0
20
80
30
0
11
2
21
80.3330277262
31
0
12
2
22
79.6669722738
32
0
13
2
23
79.6669722738
33
0
0
SOLID
5
105
100
AcDbEntity
8
dimension
6
CONTINUOUS
62
7
370
0
100
AcDbTrace
10
60
20
80
30
0
11
58
21
79.6669722738
31
0
12
58
22
80.3330277262
32
0
13
58
23
80.3330277262
33
0
0
MTEXT
5
106
100
AcDbEntity
8
dimension
6
CONTINUOUS
62
7
370
0
100
AcDbMText
10
30
20
81.025
30
0
40
2
41
2.44444444444
71
5
72
1
1
60
7
standard
210
0
220
0
230
1
50
0
73
2
44
1
0
LINE
5
107
100
AcDbEntity
8
dimension
6
CONTINUOUS
62
7
370
0
100
AcDbLine
10
1.53080849893e-18
20
74.025
11
3.06161699787e-18
21
80.05
0
LINE
5
108
100
AcDbEntity
8
dimension
6
CONTINUOUS
62
7
370
0
100
AcDbLine
10
60
20
74.025
11
60
21
80.05
0
ENDBLK
5
A3
330
A1
100
AcDbEntity
8
0
100
AcDbBlockEnd
0
BLOCK
5
A5
330
A4
100
AcDbEntity
8
0
100
AcDbBlockBegin
2
*D27
70
1
10
0
20
0
3
*D27
1

0
ENDBLK
5
A6
330
A4
100
AcDbEntity
8
0
100
AcDbBlockEnd
0
BLOCK
5
A8
330
A7
100
AcDbEntity
8
0
100
AcDbBlockBegin
2
*D3
70
1
10
0
20
0
3
*D3
1

0
LINE
5
109
100
AcDbEntity
8
dimension
6
CONTINUOUS
62
7
370
0
100
AcDbLine
10
4.5
20
4.01408000001
11
55.5
21
4.01408000001
0
SOLID
5
10A
100
AcDbEntity
8
dimension
6
CONTINUOUS
62
7
370
0
100
AcDbTrace
10
4.5
20
4.01408000001
30
0
11
6.5
21
4.34710772623
31
0
12
6.5
22
3.68105227379
32
0
13
6.5
23
3.68105227379
33
0
0
SOLID
5
10B
100
AcDbEntity
8
dimension
6
CONTINUOUS
62
7
370
0
100
AcDbTrace
10
55.5
20
4.01408000001
30
0
11
53.5
21
3.68105227379
31
0
12
53.5
22
4.34710772623
32
0
13
53.5
23
4.34710772623
33
0
0
MTEXT
5
10C
100
AcDbEntity
8
dimension
6
CONTINUOUS
62
7
370
0
100
AcDbMText
10
30
20
5.03908000001
30
0
40
2
41
2
71
5
72
1
1
51
7
standard
210
0
220
0
230
1
50
0
73
2
44
1
0
LINE
5
10D
100
AcDbEntity
8
dimension
6
CONTINUOUS
62
7
370
0
100
AcDbLine
10
4.5
20
9.975
11
4.5
21
3.96408000001
0
LINE
5
10E
100
AcDbEntity
8
dimension
6
CONTINUOUS
62
7
370
0
100
AcDbLine
10
55.5
20
9.975
11
55.5
21
3.96408000001
0
ENDBLK
5
A9
330
A7
100
AcDbEntity
8
0
100
AcDbBlockEnd
0
BLOCK
5
AB
330
AA
100
AcDbEntity
8
0
100
AcDbBlockBegin
2
*D22
70
1
10
0
20
0
3
*D22
1

0
LINE
5
10F
100
AcDbEntity
8
grantry_frame
6
CONTINUOUS
62
7
370
0
100
AcDbLine
10
129
20
72
11
120
21
73
0
SOLID
5
110
100
AcDbEntity
8
grantry_frame
6
CONTINUOUS
62
7
370
0
100
AcDbTrace
10
129
20
72
30
0
11
126.975455771
21
71.8898722119
31
0
12
127.049009291
22
72.5518538924
32
0
13
127.049009291
23
72.5518538924
33
0
0
ENDBLK
5
AC
330
AA
100
AcDbEntity
8
0
100
AcDbBlockEnd
0
BLOCK
5
AE
330
AD
100
AcDbEntity
8
0
100
AcDbBlockBegin
2
*D21
70
1
10
0
20
0
3
*D21
1

0
LINE
5
111
100
AcDbEntity
8
tunnel
6
CONTINUOUS
62
7
370
0
100
AcDbLine
10
-11
20
57
11
-17
21
57
0
LINE
5
112
100
AcDbEntity
8
tunnel
6
CONTINUOUS
62
7
370
0
100
AcDbLine
10
-17
20
57
11
-17
21
57
0
SOLID
5
113
100
AcDbEntity
8
tunnel
6
CONTINUOUS
62
7
370
0
100
AcDbTrace
10
-11
20
57
30
0
11
-13
21
56.6669722738
31
0
12
-13
22
57.3330277262
32
0
13
-13
23
57.3330277262
33
0
0
ENDBLK
5
AF
330
AD
100
AcDbEntity
8
0
100
AcDbBlockEnd
0
BLOCK
5
B1
330
B0
100
AcDbEntity
8
0
100
AcDbBlockBegin
2
*D5
70
1
10
0
20
0
3
*D5
1

0
ENDBLK
5
B2
330
B0
100
AcDbEntity
8
0
100
AcDbBlockEnd
0
BLOCK
5
B4
330
B3
100
AcDbEntity
8
0
100
AcDbBlockBegin
2
*D25
70
1
10
0
20
0
3
*D25
1

0
LINE
5
114
100
AcDbEntity
8
z_beam
6
CONTINUOUS
62
7
370
0
100
AcDbLine
10
129
20
29
11
121
21
29
0
SOLID
5
115
100
AcDbEntity
8
z_beam
6
CONTINUOUS
62
7
370
0
100
AcDbTrace
10
129
20
29
30
0
11
127
21
28.6669722738
31
0
12
127
22
29.3330277262
32
0
13
127
23
29.3330277262
33
0
0
ENDBLK
5
B5
330
B3
100
AcDbEntity
8
0
100
AcDbBlockEnd
0
BLOCK
5
B7
330
B6
100
AcDbEntity
8
0
100
AcDbBlockBegin
2
*D8
70
1
10
0
20
0
3
*D8
1

0
ENDBLK
5
B8
330
B6
100
AcDbEntity
8
0
100
AcDbBlockEnd
0
BLOCK
5
BA
330
B9
100
AcDbEntity
8
0
100
AcDbBlockBegin
2
*D11
70
1
10
0
20
0
3
*D11
1

0
ENDBLK
5
BB
330
B9
100
AcDbEntity
8
0
100
AcDbBlockEnd
0
BLOCK
5
BD
330
BC
100
AcDbEntity
8
0
100
AcDbBlockBegin
2
*D17
70
1
10
0
20
0
3
*D17
1

0
ENDBLK
5
BE
330
BC
100
AcDbEntity
8
0
100
AcDbBlockEnd
0
BLOCK
5
C0
330
BF
100
AcDbEntity
8
0
100
AcDbBlockBegin
2
*D34
70
1
10
0
20
0
3
*D34
1

0
LINE
5
116
100
AcDbEntity
8
dimension
6
CONTINUOUS
62
7
370
0
100
AcDbLine
10
51.5
20
-6.52800000001
11
64
21
-6.52800000001
0
SOLID
5
117
100
AcDbEntity
8
dimension
6
CONTINUOUS
62
7
370
0
100
AcDbTrace
10
55.5
20
-6.52800000001
30
0
11
53.5
21
-6.86102772623
31
0
12
53.5
22
-6.19497227379
32
0
13
53.5
23
-6.19497227379
33
0
0
SOLID
5
118
100
AcDbEntity
8
dimension
6
CONTINUOUS
62
7
370
0
100
AcDbTrace
10
60
20
-6.52800000001
30
0
11
62
21
-6.19497227379
31
0
12
62
22
-6.86102772623
32
0
13
62
23
-6.86102772623
33
0
0
MTEXT
5
119
100
AcDbEntity
8
dimension
6
CONTINUOUS
62
7
370
0
100
AcDbMText
10
57.75
20
-5.50300000001
30
0
40
2
41
3.33333333333
71
5
72
1
1
4.5
7
standard
210
0
220
0
230
1
50
0
73
2
44
1
0
LINE
5
11A
100
AcDbEntity
8
dimension
6
CONTINUOUS
62
7
370
0
100
AcDbLine
10
55.5
20
-0.025
11
55.5
21
-6.57800000001
0
LINE
5
11B
100
AcDbEntity
8
dimension
6
CONTINUOUS
62
7
370
0
100
AcDbLine
10
60
20
-0.025
11
60
21
-6.57800000001
0
ENDBLK
5
C1
330
BF
100
AcDbEntity
8
0
100
AcDbBlockEnd
0
BLOCK
5
C3
330
C2
100
AcDbEntity
8
0
100
AcDbBlockBegin
2
*D30
70
1
10
0
20
0
3
*D30
1

0
ENDBLK
5
C4
330
C2
100
AcDbEntity
8
0
100
AcDbBlockEnd
0
ENDSEC
0
SECTION
2
ENTITIES
0
HATCH
5
11C
100
AcDbEntity
8
tunnel
6
ByLayer
62
256
370
-1
100
AcDbHatch
10
0
20
0
30
0
210
0
220
0
230
1
2
ansi31
70
0
71
0
91
1
92
0
93
4
72
1
10
-10
20
45
11
70
21
45
72
1
10
70
20
45
11
70
21
69
72
1
10
70
20
69
11
-10
21
69
72
1
10
-10
20
69
11
-10
21
45
97
0
75
0
76
1
52
0
41
2
77
0
78
0
98
0
0
HATCH
5
11D
100
AcDbEntity
8
tunnel
6
ByLayer
62
256
370
-1
100
AcDbHatch
10
0
20
0
30
0
210
0
220
0
230
1
2
ansi31
70
0
71
0
91
1
92
0
93
4
72
1
10
132.75
20
45
11
160.25
21
45
72
1
10
160.25
20
45
11
160.25
21
69
72
1
10
160.25
20
69
11
132.75
21
69
72
1
10
132.75
20
69
11
132.75
21
45
97
0
75
0
76
1
52
0
41
2
77
0
78
0
98
0
0
LINE
5
11E
100
AcDbEntity
8
z_beam
6
ByLayer
62
256
370
-1
100
AcDbLine
10
4.5
20
0
11
4.5
21
69.5
0
LINE
5
11F
100
AcDbEntity
8
z_beam
6
ByLayer
62
256
370
-1
100
AcDbLine
10
4.5
20
69.5
11
0
21
69.5
0
LINE
5
120
100
AcDbEntity
8
z_beam
6
ByLayer
62
256
370
-1
100
AcDbLine
10
0
20
69.5
11
0
21
0
0
LINE
5
121
100
AcDbEntity
8
grantry_frame
6
ByLayer
62
256
370
-1
100
AcDbLine
10
0
20
69.5
11
60
21
69.5
0
LINE
5
122
100
AcDbEntity
8
grantry_frame
6
ByLayer
62
256
370
-1
100
AcDbLine
10
60
20
69.5
11
60
21
74
0
LINE
5
123
100
AcDbEntity
8
grantry_frame
6
ByLayer
62
256
370
-1
100
AcDbLine
10
60
20
74
11
0
21
74
0
LINE
5
124
100
AcDbEntity
8
grantry_frame
6
ByLayer
62
256
370
-1
100
AcDbLine
10
0
20
74
11
0
21
69.5
0
LINE
5
125
100
AcDbEntity
8
z_beam
6
ByLayer
62
256
370
-1
100
AcDbLine
10
60
20
0
11
60
21
69.5
0
LINE
5
126
100
AcDbEntity
8
z_beam
6
ByLayer
62
256
370
-1
100
AcDbLine
10
60
20
69.5
11
55.5
21
69.5
0
LINE
5
127
100
AcDbEntity
8
z_beam
6
ByLayer
62
256
370
-1
100
AcDbLine
10
55.5
20
69.5
11
55.5
21
0
0
LINE
5
128
100
AcDbEntity
8
tunnel
6
ByLayer
62
256
370
-1
100
AcDbLine
10
-10
20
45
11
70
21
45
0
LINE
5
129
100
AcDbEntity
8
tunnel
6
ByLayer
62
256
370
-1
100
AcDbLine
10
70
20
45
11
70
21
69
0
LINE
5
12A
100
AcDbEntity
8
tunnel
6
ByLayer
62
256
370
-1
100
AcDbLine
10
70
20
69
11
-10
21
69
0
LINE
5
12B
100
AcDbEntity
8
tunnel
6
ByLayer
62
256
370
-1
100
AcDbLine
10
-10
20
69
11
-10
21
45
0
LINE
5
12C
100
AcDbEntity
8
z_beam
6
ByLayer
62
256
370
-1
100
AcDbLine
10
0
20
0
11
4.5
21
0
0
LINE
5
12D
100
AcDbEntity
8
z_beam
6
ByLayer
62
256
370
-1
100
AcDbLine
10
55.5
20
0
11
60
21
0
0
DIMENSION
5
12E
100
AcDbEntity
8
dimension
6
ByLayer
62
256
370
-1
100
AcDbDimension
2
*D1
10
77.0000000001
20
-2.08189955856e-15
30
0
11
75.9750000001
21
34.75
31
0
70
32
71
5
72
0
3
Standard
53
0
210
0
220
0
230
1
100
AcDbAlignedDimension
13
60
23
69.5
33
0
14
60
24
0
34
0
50
90
100
AcDbRotatedDimension
0
DIMENSION
5
12F
100
AcDbEntity
8
dimension
6
ByLayer
62
256
370
-1
100
AcDbDimension
2
*D2
10
60
20
80
30
0
11
30
21
81.025
31
0
70
32
71
5
72
0
3
Standard
53
0
210
0
220
0
230
1
100
AcDbAlignedDimension
13
0
23
74
33
0
14
60
24
74
34
0
100
AcDbRotatedDimension
0
LINE
5
130
100
AcDbEntity
8
x_beam
6
ByLayer
62
256
370
-1
100
AcDbLine
10
4.5
20
10
11
55.5
21
10
0
LINE
5
131
100
AcDbEntity
8
x_beam
6
ByLayer
62
256
370
-1
100
AcDbLine
10
55.5
20
10
11
55.5
21
14.5
0
LINE
5
132
100
AcDbEntity
8
x_beam
6
ByLayer
62
256
370
-1
100
AcDbLine
10
55.5
20
14.5
11
4.5
21
14.5
0
LINE
5
133
100
AcDbEntity
8
x_beam
6
ByLayer
62
256
370
-1
100
AcDbLine
10
4.5
20
14.5
11
4.5
21
10
0
DIMENSION
5
134
100
AcDbEntity
8
dimension
6
ByLayer
62
256
370
-1
100
AcDbDimension
2
*D3
10
55.5
20
4.01408000001
30
0
11
30
21
5.03908000001
31
0
70
32
71
5
72
0
3
Standard
53
0
210
0
220
0
230
1
100
AcDbAlignedDimension
13
4.5
23
10
33
0
14
55.5
24
10
34
0
100
AcDbRotatedDimension
0
LINE
5
135
100
AcDbEntity
8
z_beam
6
ByLayer
62
256
370
-1
100
AcDbLine
10
131.5
20
69.5
11
130
21
69.5
0
LINE
5
136
100
AcDbEntity
8
z_beam
6
ByLayer
62
256
370
-1
100
AcDbLine
10
130
20
69.5
11
130
21
0
0
LINE
5
137
100
AcDbEntity
8
z_beam
6
ByLayer
62
256
370
-1
100
AcDbLine
10
130
20
0
11
131.5
21
0
0
LINE
5
138
100
AcDbEntity
8
z_beam
6
ByLayer
62
256
370
-1
100
AcDbLine
10
131.5
20
69.5
11
131.5
21
0
0
LINE
5
139
100
AcDbEntity
8
z_beam
6
ByLayer
62
256
370
-1
100
AcDbLine
10
163
20
69.5
11
161.5
21
69.5
0
LINE
5
13A
100
AcDbEntity
8
z_beam
6
ByLayer
62
256
370
-1
100
AcDbLine
10
161.5
20
69.5
11
161.5
21
0
0
LINE
5
13B
100
AcDbEntity
8
z_beam
6
ByLayer
62
256
370
-1
100
AcDbLine
10
161.5
20
0
11
163
21
0
0
LINE
5
13C
100
AcDbEntity
8
z_beam
6
ByLayer
62
256
370
-1
100
AcDbLine
10
163
20
69.5
11
163
21
0
0
LEADER
5
13D
100
AcDbEntity
8
notes
6
ByLayer
62
256
370
-1
100
AcDbLeader
3
Standard
71
1
72
0
73
3
74
0
75
0
40
1
41
10
76
0
76
0
0
LEADER
5
13E
100
AcDbEntity
8
notes
6
ByLayer
62
256
370
-1
100
AcDbLeader
3
Standard
71
1
72
0
73
3
74
0
75
0
40
1
41
10
76
0
76
0
0
LEADER
5
13F
100
AcDbEntity
8
notes
6
ByLayer
62
256
370
-1
100
AcDbLeader
3
Standard
71
1
72
0
73
3
74
0
75
0
40
1
41
10
76
0
76
0
0
LEADER
5
140
100
AcDbEntity
8
notes
6
ByLayer
62
256
370
-1
100
AcDbLeader
3
Standard
71
1
72
0
73
3
74
0
75
0
40
1
41
10
76
0
76
0
0
LEADER
5
141
100
AcDbEntity
8
notes
6
ByLayer
62
256
370
-1
100
AcDbLeader
3
Standard
71
1
72
0
73
3
74
0
75
0
40
1
41
10
76
0
76
0
0
LEADER
5
142
100
AcDbEntity
8
notes
6
ByLayer
62
256
370
-1
100
AcDbLeader
3
Standard
71
1
72
0
73
3
74
0
75
0
40
1
41
10
76
0
76
0
0
LEADER
5
143
100
AcDbEntity
8
notes
6
ByLayer
62
256
370
-1
100
AcDbLeader
3
Standard
71
1
72
0
73
3
74
0
75
0
40
1
41
10
76
0
76
0
0
LEADER
5
144
100
AcDbEntity
8
notes
6
ByLayer
62
256
370
-1
100
AcDbLeader
3
Standard
71
1
72
0
73
3
74
0
75
0
40
1
41
10
76
0
76
0
0
LINE
5
145
100
AcDbEntity
8
y_beam
6
ByLayer
62
256
370
-1
100
AcDbLine
10
131.5
20
10
11
161.5
21
10
0
LINE
5
146
100
AcDbEntity
8
y_beam
6
ByLayer
62
256
370
-1
100
AcDbLine
10
161.5
20
10
11
161.5
21
14.5
0
LINE
5
147
100
AcDbEntity
8
y_beam
6
ByLayer
62
256
370
-1
100
AcDbLine
10
161.5
20
14.5
11
131.5
21
14.5
0
LINE
5
148
100
AcDbEntity
8
y_beam
6
ByLayer
62
256
370
-1
100
AcDbLine
10
131.5
20
14.5
11
131.5
21
10
0
DIMENSION
5
149
100
AcDbEntity
8
dimension
6
ByLayer
62
256
370
-1
100
AcDbDimension
2
*D12
10
161.5
20
5.37600000001
30
0
11
146.5
21
6.40100000001
31
0
70
32
71
5
72
0
3
Standard
53
0
210
0
220
0
230
1
100
AcDbAlignedDimension
13
131.5
23
10
33
0
14
161.5
24
10
34
0
100
AcDbRotatedDimension
0
LEADER
5
14A
100
AcDbEntity
8
tunnel
6
ByLayer
62
256
370
-1
100
AcDbLeader
3
Standard
71
1
72
0
73
3
74
0
75
0
40
1
41
10
76
0
76
0
0
LEADER
5
14B
100
AcDbEntity
8
tunnel
6
ByLayer
62
256
370
-1
100
AcDbLeader
3
Standard
71
1
72
0
73
3
74
0
75
0
40
1
41
10
76
0
76
0
0
LINE
5
14C
100
AcDbEntity
8
grantry_frame
6
ByLayer
62
256
370
-1
100
AcDbLine
10
131.5
20
69.5
11
161.5
21
69.5
0
LINE
5
14D
100
AcDbEntity
8
grantry_frame
6
ByLayer
62
256
370
-1
100
AcDbLine
10
161.5
20
69.5
11
161.5
21
72.5
0
LINE
5
14E
100
AcDbEntity
8
grantry_frame
6
ByLayer
62
256
370
-1
100
AcDbLine
10
161.5
20
72.5
11
131.5
21
72.5
0
LINE
5
14F
100
AcDbEntity
8
grantry_frame
6
ByLayer
62
256
370
-1
100
AcDbLine
10
131.5
20
72.5
11
131.5
21
69.5
0
LINE
5
150
100
AcDbEntity
8
grantry_frame
6
ByLayer
62
256
370
-1
100
AcDbLine
10
161.5
20
69.5
11
163
21
69.5
0
LINE
5
151
100
AcDbEntity
8
grantry_frame
6
ByLayer
62
256
370
-1
100
AcDbLine
10
163
20
69.5
11
163
21
74
0
LINE
5
152
100
AcDbEntity
8
grantry_frame
6
ByLayer
62
256
370
-1
100
AcDbLine
10
163
20
74
11
161.5
21
74
0
LINE
5
153
100
AcDbEntity
8
grantry_frame
6
ByLayer
62
256
370
-1
100
AcDbLine
10
161.5
20
74
11
161.5
21
69.5
0
LINE
5
154
100
AcDbEntity
8
grantry_frame
6
ByLayer
62
256
370
-1
100
AcDbLine
10
130
20
69.5
11
131.5
21
69.5
0
LINE
5
155
100
AcDbEntity
8
grantry_frame
6
ByLayer
62
256
370
-1
100
AcDbLine
10
131.5
20
69.5
11
131.5
21
74
0
LINE
5
156
100
AcDbEntity
8
grantry_frame
6
ByLayer
62
256
370
-1
100
AcDbLine
10
131.5
20
74
11
130
21
74
0
LINE
5
157
100
AcDbEntity
8
grantry_frame
6
ByLayer
62
256
370
-1
100
AcDbLine
10
130
20
74
11
130
21
69.5
0
LINE
5
158
100
AcDbEntity
8
tunnel
6
ByLayer
62
256
370
-1
100
AcDbLine
10
132.75
20
45
11
160.25
21
45
0
LINE
5
159
100
AcDbEntity
8
tunnel
6
ByLayer
62
256
370
-1
100
AcDbLine
10
160.25
20
45
11
160.25
21
69
0
LINE
5
15A
100
AcDbEntity
8
tunnel
6
ByLayer
62
256
370
-1
100
AcDbLine
10
160.25
20
69
11
132.75
21
69
0
LINE
5
15B
100
AcDbEntity
8
tunnel
6
ByLayer
62
256
370
-1
100
AcDbLine
10
132.75
20
69
11
132.75
21
45
0
DIMENSION
5
15C
100
AcDbEntity
8
notes
6
ByLayer
62
256
370
-1
100
AcDbDimension
2
*D15
10
163
20
80
30
0
11
146.5
21
81.025
31
0
70
32
71
5
72
0
3
Standard
53
0
210
0
220
0
230
1
100
AcDbAlignedDimension
13
130
23
74
33
0
14
163
24
74
34
0
100
AcDbRotatedDimension
0
LEADER
5
15D
100
AcDbEntity
8
notes
6
ByLayer
62
256
370
-1
100
AcDbLeader
3
Standard
71
1
72
0
73
3
74
0
75
0
40
1
41
10
76
0
76
0
0
LEADER
5
15E
100
AcDbEntity
8
notes
6
ByLayer
62
256
370
-1
100
AcDbLeader
3
Standard
71
1
72
0
73
3
74
0
75
0
40
1
41
10
76
0
76
0
0
LEADER
5
15F
100
AcDbEntity
8
notes
6
ByLayer
62
256
370
-1
100
AcDbLeader
3
Standard
71
1
72
0
73
3
74
0
75
0
40
1
41
10
76
2
76
2
10
40
20
35
30
0
10
20
20
35
30
0
0
MTEXT
5
160
100
AcDbEntity
8
notes
6
ByLayer
62
256
370
-1
100
AcDbMText
10
20
20
40
30
0
40
2
41
18.6111111111
71
1
72
1
1
Flow Direction
7
iso
210
0
220
0
230
1
50
0
73
2
44
1
0
DIMENSION
5
161
100
AcDbEntity
8
notes
6
ByLayer
62
256
370
-1
100
AcDbDimension
2
*D19
10
171.6
20
-1.0531962473e-15
30
0
11
170.575
21
34.75
31
0
70
32
71
5
72
0
3
Standard
53
0
210
0
220
0
230
1
100
AcDbAlignedDimension
13
163
23
69.5
33
0
14
163
24
0
34
0
50
90
100
AcDbRotatedDimension
0
LEADER
5
162
100
AcDbEntity
8
grantry_frame
6
ByLayer
62
256
370
-1
100
AcDbLeader
3
Standard
71
1
72
0
73
3
74
0
75
0
40
1
41
10
76
2
76
2
10
-1
20
72
30
0
10
-7
20
73
30
0
0
MTEXT
5
163
100
AcDbEntity
8
grantry_frame
6
ByLayer
62
256
370
-1
100
AcDbMText
10
-25.9274455043
20
74.6586112001
30
0
40
2
41
17.9444444444
71
1
72
1
1
Gantry Frame
7
iso
210
0
220
0
230
1
50
0
73
2
44
1
0
LEADER
5
164
100
AcDbEntity
8
tunnel
6
ByLayer
62
256
370
-1
100
AcDbLeader
3
Standard
71
1
72
0
73
3
74
0
75
0
40
1
41
10
76
3
76
3
10
-11
20
57
30
0
10
-17
20
57
30
0
10
-17
20
57
30
0
0
MTEXT
5
165
100
AcDbEntity
8
tunnel
6
ByLayer
62
256
370
-1
100
AcDbMText
10
-26
20
58
30
0
40
2
41
8.22222222222
71
1
72
1
1
Tunnel
7
iso
210
0
220
0
230
1
50
0
73
2
44
1
0
LEADER
5
166
100
AcDbEntity
8
grantry_frame
6
ByLayer
62
256
370
-1
100
AcDbLeader
3
Standard
71
1
72
0
73
3
74
0
75
0
40
1
41
10
76
2
76
2
10
129
20
72
30
0
10
120
20
73
30
0
0
MTEXT
5
167
100
AcDbEntity
8
grantry_frame
6
ByLayer
62
256
370
-1
100
AcDbMText
10
101
20
75
30
0
40
2
41
17.9444444444
71
1
72
1
1
Gantry Frame
7
iso
210
0
220
0
230
1
50
0
73
2
44
1
0
LEADER
5
168
100
AcDbEntity
8
tunnel
6
ByLayer
62
256
370
-1
100
AcDbLeader
3
Standard
71
1
72
0
73
3
74
0
75
0
40
1
41
10
76
2
76
2
10
133
20
57
30
0
10
124
20
57
30
0
0
MTEXT
5
169
100
AcDbEntity
8
tunnel
6
ByLayer
62
256
370
-1
100
AcDbMText
10
115
20
58
30
0
40
2
41
8.22222222222
71
1
72
1
1
Tunnel
7
iso
210
0
220
0
230
1
50
0
73
2
44
1
0
LEADER
5
16A
100
AcDbEntity
8
z_beam
6
ByLayer
62
256
370
-1
100
AcDbLeader
3
Standard
71
1
72
0
73
3
74
0
75
0
40
1
41
10
76
0
76
0
0
LEADER
5
16B
100
AcDbEntity
8
z_beam
6
ByLayer
62
256
370
-1
100
AcDbLeader
3
Standard
71
1
72
0
73
3
74
0
75
0
40
1
41
10
76
2
76
2
10
129
20
29
30
0
10
121
20
29
30
0
0
MTEXT
5
16C
100
AcDbEntity
8
z_beam
6
ByLayer
62
256
370
-1
100
AcDbMText
10
110
20
30
30
0
40
2
41
9.11111111111
71
1
72
1
1
z-beam
7
iso
210
0
220
0
230
1
50
0
73
2
44
1
0
LEADER
5
16D
100
AcDbEntity
8
z_beam
6
ByLayer
62
256
370
-1
100
AcDbLeader
3
Standard
71
1
72
0
73
3
74
0
75
0
40
1
41
10
76
2
76
2
10
-1
20
29
30
0
10
-9
20
29
30
0
0
MTEXT
5
16E
100
AcDbEntity
8
z_beam
6
ByLayer
62
256
370
-1
100
AcDbMText
10
-20
20
30
30
0
40
2
41
9.11111111111
71
1
72
1
1
z-beam
7
iso
210
0
220
0
230
1
50
0
73
2
44
1
0
LEADER
5
16F
100
AcDbEntity
8
x_beam
6
ByLayer
62
256
370
-1
100
AcDbLeader
3
Standard
71
1
72
0
73
3
74
0
75
0
40
1
41
10
76
0
76
0
0
LEADER
5
170
100
AcDbEntity
8
x_beam
6
ByLayer
62
256
370
-1
100
AcDbLeader
3
Standard
71
1
72
0
73
3
74
0
75
0
40
1
41
10
76
0
76
0
0
LEADER
5
171
100
AcDbEntity
8
y_beam
6
ByLayer
62
256
370
-1
100
AcDbLeader
3
Standard
71
1
72
0
73
3
74
0
75
0
40
1
41
10
76
0
76
0
0
LEADER
5
172
100
AcDbEntity
8
y_beam
6
ByLayer
62
256
370
-1
100
AcDbLeader
3
Standard
71
1
72
0
73
3
74
0
75
0
40
1
41
10
76
0
76
0
0
LEADER
5
173
100
AcDbEntity
8
y_beam
6
ByLayer
62
256
370
-1
100
AcDbLeader
3
Standard
71
1
72
0
73
3
74
0
75
0
40
1
41
10
76
2
76
2
10
150
20
15
30
0
10
146
20
22
30
0
0
MTEXT
5
174
100
AcDbEntity
8
y_beam
6
ByLayer
62
256
370
-1
100
AcDbMText
10
142
20
25
30
0
40
2
41
9.11111111111
71
1
72
1
1
y-beam
7
iso
210
0
220
0
230
1
50
0
73
2
44
1
0
DIMENSION
5
175
100
AcDbEntity
8
dimension
6
ByLayer
62
256
370
-1
100
AcDbDimension
2
*D32
10
127.6116992
20
10
30
0
11
126.5866992
21
12.25
31
0
70
32
71
5
72
0
3
Standard
53
0
210
0
220
0
230
1
100
AcDbAlignedDimension
13
131.5
23
14.5
33
0
14
131.5
24
10
34
0
50
90
100
AcDbRotatedDimension
0
DIMENSION
5
176
100
AcDbEntity
8
dimension
6
ByLayer
62
256
370
-1
100
AcDbDimension
2
*D33
10
-3.17440000001
20
10
30
0
11
-4.19940000001
21
12.25
31
0
70
32
71
5
72
0
3
Standard
53
0
210
0
220
0
230
1
100
AcDbAlignedDimension
13
4.5
23
14.5
33
0
14
4.5
24
10
34
0
50
90
100
AcDbRotatedDimension
0
DIMENSION
5
177
100
AcDbEntity
8
dimension
6
ByLayer
62
256
370
-1
100
AcDbDimension
2
*D34
10
60
20
-6.52800000001
30
0
11
57.75
21
-5.50300000001
31
0
70
32
71
5
72
0
3
Standard
53
0
210
0
220
0
230
1
100
AcDbAlignedDimension
13
55.5
23
0
33
0
14
60
24
0
34
0
100
AcDbRotatedDimension
0
DIMENSION
5
178
100
AcDbEntity
8
dimension
6
ByLayer
62
256
370
-1
100
AcDbDimension
2
*D35
10
163
20
-6.55360000001
30
0
11
162.25
21
-5.52860000001
31
0
70
32
71
5
72
0
3
Standard
53
0
210
0
220
0
230
1
100
AcDbAlignedDimension
13
161.5
23
0
33
0
14
163
24
0
34
0
100
AcDbRotatedDimension
0
LINE
5
179
100
AcDbEntity
8
45_deg_support
6
ByLayer
62
256
370
-1
100
AcDbLine
10
55.5
20
22.9852813742
11
47.0147186258
21
14.5
0
LINE
5
17A
100
AcDbEntity
8
45_deg_support
6
ByLayer
62
256
370
-1
100
AcDbLine
10
49.1360389693
20
14.5
11
55.5
21
20.8639610307
0
LINE
5
17B
100
AcDbEntity
8
45_deg_support
6
ByLayer
62
256
370
-1
100
AcDbLine
10
55.5
20
22.9852813742
11
55.5
21
20.8639610307
0
LINE
5
17C
100
AcDbEntity
8
45_deg_support
6
ByLayer
62
256
370
-1
100
AcDbLine
10
47.0147186258
20
14.5
11
49.1360389693
21
14.5
0
LINE
5
17D
100
AcDbEntity
8
45_deg_support
6
ByLayer
62
256
370
-1
100
AcDbLine
10
12.9852813742
20
14.5
11
4.5
21
22.9852813742
0
LINE
5
17E
100
AcDbEntity
8
45_deg_support
6
ByLayer
62
256
370
-1
100
AcDbLine
10
4.5
20
20.8639610307
11
10.8639610307
21
14.5
0
LINE
5
17F
100
AcDbEntity
8
45_deg_support
6
ByLayer
62
256
370
-1
100
AcDbLine
10
12.9852813742
20
14.5
11
10.8639610307
21
14.5
0
LINE
5
180
100
AcDbEntity
8
45_deg_support
6
ByLayer
62
256
370
-1
100
AcDbLine
10
4.5
20
22.9852813742
11
4.5
21
20.8639610307
0
LINE
5
181
100
AcDbEntity
8
45_deg_support
6
ByLayer
62
256
370
-1
100
AcDbLine
10
161.5
20
22.9852813742
11
153.014718626
21
14.5
0
LINE
5
182
100
AcDbEntity
8
45_deg_support
6
ByLayer
62
256
370
-1
100
AcDbLine
10
155.136038969
20
14.5
11
161.5
21
20.8639610307
0
LINE
5
183
100
AcDbEntity
8
45_deg_support
6
ByLayer
62
256
370
-1
100
AcDbLine
10
161.5
20
22.9852813742
11
161.5
21
20.8639610307
0
LINE
5
184
100
AcDbEntity
8
45_deg_support
6
ByLayer
62
256
370
-1
100
AcDbLine
10
153.014718626
20
14.5
11
155.136038969
21
14.5
0
LINE
5
185
100
AcDbEntity
8
45_deg_support
6
ByLayer
62
256
370
-1
100
AcDbLine
10
139.985281374
20
14.5
11
131.5
21
22.9852813742
0
LINE
5
186
100
AcDbEntity
8
45_deg_support
6
ByLayer
62
256
370
-1
100
AcDbLine
10
131.5
20
20.8639610307
11
137.863961031
21
14.5
0
LINE
5
187
100
AcDbEntity
8
45_deg_support
6
ByLayer
62
256
370
-1
100
AcDbLine
10
139.985281374
20
14.5
11
137.863961031
21
14.5
0
LINE
5
188
100
AcDbEntity
8
45_deg_support
6
ByLayer
62
256
370
-1
100
AcDbLine
10
131.5
20
22.9852813742
11
131.5
21
20.8639610307
0
LINE
5
189
100
AcDbEntity
8
45_deg_support
6
ByLayer
62
256
370
-1
100
AcDbLine
10
4.5
20
61.0147186258
11
12.9852813742
21
69.5
0
LINE
5
18A
100
AcDbEntity
8
45_deg_support
6
ByLayer
62
256
370
-1
100
AcDbLine
10
10.8639610307
20
69.5
11
4.5
21
63.1360389693
0
LINE
5
18B
100
AcDbEntity
8
45_deg_support
6
ByLayer
62
256
370
-1
100
AcDbLine
10
4.5
20
61.0147186258
11
4.5
21
63.1360389693
0
LINE
5
18C
100
AcDbEntity
8
45_deg_support
6
ByLayer
62
256
370
-1
100
AcDbLine
10
12.9852813742
20
69.5
11
10.8639610307
21
69.5
0
LINE
5
18D
100
AcDbEntity
8
45_deg_support
6
ByLayer
62
256
370
-1
100
AcDbLine
10
47.0147186258
20
69.5
11
55.5
21
61.0147186258
0
LINE
5
18E
100
AcDbEntity
8
45_deg_support
6
ByLayer
62
256
370
-1
100
AcDbLine
10
55.5
20
63.1360389693
11
49.1360389693
21
69.5
0
LINE
5
18F
100
AcDbEntity
8
45_deg_support
6
ByLayer
62
256
370
-1
100
AcDbLine
10
47.0147186258
20
69.5
11
49.1360389693
21
69.5
0
LINE
5
190
100
AcDbEntity
8
45_deg_support
6
ByLayer
62
256
370
-1
100
AcDbLine
10
55.5
20
61.0147186258
11
55.5
21
63.1360389693
0
LEADER
5
191
100
AcDbEntity
8
x_beam
6
ByLayer
62
256
370
-1
100
AcDbLeader
3
Standard
71
1
72
0
73
3
74
0
75
0
40
1
41
10
76
2
76
2
10
30
20
15
30
0
10
35
20
20
30
0
0
MTEXT
5
192
100
AcDbEntity
8
x_beam
6
ByLayer
62
256
370
-1
100
AcDbMText
10
33.1
20
22.3
30
0
40
2
41
9.11111111111
71
1
72
1
1
x-beam
7
iso
210
0
220
0
230
1
50
0
73
2
44
1
0
LEADER
5
193
100
AcDbEntity
8
45_deg_support
6
ByLayer
62
256
370
-1
100
AcDbLeader
3
Standard
71
1
72
0
73
3
74
0
75
0
40
1
41
10
76
2
76
2
10
8.7
20
19.2
30
0
10
15
20
25
30
0
0
DIMENSION
5
194
100
AcDbEntity
8
dimension
6
ByLayer
62
256
370
-1
100
AcDbDimension
2
*D38
10
45.1752793129
20
16.3394393129
30
0
11
48.6931355493
21
21.3068644507
31
0
70
33
71
5
72
0
3
Standard
53
0
210
0
220
0
230
1
100
AcDbAlignedDimension
13
55.5
23
22.9852813742
33
0
14
47.0147186258
24
14.5
34
0
0
MTEXT
5
195
100
AcDbEntity
8
notes
6
ByLayer
62
256
370
-1
100
AcDbMText
10
14.88
20
93.6000000002
30
0
40
4
41
25.2222213742
71
1
72
1
1
Side View
7
iso
210
0
220
0
230
1
50
0
73
2
44
1
0
MTEXT
5
196
100
AcDbEntity
8
notes
6
ByLayer
62
256
370
-1
100
AcDbMText
10
133.88
20
93.6000000002
30
0
40
4
41
23.4444444444
71
1
72
1
1
End View
7
iso
210
0
220
0
230
1
50
0
73
2
44
1
0
LEADER
5
197
100
AcDbEntity
8
x_beam
6
ByLayer
62
256
370
-1
100
AcDbLeader
3
Standard
71
1
72
0
73
3
74
0
75
0
40
1
41
10
76
0
76
0
0
MTEXT
5
198
100
AcDbEntity
8
45_deg_support
6
ByLayer
62
256
370
-1
100
AcDbMText
10
7
20
28
30
0
40
2
41
20.8333343619
71
1
72
1
1
45-deg support
7
iso
210
0
220
0
230
1
50
0
73
2
44
1
0
MTEXT
5
199
100
AcDbEntity
8
notes
6
ByLayer
62
256
370
-1
100
AcDbMText
10
0
20
-10
30
0
40
2
41
196.222232286
71
1
72
1
3
Notes:\P\P1) x,y,z beams made from 80/20 1545-S t-slotted aluminum profiles, 4.5" x 1.5" cross section. \P\P2) 45-deg supports made from 80/20 1515-LS \P\P3) x,y,z beams and gantry frame joined using 80/20 3360 anchor fastener assemblies. Counterbore
1
s for anchor fasteners in x,y,z in beams.\P\P4) 45-deg supports joined using 5/16-18 slide-in economy t-Nut and 5/16-18 x .750" socket head cap screw\P\P5) z heights of x,y beams are adjustable. 
7
iso
210
0
220
0
230
1
50
0
73
2
44
1
0
ENDSEC
0
SECTION
2
OBJECTS
0
DICTIONARY
5
C
330
0
100
AcDbDictionary
281
1
3
ACAD_GROUP
350
D
0
DICTIONARY
5
D
330
C
100
AcDbDictionary
281
1
0
ENDSEC
0
EOF
