999
dxfrw 0.5.10
0
SECTION
2
HEADER
9
$ACADVER
1
AC1021
9
$HANDSEED
5
20000
9
$DWGCODEPAGE
3
ANSI_1252
9
$INSBASE
10
0
20
0
30
0
9
$EXTMIN
10
-8.881784197e-16
20
-3
30
0
9
$EXTMAX
10
25
20
15.45
30
0
9
$LIMMIN
10
0
20
0
9
$LIMMAX
10
420
20
297
9
$ORTHOMODE
70
0
9
$LTSCALE
40
1
9
$TEXTSTYLE
7
STANDARD
9
$CLAYER
8
0
9
$DIMASZ
40
0.1
9
$DIMLFAC
40
1
9
$DIMSCALE
40
1
9
$DIMEXO
40
0.025
9
$DIMEXE
40
0.05
9
$DIMTXT
40
0.1
9
$DIMTSZ
40
0
9
$DIMAUNIT
70
0
9
$DIMADEC
70
0
9
$DIMLUNIT
70
2
9
$DIMSTYLE
2
STANDARD
9
$DIMGAP
40
0.025
9
$DIMTIH
70
0
9
$LUNITS
70
2
9
$LUPREC
70
4
9
$AUNITS
70
0
9
$AUPREC
70
2
9
$SPLINESEGS
70
8
9
$GRIDMODE
70
1
9
$SNAPSTYLE
70
0
9
$GRIDUNIT
10
0
20
0
9
$PINSBASE
10
0
20
0
30
0
9
$PLIMMIN
10
0
20
0
9
$PLIMMAX
10
3.0788102e-08
20
4.354322e-08
9
$INSUNITS
70
1
9
$PSVPSCALE
40
1
0
ENDSEC
0
SECTION
2
CLASSES
0
ENDSEC
0
SECTION
2
TABLES
0
TABLE
2
VPORT
5
8
330
0
100
AcDbSymbolTable
70
1
0
VPORT
5
31
330
2
100
AcDbSymbolTableRecord
100
AcDbViewportTableRecord
2
*ACTIVE
70
0
10
0
20
0
11
1
21
1
12
14.9679610266
22
8.83689521152
13
0
23
0
14
10
24
10
15
10
25
10
16
0
26
0
36
1
17
0
27
0
37
0
40
16.8577466368
41
1.77834394904
42
50
43
0
44
0
50
0
51
0
71
0
72
100
73
1
74
3
75
0
76
1
77
0
78
0
281
0
65
1
110
0
120
0
130
0
111
1
121
0
131
0
112
0
122
1
132
0
79
0
146
0
348
10020
60
7
61
5
292
1
282
1
141
0
142
0
63
250
421
3358443
0
ENDTAB
0
TABLE
2
LTYPE
5
5
330
0
100
AcDbSymbolTable
70
4
0
LTYPE
5
14
330
5
100
AcDbSymbolTableRecord
100
AcDbLinetypeTableRecord
2
ByBlock
70
0
3

72
65
73
0
40
0
0
LTYPE
5
15
330
5
100
AcDbSymbolTableRecord
100
AcDbLinetypeTableRecord
2
ByLayer
70
0
3

72
65
73
0
40
0
0
LTYPE
5
16
330
5
100
AcDbSymbolTableRecord
100
AcDbLinetypeTableRecord
2
Continuous
70
0
3
Solid line
72
65
73
0
40
0
0
LTYPE
5
32
330
5
100
AcDbSymbolTableRecord
100
AcDbLinetypeTableRecord
2
DOT
70
0
3
Dot . . . . . . . . . . . . . . . . . . . . . .
72
65
73
2
40
6.35
49
0
74
0
49
-6.35
74
0
0
LTYPE
5
33
330
5
100
AcDbSymbolTableRecord
100
AcDbLinetypeTableRecord
2
DOT2
70
0
3
Dot (.5x) .....................................
72
65
73
2
40
3.175
49
0
74
0
49
-3.175
74
0
0
LTYPE
5
34
330
5
100
AcDbSymbolTableRecord
100
AcDbLinetypeTableRecord
2
DOTX2
70
0
3
Dot (2x) .  .  .  .  .  .  .  .  .  .  .  .  .
72
65
73
2
40
12.7
49
0
74
0
49
-12.7
74
0
0
LTYPE
5
35
330
5
100
AcDbSymbolTableRecord
100
AcDbLinetypeTableRecord
2
DASHED
70
0
3
Dot . . . . . . . . . . . . . . . . . . . . . .
72
65
73
2
40
19.05
49
12.7
74
0
49
-6.35
74
0
0
LTYPE
5
36
330
5
100
AcDbSymbolTableRecord
100
AcDbLinetypeTableRecord
2
DASHED2
70
0
3
Dashed (.5x) _ _ _ _ _ _ _ _ _ _ _ _ _ _ _ _ _
72
65
73
2
40
9.525
49
6.35
74
0
49
-3.175
74
0
0
LTYPE
5
37
330
5
100
AcDbSymbolTableRecord
100
AcDbLinetypeTableRecord
2
DASHEDX2
70
0
3
Dashed (2x) ____  ____  ____  ____  ____  ___
72
65
73
2
40
38.1
49
25.4
74
0
49
-12.7
74
0
0
LTYPE
5
38
330
5
100
AcDbSymbolTableRecord
100
AcDbLinetypeTableRecord
2
DASHDOT
70
0
3
Dash dot __ . __ . __ . __ . __ . __ . __ . __
72
65
73
4
40
25.4
49
12.7
74
0
49
-6.35
74
0
49
0
74
0
49
-6.35
74
0
0
LTYPE
5
39
330
5
100
AcDbSymbolTableRecord
100
AcDbLinetypeTableRecord
2
DASHDOT2
70
0
3
Dash dot (.5x) _._._._._._._._._._._._._._._.
72
65
73
4
40
12.7
49
6.35
74
0
49
-3.175
74
0
49
0
74
0
49
-3.175
74
0
0
LTYPE
5
3A
330
5
100
AcDbSymbolTableRecord
100
AcDbLinetypeTableRecord
2
DASHDOTX2
70
0
3
Dash dot (2x) ____  .  ____  .  ____  .  ___
72
65
73
4
40
50.8
49
25.4
74
0
49
-12.7
74
0
49
0
74
0
49
-12.7
74
0
0
LTYPE
5
3B
330
5
100
AcDbSymbolTableRecord
100
AcDbLinetypeTableRecord
2
DIVIDE
70
0
3
Divide ____ . . ____ . . ____ . . ____ . . ____
72
65
73
6
40
31.75
49
12.7
74
0
49
-6.35
74
0
49
0
74
0
49
-6.35
74
0
49
0
74
0
49
-6.35
74
0
0
LTYPE
5
3C
330
5
100
AcDbSymbolTableRecord
100
AcDbLinetypeTableRecord
2
DIVIDE2
70
0
3
Divide (.5x) __..__..__..__..__..__..__..__.._
72
65
73
6
40
15.875
49
6.35
74
0
49
-3.175
74
0
49
0
74
0
49
-3.175
74
0
49
0
74
0
49
-3.175
74
0
0
LTYPE
5
3D
330
5
100
AcDbSymbolTableRecord
100
AcDbLinetypeTableRecord
2
DIVIDEX2
70
0
3
Divide (2x) ________  .  .  ________  .  .  _
72
65
73
6
40
63.5
49
25.4
74
0
49
-12.7
74
0
49
0
74
0
49
-12.7
74
0
49
0
74
0
49
-12.7
74
0
0
LTYPE
5
3E
330
5
100
AcDbSymbolTableRecord
100
AcDbLinetypeTableRecord
2
BORDER
70
0
3
Border __ __ . __ __ . __ __ . __ __ . __ __ .
72
65
73
6
40
44.45
49
12.7
74
0
49
-6.35
74
0
49
12.7
74
0
49
-6.35
74
0
49
0
74
0
49
-6.35
74
0
0
LTYPE
5
3F
330
5
100
AcDbSymbolTableRecord
100
AcDbLinetypeTableRecord
2
BORDER2
70
0
3
Border (.5x) __.__.__.__.__.__.__.__.__.__.__.
72
65
73
6
40
22.225
49
6.35
74
0
49
-3.175
74
0
49
6.35
74
0
49
-3.175
74
0
49
0
74
0
49
-3.175
74
0
0
LTYPE
5
40
330
5
100
AcDbSymbolTableRecord
100
AcDbLinetypeTableRecord
2
BORDERX2
70
0
3
Border (2x) ____  ____  .  ____  ____  .  ___
72
65
73
6
40
88.9
49
25.4
74
0
49
-12.7
74
0
49
25.4
74
0
49
-12.7
74
0
49
0
74
0
49
-12.7
74
0
0
LTYPE
5
41
330
5
100
AcDbSymbolTableRecord
100
AcDbLinetypeTableRecord
2
CENTER
70
0
3
Center ____ _ ____ _ ____ _ ____ _ ____ _ ____
72
65
73
4
40
50.8
49
31.75
74
0
49
-6.35
74
0
49
6.35
74
0
49
-6.35
74
0
0
LTYPE
5
42
330
5
100
AcDbSymbolTableRecord
100
AcDbLinetypeTableRecord
2
CENTER2
70
0
3
Center (.5x) ___ _ ___ _ ___ _ ___ _ ___ _ ___
72
65
73
4
40
28.575
49
19.05
74
0
49
-3.175
74
0
49
3.175
74
0
49
-3.175
74
0
0
LTYPE
5
43
330
5
100
AcDbSymbolTableRecord
100
AcDbLinetypeTableRecord
2
CENTERX2
70
0
3
Center (2x) ________  __  ________  __  _____
72
65
73
4
40
101.6
49
63.5
74
0
49
-12.7
74
0
49
12.7
74
0
49
-12.7
74
0
0
ENDTAB
0
TABLE
2
LAYER
5
2
330
0
100
AcDbSymbolTable
70
1
0
LAYER
5
10
330
2
100
AcDbSymbolTableRecord
100
AcDbLayerTableRecord
2
0
70
0
62
7
6
CONTINUOUS
370
-3
390
F
0
LAYER
5
44
330
2
100
AcDbSymbolTableRecord
100
AcDbLayerTableRecord
2
WATERJET
70
0
62
3
6
CONTINUOUS
370
-3
390
F
0
LAYER
5
45
330
2
100
AcDbSymbolTableRecord
100
AcDbLayerTableRecord
2
boundary
70
0
62
5
6
CONTINUOUS
370
0
390
F
0
LAYER
5
46
330
2
100
AcDbSymbolTableRecord
100
AcDbLayerTableRecord
2
5/16_through_hole
70
0
62
4
6
CONTINUOUS
370
0
390
F
0
LAYER
5
47
330
2
100
AcDbSymbolTableRecord
100
AcDbLayerTableRecord
2
10-32_tap_hole
70
0
62
6
6
CONTINUOUS
370
0
390
F
0
ENDTAB
0
TABLE
2
STYLE
5
3
330
0
100
AcDbSymbolTable
70
3
0
STYLE
5
48
330
2
100
AcDbSymbolTableRecord
100
AcDbTextStyleTableRecord
2
Standard
70
0
40
0
41
1
50
0
71
0
42
1
3
txt
4

0
ENDTAB
0
TABLE
2
VIEW
5
6
330
0
100
AcDbSymbolTable
70
0
0
ENDTAB
0
TABLE
2
UCS
5
7
330
0
100
AcDbSymbolTable
70
0
0
ENDTAB
0
TABLE
2
APPID
5
9
330
0
100
AcDbSymbolTable
70
1
0
APPID
5
12
330
9
100
AcDbSymbolTableRecord
100
AcDbRegAppTableRecord
2
ACAD
70
0
0
ENDTAB
0
TABLE
2
DIMSTYLE
5
A
330
0
100
AcDbSymbolTable
70
1
100
AcDbDimStyleTable
71
1
0
DIMSTYLE
105
49
330
A
100
AcDbSymbolTableRecord
100
AcDbDimStyleTableRecord
2
Standard
70
0
40
1
41
0.1
42
0.025
43
0.38
44
0.05
45
0
46
0
47
0
48
0
140
0.1
141
0.09
142
0
143
25.4
144
1
145
0
146
1
147
0.025
148
0
71
0
72
0
73
0
74
1
75
0
76
0
77
0
78
0
79
0
170
0
171
2
172
0
173
0
174
0
175
0
176
0
177
0
178
0
179
0
271
4
272
4
273
2
274
2
275
0
276
0
277
2
278
46
279
0
280
0
281
0
282
0
283
1
284
0
285
0
286
0
288
0
289
3
340
Standard
341

371
-2
372
-2
0
ENDTAB
0
TABLE
2
BLOCK_RECORD
5
1
330
0
100
AcDbSymbolTable
70
2
0
BLOCK_RECORD
5
1F
330
1
100
AcDbSymbolTableRecord
100
AcDbBlockTableRecord
2
*Model_Space
70
0
280
1
281
0
0
BLOCK_RECORD
5
1E
330
1
100
AcDbSymbolTableRecord
100
AcDbBlockTableRecord
2
*Paper_Space
70
0
280
1
281
0
0
ENDTAB
0
ENDSEC
0
SECTION
2
BLOCKS
0
BLOCK
5
20
330
1F
100
AcDbEntity
8
0
100
AcDbBlockBegin
2
*Model_Space
70
0
10
0
20
0
30
0
3
*Model_Space
1

0
ENDBLK
5
21
330
1F
100
AcDbEntity
8
0
100
AcDbBlockEnd
0
BLOCK
5
1C
330
1B
100
AcDbEntity
8
0
100
AcDbBlockBegin
2
*Paper_Space
70
0
10
0
20
0
30
0
3
*Paper_Space
1

0
ENDBLK
5
1D
330
1F
100
AcDbEntity
8
0
100
AcDbBlockEnd
0
ENDSEC
0
SECTION
2
ENTITIES
0
ARC
5
4A
100
AcDbEntity
8
WATERJET
6
ByLayer
62
256
370
-1
100
AcDbCircle
10
0.4625
20
2.2375
40
0.1875
100
AcDbArc
50
270
51
360
0
LINE
5
4B
100
AcDbEntity
8
WATERJET
6
ByLayer
62
256
370
-1
100
AcDbLine
10
0.65
20
2.2625
11
0.65
21
2.2375
0
ARC
5
4C
100
AcDbEntity
8
WATERJET
6
ByLayer
62
256
370
-1
100
AcDbCircle
10
0.4625
20
2.2625
40
0.1875
100
AcDbArc
50
360
51
90
0
ARC
5
4D
100
AcDbEntity
8
WATERJET
6
ByLayer
62
256
370
-1
100
AcDbCircle
10
0.4625
20
3.7375
40
0.1875
100
AcDbArc
50
270
51
360
0
LINE
5
4E
100
AcDbEntity
8
WATERJET
6
ByLayer
62
256
370
-1
100
AcDbLine
10
0.65
20
3.7625
11
0.65
21
3.7375
0
ARC
5
4F
100
AcDbEntity
8
WATERJET
6
ByLayer
62
256
370
-1
100
AcDbCircle
10
0.4625
20
3.7625
40
0.1875
100
AcDbArc
50
360
51
90
0
ARC
5
50
100
AcDbEntity
8
WATERJET
6
ByLayer
62
256
370
-1
100
AcDbCircle
10
0.4625
20
5.2375
40
0.1875
100
AcDbArc
50
270
51
360
0
LINE
5
51
100
AcDbEntity
8
WATERJET
6
ByLayer
62
256
370
-1
100
AcDbLine
10
0.65
20
5.2625
11
0.65
21
5.2375
0
ARC
5
52
100
AcDbEntity
8
WATERJET
6
ByLayer
62
256
370
-1
100
AcDbCircle
10
0.4625
20
5.2625
40
0.1875
100
AcDbArc
50
360
51
90
0
ARC
5
53
100
AcDbEntity
8
WATERJET
6
ByLayer
62
256
370
-1
100
AcDbCircle
10
0.4625
20
6.7375
40
0.1875
100
AcDbArc
50
270
51
360
0
LINE
5
54
100
AcDbEntity
8
WATERJET
6
ByLayer
62
256
370
-1
100
AcDbLine
10
0.65
20
6.7625
11
0.65
21
6.7375
0
ARC
5
55
100
AcDbEntity
8
WATERJET
6
ByLayer
62
256
370
-1
100
AcDbCircle
10
0.4625
20
6.7625
40
0.1875
100
AcDbArc
50
360
51
90
0
ARC
5
56
100
AcDbEntity
8
WATERJET
6
ByLayer
62
256
370
-1
100
AcDbCircle
10
4.0375
20
2.2375
40
0.1875
100
AcDbArc
50
180
51
270
0
LINE
5
57
100
AcDbEntity
8
WATERJET
6
ByLayer
62
256
370
-1
100
AcDbLine
10
3.85
20
2.2625
11
3.85
21
2.2375
0
ARC
5
58
100
AcDbEntity
8
WATERJET
6
ByLayer
62
256
370
-1
100
AcDbCircle
10
4.0375
20
2.2625
40
0.1875
100
AcDbArc
50
90
51
180
0
ARC
5
59
100
AcDbEntity
8
WATERJET
6
ByLayer
62
256
370
-1
100
AcDbCircle
10
4.0375
20
3.7375
40
0.1875
100
AcDbArc
50
180
51
270
0
LINE
5
5A
100
AcDbEntity
8
WATERJET
6
ByLayer
62
256
370
-1
100
AcDbLine
10
3.85
20
3.7625
11
3.85
21
3.7375
0
ARC
5
5B
100
AcDbEntity
8
WATERJET
6
ByLayer
62
256
370
-1
100
AcDbCircle
10
4.0375
20
3.7625
40
0.1875
100
AcDbArc
50
90
51
180
0
ARC
5
5C
100
AcDbEntity
8
WATERJET
6
ByLayer
62
256
370
-1
100
AcDbCircle
10
4.0375
20
5.2375
40
0.1875
100
AcDbArc
50
180
51
270
0
LINE
5
5D
100
AcDbEntity
8
WATERJET
6
ByLayer
62
256
370
-1
100
AcDbLine
10
3.85
20
5.2625
11
3.85
21
5.2375
0
ARC
5
5E
100
AcDbEntity
8
WATERJET
6
ByLayer
62
256
370
-1
100
AcDbCircle
10
4.0375
20
5.2625
40
0.1875
100
AcDbArc
50
90
51
180
0
ARC
5
5F
100
AcDbEntity
8
WATERJET
6
ByLayer
62
256
370
-1
100
AcDbCircle
10
4.0375
20
6.7375
40
0.1875
100
AcDbArc
50
180
51
270
0
LINE
5
60
100
AcDbEntity
8
WATERJET
6
ByLayer
62
256
370
-1
100
AcDbLine
10
3.85
20
6.7625
11
3.85
21
6.7375
0
ARC
5
61
100
AcDbEntity
8
WATERJET
6
ByLayer
62
256
370
-1
100
AcDbCircle
10
4.0375
20
6.7625
40
0.1875
100
AcDbArc
50
90
51
180
0
CIRCLE
5
62
100
AcDbEntity
8
WATERJET
6
ByLayer
62
256
370
-1
100
AcDbCircle
10
1.5
20
0.36
40
0.1005
0
CIRCLE
5
63
100
AcDbEntity
8
WATERJET
6
ByLayer
62
256
370
-1
100
AcDbCircle
10
3
20
0.36
40
0.1005
0
CIRCLE
5
64
100
AcDbEntity
8
WATERJET
6
ByLayer
62
256
370
-1
100
AcDbCircle
10
1.5
20
8.64
40
0.1005
0
CIRCLE
5
65
100
AcDbEntity
8
WATERJET
6
ByLayer
62
256
370
-1
100
AcDbCircle
10
3
20
8.64
40
0.1005
0
ARC
5
66
100
AcDbEntity
8
WATERJET
6
ByLayer
62
256
370
-1
100
AcDbCircle
10
0.1875
20
0.1875
40
0.1875
100
AcDbArc
50
180
51
270
0
LINE
5
67
100
AcDbEntity
8
WATERJET
6
ByLayer
62
256
370
-1
100
AcDbLine
10
0.1875
20
0
11
4.3125
21
0
0
ARC
5
68
100
AcDbEntity
8
WATERJET
6
ByLayer
62
256
370
-1
100
AcDbCircle
10
4.3125
20
0.1875
40
0.1875
100
AcDbArc
50
270
51
360
0
ARC
5
69
100
AcDbEntity
8
WATERJET
6
ByLayer
62
256
370
-1
100
AcDbCircle
10
0.1875
20
8.8125
40
0.1875
100
AcDbArc
50
90
51
180
0
LINE
5
6A
100
AcDbEntity
8
WATERJET
6
ByLayer
62
256
370
-1
100
AcDbLine
10
4.3125
20
9
11
0.1875
21
9
0
ARC
5
6B
100
AcDbEntity
8
WATERJET
6
ByLayer
62
256
370
-1
100
AcDbCircle
10
4.3125
20
8.8125
40
0.1875
100
AcDbArc
50
360
51
90
0
LINE
5
6C
100
AcDbEntity
8
WATERJET
6
ByLayer
62
256
370
-1
100
AcDbLine
10
0.4625
20
2.05
11
0.0625
21
2.05
0
LINE
5
6D
100
AcDbEntity
8
WATERJET
6
ByLayer
62
256
370
-1
100
AcDbLine
10
-4.4408920985e-16
20
1.9875
11
-8.881784197e-16
21
0.1875
0
ARC
5
6E
100
AcDbEntity
8
WATERJET
6
ByLayer
62
256
370
-1
100
AcDbCircle
10
0.0625
20
1.9875
40
0.0625
100
AcDbArc
50
90
51
180
0
LINE
5
6F
100
AcDbEntity
8
WATERJET
6
ByLayer
62
256
370
-1
100
AcDbLine
10
0.0625
20
2.45
11
0.4625
21
2.45
0
ARC
5
70
100
AcDbEntity
8
WATERJET
6
ByLayer
62
256
370
-1
100
AcDbCircle
10
0.0625
20
2.5125
40
0.0625
100
AcDbArc
50
180
51
270
0
LINE
5
71
100
AcDbEntity
8
WATERJET
6
ByLayer
62
256
370
-1
100
AcDbLine
10
0.4625
20
3.55
11
0.0625
21
3.55
0
LINE
5
72
100
AcDbEntity
8
WATERJET
6
ByLayer
62
256
370
-1
100
AcDbLine
10
-4.4408920985e-16
20
3.4875
11
-4.4408920985e-16
21
2.5125
0
ARC
5
73
100
AcDbEntity
8
WATERJET
6
ByLayer
62
256
370
-1
100
AcDbCircle
10
0.0625
20
3.4875
40
0.0625
100
AcDbArc
50
90
51
180
0
LINE
5
74
100
AcDbEntity
8
WATERJET
6
ByLayer
62
256
370
-1
100
AcDbLine
10
0.0625
20
3.95
11
0.4625
21
3.95
0
ARC
5
75
100
AcDbEntity
8
WATERJET
6
ByLayer
62
256
370
-1
100
AcDbCircle
10
0.0625
20
4.0125
40
0.0625
100
AcDbArc
50
180
51
270
0
LINE
5
76
100
AcDbEntity
8
WATERJET
6
ByLayer
62
256
370
-1
100
AcDbLine
10
-4.4408920985e-16
20
4.9875
11
-4.4408920985e-16
21
4.0125
0
LINE
5
77
100
AcDbEntity
8
WATERJET
6
ByLayer
62
256
370
-1
100
AcDbLine
10
0.4625
20
5.05
11
0.0625
21
5.05
0
ARC
5
78
100
AcDbEntity
8
WATERJET
6
ByLayer
62
256
370
-1
100
AcDbCircle
10
0.0625
20
4.9875
40
0.0625
100
AcDbArc
50
90
51
180
0
LINE
5
79
100
AcDbEntity
8
WATERJET
6
ByLayer
62
256
370
-1
100
AcDbLine
10
0.0625
20
5.45
11
0.4625
21
5.45
0
ARC
5
7A
100
AcDbEntity
8
WATERJET
6
ByLayer
62
256
370
-1
100
AcDbCircle
10
0.0625
20
5.5125
40
0.0625
100
AcDbArc
50
180
51
270
0
LINE
5
7B
100
AcDbEntity
8
WATERJET
6
ByLayer
62
256
370
-1
100
AcDbLine
10
-4.4408920985e-16
20
6.4875
11
-4.4408920985e-16
21
5.5125
0
LINE
5
7C
100
AcDbEntity
8
WATERJET
6
ByLayer
62
256
370
-1
100
AcDbLine
10
0.4625
20
6.55
11
0.0625
21
6.55
0
ARC
5
7D
100
AcDbEntity
8
WATERJET
6
ByLayer
62
256
370
-1
100
AcDbCircle
10
0.0625
20
6.4875
40
0.0625
100
AcDbArc
50
90
51
180
0
LINE
5
7E
100
AcDbEntity
8
WATERJET
6
ByLayer
62
256
370
-1
100
AcDbLine
10
0.0625
20
6.95
11
0.4625
21
6.95
0
LINE
5
7F
100
AcDbEntity
8
WATERJET
6
ByLayer
62
256
370
-1
100
AcDbLine
10
0
20
8.8125
11
-4.4408920985e-16
21
7.0125
0
ARC
5
80
100
AcDbEntity
8
WATERJET
6
ByLayer
62
256
370
-1
100
AcDbCircle
10
0.0625
20
7.0125
40
0.0625
100
AcDbArc
50
180
51
270
0
LINE
5
81
100
AcDbEntity
8
WATERJET
6
ByLayer
62
256
370
-1
100
AcDbLine
10
4.5
20
0.1875
11
4.5
21
1.9875
0
LINE
5
82
100
AcDbEntity
8
WATERJET
6
ByLayer
62
256
370
-1
100
AcDbLine
10
4.0375
20
2.05
11
4.4375
21
2.05
0
ARC
5
83
100
AcDbEntity
8
WATERJET
6
ByLayer
62
256
370
-1
100
AcDbCircle
10
4.4375
20
1.9875
40
0.0625
100
AcDbArc
50
360
51
90
0
LINE
5
84
100
AcDbEntity
8
WATERJET
6
ByLayer
62
256
370
-1
100
AcDbLine
10
4.4375
20
2.45
11
4.0375
21
2.45
0
ARC
5
85
100
AcDbEntity
8
WATERJET
6
ByLayer
62
256
370
-1
100
AcDbCircle
10
4.4375
20
2.5125
40
0.0625
100
AcDbArc
50
270
51
360
0
LINE
5
86
100
AcDbEntity
8
WATERJET
6
ByLayer
62
256
370
-1
100
AcDbLine
10
4.5
20
2.5125
11
4.5
21
3.4875
0
LINE
5
87
100
AcDbEntity
8
WATERJET
6
ByLayer
62
256
370
-1
100
AcDbLine
10
4.0375
20
3.55
11
4.4375
21
3.55
0
ARC
5
88
100
AcDbEntity
8
WATERJET
6
ByLayer
62
256
370
-1
100
AcDbCircle
10
4.4375
20
3.4875
40
0.0625
100
AcDbArc
50
360
51
90
0
LINE
5
89
100
AcDbEntity
8
WATERJET
6
ByLayer
62
256
370
-1
100
AcDbLine
10
4.4375
20
3.95
11
4.0375
21
3.95
0
ARC
5
8A
100
AcDbEntity
8
WATERJET
6
ByLayer
62
256
370
-1
100
AcDbCircle
10
4.4375
20
4.0125
40
0.0625
100
AcDbArc
50
270
51
360
0
LINE
5
8B
100
AcDbEntity
8
WATERJET
6
ByLayer
62
256
370
-1
100
AcDbLine
10
4.5
20
4.0125
11
4.5
21
4.9875
0
LINE
5
8C
100
AcDbEntity
8
WATERJET
6
ByLayer
62
256
370
-1
100
AcDbLine
10
4.0375
20
5.05
11
4.4375
21
5.05
0
ARC
5
8D
100
AcDbEntity
8
WATERJET
6
ByLayer
62
256
370
-1
100
AcDbCircle
10
4.4375
20
4.9875
40
0.0625
100
AcDbArc
50
360
51
90
0
LINE
5
8E
100
AcDbEntity
8
WATERJET
6
ByLayer
62
256
370
-1
100
AcDbLine
10
4.4375
20
5.45
11
4.0375
21
5.45
0
ARC
5
8F
100
AcDbEntity
8
WATERJET
6
ByLayer
62
256
370
-1
100
AcDbCircle
10
4.4375
20
5.5125
40
0.0625
100
AcDbArc
50
270
51
360
0
LINE
5
90
100
AcDbEntity
8
WATERJET
6
ByLayer
62
256
370
-1
100
AcDbLine
10
4.5
20
5.5125
11
4.5
21
6.4875
0
LINE
5
91
100
AcDbEntity
8
WATERJET
6
ByLayer
62
256
370
-1
100
AcDbLine
10
4.0375
20
6.55
11
4.4375
21
6.55
0
ARC
5
92
100
AcDbEntity
8
WATERJET
6
ByLayer
62
256
370
-1
100
AcDbCircle
10
4.4375
20
6.4875
40
0.0625
100
AcDbArc
50
360
51
90
0
LINE
5
93
100
AcDbEntity
8
WATERJET
6
ByLayer
62
256
370
-1
100
AcDbLine
10
4.4375
20
6.95
11
4.0375
21
6.95
0
LINE
5
94
100
AcDbEntity
8
WATERJET
6
ByLayer
62
256
370
-1
100
AcDbLine
10
4.5
20
7.0125
11
4.5
21
8.8125
0
ARC
5
95
100
AcDbEntity
8
WATERJET
6
ByLayer
62
256
370
-1
100
AcDbCircle
10
4.4375
20
7.0125
40
0.0625
100
AcDbArc
50
270
51
360
0
CIRCLE
5
96
100
AcDbEntity
8
WATERJET
6
ByLayer
62
256
370
-1
100
AcDbCircle
10
0.4
20
8.25
40
0.1005
0
CIRCLE
5
97
100
AcDbEntity
8
WATERJET
6
ByLayer
62
256
370
-1
100
AcDbCircle
10
4.1
20
8.25
40
0.1005
0
CIRCLE
5
98
100
AcDbEntity
8
WATERJET
6
ByLayer
62
256
370
-1
100
AcDbCircle
10
1.25
20
1.5
40
0.1005
0
CIRCLE
5
99
100
AcDbEntity
8
WATERJET
6
ByLayer
62
256
370
-1
100
AcDbCircle
10
2.25
20
1.5
40
0.1005
0
CIRCLE
5
9A
100
AcDbEntity
8
WATERJET
6
ByLayer
62
256
370
-1
100
AcDbCircle
10
3.25
20
1.5
40
0.1005
0
CIRCLE
5
9B
100
AcDbEntity
8
WATERJET
6
ByLayer
62
256
370
-1
100
AcDbCircle
10
3.25
20
2.5
40
0.1005
0
CIRCLE
5
9C
100
AcDbEntity
8
WATERJET
6
ByLayer
62
256
370
-1
100
AcDbCircle
10
2.25
20
2.5
40
0.1005
0
CIRCLE
5
9D
100
AcDbEntity
8
WATERJET
6
ByLayer
62
256
370
-1
100
AcDbCircle
10
1.25
20
2.5
40
0.1005
0
CIRCLE
5
9E
100
AcDbEntity
8
WATERJET
6
ByLayer
62
256
370
-1
100
AcDbCircle
10
1.25
20
3.5
40
0.1005
0
CIRCLE
5
9F
100
AcDbEntity
8
WATERJET
6
ByLayer
62
256
370
-1
100
AcDbCircle
10
2.25
20
3.5
40
0.1005
0
CIRCLE
5
A0
100
AcDbEntity
8
WATERJET
6
ByLayer
62
256
370
-1
100
AcDbCircle
10
3.25
20
3.5
40
0.1005
0
CIRCLE
5
A1
100
AcDbEntity
8
WATERJET
6
ByLayer
62
256
370
-1
100
AcDbCircle
10
2.25
20
6.75
40
0.45
0
CIRCLE
5
A2
100
AcDbEntity
8
WATERJET
6
ByLayer
62
256
370
-1
100
AcDbCircle
10
2.25
20
5.25
40
0.45
0
ARC
5
A3
100
AcDbEntity
8
WATERJET
6
ByLayer
62
256
370
-1
100
AcDbCircle
10
5.2625
20
2.2375
40
0.1875
100
AcDbArc
50
270
51
360
0
LINE
5
A4
100
AcDbEntity
8
WATERJET
6
ByLayer
62
256
370
-1
100
AcDbLine
10
5.45
20
2.2625
11
5.45
21
2.2375
0
ARC
5
A5
100
AcDbEntity
8
WATERJET
6
ByLayer
62
256
370
-1
100
AcDbCircle
10
5.2625
20
2.2625
40
0.1875
100
AcDbArc
50
360
51
90
0
ARC
5
A6
100
AcDbEntity
8
WATERJET
6
ByLayer
62
256
370
-1
100
AcDbCircle
10
5.2625
20
3.7375
40
0.1875
100
AcDbArc
50
270
51
360
0
LINE
5
A7
100
AcDbEntity
8
WATERJET
6
ByLayer
62
256
370
-1
100
AcDbLine
10
5.45
20
3.7625
11
5.45
21
3.7375
0
ARC
5
A8
100
AcDbEntity
8
WATERJET
6
ByLayer
62
256
370
-1
100
AcDbCircle
10
5.2625
20
3.7625
40
0.1875
100
AcDbArc
50
360
51
90
0
ARC
5
A9
100
AcDbEntity
8
WATERJET
6
ByLayer
62
256
370
-1
100
AcDbCircle
10
5.2625
20
5.2375
40
0.1875
100
AcDbArc
50
270
51
360
0
LINE
5
AA
100
AcDbEntity
8
WATERJET
6
ByLayer
62
256
370
-1
100
AcDbLine
10
5.45
20
5.2625
11
5.45
21
5.2375
0
ARC
5
AB
100
AcDbEntity
8
WATERJET
6
ByLayer
62
256
370
-1
100
AcDbCircle
10
5.2625
20
5.2625
40
0.1875
100
AcDbArc
50
360
51
90
0
ARC
5
AC
100
AcDbEntity
8
WATERJET
6
ByLayer
62
256
370
-1
100
AcDbCircle
10
5.2625
20
6.7375
40
0.1875
100
AcDbArc
50
270
51
360
0
LINE
5
AD
100
AcDbEntity
8
WATERJET
6
ByLayer
62
256
370
-1
100
AcDbLine
10
5.45
20
6.7625
11
5.45
21
6.7375
0
ARC
5
AE
100
AcDbEntity
8
WATERJET
6
ByLayer
62
256
370
-1
100
AcDbCircle
10
5.2625
20
6.7625
40
0.1875
100
AcDbArc
50
360
51
90
0
ARC
5
AF
100
AcDbEntity
8
WATERJET
6
ByLayer
62
256
370
-1
100
AcDbCircle
10
8.8375
20
2.2375
40
0.1875
100
AcDbArc
50
180
51
270
0
LINE
5
B0
100
AcDbEntity
8
WATERJET
6
ByLayer
62
256
370
-1
100
AcDbLine
10
8.65
20
2.2625
11
8.65
21
2.2375
0
ARC
5
B1
100
AcDbEntity
8
WATERJET
6
ByLayer
62
256
370
-1
100
AcDbCircle
10
8.8375
20
2.2625
40
0.1875
100
AcDbArc
50
90
51
180
0
ARC
5
B2
100
AcDbEntity
8
WATERJET
6
ByLayer
62
256
370
-1
100
AcDbCircle
10
8.8375
20
3.7375
40
0.1875
100
AcDbArc
50
180
51
270
0
LINE
5
B3
100
AcDbEntity
8
WATERJET
6
ByLayer
62
256
370
-1
100
AcDbLine
10
8.65
20
3.7625
11
8.65
21
3.7375
0
ARC
5
B4
100
AcDbEntity
8
WATERJET
6
ByLayer
62
256
370
-1
100
AcDbCircle
10
8.8375
20
3.7625
40
0.1875
100
AcDbArc
50
90
51
180
0
ARC
5
B5
100
AcDbEntity
8
WATERJET
6
ByLayer
62
256
370
-1
100
AcDbCircle
10
8.8375
20
5.2375
40
0.1875
100
AcDbArc
50
180
51
270
0
LINE
5
B6
100
AcDbEntity
8
WATERJET
6
ByLayer
62
256
370
-1
100
AcDbLine
10
8.65
20
5.2625
11
8.65
21
5.2375
0
ARC
5
B7
100
AcDbEntity
8
WATERJET
6
ByLayer
62
256
370
-1
100
AcDbCircle
10
8.8375
20
5.2625
40
0.1875
100
AcDbArc
50
90
51
180
0
ARC
5
B8
100
AcDbEntity
8
WATERJET
6
ByLayer
62
256
370
-1
100
AcDbCircle
10
8.8375
20
6.7375
40
0.1875
100
AcDbArc
50
180
51
270
0
LINE
5
B9
100
AcDbEntity
8
WATERJET
6
ByLayer
62
256
370
-1
100
AcDbLine
10
8.65
20
6.7625
11
8.65
21
6.7375
0
ARC
5
BA
100
AcDbEntity
8
WATERJET
6
ByLayer
62
256
370
-1
100
AcDbCircle
10
8.8375
20
6.7625
40
0.1875
100
AcDbArc
50
90
51
180
0
CIRCLE
5
BB
100
AcDbEntity
8
WATERJET
6
ByLayer
62
256
370
-1
100
AcDbCircle
10
6.3
20
0.36
40
0.1005
0
CIRCLE
5
BC
100
AcDbEntity
8
WATERJET
6
ByLayer
62
256
370
-1
100
AcDbCircle
10
7.8
20
0.36
40
0.1005
0
CIRCLE
5
BD
100
AcDbEntity
8
WATERJET
6
ByLayer
62
256
370
-1
100
AcDbCircle
10
6.3
20
8.64
40
0.1005
0
CIRCLE
5
BE
100
AcDbEntity
8
WATERJET
6
ByLayer
62
256
370
-1
100
AcDbCircle
10
7.8
20
8.64
40
0.1005
0
ARC
5
BF
100
AcDbEntity
8
WATERJET
6
ByLayer
62
256
370
-1
100
AcDbCircle
10
4.9875
20
0.1875
40
0.1875
100
AcDbArc
50
180
51
270
0
LINE
5
C0
100
AcDbEntity
8
WATERJET
6
ByLayer
62
256
370
-1
100
AcDbLine
10
4.9875
20
0
11
9.1125
21
0
0
ARC
5
C1
100
AcDbEntity
8
WATERJET
6
ByLayer
62
256
370
-1
100
AcDbCircle
10
9.1125
20
0.1875
40
0.1875
100
AcDbArc
50
270
51
360
0
ARC
5
C2
100
AcDbEntity
8
WATERJET
6
ByLayer
62
256
370
-1
100
AcDbCircle
10
4.9875
20
8.8125
40
0.1875
100
AcDbArc
50
90
51
180
0
LINE
5
C3
100
AcDbEntity
8
WATERJET
6
ByLayer
62
256
370
-1
100
AcDbLine
10
9.1125
20
9
11
4.9875
21
9
0
ARC
5
C4
100
AcDbEntity
8
WATERJET
6
ByLayer
62
256
370
-1
100
AcDbCircle
10
9.1125
20
8.8125
40
0.1875
100
AcDbArc
50
360
51
90
0
LINE
5
C5
100
AcDbEntity
8
WATERJET
6
ByLayer
62
256
370
-1
100
AcDbLine
10
5.2625
20
2.05
11
4.8625
21
2.05
0
LINE
5
C6
100
AcDbEntity
8
WATERJET
6
ByLayer
62
256
370
-1
100
AcDbLine
10
4.8
20
1.9875
11
4.8
21
0.1875
0
ARC
5
C7
100
AcDbEntity
8
WATERJET
6
ByLayer
62
256
370
-1
100
AcDbCircle
10
4.8625
20
1.9875
40
0.0625
100
AcDbArc
50
90
51
180
0
LINE
5
C8
100
AcDbEntity
8
WATERJET
6
ByLayer
62
256
370
-1
100
AcDbLine
10
4.8625
20
2.45
11
5.2625
21
2.45
0
ARC
5
C9
100
AcDbEntity
8
WATERJET
6
ByLayer
62
256
370
-1
100
AcDbCircle
10
4.8625
20
2.5125
40
0.0625
100
AcDbArc
50
180
51
270
0
LINE
5
CA
100
AcDbEntity
8
WATERJET
6
ByLayer
62
256
370
-1
100
AcDbLine
10
5.2625
20
3.55
11
4.8625
21
3.55
0
LINE
5
CB
100
AcDbEntity
8
WATERJET
6
ByLayer
62
256
370
-1
100
AcDbLine
10
4.8
20
3.4875
11
4.8
21
2.5125
0
ARC
5
CC
100
AcDbEntity
8
WATERJET
6
ByLayer
62
256
370
-1
100
AcDbCircle
10
4.8625
20
3.4875
40
0.0625
100
AcDbArc
50
90
51
180
0
LINE
5
CD
100
AcDbEntity
8
WATERJET
6
ByLayer
62
256
370
-1
100
AcDbLine
10
4.8625
20
3.95
11
5.2625
21
3.95
0
ARC
5
CE
100
AcDbEntity
8
WATERJET
6
ByLayer
62
256
370
-1
100
AcDbCircle
10
4.8625
20
4.0125
40
0.0625
100
AcDbArc
50
180
51
270
0
LINE
5
CF
100
AcDbEntity
8
WATERJET
6
ByLayer
62
256
370
-1
100
AcDbLine
10
4.8
20
4.9875
11
4.8
21
4.0125
0
LINE
5
D0
100
AcDbEntity
8
WATERJET
6
ByLayer
62
256
370
-1
100
AcDbLine
10
5.2625
20
5.05
11
4.8625
21
5.05
0
ARC
5
D1
100
AcDbEntity
8
WATERJET
6
ByLayer
62
256
370
-1
100
AcDbCircle
10
4.8625
20
4.9875
40
0.0625
100
AcDbArc
50
90
51
180
0
LINE
5
D2
100
AcDbEntity
8
WATERJET
6
ByLayer
62
256
370
-1
100
AcDbLine
10
4.8625
20
5.45
11
5.2625
21
5.45
0
ARC
5
D3
100
AcDbEntity
8
WATERJET
6
ByLayer
62
256
370
-1
100
AcDbCircle
10
4.8625
20
5.5125
40
0.0625
100
AcDbArc
50
180
51
270
0
LINE
5
D4
100
AcDbEntity
8
WATERJET
6
ByLayer
62
256
370
-1
100
AcDbLine
10
4.8
20
6.4875
11
4.8
21
5.5125
0
LINE
5
D5
100
AcDbEntity
8
WATERJET
6
ByLayer
62
256
370
-1
100
AcDbLine
10
5.2625
20
6.55
11
4.8625
21
6.55
0
ARC
5
D6
100
AcDbEntity
8
WATERJET
6
ByLayer
62
256
370
-1
100
AcDbCircle
10
4.8625
20
6.4875
40
0.0625
100
AcDbArc
50
90
51
180
0
LINE
5
D7
100
AcDbEntity
8
WATERJET
6
ByLayer
62
256
370
-1
100
AcDbLine
10
4.8625
20
6.95
11
5.2625
21
6.95
0
LINE
5
D8
100
AcDbEntity
8
WATERJET
6
ByLayer
62
256
370
-1
100
AcDbLine
10
4.8
20
8.8125
11
4.8
21
7.0125
0
ARC
5
D9
100
AcDbEntity
8
WATERJET
6
ByLayer
62
256
370
-1
100
AcDbCircle
10
4.8625
20
7.0125
40
0.0625
100
AcDbArc
50
180
51
270
0
LINE
5
DA
100
AcDbEntity
8
WATERJET
6
ByLayer
62
256
370
-1
100
AcDbLine
10
9.3
20
0.1875
11
9.3
21
1.9875
0
LINE
5
DB
100
AcDbEntity
8
WATERJET
6
ByLayer
62
256
370
-1
100
AcDbLine
10
8.8375
20
2.05
11
9.2375
21
2.05
0
ARC
5
DC
100
AcDbEntity
8
WATERJET
6
ByLayer
62
256
370
-1
100
AcDbCircle
10
9.2375
20
1.9875
40
0.0625
100
AcDbArc
50
360
51
90
0
LINE
5
DD
100
AcDbEntity
8
WATERJET
6
ByLayer
62
256
370
-1
100
AcDbLine
10
9.2375
20
2.45
11
8.8375
21
2.45
0
ARC
5
DE
100
AcDbEntity
8
WATERJET
6
ByLayer
62
256
370
-1
100
AcDbCircle
10
9.2375
20
2.5125
40
0.0625
100
AcDbArc
50
270
51
360
0
LINE
5
DF
100
AcDbEntity
8
WATERJET
6
ByLayer
62
256
370
-1
100
AcDbLine
10
9.3
20
2.5125
11
9.3
21
3.4875
0
LINE
5
E0
100
AcDbEntity
8
WATERJET
6
ByLayer
62
256
370
-1
100
AcDbLine
10
8.8375
20
3.55
11
9.2375
21
3.55
0
ARC
5
E1
100
AcDbEntity
8
WATERJET
6
ByLayer
62
256
370
-1
100
AcDbCircle
10
9.2375
20
3.4875
40
0.0625
100
AcDbArc
50
360
51
90
0
LINE
5
E2
100
AcDbEntity
8
WATERJET
6
ByLayer
62
256
370
-1
100
AcDbLine
10
9.2375
20
3.95
11
8.8375
21
3.95
0
ARC
5
E3
100
AcDbEntity
8
WATERJET
6
ByLayer
62
256
370
-1
100
AcDbCircle
10
9.2375
20
4.0125
40
0.0625
100
AcDbArc
50
270
51
360
0
LINE
5
E4
100
AcDbEntity
8
WATERJET
6
ByLayer
62
256
370
-1
100
AcDbLine
10
9.3
20
4.0125
11
9.3
21
4.9875
0
LINE
5
E5
100
AcDbEntity
8
WATERJET
6
ByLayer
62
256
370
-1
100
AcDbLine
10
8.8375
20
5.05
11
9.2375
21
5.05
0
ARC
5
E6
100
AcDbEntity
8
WATERJET
6
ByLayer
62
256
370
-1
100
AcDbCircle
10
9.2375
20
4.9875
40
0.0625
100
AcDbArc
50
360
51
90
0
LINE
5
E7
100
AcDbEntity
8
WATERJET
6
ByLayer
62
256
370
-1
100
AcDbLine
10
9.2375
20
5.45
11
8.8375
21
5.45
0
ARC
5
E8
100
AcDbEntity
8
WATERJET
6
ByLayer
62
256
370
-1
100
AcDbCircle
10
9.2375
20
5.5125
40
0.0625
100
AcDbArc
50
270
51
360
0
LINE
5
E9
100
AcDbEntity
8
WATERJET
6
ByLayer
62
256
370
-1
100
AcDbLine
10
9.3
20
5.5125
11
9.3
21
6.4875
0
LINE
5
EA
100
AcDbEntity
8
WATERJET
6
ByLayer
62
256
370
-1
100
AcDbLine
10
8.8375
20
6.55
11
9.2375
21
6.55
0
ARC
5
EB
100
AcDbEntity
8
WATERJET
6
ByLayer
62
256
370
-1
100
AcDbCircle
10
9.2375
20
6.4875
40
0.0625
100
AcDbArc
50
360
51
90
0
LINE
5
EC
100
AcDbEntity
8
WATERJET
6
ByLayer
62
256
370
-1
100
AcDbLine
10
9.2375
20
6.95
11
8.8375
21
6.95
0
LINE
5
ED
100
AcDbEntity
8
WATERJET
6
ByLayer
62
256
370
-1
100
AcDbLine
10
9.3
20
7.0125
11
9.3
21
8.8125
0
ARC
5
EE
100
AcDbEntity
8
WATERJET
6
ByLayer
62
256
370
-1
100
AcDbCircle
10
9.2375
20
7.0125
40
0.0625
100
AcDbArc
50
270
51
360
0
CIRCLE
5
EF
100
AcDbEntity
8
WATERJET
6
ByLayer
62
256
370
-1
100
AcDbCircle
10
5.2
20
8.25
40
0.1005
0
CIRCLE
5
F0
100
AcDbEntity
8
WATERJET
6
ByLayer
62
256
370
-1
100
AcDbCircle
10
8.9
20
8.25
40
0.1005
0
CIRCLE
5
F1
100
AcDbEntity
8
WATERJET
6
ByLayer
62
256
370
-1
100
AcDbCircle
10
6.05
20
1.5
40
0.1005
0
CIRCLE
5
F2
100
AcDbEntity
8
WATERJET
6
ByLayer
62
256
370
-1
100
AcDbCircle
10
7.05
20
1.5
40
0.1005
0
CIRCLE
5
F3
100
AcDbEntity
8
WATERJET
6
ByLayer
62
256
370
-1
100
AcDbCircle
10
8.05
20
1.5
40
0.1005
0
CIRCLE
5
F4
100
AcDbEntity
8
WATERJET
6
ByLayer
62
256
370
-1
100
AcDbCircle
10
8.05
20
2.5
40
0.1005
0
CIRCLE
5
F5
100
AcDbEntity
8
WATERJET
6
ByLayer
62
256
370
-1
100
AcDbCircle
10
7.05
20
2.5
40
0.1005
0
CIRCLE
5
F6
100
AcDbEntity
8
WATERJET
6
ByLayer
62
256
370
-1
100
AcDbCircle
10
6.05
20
2.5
40
0.1005
0
CIRCLE
5
F7
100
AcDbEntity
8
WATERJET
6
ByLayer
62
256
370
-1
100
AcDbCircle
10
6.05
20
3.5
40
0.1005
0
CIRCLE
5
F8
100
AcDbEntity
8
WATERJET
6
ByLayer
62
256
370
-1
100
AcDbCircle
10
7.05
20
3.5
40
0.1005
0
CIRCLE
5
F9
100
AcDbEntity
8
WATERJET
6
ByLayer
62
256
370
-1
100
AcDbCircle
10
8.05
20
3.5
40
0.1005
0
CIRCLE
5
FA
100
AcDbEntity
8
WATERJET
6
ByLayer
62
256
370
-1
100
AcDbCircle
10
7.05
20
6.75
40
0.45
0
CIRCLE
5
FB
100
AcDbEntity
8
WATERJET
6
ByLayer
62
256
370
-1
100
AcDbCircle
10
7.05
20
5.25
40
0.45
0
ARC
5
FC
100
AcDbEntity
8
WATERJET
6
ByLayer
62
256
370
-1
100
AcDbCircle
10
0.4625
20
10.0375
40
0.1875
100
AcDbArc
50
270
51
360
0
LINE
5
FD
100
AcDbEntity
8
WATERJET
6
ByLayer
62
256
370
-1
100
AcDbLine
10
0.65
20
10.0625
11
0.65
21
10.0375
0
ARC
5
FE
100
AcDbEntity
8
WATERJET
6
ByLayer
62
256
370
-1
100
AcDbCircle
10
0.4625
20
10.0625
40
0.1875
100
AcDbArc
50
360
51
90
0
ARC
5
FF
100
AcDbEntity
8
WATERJET
6
ByLayer
62
256
370
-1
100
AcDbCircle
10
0.4625
20
11.5375
40
0.1875
100
AcDbArc
50
270
51
360
0
LINE
5
100
100
AcDbEntity
8
WATERJET
6
ByLayer
62
256
370
-1
100
AcDbLine
10
0.65
20
11.5625
11
0.65
21
11.5375
0
ARC
5
101
100
AcDbEntity
8
WATERJET
6
ByLayer
62
256
370
-1
100
AcDbCircle
10
0.4625
20
11.5625
40
0.1875
100
AcDbArc
50
360
51
90
0
ARC
5
102
100
AcDbEntity
8
WATERJET
6
ByLayer
62
256
370
-1
100
AcDbCircle
10
4.0375
20
10.0375
40
0.1875
100
AcDbArc
50
180
51
270
0
LINE
5
103
100
AcDbEntity
8
WATERJET
6
ByLayer
62
256
370
-1
100
AcDbLine
10
3.85
20
10.0625
11
3.85
21
10.0375
0
ARC
5
104
100
AcDbEntity
8
WATERJET
6
ByLayer
62
256
370
-1
100
AcDbCircle
10
4.0375
20
10.0625
40
0.1875
100
AcDbArc
50
90
51
180
0
ARC
5
105
100
AcDbEntity
8
WATERJET
6
ByLayer
62
256
370
-1
100
AcDbCircle
10
4.0375
20
11.5375
40
0.1875
100
AcDbArc
50
180
51
270
0
LINE
5
106
100
AcDbEntity
8
WATERJET
6
ByLayer
62
256
370
-1
100
AcDbLine
10
3.85
20
11.5625
11
3.85
21
11.5375
0
ARC
5
107
100
AcDbEntity
8
WATERJET
6
ByLayer
62
256
370
-1
100
AcDbCircle
10
4.0375
20
11.5625
40
0.1875
100
AcDbArc
50
90
51
180
0
LINE
5
108
100
AcDbEntity
8
WATERJET
6
ByLayer
62
256
370
-1
100
AcDbLine
10
0.4625
20
9.85
11
0.0625
21
9.85
0
ARC
5
109
100
AcDbEntity
8
WATERJET
6
ByLayer
62
256
370
-1
100
AcDbCircle
10
0.0625
20
9.7875
40
0.0625
100
AcDbArc
50
90
51
180
0
LINE
5
10A
100
AcDbEntity
8
WATERJET
6
ByLayer
62
256
370
-1
100
AcDbLine
10
0.0625
20
10.25
11
0.4625
21
10.25
0
ARC
5
10B
100
AcDbEntity
8
WATERJET
6
ByLayer
62
256
370
-1
100
AcDbCircle
10
0.0625
20
10.3125
40
0.0625
100
AcDbArc
50
180
51
270
0
LINE
5
10C
100
AcDbEntity
8
WATERJET
6
ByLayer
62
256
370
-1
100
AcDbLine
10
0
20
11.2875
11
0
21
10.3125
0
LINE
5
10D
100
AcDbEntity
8
WATERJET
6
ByLayer
62
256
370
-1
100
AcDbLine
10
0.4625
20
11.35
11
0.0625
21
11.35
0
ARC
5
10E
100
AcDbEntity
8
WATERJET
6
ByLayer
62
256
370
-1
100
AcDbCircle
10
0.0625
20
11.2875
40
0.0625
100
AcDbArc
50
90
51
180
0
LINE
5
10F
100
AcDbEntity
8
WATERJET
6
ByLayer
62
256
370
-1
100
AcDbLine
10
0.0625
20
11.75
11
0.4625
21
11.75
0
ARC
5
110
100
AcDbEntity
8
WATERJET
6
ByLayer
62
256
370
-1
100
AcDbCircle
10
0.0625
20
11.8125
40
0.0625
100
AcDbArc
50
180
51
270
0
LINE
5
111
100
AcDbEntity
8
WATERJET
6
ByLayer
62
256
370
-1
100
AcDbLine
10
4.0375
20
9.85
11
4.4375
21
9.85
0
ARC
5
112
100
AcDbEntity
8
WATERJET
6
ByLayer
62
256
370
-1
100
AcDbCircle
10
4.4375
20
9.7875
40
0.0625
100
AcDbArc
50
360
51
90
0
LINE
5
113
100
AcDbEntity
8
WATERJET
6
ByLayer
62
256
370
-1
100
AcDbLine
10
4.4375
20
10.25
11
4.0375
21
10.25
0
ARC
5
114
100
AcDbEntity
8
WATERJET
6
ByLayer
62
256
370
-1
100
AcDbCircle
10
4.4375
20
10.3125
40
0.0625
100
AcDbArc
50
270
51
360
0
LINE
5
115
100
AcDbEntity
8
WATERJET
6
ByLayer
62
256
370
-1
100
AcDbLine
10
4.5
20
10.3125
11
4.5
21
11.2875
0
LINE
5
116
100
AcDbEntity
8
WATERJET
6
ByLayer
62
256
370
-1
100
AcDbLine
10
4.0375
20
11.35
11
4.4375
21
11.35
0
ARC
5
117
100
AcDbEntity
8
WATERJET
6
ByLayer
62
256
370
-1
100
AcDbCircle
10
4.4375
20
11.2875
40
0.0625
100
AcDbArc
50
360
51
90
0
LINE
5
118
100
AcDbEntity
8
WATERJET
6
ByLayer
62
256
370
-1
100
AcDbLine
10
4.4375
20
11.75
11
4.0375
21
11.75
0
ARC
5
119
100
AcDbEntity
8
WATERJET
6
ByLayer
62
256
370
-1
100
AcDbCircle
10
4.4375
20
11.8125
40
0.0625
100
AcDbArc
50
270
51
360
0
CIRCLE
5
11A
100
AcDbEntity
8
WATERJET
6
ByLayer
62
256
370
-1
100
AcDbCircle
10
2.25
20
10.05
40
0.1615
0
CIRCLE
5
11B
100
AcDbEntity
8
WATERJET
6
ByLayer
62
256
370
-1
100
AcDbCircle
10
2.25
20
11.55
40
0.1615
0
CIRCLE
5
11C
100
AcDbEntity
8
WATERJET
6
ByLayer
62
256
370
-1
100
AcDbCircle
10
1.25
20
10.05
40
0.0795
0
CIRCLE
5
11D
100
AcDbEntity
8
WATERJET
6
ByLayer
62
256
370
-1
100
AcDbCircle
10
1.25
20
11.55
40
0.0795
0
CIRCLE
5
11E
100
AcDbEntity
8
WATERJET
6
ByLayer
62
256
370
-1
100
AcDbCircle
10
3.25
20
10.05
40
0.0795
0
CIRCLE
5
11F
100
AcDbEntity
8
WATERJET
6
ByLayer
62
256
370
-1
100
AcDbCircle
10
3.25
20
11.55
40
0.0795
0
CIRCLE
5
120
100
AcDbEntity
8
WATERJET
6
ByLayer
62
256
370
-1
100
AcDbCircle
10
1.25
20
12.8
40
0.0795
0
CIRCLE
5
121
100
AcDbEntity
8
WATERJET
6
ByLayer
62
256
370
-1
100
AcDbCircle
10
3.25
20
12.8
40
0.0795
0
CIRCLE
5
122
100
AcDbEntity
8
WATERJET
6
ByLayer
62
256
370
-1
100
AcDbCircle
10
3.25
20
14.95
40
0.0795
0
CIRCLE
5
123
100
AcDbEntity
8
WATERJET
6
ByLayer
62
256
370
-1
100
AcDbCircle
10
1.25
20
14.95
40
0.0795
0
LINE
5
124
100
AcDbEntity
8
WATERJET
6
ByLayer
62
256
370
-1
100
AcDbLine
10
0
20
9.7875
11
0
21
9.3625
0
LINE
5
125
100
AcDbEntity
8
WATERJET
6
ByLayer
62
256
370
-1
100
AcDbLine
10
2.25
20
9.3
11
0.0625
21
9.3
0
ARC
5
126
100
AcDbEntity
8
WATERJET
6
ByLayer
62
256
370
-1
100
AcDbCircle
10
0.0625
20
9.3625
40
0.0625
100
AcDbArc
50
180
51
270
0
LINE
5
127
100
AcDbEntity
8
WATERJET
6
ByLayer
62
256
370
-1
100
AcDbLine
10
2.25
20
9.3
11
4.4375
21
9.3
0
LINE
5
128
100
AcDbEntity
8
WATERJET
6
ByLayer
62
256
370
-1
100
AcDbLine
10
4.5
20
9.3625
11
4.5
21
9.7875
0
ARC
5
129
100
AcDbEntity
8
WATERJET
6
ByLayer
62
256
370
-1
100
AcDbCircle
10
4.4375
20
9.3625
40
0.0625
100
AcDbArc
50
270
51
360
0
ARC
5
12A
100
AcDbEntity
8
WATERJET
6
ByLayer
62
256
370
-1
100
AcDbCircle
10
1.0625
20
15.3875
40
0.0625
100
AcDbArc
50
90
51
180
0
LINE
5
12B
100
AcDbEntity
8
WATERJET
6
ByLayer
62
256
370
-1
100
AcDbLine
10
1.0625
20
15.45
11
3.4375
21
15.45
0
ARC
5
12C
100
AcDbEntity
8
WATERJET
6
ByLayer
62
256
370
-1
100
AcDbCircle
10
3.4375
20
15.3875
40
0.0625
100
AcDbArc
50
360
51
90
0
CIRCLE
5
12D
100
AcDbEntity
8
WATERJET
6
ByLayer
62
256
370
-1
100
AcDbCircle
10
2.25
20
14.625
40
0.1285
0
CIRCLE
5
12E
100
AcDbEntity
8
WATERJET
6
ByLayer
62
256
370
-1
100
AcDbCircle
10
2.25
20
13.125
40
0.1285
0
ARC
5
12F
100
AcDbEntity
8
WATERJET
6
ByLayer
62
256
370
-1
100
AcDbCircle
10
0.1875
20
13.6125
40
0.1875
100
AcDbArc
50
90
51
180
0
ARC
5
130
100
AcDbEntity
8
WATERJET
6
ByLayer
62
256
370
-1
100
AcDbCircle
10
4.3125
20
13.6125
40
0.1875
100
AcDbArc
50
360
51
90
0
LINE
5
131
100
AcDbEntity
8
WATERJET
6
ByLayer
62
256
370
-1
100
AcDbLine
10
0
20
13.6125
11
0
21
11.8125
0
LINE
5
132
100
AcDbEntity
8
WATERJET
6
ByLayer
62
256
370
-1
100
AcDbLine
10
4.5
20
11.8125
11
4.5
21
13.6125
0
LINE
5
133
100
AcDbEntity
8
WATERJET
6
ByLayer
62
256
370
-1
100
AcDbLine
10
0.9375
20
13.8
11
0.1875
21
13.8
0
LINE
5
134
100
AcDbEntity
8
WATERJET
6
ByLayer
62
256
370
-1
100
AcDbLine
10
1
20
13.8625
11
1
21
15.3875
0
ARC
5
135
100
AcDbEntity
8
WATERJET
6
ByLayer
62
256
370
-1
100
AcDbCircle
10
0.9375
20
13.8625
40
0.0625
100
AcDbArc
50
270
51
360
0
LINE
5
136
100
AcDbEntity
8
WATERJET
6
ByLayer
62
256
370
-1
100
AcDbLine
10
4.3125
20
13.8
11
3.5625
21
13.8
0
LINE
5
137
100
AcDbEntity
8
WATERJET
6
ByLayer
62
256
370
-1
100
AcDbLine
10
3.5
20
13.8625
11
3.5
21
15.3875
0
ARC
5
138
100
AcDbEntity
8
WATERJET
6
ByLayer
62
256
370
-1
100
AcDbCircle
10
3.5625
20
13.8625
40
0.0625
100
AcDbArc
50
180
51
270
0
CIRCLE
5
139
100
AcDbEntity
8
WATERJET
6
ByLayer
62
256
370
-1
100
AcDbCircle
10
4.1
20
13.05
40
0.1285
0
CIRCLE
5
13A
100
AcDbEntity
8
WATERJET
6
ByLayer
62
256
370
-1
100
AcDbCircle
10
0.4
20
13.05
40
0.1285
0
CIRCLE
5
13B
100
AcDbEntity
8
WATERJET
6
ByLayer
62
256
370
-1
100
AcDbCircle
10
1.5
20
13.44
40
0.1285
0
CIRCLE
5
13C
100
AcDbEntity
8
WATERJET
6
ByLayer
62
256
370
-1
100
AcDbCircle
10
3
20
13.44
40
0.1285
0
ARC
5
13D
100
AcDbEntity
8
WATERJET
6
ByLayer
62
256
370
-1
100
AcDbCircle
10
5.2625
20
10.0375
40
0.1875
100
AcDbArc
50
270
51
360
0
LINE
5
13E
100
AcDbEntity
8
WATERJET
6
ByLayer
62
256
370
-1
100
AcDbLine
10
5.45
20
10.0625
11
5.45
21
10.0375
0
ARC
5
13F
100
AcDbEntity
8
WATERJET
6
ByLayer
62
256
370
-1
100
AcDbCircle
10
5.2625
20
10.0625
40
0.1875
100
AcDbArc
50
360
51
90
0
ARC
5
140
100
AcDbEntity
8
WATERJET
6
ByLayer
62
256
370
-1
100
AcDbCircle
10
5.2625
20
11.5375
40
0.1875
100
AcDbArc
50
270
51
360
0
LINE
5
141
100
AcDbEntity
8
WATERJET
6
ByLayer
62
256
370
-1
100
AcDbLine
10
5.45
20
11.5625
11
5.45
21
11.5375
0
ARC
5
142
100
AcDbEntity
8
WATERJET
6
ByLayer
62
256
370
-1
100
AcDbCircle
10
5.2625
20
11.5625
40
0.1875
100
AcDbArc
50
360
51
90
0
ARC
5
143
100
AcDbEntity
8
WATERJET
6
ByLayer
62
256
370
-1
100
AcDbCircle
10
8.8375
20
10.0375
40
0.1875
100
AcDbArc
50
180
51
270
0
LINE
5
144
100
AcDbEntity
8
WATERJET
6
ByLayer
62
256
370
-1
100
AcDbLine
10
8.65
20
10.0625
11
8.65
21
10.0375
0
ARC
5
145
100
AcDbEntity
8
WATERJET
6
ByLayer
62
256
370
-1
100
AcDbCircle
10
8.8375
20
10.0625
40
0.1875
100
AcDbArc
50
90
51
180
0
ARC
5
146
100
AcDbEntity
8
WATERJET
6
ByLayer
62
256
370
-1
100
AcDbCircle
10
8.8375
20
11.5375
40
0.1875
100
AcDbArc
50
180
51
270
0
LINE
5
147
100
AcDbEntity
8
WATERJET
6
ByLayer
62
256
370
-1
100
AcDbLine
10
8.65
20
11.5625
11
8.65
21
11.5375
0
ARC
5
148
100
AcDbEntity
8
WATERJET
6
ByLayer
62
256
370
-1
100
AcDbCircle
10
8.8375
20
11.5625
40
0.1875
100
AcDbArc
50
90
51
180
0
LINE
5
149
100
AcDbEntity
8
WATERJET
6
ByLayer
62
256
370
-1
100
AcDbLine
10
5.2625
20
9.85
11
4.8625
21
9.85
0
ARC
5
14A
100
AcDbEntity
8
WATERJET
6
ByLayer
62
256
370
-1
100
AcDbCircle
10
4.8625
20
9.7875
40
0.0625
100
AcDbArc
50
90
51
180
0
LINE
5
14B
100
AcDbEntity
8
WATERJET
6
ByLayer
62
256
370
-1
100
AcDbLine
10
4.8625
20
10.25
11
5.2625
21
10.25
0
ARC
5
14C
100
AcDbEntity
8
WATERJET
6
ByLayer
62
256
370
-1
100
AcDbCircle
10
4.8625
20
10.3125
40
0.0625
100
AcDbArc
50
180
51
270
0
LINE
5
14D
100
AcDbEntity
8
WATERJET
6
ByLayer
62
256
370
-1
100
AcDbLine
10
4.8
20
11.2875
11
4.8
21
10.3125
0
LINE
5
14E
100
AcDbEntity
8
WATERJET
6
ByLayer
62
256
370
-1
100
AcDbLine
10
5.2625
20
11.35
11
4.8625
21
11.35
0
ARC
5
14F
100
AcDbEntity
8
WATERJET
6
ByLayer
62
256
370
-1
100
AcDbCircle
10
4.8625
20
11.2875
40
0.0625
100
AcDbArc
50
90
51
180
0
LINE
5
150
100
AcDbEntity
8
WATERJET
6
ByLayer
62
256
370
-1
100
AcDbLine
10
4.8625
20
11.75
11
5.2625
21
11.75
0
ARC
5
151
100
AcDbEntity
8
WATERJET
6
ByLayer
62
256
370
-1
100
AcDbCircle
10
4.8625
20
11.8125
40
0.0625
100
AcDbArc
50
180
51
270
0
LINE
5
152
100
AcDbEntity
8
WATERJET
6
ByLayer
62
256
370
-1
100
AcDbLine
10
8.8375
20
9.85
11
9.2375
21
9.85
0
ARC
5
153
100
AcDbEntity
8
WATERJET
6
ByLayer
62
256
370
-1
100
AcDbCircle
10
9.2375
20
9.7875
40
0.0625
100
AcDbArc
50
360
51
90
0
LINE
5
154
100
AcDbEntity
8
WATERJET
6
ByLayer
62
256
370
-1
100
AcDbLine
10
9.2375
20
10.25
11
8.8375
21
10.25
0
ARC
5
155
100
AcDbEntity
8
WATERJET
6
ByLayer
62
256
370
-1
100
AcDbCircle
10
9.2375
20
10.3125
40
0.0625
100
AcDbArc
50
270
51
360
0
LINE
5
156
100
AcDbEntity
8
WATERJET
6
ByLayer
62
256
370
-1
100
AcDbLine
10
9.3
20
10.3125
11
9.3
21
11.2875
0
LINE
5
157
100
AcDbEntity
8
WATERJET
6
ByLayer
62
256
370
-1
100
AcDbLine
10
8.8375
20
11.35
11
9.2375
21
11.35
0
ARC
5
158
100
AcDbEntity
8
WATERJET
6
ByLayer
62
256
370
-1
100
AcDbCircle
10
9.2375
20
11.2875
40
0.0625
100
AcDbArc
50
360
51
90
0
LINE
5
159
100
AcDbEntity
8
WATERJET
6
ByLayer
62
256
370
-1
100
AcDbLine
10
9.2375
20
11.75
11
8.8375
21
11.75
0
ARC
5
15A
100
AcDbEntity
8
WATERJET
6
ByLayer
62
256
370
-1
100
AcDbCircle
10
9.2375
20
11.8125
40
0.0625
100
AcDbArc
50
270
51
360
0
CIRCLE
5
15B
100
AcDbEntity
8
WATERJET
6
ByLayer
62
256
370
-1
100
AcDbCircle
10
7.05
20
10.05
40
0.1615
0
CIRCLE
5
15C
100
AcDbEntity
8
WATERJET
6
ByLayer
62
256
370
-1
100
AcDbCircle
10
7.05
20
11.55
40
0.1615
0
CIRCLE
5
15D
100
AcDbEntity
8
WATERJET
6
ByLayer
62
256
370
-1
100
AcDbCircle
10
6.05
20
10.05
40
0.0795
0
CIRCLE
5
15E
100
AcDbEntity
8
WATERJET
6
ByLayer
62
256
370
-1
100
AcDbCircle
10
6.05
20
11.55
40
0.0795
0
CIRCLE
5
15F
100
AcDbEntity
8
WATERJET
6
ByLayer
62
256
370
-1
100
AcDbCircle
10
8.05
20
10.05
40
0.0795
0
CIRCLE
5
160
100
AcDbEntity
8
WATERJET
6
ByLayer
62
256
370
-1
100
AcDbCircle
10
8.05
20
11.55
40
0.0795
0
CIRCLE
5
161
100
AcDbEntity
8
WATERJET
6
ByLayer
62
256
370
-1
100
AcDbCircle
10
6.05
20
12.8
40
0.0795
0
CIRCLE
5
162
100
AcDbEntity
8
WATERJET
6
ByLayer
62
256
370
-1
100
AcDbCircle
10
8.05
20
12.8
40
0.0795
0
CIRCLE
5
163
100
AcDbEntity
8
WATERJET
6
ByLayer
62
256
370
-1
100
AcDbCircle
10
8.05
20
14.95
40
0.0795
0
CIRCLE
5
164
100
AcDbEntity
8
WATERJET
6
ByLayer
62
256
370
-1
100
AcDbCircle
10
6.05
20
14.95
40
0.0795
0
LINE
5
165
100
AcDbEntity
8
WATERJET
6
ByLayer
62
256
370
-1
100
AcDbLine
10
4.8
20
9.7875
11
4.8
21
9.3625
0
LINE
5
166
100
AcDbEntity
8
WATERJET
6
ByLayer
62
256
370
-1
100
AcDbLine
10
7.05
20
9.3
11
4.8625
21
9.3
0
ARC
5
167
100
AcDbEntity
8
WATERJET
6
ByLayer
62
256
370
-1
100
AcDbCircle
10
4.8625
20
9.3625
40
0.0625
100
AcDbArc
50
180
51
270
0
LINE
5
168
100
AcDbEntity
8
WATERJET
6
ByLayer
62
256
370
-1
100
AcDbLine
10
7.05
20
9.3
11
9.2375
21
9.3
0
LINE
5
169
100
AcDbEntity
8
WATERJET
6
ByLayer
62
256
370
-1
100
AcDbLine
10
9.3
20
9.3625
11
9.3
21
9.7875
0
ARC
5
16A
100
AcDbEntity
8
WATERJET
6
ByLayer
62
256
370
-1
100
AcDbCircle
10
9.2375
20
9.3625
40
0.0625
100
AcDbArc
50
270
51
360
0
ARC
5
16B
100
AcDbEntity
8
WATERJET
6
ByLayer
62
256
370
-1
100
AcDbCircle
10
5.8625
20
15.3875
40
0.0625
100
AcDbArc
50
90
51
180
0
LINE
5
16C
100
AcDbEntity
8
WATERJET
6
ByLayer
62
256
370
-1
100
AcDbLine
10
5.8625
20
15.45
11
8.2375
21
15.45
0
ARC
5
16D
100
AcDbEntity
8
WATERJET
6
ByLayer
62
256
370
-1
100
AcDbCircle
10
8.2375
20
15.3875
40
0.0625
100
AcDbArc
50
360
51
90
0
CIRCLE
5
16E
100
AcDbEntity
8
WATERJET
6
ByLayer
62
256
370
-1
100
AcDbCircle
10
7.05
20
14.625
40
0.1285
0
CIRCLE
5
16F
100
AcDbEntity
8
WATERJET
6
ByLayer
62
256
370
-1
100
AcDbCircle
10
7.05
20
13.125
40
0.1285
0
ARC
5
170
100
AcDbEntity
8
WATERJET
6
ByLayer
62
256
370
-1
100
AcDbCircle
10
4.9875
20
13.6125
40
0.1875
100
AcDbArc
50
90
51
180
0
ARC
5
171
100
AcDbEntity
8
WATERJET
6
ByLayer
62
256
370
-1
100
AcDbCircle
10
9.1125
20
13.6125
40
0.1875
100
AcDbArc
50
360
51
90
0
LINE
5
172
100
AcDbEntity
8
WATERJET
6
ByLayer
62
256
370
-1
100
AcDbLine
10
4.8
20
13.6125
11
4.8
21
11.8125
0
LINE
5
173
100
AcDbEntity
8
WATERJET
6
ByLayer
62
256
370
-1
100
AcDbLine
10
9.3
20
11.8125
11
9.3
21
13.6125
0
LINE
5
174
100
AcDbEntity
8
WATERJET
6
ByLayer
62
256
370
-1
100
AcDbLine
10
5.7375
20
13.8
11
4.9875
21
13.8
0
LINE
5
175
100
AcDbEntity
8
WATERJET
6
ByLayer
62
256
370
-1
100
AcDbLine
10
5.8
20
13.8625
11
5.8
21
15.3875
0
ARC
5
176
100
AcDbEntity
8
WATERJET
6
ByLayer
62
256
370
-1
100
AcDbCircle
10
5.7375
20
13.8625
40
0.0625
100
AcDbArc
50
270
51
360
0
LINE
5
177
100
AcDbEntity
8
WATERJET
6
ByLayer
62
256
370
-1
100
AcDbLine
10
9.1125
20
13.8
11
8.3625
21
13.8
0
LINE
5
178
100
AcDbEntity
8
WATERJET
6
ByLayer
62
256
370
-1
100
AcDbLine
10
8.3
20
13.8625
11
8.3
21
15.3875
0
ARC
5
179
100
AcDbEntity
8
WATERJET
6
ByLayer
62
256
370
-1
100
AcDbCircle
10
8.3625
20
13.8625
40
0.0625
100
AcDbArc
50
180
51
270
0
CIRCLE
5
17A
100
AcDbEntity
8
WATERJET
6
ByLayer
62
256
370
-1
100
AcDbCircle
10
8.9
20
13.05
40
0.1285
0
CIRCLE
5
17B
100
AcDbEntity
8
WATERJET
6
ByLayer
62
256
370
-1
100
AcDbCircle
10
5.2
20
13.05
40
0.1285
0
CIRCLE
5
17C
100
AcDbEntity
8
WATERJET
6
ByLayer
62
256
370
-1
100
AcDbCircle
10
6.3
20
13.44
40
0.1285
0
CIRCLE
5
17D
100
AcDbEntity
8
WATERJET
6
ByLayer
62
256
370
-1
100
AcDbCircle
10
7.8
20
13.44
40
0.1285
0
CIRCLE
5
17E
100
AcDbEntity
8
WATERJET
6
ByLayer
62
256
370
-1
100
AcDbCircle
10
10.35
20
2.25
40
0.098
0
CIRCLE
5
17F
100
AcDbEntity
8
WATERJET
6
ByLayer
62
256
370
-1
100
AcDbCircle
10
11.85
20
2.25
40
0.098
0
CIRCLE
5
180
100
AcDbEntity
8
WATERJET
6
ByLayer
62
256
370
-1
100
AcDbCircle
10
11.85
20
0.25
40
0.098
0
CIRCLE
5
181
100
AcDbEntity
8
WATERJET
6
ByLayer
62
256
370
-1
100
AcDbCircle
10
10.35
20
0.25
40
0.098
0
CIRCLE
5
182
100
AcDbEntity
8
WATERJET
6
ByLayer
62
256
370
-1
100
AcDbCircle
10
13.1
20
0.25
40
0.098
0
CIRCLE
5
183
100
AcDbEntity
8
WATERJET
6
ByLayer
62
256
370
-1
100
AcDbCircle
10
13.1
20
2.25
40
0.098
0
CIRCLE
5
184
100
AcDbEntity
8
WATERJET
6
ByLayer
62
256
370
-1
100
AcDbCircle
10
15.25
20
2.25
40
0.098
0
CIRCLE
5
185
100
AcDbEntity
8
WATERJET
6
ByLayer
62
256
370
-1
100
AcDbCircle
10
15.25
20
0.25
40
0.098
0
CIRCLE
5
186
100
AcDbEntity
8
WATERJET
6
ByLayer
62
256
370
-1
100
AcDbCircle
10
11.85
20
1.25
40
0.1615
0
CIRCLE
5
187
100
AcDbEntity
8
WATERJET
6
ByLayer
62
256
370
-1
100
AcDbCircle
10
10.35
20
1.25
40
0.1615
0
LINE
5
188
100
AcDbEntity
8
WATERJET
6
ByLayer
62
256
370
-1
100
AcDbLine
10
9.6625
20
2.5
11
12.6
21
2.5
0
ARC
5
189
100
AcDbEntity
8
WATERJET
6
ByLayer
62
256
370
-1
100
AcDbCircle
10
9.6625
20
2.4375
40
0.0625
100
AcDbArc
50
90
51
180
0
LINE
5
18A
100
AcDbEntity
8
WATERJET
6
ByLayer
62
256
370
-1
100
AcDbLine
10
9.6
20
0.0625
11
9.6
21
2.4375
0
LINE
5
18B
100
AcDbEntity
8
WATERJET
6
ByLayer
62
256
370
-1
100
AcDbLine
10
12.6
20
-2.22044604925e-16
11
9.6625
21
-2.22044604925e-16
0
ARC
5
18C
100
AcDbEntity
8
WATERJET
6
ByLayer
62
256
370
-1
100
AcDbCircle
10
9.6625
20
0.0625
40
0.0625
100
AcDbArc
50
180
51
270
0
LINE
5
18D
100
AcDbEntity
8
WATERJET
6
ByLayer
62
256
370
-1
100
AcDbLine
10
12.6
20
2.5
11
15.6875
21
2.5
0
ARC
5
18E
100
AcDbEntity
8
WATERJET
6
ByLayer
62
256
370
-1
100
AcDbCircle
10
15.6875
20
2.4375
40
0.0625
100
AcDbArc
50
0
51
90
0
LINE
5
18F
100
AcDbEntity
8
WATERJET
6
ByLayer
62
256
370
-1
100
AcDbLine
10
15.75
20
2.4375
11
15.75
21
0.0625
0
LINE
5
190
100
AcDbEntity
8
WATERJET
6
ByLayer
62
256
370
-1
100
AcDbLine
10
12.6
20
-2.22044604925e-16
11
15.6875
21
-2.22044604925e-16
0
ARC
5
191
100
AcDbEntity
8
WATERJET
6
ByLayer
62
256
370
-1
100
AcDbCircle
10
15.6875
20
0.0625
40
0.0625
100
AcDbArc
50
270
51
0
0
CIRCLE
5
192
100
AcDbEntity
8
WATERJET
6
ByLayer
62
256
370
-1
100
AcDbCircle
10
13.425
20
1.25
40
0.1285
0
CIRCLE
5
193
100
AcDbEntity
8
WATERJET
6
ByLayer
62
256
370
-1
100
AcDbCircle
10
14.925
20
1.25
40
0.1285
0
CIRCLE
5
194
100
AcDbEntity
8
WATERJET
6
ByLayer
62
256
370
-1
100
AcDbCircle
10
10.35
20
5.05
40
0.098
0
CIRCLE
5
195
100
AcDbEntity
8
WATERJET
6
ByLayer
62
256
370
-1
100
AcDbCircle
10
11.85
20
5.05
40
0.098
0
CIRCLE
5
196
100
AcDbEntity
8
WATERJET
6
ByLayer
62
256
370
-1
100
AcDbCircle
10
11.85
20
3.05
40
0.098
0
CIRCLE
5
197
100
AcDbEntity
8
WATERJET
6
ByLayer
62
256
370
-1
100
AcDbCircle
10
10.35
20
3.05
40
0.098
0
CIRCLE
5
198
100
AcDbEntity
8
WATERJET
6
ByLayer
62
256
370
-1
100
AcDbCircle
10
13.1
20
3.05
40
0.098
0
CIRCLE
5
199
100
AcDbEntity
8
WATERJET
6
ByLayer
62
256
370
-1
100
AcDbCircle
10
13.1
20
5.05
40
0.098
0
CIRCLE
5
19A
100
AcDbEntity
8
WATERJET
6
ByLayer
62
256
370
-1
100
AcDbCircle
10
15.25
20
5.05
40
0.098
0
CIRCLE
5
19B
100
AcDbEntity
8
WATERJET
6
ByLayer
62
256
370
-1
100
AcDbCircle
10
15.25
20
3.05
40
0.098
0
CIRCLE
5
19C
100
AcDbEntity
8
WATERJET
6
ByLayer
62
256
370
-1
100
AcDbCircle
10
11.85
20
4.05
40
0.1615
0
CIRCLE
5
19D
100
AcDbEntity
8
WATERJET
6
ByLayer
62
256
370
-1
100
AcDbCircle
10
10.35
20
4.05
40
0.1615
0
LINE
5
19E
100
AcDbEntity
8
WATERJET
6
ByLayer
62
256
370
-1
100
AcDbLine
10
9.6625
20
5.3
11
12.6
21
5.3
0
ARC
5
19F
100
AcDbEntity
8
WATERJET
6
ByLayer
62
256
370
-1
100
AcDbCircle
10
9.6625
20
5.2375
40
0.0625
100
AcDbArc
50
90
51
180
0
LINE
5
1A0
100
AcDbEntity
8
WATERJET
6
ByLayer
62
256
370
-1
100
AcDbLine
10
9.6
20
2.8625
11
9.6
21
5.2375
0
LINE
5
1A1
100
AcDbEntity
8
WATERJET
6
ByLayer
62
256
370
-1
100
AcDbLine
10
12.6
20
2.8
11
9.6625
21
2.8
0
ARC
5
1A2
100
AcDbEntity
8
WATERJET
6
ByLayer
62
256
370
-1
100
AcDbCircle
10
9.6625
20
2.8625
40
0.0625
100
AcDbArc
50
180
51
270
0
LINE
5
1A3
100
AcDbEntity
8
WATERJET
6
ByLayer
62
256
370
-1
100
AcDbLine
10
12.6
20
5.3
11
15.6875
21
5.3
0
ARC
5
1A4
100
AcDbEntity
8
WATERJET
6
ByLayer
62
256
370
-1
100
AcDbCircle
10
15.6875
20
5.2375
40
0.0625
100
AcDbArc
50
0
51
90
0
LINE
5
1A5
100
AcDbEntity
8
WATERJET
6
ByLayer
62
256
370
-1
100
AcDbLine
10
15.75
20
5.2375
11
15.75
21
2.8625
0
LINE
5
1A6
100
AcDbEntity
8
WATERJET
6
ByLayer
62
256
370
-1
100
AcDbLine
10
12.6
20
2.8
11
15.6875
21
2.8
0
ARC
5
1A7
100
AcDbEntity
8
WATERJET
6
ByLayer
62
256
370
-1
100
AcDbCircle
10
15.6875
20
2.8625
40
0.0625
100
AcDbArc
50
270
51
0
0
CIRCLE
5
1A8
100
AcDbEntity
8
WATERJET
6
ByLayer
62
256
370
-1
100
AcDbCircle
10
13.425
20
4.05
40
0.1285
0
CIRCLE
5
1A9
100
AcDbEntity
8
WATERJET
6
ByLayer
62
256
370
-1
100
AcDbCircle
10
14.925
20
4.05
40
0.1285
0
CIRCLE
5
1AA
100
AcDbEntity
8
WATERJET
6
ByLayer
62
256
370
-1
100
AcDbCircle
10
10.35
20
7.85
40
0.098
0
CIRCLE
5
1AB
100
AcDbEntity
8
WATERJET
6
ByLayer
62
256
370
-1
100
AcDbCircle
10
11.85
20
7.85
40
0.098
0
CIRCLE
5
1AC
100
AcDbEntity
8
WATERJET
6
ByLayer
62
256
370
-1
100
AcDbCircle
10
11.85
20
5.85
40
0.098
0
CIRCLE
5
1AD
100
AcDbEntity
8
WATERJET
6
ByLayer
62
256
370
-1
100
AcDbCircle
10
10.35
20
5.85
40
0.098
0
CIRCLE
5
1AE
100
AcDbEntity
8
WATERJET
6
ByLayer
62
256
370
-1
100
AcDbCircle
10
13.1
20
5.85
40
0.098
0
CIRCLE
5
1AF
100
AcDbEntity
8
WATERJET
6
ByLayer
62
256
370
-1
100
AcDbCircle
10
13.1
20
7.85
40
0.098
0
CIRCLE
5
1B0
100
AcDbEntity
8
WATERJET
6
ByLayer
62
256
370
-1
100
AcDbCircle
10
15.25
20
7.85
40
0.098
0
CIRCLE
5
1B1
100
AcDbEntity
8
WATERJET
6
ByLayer
62
256
370
-1
100
AcDbCircle
10
15.25
20
5.85
40
0.098
0
CIRCLE
5
1B2
100
AcDbEntity
8
WATERJET
6
ByLayer
62
256
370
-1
100
AcDbCircle
10
11.85
20
6.85
40
0.1615
0
CIRCLE
5
1B3
100
AcDbEntity
8
WATERJET
6
ByLayer
62
256
370
-1
100
AcDbCircle
10
10.35
20
6.85
40
0.1615
0
LINE
5
1B4
100
AcDbEntity
8
WATERJET
6
ByLayer
62
256
370
-1
100
AcDbLine
10
9.6625
20
8.1
11
12.6
21
8.1
0
ARC
5
1B5
100
AcDbEntity
8
WATERJET
6
ByLayer
62
256
370
-1
100
AcDbCircle
10
9.6625
20
8.0375
40
0.0625
100
AcDbArc
50
90
51
180
0
LINE
5
1B6
100
AcDbEntity
8
WATERJET
6
ByLayer
62
256
370
-1
100
AcDbLine
10
9.6
20
5.6625
11
9.6
21
8.0375
0
LINE
5
1B7
100
AcDbEntity
8
WATERJET
6
ByLayer
62
256
370
-1
100
AcDbLine
10
12.6
20
5.6
11
9.6625
21
5.6
0
ARC
5
1B8
100
AcDbEntity
8
WATERJET
6
ByLayer
62
256
370
-1
100
AcDbCircle
10
9.6625
20
5.6625
40
0.0625
100
AcDbArc
50
180
51
270
0
LINE
5
1B9
100
AcDbEntity
8
WATERJET
6
ByLayer
62
256
370
-1
100
AcDbLine
10
12.6
20
8.1
11
15.6875
21
8.1
0
ARC
5
1BA
100
AcDbEntity
8
WATERJET
6
ByLayer
62
256
370
-1
100
AcDbCircle
10
15.6875
20
8.0375
40
0.0625
100
AcDbArc
50
0
51
90
0
LINE
5
1BB
100
AcDbEntity
8
WATERJET
6
ByLayer
62
256
370
-1
100
AcDbLine
10
15.75
20
8.0375
11
15.75
21
5.6625
0
LINE
5
1BC
100
AcDbEntity
8
WATERJET
6
ByLayer
62
256
370
-1
100
AcDbLine
10
12.6
20
5.6
11
15.6875
21
5.6
0
ARC
5
1BD
100
AcDbEntity
8
WATERJET
6
ByLayer
62
256
370
-1
100
AcDbCircle
10
15.6875
20
5.6625
40
0.0625
100
AcDbArc
50
270
51
0
0
CIRCLE
5
1BE
100
AcDbEntity
8
WATERJET
6
ByLayer
62
256
370
-1
100
AcDbCircle
10
13.425
20
6.85
40
0.1285
0
CIRCLE
5
1BF
100
AcDbEntity
8
WATERJET
6
ByLayer
62
256
370
-1
100
AcDbCircle
10
14.925
20
6.85
40
0.1285
0
CIRCLE
5
1C0
100
AcDbEntity
8
WATERJET
6
ByLayer
62
256
370
-1
100
AcDbCircle
10
10.35
20
10.65
40
0.098
0
CIRCLE
5
1C1
100
AcDbEntity
8
WATERJET
6
ByLayer
62
256
370
-1
100
AcDbCircle
10
11.85
20
10.65
40
0.098
0
CIRCLE
5
1C2
100
AcDbEntity
8
WATERJET
6
ByLayer
62
256
370
-1
100
AcDbCircle
10
11.85
20
8.65
40
0.098
0
CIRCLE
5
1C3
100
AcDbEntity
8
WATERJET
6
ByLayer
62
256
370
-1
100
AcDbCircle
10
10.35
20
8.65
40
0.098
0
CIRCLE
5
1C4
100
AcDbEntity
8
WATERJET
6
ByLayer
62
256
370
-1
100
AcDbCircle
10
13.1
20
8.65
40
0.098
0
CIRCLE
5
1C5
100
AcDbEntity
8
WATERJET
6
ByLayer
62
256
370
-1
100
AcDbCircle
10
13.1
20
10.65
40
0.098
0
CIRCLE
5
1C6
100
AcDbEntity
8
WATERJET
6
ByLayer
62
256
370
-1
100
AcDbCircle
10
15.25
20
10.65
40
0.098
0
CIRCLE
5
1C7
100
AcDbEntity
8
WATERJET
6
ByLayer
62
256
370
-1
100
AcDbCircle
10
15.25
20
8.65
40
0.098
0
CIRCLE
5
1C8
100
AcDbEntity
8
WATERJET
6
ByLayer
62
256
370
-1
100
AcDbCircle
10
11.85
20
9.65
40
0.1615
0
CIRCLE
5
1C9
100
AcDbEntity
8
WATERJET
6
ByLayer
62
256
370
-1
100
AcDbCircle
10
10.35
20
9.65
40
0.1615
0
LINE
5
1CA
100
AcDbEntity
8
WATERJET
6
ByLayer
62
256
370
-1
100
AcDbLine
10
9.6625
20
10.9
11
12.6
21
10.9
0
ARC
5
1CB
100
AcDbEntity
8
WATERJET
6
ByLayer
62
256
370
-1
100
AcDbCircle
10
9.6625
20
10.8375
40
0.0625
100
AcDbArc
50
90
51
180
0
LINE
5
1CC
100
AcDbEntity
8
WATERJET
6
ByLayer
62
256
370
-1
100
AcDbLine
10
9.6
20
8.4625
11
9.6
21
10.8375
0
LINE
5
1CD
100
AcDbEntity
8
WATERJET
6
ByLayer
62
256
370
-1
100
AcDbLine
10
12.6
20
8.4
11
9.6625
21
8.4
0
ARC
5
1CE
100
AcDbEntity
8
WATERJET
6
ByLayer
62
256
370
-1
100
AcDbCircle
10
9.6625
20
8.4625
40
0.0625
100
AcDbArc
50
180
51
270
0
LINE
5
1CF
100
AcDbEntity
8
WATERJET
6
ByLayer
62
256
370
-1
100
AcDbLine
10
12.6
20
10.9
11
15.6875
21
10.9
0
ARC
5
1D0
100
AcDbEntity
8
WATERJET
6
ByLayer
62
256
370
-1
100
AcDbCircle
10
15.6875
20
10.8375
40
0.0625
100
AcDbArc
50
0
51
90
0
LINE
5
1D1
100
AcDbEntity
8
WATERJET
6
ByLayer
62
256
370
-1
100
AcDbLine
10
15.75
20
10.8375
11
15.75
21
8.4625
0
LINE
5
1D2
100
AcDbEntity
8
WATERJET
6
ByLayer
62
256
370
-1
100
AcDbLine
10
12.6
20
8.4
11
15.6875
21
8.4
0
ARC
5
1D3
100
AcDbEntity
8
WATERJET
6
ByLayer
62
256
370
-1
100
AcDbCircle
10
15.6875
20
8.4625
40
0.0625
100
AcDbArc
50
270
51
0
0
CIRCLE
5
1D4
100
AcDbEntity
8
WATERJET
6
ByLayer
62
256
370
-1
100
AcDbCircle
10
13.425
20
9.65
40
0.1285
0
CIRCLE
5
1D5
100
AcDbEntity
8
WATERJET
6
ByLayer
62
256
370
-1
100
AcDbCircle
10
14.925
20
9.65
40
0.1285
0
ARC
5
1D6
100
AcDbEntity
8
WATERJET
6
ByLayer
62
256
370
-1
100
AcDbCircle
10
9.6525
20
11.2925
40
0.0625
100
AcDbArc
50
180
51
270
0
LINE
5
1D7
100
AcDbEntity
8
WATERJET
6
ByLayer
62
256
370
-1
100
AcDbLine
10
9.59
20
11.2925
11
9.59
21
14.1675
0
ARC
5
1D8
100
AcDbEntity
8
WATERJET
6
ByLayer
62
256
370
-1
100
AcDbCircle
10
9.6525
20
14.1675
40
0.0625
100
AcDbArc
50
90
51
180
0
LINE
5
1D9
100
AcDbEntity
8
WATERJET
6
ByLayer
62
256
370
-1
100
AcDbLine
10
15.5275
20
14.23
11
9.6525
21
14.23
0
ARC
5
1DA
100
AcDbEntity
8
WATERJET
6
ByLayer
62
256
370
-1
100
AcDbCircle
10
15.5275
20
14.1675
40
0.0625
100
AcDbArc
50
360
51
90
0
LINE
5
1DB
100
AcDbEntity
8
WATERJET
6
ByLayer
62
256
370
-1
100
AcDbLine
10
15.59
20
11.2925
11
15.59
21
14.1675
0
LINE
5
1DC
100
AcDbEntity
8
WATERJET
6
ByLayer
62
256
370
-1
100
AcDbLine
10
9.6525
20
11.23
11
15.5275
21
11.23
0
ARC
5
1DD
100
AcDbEntity
8
WATERJET
6
ByLayer
62
256
370
-1
100
AcDbCircle
10
15.5275
20
11.2925
40
0.0625
100
AcDbArc
50
270
51
360
0
CIRCLE
5
1DE
100
AcDbEntity
8
WATERJET
6
ByLayer
62
256
370
-1
100
AcDbCircle
10
11.42
20
13.48
40
0.0795
0
CIRCLE
5
1DF
100
AcDbEntity
8
WATERJET
6
ByLayer
62
256
370
-1
100
AcDbCircle
10
14.61
20
13.48
40
0.0795
0
CIRCLE
5
1E0
100
AcDbEntity
8
WATERJET
6
ByLayer
62
256
370
-1
100
AcDbCircle
10
14.61
20
11.98
40
0.0795
0
CIRCLE
5
1E1
100
AcDbEntity
8
WATERJET
6
ByLayer
62
256
370
-1
100
AcDbCircle
10
11.42
20
11.98
40
0.0795
0
CIRCLE
5
1E2
100
AcDbEntity
8
WATERJET
6
ByLayer
62
256
370
-1
100
AcDbCircle
10
9.955
20
11.98
40
0.1615
0
CIRCLE
5
1E3
100
AcDbEntity
8
WATERJET
6
ByLayer
62
256
370
-1
100
AcDbCircle
10
9.955
20
13.48
40
0.1615
0
CIRCLE
5
1E4
100
AcDbEntity
8
WATERJET
6
ByLayer
62
256
370
-1
100
AcDbCircle
10
15.225
20
11.98
40
0.1615
0
CIRCLE
5
1E5
100
AcDbEntity
8
WATERJET
6
ByLayer
62
256
370
-1
100
AcDbCircle
10
15.225
20
13.48
40
0.1615
0
ENDSEC
0
SECTION
2
OBJECTS
0
DICTIONARY
5
C
330
0
100
AcDbDictionary
281
1
3
ACAD_GROUP
350
D
0
DICTIONARY
5
D
330
C
100
AcDbDictionary
281
1
0
ENDSEC
0
EOF
