999
dxfrw 0.5.11
0
SECTION
2
HEADER
9
$ACADVER
1
AC1021
9
$HANDSEED
5
20000
9
$DWGCODEPAGE
3
ANSI_1252
9
$INSBASE
10
0
20
0
30
0
9
$EXTMIN
10
0.504
20
0.39
30
0
9
$EXTMAX
10
14
20
3.402
30
0
9
$LIMMIN
10
0
20
0
9
$LIMMAX
10
420
20
297
9
$ORTHOMODE
70
0
9
$LTSCALE
40
1
9
$TEXTSTYLE
7
STANDARD
9
$CLAYER
8
0
9
$DIMASZ
40
0.1
9
$DIMLFAC
40
1
9
$DIMSCALE
40
1
9
$DIMEXO
40
0.025
9
$DIMEXE
40
0.05
9
$DIMTXT
40
0.1
9
$DIMTSZ
40
0
9
$DIMAUNIT
70
0
9
$DIMADEC
70
2
9
$DIMLUNIT
70
2
9
$DIMSTYLE
2
STANDARD
9
$DIMGAP
40
0.025
9
$DIMTIH
70
0
9
$LUNITS
70
2
9
$LUPREC
70
4
9
$AUNITS
70
0
9
$AUPREC
70
2
9
$SPLINESEGS
70
8
9
$GRIDMODE
70
1
9
$SNAPSTYLE
70
0
9
$GRIDUNIT
10
0
20
0
9
$PINSBASE
10
0
20
0
30
0
9
$PLIMMIN
10
0
20
0
9
$PLIMMAX
10
3.0788102e-08
20
4.354322e-08
9
$INSUNITS
70
1
9
$PSVPSCALE
40
1
0
ENDSEC
0
SECTION
2
CLASSES
0
ENDSEC
0
SECTION
2
TABLES
0
TABLE
2
VPORT
5
8
330
0
100
AcDbSymbolTable
70
1
0
VPORT
5
31
330
2
100
AcDbSymbolTableRecord
100
AcDbViewportTableRecord
2
*ACTIVE
70
0
10
0
20
0
11
1
21
1
12
4.65972747006
22
1.98241244374
13
0
23
0
14
10
24
10
15
10
25
10
16
0
26
0
36
1
17
0
27
0
37
0
40
5.52394641795
41
2.13409961686
42
50
43
0
44
0
50
0
51
0
71
0
72
100
73
1
74
3
75
0
76
1
77
0
78
0
281
0
65
1
110
0
120
0
130
0
111
1
121
0
131
0
112
0
122
1
132
0
79
0
146
0
348
10020
60
7
61
5
292
1
282
1
141
0
142
0
63
250
421
3358443
0
ENDTAB
0
TABLE
2
LTYPE
5
5
330
0
100
AcDbSymbolTable
70
4
0
LTYPE
5
14
330
5
100
AcDbSymbolTableRecord
100
AcDbLinetypeTableRecord
2
ByBlock
70
0
3

72
65
73
0
40
0
0
LTYPE
5
15
330
5
100
AcDbSymbolTableRecord
100
AcDbLinetypeTableRecord
2
ByLayer
70
0
3

72
65
73
0
40
0
0
LTYPE
5
16
330
5
100
AcDbSymbolTableRecord
100
AcDbLinetypeTableRecord
2
Continuous
70
0
3
Solid line
72
65
73
0
40
0
0
LTYPE
5
32
330
5
100
AcDbSymbolTableRecord
100
AcDbLinetypeTableRecord
2
DOT
70
0
3
Dot . . . . . . . . . . . . . . . . . . . . . .
72
65
73
2
40
6.35
49
0
74
0
49
-6.35
74
0
0
LTYPE
5
33
330
5
100
AcDbSymbolTableRecord
100
AcDbLinetypeTableRecord
2
DOT2
70
0
3
Dot (.5x) .....................................
72
65
73
2
40
3.175
49
0
74
0
49
-3.175
74
0
0
LTYPE
5
34
330
5
100
AcDbSymbolTableRecord
100
AcDbLinetypeTableRecord
2
DOTX2
70
0
3
Dot (2x) .  .  .  .  .  .  .  .  .  .  .  .  .
72
65
73
2
40
12.7
49
0
74
0
49
-12.7
74
0
0
LTYPE
5
35
330
5
100
AcDbSymbolTableRecord
100
AcDbLinetypeTableRecord
2
DASHED
70
0
3
Dot . . . . . . . . . . . . . . . . . . . . . .
72
65
73
2
40
19.05
49
12.7
74
0
49
-6.35
74
0
0
LTYPE
5
36
330
5
100
AcDbSymbolTableRecord
100
AcDbLinetypeTableRecord
2
DASHED2
70
0
3
Dashed (.5x) _ _ _ _ _ _ _ _ _ _ _ _ _ _ _ _ _
72
65
73
2
40
9.525
49
6.35
74
0
49
-3.175
74
0
0
LTYPE
5
37
330
5
100
AcDbSymbolTableRecord
100
AcDbLinetypeTableRecord
2
DASHEDX2
70
0
3
Dashed (2x) ____  ____  ____  ____  ____  ___
72
65
73
2
40
38.1
49
25.4
74
0
49
-12.7
74
0
0
LTYPE
5
38
330
5
100
AcDbSymbolTableRecord
100
AcDbLinetypeTableRecord
2
DASHDOT
70
0
3
Dash dot __ . __ . __ . __ . __ . __ . __ . __
72
65
73
4
40
25.4
49
12.7
74
0
49
-6.35
74
0
49
0
74
0
49
-6.35
74
0
0
LTYPE
5
39
330
5
100
AcDbSymbolTableRecord
100
AcDbLinetypeTableRecord
2
DASHDOT2
70
0
3
Dash dot (.5x) _._._._._._._._._._._._._._._.
72
65
73
4
40
12.7
49
6.35
74
0
49
-3.175
74
0
49
0
74
0
49
-3.175
74
0
0
LTYPE
5
3A
330
5
100
AcDbSymbolTableRecord
100
AcDbLinetypeTableRecord
2
DASHDOTX2
70
0
3
Dash dot (2x) ____  .  ____  .  ____  .  ___
72
65
73
4
40
50.8
49
25.4
74
0
49
-12.7
74
0
49
0
74
0
49
-12.7
74
0
0
LTYPE
5
3B
330
5
100
AcDbSymbolTableRecord
100
AcDbLinetypeTableRecord
2
DIVIDE
70
0
3
Divide ____ . . ____ . . ____ . . ____ . . ____
72
65
73
6
40
31.75
49
12.7
74
0
49
-6.35
74
0
49
0
74
0
49
-6.35
74
0
49
0
74
0
49
-6.35
74
0
0
LTYPE
5
3C
330
5
100
AcDbSymbolTableRecord
100
AcDbLinetypeTableRecord
2
DIVIDE2
70
0
3
Divide (.5x) __..__..__..__..__..__..__..__.._
72
65
73
6
40
15.875
49
6.35
74
0
49
-3.175
74
0
49
0
74
0
49
-3.175
74
0
49
0
74
0
49
-3.175
74
0
0
LTYPE
5
3D
330
5
100
AcDbSymbolTableRecord
100
AcDbLinetypeTableRecord
2
DIVIDEX2
70
0
3
Divide (2x) ________  .  .  ________  .  .  _
72
65
73
6
40
63.5
49
25.4
74
0
49
-12.7
74
0
49
0
74
0
49
-12.7
74
0
49
0
74
0
49
-12.7
74
0
0
LTYPE
5
3E
330
5
100
AcDbSymbolTableRecord
100
AcDbLinetypeTableRecord
2
BORDER
70
0
3
Border __ __ . __ __ . __ __ . __ __ . __ __ .
72
65
73
6
40
44.45
49
12.7
74
0
49
-6.35
74
0
49
12.7
74
0
49
-6.35
74
0
49
0
74
0
49
-6.35
74
0
0
LTYPE
5
3F
330
5
100
AcDbSymbolTableRecord
100
AcDbLinetypeTableRecord
2
BORDER2
70
0
3
Border (.5x) __.__.__.__.__.__.__.__.__.__.__.
72
65
73
6
40
22.225
49
6.35
74
0
49
-3.175
74
0
49
6.35
74
0
49
-3.175
74
0
49
0
74
0
49
-3.175
74
0
0
LTYPE
5
40
330
5
100
AcDbSymbolTableRecord
100
AcDbLinetypeTableRecord
2
BORDERX2
70
0
3
Border (2x) ____  ____  .  ____  ____  .  ___
72
65
73
6
40
88.9
49
25.4
74
0
49
-12.7
74
0
49
25.4
74
0
49
-12.7
74
0
49
0
74
0
49
-12.7
74
0
0
LTYPE
5
41
330
5
100
AcDbSymbolTableRecord
100
AcDbLinetypeTableRecord
2
CENTER
70
0
3
Center ____ _ ____ _ ____ _ ____ _ ____ _ ____
72
65
73
4
40
50.8
49
31.75
74
0
49
-6.35
74
0
49
6.35
74
0
49
-6.35
74
0
0
LTYPE
5
42
330
5
100
AcDbSymbolTableRecord
100
AcDbLinetypeTableRecord
2
CENTER2
70
0
3
Center (.5x) ___ _ ___ _ ___ _ ___ _ ___ _ ___
72
65
73
4
40
28.575
49
19.05
74
0
49
-3.175
74
0
49
3.175
74
0
49
-3.175
74
0
0
LTYPE
5
43
330
5
100
AcDbSymbolTableRecord
100
AcDbLinetypeTableRecord
2
CENTERX2
70
0
3
Center (2x) ________  __  ________  __  _____
72
65
73
4
40
101.6
49
63.5
74
0
49
-12.7
74
0
49
12.7
74
0
49
-12.7
74
0
0
ENDTAB
0
TABLE
2
LAYER
5
2
330
0
100
AcDbSymbolTable
70
1
0
LAYER
5
10
330
2
100
AcDbSymbolTableRecord
100
AcDbLayerTableRecord
2
0
70
0
62
7
6
CONTINUOUS
370
0
390
F
0
LAYER
5
44
330
2
100
AcDbSymbolTableRecord
100
AcDbLayerTableRecord
2
vector
70
0
62
3
6
CONTINUOUS
370
0
390
F
0
ENDTAB
0
TABLE
2
STYLE
5
3
330
0
100
AcDbSymbolTable
70
3
0
STYLE
5
45
330
2
100
AcDbSymbolTableRecord
100
AcDbTextStyleTableRecord
2
Standard
70
0
40
0
41
1
50
0
71
0
42
1
3
txt
4

0
ENDTAB
0
TABLE
2
VIEW
5
6
330
0
100
AcDbSymbolTable
70
0
0
ENDTAB
0
TABLE
2
UCS
5
7
330
0
100
AcDbSymbolTable
70
0
0
ENDTAB
0
TABLE
2
APPID
5
9
330
0
100
AcDbSymbolTable
70
1
0
APPID
5
12
330
9
100
AcDbSymbolTableRecord
100
AcDbRegAppTableRecord
2
ACAD
70
0
0
ENDTAB
0
TABLE
2
DIMSTYLE
5
A
330
0
100
AcDbSymbolTable
70
1
100
AcDbDimStyleTable
71
1
0
DIMSTYLE
105
46
330
A
100
AcDbSymbolTableRecord
100
AcDbDimStyleTableRecord
2
Standard
70
0
40
1
41
0.1
42
0.025
43
0.38
44
0.05
45
0
46
0
47
0
48
0
140
0.1
141
0.09
142
0
143
25.4
144
1
145
0
146
1
147
0.025
148
0
71
0
72
0
73
0
74
1
75
0
76
0
77
0
78
0
79
0
170
0
171
2
172
0
173
0
174
0
175
0
176
0
177
0
178
0
179
0
271
4
272
4
273
2
274
2
275
0
276
0
277
2
278
46
279
0
280
0
281
0
282
0
283
1
284
0
285
0
286
0
288
0
289
3
340
Standard
341

371
-2
372
-2
0
ENDTAB
0
TABLE
2
BLOCK_RECORD
5
1
330
0
100
AcDbSymbolTable
70
2
0
BLOCK_RECORD
5
1F
330
1
100
AcDbSymbolTableRecord
100
AcDbBlockTableRecord
2
*Model_Space
70
0
280
1
281
0
0
BLOCK_RECORD
5
1E
330
1
100
AcDbSymbolTableRecord
100
AcDbBlockTableRecord
2
*Paper_Space
70
0
280
1
281
0
0
ENDTAB
0
ENDSEC
0
SECTION
2
BLOCKS
0
BLOCK
5
20
330
1F
100
AcDbEntity
8
0
100
AcDbBlockBegin
2
*Model_Space
70
0
10
0
20
0
30
0
3
*Model_Space
1

0
ENDBLK
5
21
330
1F
100
AcDbEntity
8
0
100
AcDbBlockEnd
0
BLOCK
5
1C
330
1B
100
AcDbEntity
8
0
100
AcDbBlockBegin
2
*Paper_Space
70
0
10
0
20
0
30
0
3
*Paper_Space
1

0
ENDBLK
5
1D
330
1F
100
AcDbEntity
8
0
100
AcDbBlockEnd
0
ENDSEC
0
SECTION
2
ENTITIES
0
CIRCLE
5
47
100
AcDbEntity
8
vector
6
ByLayer
62
256
370
-1
100
AcDbCircle
10
8.02
20
2.8
40
0.058
0
CIRCLE
5
48
100
AcDbEntity
8
vector
6
ByLayer
62
256
370
-1
100
AcDbCircle
10
8.98
20
2.8
40
0.058
0
ARC
5
49
100
AcDbEntity
8
vector
6
ByLayer
62
256
370
-1
100
AcDbCircle
10
7.9375
20
2.3625
40
0.0625
100
AcDbArc
50
180
51
270
0
LINE
5
4A
100
AcDbEntity
8
vector
6
ByLayer
62
256
370
-1
100
AcDbLine
10
7.875
20
3.2375
11
7.875
21
2.3625
0
ARC
5
4B
100
AcDbEntity
8
vector
6
ByLayer
62
256
370
-1
100
AcDbCircle
10
7.9375
20
3.2375
40
0.0625
100
AcDbArc
50
90
51
180
0
LINE
5
4C
100
AcDbEntity
8
vector
6
ByLayer
62
256
370
-1
100
AcDbLine
10
9.0625
20
3.3
11
7.9375
21
3.3
0
ARC
5
4D
100
AcDbEntity
8
vector
6
ByLayer
62
256
370
-1
100
AcDbCircle
10
9.0625
20
3.2375
40
0.0625
100
AcDbArc
50
360
51
90
0
LINE
5
4E
100
AcDbEntity
8
vector
6
ByLayer
62
256
370
-1
100
AcDbLine
10
9.125
20
2.3625
11
9.125
21
3.2375
0
LINE
5
4F
100
AcDbEntity
8
vector
6
ByLayer
62
256
370
-1
100
AcDbLine
10
7.9375
20
2.3
11
9.0625
21
2.3
0
ARC
5
50
100
AcDbEntity
8
vector
6
ByLayer
62
256
370
-1
100
AcDbCircle
10
9.0625
20
2.3625
40
0.0625
100
AcDbArc
50
270
51
360
0
CIRCLE
5
51
100
AcDbEntity
8
vector
6
ByLayer
62
256
370
-1
100
AcDbCircle
10
9.42
20
2.8
40
0.058
0
CIRCLE
5
52
100
AcDbEntity
8
vector
6
ByLayer
62
256
370
-1
100
AcDbCircle
10
10.38
20
2.8
40
0.058
0
ARC
5
53
100
AcDbEntity
8
vector
6
ByLayer
62
256
370
-1
100
AcDbCircle
10
9.3375
20
2.3625
40
0.0625
100
AcDbArc
50
180
51
270
0
LINE
5
54
100
AcDbEntity
8
vector
6
ByLayer
62
256
370
-1
100
AcDbLine
10
9.275
20
3.2375
11
9.275
21
2.3625
0
ARC
5
55
100
AcDbEntity
8
vector
6
ByLayer
62
256
370
-1
100
AcDbCircle
10
9.3375
20
3.2375
40
0.0625
100
AcDbArc
50
90
51
180
0
LINE
5
56
100
AcDbEntity
8
vector
6
ByLayer
62
256
370
-1
100
AcDbLine
10
10.4625
20
3.3
11
9.3375
21
3.3
0
ARC
5
57
100
AcDbEntity
8
vector
6
ByLayer
62
256
370
-1
100
AcDbCircle
10
10.4625
20
3.2375
40
0.0625
100
AcDbArc
50
360
51
90
0
LINE
5
58
100
AcDbEntity
8
vector
6
ByLayer
62
256
370
-1
100
AcDbLine
10
10.525
20
2.3625
11
10.525
21
3.2375
0
LINE
5
59
100
AcDbEntity
8
vector
6
ByLayer
62
256
370
-1
100
AcDbLine
10
9.3375
20
2.3
11
10.4625
21
2.3
0
ARC
5
5A
100
AcDbEntity
8
vector
6
ByLayer
62
256
370
-1
100
AcDbCircle
10
10.4625
20
2.3625
40
0.0625
100
AcDbArc
50
270
51
360
0
CIRCLE
5
5B
100
AcDbEntity
8
vector
6
ByLayer
62
256
370
-1
100
AcDbCircle
10
10.82
20
2.8
40
0.058
0
CIRCLE
5
5C
100
AcDbEntity
8
vector
6
ByLayer
62
256
370
-1
100
AcDbCircle
10
11.78
20
2.8
40
0.058
0
ARC
5
5D
100
AcDbEntity
8
vector
6
ByLayer
62
256
370
-1
100
AcDbCircle
10
10.7375
20
2.3625
40
0.0625
100
AcDbArc
50
180
51
270
0
LINE
5
5E
100
AcDbEntity
8
vector
6
ByLayer
62
256
370
-1
100
AcDbLine
10
10.675
20
3.2375
11
10.675
21
2.3625
0
ARC
5
5F
100
AcDbEntity
8
vector
6
ByLayer
62
256
370
-1
100
AcDbCircle
10
10.7375
20
3.2375
40
0.0625
100
AcDbArc
50
90
51
180
0
LINE
5
60
100
AcDbEntity
8
vector
6
ByLayer
62
256
370
-1
100
AcDbLine
10
11.8625
20
3.3
11
10.7375
21
3.3
0
ARC
5
61
100
AcDbEntity
8
vector
6
ByLayer
62
256
370
-1
100
AcDbCircle
10
11.8625
20
3.2375
40
0.0625
100
AcDbArc
50
360
51
90
0
LINE
5
62
100
AcDbEntity
8
vector
6
ByLayer
62
256
370
-1
100
AcDbLine
10
11.925
20
2.3625
11
11.925
21
3.2375
0
LINE
5
63
100
AcDbEntity
8
vector
6
ByLayer
62
256
370
-1
100
AcDbLine
10
10.7375
20
2.3
11
11.8625
21
2.3
0
ARC
5
64
100
AcDbEntity
8
vector
6
ByLayer
62
256
370
-1
100
AcDbCircle
10
11.8625
20
2.3625
40
0.0625
100
AcDbArc
50
270
51
360
0
CIRCLE
5
65
100
AcDbEntity
8
vector
6
ByLayer
62
256
370
-1
100
AcDbCircle
10
12.22
20
2.8
40
0.058
0
CIRCLE
5
66
100
AcDbEntity
8
vector
6
ByLayer
62
256
370
-1
100
AcDbCircle
10
13.18
20
2.8
40
0.058
0
ARC
5
67
100
AcDbEntity
8
vector
6
ByLayer
62
256
370
-1
100
AcDbCircle
10
12.1375
20
2.3625
40
0.0625
100
AcDbArc
50
180
51
270
0
LINE
5
68
100
AcDbEntity
8
vector
6
ByLayer
62
256
370
-1
100
AcDbLine
10
12.075
20
3.2375
11
12.075
21
2.3625
0
ARC
5
69
100
AcDbEntity
8
vector
6
ByLayer
62
256
370
-1
100
AcDbCircle
10
12.1375
20
3.2375
40
0.0625
100
AcDbArc
50
90
51
180
0
LINE
5
6A
100
AcDbEntity
8
vector
6
ByLayer
62
256
370
-1
100
AcDbLine
10
13.2625
20
3.3
11
12.1375
21
3.3
0
ARC
5
6B
100
AcDbEntity
8
vector
6
ByLayer
62
256
370
-1
100
AcDbCircle
10
13.2625
20
3.2375
40
0.0625
100
AcDbArc
50
360
51
90
0
LINE
5
6C
100
AcDbEntity
8
vector
6
ByLayer
62
256
370
-1
100
AcDbLine
10
13.325
20
2.3625
11
13.325
21
3.2375
0
LINE
5
6D
100
AcDbEntity
8
vector
6
ByLayer
62
256
370
-1
100
AcDbLine
10
12.1375
20
2.3
11
13.2625
21
2.3
0
ARC
5
6E
100
AcDbEntity
8
vector
6
ByLayer
62
256
370
-1
100
AcDbCircle
10
13.2625
20
2.3625
40
0.0625
100
AcDbArc
50
270
51
360
0
ARC
5
6F
100
AcDbEntity
8
vector
6
ByLayer
62
256
370
-1
100
AcDbCircle
10
8.65
20
1.6
40
0.1615
100
AcDbArc
50
360
51
180
0
ARC
5
70
100
AcDbEntity
8
vector
6
ByLayer
62
256
370
-1
100
AcDbCircle
10
10.15
20
1.6
40
0.1615
100
AcDbArc
50
360
51
180
0
ARC
5
71
100
AcDbEntity
8
vector
6
ByLayer
62
256
370
-1
100
AcDbCircle
10
7.9625
20
2.0375
40
0.0625
100
AcDbArc
50
90
51
180
0
LINE
5
72
100
AcDbEntity
8
vector
6
ByLayer
62
256
370
-1
100
AcDbLine
10
7.9
20
2.0375
11
7.9
21
1.1625
0
ARC
5
73
100
AcDbEntity
8
vector
6
ByLayer
62
256
370
-1
100
AcDbCircle
10
7.9625
20
1.1625
40
0.0625
100
AcDbArc
50
180
51
270
0
LINE
5
74
100
AcDbEntity
8
vector
6
ByLayer
62
256
370
-1
100
AcDbLine
10
8.4885
20
1.6
11
8.4885
21
1.1625
0
LINE
5
75
100
AcDbEntity
8
vector
6
ByLayer
62
256
370
-1
100
AcDbLine
10
7.9625
20
1.1
11
8.426
21
1.1
0
ARC
5
76
100
AcDbEntity
8
vector
6
ByLayer
62
256
370
-1
100
AcDbCircle
10
8.426
20
1.1625
40
0.0625
100
AcDbArc
50
270
51
360
0
LINE
5
77
100
AcDbEntity
8
vector
6
ByLayer
62
256
370
-1
100
AcDbLine
10
8.8115
20
1.6
11
8.8115
21
1.1625
0
ARC
5
78
100
AcDbEntity
8
vector
6
ByLayer
62
256
370
-1
100
AcDbCircle
10
8.874
20
1.1625
40
0.0625
100
AcDbArc
50
180
51
270
0
LINE
5
79
100
AcDbEntity
8
vector
6
ByLayer
62
256
370
-1
100
AcDbLine
10
8.874
20
1.1
11
9.926
21
1.1
0
LINE
5
7A
100
AcDbEntity
8
vector
6
ByLayer
62
256
370
-1
100
AcDbLine
10
9.9885
20
1.6
11
9.9885
21
1.1625
0
ARC
5
7B
100
AcDbEntity
8
vector
6
ByLayer
62
256
370
-1
100
AcDbCircle
10
9.926
20
1.1625
40
0.0625
100
AcDbArc
50
270
51
360
0
LINE
5
7C
100
AcDbEntity
8
vector
6
ByLayer
62
256
370
-1
100
AcDbLine
10
10.3115
20
1.6
11
10.3115
21
1.1625
0
ARC
5
7D
100
AcDbEntity
8
vector
6
ByLayer
62
256
370
-1
100
AcDbCircle
10
10.374
20
1.1625
40
0.0625
100
AcDbArc
50
180
51
270
0
LINE
5
7E
100
AcDbEntity
8
vector
6
ByLayer
62
256
370
-1
100
AcDbLine
10
10.374
20
1.1
11
10.8375
21
1.1
0
ARC
5
7F
100
AcDbEntity
8
vector
6
ByLayer
62
256
370
-1
100
AcDbCircle
10
10.8375
20
1.1625
40
0.0625
100
AcDbArc
50
270
51
360
0
LINE
5
80
100
AcDbEntity
8
vector
6
ByLayer
62
256
370
-1
100
AcDbLine
10
10.9
20
1.5375
11
10.9
21
1.1625
0
ARC
5
81
100
AcDbEntity
8
vector
6
ByLayer
62
256
370
-1
100
AcDbCircle
10
10.9625
20
1.5375
40
0.0625
100
AcDbArc
50
90
51
180
0
LINE
5
82
100
AcDbEntity
8
vector
6
ByLayer
62
256
370
-1
100
AcDbLine
10
13.0875
20
1.6
11
10.9625
21
1.6
0
ARC
5
83
100
AcDbEntity
8
vector
6
ByLayer
62
256
370
-1
100
AcDbCircle
10
13.0875
20
1.6625
40
0.0625
100
AcDbArc
50
270
51
360
0
LINE
5
84
100
AcDbEntity
8
vector
6
ByLayer
62
256
370
-1
100
AcDbLine
10
13.0875
20
2.1
11
7.9625
21
2.1
0
LINE
5
85
100
AcDbEntity
8
vector
6
ByLayer
62
256
370
-1
100
AcDbLine
10
13.15
20
1.6625
11
13.15
21
2.0375
0
ARC
5
86
100
AcDbEntity
8
vector
6
ByLayer
62
256
370
-1
100
AcDbCircle
10
13.0875
20
2.0375
40
0.0625
100
AcDbArc
50
360
51
90
0
ARC
5
87
100
AcDbEntity
8
vector
6
ByLayer
62
256
370
-1
100
AcDbCircle
10
13.25
20
0.89
40
0.1615
100
AcDbArc
50
180
51
360
0
ARC
5
88
100
AcDbEntity
8
vector
6
ByLayer
62
256
370
-1
100
AcDbCircle
10
11.75
20
0.89
40
0.1615
100
AcDbArc
50
180
51
360
0
ARC
5
89
100
AcDbEntity
8
vector
6
ByLayer
62
256
370
-1
100
AcDbCircle
10
13.9375
20
0.4525
40
0.0625
100
AcDbArc
50
270
51
360
0
LINE
5
8A
100
AcDbEntity
8
vector
6
ByLayer
62
256
370
-1
100
AcDbLine
10
14
20
0.4525
11
14
21
1.3275
0
ARC
5
8B
100
AcDbEntity
8
vector
6
ByLayer
62
256
370
-1
100
AcDbCircle
10
13.9375
20
1.3275
40
0.0625
100
AcDbArc
50
360
51
90
0
LINE
5
8C
100
AcDbEntity
8
vector
6
ByLayer
62
256
370
-1
100
AcDbLine
10
13.4115
20
0.89
11
13.4115
21
1.3275
0
LINE
5
8D
100
AcDbEntity
8
vector
6
ByLayer
62
256
370
-1
100
AcDbLine
10
13.9375
20
1.39
11
13.474
21
1.39
0
ARC
5
8E
100
AcDbEntity
8
vector
6
ByLayer
62
256
370
-1
100
AcDbCircle
10
13.474
20
1.3275
40
0.0625
100
AcDbArc
50
90
51
180
0
LINE
5
8F
100
AcDbEntity
8
vector
6
ByLayer
62
256
370
-1
100
AcDbLine
10
13.0885
20
0.89
11
13.0885
21
1.3275
0
ARC
5
90
100
AcDbEntity
8
vector
6
ByLayer
62
256
370
-1
100
AcDbCircle
10
13.026
20
1.3275
40
0.0625
100
AcDbArc
50
360
51
90
0
LINE
5
91
100
AcDbEntity
8
vector
6
ByLayer
62
256
370
-1
100
AcDbLine
10
13.026
20
1.39
11
11.974
21
1.39
0
LINE
5
92
100
AcDbEntity
8
vector
6
ByLayer
62
256
370
-1
100
AcDbLine
10
11.9115
20
0.89
11
11.9115
21
1.3275
0
ARC
5
93
100
AcDbEntity
8
vector
6
ByLayer
62
256
370
-1
100
AcDbCircle
10
11.974
20
1.3275
40
0.0625
100
AcDbArc
50
90
51
180
0
LINE
5
94
100
AcDbEntity
8
vector
6
ByLayer
62
256
370
-1
100
AcDbLine
10
11.5885
20
0.89
11
11.5885
21
1.3275
0
ARC
5
95
100
AcDbEntity
8
vector
6
ByLayer
62
256
370
-1
100
AcDbCircle
10
11.526
20
1.3275
40
0.0625
100
AcDbArc
50
360
51
90
0
LINE
5
96
100
AcDbEntity
8
vector
6
ByLayer
62
256
370
-1
100
AcDbLine
10
11.526
20
1.39
11
11.0625
21
1.39
0
ARC
5
97
100
AcDbEntity
8
vector
6
ByLayer
62
256
370
-1
100
AcDbCircle
10
11.0625
20
1.3275
40
0.0625
100
AcDbArc
50
90
51
180
0
LINE
5
98
100
AcDbEntity
8
vector
6
ByLayer
62
256
370
-1
100
AcDbLine
10
11
20
0.9525
11
11
21
1.3275
0
ARC
5
99
100
AcDbEntity
8
vector
6
ByLayer
62
256
370
-1
100
AcDbCircle
10
10.9375
20
0.9525
40
0.0625
100
AcDbArc
50
270
51
360
0
LINE
5
9A
100
AcDbEntity
8
vector
6
ByLayer
62
256
370
-1
100
AcDbLine
10
8.8125
20
0.89
11
10.9375
21
0.89
0
ARC
5
9B
100
AcDbEntity
8
vector
6
ByLayer
62
256
370
-1
100
AcDbCircle
10
8.8125
20
0.8275
40
0.0625
100
AcDbArc
50
90
51
180
0
LINE
5
9C
100
AcDbEntity
8
vector
6
ByLayer
62
256
370
-1
100
AcDbLine
10
8.8125
20
0.39
11
13.9375
21
0.39
0
LINE
5
9D
100
AcDbEntity
8
vector
6
ByLayer
62
256
370
-1
100
AcDbLine
10
8.75
20
0.8275
11
8.75
21
0.4525
0
ARC
5
9E
100
AcDbEntity
8
vector
6
ByLayer
62
256
370
-1
100
AcDbCircle
10
8.8125
20
0.4525
40
0.0625
100
AcDbArc
50
180
51
270
0
CIRCLE
5
9F
100
AcDbEntity
8
vector
6
ByLayer
62
256
370
-1
100
AcDbCircle
10
6.926
20
1.077
40
0.193
0
CIRCLE
5
A0
100
AcDbEntity
8
vector
6
ByLayer
62
256
370
-1
100
AcDbCircle
10
7.176
20
3.177
40
0.079
0
CIRCLE
5
A1
100
AcDbEntity
8
vector
6
ByLayer
62
256
370
-1
100
AcDbCircle
10
7.176
20
2.217
40
0.079
0
ARC
5
A2
100
AcDbEntity
8
vector
6
ByLayer
62
256
370
-1
100
AcDbCircle
10
7.6135
20
3.3395
40
0.0625
100
AcDbArc
50
360
51
90
0
ARC
5
A3
100
AcDbEntity
8
vector
6
ByLayer
62
256
370
-1
100
AcDbCircle
10
7.6135
20
0.5145
40
0.0625
100
AcDbArc
50
270
51
360
0
LINE
5
A4
100
AcDbEntity
8
vector
6
ByLayer
62
256
370
-1
100
AcDbLine
10
7.6135
20
3.402
11
6.7385
21
3.402
0
LINE
5
A5
100
AcDbEntity
8
vector
6
ByLayer
62
256
370
-1
100
AcDbLine
10
1.7385
20
0.452
11
7.6135
21
0.452
0
CIRCLE
5
A6
100
AcDbEntity
8
vector
6
ByLayer
62
256
370
-1
100
AcDbCircle
10
1.254
20
2.773
40
0.193
0
CIRCLE
5
A7
100
AcDbEntity
8
vector
6
ByLayer
62
256
370
-1
100
AcDbCircle
10
5.754
20
2.773
40
0.193
0
CIRCLE
5
A8
100
AcDbEntity
8
vector
6
ByLayer
62
256
370
-1
100
AcDbCircle
10
1.004
20
0.673
40
0.079
0
CIRCLE
5
A9
100
AcDbEntity
8
vector
6
ByLayer
62
256
370
-1
100
AcDbCircle
10
1.004
20
1.633
40
0.079
0
ARC
5
AA
100
AcDbEntity
8
vector
6
ByLayer
62
256
370
-1
100
AcDbCircle
10
0.5665
20
0.5105
40
0.0625
100
AcDbArc
50
180
51
270
0
ARC
5
AB
100
AcDbEntity
8
vector
6
ByLayer
62
256
370
-1
100
AcDbCircle
10
0.5665
20
3.3355
40
0.0625
100
AcDbArc
50
90
51
180
0
LINE
5
AC
100
AcDbEntity
8
vector
6
ByLayer
62
256
370
-1
100
AcDbLine
10
0.5665
20
0.448
11
1.4415
21
0.448
0
ARC
5
AD
100
AcDbEntity
8
vector
6
ByLayer
62
256
370
-1
100
AcDbCircle
10
1.4415
20
0.5105
40
0.0625
100
AcDbArc
50
270
51
360
0
LINE
5
AE
100
AcDbEntity
8
vector
6
ByLayer
62
256
370
-1
100
AcDbLine
10
1.504
20
0.5105
11
1.504
21
2.0855
0
ARC
5
AF
100
AcDbEntity
8
vector
6
ByLayer
62
256
370
-1
100
AcDbCircle
10
1.5665
20
2.0855
40
0.0625
100
AcDbArc
50
90
51
180
0
LINE
5
B0
100
AcDbEntity
8
vector
6
ByLayer
62
256
370
-1
100
AcDbLine
10
1.5665
20
2.148
11
6.4415
21
2.148
0
ARC
5
B1
100
AcDbEntity
8
vector
6
ByLayer
62
256
370
-1
100
AcDbCircle
10
6.4415
20
2.2105
40
0.0625
100
AcDbArc
50
270
51
360
0
LINE
5
B2
100
AcDbEntity
8
vector
6
ByLayer
62
256
370
-1
100
AcDbLine
10
6.504
20
2.2105
11
6.504
21
3.3355
0
LINE
5
B3
100
AcDbEntity
8
vector
6
ByLayer
62
256
370
-1
100
AcDbLine
10
6.4415
20
3.398
11
0.5665
21
3.398
0
ARC
5
B4
100
AcDbEntity
8
vector
6
ByLayer
62
256
370
-1
100
AcDbCircle
10
6.4415
20
3.3355
40
0.0625
100
AcDbArc
50
360
51
90
0
CIRCLE
5
B5
100
AcDbEntity
8
vector
6
ByLayer
62
256
370
-1
100
AcDbCircle
10
2.426
20
1.077
40
0.193
0
ARC
5
B6
100
AcDbEntity
8
vector
6
ByLayer
62
256
370
-1
100
AcDbCircle
10
6.7385
20
3.3395
40
0.0625
100
AcDbArc
50
90
51
180
0
LINE
5
B7
100
AcDbEntity
8
vector
6
ByLayer
62
256
370
-1
100
AcDbLine
10
6.676
20
3.3395
11
6.676
21
1.7645
0
ARC
5
B8
100
AcDbEntity
8
vector
6
ByLayer
62
256
370
-1
100
AcDbCircle
10
6.6135
20
1.7645
40
0.0625
100
AcDbArc
50
270
51
360
0
LINE
5
B9
100
AcDbEntity
8
vector
6
ByLayer
62
256
370
-1
100
AcDbLine
10
6.6135
20
1.702
11
1.7385
21
1.702
0
ARC
5
BA
100
AcDbEntity
8
vector
6
ByLayer
62
256
370
-1
100
AcDbCircle
10
1.7385
20
1.6395
40
0.0625
100
AcDbArc
50
90
51
180
0
ARC
5
BB
100
AcDbEntity
8
vector
6
ByLayer
62
256
370
-1
100
AcDbCircle
10
1.7385
20
0.5145
40
0.0625
100
AcDbArc
50
180
51
270
0
LINE
5
BC
100
AcDbEntity
8
vector
6
ByLayer
62
256
370
-1
100
AcDbLine
10
7.676
20
3.3395
11
7.676
21
0.5145
0
LINE
5
BD
100
AcDbEntity
8
vector
6
ByLayer
62
256
370
-1
100
AcDbLine
10
0.504
20
3.3355
11
0.504
21
0.5105
0
LINE
5
BE
100
AcDbEntity
8
vector
6
ByLayer
62
256
370
-1
100
AcDbLine
10
1.676
20
1.6395
11
1.676
21
0.5145
0
ENDSEC
0
SECTION
2
OBJECTS
0
DICTIONARY
5
C
330
0
100
AcDbDictionary
281
1
3
ACAD_GROUP
350
D
0
DICTIONARY
5
D
330
C
100
AcDbDictionary
281
1
0
ENDSEC
0
EOF
