999
dxfrw 0.5.10
0
SECTION
2
HEADER
9
$ACADVER
1
AC1021
9
$HANDSEED
5
20000
9
$DWGCODEPAGE
3
ANSI_1252
9
$INSBASE
10
0
20
0
30
0
9
$EXTMIN
10
10000000000
20
10000000000
30
0
9
$EXTMAX
10
-10000000000
20
-10000000000
30
0
9
$LIMMIN
10
0
20
0
9
$LIMMAX
10
420
20
297
9
$ORTHOMODE
70
0
9
$LTSCALE
40
1
9
$TEXTSTYLE
7
STANDARD
9
$CLAYER
8
dimension
9
$DIMASZ
40
0.25
9
$DIMLFAC
40
1
9
$DIMSCALE
40
1
9
$DIMEXO
40
0.025
9
$DIMEXE
40
0.05
9
$DIMTXT
40
0.25
9
$DIMTSZ
40
0
9
$DIMAUNIT
70
0
9
$DIMADEC
70
2
9
$DIMLUNIT
70
2
9
$DIMSTYLE
2
STANDARD
9
$DIMGAP
40
0.025
9
$DIMTIH
70
0
9
$LUNITS
70
2
9
$LUPREC
70
4
9
$AUNITS
70
0
9
$AUPREC
70
2
9
$SPLINESEGS
70
8
9
$GRIDMODE
70
1
9
$SNAPSTYLE
70
0
9
$GRIDUNIT
10
0
20
0
9
$PINSBASE
10
0
20
0
30
0
9
$PLIMMIN
10
0
20
0
9
$PLIMMAX
10
8.26771653543
20
11.6929133858
9
$INSUNITS
70
1
9
$PSVPSCALE
40
1
0
ENDSEC
0
SECTION
2
CLASSES
0
ENDSEC
0
SECTION
2
TABLES
0
TABLE
2
VPORT
5
8
330
0
100
AcDbSymbolTable
70
1
0
VPORT
5
31
330
2
100
AcDbSymbolTableRecord
100
AcDbViewportTableRecord
2
*ACTIVE
70
0
10
0
20
0
11
1
21
1
12
6.1160334295
22
5.64358702694
13
0
23
0
14
10
24
10
15
10
25
10
16
0
26
0
36
1
17
0
27
0
37
0
40
13.4861973094
41
1.59363057325
42
50
43
0
44
0
50
0
51
0
71
0
72
100
73
1
74
3
75
0
76
1
77
0
78
0
281
0
65
1
110
0
120
0
130
0
111
1
121
0
131
0
112
0
122
1
132
0
79
0
146
0
348
10020
60
7
61
5
292
1
282
1
141
0
142
0
63
250
421
3358443
0
ENDTAB
0
TABLE
2
LTYPE
5
5
330
0
100
AcDbSymbolTable
70
4
0
LTYPE
5
14
330
5
100
AcDbSymbolTableRecord
100
AcDbLinetypeTableRecord
2
ByBlock
70
0
3

72
65
73
0
40
0
0
LTYPE
5
15
330
5
100
AcDbSymbolTableRecord
100
AcDbLinetypeTableRecord
2
ByLayer
70
0
3

72
65
73
0
40
0
0
LTYPE
5
16
330
5
100
AcDbSymbolTableRecord
100
AcDbLinetypeTableRecord
2
Continuous
70
0
3
Solid line
72
65
73
0
40
0
0
LTYPE
5
32
330
5
100
AcDbSymbolTableRecord
100
AcDbLinetypeTableRecord
2
DOT
70
0
3
Dot . . . . . . . . . . . . . . . . . . . . . .
72
65
73
2
40
6.35
49
0
74
0
49
-6.35
74
0
0
LTYPE
5
33
330
5
100
AcDbSymbolTableRecord
100
AcDbLinetypeTableRecord
2
DOT2
70
0
3
Dot (.5x) .....................................
72
65
73
2
40
3.175
49
0
74
0
49
-3.175
74
0
0
LTYPE
5
34
330
5
100
AcDbSymbolTableRecord
100
AcDbLinetypeTableRecord
2
DOTX2
70
0
3
Dot (2x) .  .  .  .  .  .  .  .  .  .  .  .  .
72
65
73
2
40
12.7
49
0
74
0
49
-12.7
74
0
0
LTYPE
5
35
330
5
100
AcDbSymbolTableRecord
100
AcDbLinetypeTableRecord
2
DASHED
70
0
3
Dot . . . . . . . . . . . . . . . . . . . . . .
72
65
73
2
40
19.05
49
12.7
74
0
49
-6.35
74
0
0
LTYPE
5
36
330
5
100
AcDbSymbolTableRecord
100
AcDbLinetypeTableRecord
2
DASHED2
70
0
3
Dashed (.5x) _ _ _ _ _ _ _ _ _ _ _ _ _ _ _ _ _
72
65
73
2
40
9.525
49
6.35
74
0
49
-3.175
74
0
0
LTYPE
5
37
330
5
100
AcDbSymbolTableRecord
100
AcDbLinetypeTableRecord
2
DASHEDX2
70
0
3
Dashed (2x) ____  ____  ____  ____  ____  ___
72
65
73
2
40
38.1
49
25.4
74
0
49
-12.7
74
0
0
LTYPE
5
38
330
5
100
AcDbSymbolTableRecord
100
AcDbLinetypeTableRecord
2
DASHDOT
70
0
3
Dash dot __ . __ . __ . __ . __ . __ . __ . __
72
65
73
4
40
25.4
49
12.7
74
0
49
-6.35
74
0
49
0
74
0
49
-6.35
74
0
0
LTYPE
5
39
330
5
100
AcDbSymbolTableRecord
100
AcDbLinetypeTableRecord
2
DASHDOT2
70
0
3
Dash dot (.5x) _._._._._._._._._._._._._._._.
72
65
73
4
40
12.7
49
6.35
74
0
49
-3.175
74
0
49
0
74
0
49
-3.175
74
0
0
LTYPE
5
3A
330
5
100
AcDbSymbolTableRecord
100
AcDbLinetypeTableRecord
2
DASHDOTX2
70
0
3
Dash dot (2x) ____  .  ____  .  ____  .  ___
72
65
73
4
40
50.8
49
25.4
74
0
49
-12.7
74
0
49
0
74
0
49
-12.7
74
0
0
LTYPE
5
3B
330
5
100
AcDbSymbolTableRecord
100
AcDbLinetypeTableRecord
2
DIVIDE
70
0
3
Divide ____ . . ____ . . ____ . . ____ . . ____
72
65
73
6
40
31.75
49
12.7
74
0
49
-6.35
74
0
49
0
74
0
49
-6.35
74
0
49
0
74
0
49
-6.35
74
0
0
LTYPE
5
3C
330
5
100
AcDbSymbolTableRecord
100
AcDbLinetypeTableRecord
2
DIVIDE2
70
0
3
Divide (.5x) __..__..__..__..__..__..__..__.._
72
65
73
6
40
15.875
49
6.35
74
0
49
-3.175
74
0
49
0
74
0
49
-3.175
74
0
49
0
74
0
49
-3.175
74
0
0
LTYPE
5
3D
330
5
100
AcDbSymbolTableRecord
100
AcDbLinetypeTableRecord
2
DIVIDEX2
70
0
3
Divide (2x) ________  .  .  ________  .  .  _
72
65
73
6
40
63.5
49
25.4
74
0
49
-12.7
74
0
49
0
74
0
49
-12.7
74
0
49
0
74
0
49
-12.7
74
0
0
LTYPE
5
3E
330
5
100
AcDbSymbolTableRecord
100
AcDbLinetypeTableRecord
2
BORDER
70
0
3
Border __ __ . __ __ . __ __ . __ __ . __ __ .
72
65
73
6
40
44.45
49
12.7
74
0
49
-6.35
74
0
49
12.7
74
0
49
-6.35
74
0
49
0
74
0
49
-6.35
74
0
0
LTYPE
5
3F
330
5
100
AcDbSymbolTableRecord
100
AcDbLinetypeTableRecord
2
BORDER2
70
0
3
Border (.5x) __.__.__.__.__.__.__.__.__.__.__.
72
65
73
6
40
22.225
49
6.35
74
0
49
-3.175
74
0
49
6.35
74
0
49
-3.175
74
0
49
0
74
0
49
-3.175
74
0
0
LTYPE
5
40
330
5
100
AcDbSymbolTableRecord
100
AcDbLinetypeTableRecord
2
BORDERX2
70
0
3
Border (2x) ____  ____  .  ____  ____  .  ___
72
65
73
6
40
88.9
49
25.4
74
0
49
-12.7
74
0
49
25.4
74
0
49
-12.7
74
0
49
0
74
0
49
-12.7
74
0
0
LTYPE
5
41
330
5
100
AcDbSymbolTableRecord
100
AcDbLinetypeTableRecord
2
CENTER
70
0
3
Center ____ _ ____ _ ____ _ ____ _ ____ _ ____
72
65
73
4
40
50.8
49
31.75
74
0
49
-6.35
74
0
49
6.35
74
0
49
-6.35
74
0
0
LTYPE
5
42
330
5
100
AcDbSymbolTableRecord
100
AcDbLinetypeTableRecord
2
CENTER2
70
0
3
Center (.5x) ___ _ ___ _ ___ _ ___ _ ___ _ ___
72
65
73
4
40
28.575
49
19.05
74
0
49
-3.175
74
0
49
3.175
74
0
49
-3.175
74
0
0
LTYPE
5
43
330
5
100
AcDbSymbolTableRecord
100
AcDbLinetypeTableRecord
2
CENTERX2
70
0
3
Center (2x) ________  __  ________  __  _____
72
65
73
4
40
101.6
49
63.5
74
0
49
-12.7
74
0
49
12.7
74
0
49
-12.7
74
0
0
ENDTAB
0
TABLE
2
LAYER
5
2
330
0
100
AcDbSymbolTable
70
1
0
LAYER
5
10
330
2
100
AcDbSymbolTableRecord
100
AcDbLayerTableRecord
2
0
70
0
62
7
6
CONTINUOUS
370
0
390
F
0
LAYER
5
44
330
2
100
AcDbSymbolTableRecord
100
AcDbLayerTableRecord
2
boundary
70
0
62
5
6
CONTINUOUS
370
0
390
F
0
LAYER
5
45
330
2
100
AcDbSymbolTableRecord
100
AcDbLayerTableRecord
2
scratch
70
0
62
7
6
CONTINUOUS
370
0
390
F
0
LAYER
5
46
330
2
100
AcDbSymbolTableRecord
100
AcDbLayerTableRecord
2
dimension
70
0
62
7
6
CONTINUOUS
370
0
390
F
0
LAYER
5
47
330
2
100
AcDbSymbolTableRecord
100
AcDbLayerTableRecord
2
1/4-20_tap_hole
70
0
62
6
6
CONTINUOUS
370
0
390
F
0
LAYER
5
48
330
2
100
AcDbSymbolTableRecord
100
AcDbLayerTableRecord
2
rail_pocket
70
0
62
32
420
12605440
6
CONTINUOUS
370
0
390
F
0
LAYER
5
49
330
2
100
AcDbSymbolTableRecord
100
AcDbLayerTableRecord
2
5/16-18_tap_hole
70
0
62
2
6
CONTINUOUS
370
0
390
F
0
LAYER
5
4A
330
2
100
AcDbSymbolTableRecord
100
AcDbLayerTableRecord
2
reference
70
0
62
253
420
10526884
6
DOT2
370
0
390
F
0
LAYER
5
4B
330
2
100
AcDbSymbolTableRecord
100
AcDbLayerTableRecord
2
1/4-20_tap_hole_side
70
0
62
6
6
CONTINUOUS
370
0
390
F
0
LAYER
5
4C
330
2
100
AcDbSymbolTableRecord
100
AcDbLayerTableRecord
2
5/16-18_tap_hole_side
70
0
62
2
6
CONTINUOUS
370
0
390
F
0
ENDTAB
0
TABLE
2
STYLE
5
3
330
0
100
AcDbSymbolTable
70
3
0
STYLE
5
4D
330
2
100
AcDbSymbolTableRecord
100
AcDbTextStyleTableRecord
2
Standard
70
0
40
0
41
1
50
0
71
0
42
1
3
txt
4

0
ENDTAB
0
TABLE
2
VIEW
5
6
330
0
100
AcDbSymbolTable
70
0
0
ENDTAB
0
TABLE
2
UCS
5
7
330
0
100
AcDbSymbolTable
70
0
0
ENDTAB
0
TABLE
2
APPID
5
9
330
0
100
AcDbSymbolTable
70
1
0
APPID
5
12
330
9
100
AcDbSymbolTableRecord
100
AcDbRegAppTableRecord
2
ACAD
70
0
0
ENDTAB
0
TABLE
2
DIMSTYLE
5
A
330
0
100
AcDbSymbolTable
70
1
100
AcDbDimStyleTable
71
1
0
DIMSTYLE
105
4E
330
A
100
AcDbSymbolTableRecord
100
AcDbDimStyleTableRecord
2
Standard
70
0
40
1
41
0.25
42
0.025
43
0.38
44
0.05
45
0
46
0
47
0
48
0
140
0.25
141
0.09
142
0
143
25.4
144
1
145
0
146
1
147
0.025
148
0
71
0
72
0
73
0
74
1
75
0
76
0
77
0
78
0
79
0
170
0
171
2
172
0
173
0
174
0
175
0
176
0
177
0
178
0
179
0
271
4
272
4
273
2
274
2
275
0
276
0
277
2
278
46
279
0
280
0
281
0
282
0
283
1
284
0
285
0
286
0
288
0
289
3
340
Standard
341

371
-2
372
-2
0
ENDTAB
0
TABLE
2
BLOCK_RECORD
5
1
330
0
100
AcDbSymbolTable
70
2
0
BLOCK_RECORD
5
1F
330
1
100
AcDbSymbolTableRecord
100
AcDbBlockTableRecord
2
*Model_Space
70
0
280
1
281
0
0
BLOCK_RECORD
5
1E
330
1
100
AcDbSymbolTableRecord
100
AcDbBlockTableRecord
2
*Paper_Space
70
0
280
1
281
0
0
BLOCK_RECORD
5
4F
330
1
100
AcDbSymbolTableRecord
100
AcDbBlockTableRecord
2
*D3
70
0
280
1
281
0
0
BLOCK_RECORD
5
52
330
1
100
AcDbSymbolTableRecord
100
AcDbBlockTableRecord
2
*D4
70
0
280
1
281
0
0
BLOCK_RECORD
5
55
330
1
100
AcDbSymbolTableRecord
100
AcDbBlockTableRecord
2
*D11
70
0
280
1
281
0
0
BLOCK_RECORD
5
58
330
1
100
AcDbSymbolTableRecord
100
AcDbBlockTableRecord
2
*D16
70
0
280
1
281
0
0
BLOCK_RECORD
5
5B
330
1
100
AcDbSymbolTableRecord
100
AcDbBlockTableRecord
2
*D8
70
0
280
1
281
0
0
BLOCK_RECORD
5
5E
330
1
100
AcDbSymbolTableRecord
100
AcDbBlockTableRecord
2
*D2
70
0
280
1
281
0
0
BLOCK_RECORD
5
61
330
1
100
AcDbSymbolTableRecord
100
AcDbBlockTableRecord
2
*D10
70
0
280
1
281
0
0
BLOCK_RECORD
5
64
330
1
100
AcDbSymbolTableRecord
100
AcDbBlockTableRecord
2
*D1
70
0
280
1
281
0
0
BLOCK_RECORD
5
67
330
1
100
AcDbSymbolTableRecord
100
AcDbBlockTableRecord
2
*D9
70
0
280
1
281
0
0
BLOCK_RECORD
5
6A
330
1
100
AcDbSymbolTableRecord
100
AcDbBlockTableRecord
2
*D5
70
0
280
1
281
0
0
BLOCK_RECORD
5
6D
330
1
100
AcDbSymbolTableRecord
100
AcDbBlockTableRecord
2
*D14
70
0
280
1
281
0
0
BLOCK_RECORD
5
70
330
1
100
AcDbSymbolTableRecord
100
AcDbBlockTableRecord
2
*D13
70
0
280
1
281
0
0
BLOCK_RECORD
5
73
330
1
100
AcDbSymbolTableRecord
100
AcDbBlockTableRecord
2
*D15
70
0
280
1
281
0
0
BLOCK_RECORD
5
76
330
1
100
AcDbSymbolTableRecord
100
AcDbBlockTableRecord
2
*D7
70
0
280
1
281
0
0
BLOCK_RECORD
5
79
330
1
100
AcDbSymbolTableRecord
100
AcDbBlockTableRecord
2
*D12
70
0
280
1
281
0
0
BLOCK_RECORD
5
7C
330
1
100
AcDbSymbolTableRecord
100
AcDbBlockTableRecord
2
*D6
70
0
280
1
281
0
0
ENDTAB
0
ENDSEC
0
SECTION
2
BLOCKS
0
BLOCK
5
20
330
1F
100
AcDbEntity
8
0
100
AcDbBlockBegin
2
*Model_Space
70
0
10
0
20
0
30
0
3
*Model_Space
1

0
ENDBLK
5
21
330
1F
100
AcDbEntity
8
0
100
AcDbBlockEnd
0
BLOCK
5
1C
330
1B
100
AcDbEntity
8
0
100
AcDbBlockBegin
2
*Paper_Space
70
0
10
0
20
0
30
0
3
*Paper_Space
1

0
ENDBLK
5
1D
330
1F
100
AcDbEntity
8
0
100
AcDbBlockEnd
0
BLOCK
5
50
330
4F
100
AcDbEntity
8
0
100
AcDbBlockBegin
2
*D3
70
1
10
0
20
0
3
*D3
1

0
LINE
5
7F
100
AcDbEntity
8
dimension
6
CONTINUOUS
62
7
370
0
100
AcDbLine
10
3.1203335421
20
8.25
11
3.1203335421
21
7.6
0
SOLID
5
80
100
AcDbEntity
8
dimension
6
CONTINUOUS
62
7
370
0
100
AcDbTrace
10
3.1203335421
20
8.25
30
0
11
3.16196200788
21
8
31
0
12
3.07870507632
22
8
32
0
13
3.07870507632
23
8
33
0
0
SOLID
5
81
100
AcDbEntity
8
dimension
6
CONTINUOUS
62
7
370
0
100
AcDbTrace
10
3.1203335421
20
7.6
30
0
11
3.07870507632
21
7.85
31
0
12
3.16196200788
22
7.85
32
0
13
3.16196200788
23
7.85
33
0
0
MTEXT
5
82
100
AcDbEntity
8
dimension
6
CONTINUOUS
62
7
370
0
100
AcDbMText
10
2.9703335421
20
7.925
30
0
40
0.25
41
0.583333333333
71
5
72
1
1
0.65
7
standard
210
0
220
0
230
1
50
90
73
2
44
1
0
LINE
5
83
100
AcDbEntity
8
dimension
6
CONTINUOUS
62
7
370
0
100
AcDbLine
10
2.5375
20
8.25
11
3.1703335421
21
8.25
0
LINE
5
84
100
AcDbEntity
8
dimension
6
CONTINUOUS
62
7
370
0
100
AcDbLine
10
2.275
20
7.6
11
3.1703335421
21
7.6
0
ENDBLK
5
51
330
4F
100
AcDbEntity
8
0
100
AcDbBlockEnd
0
BLOCK
5
53
330
52
100
AcDbEntity
8
0
100
AcDbBlockBegin
2
*D4
70
1
10
0
20
0
3
*D4
1

0
SOLID
5
85
100
AcDbEntity
8
dimension
6
CONTINUOUS
62
7
370
0
100
AcDbTrace
10
-4.4345439544
20
8.20484297737
30
0
11
-4.62887199896
21
8.36753760008
31
0
12
-4.56566645485
22
8.42172962758
32
0
13
-4.56566645485
23
8.42172962758
33
0
0
LINE
5
86
100
AcDbEntity
8
dimension
6
CONTINUOUS
62
7
370
0
100
AcDbLine
10
-4.3125
20
8.0625
11
-5.35665383193
21
9.28032325065
0
MTEXT
5
87
100
AcDbEntity
8
dimension
6
CONTINUOUS
62
7
370
0
100
AcDbMText
10
-4.78172451111
20
8.84021827758
30
0
40
0.25
41
0.916666666667
71
5
72
1
1
0.1875
7
standard
210
0
220
0
230
1
50
310.609574699
73
2
44
1
0
ENDBLK
5
54
330
52
100
AcDbEntity
8
0
100
AcDbBlockEnd
0
BLOCK
5
56
330
55
100
AcDbEntity
8
0
100
AcDbBlockBegin
2
*D11
70
1
10
0
20
0
3
*D11
1

0
LINE
5
88
100
AcDbEntity
8
dimension
6
CONTINUOUS
62
7
370
0
100
AcDbLine
10
5.1188058767
20
6.75
11
5.1188058767
21
8.25
0
SOLID
5
89
100
AcDbEntity
8
dimension
6
CONTINUOUS
62
7
370
0
100
AcDbTrace
10
5.1188058767
20
6.75
30
0
11
5.07717741092
21
7
31
0
12
5.16043434248
22
7
32
0
13
5.16043434248
23
7
33
0
0
SOLID
5
8A
100
AcDbEntity
8
dimension
6
CONTINUOUS
62
7
370
0
100
AcDbTrace
10
5.1188058767
20
8.25
30
0
11
5.16043434248
21
8
31
0
12
5.07717741092
22
8
32
0
13
5.07717741092
23
8
33
0
0
MTEXT
5
8B
100
AcDbEntity
8
dimension
6
CONTINUOUS
62
7
370
0
100
AcDbMText
10
4.9688058767
20
7.5
30
0
40
0.25
41
0.333333333333
71
5
72
1
1
1.5
7
standard
210
0
220
0
230
1
50
90
73
2
44
1
0
LINE
5
8C
100
AcDbEntity
8
dimension
6
CONTINUOUS
62
7
370
0
100
AcDbLine
10
4.165
20
6.75
11
5.1688058767
21
6.75
0
LINE
5
8D
100
AcDbEntity
8
dimension
6
CONTINUOUS
62
7
370
0
100
AcDbLine
10
4.3375
20
8.25
11
5.1688058767
21
8.25
0
ENDBLK
5
57
330
55
100
AcDbEntity
8
0
100
AcDbBlockEnd
0
BLOCK
5
59
330
58
100
AcDbEntity
8
0
100
AcDbBlockBegin
2
*D16
70
1
10
0
20
0
3
*D16
1

0
LINE
5
8E
100
AcDbEntity
8
dimension
6
CONTINUOUS
62
7
370
0
100
AcDbLine
10
-4.5
20
-0.78340203479
11
4.5
21
-0.78340203479
0
SOLID
5
8F
100
AcDbEntity
8
dimension
6
CONTINUOUS
62
7
370
0
100
AcDbTrace
10
-4.5
20
-0.78340203479
30
0
11
-4.25
21
-0.741773569013
31
0
12
-4.25
22
-0.825030500568
32
0
13
-4.25
23
-0.825030500568
33
0
0
SOLID
5
90
100
AcDbEntity
8
dimension
6
CONTINUOUS
62
7
370
0
100
AcDbTrace
10
4.5
20
-0.78340203479
30
0
11
4.25
21
-0.825030500568
31
0
12
4.25
22
-0.741773569013
32
0
13
4.25
23
-0.741773569013
33
0
0
MTEXT
5
91
100
AcDbEntity
8
dimension
6
CONTINUOUS
62
7
370
0
100
AcDbMText
10
9.18485099361e-18
20
-0.63340203479
30
0
40
0.25
41
0.111111111111
71
5
72
1
1
9
7
standard
210
0
220
0
230
1
50
0
73
2
44
1
0
LINE
5
92
100
AcDbEntity
8
dimension
6
CONTINUOUS
62
7
370
0
100
AcDbLine
10
-4.5
20
-0.025
11
-4.5
21
-0.83340203479
0
LINE
5
93
100
AcDbEntity
8
dimension
6
CONTINUOUS
62
7
370
0
100
AcDbLine
10
4.5
20
-0.025
11
4.5
21
-0.83340203479
0
ENDBLK
5
5A
330
58
100
AcDbEntity
8
0
100
AcDbBlockEnd
0
BLOCK
5
5C
330
5B
100
AcDbEntity
8
0
100
AcDbBlockBegin
2
*D8
70
1
10
0
20
0
3
*D8
1

0
LINE
5
94
100
AcDbEntity
8
dimension
6
CONTINUOUS
62
7
370
0
100
AcDbLine
10
3
20
4.74511627776
11
4.14
21
4.74511627776
0
SOLID
5
95
100
AcDbEntity
8
dimension
6
CONTINUOUS
62
7
370
0
100
AcDbTrace
10
3
20
4.74511627776
30
0
11
3.25
21
4.78674474354
31
0
12
3.25
22
4.70348781198
32
0
13
3.25
23
4.70348781198
33
0
0
SOLID
5
96
100
AcDbEntity
8
dimension
6
CONTINUOUS
62
7
370
0
100
AcDbTrace
10
4.14
20
4.74511627776
30
0
11
3.89
21
4.70348781198
31
0
12
3.89
22
4.78674474354
32
0
13
3.89
23
4.78674474354
33
0
0
MTEXT
5
97
100
AcDbEntity
8
dimension
6
CONTINUOUS
62
7
370
0
100
AcDbMText
10
3.57
20
4.89511627776
30
0
40
0.25
41
0.5
71
5
72
1
1
1.14
7
standard
210
0
220
0
230
1
50
0
73
2
44
1
0
LINE
5
98
100
AcDbEntity
8
dimension
6
CONTINUOUS
62
7
370
0
100
AcDbLine
10
3
20
5.225
11
3
21
4.69511627776
0
LINE
5
99
100
AcDbEntity
8
dimension
6
CONTINUOUS
62
7
370
0
100
AcDbLine
10
4.14
20
5.225
11
4.14
21
4.69511627776
0
ENDBLK
5
5D
330
5B
100
AcDbEntity
8
0
100
AcDbBlockEnd
0
BLOCK
5
5F
330
5E
100
AcDbEntity
8
0
100
AcDbBlockBegin
2
*D2
70
1
10
0
20
0
3
*D2
1

0
LINE
5
9A
100
AcDbEntity
8
dimension
6
CONTINUOUS
62
7
370
0
100
AcDbLine
10
-2.25
20
8.92326046331
11
-0.75
21
8.92326046331
0
SOLID
5
9B
100
AcDbEntity
8
dimension
6
CONTINUOUS
62
7
370
0
100
AcDbTrace
10
-2.25
20
8.92326046331
30
0
11
-2
21
8.96488892909
31
0
12
-2
22
8.88163199753
32
0
13
-2
23
8.88163199753
33
0
0
SOLID
5
9C
100
AcDbEntity
8
dimension
6
CONTINUOUS
62
7
370
0
100
AcDbTrace
10
-0.75
20
8.92326046331
30
0
11
-1
21
8.88163199753
31
0
12
-1
22
8.96488892909
32
0
13
-1
23
8.96488892909
33
0
0
MTEXT
5
9D
100
AcDbEntity
8
dimension
6
CONTINUOUS
62
7
370
0
100
AcDbMText
10
-1.5
20
9.07326046331
30
0
40
0.25
41
0.333333333333
71
5
72
1
1
1.5
7
standard
210
0
220
0
230
1
50
0
73
2
44
1
0
LINE
5
9E
100
AcDbEntity
8
dimension
6
CONTINUOUS
62
7
370
0
100
AcDbLine
10
-2.25
20
7.625
11
-2.25
21
8.97326046331
0
LINE
5
9F
100
AcDbEntity
8
dimension
6
CONTINUOUS
62
7
370
0
100
AcDbLine
10
-0.75
20
7.625
11
-0.75
21
8.97326046331
0
ENDBLK
5
60
330
5E
100
AcDbEntity
8
0
100
AcDbBlockEnd
0
BLOCK
5
62
330
61
100
AcDbEntity
8
0
100
AcDbBlockBegin
2
*D10
70
1
10
0
20
0
3
*D10
1

0
LINE
5
A0
100
AcDbEntity
8
dimension
6
CONTINUOUS
62
7
370
0
100
AcDbLine
10
5.1194106081
20
6.75
11
5.1194106081
21
5.25
0
SOLID
5
A1
100
AcDbEntity
8
dimension
6
CONTINUOUS
62
7
370
0
100
AcDbTrace
10
5.1194106081
20
6.75
30
0
11
5.16103907388
21
6.5
31
0
12
5.07778214232
22
6.5
32
0
13
5.07778214232
23
6.5
33
0
0
SOLID
5
A2
100
AcDbEntity
8
dimension
6
CONTINUOUS
62
7
370
0
100
AcDbTrace
10
5.1194106081
20
5.25
30
0
11
5.07778214232
21
5.5
31
0
12
5.16103907388
22
5.5
32
0
13
5.16103907388
23
5.5
33
0
0
MTEXT
5
A3
100
AcDbEntity
8
dimension
6
CONTINUOUS
62
7
370
0
100
AcDbMText
10
4.9694106081
20
6
30
0
40
0.25
41
0.333333333333
71
5
72
1
1
1.5
7
standard
210
0
220
0
230
1
50
90
73
2
44
1
0
LINE
5
A4
100
AcDbEntity
8
dimension
6
CONTINUOUS
62
7
370
0
100
AcDbLine
10
4.165
20
6.75
11
5.1694106081
21
6.75
0
LINE
5
A5
100
AcDbEntity
8
dimension
6
CONTINUOUS
62
7
370
0
100
AcDbLine
10
4.165
20
5.25
11
5.1694106081
21
5.25
0
ENDBLK
5
63
330
61
100
AcDbEntity
8
0
100
AcDbBlockEnd
0
BLOCK
5
65
330
64
100
AcDbEntity
8
0
100
AcDbBlockBegin
2
*D1
70
1
10
0
20
0
3
*D1
1

0
LINE
5
A6
100
AcDbEntity
8
dimension
6
CONTINUOUS
62
7
370
0
100
AcDbLine
10
-4.5
20
2.742587776
11
4.5
21
2.742587776
0
SOLID
5
A7
100
AcDbEntity
8
dimension
6
CONTINUOUS
62
7
370
0
100
AcDbTrace
10
-4.5
20
2.742587776
30
0
11
-4.25
21
2.78421624178
31
0
12
-4.25
22
2.70095931022
32
0
13
-4.25
23
2.70095931022
33
0
0
SOLID
5
A8
100
AcDbEntity
8
dimension
6
CONTINUOUS
62
7
370
0
100
AcDbTrace
10
4.5
20
2.742587776
30
0
11
4.25
21
2.70095931022
31
0
12
4.25
22
2.78421624178
32
0
13
4.25
23
2.78421624178
33
0
0
MTEXT
5
A9
100
AcDbEntity
8
dimension
6
CONTINUOUS
62
7
370
0
100
AcDbMText
10
0
20
2.892587776
30
0
40
0.25
41
0.111111111111
71
5
72
1
1
9
7
standard
210
0
220
0
230
1
50
0
73
2
44
1
0
LINE
5
AA
100
AcDbEntity
8
dimension
6
CONTINUOUS
62
7
370
0
100
AcDbLine
10
-4.5
20
3.9125
11
-4.5
21
2.692587776
0
LINE
5
AB
100
AcDbEntity
8
dimension
6
CONTINUOUS
62
7
370
0
100
AcDbLine
10
4.5
20
3.9125
11
4.5
21
2.692587776
0
ENDBLK
5
66
330
64
100
AcDbEntity
8
0
100
AcDbBlockEnd
0
BLOCK
5
68
330
67
100
AcDbEntity
8
0
100
AcDbBlockBegin
2
*D9
70
1
10
0
20
0
3
*D9
1

0
LINE
5
AC
100
AcDbEntity
8
dimension
6
CONTINUOUS
62
7
370
0
100
AcDbLine
10
-4.14
20
4.74441259032
11
-3
21
4.74441259032
0
SOLID
5
AD
100
AcDbEntity
8
dimension
6
CONTINUOUS
62
7
370
0
100
AcDbTrace
10
-4.14
20
4.74441259032
30
0
11
-3.89
21
4.7860410561
31
0
12
-3.89
22
4.70278412454
32
0
13
-3.89
23
4.70278412454
33
0
0
SOLID
5
AE
100
AcDbEntity
8
dimension
6
CONTINUOUS
62
7
370
0
100
AcDbTrace
10
-3
20
4.74441259032
30
0
11
-3.25
21
4.70278412454
31
0
12
-3.25
22
4.7860410561
32
0
13
-3.25
23
4.7860410561
33
0
0
MTEXT
5
AF
100
AcDbEntity
8
dimension
6
CONTINUOUS
62
7
370
0
100
AcDbMText
10
-3.57
20
4.89441259032
30
0
40
0.25
41
0.5
71
5
72
1
1
1.14
7
standard
210
0
220
0
230
1
50
0
73
2
44
1
0
LINE
5
B0
100
AcDbEntity
8
dimension
6
CONTINUOUS
62
7
370
0
100
AcDbLine
10
-4.14
20
5.225
11
-4.14
21
4.69441259032
0
LINE
5
B1
100
AcDbEntity
8
dimension
6
CONTINUOUS
62
7
370
0
100
AcDbLine
10
-3
20
5.225
11
-3
21
4.69441259032
0
ENDBLK
5
69
330
67
100
AcDbEntity
8
0
100
AcDbBlockEnd
0
BLOCK
5
6B
330
6A
100
AcDbEntity
8
0
100
AcDbBlockBegin
2
*D5
70
1
10
0
20
0
3
*D5
1

0
SOLID
5
B2
100
AcDbEntity
8
dimension
6
CONTINUOUS
62
7
370
0
100
AcDbTrace
10
0.8841511135
20
7.64482114175
30
0
11
1.07802994197
21
7.48159145991
31
0
12
1.01467525432
22
7.42757386829
32
0
13
1.01467525432
23
7.42757386829
33
0
0
LINE
5
B3
100
AcDbEntity
8
dimension
6
CONTINUOUS
62
7
370
0
100
AcDbLine
10
0.7625
20
7.7875
11
1.80329285985
21
6.56680310175
0
MTEXT
5
B4
100
AcDbEntity
8
dimension
6
CONTINUOUS
62
7
370
0
100
AcDbMText
10
1.4578650732
20
7.20313301246
30
0
40
0.25
41
0.916666666667
71
5
72
1
1
0.1875
7
standard
210
0
220
0
230
1
50
310.451635144
73
2
44
1
0
ENDBLK
5
6C
330
6A
100
AcDbEntity
8
0
100
AcDbBlockEnd
0
BLOCK
5
6E
330
6D
100
AcDbEntity
8
0
100
AcDbBlockBegin
2
*D14
70
1
10
0
20
0
3
*D14
1

0
LINE
5
B5
100
AcDbEntity
8
dimension
6
CONTINUOUS
62
7
370
0
100
AcDbLine
10
-1.92277485094
20
7.21505233618
11
-1.07722514906
21
6.28494766382
0
SOLID
5
B6
100
AcDbEntity
8
dimension
6
CONTINUOUS
62
7
370
0
100
AcDbTrace
10
-1.586438454
20
6.84508229943
30
0
11
-1.7854092225
21
7.00206498143
31
0
12
-1.72380408244
22
7.05806965418
32
0
13
-1.72380408244
23
7.05806965418
33
0
0
SOLID
5
B7
100
AcDbEntity
8
dimension
6
CONTINUOUS
62
7
370
0
100
AcDbTrace
10
-1.413561546
20
6.65491770057
30
0
11
-1.2145907775
21
6.49793501857
31
0
12
-1.27619591756
22
6.44193034582
32
0
13
-1.27619591756
23
6.44193034582
33
0
0
MTEXT
5
B8
100
AcDbEntity
8
dimension
6
CONTINUOUS
62
7
370
0
100
AcDbMText
10
-1.02415873976
20
6.4495656448
30
0
40
0.25
41
0.777777777778
71
5
72
1
1
0.257
7
standard
210
0
220
0
230
1
50
312.273688997
73
2
44
1
0
ENDBLK
5
6F
330
6D
100
AcDbEntity
8
0
100
AcDbBlockEnd
0
BLOCK
5
71
330
70
100
AcDbEntity
8
0
100
AcDbBlockBegin
2
*D13
70
1
10
0
20
0
3
*D13
1

0
LINE
5
B9
100
AcDbEntity
8
dimension
6
CONTINUOUS
62
7
370
0
100
AcDbLine
10
-4.50200127022
20
7.22911932792
11
-3.77799872978
21
6.27088067208
0
SOLID
5
BA
100
AcDbEntity
8
dimension
6
CONTINUOUS
62
7
370
0
100
AcDbTrace
10
-4.2005847255
20
6.83018566605
30
0
11
-4.38450699044
21
7.00455748035
31
0
12
-4.31807900528
22
7.05474751362
32
0
13
-4.31807900528
23
7.05474751362
33
0
0
SOLID
5
BB
100
AcDbEntity
8
dimension
6
CONTINUOUS
62
7
370
0
100
AcDbTrace
10
-4.0794152745
20
6.66981433395
30
0
11
-3.89549300956
21
6.49544251965
31
0
12
-3.96192099472
22
6.44525248638
32
0
13
-3.96192099472
23
6.44525248638
33
0
0
MTEXT
5
BC
100
AcDbEntity
8
dimension
6
CONTINUOUS
62
7
370
0
100
AcDbMText
10
-3.72697462192
20
6.45217385845
30
0
40
0.25
41
0.722222222222
71
5
72
1
1
0.201
7
standard
210
0
220
0
230
1
50
307.073073336
73
2
44
1
0
ENDBLK
5
72
330
70
100
AcDbEntity
8
0
100
AcDbBlockEnd
0
BLOCK
5
74
330
73
100
AcDbEntity
8
0
100
AcDbBlockBegin
2
*D15
70
1
10
0
20
0
3
*D15
1

0
LINE
5
BD
100
AcDbEntity
8
dimension
6
CONTINUOUS
62
7
370
0
100
AcDbLine
10
5.27765581332
20
0.875
11
5.27765581332
21
-0.5
0
SOLID
5
BE
100
AcDbEntity
8
dimension
6
CONTINUOUS
62
7
370
0
100
AcDbTrace
10
5.27765581332
20
0.375
30
0
11
5.23602734755
21
0.625
31
0
12
5.3192842791
22
0.625
32
0
13
5.3192842791
23
0.625
33
0
0
SOLID
5
BF
100
AcDbEntity
8
dimension
6
CONTINUOUS
62
7
370
0
100
AcDbTrace
10
5.27765581332
20
-4.83487977945e-17
30
0
11
5.3192842791
21
-0.25
31
0
12
5.23602734755
22
-0.25
32
0
13
5.23602734755
23
-0.25
33
0
0
MTEXT
5
C0
100
AcDbEntity
8
dimension
6
CONTINUOUS
62
7
370
0
100
AcDbMText
10
5.12765581332
20
0.788888888889
30
0
40
0.25
41
0.777777777778
71
5
72
1
1
0.375
7
standard
210
0
220
0
230
1
50
90
73
2
44
1
0
LINE
5
C1
100
AcDbEntity
8
dimension
6
CONTINUOUS
62
7
370
0
100
AcDbLine
10
4.525
20
0.375
11
5.32765581332
21
0.375
0
LINE
5
C2
100
AcDbEntity
8
dimension
6
CONTINUOUS
62
7
370
0
100
AcDbLine
10
4.525
20
0
11
5.32765581332
21
-4.83487977945e-17
0
ENDBLK
5
75
330
73
100
AcDbEntity
8
0
100
AcDbBlockEnd
0
BLOCK
5
77
330
76
100
AcDbEntity
8
0
100
AcDbBlockBegin
2
*D7
70
1
10
0
20
0
3
*D7
1

0
LINE
5
C3
100
AcDbEntity
8
dimension
6
CONTINUOUS
62
7
370
0
100
AcDbLine
10
-1.5
20
4.74511627776
11
3
21
4.74511627776
0
SOLID
5
C4
100
AcDbEntity
8
dimension
6
CONTINUOUS
62
7
370
0
100
AcDbTrace
10
-1.5
20
4.74511627776
30
0
11
-1.25
21
4.78674474354
31
0
12
-1.25
22
4.70348781198
32
0
13
-1.25
23
4.70348781198
33
0
0
SOLID
5
C5
100
AcDbEntity
8
dimension
6
CONTINUOUS
62
7
370
0
100
AcDbTrace
10
3
20
4.74511627776
30
0
11
2.75
21
4.70348781198
31
0
12
2.75
22
4.78674474354
32
0
13
2.75
23
4.78674474354
33
0
0
MTEXT
5
C6
100
AcDbEntity
8
dimension
6
CONTINUOUS
62
7
370
0
100
AcDbMText
10
0.75
20
4.89511627776
30
0
40
0.25
41
0.416666666667
71
5
72
1
1
4.5
7
standard
210
0
220
0
230
1
50
0
73
2
44
1
0
LINE
5
C7
100
AcDbEntity
8
dimension
6
CONTINUOUS
62
7
370
0
100
AcDbLine
10
-1.5
20
5.225
11
-1.5
21
4.69511627776
0
LINE
5
C8
100
AcDbEntity
8
dimension
6
CONTINUOUS
62
7
370
0
100
AcDbLine
10
3
20
5.225
11
3
21
4.69511627776
0
ENDBLK
5
78
330
76
100
AcDbEntity
8
0
100
AcDbBlockEnd
0
BLOCK
5
7A
330
79
100
AcDbEntity
8
0
100
AcDbBlockBegin
2
*D12
70
1
10
0
20
0
3
*D12
1

0
LINE
5
C9
100
AcDbEntity
8
dimension
6
CONTINUOUS
62
7
370
0
100
AcDbLine
10
6.005891858
20
8.25
11
6.005891858
21
3.75
0
SOLID
5
CA
100
AcDbEntity
8
dimension
6
CONTINUOUS
62
7
370
0
100
AcDbTrace
10
6.005891858
20
8.25
30
0
11
6.04752032378
21
8
31
0
12
5.96426339222
22
8
32
0
13
5.96426339222
23
8
33
0
0
SOLID
5
CB
100
AcDbEntity
8
dimension
6
CONTINUOUS
62
7
370
0
100
AcDbTrace
10
6.005891858
20
3.75
30
0
11
5.96426339222
21
4
31
0
12
6.04752032378
22
4
32
0
13
6.04752032378
23
4
33
0
0
MTEXT
5
CC
100
AcDbEntity
8
dimension
6
CONTINUOUS
62
7
370
0
100
AcDbMText
10
5.855891858
20
6
30
0
40
0.25
41
0.416666666667
71
5
72
1
1
4.5
7
standard
210
0
220
0
230
1
50
90
73
2
44
1
0
LINE
5
CD
100
AcDbEntity
8
dimension
6
CONTINUOUS
62
7
370
0
100
AcDbLine
10
4.3375
20
8.25
11
6.055891858
21
8.25
0
LINE
5
CE
100
AcDbEntity
8
dimension
6
CONTINUOUS
62
7
370
0
100
AcDbLine
10
4.3375
20
3.75
11
6.055891858
21
3.75
0
ENDBLK
5
7B
330
79
100
AcDbEntity
8
0
100
AcDbBlockEnd
0
BLOCK
5
7D
330
7C
100
AcDbEntity
8
0
100
AcDbBlockBegin
2
*D6
70
1
10
0
20
0
3
*D6
1

0
LINE
5
CF
100
AcDbEntity
8
dimension
6
CONTINUOUS
62
7
370
0
100
AcDbLine
10
-3
20
4.74511627776
11
-1.5
21
4.74511627776
0
SOLID
5
D0
100
AcDbEntity
8
dimension
6
CONTINUOUS
62
7
370
0
100
AcDbTrace
10
-3
20
4.74511627776
30
0
11
-2.75
21
4.78674474354
31
0
12
-2.75
22
4.70348781198
32
0
13
-2.75
23
4.70348781198
33
0
0
SOLID
5
D1
100
AcDbEntity
8
dimension
6
CONTINUOUS
62
7
370
0
100
AcDbTrace
10
-1.5
20
4.74511627776
30
0
11
-1.75
21
4.70348781198
31
0
12
-1.75
22
4.78674474354
32
0
13
-1.75
23
4.78674474354
33
0
0
MTEXT
5
D2
100
AcDbEntity
8
dimension
6
CONTINUOUS
62
7
370
0
100
AcDbMText
10
-2.25
20
4.89511627776
30
0
40
0.25
41
0.333333333333
71
5
72
1
1
1.5
7
standard
210
0
220
0
230
1
50
0
73
2
44
1
0
LINE
5
D3
100
AcDbEntity
8
dimension
6
CONTINUOUS
62
7
370
0
100
AcDbLine
10
-3
20
5.225
11
-3
21
4.69511627776
0
LINE
5
D4
100
AcDbEntity
8
dimension
6
CONTINUOUS
62
7
370
0
100
AcDbLine
10
-1.5
20
5.225
11
-1.5
21
4.69511627776
0
ENDBLK
5
7E
330
7C
100
AcDbEntity
8
0
100
AcDbBlockEnd
0
ENDSEC
0
SECTION
2
ENTITIES
0
LINE
5
D5
100
AcDbEntity
8
reference
6
ByLayer
62
256
370
-1
100
AcDbLine
10
0
20
22
11
0
21
-2
0
LINE
5
D6
100
AcDbEntity
8
boundary
6
ByLayer
62
256
370
-1
100
AcDbLine
10
-4.5
20
0.375
11
4.5
21
0.375
0
LINE
5
D7
100
AcDbEntity
8
boundary
6
ByLayer
62
256
370
-1
100
AcDbLine
10
4.5
20
0.375
11
4.5
21
0
0
LINE
5
D8
100
AcDbEntity
8
boundary
6
ByLayer
62
256
370
-1
100
AcDbLine
10
4.5
20
0
11
-4.5
21
0
0
LINE
5
D9
100
AcDbEntity
8
boundary
6
ByLayer
62
256
370
-1
100
AcDbLine
10
-4.5
20
0
11
-4.5
21
0.375
0
ARC
5
DA
100
AcDbEntity
8
boundary
6
ByLayer
62
256
370
-1
100
AcDbCircle
10
-2.2625
20
7.7875
40
0.1875
100
AcDbArc
50
180
51
270
0
LINE
5
DB
100
AcDbEntity
8
boundary
6
ByLayer
62
256
370
-1
100
AcDbLine
10
-2.2375
20
7.6
11
-2.2625
21
7.6
0
ARC
5
DC
100
AcDbEntity
8
boundary
6
ByLayer
62
256
370
-1
100
AcDbCircle
10
-2.2375
20
7.7875
40
0.1875
100
AcDbArc
50
270
51
0
0
ARC
5
DD
100
AcDbEntity
8
boundary
6
ByLayer
62
256
370
-1
100
AcDbCircle
10
-0.7625
20
7.7875
40
0.1875
100
AcDbArc
50
180
51
270
0
LINE
5
DE
100
AcDbEntity
8
boundary
6
ByLayer
62
256
370
-1
100
AcDbLine
10
-0.7375
20
7.6
11
-0.7625
21
7.6
0
ARC
5
DF
100
AcDbEntity
8
boundary
6
ByLayer
62
256
370
-1
100
AcDbCircle
10
-0.7375
20
7.7875
40
0.1875
100
AcDbArc
50
270
51
0
0
ARC
5
E0
100
AcDbEntity
8
boundary
6
ByLayer
62
256
370
-1
100
AcDbCircle
10
0.7375
20
7.7875
40
0.1875
100
AcDbArc
50
180
51
270
0
LINE
5
E1
100
AcDbEntity
8
boundary
6
ByLayer
62
256
370
-1
100
AcDbLine
10
0.7625
20
7.6
11
0.7375
21
7.6
0
ARC
5
E2
100
AcDbEntity
8
boundary
6
ByLayer
62
256
370
-1
100
AcDbCircle
10
0.7625
20
7.7875
40
0.1875
100
AcDbArc
50
270
51
0
0
ARC
5
E3
100
AcDbEntity
8
boundary
6
ByLayer
62
256
370
-1
100
AcDbCircle
10
2.2375
20
7.7875
40
0.1875
100
AcDbArc
50
180
51
270
0
LINE
5
E4
100
AcDbEntity
8
boundary
6
ByLayer
62
256
370
-1
100
AcDbLine
10
2.2625
20
7.6
11
2.2375
21
7.6
0
ARC
5
E5
100
AcDbEntity
8
boundary
6
ByLayer
62
256
370
-1
100
AcDbCircle
10
2.2625
20
7.7875
40
0.1875
100
AcDbArc
50
270
51
0
0
ARC
5
E6
100
AcDbEntity
8
boundary
6
ByLayer
62
256
370
-1
100
AcDbCircle
10
-2.2625
20
4.2125
40
0.1875
100
AcDbArc
50
90
51
180
0
LINE
5
E7
100
AcDbEntity
8
boundary
6
ByLayer
62
256
370
-1
100
AcDbLine
10
-2.2375
20
4.4
11
-2.2625
21
4.4
0
ARC
5
E8
100
AcDbEntity
8
boundary
6
ByLayer
62
256
370
-1
100
AcDbCircle
10
-2.2375
20
4.2125
40
0.1875
100
AcDbArc
50
0
51
90
0
ARC
5
E9
100
AcDbEntity
8
boundary
6
ByLayer
62
256
370
-1
100
AcDbCircle
10
-0.7625
20
4.2125
40
0.1875
100
AcDbArc
50
90
51
180
0
LINE
5
EA
100
AcDbEntity
8
boundary
6
ByLayer
62
256
370
-1
100
AcDbLine
10
-0.7375
20
4.4
11
-0.7625
21
4.4
0
ARC
5
EB
100
AcDbEntity
8
boundary
6
ByLayer
62
256
370
-1
100
AcDbCircle
10
-0.7375
20
4.2125
40
0.1875
100
AcDbArc
50
0
51
90
0
ARC
5
EC
100
AcDbEntity
8
boundary
6
ByLayer
62
256
370
-1
100
AcDbCircle
10
0.7375
20
4.2125
40
0.1875
100
AcDbArc
50
90
51
180
0
LINE
5
ED
100
AcDbEntity
8
boundary
6
ByLayer
62
256
370
-1
100
AcDbLine
10
0.7625
20
4.4
11
0.7375
21
4.4
0
ARC
5
EE
100
AcDbEntity
8
boundary
6
ByLayer
62
256
370
-1
100
AcDbCircle
10
0.7625
20
4.2125
40
0.1875
100
AcDbArc
50
0
51
90
0
ARC
5
EF
100
AcDbEntity
8
boundary
6
ByLayer
62
256
370
-1
100
AcDbCircle
10
2.2375
20
4.2125
40
0.1875
100
AcDbArc
50
90
51
180
0
LINE
5
F0
100
AcDbEntity
8
boundary
6
ByLayer
62
256
370
-1
100
AcDbLine
10
2.2625
20
4.4
11
2.2375
21
4.4
0
ARC
5
F1
100
AcDbEntity
8
boundary
6
ByLayer
62
256
370
-1
100
AcDbCircle
10
2.2625
20
4.2125
40
0.1875
100
AcDbArc
50
0
51
90
0
CIRCLE
5
F2
100
AcDbEntity
8
1/4-20_tap_hole
6
ByLayer
62
256
370
-1
100
AcDbCircle
10
-4.14
20
6.75
40
0.1005
0
CIRCLE
5
F3
100
AcDbEntity
8
1/4-20_tap_hole
6
ByLayer
62
256
370
-1
100
AcDbCircle
10
-4.14
20
5.25
40
0.1005
0
CIRCLE
5
F4
100
AcDbEntity
8
1/4-20_tap_hole
6
ByLayer
62
256
370
-1
100
AcDbCircle
10
4.14
20
6.75
40
0.1005
0
CIRCLE
5
F5
100
AcDbEntity
8
1/4-20_tap_hole
6
ByLayer
62
256
370
-1
100
AcDbCircle
10
4.14
20
5.25
40
0.1005
0
ARC
5
F6
100
AcDbEntity
8
boundary
6
ByLayer
62
256
370
-1
100
AcDbCircle
10
-4.3125
20
8.0625
40
0.1875
100
AcDbArc
50
90
51
180
0
LINE
5
F7
100
AcDbEntity
8
boundary
6
ByLayer
62
256
370
-1
100
AcDbLine
10
-4.5
20
8.0625
11
-4.5
21
3.9375
0
ARC
5
F8
100
AcDbEntity
8
boundary
6
ByLayer
62
256
370
-1
100
AcDbCircle
10
-4.3125
20
3.9375
40
0.1875
100
AcDbArc
50
180
51
270
0
ARC
5
F9
100
AcDbEntity
8
boundary
6
ByLayer
62
256
370
-1
100
AcDbCircle
10
4.3125
20
8.0625
40
0.1875
100
AcDbArc
50
0
51
90
0
LINE
5
FA
100
AcDbEntity
8
boundary
6
ByLayer
62
256
370
-1
100
AcDbLine
10
4.5
20
3.9375
11
4.5
21
8.0625
0
ARC
5
FB
100
AcDbEntity
8
boundary
6
ByLayer
62
256
370
-1
100
AcDbCircle
10
4.3125
20
3.9375
40
0.1875
100
AcDbArc
50
270
51
0
0
LINE
5
FC
100
AcDbEntity
8
scratch
6
ByLayer
62
256
370
-1
100
AcDbLine
10
4.5
20
6
11
4.5
21
6
0
LINE
5
FD
100
AcDbEntity
8
scratch
6
ByLayer
62
256
370
-1
100
AcDbLine
10
4.5
20
6
11
-4.5
21
6
0
LINE
5
FE
100
AcDbEntity
8
scratch
6
ByLayer
62
256
370
-1
100
AcDbLine
10
-4.5
20
6
11
-4.5
21
6
0
LINE
5
FF
100
AcDbEntity
8
scratch
6
ByLayer
62
256
370
-1
100
AcDbLine
10
-3.5
20
6
11
3.5
21
6
0
LINE
5
100
100
AcDbEntity
8
boundary
6
ByLayer
62
256
370
-1
100
AcDbLine
10
-2.45
20
7.7875
11
-2.45
21
8.1875
0
LINE
5
101
100
AcDbEntity
8
boundary
6
ByLayer
62
256
370
-1
100
AcDbLine
10
-2.5125
20
8.25
11
-4.3125
21
8.25
0
ARC
5
102
100
AcDbEntity
8
boundary
6
ByLayer
62
256
370
-1
100
AcDbCircle
10
-2.5125
20
8.1875
40
0.0625
100
AcDbArc
50
0
51
90
0
LINE
5
103
100
AcDbEntity
8
boundary
6
ByLayer
62
256
370
-1
100
AcDbLine
10
-2.05
20
8.1875
11
-2.05
21
7.7875
0
ARC
5
104
100
AcDbEntity
8
boundary
6
ByLayer
62
256
370
-1
100
AcDbCircle
10
-1.9875
20
8.1875
40
0.0625
100
AcDbArc
50
90
51
180
0
LINE
5
105
100
AcDbEntity
8
boundary
6
ByLayer
62
256
370
-1
100
AcDbLine
10
-0.95
20
7.7875
11
-0.95
21
8.1875
0
LINE
5
106
100
AcDbEntity
8
boundary
6
ByLayer
62
256
370
-1
100
AcDbLine
10
-1.0125
20
8.25
11
-1.9875
21
8.25
0
ARC
5
107
100
AcDbEntity
8
boundary
6
ByLayer
62
256
370
-1
100
AcDbCircle
10
-1.0125
20
8.1875
40
0.0625
100
AcDbArc
50
0
51
90
0
LINE
5
108
100
AcDbEntity
8
boundary
6
ByLayer
62
256
370
-1
100
AcDbLine
10
-0.55
20
8.1875
11
-0.55
21
7.7875
0
ARC
5
109
100
AcDbEntity
8
boundary
6
ByLayer
62
256
370
-1
100
AcDbCircle
10
-0.4875
20
8.1875
40
0.0625
100
AcDbArc
50
90
51
180
0
LINE
5
10A
100
AcDbEntity
8
boundary
6
ByLayer
62
256
370
-1
100
AcDbLine
10
0.4875
20
8.25
11
-0.4875
21
8.25
0
LINE
5
10B
100
AcDbEntity
8
boundary
6
ByLayer
62
256
370
-1
100
AcDbLine
10
0.55
20
7.7875
11
0.55
21
8.1875
0
ARC
5
10C
100
AcDbEntity
8
boundary
6
ByLayer
62
256
370
-1
100
AcDbCircle
10
0.4875
20
8.1875
40
0.0625
100
AcDbArc
50
0
51
90
0
LINE
5
10D
100
AcDbEntity
8
boundary
6
ByLayer
62
256
370
-1
100
AcDbLine
10
0.95
20
8.1875
11
0.95
21
7.7875
0
ARC
5
10E
100
AcDbEntity
8
boundary
6
ByLayer
62
256
370
-1
100
AcDbCircle
10
1.0125
20
8.1875
40
0.0625
100
AcDbArc
50
90
51
180
0
LINE
5
10F
100
AcDbEntity
8
boundary
6
ByLayer
62
256
370
-1
100
AcDbLine
10
1.9875
20
8.25
11
1.0125
21
8.25
0
LINE
5
110
100
AcDbEntity
8
boundary
6
ByLayer
62
256
370
-1
100
AcDbLine
10
2.05
20
7.7875
11
2.05
21
8.1875
0
ARC
5
111
100
AcDbEntity
8
boundary
6
ByLayer
62
256
370
-1
100
AcDbCircle
10
1.9875
20
8.1875
40
0.0625
100
AcDbArc
50
0
51
90
0
LINE
5
112
100
AcDbEntity
8
boundary
6
ByLayer
62
256
370
-1
100
AcDbLine
10
2.45
20
8.1875
11
2.45
21
7.7875
0
LINE
5
113
100
AcDbEntity
8
boundary
6
ByLayer
62
256
370
-1
100
AcDbLine
10
4.3125
20
8.25
11
2.5125
21
8.25
0
ARC
5
114
100
AcDbEntity
8
boundary
6
ByLayer
62
256
370
-1
100
AcDbCircle
10
2.5125
20
8.1875
40
0.0625
100
AcDbArc
50
90
51
180
0
LINE
5
115
100
AcDbEntity
8
boundary
6
ByLayer
62
256
370
-1
100
AcDbLine
10
-4.3125
20
3.75
11
-2.5125
21
3.75
0
LINE
5
116
100
AcDbEntity
8
boundary
6
ByLayer
62
256
370
-1
100
AcDbLine
10
-2.45
20
4.2125
11
-2.45
21
3.8125
0
ARC
5
117
100
AcDbEntity
8
boundary
6
ByLayer
62
256
370
-1
100
AcDbCircle
10
-2.5125
20
3.8125
40
0.0625
100
AcDbArc
50
270
51
0
0
LINE
5
118
100
AcDbEntity
8
boundary
6
ByLayer
62
256
370
-1
100
AcDbLine
10
-2.05
20
3.8125
11
-2.05
21
4.2125
0
ARC
5
119
100
AcDbEntity
8
boundary
6
ByLayer
62
256
370
-1
100
AcDbCircle
10
-1.9875
20
3.8125
40
0.0625
100
AcDbArc
50
180
51
270
0
LINE
5
11A
100
AcDbEntity
8
boundary
6
ByLayer
62
256
370
-1
100
AcDbLine
10
-1.9875
20
3.75
11
-1.0125
21
3.75
0
LINE
5
11B
100
AcDbEntity
8
boundary
6
ByLayer
62
256
370
-1
100
AcDbLine
10
-0.95
20
4.2125
11
-0.95
21
3.8125
0
ARC
5
11C
100
AcDbEntity
8
boundary
6
ByLayer
62
256
370
-1
100
AcDbCircle
10
-1.0125
20
3.8125
40
0.0625
100
AcDbArc
50
270
51
0
0
LINE
5
11D
100
AcDbEntity
8
boundary
6
ByLayer
62
256
370
-1
100
AcDbLine
10
-0.55
20
3.8125
11
-0.55
21
4.2125
0
ARC
5
11E
100
AcDbEntity
8
boundary
6
ByLayer
62
256
370
-1
100
AcDbCircle
10
-0.4875
20
3.8125
40
0.0625
100
AcDbArc
50
180
51
270
0
LINE
5
11F
100
AcDbEntity
8
boundary
6
ByLayer
62
256
370
-1
100
AcDbLine
10
-0.4875
20
3.75
11
0.4875
21
3.75
0
LINE
5
120
100
AcDbEntity
8
boundary
6
ByLayer
62
256
370
-1
100
AcDbLine
10
0.55
20
4.2125
11
0.55
21
3.8125
0
ARC
5
121
100
AcDbEntity
8
boundary
6
ByLayer
62
256
370
-1
100
AcDbCircle
10
0.4875
20
3.8125
40
0.0625
100
AcDbArc
50
270
51
0
0
LINE
5
122
100
AcDbEntity
8
boundary
6
ByLayer
62
256
370
-1
100
AcDbLine
10
0.95
20
3.8125
11
0.95
21
4.2125
0
ARC
5
123
100
AcDbEntity
8
boundary
6
ByLayer
62
256
370
-1
100
AcDbCircle
10
1.0125
20
3.8125
40
0.0625
100
AcDbArc
50
180
51
270
0
LINE
5
124
100
AcDbEntity
8
boundary
6
ByLayer
62
256
370
-1
100
AcDbLine
10
1.0125
20
3.75
11
1.9875
21
3.75
0
LINE
5
125
100
AcDbEntity
8
boundary
6
ByLayer
62
256
370
-1
100
AcDbLine
10
2.05
20
4.2125
11
2.05
21
3.8125
0
ARC
5
126
100
AcDbEntity
8
boundary
6
ByLayer
62
256
370
-1
100
AcDbCircle
10
1.9875
20
3.8125
40
0.0625
100
AcDbArc
50
270
51
0
0
LINE
5
127
100
AcDbEntity
8
boundary
6
ByLayer
62
256
370
-1
100
AcDbLine
10
2.45
20
3.8125
11
2.45
21
4.2125
0
LINE
5
128
100
AcDbEntity
8
boundary
6
ByLayer
62
256
370
-1
100
AcDbLine
10
2.5125
20
3.75
11
4.3125
21
3.75
0
ARC
5
129
100
AcDbEntity
8
boundary
6
ByLayer
62
256
370
-1
100
AcDbCircle
10
2.5125
20
3.8125
40
0.0625
100
AcDbArc
50
180
51
270
0
CIRCLE
5
12A
100
AcDbEntity
8
5/16-18_tap_hole
6
ByLayer
62
256
370
-1
100
AcDbCircle
10
-1.5
20
6.75
40
0.1285
0
CIRCLE
5
12B
100
AcDbEntity
8
5/16-18_tap_hole
6
ByLayer
62
256
370
-1
100
AcDbCircle
10
-3
20
5.25
40
0.1285
0
CIRCLE
5
12C
100
AcDbEntity
8
5/16-18_tap_hole
6
ByLayer
62
256
370
-1
100
AcDbCircle
10
-1.5
20
5.25
40
0.1285
0
CIRCLE
5
12D
100
AcDbEntity
8
5/16-18_tap_hole
6
ByLayer
62
256
370
-1
100
AcDbCircle
10
3
20
6.75
40
0.1285
0
CIRCLE
5
12E
100
AcDbEntity
8
5/16-18_tap_hole
6
ByLayer
62
256
370
-1
100
AcDbCircle
10
3
20
5.25
40
0.1285
0
DIMENSION
5
12F
100
AcDbEntity
8
dimension
6
ByLayer
62
256
370
-1
100
AcDbDimension
2
*D1
10
4.5
20
2.742587776
30
0
11
0
21
2.892587776
31
0
70
32
71
5
3
Standard
53
0
210
0
220
0
230
1
100
AcDbAlignedDimension
13
-4.5
23
3.9375
33
0
14
4.5
24
3.9375
34
0
100
AcDbRotatedDimension
0
DIMENSION
5
130
100
AcDbEntity
8
dimension
6
ByLayer
62
256
370
-1
100
AcDbDimension
2
*D2
10
-0.75
20
8.92326046331
30
0
11
-1.5
21
9.07326046331
31
0
70
32
71
5
3
Standard
53
0
210
0
220
0
230
1
100
AcDbAlignedDimension
13
-2.25
23
7.6
33
0
14
-0.75
24
7.6
34
0
100
AcDbRotatedDimension
0
DIMENSION
5
131
100
AcDbEntity
8
dimension
6
ByLayer
62
256
370
-1
100
AcDbDimension
2
*D3
10
3.1203335421
20
7.6
30
0
11
2.9703335421
21
7.925
31
0
70
32
71
5
3
Standard
53
0
210
0
220
0
230
1
100
AcDbAlignedDimension
13
2.5125
23
8.25
33
0
14
2.25
24
7.6
34
0
50
90
100
AcDbRotatedDimension
0
DIMENSION
5
132
100
AcDbEntity
8
dimension
6
ByLayer
62
256
370
-1
100
AcDbDimension
2
*D4
10
-4.3125
20
8.0625
30
0
11
-4.78172451111
21
8.84021827758
31
0
70
36
71
5
3
Standard
53
0
210
0
220
0
230
1
100
AcDbRadialDimension
15
-4.4345439544
25
8.20484297737
35
0
40
0
0
DIMENSION
5
133
100
AcDbEntity
8
dimension
6
ByLayer
62
256
370
-1
100
AcDbDimension
2
*D5
10
0.7625
20
7.7875
30
0
11
1.4578650732
21
7.20313301246
31
0
70
36
71
5
3
Standard
53
0
210
0
220
0
230
1
100
AcDbRadialDimension
15
0.8841511135
25
7.64482114175
35
0
40
0
0
DIMENSION
5
134
100
AcDbEntity
8
dimension
6
ByLayer
62
256
370
-1
100
AcDbDimension
2
*D6
10
-1.5
20
4.74511627776
30
0
11
-2.25
21
4.89511627776
31
0
70
32
71
5
3
Standard
53
0
210
0
220
0
230
1
100
AcDbAlignedDimension
13
-3
23
5.25
33
0
14
-1.5
24
5.25
34
0
100
AcDbRotatedDimension
0
DIMENSION
5
135
100
AcDbEntity
8
dimension
6
ByLayer
62
256
370
-1
100
AcDbDimension
2
*D7
10
3
20
4.74511627776
30
0
11
0.75
21
4.89511627776
31
0
70
32
71
5
3
Standard
53
0
210
0
220
0
230
1
100
AcDbAlignedDimension
13
-1.5
23
5.25
33
0
14
3
24
5.25
34
0
100
AcDbRotatedDimension
0
DIMENSION
5
136
100
AcDbEntity
8
dimension
6
ByLayer
62
256
370
-1
100
AcDbDimension
2
*D8
10
4.14
20
4.74511627776
30
0
11
3.57
21
4.89511627776
31
0
70
32
71
5
3
Standard
53
0
210
0
220
0
230
1
100
AcDbAlignedDimension
13
3
23
5.25
33
0
14
4.14
24
5.25
34
0
100
AcDbRotatedDimension
0
DIMENSION
5
137
100
AcDbEntity
8
dimension
6
ByLayer
62
256
370
-1
100
AcDbDimension
2
*D9
10
-3
20
4.74441259032
30
0
11
-3.57
21
4.89441259032
31
0
70
32
71
5
3
Standard
53
0
210
0
220
0
230
1
100
AcDbAlignedDimension
13
-4.14
23
5.25
33
0
14
-3
24
5.25
34
0
100
AcDbRotatedDimension
0
DIMENSION
5
138
100
AcDbEntity
8
dimension
6
ByLayer
62
256
370
-1
100
AcDbDimension
2
*D10
10
5.1194106081
20
5.25
30
0
11
4.9694106081
21
6
31
0
70
32
71
5
3
Standard
53
0
210
0
220
0
230
1
100
AcDbAlignedDimension
13
4.14
23
6.75
33
0
14
4.14
24
5.25
34
0
50
90
100
AcDbRotatedDimension
0
DIMENSION
5
139
100
AcDbEntity
8
dimension
6
ByLayer
62
256
370
-1
100
AcDbDimension
2
*D11
10
5.1188058767
20
8.25
30
0
11
4.9688058767
21
7.5
31
0
70
32
71
5
3
Standard
53
0
210
0
220
0
230
1
100
AcDbAlignedDimension
13
4.14
23
6.75
33
0
14
4.3125
24
8.25
34
0
50
90
100
AcDbRotatedDimension
0
DIMENSION
5
13A
100
AcDbEntity
8
dimension
6
ByLayer
62
256
370
-1
100
AcDbDimension
2
*D12
10
6.005891858
20
3.75
30
0
11
5.855891858
21
6
31
0
70
32
71
5
3
Standard
53
0
210
0
220
0
230
1
100
AcDbAlignedDimension
13
4.3125
23
8.25
33
0
14
4.3125
24
3.75
34
0
50
90
100
AcDbRotatedDimension
0
LINE
5
13B
100
AcDbEntity
8
reference
6
ByLayer
62
256
370
-1
100
AcDbLine
10
0
20
12
11
0
21
-3
0
DIMENSION
5
13C
100
AcDbEntity
8
dimension
6
ByLayer
62
256
370
-1
100
AcDbDimension
2
*D13
10
-4.2005847255
20
6.83018566605
30
0
11
-4.0203199014
21
6.84042496338
31
0
70
35
71
5
3
Standard
53
0
210
0
220
0
230
1
100
AcDbDiametricDimension
15
-4.0794152745
25
6.66981433395
35
0
40
0
0
DIMENSION
5
13D
100
AcDbEntity
8
dimension
6
ByLayer
62
256
370
-1
100
AcDbDimension
2
*D14
10
-1.586438454
20
6.84508229943
30
0
11
-1.389008989
21
6.8509009191
31
0
70
35
71
5
3
Standard
53
0
210
0
220
0
230
1
100
AcDbDiametricDimension
15
-1.413561546
25
6.65491770057
35
0
40
0
0
LINE
5
13E
100
AcDbEntity
8
1/4-20_tap_hole_side
6
ByLayer
62
256
370
-1
100
AcDbLine
10
-4.0395
20
0
11
-4.0395
21
0.375
0
LINE
5
13F
100
AcDbEntity
8
1/4-20_tap_hole_side
6
ByLayer
62
256
370
-1
100
AcDbLine
10
-4.2405
20
0.375
11
-4.2405
21
0
0
LINE
5
140
100
AcDbEntity
8
1/4-20_tap_hole_side
6
ByLayer
62
256
370
-1
100
AcDbLine
10
4.2405
20
0
11
4.2405
21
0.375
0
LINE
5
141
100
AcDbEntity
8
1/4-20_tap_hole_side
6
ByLayer
62
256
370
-1
100
AcDbLine
10
4.0395
20
0.375
11
4.0395
21
0
0
CIRCLE
5
142
100
AcDbEntity
8
5/16-18_tap_hole
6
ByLayer
62
256
370
-1
100
AcDbCircle
10
-3
20
6.75
40
0.1285
0
LINE
5
143
100
AcDbEntity
8
5/16-18_tap_hole_side
6
ByLayer
62
256
370
-1
100
AcDbLine
10
-3.1285
20
0.375
11
-3.1285
21
0
0
LINE
5
144
100
AcDbEntity
8
5/16-18_tap_hole_side
6
ByLayer
62
256
370
-1
100
AcDbLine
10
-2.8715
20
0
11
-2.8715
21
0.375
0
LINE
5
145
100
AcDbEntity
8
5/16-18_tap_hole_side
6
ByLayer
62
256
370
-1
100
AcDbLine
10
-1.6285
20
0.375
11
-1.6285
21
0
0
LINE
5
146
100
AcDbEntity
8
5/16-18_tap_hole_side
6
ByLayer
62
256
370
-1
100
AcDbLine
10
-1.3715
20
0
11
-1.3715
21
0.375
0
LINE
5
147
100
AcDbEntity
8
5/16-18_tap_hole_side
6
ByLayer
62
256
370
-1
100
AcDbLine
10
2.8715
20
0.375
11
2.8715
21
0
0
LINE
5
148
100
AcDbEntity
8
5/16-18_tap_hole_side
6
ByLayer
62
256
370
-1
100
AcDbLine
10
3.1285
20
0
11
3.1285
21
0.375
0
DIMENSION
5
149
100
AcDbEntity
8
dimension
6
ByLayer
62
256
370
-1
100
AcDbDimension
2
*D15
10
5.27765581332
20
-9.52353702627e-17
30
0
11
5.12765581332
21
0.1875
31
0
70
32
71
5
3
Standard
53
0
210
0
220
0
230
1
100
AcDbAlignedDimension
13
4.5
23
0.375
33
0
14
4.5
24
0
34
0
50
90
100
AcDbRotatedDimension
0
DIMENSION
5
14A
100
AcDbEntity
8
dimension
6
ByLayer
62
256
370
-1
100
AcDbDimension
2
*D16
10
4.5
20
-0.78340203479
30
0
11
9.18485099361e-18
21
-0.63340203479
31
0
70
32
71
5
3
Standard
53
0
210
0
220
0
230
1
100
AcDbAlignedDimension
13
-4.5
23
0
33
0
14
4.5
24
0
34
0
100
AcDbRotatedDimension
0
ENDSEC
0
SECTION
2
OBJECTS
0
DICTIONARY
5
C
330
0
100
AcDbDictionary
281
1
3
ACAD_GROUP
350
D
0
DICTIONARY
5
D
330
C
100
AcDbDictionary
281
1
0
ENDSEC
0
EOF
