999
dxfrw 0.5.10
0
SECTION
2
HEADER
9
$ACADVER
1
AC1021
9
$HANDSEED
5
20000
9
$DWGCODEPAGE
3
ANSI_1252
9
$INSBASE
10
0
20
0
30
0
9
$EXTMIN
10
-6.2563432551
20
-2
30
0
9
$EXTMAX
10
3.65777252864
20
22
30
0
9
$LIMMIN
10
0
20
0
9
$LIMMAX
10
420
20
297
9
$ORTHOMODE
70
0
9
$LTSCALE
40
1
9
$TEXTSTYLE
7
STANDARD
9
$CLAYER
8
0
9
$DIMASZ
40
0.25
9
$DIMLFAC
40
1
9
$DIMSCALE
40
1
9
$DIMEXO
40
0.025
9
$DIMEXE
40
0.05
9
$DIMTXT
40
0.25
9
$DIMTSZ
40
0
9
$DIMAUNIT
70
0
9
$DIMADEC
70
2
9
$DIMLUNIT
70
2
9
$DIMSTYLE
2
STANDARD
9
$DIMGAP
40
0.025
9
$DIMTIH
70
0
9
$LUNITS
70
2
9
$LUPREC
70
4
9
$AUNITS
70
0
9
$AUPREC
70
2
9
$SPLINESEGS
70
8
9
$GRIDMODE
70
1
9
$SNAPSTYLE
70
0
9
$GRIDUNIT
10
0
20
0
9
$PINSBASE
10
0
20
0
30
0
9
$PLIMMIN
10
0
20
0
9
$PLIMMAX
10
8.26771653543
20
11.6929133858
9
$INSUNITS
70
1
9
$PSVPSCALE
40
1
0
ENDSEC
0
SECTION
2
CLASSES
0
ENDSEC
0
SECTION
2
TABLES
0
TABLE
2
VPORT
5
8
330
0
100
AcDbSymbolTable
70
1
0
VPORT
5
31
330
2
100
AcDbSymbolTableRecord
100
AcDbViewportTableRecord
2
*ACTIVE
70
0
10
0
20
0
11
1
21
1
12
12.4235294118
22
10.431372549
13
0
23
0
14
10
24
10
15
10
25
10
16
0
26
0
36
1
17
0
27
0
37
0
40
24.6274509804
41
1.59363057325
42
50
43
0
44
0
50
0
51
0
71
0
72
100
73
1
74
3
75
0
76
1
77
0
78
0
281
0
65
1
110
0
120
0
130
0
111
1
121
0
131
0
112
0
122
1
132
0
79
0
146
0
348
10020
60
7
61
5
292
1
282
1
141
0
142
0
63
250
421
3358443
0
ENDTAB
0
TABLE
2
LTYPE
5
5
330
0
100
AcDbSymbolTable
70
4
0
LTYPE
5
14
330
5
100
AcDbSymbolTableRecord
100
AcDbLinetypeTableRecord
2
ByBlock
70
0
3

72
65
73
0
40
0
0
LTYPE
5
15
330
5
100
AcDbSymbolTableRecord
100
AcDbLinetypeTableRecord
2
ByLayer
70
0
3

72
65
73
0
40
0
0
LTYPE
5
16
330
5
100
AcDbSymbolTableRecord
100
AcDbLinetypeTableRecord
2
Continuous
70
0
3
Solid line
72
65
73
0
40
0
0
LTYPE
5
32
330
5
100
AcDbSymbolTableRecord
100
AcDbLinetypeTableRecord
2
DOT
70
0
3
Dot . . . . . . . . . . . . . . . . . . . . . .
72
65
73
2
40
6.35
49
0
74
0
49
-6.35
74
0
0
LTYPE
5
33
330
5
100
AcDbSymbolTableRecord
100
AcDbLinetypeTableRecord
2
DOT2
70
0
3
Dot (.5x) .....................................
72
65
73
2
40
3.175
49
0
74
0
49
-3.175
74
0
0
LTYPE
5
34
330
5
100
AcDbSymbolTableRecord
100
AcDbLinetypeTableRecord
2
DOTX2
70
0
3
Dot (2x) .  .  .  .  .  .  .  .  .  .  .  .  .
72
65
73
2
40
12.7
49
0
74
0
49
-12.7
74
0
0
LTYPE
5
35
330
5
100
AcDbSymbolTableRecord
100
AcDbLinetypeTableRecord
2
DASHED
70
0
3
Dot . . . . . . . . . . . . . . . . . . . . . .
72
65
73
2
40
19.05
49
12.7
74
0
49
-6.35
74
0
0
LTYPE
5
36
330
5
100
AcDbSymbolTableRecord
100
AcDbLinetypeTableRecord
2
DASHED2
70
0
3
Dashed (.5x) _ _ _ _ _ _ _ _ _ _ _ _ _ _ _ _ _
72
65
73
2
40
9.525
49
6.35
74
0
49
-3.175
74
0
0
LTYPE
5
37
330
5
100
AcDbSymbolTableRecord
100
AcDbLinetypeTableRecord
2
DASHEDX2
70
0
3
Dashed (2x) ____  ____  ____  ____  ____  ___
72
65
73
2
40
38.1
49
25.4
74
0
49
-12.7
74
0
0
LTYPE
5
38
330
5
100
AcDbSymbolTableRecord
100
AcDbLinetypeTableRecord
2
DASHDOT
70
0
3
Dash dot __ . __ . __ . __ . __ . __ . __ . __
72
65
73
4
40
25.4
49
12.7
74
0
49
-6.35
74
0
49
0
74
0
49
-6.35
74
0
0
LTYPE
5
39
330
5
100
AcDbSymbolTableRecord
100
AcDbLinetypeTableRecord
2
DASHDOT2
70
0
3
Dash dot (.5x) _._._._._._._._._._._._._._._.
72
65
73
4
40
12.7
49
6.35
74
0
49
-3.175
74
0
49
0
74
0
49
-3.175
74
0
0
LTYPE
5
3A
330
5
100
AcDbSymbolTableRecord
100
AcDbLinetypeTableRecord
2
DASHDOTX2
70
0
3
Dash dot (2x) ____  .  ____  .  ____  .  ___
72
65
73
4
40
50.8
49
25.4
74
0
49
-12.7
74
0
49
0
74
0
49
-12.7
74
0
0
LTYPE
5
3B
330
5
100
AcDbSymbolTableRecord
100
AcDbLinetypeTableRecord
2
DIVIDE
70
0
3
Divide ____ . . ____ . . ____ . . ____ . . ____
72
65
73
6
40
31.75
49
12.7
74
0
49
-6.35
74
0
49
0
74
0
49
-6.35
74
0
49
0
74
0
49
-6.35
74
0
0
LTYPE
5
3C
330
5
100
AcDbSymbolTableRecord
100
AcDbLinetypeTableRecord
2
DIVIDE2
70
0
3
Divide (.5x) __..__..__..__..__..__..__..__.._
72
65
73
6
40
15.875
49
6.35
74
0
49
-3.175
74
0
49
0
74
0
49
-3.175
74
0
49
0
74
0
49
-3.175
74
0
0
LTYPE
5
3D
330
5
100
AcDbSymbolTableRecord
100
AcDbLinetypeTableRecord
2
DIVIDEX2
70
0
3
Divide (2x) ________  .  .  ________  .  .  _
72
65
73
6
40
63.5
49
25.4
74
0
49
-12.7
74
0
49
0
74
0
49
-12.7
74
0
49
0
74
0
49
-12.7
74
0
0
LTYPE
5
3E
330
5
100
AcDbSymbolTableRecord
100
AcDbLinetypeTableRecord
2
BORDER
70
0
3
Border __ __ . __ __ . __ __ . __ __ . __ __ .
72
65
73
6
40
44.45
49
12.7
74
0
49
-6.35
74
0
49
12.7
74
0
49
-6.35
74
0
49
0
74
0
49
-6.35
74
0
0
LTYPE
5
3F
330
5
100
AcDbSymbolTableRecord
100
AcDbLinetypeTableRecord
2
BORDER2
70
0
3
Border (.5x) __.__.__.__.__.__.__.__.__.__.__.
72
65
73
6
40
22.225
49
6.35
74
0
49
-3.175
74
0
49
6.35
74
0
49
-3.175
74
0
49
0
74
0
49
-3.175
74
0
0
LTYPE
5
40
330
5
100
AcDbSymbolTableRecord
100
AcDbLinetypeTableRecord
2
BORDERX2
70
0
3
Border (2x) ____  ____  .  ____  ____  .  ___
72
65
73
6
40
88.9
49
25.4
74
0
49
-12.7
74
0
49
25.4
74
0
49
-12.7
74
0
49
0
74
0
49
-12.7
74
0
0
LTYPE
5
41
330
5
100
AcDbSymbolTableRecord
100
AcDbLinetypeTableRecord
2
CENTER
70
0
3
Center ____ _ ____ _ ____ _ ____ _ ____ _ ____
72
65
73
4
40
50.8
49
31.75
74
0
49
-6.35
74
0
49
6.35
74
0
49
-6.35
74
0
0
LTYPE
5
42
330
5
100
AcDbSymbolTableRecord
100
AcDbLinetypeTableRecord
2
CENTER2
70
0
3
Center (.5x) ___ _ ___ _ ___ _ ___ _ ___ _ ___
72
65
73
4
40
28.575
49
19.05
74
0
49
-3.175
74
0
49
3.175
74
0
49
-3.175
74
0
0
LTYPE
5
43
330
5
100
AcDbSymbolTableRecord
100
AcDbLinetypeTableRecord
2
CENTERX2
70
0
3
Center (2x) ________  __  ________  __  _____
72
65
73
4
40
101.6
49
63.5
74
0
49
-12.7
74
0
49
12.7
74
0
49
-12.7
74
0
0
ENDTAB
0
TABLE
2
LAYER
5
2
330
0
100
AcDbSymbolTable
70
1
0
LAYER
5
10
330
2
100
AcDbSymbolTableRecord
100
AcDbLayerTableRecord
2
0
70
0
62
7
6
CONTINUOUS
370
0
390
F
0
LAYER
5
44
330
2
100
AcDbSymbolTableRecord
100
AcDbLayerTableRecord
2
boundary
70
0
62
5
6
CONTINUOUS
370
0
390
F
0
LAYER
5
45
330
2
100
AcDbSymbolTableRecord
100
AcDbLayerTableRecord
2
scratch
70
0
62
7
6
CONTINUOUS
370
0
390
F
0
LAYER
5
46
330
2
100
AcDbSymbolTableRecord
100
AcDbLayerTableRecord
2
dimension
70
0
62
7
6
CONTINUOUS
370
0
390
F
0
LAYER
5
47
330
2
100
AcDbSymbolTableRecord
100
AcDbLayerTableRecord
2
gantry_viz
70
0
62
8
6
CONTINUOUS
370
0
390
F
0
LAYER
5
48
330
2
100
AcDbSymbolTableRecord
100
AcDbLayerTableRecord
2
5/16-through_hole
70
0
62
4
6
CONTINUOUS
370
0
390
F
0
LAYER
5
49
330
2
100
AcDbSymbolTableRecord
100
AcDbLayerTableRecord
2
5/16_screw_pocket_bot
70
0
62
56
420
8421376
6
CONTINUOUS
370
0
390
F
0
LAYER
5
4A
330
2
100
AcDbSymbolTableRecord
100
AcDbLayerTableRecord
2
5/16_screw_pocket_top
70
0
62
2
6
CONTINUOUS
370
0
390
F
0
LAYER
5
4B
330
2
100
AcDbSymbolTableRecord
100
AcDbLayerTableRecord
2
rail_pocket
70
0
62
32
420
12605440
6
CONTINUOUS
370
0
390
F
0
LAYER
5
4C
330
2
100
AcDbSymbolTableRecord
100
AcDbLayerTableRecord
2
rail_pocket_hatch
70
0
62
32
420
12605440
6
CONTINUOUS
370
0
390
F
0
LAYER
5
4D
330
2
100
AcDbSymbolTableRecord
100
AcDbLayerTableRecord
2
5/16_screw_pocket_bot_hatch
70
0
62
56
420
8421376
6
CONTINUOUS
370
0
390
F
0
LAYER
5
4E
330
2
100
AcDbSymbolTableRecord
100
AcDbLayerTableRecord
2
5/16_screw_pocket_top_hatch
70
0
62
2
6
CONTINUOUS
370
0
390
F
0
LAYER
5
4F
330
2
100
AcDbSymbolTableRecord
100
AcDbLayerTableRecord
2
5/16_through_hole_side
70
0
62
4
6
CONTINUOUS
370
0
390
F
0
LAYER
5
50
330
2
100
AcDbSymbolTableRecord
100
AcDbLayerTableRecord
2
5/16_screw_pocket_side
70
0
62
4
6
CONTINUOUS
370
0
390
F
0
LAYER
5
51
330
2
100
AcDbSymbolTableRecord
100
AcDbLayerTableRecord
2
reference
70
0
62
253
420
10526884
6
DOT2
370
0
390
F
0
ENDTAB
0
TABLE
2
STYLE
5
3
330
0
100
AcDbSymbolTable
70
3
0
STYLE
5
52
330
2
100
AcDbSymbolTableRecord
100
AcDbTextStyleTableRecord
2
Standard
70
0
40
0
41
1
50
0
71
0
42
1
3
txt
4

0
ENDTAB
0
TABLE
2
VIEW
5
6
330
0
100
AcDbSymbolTable
70
0
0
ENDTAB
0
TABLE
2
UCS
5
7
330
0
100
AcDbSymbolTable
70
0
0
ENDTAB
0
TABLE
2
APPID
5
9
330
0
100
AcDbSymbolTable
70
1
0
APPID
5
12
330
9
100
AcDbSymbolTableRecord
100
AcDbRegAppTableRecord
2
ACAD
70
0
0
ENDTAB
0
TABLE
2
DIMSTYLE
5
A
330
0
100
AcDbSymbolTable
70
1
100
AcDbDimStyleTable
71
1
0
DIMSTYLE
105
53
330
A
100
AcDbSymbolTableRecord
100
AcDbDimStyleTableRecord
2
Standard
70
0
40
1
41
0.25
42
0.025
43
0.38
44
0.05
45
0
46
0
47
0
48
0
140
0.25
141
0.09
142
0
143
25.4
144
1
145
0
146
1
147
0.025
148
0
71
0
72
0
73
0
74
1
75
0
76
0
77
0
78
0
79
0
170
0
171
2
172
0
173
0
174
0
175
0
176
0
177
0
178
0
179
0
271
4
272
4
273
2
274
2
275
0
276
0
277
2
278
46
279
0
280
0
281
0
282
0
283
1
284
0
285
0
286
0
288
0
289
3
340
Standard
341

371
-2
372
-2
0
ENDTAB
0
TABLE
2
BLOCK_RECORD
5
1
330
0
100
AcDbSymbolTable
70
2
0
BLOCK_RECORD
5
1F
330
1
100
AcDbSymbolTableRecord
100
AcDbBlockTableRecord
2
*Model_Space
70
0
280
1
281
0
0
BLOCK_RECORD
5
1E
330
1
100
AcDbSymbolTableRecord
100
AcDbBlockTableRecord
2
*Paper_Space
70
0
280
1
281
0
0
BLOCK_RECORD
5
54
330
1
100
AcDbSymbolTableRecord
100
AcDbBlockTableRecord
2
*D6
70
0
280
1
281
0
0
BLOCK_RECORD
5
57
330
1
100
AcDbSymbolTableRecord
100
AcDbBlockTableRecord
2
*D2
70
0
280
1
281
0
0
BLOCK_RECORD
5
5A
330
1
100
AcDbSymbolTableRecord
100
AcDbBlockTableRecord
2
*D14
70
0
280
1
281
0
0
BLOCK_RECORD
5
5D
330
1
100
AcDbSymbolTableRecord
100
AcDbBlockTableRecord
2
*D16
70
0
280
1
281
0
0
BLOCK_RECORD
5
60
330
1
100
AcDbSymbolTableRecord
100
AcDbBlockTableRecord
2
*D17
70
0
280
1
281
0
0
BLOCK_RECORD
5
63
330
1
100
AcDbSymbolTableRecord
100
AcDbBlockTableRecord
2
*D7
70
0
280
1
281
0
0
BLOCK_RECORD
5
66
330
1
100
AcDbSymbolTableRecord
100
AcDbBlockTableRecord
2
*D8
70
0
280
1
281
0
0
BLOCK_RECORD
5
69
330
1
100
AcDbSymbolTableRecord
100
AcDbBlockTableRecord
2
*D9
70
0
280
1
281
0
0
BLOCK_RECORD
5
6C
330
1
100
AcDbSymbolTableRecord
100
AcDbBlockTableRecord
2
*D10
70
0
280
1
281
0
0
BLOCK_RECORD
5
6F
330
1
100
AcDbSymbolTableRecord
100
AcDbBlockTableRecord
2
*D1
70
0
280
1
281
0
0
BLOCK_RECORD
5
72
330
1
100
AcDbSymbolTableRecord
100
AcDbBlockTableRecord
2
*D3
70
0
280
1
281
0
0
BLOCK_RECORD
5
75
330
1
100
AcDbSymbolTableRecord
100
AcDbBlockTableRecord
2
*D11
70
0
280
1
281
0
0
BLOCK_RECORD
5
78
330
1
100
AcDbSymbolTableRecord
100
AcDbBlockTableRecord
2
*D4
70
0
280
1
281
0
0
BLOCK_RECORD
5
7B
330
1
100
AcDbSymbolTableRecord
100
AcDbBlockTableRecord
2
*D12
70
0
280
1
281
0
0
BLOCK_RECORD
5
7E
330
1
100
AcDbSymbolTableRecord
100
AcDbBlockTableRecord
2
*D5
70
0
280
1
281
0
0
BLOCK_RECORD
5
81
330
1
100
AcDbSymbolTableRecord
100
AcDbBlockTableRecord
2
*D13
70
0
280
1
281
0
0
BLOCK_RECORD
5
84
330
1
100
AcDbSymbolTableRecord
100
AcDbBlockTableRecord
2
*D15
70
0
280
1
281
0
0
ENDTAB
0
ENDSEC
0
SECTION
2
BLOCKS
0
BLOCK
5
20
330
1F
100
AcDbEntity
8
0
100
AcDbBlockBegin
2
*Model_Space
70
0
10
0
20
0
30
0
3
*Model_Space
1

0
ENDBLK
5
21
330
1F
100
AcDbEntity
8
0
100
AcDbBlockEnd
0
BLOCK
5
1C
330
1B
100
AcDbEntity
8
0
100
AcDbBlockBegin
2
*Paper_Space
70
0
10
0
20
0
30
0
3
*Paper_Space
1

0
ENDBLK
5
1D
330
1F
100
AcDbEntity
8
0
100
AcDbBlockEnd
0
BLOCK
5
55
330
54
100
AcDbEntity
8
0
100
AcDbBlockBegin
2
*D6
70
1
10
0
20
0
3
*D6
1

0
LINE
5
87
100
AcDbEntity
8
dimension
6
CONTINUOUS
62
7
370
0
100
AcDbLine
10
-4.83433272501
20
0.75
11
-4.83433272501
21
-0.5
0
SOLID
5
88
100
AcDbEntity
8
dimension
6
CONTINUOUS
62
7
370
0
100
AcDbTrace
10
-4.83433272501
20
0.25
30
0
11
-4.87596119079
21
0.5
31
0
12
-4.79270425923
22
0.5
32
0
13
-4.79270425923
23
0.5
33
0
0
SOLID
5
89
100
AcDbEntity
8
dimension
6
CONTINUOUS
62
7
370
0
100
AcDbTrace
10
-4.83433272501
20
3.63294201395e-17
30
0
11
-4.79270425923
21
-0.25
31
0
12
-4.87596119079
22
-0.25
32
0
13
-4.87596119079
23
-0.25
33
0
0
MTEXT
5
8A
100
AcDbEntity
8
dimension
6
CONTINUOUS
62
7
370
0
100
AcDbMText
10
-4.98433272501
20
0.566666666667
30
0
40
0.25
41
0.583333333333
71
5
72
1
1
0.25
7
standard
210
0
220
0
230
1
50
90
73
2
44
1
0
LINE
5
8B
100
AcDbEntity
8
dimension
6
CONTINUOUS
62
7
370
0
100
AcDbLine
10
-4.275
20
0.25
11
-4.88433272501
21
0.25
0
LINE
5
8C
100
AcDbEntity
8
dimension
6
CONTINUOUS
62
7
370
0
100
AcDbLine
10
-4.275
20
3.06161699787e-18
11
-4.88433272501
21
4.24526541352e-17
0
ENDBLK
5
56
330
54
100
AcDbEntity
8
0
100
AcDbBlockEnd
0
BLOCK
5
58
330
57
100
AcDbEntity
8
0
100
AcDbBlockBegin
2
*D2
70
1
10
0
20
0
3
*D2
1

0
LINE
5
8D
100
AcDbEntity
8
dimension
6
CONTINUOUS
62
7
370
0
100
AcDbLine
10
-4.96154622034
20
13
11
-4.96154622034
21
11.5
0
SOLID
5
8E
100
AcDbEntity
8
dimension
6
CONTINUOUS
62
7
370
0
100
AcDbTrace
10
-4.96154622034
20
13
30
0
11
-4.91991775456
21
12.75
31
0
12
-5.00317468612
22
12.75
32
0
13
-5.00317468612
23
12.75
33
0
0
SOLID
5
8F
100
AcDbEntity
8
dimension
6
CONTINUOUS
62
7
370
0
100
AcDbTrace
10
-4.96154622034
20
11.5
30
0
11
-5.00317468612
21
11.75
31
0
12
-4.91991775456
22
11.75
32
0
13
-4.91991775456
23
11.75
33
0
0
MTEXT
5
90
100
AcDbEntity
8
dimension
6
CONTINUOUS
62
7
370
0
100
AcDbMText
10
-5.11154622034
20
12.25
30
0
40
0.25
41
0.333333333333
71
5
72
1
1
1.5
7
standard
210
0
220
0
230
1
50
90
73
2
44
1
0
LINE
5
91
100
AcDbEntity
8
dimension
6
CONTINUOUS
62
7
370
0
100
AcDbLine
10
-3.775
20
13
11
-5.01154622034
21
13
0
LINE
5
92
100
AcDbEntity
8
dimension
6
CONTINUOUS
62
7
370
0
100
AcDbLine
10
-3.775
20
11.5
11
-5.01154622034
21
11.5
0
ENDBLK
5
59
330
57
100
AcDbEntity
8
0
100
AcDbBlockEnd
0
BLOCK
5
5B
330
5A
100
AcDbEntity
8
0
100
AcDbBlockBegin
2
*D14
70
1
10
0
20
0
3
*D14
1

0
LINE
5
93
100
AcDbEntity
8
dimension
6
CONTINUOUS
62
7
370
0
100
AcDbLine
10
2.31928233984
20
6.8
11
2.31928233984
21
0.8
0
SOLID
5
94
100
AcDbEntity
8
dimension
6
CONTINUOUS
62
7
370
0
100
AcDbTrace
10
2.31928233984
20
6.8
30
0
11
2.36091080562
21
6.55
31
0
12
2.27765387406
22
6.55
32
0
13
2.27765387406
23
6.55
33
0
0
SOLID
5
95
100
AcDbEntity
8
dimension
6
CONTINUOUS
62
7
370
0
100
AcDbTrace
10
2.31928233984
20
0.8
30
0
11
2.27765387406
21
1.05
31
0
12
2.36091080562
22
1.05
32
0
13
2.36091080562
23
1.05
33
0
0
MTEXT
5
96
100
AcDbEntity
8
dimension
6
CONTINUOUS
62
7
370
0
100
AcDbMText
10
2.16928233984
20
3.8
30
0
40
0.25
41
0.111111111111
71
5
72
1
1
6
7
standard
210
0
220
0
230
1
50
90
73
2
44
1
0
LINE
5
97
100
AcDbEntity
8
dimension
6
CONTINUOUS
62
7
370
0
100
AcDbLine
10
1.525
20
6.8
11
2.36928233984
21
6.8
0
LINE
5
98
100
AcDbEntity
8
dimension
6
CONTINUOUS
62
7
370
0
100
AcDbLine
10
1.525
20
0.8
11
2.36928233984
21
0.8
0
ENDBLK
5
5C
330
5A
100
AcDbEntity
8
0
100
AcDbBlockEnd
0
BLOCK
5
5E
330
5D
100
AcDbEntity
8
0
100
AcDbBlockBegin
2
*D16
70
1
10
0
20
0
3
*D16
1

0
LINE
5
99
100
AcDbEntity
8
dimension
6
CONTINUOUS
62
7
370
0
100
AcDbLine
10
-2.7024270567
20
11.9825888606
11
-1.7975729433
21
11.0174111394
0
SOLID
5
9A
100
AcDbEntity
8
dimension
6
CONTINUOUS
62
7
370
0
100
AcDbTrace
10
-2.36045649231
20
11.6178202585
30
0
11
-2.56181128904
21
11.7717331397
31
0
12
-2.50107225996
22
11.8286759794
32
0
13
-2.50107225996
23
11.8286759794
33
0
0
SOLID
5
9B
100
AcDbEntity
8
dimension
6
CONTINUOUS
62
7
370
0
100
AcDbTrace
10
-2.13954350769
20
11.3821797415
30
0
11
-1.93818871096
21
11.2282668603
31
0
12
-1.99892774004
22
11.1713240206
32
0
13
-1.99892774004
23
11.1713240206
33
0
0
MTEXT
5
9C
100
AcDbEntity
8
dimension
6
CONTINUOUS
62
7
370
0
100
AcDbMText
10
-1.74703729322
20
11.1828235679
30
0
40
0.25
41
0.777777777778
71
5
72
1
1
0.323
7
standard
210
0
220
0
230
1
50
313.152389725
73
2
44
1
0
ENDBLK
5
5F
330
5D
100
AcDbEntity
8
0
100
AcDbBlockEnd
0
BLOCK
5
61
330
60
100
AcDbEntity
8
0
100
AcDbBlockBegin
2
*D17
70
1
10
0
20
0
3
*D17
1

0
LINE
5
9D
100
AcDbEntity
8
dimension
6
CONTINUOUS
62
7
370
0
100
AcDbLine
10
-1.00516916226
20
11.7747975594
11
-0.494830837737
21
11.2252024406
0
SOLID
5
9E
100
AcDbEntity
8
dimension
6
CONTINUOUS
62
7
370
0
100
AcDbTrace
10
-1.00516916226
20
11.7747975594
30
0
11
-0.804551318642
21
11.6199253218
31
0
12
-0.865561456222
22
11.5632730512
32
0
13
-0.865561456222
23
11.5632730512
33
0
0
SOLID
5
9F
100
AcDbEntity
8
dimension
6
CONTINUOUS
62
7
370
0
100
AcDbTrace
10
-0.494830837737
20
11.2252024406
30
0
11
-0.695448681355
21
11.3800746782
31
0
12
-0.634438543775
22
11.4367269488
32
0
13
-0.634438543775
23
11.4367269488
33
0
0
MTEXT
5
A0
100
AcDbEntity
8
dimension
6
CONTINUOUS
62
7
370
0
100
AcDbMText
10
-0.640080976256
20
11.6020676649
30
0
40
0.25
41
0.583333333333
71
5
72
1
1
0.75
7
standard
210
0
220
0
230
1
50
312.878903599
73
2
44
1
0
ENDBLK
5
62
330
60
100
AcDbEntity
8
0
100
AcDbBlockEnd
0
BLOCK
5
64
330
63
100
AcDbEntity
8
0
100
AcDbBlockBegin
2
*D7
70
1
10
0
20
0
3
*D7
1

0
LINE
5
A1
100
AcDbEntity
8
dimension
6
CONTINUOUS
62
7
370
0
100
AcDbLine
10
-1.5
20
0.527765581333
11
-4.25
21
0.527765581333
0
SOLID
5
A2
100
AcDbEntity
8
dimension
6
CONTINUOUS
62
7
370
0
100
AcDbTrace
10
-1.5
20
0.527765581333
30
0
11
-1.75
21
0.486137115556
31
0
12
-1.75
22
0.56939404711
32
0
13
-1.75
23
0.56939404711
33
0
0
SOLID
5
A3
100
AcDbEntity
8
dimension
6
CONTINUOUS
62
7
370
0
100
AcDbTrace
10
-4.25
20
0.527765581333
30
0
11
-4
21
0.56939404711
31
0
12
-4
22
0.486137115556
32
0
13
-4
23
0.486137115556
33
0
0
MTEXT
5
A4
100
AcDbEntity
8
dimension
6
CONTINUOUS
62
7
370
0
100
AcDbMText
10
-2.875
20
0.677765581333
30
0
40
0.25
41
0.583333333333
71
5
72
1
1
2.75
7
standard
210
0
220
0
230
1
50
360
73
2
44
1
0
LINE
5
A5
100
AcDbEntity
8
dimension
6
CONTINUOUS
62
7
370
0
100
AcDbLine
10
-1.5
20
0.275
11
-1.5
21
0.577765581333
0
LINE
5
A6
100
AcDbEntity
8
dimension
6
CONTINUOUS
62
7
370
0
100
AcDbLine
10
-4.25
20
0.275
11
-4.25
21
0.577765581333
0
ENDBLK
5
65
330
63
100
AcDbEntity
8
0
100
AcDbBlockEnd
0
BLOCK
5
67
330
66
100
AcDbEntity
8
0
100
AcDbBlockBegin
2
*D8
70
1
10
0
20
0
3
*D8
1

0
LINE
5
A7
100
AcDbEntity
8
dimension
6
CONTINUOUS
62
7
370
0
100
AcDbLine
10
-4.25
20
-0.92341796864
11
2.75
21
-0.92341796864
0
SOLID
5
A8
100
AcDbEntity
8
dimension
6
CONTINUOUS
62
7
370
0
100
AcDbTrace
10
-4.25
20
-0.92341796864
30
0
11
-4
21
-0.881789502863
31
0
12
-4
22
-0.965046434417
32
0
13
-4
23
-0.965046434417
33
0
0
SOLID
5
A9
100
AcDbEntity
8
dimension
6
CONTINUOUS
62
7
370
0
100
AcDbTrace
10
2.75
20
-0.92341796864
30
0
11
2.5
21
-0.965046434417
31
0
12
2.5
22
-0.881789502863
32
0
13
2.5
23
-0.881789502863
33
0
0
MTEXT
5
AA
100
AcDbEntity
8
dimension
6
CONTINUOUS
62
7
370
0
100
AcDbMText
10
-0.75
20
-0.77341796864
30
0
40
0.25
41
0.111111111111
71
5
72
1
1
7
7
standard
210
0
220
0
230
1
50
0
73
2
44
1
0
LINE
5
AB
100
AcDbEntity
8
dimension
6
CONTINUOUS
62
7
370
0
100
AcDbLine
10
-4.25
20
-0.025
11
-4.25
21
-0.97341796864
0
LINE
5
AC
100
AcDbEntity
8
dimension
6
CONTINUOUS
62
7
370
0
100
AcDbLine
10
2.75
20
-0.025
11
2.75
21
-0.97341796864
0
ENDBLK
5
68
330
66
100
AcDbEntity
8
0
100
AcDbBlockEnd
0
BLOCK
5
6A
330
69
100
AcDbEntity
8
0
100
AcDbBlockBegin
2
*D9
70
1
10
0
20
0
3
*D9
1

0
LINE
5
AD
100
AcDbEntity
8
dimension
6
CONTINUOUS
62
7
370
0
100
AcDbLine
10
-2.25
20
14.3486267425
11
-0.75
21
14.3486267425
0
SOLID
5
AE
100
AcDbEntity
8
dimension
6
CONTINUOUS
62
7
370
0
100
AcDbTrace
10
-2.25
20
14.3486267425
30
0
11
-2
21
14.3902552083
31
0
12
-2
22
14.3069982767
32
0
13
-2
23
14.3069982767
33
0
0
SOLID
5
AF
100
AcDbEntity
8
dimension
6
CONTINUOUS
62
7
370
0
100
AcDbTrace
10
-0.75
20
14.3486267425
30
0
11
-1
21
14.3069982767
31
0
12
-1
22
14.3902552083
32
0
13
-1
23
14.3902552083
33
0
0
MTEXT
5
B0
100
AcDbEntity
8
dimension
6
CONTINUOUS
62
7
370
0
100
AcDbMText
10
-1.5
20
14.4986267425
30
0
40
0.25
41
0.333333333333
71
5
72
1
1
1.5
7
standard
210
0
220
0
230
1
50
0
73
2
44
1
0
LINE
5
B1
100
AcDbEntity
8
dimension
6
CONTINUOUS
62
7
370
0
100
AcDbLine
10
-2.25
20
13.025
11
-2.25
21
14.3986267425
0
LINE
5
B2
100
AcDbEntity
8
dimension
6
CONTINUOUS
62
7
370
0
100
AcDbLine
10
-0.75
20
13.025
11
-0.75
21
14.3986267425
0
ENDBLK
5
6B
330
69
100
AcDbEntity
8
0
100
AcDbBlockEnd
0
BLOCK
5
6D
330
6C
100
AcDbEntity
8
0
100
AcDbBlockBegin
2
*D10
70
1
10
0
20
0
3
*D10
1

0
LINE
5
B3
100
AcDbEntity
8
dimension
6
CONTINUOUS
62
7
370
0
100
AcDbLine
10
-0.75
20
14.3266365099
11
0.75
21
14.3266365099
0
SOLID
5
B4
100
AcDbEntity
8
dimension
6
CONTINUOUS
62
7
370
0
100
AcDbTrace
10
-0.75
20
14.3266365099
30
0
11
-0.5
21
14.3682649757
31
0
12
-0.5
22
14.2850080441
32
0
13
-0.5
23
14.2850080441
33
0
0
SOLID
5
B5
100
AcDbEntity
8
dimension
6
CONTINUOUS
62
7
370
0
100
AcDbTrace
10
0.75
20
14.3266365099
30
0
11
0.5
21
14.2850080441
31
0
12
0.5
22
14.3682649757
32
0
13
0.5
23
14.3682649757
33
0
0
MTEXT
5
B6
100
AcDbEntity
8
dimension
6
CONTINUOUS
62
7
370
0
100
AcDbMText
10
-4.63263002377e-17
20
14.4766365099
30
0
40
0.25
41
0.333333333333
71
5
72
1
1
1.5
7
standard
210
0
220
0
230
1
50
0
73
2
44
1
0
LINE
5
B7
100
AcDbEntity
8
dimension
6
CONTINUOUS
62
7
370
0
100
AcDbLine
10
-0.75
20
13.025
11
-0.75
21
14.3766365099
0
LINE
5
B8
100
AcDbEntity
8
dimension
6
CONTINUOUS
62
7
370
0
100
AcDbLine
10
0.75
20
13.025
11
0.75
21
14.3766365099
0
ENDBLK
5
6E
330
6C
100
AcDbEntity
8
0
100
AcDbBlockEnd
0
BLOCK
5
70
330
6F
100
AcDbEntity
8
0
100
AcDbBlockBegin
2
*D1
70
1
10
0
20
0
3
*D1
1

0
LINE
5
B9
100
AcDbEntity
8
dimension
6
CONTINUOUS
62
7
370
0
100
AcDbLine
10
-5.9813432551
20
13.625
11
-5.9813432551
21
10.875
0
SOLID
5
BA
100
AcDbEntity
8
dimension
6
CONTINUOUS
62
7
370
0
100
AcDbTrace
10
-5.9813432551
20
13.625
30
0
11
-5.93971478932
21
13.375
31
0
12
-6.02297172088
22
13.375
32
0
13
-6.02297172088
23
13.375
33
0
0
SOLID
5
BB
100
AcDbEntity
8
dimension
6
CONTINUOUS
62
7
370
0
100
AcDbTrace
10
-5.9813432551
20
10.875
30
0
11
-6.02297172088
21
11.125
31
0
12
-5.93971478932
22
11.125
32
0
13
-5.93971478932
23
11.125
33
0
0
MTEXT
5
BC
100
AcDbEntity
8
dimension
6
CONTINUOUS
62
7
370
0
100
AcDbMText
10
-6.1313432551
20
12.25
30
0
40
0.25
41
0.583333333333
71
5
72
1
1
2.75
7
standard
210
0
220
0
230
1
50
90
73
2
44
1
0
LINE
5
BD
100
AcDbEntity
8
dimension
6
CONTINUOUS
62
7
370
0
100
AcDbLine
10
-4.0875
20
13.625
11
-6.0313432551
21
13.625
0
LINE
5
BE
100
AcDbEntity
8
dimension
6
CONTINUOUS
62
7
370
0
100
AcDbLine
10
-4.0875
20
10.875
11
-6.0313432551
21
10.875
0
ENDBLK
5
71
330
6F
100
AcDbEntity
8
0
100
AcDbBlockEnd
0
BLOCK
5
73
330
72
100
AcDbEntity
8
0
100
AcDbBlockBegin
2
*D3
70
1
10
0
20
0
3
*D3
1

0
LINE
5
BF
100
AcDbEntity
8
dimension
6
CONTINUOUS
62
7
370
0
100
AcDbLine
10
-3.75
20
14.3486267425
11
-2.25
21
14.3486267425
0
SOLID
5
C0
100
AcDbEntity
8
dimension
6
CONTINUOUS
62
7
370
0
100
AcDbTrace
10
-3.75
20
14.3486267425
30
0
11
-3.5
21
14.3902552083
31
0
12
-3.5
22
14.3069982767
32
0
13
-3.5
23
14.3069982767
33
0
0
SOLID
5
C1
100
AcDbEntity
8
dimension
6
CONTINUOUS
62
7
370
0
100
AcDbTrace
10
-2.25
20
14.3486267425
30
0
11
-2.5
21
14.3069982767
31
0
12
-2.5
22
14.3902552083
32
0
13
-2.5
23
14.3902552083
33
0
0
MTEXT
5
C2
100
AcDbEntity
8
dimension
6
CONTINUOUS
62
7
370
0
100
AcDbMText
10
-3
20
14.4986267425
30
0
40
0.25
41
0.333333333333
71
5
72
1
1
1.5
7
standard
210
0
220
0
230
1
50
0
73
2
44
1
0
LINE
5
C3
100
AcDbEntity
8
dimension
6
CONTINUOUS
62
7
370
0
100
AcDbLine
10
-3.75
20
13.025
11
-3.75
21
14.3986267425
0
LINE
5
C4
100
AcDbEntity
8
dimension
6
CONTINUOUS
62
7
370
0
100
AcDbLine
10
-2.25
20
13.025
11
-2.25
21
14.3986267425
0
ENDBLK
5
74
330
72
100
AcDbEntity
8
0
100
AcDbBlockEnd
0
BLOCK
5
76
330
75
100
AcDbEntity
8
0
100
AcDbBlockBegin
2
*D11
70
1
10
0
20
0
3
*D11
1

0
LINE
5
C5
100
AcDbEntity
8
dimension
6
CONTINUOUS
62
7
370
0
100
AcDbLine
10
0.75
20
14.3266365099
11
2.25
21
14.3266365099
0
SOLID
5
C6
100
AcDbEntity
8
dimension
6
CONTINUOUS
62
7
370
0
100
AcDbTrace
10
0.75
20
14.3266365099
30
0
11
1
21
14.3682649757
31
0
12
1
22
14.2850080441
32
0
13
1
23
14.2850080441
33
0
0
SOLID
5
C7
100
AcDbEntity
8
dimension
6
CONTINUOUS
62
7
370
0
100
AcDbTrace
10
2.25
20
14.3266365099
30
0
11
2
21
14.2850080441
31
0
12
2
22
14.3682649757
32
0
13
2
23
14.3682649757
33
0
0
MTEXT
5
C8
100
AcDbEntity
8
dimension
6
CONTINUOUS
62
7
370
0
100
AcDbMText
10
1.5
20
14.4766365099
30
0
40
0.25
41
0.333333333333
71
5
72
1
1
1.5
7
standard
210
0
220
0
230
1
50
0
73
2
44
1
0
LINE
5
C9
100
AcDbEntity
8
dimension
6
CONTINUOUS
62
7
370
0
100
AcDbLine
10
0.75
20
13.025
11
0.75
21
14.3766365099
0
LINE
5
CA
100
AcDbEntity
8
dimension
6
CONTINUOUS
62
7
370
0
100
AcDbLine
10
2.25
20
13.025
11
2.25
21
14.3766365099
0
ENDBLK
5
77
330
75
100
AcDbEntity
8
0
100
AcDbBlockEnd
0
BLOCK
5
79
330
78
100
AcDbEntity
8
0
100
AcDbBlockBegin
2
*D4
70
1
10
0
20
0
3
*D4
1

0
LINE
5
CB
100
AcDbEntity
8
dimension
6
CONTINUOUS
62
7
370
0
100
AcDbLine
10
-4.25
20
9.40597837824
11
2.75
21
9.40597837824
0
SOLID
5
CC
100
AcDbEntity
8
dimension
6
CONTINUOUS
62
7
370
0
100
AcDbTrace
10
-4.25
20
9.40597837824
30
0
11
-4
21
9.44760684402
31
0
12
-4
22
9.36434991246
32
0
13
-4
23
9.36434991246
33
0
0
SOLID
5
CD
100
AcDbEntity
8
dimension
6
CONTINUOUS
62
7
370
0
100
AcDbTrace
10
2.75
20
9.40597837824
30
0
11
2.5
21
9.36434991246
31
0
12
2.5
22
9.44760684402
32
0
13
2.5
23
9.44760684402
33
0
0
MTEXT
5
CE
100
AcDbEntity
8
dimension
6
CONTINUOUS
62
7
370
0
100
AcDbMText
10
-0.75
20
9.55597837824
30
0
40
0.25
41
0.111111111111
71
5
72
1
1
7
7
standard
210
0
220
0
230
1
50
0
73
2
44
1
0
LINE
5
CF
100
AcDbEntity
8
dimension
6
CONTINUOUS
62
7
370
0
100
AcDbLine
10
-4.25
20
11.0375
11
-4.25
21
9.35597837824
0
LINE
5
D0
100
AcDbEntity
8
dimension
6
CONTINUOUS
62
7
370
0
100
AcDbLine
10
2.75
20
11.0375
11
2.75
21
9.35597837824
0
ENDBLK
5
7A
330
78
100
AcDbEntity
8
0
100
AcDbBlockEnd
0
BLOCK
5
7C
330
7B
100
AcDbEntity
8
0
100
AcDbBlockBegin
2
*D12
70
1
10
0
20
0
3
*D12
1

0
LINE
5
D1
100
AcDbEntity
8
dimension
6
CONTINUOUS
62
7
370
0
100
AcDbLine
10
1.75
20
14.3270763146
11
3.25
21
14.3270763146
0
SOLID
5
D2
100
AcDbEntity
8
dimension
6
CONTINUOUS
62
7
370
0
100
AcDbTrace
10
2.25
20
14.3270763146
30
0
11
2
21
14.2854478488
31
0
12
2
22
14.3687047804
32
0
13
2
23
14.3687047804
33
0
0
SOLID
5
D3
100
AcDbEntity
8
dimension
6
CONTINUOUS
62
7
370
0
100
AcDbTrace
10
2.75
20
14.3270763146
30
0
11
3
21
14.3687047804
31
0
12
3
22
14.2854478488
32
0
13
3
23
14.2854478488
33
0
0
MTEXT
5
D4
100
AcDbEntity
8
dimension
6
CONTINUOUS
62
7
370
0
100
AcDbMText
10
2.5
20
14.4770763146
30
0
40
0.25
41
0.388888888889
71
5
72
1
1
0.5
7
standard
210
0
220
0
230
1
50
0
73
2
44
1
0
LINE
5
D5
100
AcDbEntity
8
dimension
6
CONTINUOUS
62
7
370
0
100
AcDbLine
10
2.25
20
13.025
11
2.25
21
14.3770763146
0
LINE
5
D6
100
AcDbEntity
8
dimension
6
CONTINUOUS
62
7
370
0
100
AcDbLine
10
2.75
20
13.4625
11
2.75
21
14.3770763146
0
ENDBLK
5
7D
330
7B
100
AcDbEntity
8
0
100
AcDbBlockEnd
0
BLOCK
5
7F
330
7E
100
AcDbEntity
8
0
100
AcDbBlockBegin
2
*D5
70
1
10
0
20
0
3
*D5
1

0
LINE
5
D7
100
AcDbEntity
8
dimension
6
CONTINUOUS
62
7
370
0
100
AcDbLine
10
3.60777252864
20
0.8
11
3.60777252864
21
-5.33298534265e-17
0
SOLID
5
D8
100
AcDbEntity
8
dimension
6
CONTINUOUS
62
7
370
0
100
AcDbTrace
10
3.60777252864
20
0.8
30
0
11
3.64940099442
21
0.55
31
0
12
3.56614406286
22
0.55
32
0
13
3.56614406286
23
0.55
33
0
0
SOLID
5
D9
100
AcDbEntity
8
dimension
6
CONTINUOUS
62
7
370
0
100
AcDbTrace
10
3.60777252864
20
-5.33298534265e-17
30
0
11
3.56614406286
21
0.25
31
0
12
3.64940099442
22
0.25
32
0
13
3.64940099442
23
0.25
33
0
0
MTEXT
5
DA
100
AcDbEntity
8
dimension
6
CONTINUOUS
62
7
370
0
100
AcDbMText
10
3.45777252864
20
0.4
30
0
40
0.25
41
0.388888888889
71
5
72
1
1
0.8
7
standard
210
0
220
0
230
1
50
90
73
2
44
1
0
LINE
5
DB
100
AcDbEntity
8
dimension
6
CONTINUOUS
62
7
370
0
100
AcDbLine
10
2.775
20
0.8
11
3.65777252864
21
0.8
0
LINE
5
DC
100
AcDbEntity
8
dimension
6
CONTINUOUS
62
7
370
0
100
AcDbLine
10
2.775
20
0
11
3.65777252864
21
-5.33298534265e-17
0
ENDBLK
5
80
330
7E
100
AcDbEntity
8
0
100
AcDbBlockEnd
0
BLOCK
5
82
330
81
100
AcDbEntity
8
0
100
AcDbBlockBegin
2
*D13
70
1
10
0
20
0
3
*D13
1

0
LINE
5
DD
100
AcDbEntity
8
dimension
6
CONTINUOUS
62
7
370
0
100
AcDbLine
10
-5.42683755098
20
11.5
11
-5.42683755098
21
10.875
0
SOLID
5
DE
100
AcDbEntity
8
dimension
6
CONTINUOUS
62
7
370
0
100
AcDbTrace
10
-5.42683755098
20
11.5
30
0
11
-5.3852090852
21
11.25
31
0
12
-5.46846601676
22
11.25
32
0
13
-5.46846601676
23
11.25
33
0
0
SOLID
5
DF
100
AcDbEntity
8
dimension
6
CONTINUOUS
62
7
370
0
100
AcDbTrace
10
-5.42683755098
20
10.875
30
0
11
-5.46846601676
21
11.125
31
0
12
-5.3852090852
22
11.125
32
0
13
-5.3852090852
23
11.125
33
0
0
MTEXT
5
E0
100
AcDbEntity
8
dimension
6
CONTINUOUS
62
7
370
0
100
AcDbMText
10
-5.57683755098
20
11.9138888889
30
0
40
0.25
41
0.777777777778
71
5
72
1
1
0.625
7
standard
210
0
220
0
230
1
50
90
73
2
44
1
0
LINE
5
E1
100
AcDbEntity
8
dimension
6
CONTINUOUS
62
7
370
0
100
AcDbLine
10
-3.775
20
11.5
11
-5.47683755098
21
11.5
0
LINE
5
E2
100
AcDbEntity
8
dimension
6
CONTINUOUS
62
7
370
0
100
AcDbLine
10
-4.0875
20
10.875
11
-5.47683755098
21
10.875
0
ENDBLK
5
83
330
81
100
AcDbEntity
8
0
100
AcDbBlockEnd
0
BLOCK
5
85
330
84
100
AcDbEntity
8
0
100
AcDbBlockBegin
2
*D15
70
1
10
0
20
0
3
*D15
1

0
LINE
5
E3
100
AcDbEntity
8
dimension
6
CONTINUOUS
62
7
370
0
100
AcDbLine
10
-1.5
20
7.37016387994
11
1.5
21
7.37016387994
0
SOLID
5
E4
100
AcDbEntity
8
dimension
6
CONTINUOUS
62
7
370
0
100
AcDbTrace
10
-1.5
20
7.37016387994
30
0
11
-1.25
21
7.41179234572
31
0
12
-1.25
22
7.32853541416
32
0
13
-1.25
23
7.32853541416
33
0
0
SOLID
5
E5
100
AcDbEntity
8
dimension
6
CONTINUOUS
62
7
370
0
100
AcDbTrace
10
1.5
20
7.37016387994
30
0
11
1.25
21
7.32853541416
31
0
12
1.25
22
7.41179234572
32
0
13
1.25
23
7.41179234572
33
0
0
MTEXT
5
E6
100
AcDbEntity
8
dimension
6
CONTINUOUS
62
7
370
0
100
AcDbMText
10
9.18485099361e-18
20
7.52016387994
30
0
40
0.25
41
0.111111111111
71
5
72
1
1
3
7
standard
210
0
220
0
230
1
50
0
73
2
44
1
0
LINE
5
E7
100
AcDbEntity
8
dimension
6
CONTINUOUS
62
7
370
0
100
AcDbLine
10
-1.5
20
6.825
11
-1.5
21
7.42016387994
0
LINE
5
E8
100
AcDbEntity
8
dimension
6
CONTINUOUS
62
7
370
0
100
AcDbLine
10
1.5
20
6.825
11
1.5
21
7.42016387994
0
ENDBLK
5
86
330
84
100
AcDbEntity
8
0
100
AcDbBlockEnd
0
ENDSEC
0
SECTION
2
ENTITIES
0
HATCH
5
E9
100
AcDbEntity
8
5/16_screw_pocket_top_hatch
6
ByLayer
62
256
370
-1
100
AcDbHatch
10
0
20
0
30
0
210
0
220
0
230
1
2
ansi31
70
0
71
0
91
1
92
0
93
4
72
2
10
2.25
20
13
40
0.1615
50
0
51
360
73
1
72
2
10
2.25
20
11.5
40
0.1615
50
0
51
360
73
1
72
2
10
2.25
20
13
40
0.375
50
0
51
360
73
1
72
2
10
2.25
20
11.5
40
0.375
50
0
51
360
73
1
97
0
75
0
76
1
52
0
41
0.05
77
0
78
0
98
0
0
HATCH
5
EA
100
AcDbEntity
8
5/16_screw_pocket_bot_hatch
6
ByLayer
62
256
370
-1
100
AcDbHatch
10
0
20
0
30
0
210
0
220
0
230
1
2
ansi31
70
0
71
0
91
1
92
0
93
8
72
2
10
-0.75
20
13
40
0.1615
50
0
51
360
73
1
72
2
10
-0.75
20
11.5
40
0.1615
50
0
51
360
73
1
72
2
10
0.75
20
11.5
40
0.1615
50
0
51
360
73
1
72
2
10
0.75
20
13
40
0.1615
50
0
51
360
73
1
72
2
10
-0.75
20
13
40
0.375
50
0
51
360
73
1
72
2
10
-0.75
20
11.5
40
0.375
50
0
51
360
73
1
72
2
10
0.75
20
11.5
40
0.375
50
0
51
360
73
1
72
2
10
0.75
20
13
40
0.375
50
0
51
360
73
1
97
0
75
0
76
1
52
0
41
0.05
77
0
78
0
98
0
0
HATCH
5
EB
100
AcDbEntity
8
rail_pocket_hatch
6
ByLayer
62
256
370
-1
100
AcDbHatch
10
0
20
0
30
0
210
0
220
0
230
1
2
ansi31
70
0
71
0
91
1
92
0
93
10
72
2
10
-2.25
20
13
40
0.1615
50
0
51
360
73
1
72
2
10
-2.25
20
11.5
40
0.1615
50
0
51
360
73
1
72
2
10
-3.75
20
13
40
0.1615
50
0
51
360
73
1
72
2
10
-3.75
20
11.5
40
0.1615
50
0
51
360
73
1
72
1
10
-1.5
20
13.625
11
-1.5
21
10.875
72
1
10
-1.5
20
10.875
11
-4.0625
21
10.875
72
2
10
-4.0625
20
11.0625
40
0.1875
50
90
51
180
73
0
72
1
10
-4.25
20
11.0625
11
-4.25
21
13.4375
72
2
10
-4.0625
20
13.4375
40
0.1875
50
180
51
270
73
0
72
1
10
-4.0625
20
13.625
11
-1.5
21
13.625
97
0
75
0
76
1
52
0
41
0.05
77
0
78
0
98
0
0
LINE
5
EC
100
AcDbEntity
8
boundary
6
ByLayer
62
256
370
-1
100
AcDbLine
10
2.75
20
0
11
-4.25
21
0
0
LINE
5
ED
100
AcDbEntity
8
boundary
6
ByLayer
62
256
370
-1
100
AcDbLine
10
2.75
20
0.8
11
2.75
21
0
0
LINE
5
EE
100
AcDbEntity
8
boundary
6
ByLayer
62
256
370
-1
100
AcDbLine
10
-1.5
20
0.25
11
-4.25
21
0.25
0
LINE
5
EF
100
AcDbEntity
8
boundary
6
ByLayer
62
256
370
-1
100
AcDbLine
10
-4.25
20
0
11
-4.25
21
0.25
0
LINE
5
F0
100
AcDbEntity
8
boundary
6
ByLayer
62
256
370
-1
100
AcDbLine
10
-1.5
20
0.8
11
-1.5
21
0.25
0
LINE
5
F1
100
AcDbEntity
8
5/16_through_hole_side
6
ByLayer
62
256
370
-1
100
AcDbLine
10
-3.9115
20
0.25
11
-3.9115
21
-0
0
LINE
5
F2
100
AcDbEntity
8
5/16_through_hole_side
6
ByLayer
62
256
370
-1
100
AcDbLine
10
-3.5885
20
0.25
11
-3.5885
21
-0
0
LINE
5
F3
100
AcDbEntity
8
5/16_through_hole_side
6
ByLayer
62
256
370
-1
100
AcDbLine
10
-2.4115
20
0.25
11
-2.4115
21
-0
0
LINE
5
F4
100
AcDbEntity
8
5/16_through_hole_side
6
ByLayer
62
256
370
-1
100
AcDbLine
10
-2.0885
20
0.25
11
-2.0885
21
-0
0
LINE
5
F5
100
AcDbEntity
8
5/16_screw_pocket_side
6
ByLayer
62
256
370
-1
100
AcDbLine
10
-1.125
20
-0
11
-1.125
21
0.375
0
LINE
5
F6
100
AcDbEntity
8
5/16_screw_pocket_side
6
ByLayer
62
256
370
-1
100
AcDbLine
10
-0.375
20
0
11
-0.375
21
0.375
0
LINE
5
F7
100
AcDbEntity
8
5/16_screw_pocket_side
6
ByLayer
62
256
370
-1
100
AcDbLine
10
0.375
20
-0
11
0.375
21
0.375
0
LINE
5
F8
100
AcDbEntity
8
5/16_screw_pocket_side
6
ByLayer
62
256
370
-1
100
AcDbLine
10
1.125
20
0
11
1.125
21
0.375
0
LINE
5
F9
100
AcDbEntity
8
5/16_screw_pocket_side
6
ByLayer
62
256
370
-1
100
AcDbLine
10
1.875
20
0.8
11
1.875
21
0.425
0
LINE
5
FA
100
AcDbEntity
8
5/16_screw_pocket_side
6
ByLayer
62
256
370
-1
100
AcDbLine
10
2.625
20
0.8
11
2.625
21
0.425
0
LINE
5
FB
100
AcDbEntity
8
5/16_through_hole_side
6
ByLayer
62
256
370
-1
100
AcDbLine
10
-0.9115
20
0.8
11
-0.9115
21
0.375
0
LINE
5
FC
100
AcDbEntity
8
5/16_through_hole_side
6
ByLayer
62
256
370
-1
100
AcDbLine
10
-0.5885
20
0.8
11
-0.5885
21
0.375
0
LINE
5
FD
100
AcDbEntity
8
5/16_through_hole_side
6
ByLayer
62
256
370
-1
100
AcDbLine
10
0.5885
20
0.8
11
0.5885
21
0.375
0
LINE
5
FE
100
AcDbEntity
8
5/16_through_hole_side
6
ByLayer
62
256
370
-1
100
AcDbLine
10
0.9115
20
0.8
11
0.9115
21
0.375
0
LINE
5
FF
100
AcDbEntity
8
5/16_screw_pocket_side
6
ByLayer
62
256
370
-1
100
AcDbLine
10
-1.125
20
0.375
11
-0.9115
21
0.375
0
LINE
5
100
100
AcDbEntity
8
5/16_screw_pocket_side
6
ByLayer
62
256
370
-1
100
AcDbLine
10
-0.5885
20
0.375
11
-0.375
21
0.375
0
LINE
5
101
100
AcDbEntity
8
5/16_screw_pocket_side
6
ByLayer
62
256
370
-1
100
AcDbLine
10
0.375
20
0.375
11
0.5885
21
0.375
0
LINE
5
102
100
AcDbEntity
8
5/16_screw_pocket_side
6
ByLayer
62
256
370
-1
100
AcDbLine
10
0.9115
20
0.375
11
1.125
21
0.375
0
LINE
5
103
100
AcDbEntity
8
5/16_screw_pocket_side
6
ByLayer
62
256
370
-1
100
AcDbLine
10
1.875
20
0.425
11
2.0885
21
0.425
0
LINE
5
104
100
AcDbEntity
8
5/16_screw_pocket_side
6
ByLayer
62
256
370
-1
100
AcDbLine
10
2.4115
20
0.425
11
2.625
21
0.425
0
LINE
5
105
100
AcDbEntity
8
5/16_through_hole_side
6
ByLayer
62
256
370
-1
100
AcDbLine
10
2.0885
20
0.425
11
2.0885
21
-0
0
LINE
5
106
100
AcDbEntity
8
5/16_through_hole_side
6
ByLayer
62
256
370
-1
100
AcDbLine
10
2.4115
20
0.425
11
2.4115
21
-0
0
LINE
5
107
100
AcDbEntity
8
gantry_viz
6
ByLayer
62
256
370
-1
100
AcDbLine
10
-1.5
20
6.8
11
1.5
21
6.8
0
LINE
5
108
100
AcDbEntity
8
gantry_viz
6
ByLayer
62
256
370
-1
100
AcDbLine
10
1.5
20
6.8
11
1.5
21
0.8
0
LINE
5
109
100
AcDbEntity
8
gantry_viz
6
ByLayer
62
256
370
-1
100
AcDbLine
10
1.5
20
0.8
11
-1.5
21
0.8
0
LINE
5
10A
100
AcDbEntity
8
gantry_viz
6
ByLayer
62
256
370
-1
100
AcDbLine
10
-1.5
20
0.8
11
-1.5
21
6.8
0
LINE
5
10B
100
AcDbEntity
8
gantry_viz
6
ByLayer
62
256
370
-1
100
AcDbLine
10
-1.5
20
0.8
11
-1.5
21
1.55
0
LINE
5
10C
100
AcDbEntity
8
gantry_viz
6
ByLayer
62
256
370
-1
100
AcDbLine
10
-1.5
20
1.55
11
-1.5
21
0.3
0
LINE
5
10D
100
AcDbEntity
8
gantry_viz
6
ByLayer
62
256
370
-1
100
AcDbLine
10
-1.5
20
1.55
11
-1.5
21
2.8
0
LINE
5
10E
100
AcDbEntity
8
gantry_viz
6
ByLayer
62
256
370
-1
100
AcDbLine
10
-1.5
20
2.8
11
-1.75
21
2.8
0
LINE
5
10F
100
AcDbEntity
8
gantry_viz
6
ByLayer
62
256
370
-1
100
AcDbLine
10
-1.5
20
0.3
11
-1.75
21
0.3
0
LINE
5
110
100
AcDbEntity
8
gantry_viz
6
ByLayer
62
256
370
-1
100
AcDbLine
10
-1.75
20
2.8
11
-1.75
21
0.3
0
LINE
5
111
100
AcDbEntity
8
gantry_viz
6
ByLayer
62
256
370
-1
100
AcDbLine
10
-1.75
20
7.3
11
-1.5
21
7.3
0
LINE
5
112
100
AcDbEntity
8
gantry_viz
6
ByLayer
62
256
370
-1
100
AcDbLine
10
-1.5
20
7.3
11
-1.5
21
4.8
0
LINE
5
113
100
AcDbEntity
8
gantry_viz
6
ByLayer
62
256
370
-1
100
AcDbLine
10
-1.5
20
4.8
11
-1.75
21
4.8
0
LINE
5
114
100
AcDbEntity
8
gantry_viz
6
ByLayer
62
256
370
-1
100
AcDbLine
10
-1.75
20
4.8
11
-1.75
21
7.3
0
LINE
5
115
100
AcDbEntity
8
gantry_viz
6
ByLayer
62
256
370
-1
100
AcDbLine
10
-1.5
20
10
11
1.5
21
10
0
CIRCLE
5
116
100
AcDbEntity
8
5/16-through_hole
6
ByLayer
62
256
370
-1
100
AcDbCircle
10
-0.75
20
13
40
0.1615
0
CIRCLE
5
117
100
AcDbEntity
8
5/16-through_hole
6
ByLayer
62
256
370
-1
100
AcDbCircle
10
-0.75
20
11.5
40
0.1615
0
CIRCLE
5
118
100
AcDbEntity
8
5/16-through_hole
6
ByLayer
62
256
370
-1
100
AcDbCircle
10
0.75
20
11.5
40
0.1615
0
CIRCLE
5
119
100
AcDbEntity
8
5/16-through_hole
6
ByLayer
62
256
370
-1
100
AcDbCircle
10
0.75
20
13
40
0.1615
0
CIRCLE
5
11A
100
AcDbEntity
8
5/16-through_hole
6
ByLayer
62
256
370
-1
100
AcDbCircle
10
-2.25
20
13
40
0.1615
0
CIRCLE
5
11B
100
AcDbEntity
8
5/16-through_hole
6
ByLayer
62
256
370
-1
100
AcDbCircle
10
-2.25
20
11.5
40
0.1615
0
CIRCLE
5
11C
100
AcDbEntity
8
5/16-through_hole
6
ByLayer
62
256
370
-1
100
AcDbCircle
10
2.25
20
13
40
0.1615
0
CIRCLE
5
11D
100
AcDbEntity
8
5/16-through_hole
6
ByLayer
62
256
370
-1
100
AcDbCircle
10
2.25
20
11.5
40
0.1615
0
CIRCLE
5
11E
100
AcDbEntity
8
5/16-through_hole
6
ByLayer
62
256
370
-1
100
AcDbCircle
10
-3.75
20
13
40
0.1615
0
CIRCLE
5
11F
100
AcDbEntity
8
5/16-through_hole
6
ByLayer
62
256
370
-1
100
AcDbCircle
10
-3.75
20
11.5
40
0.1615
0
LINE
5
120
100
AcDbEntity
8
gantry_viz
6
ByLayer
62
256
370
-1
100
AcDbLine
10
-1.5
20
10
11
-1.75
21
10
0
CIRCLE
5
121
100
AcDbEntity
8
5/16_screw_pocket_bot
6
ByLayer
62
256
370
-1
100
AcDbCircle
10
-0.75
20
13
40
0.375
0
CIRCLE
5
122
100
AcDbEntity
8
5/16_screw_pocket_bot
6
ByLayer
62
256
370
-1
100
AcDbCircle
10
-0.75
20
11.5
40
0.375
0
CIRCLE
5
123
100
AcDbEntity
8
5/16_screw_pocket_bot
6
ByLayer
62
256
370
-1
100
AcDbCircle
10
0.75
20
11.5
40
0.375
0
CIRCLE
5
124
100
AcDbEntity
8
5/16_screw_pocket_bot
6
ByLayer
62
256
370
-1
100
AcDbCircle
10
0.75
20
13
40
0.375
0
CIRCLE
5
125
100
AcDbEntity
8
5/16_screw_pocket_top
6
ByLayer
62
256
370
-1
100
AcDbCircle
10
2.25
20
13
40
0.375
0
CIRCLE
5
126
100
AcDbEntity
8
5/16_screw_pocket_top
6
ByLayer
62
256
370
-1
100
AcDbCircle
10
2.25
20
11.5
40
0.375
0
ARC
5
127
100
AcDbEntity
8
boundary
6
ByLayer
62
256
370
-1
100
AcDbCircle
10
-4.0625
20
13.4375
40
0.1875
100
AcDbArc
50
90
51
180
0
LINE
5
128
100
AcDbEntity
8
boundary
6
ByLayer
62
256
370
-1
100
AcDbLine
10
-4.25
20
11.0625
11
-4.25
21
13.4375
0
ARC
5
129
100
AcDbEntity
8
boundary
6
ByLayer
62
256
370
-1
100
AcDbCircle
10
-4.0625
20
11.0625
40
0.1875
100
AcDbArc
50
180
51
270
0
LINE
5
12A
100
AcDbEntity
8
boundary
6
ByLayer
62
256
370
-1
100
AcDbLine
10
-4.0625
20
13.625
11
2.5625
21
13.625
0
ARC
5
12B
100
AcDbEntity
8
boundary
6
ByLayer
62
256
370
-1
100
AcDbCircle
10
2.5625
20
13.4375
40
0.1875
100
AcDbArc
50
0
51
90
0
LINE
5
12C
100
AcDbEntity
8
boundary
6
ByLayer
62
256
370
-1
100
AcDbLine
10
2.5625
20
10.875
11
-4.0625
21
10.875
0
LINE
5
12D
100
AcDbEntity
8
boundary
6
ByLayer
62
256
370
-1
100
AcDbLine
10
2.75
20
13.4375
11
2.75
21
11.0625
0
ARC
5
12E
100
AcDbEntity
8
boundary
6
ByLayer
62
256
370
-1
100
AcDbCircle
10
2.5625
20
11.0625
40
0.1875
100
AcDbArc
50
270
51
0
0
LINE
5
12F
100
AcDbEntity
8
rail_pocket
6
ByLayer
62
256
370
-1
100
AcDbLine
10
-1.5
20
13.625
11
-1.5
21
10.875
0
LINE
5
130
100
AcDbEntity
8
rail_pocket
6
ByLayer
62
256
370
-1
100
AcDbLine
10
-4.0625
20
13.625
11
-1.5
21
13.625
0
ARC
5
131
100
AcDbEntity
8
rail_pocket
6
ByLayer
62
256
370
-1
100
AcDbCircle
10
-4.0625
20
13.4375
40
0.1875
100
AcDbArc
50
90
51
180
0
LINE
5
132
100
AcDbEntity
8
rail_pocket
6
ByLayer
62
256
370
-1
100
AcDbLine
10
-4.25
20
11.0625
11
-4.25
21
13.4375
0
LINE
5
133
100
AcDbEntity
8
rail_pocket
6
ByLayer
62
256
370
-1
100
AcDbLine
10
-1.5
20
10.875
11
-4.0625
21
10.875
0
ARC
5
134
100
AcDbEntity
8
rail_pocket
6
ByLayer
62
256
370
-1
100
AcDbCircle
10
-4.0625
20
11.0625
40
0.1875
100
AcDbArc
50
180
51
270
0
DIMENSION
5
135
100
AcDbEntity
8
dimension
6
ByLayer
62
256
370
-1
100
AcDbDimension
2
*D1
10
-5.9813432551
20
10.875
30
0
11
-6.1313432551
21
12.25
31
0
70
32
71
5
72
0
3
Standard
53
0
210
0
220
0
230
1
100
AcDbAlignedDimension
13
-4.0625
23
13.625
33
0
14
-4.0625
24
10.875
34
0
50
90
100
AcDbRotatedDimension
0
DIMENSION
5
136
100
AcDbEntity
8
dimension
6
ByLayer
62
256
370
-1
100
AcDbDimension
2
*D2
10
-4.96154622034
20
11.5
30
0
11
-5.11154622034
21
12.25
31
0
70
32
71
5
72
0
3
Standard
53
0
210
0
220
0
230
1
100
AcDbAlignedDimension
13
-3.75
23
13
33
0
14
-3.75
24
11.5
34
0
50
90
100
AcDbRotatedDimension
0
DIMENSION
5
137
100
AcDbEntity
8
dimension
6
ByLayer
62
256
370
-1
100
AcDbDimension
2
*D3
10
-2.25
20
14.3486267425
30
0
11
-3
21
14.4986267425
31
0
70
32
71
5
72
0
3
Standard
53
0
210
0
220
0
230
1
100
AcDbAlignedDimension
13
-3.75
23
13
33
0
14
-2.25
24
13
34
0
100
AcDbRotatedDimension
0
DIMENSION
5
138
100
AcDbEntity
8
dimension
6
ByLayer
62
256
370
-1
100
AcDbDimension
2
*D4
10
2.75
20
9.40597837824
30
0
11
-0.75
21
9.55597837824
31
0
70
32
71
5
72
0
3
Standard
53
0
210
0
220
0
230
1
100
AcDbAlignedDimension
13
-4.25
23
11.0625
33
0
14
2.75
24
11.0625
34
0
100
AcDbRotatedDimension
0
DIMENSION
5
139
100
AcDbEntity
8
dimension
6
ByLayer
62
256
370
-1
100
AcDbDimension
2
*D5
10
3.60777252864
20
-1.0504683816e-16
30
0
11
3.45777252864
21
0.4
31
0
70
32
71
5
72
0
3
Standard
53
0
210
0
220
0
230
1
100
AcDbAlignedDimension
13
2.75
23
0.8
33
0
14
2.75
24
0
34
0
50
90
100
AcDbRotatedDimension
0
DIMENSION
5
13A
100
AcDbEntity
8
dimension
6
ByLayer
62
256
370
-1
100
AcDbDimension
2
*D6
10
-4.83433272501
20
7.15601201317e-17
30
0
11
-4.98433272501
21
0.125
31
0
70
32
71
5
72
0
3
Standard
53
0
210
0
220
0
230
1
100
AcDbAlignedDimension
13
-4.25
23
0.25
33
0
14
-4.25
24
0
34
0
50
90
100
AcDbRotatedDimension
0
DIMENSION
5
13B
100
AcDbEntity
8
dimension
6
ByLayer
62
256
370
-1
100
AcDbDimension
2
*D7
10
-4.25
20
0.527765581333
30
0
11
-2.875
21
0.677765581333
31
0
70
32
71
5
72
0
3
Standard
53
0
210
0
220
0
230
1
100
AcDbAlignedDimension
13
-1.5
23
0.25
33
0
14
-4.25
24
0.25
34
0
100
AcDbRotatedDimension
0
DIMENSION
5
13C
100
AcDbEntity
8
dimension
6
ByLayer
62
256
370
-1
100
AcDbDimension
2
*D8
10
2.75
20
-0.92341796864
30
0
11
-0.75
21
-0.77341796864
31
0
70
32
71
5
72
0
3
Standard
53
0
210
0
220
0
230
1
100
AcDbAlignedDimension
13
-4.25
23
0
33
0
14
2.75
24
0
34
0
100
AcDbRotatedDimension
0
DIMENSION
5
13D
100
AcDbEntity
8
dimension
6
ByLayer
62
256
370
-1
100
AcDbDimension
2
*D9
10
-0.75
20
14.3486267425
30
0
11
-1.5
21
14.4986267425
31
0
70
32
71
5
72
0
3
Standard
53
0
210
0
220
0
230
1
100
AcDbAlignedDimension
13
-2.25
23
13
33
0
14
-0.75
24
13
34
0
100
AcDbRotatedDimension
0
DIMENSION
5
13E
100
AcDbEntity
8
dimension
6
ByLayer
62
256
370
-1
100
AcDbDimension
2
*D10
10
0.75
20
14.3266365099
30
0
11
-4.63263002377e-17
21
14.4766365099
31
0
70
32
71
5
72
0
3
Standard
53
0
210
0
220
0
230
1
100
AcDbAlignedDimension
13
-0.75
23
13
33
0
14
0.75
24
13
34
0
100
AcDbRotatedDimension
0
DIMENSION
5
13F
100
AcDbEntity
8
dimension
6
ByLayer
62
256
370
-1
100
AcDbDimension
2
*D11
10
2.25
20
14.3266365099
30
0
11
1.5
21
14.4766365099
31
0
70
32
71
5
72
0
3
Standard
53
0
210
0
220
0
230
1
100
AcDbAlignedDimension
13
0.75
23
13
33
0
14
2.25
24
13
34
0
100
AcDbRotatedDimension
0
DIMENSION
5
140
100
AcDbEntity
8
dimension
6
ByLayer
62
256
370
-1
100
AcDbDimension
2
*D12
10
2.75
20
14.3270763146
30
0
11
2.5
21
14.4770763146
31
0
70
32
71
5
72
0
3
Standard
53
0
210
0
220
0
230
1
100
AcDbAlignedDimension
13
2.25
23
13
33
0
14
2.75
24
13.4375
34
0
100
AcDbRotatedDimension
0
DIMENSION
5
141
100
AcDbEntity
8
dimension
6
ByLayer
62
256
370
-1
100
AcDbDimension
2
*D13
10
-5.42683755098
20
10.875
30
0
11
-5.57683755098
21
11.1875
31
0
70
32
71
5
72
0
3
Standard
53
0
210
0
220
0
230
1
100
AcDbAlignedDimension
13
-3.75
23
11.5
33
0
14
-4.0625
24
10.875
34
0
50
90
100
AcDbRotatedDimension
0
DIMENSION
5
142
100
AcDbEntity
8
dimension
6
ByLayer
62
256
370
-1
100
AcDbDimension
2
*D14
10
2.31928233984
20
0.8
30
0
11
2.16928233984
21
3.8
31
0
70
32
71
5
72
0
3
Standard
53
0
210
0
220
0
230
1
100
AcDbAlignedDimension
13
1.5
23
6.8
33
0
14
1.5
24
0.8
34
0
50
90
100
AcDbRotatedDimension
0
DIMENSION
5
143
100
AcDbEntity
8
dimension
6
ByLayer
62
256
370
-1
100
AcDbDimension
2
*D15
10
1.5
20
7.37016387994
30
0
11
9.18485099361e-18
21
7.52016387994
31
0
70
32
71
5
72
0
3
Standard
53
0
210
0
220
0
230
1
100
AcDbAlignedDimension
13
-1.5
23
6.8
33
0
14
1.5
24
6.8
34
0
100
AcDbRotatedDimension
0
DIMENSION
5
144
100
AcDbEntity
8
dimension
6
ByLayer
62
256
370
-1
100
AcDbDimension
2
*D16
10
-2.36045649231
20
11.6178202585
30
0
11
-2.14056941938
21
11.6025911693
31
0
70
35
71
5
72
0
3
Standard
53
0
210
0
220
0
230
1
100
AcDbDiametricDimension
15
-2.13954350769
25
11.3821797415
35
0
40
0
0
DIMENSION
5
145
100
AcDbEntity
8
dimension
6
ByLayer
62
256
370
-1
100
AcDbDimension
2
*D17
10
-1.00516916226
20
11.7747975594
30
0
11
-0.640080976256
21
11.6020676649
31
0
70
35
71
5
72
0
3
Standard
53
0
210
0
220
0
230
1
100
AcDbDiametricDimension
15
-0.494830837737
25
11.2252024406
35
0
40
0
0
LINE
5
146
100
AcDbEntity
8
boundary
6
ByLayer
62
256
370
-1
100
AcDbLine
10
-1.5
20
0.8
11
2.75
21
0.8
0
SPLINE
5
147
100
AcDbEntity
8
gantry_viz
6
ByLayer
62
256
370
-1
100
AcDbSpline
210
0
220
0
230
1
70
8
71
3
72
14
73
10
74
0
42
1e-07
43
1e-07
40
0
40
0
40
0
40
0
40
0.142857142857
40
0.285714285714
40
0.428571428571
40
0.571428571429
40
0.714285714286
40
0.857142857143
40
1
40
1
40
1
40
1
10
-1.75
20
17.179869184
30
0
10
-1.61697241021
20
17.2765287465
30
0
10
-1.3402712491
20
17.3082340879
30
0
10
-1.01168862029
20
17.2361764938
30
0
10
-0.418834765344
20
16.956052597
30
0
10
0.408138716229
20
16.8533142305
30
0
10
0.893683051054
20
16.9729410956
30
0
10
1.18219490218
20
17.1558998305
30
0
10
1.5
20
17.2755266956
30
0
10
1.5
20
17.2755266956
30
0
0
LINE
5
148
100
AcDbEntity
8
gantry_viz
6
ByLayer
62
256
370
-1
100
AcDbLine
10
-1.75
20
10
11
-1.75
21
17.179869184
0
LINE
5
149
100
AcDbEntity
8
gantry_viz
6
ByLayer
62
256
370
-1
100
AcDbLine
10
-1.5
20
17.2811190449
11
-1.5
21
10
0
LINE
5
14A
100
AcDbEntity
8
gantry_viz
6
ByLayer
62
256
370
-1
100
AcDbLine
10
1.5
20
10
11
1.5
21
17.2755266956
0
LINE
5
14B
100
AcDbEntity
8
reference
6
ByLayer
62
256
370
-1
100
AcDbLine
10
0
20
16.9122253983
11
0
21
-2
0
LINE
5
14C
100
AcDbEntity
8
reference
6
ByLayer
62
256
370
-1
100
AcDbLine
10
0
20
16.9122253983
11
6.12323399574e-17
21
17.9122253983
0
ENDSEC
0
SECTION
2
OBJECTS
0
DICTIONARY
5
C
330
0
100
AcDbDictionary
281
1
3
ACAD_GROUP
350
D
0
DICTIONARY
5
D
330
C
100
AcDbDictionary
281
1
0
ENDSEC
0
EOF
