999
dxfrw 0.5.10
0
SECTION
2
HEADER
9
$ACADVER
1
AC1021
9
$HANDSEED
5
20000
9
$DWGCODEPAGE
3
ANSI_1252
9
$INSBASE
10
0
20
0
30
0
9
$EXTMIN
10
10000000000
20
10000000000
30
0
9
$EXTMAX
10
-10000000000
20
-10000000000
30
0
9
$LIMMIN
10
0
20
0
9
$LIMMAX
10
420
20
297
9
$ORTHOMODE
70
0
9
$LTSCALE
40
1
9
$TEXTSTYLE
7
STANDARD
9
$CLAYER
8
reference
9
$DIMASZ
40
0.25
9
$DIMLFAC
40
1
9
$DIMSCALE
40
1
9
$DIMEXO
40
0.025
9
$DIMEXE
40
0.05
9
$DIMTXT
40
0.25
9
$DIMTSZ
40
0
9
$DIMAUNIT
70
0
9
$DIMADEC
70
2
9
$DIMLUNIT
70
2
9
$DIMSTYLE
2
STANDARD
9
$DIMGAP
40
0.025
9
$DIMTIH
70
0
9
$LUNITS
70
2
9
$LUPREC
70
4
9
$AUNITS
70
0
9
$AUPREC
70
2
9
$SPLINESEGS
70
8
9
$GRIDMODE
70
1
9
$SNAPSTYLE
70
0
9
$GRIDUNIT
10
0
20
0
9
$PINSBASE
10
0
20
0
30
0
9
$PLIMMIN
10
0
20
0
9
$PLIMMAX
10
8.26771653543
20
11.6929133858
9
$INSUNITS
70
1
9
$PSVPSCALE
40
1
0
ENDSEC
0
SECTION
2
CLASSES
0
ENDSEC
0
SECTION
2
TABLES
0
TABLE
2
VPORT
5
8
330
0
100
AcDbSymbolTable
70
1
0
VPORT
5
31
330
2
100
AcDbSymbolTableRecord
100
AcDbViewportTableRecord
2
*ACTIVE
70
0
10
0
20
0
11
1
21
1
12
9.39524095997
22
10.536091648
13
0
23
0
14
10
24
10
15
10
25
10
16
0
26
0
36
1
17
0
27
0
37
0
40
26.3402291199
41
1.59363057325
42
50
43
0
44
0
50
0
51
0
71
0
72
100
73
1
74
3
75
0
76
1
77
0
78
0
281
0
65
1
110
0
120
0
130
0
111
1
121
0
131
0
112
0
122
1
132
0
79
0
146
0
348
10020
60
7
61
5
292
1
282
1
141
0
142
0
63
250
421
3358443
0
ENDTAB
0
TABLE
2
LTYPE
5
5
330
0
100
AcDbSymbolTable
70
4
0
LTYPE
5
14
330
5
100
AcDbSymbolTableRecord
100
AcDbLinetypeTableRecord
2
ByBlock
70
0
3

72
65
73
0
40
0
0
LTYPE
5
15
330
5
100
AcDbSymbolTableRecord
100
AcDbLinetypeTableRecord
2
ByLayer
70
0
3

72
65
73
0
40
0
0
LTYPE
5
16
330
5
100
AcDbSymbolTableRecord
100
AcDbLinetypeTableRecord
2
Continuous
70
0
3
Solid line
72
65
73
0
40
0
0
LTYPE
5
32
330
5
100
AcDbSymbolTableRecord
100
AcDbLinetypeTableRecord
2
DOT
70
0
3
Dot . . . . . . . . . . . . . . . . . . . . . .
72
65
73
2
40
6.35
49
0
74
0
49
-6.35
74
0
0
LTYPE
5
33
330
5
100
AcDbSymbolTableRecord
100
AcDbLinetypeTableRecord
2
DOT2
70
0
3
Dot (.5x) .....................................
72
65
73
2
40
3.175
49
0
74
0
49
-3.175
74
0
0
LTYPE
5
34
330
5
100
AcDbSymbolTableRecord
100
AcDbLinetypeTableRecord
2
DOTX2
70
0
3
Dot (2x) .  .  .  .  .  .  .  .  .  .  .  .  .
72
65
73
2
40
12.7
49
0
74
0
49
-12.7
74
0
0
LTYPE
5
35
330
5
100
AcDbSymbolTableRecord
100
AcDbLinetypeTableRecord
2
DASHED
70
0
3
Dot . . . . . . . . . . . . . . . . . . . . . .
72
65
73
2
40
19.05
49
12.7
74
0
49
-6.35
74
0
0
LTYPE
5
36
330
5
100
AcDbSymbolTableRecord
100
AcDbLinetypeTableRecord
2
DASHED2
70
0
3
Dashed (.5x) _ _ _ _ _ _ _ _ _ _ _ _ _ _ _ _ _
72
65
73
2
40
9.525
49
6.35
74
0
49
-3.175
74
0
0
LTYPE
5
37
330
5
100
AcDbSymbolTableRecord
100
AcDbLinetypeTableRecord
2
DASHEDX2
70
0
3
Dashed (2x) ____  ____  ____  ____  ____  ___
72
65
73
2
40
38.1
49
25.4
74
0
49
-12.7
74
0
0
LTYPE
5
38
330
5
100
AcDbSymbolTableRecord
100
AcDbLinetypeTableRecord
2
DASHDOT
70
0
3
Dash dot __ . __ . __ . __ . __ . __ . __ . __
72
65
73
4
40
25.4
49
12.7
74
0
49
-6.35
74
0
49
0
74
0
49
-6.35
74
0
0
LTYPE
5
39
330
5
100
AcDbSymbolTableRecord
100
AcDbLinetypeTableRecord
2
DASHDOT2
70
0
3
Dash dot (.5x) _._._._._._._._._._._._._._._.
72
65
73
4
40
12.7
49
6.35
74
0
49
-3.175
74
0
49
0
74
0
49
-3.175
74
0
0
LTYPE
5
3A
330
5
100
AcDbSymbolTableRecord
100
AcDbLinetypeTableRecord
2
DASHDOTX2
70
0
3
Dash dot (2x) ____  .  ____  .  ____  .  ___
72
65
73
4
40
50.8
49
25.4
74
0
49
-12.7
74
0
49
0
74
0
49
-12.7
74
0
0
LTYPE
5
3B
330
5
100
AcDbSymbolTableRecord
100
AcDbLinetypeTableRecord
2
DIVIDE
70
0
3
Divide ____ . . ____ . . ____ . . ____ . . ____
72
65
73
6
40
31.75
49
12.7
74
0
49
-6.35
74
0
49
0
74
0
49
-6.35
74
0
49
0
74
0
49
-6.35
74
0
0
LTYPE
5
3C
330
5
100
AcDbSymbolTableRecord
100
AcDbLinetypeTableRecord
2
DIVIDE2
70
0
3
Divide (.5x) __..__..__..__..__..__..__..__.._
72
65
73
6
40
15.875
49
6.35
74
0
49
-3.175
74
0
49
0
74
0
49
-3.175
74
0
49
0
74
0
49
-3.175
74
0
0
LTYPE
5
3D
330
5
100
AcDbSymbolTableRecord
100
AcDbLinetypeTableRecord
2
DIVIDEX2
70
0
3
Divide (2x) ________  .  .  ________  .  .  _
72
65
73
6
40
63.5
49
25.4
74
0
49
-12.7
74
0
49
0
74
0
49
-12.7
74
0
49
0
74
0
49
-12.7
74
0
0
LTYPE
5
3E
330
5
100
AcDbSymbolTableRecord
100
AcDbLinetypeTableRecord
2
BORDER
70
0
3
Border __ __ . __ __ . __ __ . __ __ . __ __ .
72
65
73
6
40
44.45
49
12.7
74
0
49
-6.35
74
0
49
12.7
74
0
49
-6.35
74
0
49
0
74
0
49
-6.35
74
0
0
LTYPE
5
3F
330
5
100
AcDbSymbolTableRecord
100
AcDbLinetypeTableRecord
2
BORDER2
70
0
3
Border (.5x) __.__.__.__.__.__.__.__.__.__.__.
72
65
73
6
40
22.225
49
6.35
74
0
49
-3.175
74
0
49
6.35
74
0
49
-3.175
74
0
49
0
74
0
49
-3.175
74
0
0
LTYPE
5
40
330
5
100
AcDbSymbolTableRecord
100
AcDbLinetypeTableRecord
2
BORDERX2
70
0
3
Border (2x) ____  ____  .  ____  ____  .  ___
72
65
73
6
40
88.9
49
25.4
74
0
49
-12.7
74
0
49
25.4
74
0
49
-12.7
74
0
49
0
74
0
49
-12.7
74
0
0
LTYPE
5
41
330
5
100
AcDbSymbolTableRecord
100
AcDbLinetypeTableRecord
2
CENTER
70
0
3
Center ____ _ ____ _ ____ _ ____ _ ____ _ ____
72
65
73
4
40
50.8
49
31.75
74
0
49
-6.35
74
0
49
6.35
74
0
49
-6.35
74
0
0
LTYPE
5
42
330
5
100
AcDbSymbolTableRecord
100
AcDbLinetypeTableRecord
2
CENTER2
70
0
3
Center (.5x) ___ _ ___ _ ___ _ ___ _ ___ _ ___
72
65
73
4
40
28.575
49
19.05
74
0
49
-3.175
74
0
49
3.175
74
0
49
-3.175
74
0
0
LTYPE
5
43
330
5
100
AcDbSymbolTableRecord
100
AcDbLinetypeTableRecord
2
CENTERX2
70
0
3
Center (2x) ________  __  ________  __  _____
72
65
73
4
40
101.6
49
63.5
74
0
49
-12.7
74
0
49
12.7
74
0
49
-12.7
74
0
0
ENDTAB
0
TABLE
2
LAYER
5
2
330
0
100
AcDbSymbolTable
70
1
0
LAYER
5
10
330
2
100
AcDbSymbolTableRecord
100
AcDbLayerTableRecord
2
0
70
0
62
7
6
CONTINUOUS
370
0
390
F
0
LAYER
5
44
330
2
100
AcDbSymbolTableRecord
100
AcDbLayerTableRecord
2
boundary
70
0
62
5
6
CONTINUOUS
370
0
390
F
0
LAYER
5
45
330
2
100
AcDbSymbolTableRecord
100
AcDbLayerTableRecord
2
scratch
70
0
62
7
6
CONTINUOUS
370
0
390
F
0
LAYER
5
46
330
2
100
AcDbSymbolTableRecord
100
AcDbLayerTableRecord
2
dimension
70
0
62
7
6
CONTINUOUS
370
0
390
F
0
LAYER
5
47
330
2
100
AcDbSymbolTableRecord
100
AcDbLayerTableRecord
2
gantry_viz
70
0
62
8
6
CONTINUOUS
370
0
390
F
0
LAYER
5
48
330
2
100
AcDbSymbolTableRecord
100
AcDbLayerTableRecord
2
1/4-20_tap_hole
70
0
62
6
6
CONTINUOUS
370
0
390
F
0
LAYER
5
49
330
2
100
AcDbSymbolTableRecord
100
AcDbLayerTableRecord
2
5/16-through_hole
70
0
62
4
6
CONTINUOUS
370
0
390
F
0
LAYER
5
4A
330
2
100
AcDbSymbolTableRecord
100
AcDbLayerTableRecord
2
5/16_screw_pocket_bot
70
0
62
56
420
8421376
6
CONTINUOUS
370
0
390
F
0
LAYER
5
4B
330
2
100
AcDbSymbolTableRecord
100
AcDbLayerTableRecord
2
5/16_screw_pocket_top
70
0
62
2
6
CONTINUOUS
370
0
390
F
0
LAYER
5
4C
330
2
100
AcDbSymbolTableRecord
100
AcDbLayerTableRecord
2
rail_pocket
70
0
62
32
420
12605440
6
CONTINUOUS
370
0
390
F
0
LAYER
5
4D
330
2
100
AcDbSymbolTableRecord
100
AcDbLayerTableRecord
2
rail_pocket_hatch
70
0
62
32
420
12605440
6
CONTINUOUS
370
0
390
F
0
LAYER
5
4E
330
2
100
AcDbSymbolTableRecord
100
AcDbLayerTableRecord
2
5/16_screw_pocket_bot_hatch
70
0
62
56
420
8421376
6
CONTINUOUS
370
0
390
F
0
LAYER
5
4F
330
2
100
AcDbSymbolTableRecord
100
AcDbLayerTableRecord
2
5/16_screw_pocket_top_hatch
70
0
62
2
6
CONTINUOUS
370
0
390
F
0
LAYER
5
50
330
2
100
AcDbSymbolTableRecord
100
AcDbLayerTableRecord
2
5/16_through_hole_side
70
0
62
4
6
CONTINUOUS
370
0
390
F
0
LAYER
5
51
330
2
100
AcDbSymbolTableRecord
100
AcDbLayerTableRecord
2
5/16-18_tap_hole
70
0
62
2
6
CONTINUOUS
370
0
390
F
0
LAYER
5
52
330
2
100
AcDbSymbolTableRecord
100
AcDbLayerTableRecord
2
5/16_screw_pocket_side
70
0
62
4
6
CONTINUOUS
370
0
390
F
0
LAYER
5
53
330
2
100
AcDbSymbolTableRecord
100
AcDbLayerTableRecord
2
reference
70
0
62
253
420
10526884
6
DOT2
370
0
390
F
0
LAYER
5
54
330
2
100
AcDbSymbolTableRecord
100
AcDbLayerTableRecord
2
1/4-20_tap_hole_side
70
0
62
6
6
CONTINUOUS
370
0
390
F
0
ENDTAB
0
TABLE
2
STYLE
5
3
330
0
100
AcDbSymbolTable
70
3
0
STYLE
5
55
330
2
100
AcDbSymbolTableRecord
100
AcDbTextStyleTableRecord
2
Standard
70
0
40
0
41
1
50
0
71
0
42
1
3
txt
4

0
ENDTAB
0
TABLE
2
VIEW
5
6
330
0
100
AcDbSymbolTable
70
0
0
ENDTAB
0
TABLE
2
UCS
5
7
330
0
100
AcDbSymbolTable
70
0
0
ENDTAB
0
TABLE
2
APPID
5
9
330
0
100
AcDbSymbolTable
70
1
0
APPID
5
12
330
9
100
AcDbSymbolTableRecord
100
AcDbRegAppTableRecord
2
ACAD
70
0
0
ENDTAB
0
TABLE
2
DIMSTYLE
5
A
330
0
100
AcDbSymbolTable
70
1
100
AcDbDimStyleTable
71
1
0
DIMSTYLE
105
56
330
A
100
AcDbSymbolTableRecord
100
AcDbDimStyleTableRecord
2
Standard
70
0
40
1
41
0.25
42
0.025
43
0.38
44
0.05
45
0
46
0
47
0
48
0
140
0.25
141
0.09
142
0
143
25.4
144
1
145
0
146
1
147
0.025
148
0
71
0
72
0
73
0
74
1
75
0
76
0
77
0
78
0
79
0
170
0
171
2
172
0
173
0
174
0
175
0
176
0
177
0
178
0
179
0
271
4
272
4
273
2
274
2
275
0
276
0
277
2
278
46
279
0
280
0
281
0
282
0
283
1
284
0
285
0
286
0
288
0
289
3
340
Standard
341

371
-2
372
-2
0
ENDTAB
0
TABLE
2
BLOCK_RECORD
5
1
330
0
100
AcDbSymbolTable
70
2
0
BLOCK_RECORD
5
1F
330
1
100
AcDbSymbolTableRecord
100
AcDbBlockTableRecord
2
*Model_Space
70
0
280
1
281
0
0
BLOCK_RECORD
5
1E
330
1
100
AcDbSymbolTableRecord
100
AcDbBlockTableRecord
2
*Paper_Space
70
0
280
1
281
0
0
BLOCK_RECORD
5
57
330
1
100
AcDbSymbolTableRecord
100
AcDbBlockTableRecord
2
*D11
70
0
280
1
281
0
0
BLOCK_RECORD
5
5A
330
1
100
AcDbSymbolTableRecord
100
AcDbBlockTableRecord
2
*D19
70
0
280
1
281
0
0
BLOCK_RECORD
5
5D
330
1
100
AcDbSymbolTableRecord
100
AcDbBlockTableRecord
2
*D17
70
0
280
1
281
0
0
BLOCK_RECORD
5
60
330
1
100
AcDbSymbolTableRecord
100
AcDbBlockTableRecord
2
*D12
70
0
280
1
281
0
0
BLOCK_RECORD
5
63
330
1
100
AcDbSymbolTableRecord
100
AcDbBlockTableRecord
2
*D6
70
0
280
1
281
0
0
BLOCK_RECORD
5
66
330
1
100
AcDbSymbolTableRecord
100
AcDbBlockTableRecord
2
*D4
70
0
280
1
281
0
0
BLOCK_RECORD
5
69
330
1
100
AcDbSymbolTableRecord
100
AcDbBlockTableRecord
2
*D1
70
0
280
1
281
0
0
BLOCK_RECORD
5
6C
330
1
100
AcDbSymbolTableRecord
100
AcDbBlockTableRecord
2
*D5
70
0
280
1
281
0
0
BLOCK_RECORD
5
6F
330
1
100
AcDbSymbolTableRecord
100
AcDbBlockTableRecord
2
*D2
70
0
280
1
281
0
0
BLOCK_RECORD
5
72
330
1
100
AcDbSymbolTableRecord
100
AcDbBlockTableRecord
2
*D15
70
0
280
1
281
0
0
BLOCK_RECORD
5
75
330
1
100
AcDbSymbolTableRecord
100
AcDbBlockTableRecord
2
*D14
70
0
280
1
281
0
0
BLOCK_RECORD
5
78
330
1
100
AcDbSymbolTableRecord
100
AcDbBlockTableRecord
2
*D13
70
0
280
1
281
0
0
BLOCK_RECORD
5
7B
330
1
100
AcDbSymbolTableRecord
100
AcDbBlockTableRecord
2
*D10
70
0
280
1
281
0
0
BLOCK_RECORD
5
7E
330
1
100
AcDbSymbolTableRecord
100
AcDbBlockTableRecord
2
*D7
70
0
280
1
281
0
0
BLOCK_RECORD
5
81
330
1
100
AcDbSymbolTableRecord
100
AcDbBlockTableRecord
2
*D3
70
0
280
1
281
0
0
BLOCK_RECORD
5
84
330
1
100
AcDbSymbolTableRecord
100
AcDbBlockTableRecord
2
*D8
70
0
280
1
281
0
0
BLOCK_RECORD
5
87
330
1
100
AcDbSymbolTableRecord
100
AcDbBlockTableRecord
2
*D9
70
0
280
1
281
0
0
BLOCK_RECORD
5
8A
330
1
100
AcDbSymbolTableRecord
100
AcDbBlockTableRecord
2
*D18
70
0
280
1
281
0
0
BLOCK_RECORD
5
8D
330
1
100
AcDbSymbolTableRecord
100
AcDbBlockTableRecord
2
*D16
70
0
280
1
281
0
0
BLOCK_RECORD
5
90
330
1
100
AcDbSymbolTableRecord
100
AcDbBlockTableRecord
2
*D20
70
0
280
1
281
0
0
ENDTAB
0
ENDSEC
0
SECTION
2
BLOCKS
0
BLOCK
5
20
330
1F
100
AcDbEntity
8
0
100
AcDbBlockBegin
2
*Model_Space
70
0
10
0
20
0
30
0
3
*Model_Space
1

0
ENDBLK
5
21
330
1F
100
AcDbEntity
8
0
100
AcDbBlockEnd
0
BLOCK
5
1C
330
1B
100
AcDbEntity
8
0
100
AcDbBlockBegin
2
*Paper_Space
70
0
10
0
20
0
30
0
3
*Paper_Space
1

0
ENDBLK
5
1D
330
1F
100
AcDbEntity
8
0
100
AcDbBlockEnd
0
BLOCK
5
58
330
57
100
AcDbEntity
8
0
100
AcDbBlockBegin
2
*D11
70
1
10
0
20
0
3
*D11
1

0
SOLID
5
93
100
AcDbEntity
8
dimension
6
CONTINUOUS
62
7
370
0
100
AcDbTrace
10
0.8841511135
20
13.8948211418
30
0
11
1.07802994197
21
13.7315914599
31
0
12
1.01467525432
22
13.6775738683
32
0
13
1.01467525432
23
13.6775738683
33
0
0
LINE
5
94
100
AcDbEntity
8
dimension
6
CONTINUOUS
62
7
370
0
100
AcDbLine
10
0.7625
20
14.0375
11
1.80329285985
21
12.8168031018
0
MTEXT
5
95
100
AcDbEntity
8
dimension
6
CONTINUOUS
62
7
370
0
100
AcDbMText
10
1.4578650732
20
13.4531330125
30
0
40
0.25
41
0.916666666667
71
5
72
1
1
0.1875
7
standard
210
0
220
0
230
1
50
310.451635144
73
2
44
1
0
ENDBLK
5
59
330
57
100
AcDbEntity
8
0
100
AcDbBlockEnd
0
BLOCK
5
5B
330
5A
100
AcDbEntity
8
0
100
AcDbBlockBegin
2
*D19
70
1
10
0
20
0
3
*D19
1

0
LINE
5
96
100
AcDbEntity
8
dimension
6
CONTINUOUS
62
7
370
0
100
AcDbLine
10
-4.50200127022
20
13.4791193279
11
-3.77799872978
21
12.5208806721
0
SOLID
5
97
100
AcDbEntity
8
dimension
6
CONTINUOUS
62
7
370
0
100
AcDbTrace
10
-4.2005847255
20
13.080185666
30
0
11
-4.38450699044
21
13.2545574803
31
0
12
-4.31807900528
22
13.3047475136
32
0
13
-4.31807900528
23
13.3047475136
33
0
0
SOLID
5
98
100
AcDbEntity
8
dimension
6
CONTINUOUS
62
7
370
0
100
AcDbTrace
10
-4.0794152745
20
12.919814334
30
0
11
-3.89549300956
21
12.7454425197
31
0
12
-3.96192099472
22
12.6952524864
32
0
13
-3.96192099472
23
12.6952524864
33
0
0
MTEXT
5
99
100
AcDbEntity
8
dimension
6
CONTINUOUS
62
7
370
0
100
AcDbMText
10
-3.72697462192
20
12.7021738584
30
0
40
0.25
41
0.722222222222
71
5
72
1
1
0.201
7
standard
210
0
220
0
230
1
50
307.073073336
73
2
44
1
0
ENDBLK
5
5C
330
5A
100
AcDbEntity
8
0
100
AcDbBlockEnd
0
BLOCK
5
5E
330
5D
100
AcDbEntity
8
0
100
AcDbBlockBegin
2
*D17
70
1
10
0
20
0
3
*D17
1

0
LINE
5
9A
100
AcDbEntity
8
dimension
6
CONTINUOUS
62
7
370
0
100
AcDbLine
10
5.1188058767
20
13
11
5.1188058767
21
14.5
0
SOLID
5
9B
100
AcDbEntity
8
dimension
6
CONTINUOUS
62
7
370
0
100
AcDbTrace
10
5.1188058767
20
13
30
0
11
5.07717741092
21
13.25
31
0
12
5.16043434248
22
13.25
32
0
13
5.16043434248
23
13.25
33
0
0
SOLID
5
9C
100
AcDbEntity
8
dimension
6
CONTINUOUS
62
7
370
0
100
AcDbTrace
10
5.1188058767
20
14.5
30
0
11
5.16043434248
21
14.25
31
0
12
5.07717741092
22
14.25
32
0
13
5.07717741092
23
14.25
33
0
0
MTEXT
5
9D
100
AcDbEntity
8
dimension
6
CONTINUOUS
62
7
370
0
100
AcDbMText
10
4.9688058767
20
13.75
30
0
40
0.25
41
0.333333333333
71
5
72
1
1
1.5
7
standard
210
0
220
0
230
1
50
90
73
2
44
1
0
LINE
5
9E
100
AcDbEntity
8
dimension
6
CONTINUOUS
62
7
370
0
100
AcDbLine
10
4.165
20
13
11
5.1688058767
21
13
0
LINE
5
9F
100
AcDbEntity
8
dimension
6
CONTINUOUS
62
7
370
0
100
AcDbLine
10
4.3375
20
14.5
11
5.1688058767
21
14.5
0
ENDBLK
5
5F
330
5D
100
AcDbEntity
8
0
100
AcDbBlockEnd
0
BLOCK
5
61
330
60
100
AcDbEntity
8
0
100
AcDbBlockBegin
2
*D12
70
1
10
0
20
0
3
*D12
1

0
LINE
5
A0
100
AcDbEntity
8
dimension
6
CONTINUOUS
62
7
370
0
100
AcDbLine
10
-3
20
10.9951162778
11
-1.5
21
10.9951162778
0
SOLID
5
A1
100
AcDbEntity
8
dimension
6
CONTINUOUS
62
7
370
0
100
AcDbTrace
10
-3
20
10.9951162778
30
0
11
-2.75
21
11.0367447435
31
0
12
-2.75
22
10.953487812
32
0
13
-2.75
23
10.953487812
33
0
0
SOLID
5
A2
100
AcDbEntity
8
dimension
6
CONTINUOUS
62
7
370
0
100
AcDbTrace
10
-1.5
20
10.9951162778
30
0
11
-1.75
21
10.953487812
31
0
12
-1.75
22
11.0367447435
32
0
13
-1.75
23
11.0367447435
33
0
0
MTEXT
5
A3
100
AcDbEntity
8
dimension
6
CONTINUOUS
62
7
370
0
100
AcDbMText
10
-2.25
20
11.1451162778
30
0
40
0.25
41
0.333333333333
71
5
72
1
1
1.5
7
standard
210
0
220
0
230
1
50
0
73
2
44
1
0
LINE
5
A4
100
AcDbEntity
8
dimension
6
CONTINUOUS
62
7
370
0
100
AcDbLine
10
-3
20
11.475
11
-3
21
10.9451162778
0
LINE
5
A5
100
AcDbEntity
8
dimension
6
CONTINUOUS
62
7
370
0
100
AcDbLine
10
-1.5
20
11.475
11
-1.5
21
10.9451162778
0
ENDBLK
5
62
330
60
100
AcDbEntity
8
0
100
AcDbBlockEnd
0
BLOCK
5
64
330
63
100
AcDbEntity
8
0
100
AcDbBlockBegin
2
*D6
70
1
10
0
20
0
3
*D6
1

0
LINE
5
A6
100
AcDbEntity
8
dimension
6
CONTINUOUS
62
7
370
0
100
AcDbLine
10
-1.5
20
7.37016387994
11
1.5
21
7.37016387994
0
SOLID
5
A7
100
AcDbEntity
8
dimension
6
CONTINUOUS
62
7
370
0
100
AcDbTrace
10
-1.5
20
7.37016387994
30
0
11
-1.25
21
7.41179234572
31
0
12
-1.25
22
7.32853541416
32
0
13
-1.25
23
7.32853541416
33
0
0
SOLID
5
A8
100
AcDbEntity
8
dimension
6
CONTINUOUS
62
7
370
0
100
AcDbTrace
10
1.5
20
7.37016387994
30
0
11
1.25
21
7.32853541416
31
0
12
1.25
22
7.41179234572
32
0
13
1.25
23
7.41179234572
33
0
0
MTEXT
5
A9
100
AcDbEntity
8
dimension
6
CONTINUOUS
62
7
370
0
100
AcDbMText
10
9.18485099361e-18
20
7.52016387994
30
0
40
0.25
41
0.111111111111
71
5
72
1
1
3
7
standard
210
0
220
0
230
1
50
0
73
2
44
1
0
LINE
5
AA
100
AcDbEntity
8
dimension
6
CONTINUOUS
62
7
370
0
100
AcDbLine
10
-1.5
20
6.825
11
-1.5
21
7.42016387994
0
LINE
5
AB
100
AcDbEntity
8
dimension
6
CONTINUOUS
62
7
370
0
100
AcDbLine
10
1.5
20
6.825
11
1.5
21
7.42016387994
0
ENDBLK
5
65
330
63
100
AcDbEntity
8
0
100
AcDbBlockEnd
0
BLOCK
5
67
330
66
100
AcDbEntity
8
0
100
AcDbBlockBegin
2
*D4
70
1
10
0
20
0
3
*D4
1

0
LINE
5
AC
100
AcDbEntity
8
dimension
6
CONTINUOUS
62
7
370
0
100
AcDbLine
10
-4.25
20
-0.92341796864
11
2.75
21
-0.92341796864
0
SOLID
5
AD
100
AcDbEntity
8
dimension
6
CONTINUOUS
62
7
370
0
100
AcDbTrace
10
-4.25
20
-0.92341796864
30
0
11
-4
21
-0.881789502863
31
0
12
-4
22
-0.965046434417
32
0
13
-4
23
-0.965046434417
33
0
0
SOLID
5
AE
100
AcDbEntity
8
dimension
6
CONTINUOUS
62
7
370
0
100
AcDbTrace
10
2.75
20
-0.92341796864
30
0
11
2.5
21
-0.965046434417
31
0
12
2.5
22
-0.881789502863
32
0
13
2.5
23
-0.881789502863
33
0
0
MTEXT
5
AF
100
AcDbEntity
8
dimension
6
CONTINUOUS
62
7
370
0
100
AcDbMText
10
-0.75
20
-0.77341796864
30
0
40
0.25
41
0.111111111111
71
5
72
1
1
7
7
standard
210
0
220
0
230
1
50
0
73
2
44
1
0
LINE
5
B0
100
AcDbEntity
8
dimension
6
CONTINUOUS
62
7
370
0
100
AcDbLine
10
-4.25
20
-0.025
11
-4.25
21
-0.97341796864
0
LINE
5
B1
100
AcDbEntity
8
dimension
6
CONTINUOUS
62
7
370
0
100
AcDbLine
10
2.75
20
-0.025
11
2.75
21
-0.97341796864
0
ENDBLK
5
68
330
66
100
AcDbEntity
8
0
100
AcDbBlockEnd
0
BLOCK
5
6A
330
69
100
AcDbEntity
8
0
100
AcDbBlockBegin
2
*D1
70
1
10
0
20
0
3
*D1
1

0
LINE
5
B2
100
AcDbEntity
8
dimension
6
CONTINUOUS
62
7
370
0
100
AcDbLine
10
3.60777252864
20
0.8
11
3.60777252864
21
-5.33298534265e-17
0
SOLID
5
B3
100
AcDbEntity
8
dimension
6
CONTINUOUS
62
7
370
0
100
AcDbTrace
10
3.60777252864
20
0.8
30
0
11
3.64940099442
21
0.55
31
0
12
3.56614406286
22
0.55
32
0
13
3.56614406286
23
0.55
33
0
0
SOLID
5
B4
100
AcDbEntity
8
dimension
6
CONTINUOUS
62
7
370
0
100
AcDbTrace
10
3.60777252864
20
-5.33298534265e-17
30
0
11
3.56614406286
21
0.25
31
0
12
3.64940099442
22
0.25
32
0
13
3.64940099442
23
0.25
33
0
0
MTEXT
5
B5
100
AcDbEntity
8
dimension
6
CONTINUOUS
62
7
370
0
100
AcDbMText
10
3.45777252864
20
0.4
30
0
40
0.25
41
0.388888888889
71
5
72
1
1
0.8
7
standard
210
0
220
0
230
1
50
90
73
2
44
1
0
LINE
5
B6
100
AcDbEntity
8
dimension
6
CONTINUOUS
62
7
370
0
100
AcDbLine
10
2.775
20
0.8
11
3.65777252864
21
0.8
0
LINE
5
B7
100
AcDbEntity
8
dimension
6
CONTINUOUS
62
7
370
0
100
AcDbLine
10
2.775
20
0
11
3.65777252864
21
-5.33298534265e-17
0
ENDBLK
5
6B
330
69
100
AcDbEntity
8
0
100
AcDbBlockEnd
0
BLOCK
5
6D
330
6C
100
AcDbEntity
8
0
100
AcDbBlockBegin
2
*D5
70
1
10
0
20
0
3
*D5
1

0
LINE
5
B8
100
AcDbEntity
8
dimension
6
CONTINUOUS
62
7
370
0
100
AcDbLine
10
2.31928233984
20
6.8
11
2.31928233984
21
0.8
0
SOLID
5
B9
100
AcDbEntity
8
dimension
6
CONTINUOUS
62
7
370
0
100
AcDbTrace
10
2.31928233984
20
6.8
30
0
11
2.36091080562
21
6.55
31
0
12
2.27765387406
22
6.55
32
0
13
2.27765387406
23
6.55
33
0
0
SOLID
5
BA
100
AcDbEntity
8
dimension
6
CONTINUOUS
62
7
370
0
100
AcDbTrace
10
2.31928233984
20
0.8
30
0
11
2.27765387406
21
1.05
31
0
12
2.36091080562
22
1.05
32
0
13
2.36091080562
23
1.05
33
0
0
MTEXT
5
BB
100
AcDbEntity
8
dimension
6
CONTINUOUS
62
7
370
0
100
AcDbMText
10
2.16928233984
20
3.8
30
0
40
0.25
41
0.111111111111
71
5
72
1
1
6
7
standard
210
0
220
0
230
1
50
90
73
2
44
1
0
LINE
5
BC
100
AcDbEntity
8
dimension
6
CONTINUOUS
62
7
370
0
100
AcDbLine
10
1.525
20
6.8
11
2.36928233984
21
6.8
0
LINE
5
BD
100
AcDbEntity
8
dimension
6
CONTINUOUS
62
7
370
0
100
AcDbLine
10
1.525
20
0.8
11
2.36928233984
21
0.8
0
ENDBLK
5
6E
330
6C
100
AcDbEntity
8
0
100
AcDbBlockEnd
0
BLOCK
5
70
330
6F
100
AcDbEntity
8
0
100
AcDbBlockBegin
2
*D2
70
1
10
0
20
0
3
*D2
1

0
LINE
5
BE
100
AcDbEntity
8
dimension
6
CONTINUOUS
62
7
370
0
100
AcDbLine
10
-4.83433272501
20
0.75
11
-4.83433272501
21
-0.5
0
SOLID
5
BF
100
AcDbEntity
8
dimension
6
CONTINUOUS
62
7
370
0
100
AcDbTrace
10
-4.83433272501
20
0.25
30
0
11
-4.87596119079
21
0.5
31
0
12
-4.79270425923
22
0.5
32
0
13
-4.79270425923
23
0.5
33
0
0
SOLID
5
C0
100
AcDbEntity
8
dimension
6
CONTINUOUS
62
7
370
0
100
AcDbTrace
10
-4.83433272501
20
3.63294201395e-17
30
0
11
-4.79270425923
21
-0.25
31
0
12
-4.87596119079
22
-0.25
32
0
13
-4.87596119079
23
-0.25
33
0
0
MTEXT
5
C1
100
AcDbEntity
8
dimension
6
CONTINUOUS
62
7
370
0
100
AcDbMText
10
-4.98433272501
20
0.566666666667
30
0
40
0.25
41
0.583333333333
71
5
72
1
1
0.25
7
standard
210
0
220
0
230
1
50
90
73
2
44
1
0
LINE
5
C2
100
AcDbEntity
8
dimension
6
CONTINUOUS
62
7
370
0
100
AcDbLine
10
-4.275
20
0.25
11
-4.88433272501
21
0.25
0
LINE
5
C3
100
AcDbEntity
8
dimension
6
CONTINUOUS
62
7
370
0
100
AcDbLine
10
-4.275
20
3.06161699787e-18
11
-4.88433272501
21
4.24526541352e-17
0
ENDBLK
5
71
330
6F
100
AcDbEntity
8
0
100
AcDbBlockEnd
0
BLOCK
5
73
330
72
100
AcDbEntity
8
0
100
AcDbBlockBegin
2
*D15
70
1
10
0
20
0
3
*D15
1

0
LINE
5
C4
100
AcDbEntity
8
dimension
6
CONTINUOUS
62
7
370
0
100
AcDbLine
10
-4.14
20
10.9944125903
11
-3
21
10.9944125903
0
SOLID
5
C5
100
AcDbEntity
8
dimension
6
CONTINUOUS
62
7
370
0
100
AcDbTrace
10
-4.14
20
10.9944125903
30
0
11
-3.89
21
11.0360410561
31
0
12
-3.89
22
10.9527841245
32
0
13
-3.89
23
10.9527841245
33
0
0
SOLID
5
C6
100
AcDbEntity
8
dimension
6
CONTINUOUS
62
7
370
0
100
AcDbTrace
10
-3
20
10.9944125903
30
0
11
-3.25
21
10.9527841245
31
0
12
-3.25
22
11.0360410561
32
0
13
-3.25
23
11.0360410561
33
0
0
MTEXT
5
C7
100
AcDbEntity
8
dimension
6
CONTINUOUS
62
7
370
0
100
AcDbMText
10
-3.57
20
11.1444125903
30
0
40
0.25
41
0.5
71
5
72
1
1
1.14
7
standard
210
0
220
0
230
1
50
0
73
2
44
1
0
LINE
5
C8
100
AcDbEntity
8
dimension
6
CONTINUOUS
62
7
370
0
100
AcDbLine
10
-4.14
20
11.475
11
-4.14
21
10.9444125903
0
LINE
5
C9
100
AcDbEntity
8
dimension
6
CONTINUOUS
62
7
370
0
100
AcDbLine
10
-3
20
11.475
11
-3
21
10.9444125903
0
ENDBLK
5
74
330
72
100
AcDbEntity
8
0
100
AcDbBlockEnd
0
BLOCK
5
76
330
75
100
AcDbEntity
8
0
100
AcDbBlockBegin
2
*D14
70
1
10
0
20
0
3
*D14
1

0
LINE
5
CA
100
AcDbEntity
8
dimension
6
CONTINUOUS
62
7
370
0
100
AcDbLine
10
3
20
10.9951162778
11
4.14
21
10.9951162778
0
SOLID
5
CB
100
AcDbEntity
8
dimension
6
CONTINUOUS
62
7
370
0
100
AcDbTrace
10
3
20
10.9951162778
30
0
11
3.25
21
11.0367447435
31
0
12
3.25
22
10.953487812
32
0
13
3.25
23
10.953487812
33
0
0
SOLID
5
CC
100
AcDbEntity
8
dimension
6
CONTINUOUS
62
7
370
0
100
AcDbTrace
10
4.14
20
10.9951162778
30
0
11
3.89
21
10.953487812
31
0
12
3.89
22
11.0367447435
32
0
13
3.89
23
11.0367447435
33
0
0
MTEXT
5
CD
100
AcDbEntity
8
dimension
6
CONTINUOUS
62
7
370
0
100
AcDbMText
10
3.57
20
11.1451162778
30
0
40
0.25
41
0.5
71
5
72
1
1
1.14
7
standard
210
0
220
0
230
1
50
0
73
2
44
1
0
LINE
5
CE
100
AcDbEntity
8
dimension
6
CONTINUOUS
62
7
370
0
100
AcDbLine
10
3
20
11.475
11
3
21
10.9451162778
0
LINE
5
CF
100
AcDbEntity
8
dimension
6
CONTINUOUS
62
7
370
0
100
AcDbLine
10
4.14
20
11.475
11
4.14
21
10.9451162778
0
ENDBLK
5
77
330
75
100
AcDbEntity
8
0
100
AcDbBlockEnd
0
BLOCK
5
79
330
78
100
AcDbEntity
8
0
100
AcDbBlockBegin
2
*D13
70
1
10
0
20
0
3
*D13
1

0
LINE
5
D0
100
AcDbEntity
8
dimension
6
CONTINUOUS
62
7
370
0
100
AcDbLine
10
-1.5
20
10.9951162778
11
3
21
10.9951162778
0
SOLID
5
D1
100
AcDbEntity
8
dimension
6
CONTINUOUS
62
7
370
0
100
AcDbTrace
10
-1.5
20
10.9951162778
30
0
11
-1.25
21
11.0367447435
31
0
12
-1.25
22
10.953487812
32
0
13
-1.25
23
10.953487812
33
0
0
SOLID
5
D2
100
AcDbEntity
8
dimension
6
CONTINUOUS
62
7
370
0
100
AcDbTrace
10
3
20
10.9951162778
30
0
11
2.75
21
10.953487812
31
0
12
2.75
22
11.0367447435
32
0
13
2.75
23
11.0367447435
33
0
0
MTEXT
5
D3
100
AcDbEntity
8
dimension
6
CONTINUOUS
62
7
370
0
100
AcDbMText
10
0.75
20
11.1451162778
30
0
40
0.25
41
0.416666666667
71
5
72
1
1
4.5
7
standard
210
0
220
0
230
1
50
0
73
2
44
1
0
LINE
5
D4
100
AcDbEntity
8
dimension
6
CONTINUOUS
62
7
370
0
100
AcDbLine
10
-1.5
20
11.475
11
-1.5
21
10.9451162778
0
LINE
5
D5
100
AcDbEntity
8
dimension
6
CONTINUOUS
62
7
370
0
100
AcDbLine
10
3
20
11.475
11
3
21
10.9451162778
0
ENDBLK
5
7A
330
78
100
AcDbEntity
8
0
100
AcDbBlockEnd
0
BLOCK
5
7C
330
7B
100
AcDbEntity
8
0
100
AcDbBlockBegin
2
*D10
70
1
10
0
20
0
3
*D10
1

0
SOLID
5
D6
100
AcDbEntity
8
dimension
6
CONTINUOUS
62
7
370
0
100
AcDbTrace
10
-4.4345439544
20
14.4548429774
30
0
11
-4.62887199896
21
14.6175376001
31
0
12
-4.56566645485
22
14.6717296276
32
0
13
-4.56566645485
23
14.6717296276
33
0
0
LINE
5
D7
100
AcDbEntity
8
dimension
6
CONTINUOUS
62
7
370
0
100
AcDbLine
10
-4.3125
20
14.3125
11
-5.35665383193
21
15.5303232506
0
MTEXT
5
D8
100
AcDbEntity
8
dimension
6
CONTINUOUS
62
7
370
0
100
AcDbMText
10
-4.78172451111
20
15.0902182776
30
0
40
0.25
41
0.916666666667
71
5
72
1
1
0.1875
7
standard
210
0
220
0
230
1
50
310.609574699
73
2
44
1
0
ENDBLK
5
7D
330
7B
100
AcDbEntity
8
0
100
AcDbBlockEnd
0
BLOCK
5
7F
330
7E
100
AcDbEntity
8
0
100
AcDbBlockBegin
2
*D7
70
1
10
0
20
0
3
*D7
1

0
LINE
5
D9
100
AcDbEntity
8
dimension
6
CONTINUOUS
62
7
370
0
100
AcDbLine
10
-4.5
20
8.992587776
11
4.5
21
8.992587776
0
SOLID
5
DA
100
AcDbEntity
8
dimension
6
CONTINUOUS
62
7
370
0
100
AcDbTrace
10
-4.5
20
8.992587776
30
0
11
-4.25
21
9.03421624178
31
0
12
-4.25
22
8.95095931022
32
0
13
-4.25
23
8.95095931022
33
0
0
SOLID
5
DB
100
AcDbEntity
8
dimension
6
CONTINUOUS
62
7
370
0
100
AcDbTrace
10
4.5
20
8.992587776
30
0
11
4.25
21
8.95095931022
31
0
12
4.25
22
9.03421624178
32
0
13
4.25
23
9.03421624178
33
0
0
MTEXT
5
DC
100
AcDbEntity
8
dimension
6
CONTINUOUS
62
7
370
0
100
AcDbMText
10
0
20
9.142587776
30
0
40
0.25
41
0.111111111111
71
5
72
1
1
9
7
standard
210
0
220
0
230
1
50
0
73
2
44
1
0
LINE
5
DD
100
AcDbEntity
8
dimension
6
CONTINUOUS
62
7
370
0
100
AcDbLine
10
-4.5
20
10.1625
11
-4.5
21
8.942587776
0
LINE
5
DE
100
AcDbEntity
8
dimension
6
CONTINUOUS
62
7
370
0
100
AcDbLine
10
4.5
20
10.1625
11
4.5
21
8.942587776
0
ENDBLK
5
80
330
7E
100
AcDbEntity
8
0
100
AcDbBlockEnd
0
BLOCK
5
82
330
81
100
AcDbEntity
8
0
100
AcDbBlockBegin
2
*D3
70
1
10
0
20
0
3
*D3
1

0
LINE
5
DF
100
AcDbEntity
8
dimension
6
CONTINUOUS
62
7
370
0
100
AcDbLine
10
-1.5
20
0.527765581333
11
-4.25
21
0.527765581333
0
SOLID
5
E0
100
AcDbEntity
8
dimension
6
CONTINUOUS
62
7
370
0
100
AcDbTrace
10
-1.5
20
0.527765581333
30
0
11
-1.75
21
0.486137115556
31
0
12
-1.75
22
0.56939404711
32
0
13
-1.75
23
0.56939404711
33
0
0
SOLID
5
E1
100
AcDbEntity
8
dimension
6
CONTINUOUS
62
7
370
0
100
AcDbTrace
10
-4.25
20
0.527765581333
30
0
11
-4
21
0.56939404711
31
0
12
-4
22
0.486137115556
32
0
13
-4
23
0.486137115556
33
0
0
MTEXT
5
E2
100
AcDbEntity
8
dimension
6
CONTINUOUS
62
7
370
0
100
AcDbMText
10
-2.875
20
0.677765581333
30
0
40
0.25
41
0.583333333333
71
5
72
1
1
2.75
7
standard
210
0
220
0
230
1
50
360
73
2
44
1
0
LINE
5
E3
100
AcDbEntity
8
dimension
6
CONTINUOUS
62
7
370
0
100
AcDbLine
10
-1.5
20
0.275
11
-1.5
21
0.577765581333
0
LINE
5
E4
100
AcDbEntity
8
dimension
6
CONTINUOUS
62
7
370
0
100
AcDbLine
10
-4.25
20
0.275
11
-4.25
21
0.577765581333
0
ENDBLK
5
83
330
81
100
AcDbEntity
8
0
100
AcDbBlockEnd
0
BLOCK
5
85
330
84
100
AcDbEntity
8
0
100
AcDbBlockBegin
2
*D8
70
1
10
0
20
0
3
*D8
1

0
LINE
5
E5
100
AcDbEntity
8
dimension
6
CONTINUOUS
62
7
370
0
100
AcDbLine
10
-2.25
20
15.1732604633
11
-0.75
21
15.1732604633
0
SOLID
5
E6
100
AcDbEntity
8
dimension
6
CONTINUOUS
62
7
370
0
100
AcDbTrace
10
-2.25
20
15.1732604633
30
0
11
-2
21
15.2148889291
31
0
12
-2
22
15.1316319975
32
0
13
-2
23
15.1316319975
33
0
0
SOLID
5
E7
100
AcDbEntity
8
dimension
6
CONTINUOUS
62
7
370
0
100
AcDbTrace
10
-0.75
20
15.1732604633
30
0
11
-1
21
15.1316319975
31
0
12
-1
22
15.2148889291
32
0
13
-1
23
15.2148889291
33
0
0
MTEXT
5
E8
100
AcDbEntity
8
dimension
6
CONTINUOUS
62
7
370
0
100
AcDbMText
10
-1.5
20
15.3232604633
30
0
40
0.25
41
0.333333333333
71
5
72
1
1
1.5
7
standard
210
0
220
0
230
1
50
0
73
2
44
1
0
LINE
5
E9
100
AcDbEntity
8
dimension
6
CONTINUOUS
62
7
370
0
100
AcDbLine
10
-2.25
20
13.875
11
-2.25
21
15.2232604633
0
LINE
5
EA
100
AcDbEntity
8
dimension
6
CONTINUOUS
62
7
370
0
100
AcDbLine
10
-0.75
20
13.875
11
-0.75
21
15.2232604633
0
ENDBLK
5
86
330
84
100
AcDbEntity
8
0
100
AcDbBlockEnd
0
BLOCK
5
88
330
87
100
AcDbEntity
8
0
100
AcDbBlockBegin
2
*D9
70
1
10
0
20
0
3
*D9
1

0
LINE
5
EB
100
AcDbEntity
8
dimension
6
CONTINUOUS
62
7
370
0
100
AcDbLine
10
3.1203335421
20
14.5
11
3.1203335421
21
13.85
0
SOLID
5
EC
100
AcDbEntity
8
dimension
6
CONTINUOUS
62
7
370
0
100
AcDbTrace
10
3.1203335421
20
14.5
30
0
11
3.16196200788
21
14.25
31
0
12
3.07870507632
22
14.25
32
0
13
3.07870507632
23
14.25
33
0
0
SOLID
5
ED
100
AcDbEntity
8
dimension
6
CONTINUOUS
62
7
370
0
100
AcDbTrace
10
3.1203335421
20
13.85
30
0
11
3.07870507632
21
14.1
31
0
12
3.16196200788
22
14.1
32
0
13
3.16196200788
23
14.1
33
0
0
MTEXT
5
EE
100
AcDbEntity
8
dimension
6
CONTINUOUS
62
7
370
0
100
AcDbMText
10
2.9703335421
20
14.175
30
0
40
0.25
41
0.583333333333
71
5
72
1
1
0.65
7
standard
210
0
220
0
230
1
50
90
73
2
44
1
0
LINE
5
EF
100
AcDbEntity
8
dimension
6
CONTINUOUS
62
7
370
0
100
AcDbLine
10
2.5375
20
14.5
11
3.1703335421
21
14.5
0
LINE
5
F0
100
AcDbEntity
8
dimension
6
CONTINUOUS
62
7
370
0
100
AcDbLine
10
2.275
20
13.85
11
3.1703335421
21
13.85
0
ENDBLK
5
89
330
87
100
AcDbEntity
8
0
100
AcDbBlockEnd
0
BLOCK
5
8B
330
8A
100
AcDbEntity
8
0
100
AcDbBlockBegin
2
*D18
70
1
10
0
20
0
3
*D18
1

0
LINE
5
F1
100
AcDbEntity
8
dimension
6
CONTINUOUS
62
7
370
0
100
AcDbLine
10
6.005891858
20
14.5
11
6.005891858
21
10
0
SOLID
5
F2
100
AcDbEntity
8
dimension
6
CONTINUOUS
62
7
370
0
100
AcDbTrace
10
6.005891858
20
14.5
30
0
11
6.04752032378
21
14.25
31
0
12
5.96426339222
22
14.25
32
0
13
5.96426339222
23
14.25
33
0
0
SOLID
5
F3
100
AcDbEntity
8
dimension
6
CONTINUOUS
62
7
370
0
100
AcDbTrace
10
6.005891858
20
10
30
0
11
5.96426339222
21
10.25
31
0
12
6.04752032378
22
10.25
32
0
13
6.04752032378
23
10.25
33
0
0
MTEXT
5
F4
100
AcDbEntity
8
dimension
6
CONTINUOUS
62
7
370
0
100
AcDbMText
10
5.855891858
20
12.25
30
0
40
0.25
41
0.416666666667
71
5
72
1
1
4.5
7
standard
210
0
220
0
230
1
50
90
73
2
44
1
0
LINE
5
F5
100
AcDbEntity
8
dimension
6
CONTINUOUS
62
7
370
0
100
AcDbLine
10
4.3375
20
14.5
11
6.055891858
21
14.5
0
LINE
5
F6
100
AcDbEntity
8
dimension
6
CONTINUOUS
62
7
370
0
100
AcDbLine
10
4.3375
20
10
11
6.055891858
21
10
0
ENDBLK
5
8C
330
8A
100
AcDbEntity
8
0
100
AcDbBlockEnd
0
BLOCK
5
8E
330
8D
100
AcDbEntity
8
0
100
AcDbBlockBegin
2
*D16
70
1
10
0
20
0
3
*D16
1

0
LINE
5
F7
100
AcDbEntity
8
dimension
6
CONTINUOUS
62
7
370
0
100
AcDbLine
10
5.1194106081
20
13
11
5.1194106081
21
11.5
0
SOLID
5
F8
100
AcDbEntity
8
dimension
6
CONTINUOUS
62
7
370
0
100
AcDbTrace
10
5.1194106081
20
13
30
0
11
5.16103907388
21
12.75
31
0
12
5.07778214232
22
12.75
32
0
13
5.07778214232
23
12.75
33
0
0
SOLID
5
F9
100
AcDbEntity
8
dimension
6
CONTINUOUS
62
7
370
0
100
AcDbTrace
10
5.1194106081
20
11.5
30
0
11
5.07778214232
21
11.75
31
0
12
5.16103907388
22
11.75
32
0
13
5.16103907388
23
11.75
33
0
0
MTEXT
5
FA
100
AcDbEntity
8
dimension
6
CONTINUOUS
62
7
370
0
100
AcDbMText
10
4.9694106081
20
12.25
30
0
40
0.25
41
0.333333333333
71
5
72
1
1
1.5
7
standard
210
0
220
0
230
1
50
90
73
2
44
1
0
LINE
5
FB
100
AcDbEntity
8
dimension
6
CONTINUOUS
62
7
370
0
100
AcDbLine
10
4.165
20
13
11
5.1694106081
21
13
0
LINE
5
FC
100
AcDbEntity
8
dimension
6
CONTINUOUS
62
7
370
0
100
AcDbLine
10
4.165
20
11.5
11
5.1694106081
21
11.5
0
ENDBLK
5
8F
330
8D
100
AcDbEntity
8
0
100
AcDbBlockEnd
0
BLOCK
5
91
330
90
100
AcDbEntity
8
0
100
AcDbBlockBegin
2
*D20
70
1
10
0
20
0
3
*D20
1

0
LINE
5
FD
100
AcDbEntity
8
dimension
6
CONTINUOUS
62
7
370
0
100
AcDbLine
10
-1.92277485094
20
13.4650523362
11
-1.07722514906
21
12.5349476638
0
SOLID
5
FE
100
AcDbEntity
8
dimension
6
CONTINUOUS
62
7
370
0
100
AcDbTrace
10
-1.586438454
20
13.0950822994
30
0
11
-1.7854092225
21
13.2520649814
31
0
12
-1.72380408244
22
13.3080696542
32
0
13
-1.72380408244
23
13.3080696542
33
0
0
SOLID
5
FF
100
AcDbEntity
8
dimension
6
CONTINUOUS
62
7
370
0
100
AcDbTrace
10
-1.413561546
20
12.9049177006
30
0
11
-1.2145907775
21
12.7479350186
31
0
12
-1.27619591756
22
12.6919303458
32
0
13
-1.27619591756
23
12.6919303458
33
0
0
MTEXT
5
100
100
AcDbEntity
8
dimension
6
CONTINUOUS
62
7
370
0
100
AcDbMText
10
-1.02415873976
20
12.6995656448
30
0
40
0.25
41
0.777777777778
71
5
72
1
1
0.257
7
standard
210
0
220
0
230
1
50
312.273688997
73
2
44
1
0
ENDBLK
5
92
330
90
100
AcDbEntity
8
0
100
AcDbBlockEnd
0
ENDSEC
0
SECTION
2
ENTITIES
0
HATCH
5
101
100
AcDbEntity
8
5/16_screw_pocket_bot_hatch
6
ByLayer
62
256
370
-1
100
AcDbHatch
10
0
20
0
30
0
210
0
220
0
230
1
2
ansi31
70
0
71
0
91
1
92
0
93
8
72
2
10
0
20
13
40
0.1615
50
0
51
360
73
1
72
2
10
0
20
11.5
40
0.1615
50
0
51
360
73
1
72
2
10
1.5
20
11.5
40
0.1615
50
0
51
360
73
1
72
2
10
1.5
20
13
40
0.1615
50
0
51
360
73
1
72
2
10
0
20
13
40
0.375
50
0
51
360
73
1
72
2
10
0
20
11.5
40
0.375
50
0
51
360
73
1
72
2
10
1.5
20
11.5
40
0.375
50
0
51
360
73
1
72
2
10
1.5
20
13
40
0.375
50
0
51
360
73
1
97
0
75
0
76
1
52
0
41
0.05
77
0
78
0
98
0
0
HATCH
5
102
100
AcDbEntity
8
5/16_screw_pocket_top_hatch
6
ByLayer
62
256
370
-1
100
AcDbHatch
10
0
20
0
30
0
210
0
220
0
230
1
2
ansi31
70
0
71
0
91
1
92
0
93
4
72
2
10
3
20
13
40
0.1615
50
0
51
360
73
1
72
2
10
3
20
11.5
40
0.1615
50
0
51
360
73
1
72
2
10
3
20
13
40
0.375
50
0
51
360
73
1
72
2
10
3
20
11.5
40
0.375
50
0
51
360
73
1
97
0
75
0
76
1
52
0
41
0.05
77
0
78
0
98
0
0
HATCH
5
103
100
AcDbEntity
8
rail_pocket_hatch
6
ByLayer
62
256
370
-1
100
AcDbHatch
10
0
20
0
30
0
210
0
220
0
230
1
2
ansi31
70
0
71
0
91
1
92
0
93
10
72
2
10
-1.5
20
13
40
0.1615
50
0
51
360
73
1
72
2
10
-1.5
20
11.5
40
0.1615
50
0
51
360
73
1
72
2
10
-3
20
13
40
0.1615
50
0
51
360
73
1
72
2
10
-3
20
11.5
40
0.1615
50
0
51
360
73
1
72
1
10
-0.75
20
13.625
11
-0.75
21
10.875
72
1
10
-0.75
20
10.875
11
-3.3125
21
10.875
72
2
10
-3.3125
20
11.0625
40
0.1875
50
90
51
180
73
0
72
1
10
-3.5
20
11.0625
11
-3.5
21
13.4375
72
2
10
-3.3125
20
13.4375
40
0.1875
50
180
51
270
73
0
72
1
10
-3.3125
20
13.625
11
-0.75
21
13.625
97
0
75
0
76
1
52
0
41
0.05
77
0
78
0
98
0
0
LINE
5
104
100
AcDbEntity
8
boundary
6
ByLayer
62
256
370
-1
100
AcDbLine
10
2.75
20
0
11
-4.25
21
0
0
LINE
5
105
100
AcDbEntity
8
boundary
6
ByLayer
62
256
370
-1
100
AcDbLine
10
2.75
20
0.8
11
2.75
21
0
0
LINE
5
106
100
AcDbEntity
8
boundary
6
ByLayer
62
256
370
-1
100
AcDbLine
10
-1.5
20
0.25
11
-4.25
21
0.25
0
LINE
5
107
100
AcDbEntity
8
boundary
6
ByLayer
62
256
370
-1
100
AcDbLine
10
-4.25
20
0
11
-4.25
21
0.25
0
LINE
5
108
100
AcDbEntity
8
boundary
6
ByLayer
62
256
370
-1
100
AcDbLine
10
-1.5
20
0.8
11
-1.5
21
0.25
0
LINE
5
109
100
AcDbEntity
8
5/16_through_hole_side
6
ByLayer
62
256
370
-1
100
AcDbLine
10
-3.9115
20
0.25
11
-3.9115
21
0
0
LINE
5
10A
100
AcDbEntity
8
5/16_through_hole_side
6
ByLayer
62
256
370
-1
100
AcDbLine
10
-3.5885
20
0.25
11
-3.5885
21
0
0
LINE
5
10B
100
AcDbEntity
8
5/16_through_hole_side
6
ByLayer
62
256
370
-1
100
AcDbLine
10
-2.4115
20
0.25
11
-2.4115
21
0
0
LINE
5
10C
100
AcDbEntity
8
5/16_through_hole_side
6
ByLayer
62
256
370
-1
100
AcDbLine
10
-2.0885
20
0.25
11
-2.0885
21
0
0
LINE
5
10D
100
AcDbEntity
8
5/16_screw_pocket_side
6
ByLayer
62
256
370
-1
100
AcDbLine
10
-1.125
20
0
11
-1.125
21
0.375
0
LINE
5
10E
100
AcDbEntity
8
5/16_screw_pocket_side
6
ByLayer
62
256
370
-1
100
AcDbLine
10
-0.375
20
0
11
-0.375
21
0.375
0
LINE
5
10F
100
AcDbEntity
8
5/16_screw_pocket_side
6
ByLayer
62
256
370
-1
100
AcDbLine
10
0.375
20
0
11
0.375
21
0.375
0
LINE
5
110
100
AcDbEntity
8
5/16_screw_pocket_side
6
ByLayer
62
256
370
-1
100
AcDbLine
10
1.125
20
0
11
1.125
21
0.375
0
LINE
5
111
100
AcDbEntity
8
5/16_screw_pocket_side
6
ByLayer
62
256
370
-1
100
AcDbLine
10
1.875
20
0.8
11
1.875
21
0.425
0
LINE
5
112
100
AcDbEntity
8
5/16_screw_pocket_side
6
ByLayer
62
256
370
-1
100
AcDbLine
10
2.625
20
0.8
11
2.625
21
0.425
0
LINE
5
113
100
AcDbEntity
8
5/16_through_hole_side
6
ByLayer
62
256
370
-1
100
AcDbLine
10
-0.9115
20
0.8
11
-0.9115
21
0.375
0
LINE
5
114
100
AcDbEntity
8
5/16_through_hole_side
6
ByLayer
62
256
370
-1
100
AcDbLine
10
-0.5885
20
0.8
11
-0.5885
21
0.375
0
LINE
5
115
100
AcDbEntity
8
5/16_through_hole_side
6
ByLayer
62
256
370
-1
100
AcDbLine
10
0.5885
20
0.8
11
0.5885
21
0.375
0
LINE
5
116
100
AcDbEntity
8
5/16_through_hole_side
6
ByLayer
62
256
370
-1
100
AcDbLine
10
0.9115
20
0.8
11
0.9115
21
0.375
0
LINE
5
117
100
AcDbEntity
8
5/16_screw_pocket_side
6
ByLayer
62
256
370
-1
100
AcDbLine
10
-1.125
20
0.375
11
-0.9115
21
0.375
0
LINE
5
118
100
AcDbEntity
8
5/16_screw_pocket_side
6
ByLayer
62
256
370
-1
100
AcDbLine
10
-0.5885
20
0.375
11
-0.375
21
0.375
0
LINE
5
119
100
AcDbEntity
8
5/16_screw_pocket_side
6
ByLayer
62
256
370
-1
100
AcDbLine
10
0.375
20
0.375
11
0.5885
21
0.375
0
LINE
5
11A
100
AcDbEntity
8
5/16_screw_pocket_side
6
ByLayer
62
256
370
-1
100
AcDbLine
10
0.9115
20
0.375
11
1.125
21
0.375
0
LINE
5
11B
100
AcDbEntity
8
5/16_screw_pocket_side
6
ByLayer
62
256
370
-1
100
AcDbLine
10
1.875
20
0.425
11
2.0885
21
0.425
0
LINE
5
11C
100
AcDbEntity
8
5/16_screw_pocket_side
6
ByLayer
62
256
370
-1
100
AcDbLine
10
2.4115
20
0.425
11
2.625
21
0.425
0
LINE
5
11D
100
AcDbEntity
8
5/16_through_hole_side
6
ByLayer
62
256
370
-1
100
AcDbLine
10
2.0885
20
0.425
11
2.0885
21
0
0
LINE
5
11E
100
AcDbEntity
8
5/16_through_hole_side
6
ByLayer
62
256
370
-1
100
AcDbLine
10
2.4115
20
0.425
11
2.4115
21
0
0
LINE
5
11F
100
AcDbEntity
8
gantry_viz
6
ByLayer
62
256
370
-1
100
AcDbLine
10
-1.5
20
6.8
11
1.5
21
6.8
0
LINE
5
120
100
AcDbEntity
8
gantry_viz
6
ByLayer
62
256
370
-1
100
AcDbLine
10
1.5
20
6.8
11
1.5
21
0.8
0
LINE
5
121
100
AcDbEntity
8
gantry_viz
6
ByLayer
62
256
370
-1
100
AcDbLine
10
1.5
20
0.8
11
-1.5
21
0.8
0
LINE
5
122
100
AcDbEntity
8
gantry_viz
6
ByLayer
62
256
370
-1
100
AcDbLine
10
-1.5
20
0.8
11
-1.5
21
6.8
0
LINE
5
123
100
AcDbEntity
8
gantry_viz
6
ByLayer
62
256
370
-1
100
AcDbLine
10
-1.5
20
0.8
11
-1.5
21
1.55
0
LINE
5
124
100
AcDbEntity
8
gantry_viz
6
ByLayer
62
256
370
-1
100
AcDbLine
10
-1.5
20
1.55
11
-1.5
21
0.3
0
LINE
5
125
100
AcDbEntity
8
gantry_viz
6
ByLayer
62
256
370
-1
100
AcDbLine
10
-1.5
20
1.55
11
-1.5
21
2.8
0
LINE
5
126
100
AcDbEntity
8
gantry_viz
6
ByLayer
62
256
370
-1
100
AcDbLine
10
-1.5
20
2.8
11
-1.75
21
2.8
0
LINE
5
127
100
AcDbEntity
8
gantry_viz
6
ByLayer
62
256
370
-1
100
AcDbLine
10
-1.5
20
0.3
11
-1.75
21
0.3
0
LINE
5
128
100
AcDbEntity
8
gantry_viz
6
ByLayer
62
256
370
-1
100
AcDbLine
10
-1.75
20
2.8
11
-1.75
21
0.3
0
LINE
5
129
100
AcDbEntity
8
gantry_viz
6
ByLayer
62
256
370
-1
100
AcDbLine
10
-1.75
20
7.3
11
-1.5
21
7.3
0
LINE
5
12A
100
AcDbEntity
8
gantry_viz
6
ByLayer
62
256
370
-1
100
AcDbLine
10
-1.5
20
7.3
11
-1.5
21
4.8
0
LINE
5
12B
100
AcDbEntity
8
gantry_viz
6
ByLayer
62
256
370
-1
100
AcDbLine
10
-1.5
20
4.8
11
-1.75
21
4.8
0
LINE
5
12C
100
AcDbEntity
8
gantry_viz
6
ByLayer
62
256
370
-1
100
AcDbLine
10
-1.75
20
4.8
11
-1.75
21
7.3
0
DIMENSION
5
12D
100
AcDbEntity
8
dimension
6
ByLayer
62
256
370
-1
100
AcDbDimension
2
*D1
10
3.60777252864
20
-1.0504683816e-16
30
0
11
3.45777252864
21
0.4
31
0
70
32
71
5
3
Standard
53
0
210
0
220
0
230
1
100
AcDbAlignedDimension
13
2.75
23
0.8
33
0
14
2.75
24
0
34
0
50
90
100
AcDbRotatedDimension
0
DIMENSION
5
12E
100
AcDbEntity
8
dimension
6
ByLayer
62
256
370
-1
100
AcDbDimension
2
*D2
10
-4.83433272501
20
7.15601201317e-17
30
0
11
-4.98433272501
21
0.125
31
0
70
32
71
5
3
Standard
53
0
210
0
220
0
230
1
100
AcDbAlignedDimension
13
-4.25
23
0.25
33
0
14
-4.25
24
0
34
0
50
90
100
AcDbRotatedDimension
0
DIMENSION
5
12F
100
AcDbEntity
8
dimension
6
ByLayer
62
256
370
-1
100
AcDbDimension
2
*D3
10
-4.25
20
0.527765581333
30
0
11
-2.875
21
0.677765581333
31
0
70
32
71
5
3
Standard
53
0
210
0
220
0
230
1
100
AcDbAlignedDimension
13
-1.5
23
0.25
33
0
14
-4.25
24
0.25
34
0
100
AcDbRotatedDimension
0
DIMENSION
5
130
100
AcDbEntity
8
dimension
6
ByLayer
62
256
370
-1
100
AcDbDimension
2
*D4
10
2.75
20
-0.92341796864
30
0
11
-0.75
21
-0.77341796864
31
0
70
32
71
5
3
Standard
53
0
210
0
220
0
230
1
100
AcDbAlignedDimension
13
-4.25
23
0
33
0
14
2.75
24
0
34
0
100
AcDbRotatedDimension
0
DIMENSION
5
131
100
AcDbEntity
8
dimension
6
ByLayer
62
256
370
-1
100
AcDbDimension
2
*D5
10
2.31928233984
20
0.8
30
0
11
2.16928233984
21
3.8
31
0
70
32
71
5
3
Standard
53
0
210
0
220
0
230
1
100
AcDbAlignedDimension
13
1.5
23
6.8
33
0
14
1.5
24
0.8
34
0
50
90
100
AcDbRotatedDimension
0
DIMENSION
5
132
100
AcDbEntity
8
dimension
6
ByLayer
62
256
370
-1
100
AcDbDimension
2
*D6
10
1.5
20
7.37016387994
30
0
11
9.18485099361e-18
21
7.52016387994
31
0
70
32
71
5
3
Standard
53
0
210
0
220
0
230
1
100
AcDbAlignedDimension
13
-1.5
23
6.8
33
0
14
1.5
24
6.8
34
0
100
AcDbRotatedDimension
0
LINE
5
133
100
AcDbEntity
8
boundary
6
ByLayer
62
256
370
-1
100
AcDbLine
10
-1.5
20
0.8
11
2.75
21
0.8
0
ARC
5
134
100
AcDbEntity
8
boundary
6
ByLayer
62
256
370
-1
100
AcDbCircle
10
-2.2625
20
14.0375
40
0.1875
100
AcDbArc
50
180
51
270
0
LINE
5
135
100
AcDbEntity
8
boundary
6
ByLayer
62
256
370
-1
100
AcDbLine
10
-2.2375
20
13.85
11
-2.2625
21
13.85
0
ARC
5
136
100
AcDbEntity
8
boundary
6
ByLayer
62
256
370
-1
100
AcDbCircle
10
-2.2375
20
14.0375
40
0.1875
100
AcDbArc
50
270
51
0
0
ARC
5
137
100
AcDbEntity
8
boundary
6
ByLayer
62
256
370
-1
100
AcDbCircle
10
-0.7625
20
14.0375
40
0.1875
100
AcDbArc
50
180
51
270
0
LINE
5
138
100
AcDbEntity
8
boundary
6
ByLayer
62
256
370
-1
100
AcDbLine
10
-0.7375
20
13.85
11
-0.7625
21
13.85
0
ARC
5
139
100
AcDbEntity
8
boundary
6
ByLayer
62
256
370
-1
100
AcDbCircle
10
-0.7375
20
14.0375
40
0.1875
100
AcDbArc
50
270
51
0
0
ARC
5
13A
100
AcDbEntity
8
boundary
6
ByLayer
62
256
370
-1
100
AcDbCircle
10
0.7375
20
14.0375
40
0.1875
100
AcDbArc
50
180
51
270
0
LINE
5
13B
100
AcDbEntity
8
boundary
6
ByLayer
62
256
370
-1
100
AcDbLine
10
0.7625
20
13.85
11
0.7375
21
13.85
0
ARC
5
13C
100
AcDbEntity
8
boundary
6
ByLayer
62
256
370
-1
100
AcDbCircle
10
0.7625
20
14.0375
40
0.1875
100
AcDbArc
50
270
51
0
0
ARC
5
13D
100
AcDbEntity
8
boundary
6
ByLayer
62
256
370
-1
100
AcDbCircle
10
2.2375
20
14.0375
40
0.1875
100
AcDbArc
50
180
51
270
0
LINE
5
13E
100
AcDbEntity
8
boundary
6
ByLayer
62
256
370
-1
100
AcDbLine
10
2.2625
20
13.85
11
2.2375
21
13.85
0
ARC
5
13F
100
AcDbEntity
8
boundary
6
ByLayer
62
256
370
-1
100
AcDbCircle
10
2.2625
20
14.0375
40
0.1875
100
AcDbArc
50
270
51
0
0
ARC
5
140
100
AcDbEntity
8
boundary
6
ByLayer
62
256
370
-1
100
AcDbCircle
10
-2.2625
20
10.4625
40
0.1875
100
AcDbArc
50
90
51
180
0
LINE
5
141
100
AcDbEntity
8
boundary
6
ByLayer
62
256
370
-1
100
AcDbLine
10
-2.2375
20
10.65
11
-2.2625
21
10.65
0
ARC
5
142
100
AcDbEntity
8
boundary
6
ByLayer
62
256
370
-1
100
AcDbCircle
10
-2.2375
20
10.4625
40
0.1875
100
AcDbArc
50
0
51
90
0
ARC
5
143
100
AcDbEntity
8
boundary
6
ByLayer
62
256
370
-1
100
AcDbCircle
10
-0.7625
20
10.4625
40
0.1875
100
AcDbArc
50
90
51
180
0
LINE
5
144
100
AcDbEntity
8
boundary
6
ByLayer
62
256
370
-1
100
AcDbLine
10
-0.7375
20
10.65
11
-0.7625
21
10.65
0
ARC
5
145
100
AcDbEntity
8
boundary
6
ByLayer
62
256
370
-1
100
AcDbCircle
10
-0.7375
20
10.4625
40
0.1875
100
AcDbArc
50
0
51
90
0
ARC
5
146
100
AcDbEntity
8
boundary
6
ByLayer
62
256
370
-1
100
AcDbCircle
10
0.7375
20
10.4625
40
0.1875
100
AcDbArc
50
90
51
180
0
LINE
5
147
100
AcDbEntity
8
boundary
6
ByLayer
62
256
370
-1
100
AcDbLine
10
0.7625
20
10.65
11
0.7375
21
10.65
0
ARC
5
148
100
AcDbEntity
8
boundary
6
ByLayer
62
256
370
-1
100
AcDbCircle
10
0.7625
20
10.4625
40
0.1875
100
AcDbArc
50
0
51
90
0
ARC
5
149
100
AcDbEntity
8
boundary
6
ByLayer
62
256
370
-1
100
AcDbCircle
10
2.2375
20
10.4625
40
0.1875
100
AcDbArc
50
90
51
180
0
LINE
5
14A
100
AcDbEntity
8
boundary
6
ByLayer
62
256
370
-1
100
AcDbLine
10
2.2625
20
10.65
11
2.2375
21
10.65
0
ARC
5
14B
100
AcDbEntity
8
boundary
6
ByLayer
62
256
370
-1
100
AcDbCircle
10
2.2625
20
10.4625
40
0.1875
100
AcDbArc
50
0
51
90
0
CIRCLE
5
14C
100
AcDbEntity
8
1/4-20_tap_hole
6
ByLayer
62
256
370
-1
100
AcDbCircle
10
-4.14
20
13
40
0.1005
0
CIRCLE
5
14D
100
AcDbEntity
8
1/4-20_tap_hole
6
ByLayer
62
256
370
-1
100
AcDbCircle
10
-4.14
20
11.5
40
0.1005
0
CIRCLE
5
14E
100
AcDbEntity
8
1/4-20_tap_hole
6
ByLayer
62
256
370
-1
100
AcDbCircle
10
4.14
20
13
40
0.1005
0
CIRCLE
5
14F
100
AcDbEntity
8
1/4-20_tap_hole
6
ByLayer
62
256
370
-1
100
AcDbCircle
10
4.14
20
11.5
40
0.1005
0
ARC
5
150
100
AcDbEntity
8
boundary
6
ByLayer
62
256
370
-1
100
AcDbCircle
10
-4.3125
20
14.3125
40
0.1875
100
AcDbArc
50
90
51
180
0
LINE
5
151
100
AcDbEntity
8
boundary
6
ByLayer
62
256
370
-1
100
AcDbLine
10
-4.5
20
14.3125
11
-4.5
21
10.1875
0
ARC
5
152
100
AcDbEntity
8
boundary
6
ByLayer
62
256
370
-1
100
AcDbCircle
10
-4.3125
20
10.1875
40
0.1875
100
AcDbArc
50
180
51
270
0
ARC
5
153
100
AcDbEntity
8
boundary
6
ByLayer
62
256
370
-1
100
AcDbCircle
10
4.3125
20
14.3125
40
0.1875
100
AcDbArc
50
0
51
90
0
LINE
5
154
100
AcDbEntity
8
boundary
6
ByLayer
62
256
370
-1
100
AcDbLine
10
4.5
20
10.1875
11
4.5
21
14.3125
0
ARC
5
155
100
AcDbEntity
8
boundary
6
ByLayer
62
256
370
-1
100
AcDbCircle
10
4.3125
20
10.1875
40
0.1875
100
AcDbArc
50
270
51
0
0
LINE
5
156
100
AcDbEntity
8
scratch
6
ByLayer
62
256
370
-1
100
AcDbLine
10
4.5
20
12.25
11
4.5
21
12.25
0
LINE
5
157
100
AcDbEntity
8
scratch
6
ByLayer
62
256
370
-1
100
AcDbLine
10
4.5
20
12.25
11
-4.5
21
12.25
0
LINE
5
158
100
AcDbEntity
8
scratch
6
ByLayer
62
256
370
-1
100
AcDbLine
10
-4.5
20
12.25
11
-4.5
21
12.25
0
LINE
5
159
100
AcDbEntity
8
scratch
6
ByLayer
62
256
370
-1
100
AcDbLine
10
-3.5
20
12.25
11
3.5
21
12.25
0
LINE
5
15A
100
AcDbEntity
8
boundary
6
ByLayer
62
256
370
-1
100
AcDbLine
10
-2.45
20
14.0375
11
-2.45
21
14.4375
0
LINE
5
15B
100
AcDbEntity
8
boundary
6
ByLayer
62
256
370
-1
100
AcDbLine
10
-2.5125
20
14.5
11
-4.3125
21
14.5
0
ARC
5
15C
100
AcDbEntity
8
boundary
6
ByLayer
62
256
370
-1
100
AcDbCircle
10
-2.5125
20
14.4375
40
0.0625
100
AcDbArc
50
0
51
90
0
LINE
5
15D
100
AcDbEntity
8
boundary
6
ByLayer
62
256
370
-1
100
AcDbLine
10
-2.05
20
14.4375
11
-2.05
21
14.0375
0
ARC
5
15E
100
AcDbEntity
8
boundary
6
ByLayer
62
256
370
-1
100
AcDbCircle
10
-1.9875
20
14.4375
40
0.0625
100
AcDbArc
50
90
51
180
0
LINE
5
15F
100
AcDbEntity
8
boundary
6
ByLayer
62
256
370
-1
100
AcDbLine
10
-0.95
20
14.0375
11
-0.95
21
14.4375
0
LINE
5
160
100
AcDbEntity
8
boundary
6
ByLayer
62
256
370
-1
100
AcDbLine
10
-1.0125
20
14.5
11
-1.9875
21
14.5
0
ARC
5
161
100
AcDbEntity
8
boundary
6
ByLayer
62
256
370
-1
100
AcDbCircle
10
-1.0125
20
14.4375
40
0.0625
100
AcDbArc
50
0
51
90
0
LINE
5
162
100
AcDbEntity
8
boundary
6
ByLayer
62
256
370
-1
100
AcDbLine
10
-0.55
20
14.4375
11
-0.55
21
14.0375
0
ARC
5
163
100
AcDbEntity
8
boundary
6
ByLayer
62
256
370
-1
100
AcDbCircle
10
-0.4875
20
14.4375
40
0.0625
100
AcDbArc
50
90
51
180
0
LINE
5
164
100
AcDbEntity
8
boundary
6
ByLayer
62
256
370
-1
100
AcDbLine
10
0.4875
20
14.5
11
-0.4875
21
14.5
0
LINE
5
165
100
AcDbEntity
8
boundary
6
ByLayer
62
256
370
-1
100
AcDbLine
10
0.55
20
14.0375
11
0.55
21
14.4375
0
ARC
5
166
100
AcDbEntity
8
boundary
6
ByLayer
62
256
370
-1
100
AcDbCircle
10
0.4875
20
14.4375
40
0.0625
100
AcDbArc
50
0
51
90
0
LINE
5
167
100
AcDbEntity
8
boundary
6
ByLayer
62
256
370
-1
100
AcDbLine
10
0.95
20
14.4375
11
0.95
21
14.0375
0
ARC
5
168
100
AcDbEntity
8
boundary
6
ByLayer
62
256
370
-1
100
AcDbCircle
10
1.0125
20
14.4375
40
0.0625
100
AcDbArc
50
90
51
180
0
LINE
5
169
100
AcDbEntity
8
boundary
6
ByLayer
62
256
370
-1
100
AcDbLine
10
1.9875
20
14.5
11
1.0125
21
14.5
0
LINE
5
16A
100
AcDbEntity
8
boundary
6
ByLayer
62
256
370
-1
100
AcDbLine
10
2.05
20
14.0375
11
2.05
21
14.4375
0
ARC
5
16B
100
AcDbEntity
8
boundary
6
ByLayer
62
256
370
-1
100
AcDbCircle
10
1.9875
20
14.4375
40
0.0625
100
AcDbArc
50
0
51
90
0
LINE
5
16C
100
AcDbEntity
8
boundary
6
ByLayer
62
256
370
-1
100
AcDbLine
10
2.45
20
14.4375
11
2.45
21
14.0375
0
LINE
5
16D
100
AcDbEntity
8
boundary
6
ByLayer
62
256
370
-1
100
AcDbLine
10
4.3125
20
14.5
11
2.5125
21
14.5
0
ARC
5
16E
100
AcDbEntity
8
boundary
6
ByLayer
62
256
370
-1
100
AcDbCircle
10
2.5125
20
14.4375
40
0.0625
100
AcDbArc
50
90
51
180
0
LINE
5
16F
100
AcDbEntity
8
boundary
6
ByLayer
62
256
370
-1
100
AcDbLine
10
-4.3125
20
10
11
-2.5125
21
10
0
LINE
5
170
100
AcDbEntity
8
boundary
6
ByLayer
62
256
370
-1
100
AcDbLine
10
-2.45
20
10.4625
11
-2.45
21
10.0625
0
ARC
5
171
100
AcDbEntity
8
boundary
6
ByLayer
62
256
370
-1
100
AcDbCircle
10
-2.5125
20
10.0625
40
0.0625
100
AcDbArc
50
270
51
0
0
LINE
5
172
100
AcDbEntity
8
boundary
6
ByLayer
62
256
370
-1
100
AcDbLine
10
-2.05
20
10.0625
11
-2.05
21
10.4625
0
ARC
5
173
100
AcDbEntity
8
boundary
6
ByLayer
62
256
370
-1
100
AcDbCircle
10
-1.9875
20
10.0625
40
0.0625
100
AcDbArc
50
180
51
270
0
LINE
5
174
100
AcDbEntity
8
boundary
6
ByLayer
62
256
370
-1
100
AcDbLine
10
-1.9875
20
10
11
-1.0125
21
10
0
LINE
5
175
100
AcDbEntity
8
boundary
6
ByLayer
62
256
370
-1
100
AcDbLine
10
-0.95
20
10.4625
11
-0.95
21
10.0625
0
ARC
5
176
100
AcDbEntity
8
boundary
6
ByLayer
62
256
370
-1
100
AcDbCircle
10
-1.0125
20
10.0625
40
0.0625
100
AcDbArc
50
270
51
0
0
LINE
5
177
100
AcDbEntity
8
boundary
6
ByLayer
62
256
370
-1
100
AcDbLine
10
-0.55
20
10.0625
11
-0.55
21
10.4625
0
ARC
5
178
100
AcDbEntity
8
boundary
6
ByLayer
62
256
370
-1
100
AcDbCircle
10
-0.4875
20
10.0625
40
0.0625
100
AcDbArc
50
180
51
270
0
LINE
5
179
100
AcDbEntity
8
boundary
6
ByLayer
62
256
370
-1
100
AcDbLine
10
-0.4875
20
10
11
0.4875
21
10
0
LINE
5
17A
100
AcDbEntity
8
boundary
6
ByLayer
62
256
370
-1
100
AcDbLine
10
0.55
20
10.4625
11
0.55
21
10.0625
0
ARC
5
17B
100
AcDbEntity
8
boundary
6
ByLayer
62
256
370
-1
100
AcDbCircle
10
0.4875
20
10.0625
40
0.0625
100
AcDbArc
50
270
51
0
0
LINE
5
17C
100
AcDbEntity
8
boundary
6
ByLayer
62
256
370
-1
100
AcDbLine
10
0.95
20
10.0625
11
0.95
21
10.4625
0
ARC
5
17D
100
AcDbEntity
8
boundary
6
ByLayer
62
256
370
-1
100
AcDbCircle
10
1.0125
20
10.0625
40
0.0625
100
AcDbArc
50
180
51
270
0
LINE
5
17E
100
AcDbEntity
8
boundary
6
ByLayer
62
256
370
-1
100
AcDbLine
10
1.0125
20
10
11
1.9875
21
10
0
LINE
5
17F
100
AcDbEntity
8
boundary
6
ByLayer
62
256
370
-1
100
AcDbLine
10
2.05
20
10.4625
11
2.05
21
10.0625
0
ARC
5
180
100
AcDbEntity
8
boundary
6
ByLayer
62
256
370
-1
100
AcDbCircle
10
1.9875
20
10.0625
40
0.0625
100
AcDbArc
50
270
51
0
0
LINE
5
181
100
AcDbEntity
8
boundary
6
ByLayer
62
256
370
-1
100
AcDbLine
10
2.45
20
10.0625
11
2.45
21
10.4625
0
LINE
5
182
100
AcDbEntity
8
boundary
6
ByLayer
62
256
370
-1
100
AcDbLine
10
2.5125
20
10
11
4.3125
21
10
0
ARC
5
183
100
AcDbEntity
8
boundary
6
ByLayer
62
256
370
-1
100
AcDbCircle
10
2.5125
20
10.0625
40
0.0625
100
AcDbArc
50
180
51
270
0
CIRCLE
5
184
100
AcDbEntity
8
5/16-18_tap_hole
6
ByLayer
62
256
370
-1
100
AcDbCircle
10
-3
20
13
40
0.1285
0
CIRCLE
5
185
100
AcDbEntity
8
5/16-18_tap_hole
6
ByLayer
62
256
370
-1
100
AcDbCircle
10
-1.5
20
13
40
0.1285
0
CIRCLE
5
186
100
AcDbEntity
8
5/16-18_tap_hole
6
ByLayer
62
256
370
-1
100
AcDbCircle
10
-3
20
11.5
40
0.1285
0
CIRCLE
5
187
100
AcDbEntity
8
5/16-18_tap_hole
6
ByLayer
62
256
370
-1
100
AcDbCircle
10
-1.5
20
11.5
40
0.1285
0
CIRCLE
5
188
100
AcDbEntity
8
5/16-18_tap_hole
6
ByLayer
62
256
370
-1
100
AcDbCircle
10
3
20
13
40
0.1285
0
CIRCLE
5
189
100
AcDbEntity
8
5/16-18_tap_hole
6
ByLayer
62
256
370
-1
100
AcDbCircle
10
3
20
11.5
40
0.1285
0
DIMENSION
5
18A
100
AcDbEntity
8
dimension
6
ByLayer
62
256
370
-1
100
AcDbDimension
2
*D7
10
4.5
20
8.992587776
30
0
11
0
21
9.142587776
31
0
70
32
71
5
72
0
3
Standard
53
0
210
0
220
0
230
1
100
AcDbAlignedDimension
13
-4.5
23
10.1875
33
0
14
4.5
24
10.1875
34
0
100
AcDbRotatedDimension
0
DIMENSION
5
18B
100
AcDbEntity
8
dimension
6
ByLayer
62
256
370
-1
100
AcDbDimension
2
*D8
10
-0.75
20
15.1732604633
30
0
11
-1.5
21
15.3232604633
31
0
70
32
71
5
72
0
3
Standard
53
0
210
0
220
0
230
1
100
AcDbAlignedDimension
13
-2.25
23
13.85
33
0
14
-0.75
24
13.85
34
0
100
AcDbRotatedDimension
0
DIMENSION
5
18C
100
AcDbEntity
8
dimension
6
ByLayer
62
256
370
-1
100
AcDbDimension
2
*D9
10
3.1203335421
20
13.85
30
0
11
2.9703335421
21
14.175
31
0
70
32
71
5
72
0
3
Standard
53
0
210
0
220
0
230
1
100
AcDbAlignedDimension
13
2.5125
23
14.5
33
0
14
2.25
24
13.85
34
0
50
90
100
AcDbRotatedDimension
0
DIMENSION
5
18D
100
AcDbEntity
8
dimension
6
ByLayer
62
256
370
-1
100
AcDbDimension
2
*D10
10
-4.3125
20
14.3125
30
0
11
-4.78172451111
21
15.0902182776
31
0
70
36
71
5
72
0
3
Standard
53
0
210
0
220
0
230
1
100
AcDbRadialDimension
15
-4.4345439544
25
14.4548429774
35
0
40
0
0
DIMENSION
5
18E
100
AcDbEntity
8
dimension
6
ByLayer
62
256
370
-1
100
AcDbDimension
2
*D11
10
0.7625
20
14.0375
30
0
11
1.4578650732
21
13.4531330125
31
0
70
36
71
5
72
0
3
Standard
53
0
210
0
220
0
230
1
100
AcDbRadialDimension
15
0.8841511135
25
13.8948211418
35
0
40
0
0
DIMENSION
5
18F
100
AcDbEntity
8
dimension
6
ByLayer
62
256
370
-1
100
AcDbDimension
2
*D12
10
-1.5
20
10.9951162778
30
0
11
-2.25
21
11.1451162778
31
0
70
32
71
5
72
0
3
Standard
53
0
210
0
220
0
230
1
100
AcDbAlignedDimension
13
-3
23
11.5
33
0
14
-1.5
24
11.5
34
0
100
AcDbRotatedDimension
0
DIMENSION
5
190
100
AcDbEntity
8
dimension
6
ByLayer
62
256
370
-1
100
AcDbDimension
2
*D13
10
3
20
10.9951162778
30
0
11
0.75
21
11.1451162778
31
0
70
32
71
5
72
0
3
Standard
53
0
210
0
220
0
230
1
100
AcDbAlignedDimension
13
-1.5
23
11.5
33
0
14
3
24
11.5
34
0
100
AcDbRotatedDimension
0
DIMENSION
5
191
100
AcDbEntity
8
dimension
6
ByLayer
62
256
370
-1
100
AcDbDimension
2
*D14
10
4.14
20
10.9951162778
30
0
11
3.57
21
11.1451162778
31
0
70
32
71
5
72
0
3
Standard
53
0
210
0
220
0
230
1
100
AcDbAlignedDimension
13
3
23
11.5
33
0
14
4.14
24
11.5
34
0
100
AcDbRotatedDimension
0
DIMENSION
5
192
100
AcDbEntity
8
dimension
6
ByLayer
62
256
370
-1
100
AcDbDimension
2
*D15
10
-3
20
10.9944125903
30
0
11
-3.57
21
11.1444125903
31
0
70
32
71
5
72
0
3
Standard
53
0
210
0
220
0
230
1
100
AcDbAlignedDimension
13
-4.14
23
11.5
33
0
14
-3
24
11.5
34
0
100
AcDbRotatedDimension
0
DIMENSION
5
193
100
AcDbEntity
8
dimension
6
ByLayer
62
256
370
-1
100
AcDbDimension
2
*D16
10
5.1194106081
20
11.5
30
0
11
4.9694106081
21
12.25
31
0
70
32
71
5
72
0
3
Standard
53
0
210
0
220
0
230
1
100
AcDbAlignedDimension
13
4.14
23
13
33
0
14
4.14
24
11.5
34
0
50
90
100
AcDbRotatedDimension
0
DIMENSION
5
194
100
AcDbEntity
8
dimension
6
ByLayer
62
256
370
-1
100
AcDbDimension
2
*D17
10
5.1188058767
20
14.5
30
0
11
4.9688058767
21
13.75
31
0
70
32
71
5
72
0
3
Standard
53
0
210
0
220
0
230
1
100
AcDbAlignedDimension
13
4.14
23
13
33
0
14
4.3125
24
14.5
34
0
50
90
100
AcDbRotatedDimension
0
DIMENSION
5
195
100
AcDbEntity
8
dimension
6
ByLayer
62
256
370
-1
100
AcDbDimension
2
*D18
10
6.005891858
20
10
30
0
11
5.855891858
21
12.25
31
0
70
32
71
5
72
0
3
Standard
53
0
210
0
220
0
230
1
100
AcDbAlignedDimension
13
4.3125
23
14.5
33
0
14
4.3125
24
10
34
0
50
90
100
AcDbRotatedDimension
0
DIMENSION
5
196
100
AcDbEntity
8
dimension
6
ByLayer
62
256
370
-1
100
AcDbDimension
2
*D19
10
-4.2005847255
20
13.080185666
30
0
11
-4.0203199014
21
13.0904249634
31
0
70
35
71
5
72
0
3
Standard
53
0
210
0
220
0
230
1
100
AcDbDiametricDimension
15
-4.0794152745
25
12.919814334
35
0
40
0
0
DIMENSION
5
197
100
AcDbEntity
8
dimension
6
ByLayer
62
256
370
-1
100
AcDbDimension
2
*D20
10
-1.586438454
20
13.0950822994
30
0
11
-1.389008989
21
13.1009009191
31
0
70
35
71
5
72
0
3
Standard
53
0
210
0
220
0
230
1
100
AcDbDiametricDimension
15
-1.413561546
25
12.9049177006
35
0
40
0
0
LINE
5
198
100
AcDbEntity
8
gantry_viz
6
ByLayer
62
256
370
-1
100
AcDbLine
10
-0.75
20
10
11
2.25
21
10
0
CIRCLE
5
199
100
AcDbEntity
8
5/16-through_hole
6
ByLayer
62
256
370
-1
100
AcDbCircle
10
0
20
13
40
0.1615
0
CIRCLE
5
19A
100
AcDbEntity
8
5/16-through_hole
6
ByLayer
62
256
370
-1
100
AcDbCircle
10
0
20
11.5
40
0.1615
0
CIRCLE
5
19B
100
AcDbEntity
8
5/16-through_hole
6
ByLayer
62
256
370
-1
100
AcDbCircle
10
1.5
20
11.5
40
0.1615
0
CIRCLE
5
19C
100
AcDbEntity
8
5/16-through_hole
6
ByLayer
62
256
370
-1
100
AcDbCircle
10
1.5
20
13
40
0.1615
0
CIRCLE
5
19D
100
AcDbEntity
8
5/16-through_hole
6
ByLayer
62
256
370
-1
100
AcDbCircle
10
-1.5
20
13
40
0.1615
0
CIRCLE
5
19E
100
AcDbEntity
8
5/16-through_hole
6
ByLayer
62
256
370
-1
100
AcDbCircle
10
-1.5
20
11.5
40
0.1615
0
CIRCLE
5
19F
100
AcDbEntity
8
5/16-through_hole
6
ByLayer
62
256
370
-1
100
AcDbCircle
10
3
20
13
40
0.1615
0
CIRCLE
5
1A0
100
AcDbEntity
8
5/16-through_hole
6
ByLayer
62
256
370
-1
100
AcDbCircle
10
3
20
11.5
40
0.1615
0
CIRCLE
5
1A1
100
AcDbEntity
8
5/16-through_hole
6
ByLayer
62
256
370
-1
100
AcDbCircle
10
-3
20
13
40
0.1615
0
CIRCLE
5
1A2
100
AcDbEntity
8
5/16-through_hole
6
ByLayer
62
256
370
-1
100
AcDbCircle
10
-3
20
11.5
40
0.1615
0
LINE
5
1A3
100
AcDbEntity
8
gantry_viz
6
ByLayer
62
256
370
-1
100
AcDbLine
10
-0.75
20
10
11
-1
21
10
0
CIRCLE
5
1A4
100
AcDbEntity
8
5/16_screw_pocket_bot
6
ByLayer
62
256
370
-1
100
AcDbCircle
10
0
20
13
40
0.375
0
CIRCLE
5
1A5
100
AcDbEntity
8
5/16_screw_pocket_bot
6
ByLayer
62
256
370
-1
100
AcDbCircle
10
0
20
11.5
40
0.375
0
CIRCLE
5
1A6
100
AcDbEntity
8
5/16_screw_pocket_bot
6
ByLayer
62
256
370
-1
100
AcDbCircle
10
1.5
20
11.5
40
0.375
0
CIRCLE
5
1A7
100
AcDbEntity
8
5/16_screw_pocket_bot
6
ByLayer
62
256
370
-1
100
AcDbCircle
10
1.5
20
13
40
0.375
0
CIRCLE
5
1A8
100
AcDbEntity
8
5/16_screw_pocket_top
6
ByLayer
62
256
370
-1
100
AcDbCircle
10
3
20
13
40
0.375
0
CIRCLE
5
1A9
100
AcDbEntity
8
5/16_screw_pocket_top
6
ByLayer
62
256
370
-1
100
AcDbCircle
10
3
20
11.5
40
0.375
0
ARC
5
1AA
100
AcDbEntity
8
boundary
6
ByLayer
62
256
370
-1
100
AcDbCircle
10
-3.3125
20
13.4375
40
0.1875
100
AcDbArc
50
90
51
180
0
LINE
5
1AB
100
AcDbEntity
8
boundary
6
ByLayer
62
256
370
-1
100
AcDbLine
10
-3.5
20
11.0625
11
-3.5
21
13.4375
0
ARC
5
1AC
100
AcDbEntity
8
boundary
6
ByLayer
62
256
370
-1
100
AcDbCircle
10
-3.3125
20
11.0625
40
0.1875
100
AcDbArc
50
180
51
270
0
LINE
5
1AD
100
AcDbEntity
8
boundary
6
ByLayer
62
256
370
-1
100
AcDbLine
10
-3.3125
20
13.625
11
3.3125
21
13.625
0
ARC
5
1AE
100
AcDbEntity
8
boundary
6
ByLayer
62
256
370
-1
100
AcDbCircle
10
3.3125
20
13.4375
40
0.1875
100
AcDbArc
50
0
51
90
0
LINE
5
1AF
100
AcDbEntity
8
boundary
6
ByLayer
62
256
370
-1
100
AcDbLine
10
3.3125
20
10.875
11
-3.3125
21
10.875
0
LINE
5
1B0
100
AcDbEntity
8
boundary
6
ByLayer
62
256
370
-1
100
AcDbLine
10
3.5
20
13.4375
11
3.5
21
11.0625
0
ARC
5
1B1
100
AcDbEntity
8
boundary
6
ByLayer
62
256
370
-1
100
AcDbCircle
10
3.3125
20
11.0625
40
0.1875
100
AcDbArc
50
270
51
0
0
LINE
5
1B2
100
AcDbEntity
8
rail_pocket
6
ByLayer
62
256
370
-1
100
AcDbLine
10
-0.75
20
13.625
11
-0.75
21
10.875
0
LINE
5
1B3
100
AcDbEntity
8
rail_pocket
6
ByLayer
62
256
370
-1
100
AcDbLine
10
-3.3125
20
13.625
11
-0.75
21
13.625
0
ARC
5
1B4
100
AcDbEntity
8
rail_pocket
6
ByLayer
62
256
370
-1
100
AcDbCircle
10
-3.3125
20
13.4375
40
0.1875
100
AcDbArc
50
90
51
180
0
LINE
5
1B5
100
AcDbEntity
8
rail_pocket
6
ByLayer
62
256
370
-1
100
AcDbLine
10
-3.5
20
11.0625
11
-3.5
21
13.4375
0
LINE
5
1B6
100
AcDbEntity
8
rail_pocket
6
ByLayer
62
256
370
-1
100
AcDbLine
10
-0.75
20
10.875
11
-3.3125
21
10.875
0
ARC
5
1B7
100
AcDbEntity
8
rail_pocket
6
ByLayer
62
256
370
-1
100
AcDbCircle
10
-3.3125
20
11.0625
40
0.1875
100
AcDbArc
50
180
51
270
0
SPLINE
5
1B8
100
AcDbEntity
8
gantry_viz
6
ByLayer
62
256
370
-1
100
AcDbSpline
210
0
220
0
230
1
70
8
71
3
72
14
73
10
74
0
42
1e-07
43
1e-07
40
0
40
0
40
0
40
0
40
0.142857142857
40
0.285714285714
40
0.428571428571
40
0.571428571429
40
0.714285714286
40
0.857142857143
40
1
40
1
40
1
40
1
10
-1
20
17.179869184
30
0
10
-0.86697241021
20
17.2765287465
30
0
10
-0.5902712491
20
17.3082340879
30
0
10
-0.26168862029
20
17.2361764938
30
0
10
0.331165234656
20
16.956052597
30
0
10
1.15813871623
20
16.8533142305
30
0
10
1.64368305105
20
16.9729410956
30
0
10
1.93219490218
20
17.1558998305
30
0
10
2.25
20
17.2755266956
30
0
10
2.25
20
17.2755266956
30
0
0
LINE
5
1B9
100
AcDbEntity
8
gantry_viz
6
ByLayer
62
256
370
-1
100
AcDbLine
10
-1
20
10
11
-1
21
17.179869184
0
LINE
5
1BA
100
AcDbEntity
8
gantry_viz
6
ByLayer
62
256
370
-1
100
AcDbLine
10
-0.75
20
17.2811190449
11
-0.75
21
10
0
LINE
5
1BB
100
AcDbEntity
8
gantry_viz
6
ByLayer
62
256
370
-1
100
AcDbLine
10
2.25
20
10
11
2.25
21
17.2755266956
0
LINE
5
1BC
100
AcDbEntity
8
reference
6
ByLayer
62
256
370
-1
100
AcDbLine
10
0.75
20
16.9122253983
11
0.75
21
17.9122253983
0
LINE
5
1BD
100
AcDbEntity
8
scratch
6
ByLayer
62
256
370
-1
100
AcDbLine
10
-3.5
20
12.25
11
3.5
21
12.25
0
LINE
5
1BE
100
AcDbEntity
8
reference
6
ByLayer
62
256
370
-1
100
AcDbLine
10
0
20
18.25
11
0
21
10
0
LINE
5
1BF
100
AcDbEntity
8
reference
6
ByLayer
62
256
370
-1
100
AcDbLine
10
0
20
10
11
0
21
9
0
LINE
5
1C0
100
AcDbEntity
8
reference
6
ByLayer
62
256
370
-1
100
AcDbLine
10
0
20
18.25
11
0
21
17.25
0
LINE
5
1C1
100
AcDbEntity
8
reference
6
ByLayer
62
256
370
-1
100
AcDbLine
10
0
20
9
11
0
21
-2
0
ENDSEC
0
SECTION
2
OBJECTS
0
DICTIONARY
5
C
330
0
100
AcDbDictionary
281
1
3
ACAD_GROUP
350
D
0
DICTIONARY
5
D
330
C
100
AcDbDictionary
281
1
0
ENDSEC
0
EOF
