999
dxfrw 0.5.10
0
SECTION
2
HEADER
9
$ACADVER
1
AC1021
9
$HANDSEED
5
20000
9
$DWGCODEPAGE
3
ANSI_1252
9
$INSBASE
10
0
20
0
30
0
9
$EXTMIN
10
-4.92789500088
20
-3.307412224
30
0
9
$EXTMAX
10
6.98828161477
20
12
30
0
9
$LIMMIN
10
0
20
0
9
$LIMMAX
10
420
20
297
9
$ORTHOMODE
70
0
9
$LTSCALE
40
1
9
$TEXTSTYLE
7
STANDARD
9
$CLAYER
8
0
9
$DIMASZ
40
0.1
9
$DIMLFAC
40
1
9
$DIMSCALE
40
1
9
$DIMEXO
40
0.025
9
$DIMEXE
40
0.05
9
$DIMTXT
40
0.1
9
$DIMTSZ
40
0
9
$DIMAUNIT
70
0
9
$DIMADEC
70
2
9
$DIMLUNIT
70
2
9
$DIMSTYLE
2
STANDARD
9
$DIMGAP
40
0.025
9
$DIMTIH
70
0
9
$LUNITS
70
2
9
$LUPREC
70
4
9
$AUNITS
70
0
9
$AUPREC
70
2
9
$SPLINESEGS
70
8
9
$GRIDMODE
70
1
9
$SNAPSTYLE
70
0
9
$GRIDUNIT
10
0
20
0
9
$PINSBASE
10
0
20
0
30
0
9
$PLIMMIN
10
0
20
0
9
$PLIMMAX
10
3.0788102e-08
20
4.354322e-08
9
$INSUNITS
70
1
9
$PSVPSCALE
40
1
0
ENDSEC
0
SECTION
2
CLASSES
0
ENDSEC
0
SECTION
2
TABLES
0
TABLE
2
VPORT
5
8
330
0
100
AcDbSymbolTable
70
1
0
VPORT
5
31
330
2
100
AcDbSymbolTableRecord
100
AcDbViewportTableRecord
2
*ACTIVE
70
0
10
0
20
0
11
1
21
1
12
10.200547328
22
4.160749568
13
0
23
0
14
10
24
10
15
10
25
10
16
0
26
0
36
1
17
0
27
0
37
0
40
21.072183296
41
1.59363057325
42
50
43
0
44
0
50
0
51
0
71
0
72
100
73
1
74
3
75
0
76
1
77
0
78
0
281
0
65
1
110
0
120
0
130
0
111
1
121
0
131
0
112
0
122
1
132
0
79
0
146
0
348
10020
60
7
61
5
292
1
282
1
141
0
142
0
63
250
421
3358443
0
ENDTAB
0
TABLE
2
LTYPE
5
5
330
0
100
AcDbSymbolTable
70
4
0
LTYPE
5
14
330
5
100
AcDbSymbolTableRecord
100
AcDbLinetypeTableRecord
2
ByBlock
70
0
3

72
65
73
0
40
0
0
LTYPE
5
15
330
5
100
AcDbSymbolTableRecord
100
AcDbLinetypeTableRecord
2
ByLayer
70
0
3

72
65
73
0
40
0
0
LTYPE
5
16
330
5
100
AcDbSymbolTableRecord
100
AcDbLinetypeTableRecord
2
Continuous
70
0
3
Solid line
72
65
73
0
40
0
0
LTYPE
5
32
330
5
100
AcDbSymbolTableRecord
100
AcDbLinetypeTableRecord
2
DOT
70
0
3
Dot . . . . . . . . . . . . . . . . . . . . . .
72
65
73
2
40
6.35
49
0
74
0
49
-6.35
74
0
0
LTYPE
5
33
330
5
100
AcDbSymbolTableRecord
100
AcDbLinetypeTableRecord
2
DOT2
70
0
3
Dot (.5x) .....................................
72
65
73
2
40
3.175
49
0
74
0
49
-3.175
74
0
0
LTYPE
5
34
330
5
100
AcDbSymbolTableRecord
100
AcDbLinetypeTableRecord
2
DOTX2
70
0
3
Dot (2x) .  .  .  .  .  .  .  .  .  .  .  .  .
72
65
73
2
40
12.7
49
0
74
0
49
-12.7
74
0
0
LTYPE
5
35
330
5
100
AcDbSymbolTableRecord
100
AcDbLinetypeTableRecord
2
DASHED
70
0
3
Dot . . . . . . . . . . . . . . . . . . . . . .
72
65
73
2
40
19.05
49
12.7
74
0
49
-6.35
74
0
0
LTYPE
5
36
330
5
100
AcDbSymbolTableRecord
100
AcDbLinetypeTableRecord
2
DASHED2
70
0
3
Dashed (.5x) _ _ _ _ _ _ _ _ _ _ _ _ _ _ _ _ _
72
65
73
2
40
9.525
49
6.35
74
0
49
-3.175
74
0
0
LTYPE
5
37
330
5
100
AcDbSymbolTableRecord
100
AcDbLinetypeTableRecord
2
DASHEDX2
70
0
3
Dashed (2x) ____  ____  ____  ____  ____  ___
72
65
73
2
40
38.1
49
25.4
74
0
49
-12.7
74
0
0
LTYPE
5
38
330
5
100
AcDbSymbolTableRecord
100
AcDbLinetypeTableRecord
2
DASHDOT
70
0
3
Dash dot __ . __ . __ . __ . __ . __ . __ . __
72
65
73
4
40
25.4
49
12.7
74
0
49
-6.35
74
0
49
0
74
0
49
-6.35
74
0
0
LTYPE
5
39
330
5
100
AcDbSymbolTableRecord
100
AcDbLinetypeTableRecord
2
DASHDOT2
70
0
3
Dash dot (.5x) _._._._._._._._._._._._._._._.
72
65
73
4
40
12.7
49
6.35
74
0
49
-3.175
74
0
49
0
74
0
49
-3.175
74
0
0
LTYPE
5
3A
330
5
100
AcDbSymbolTableRecord
100
AcDbLinetypeTableRecord
2
DASHDOTX2
70
0
3
Dash dot (2x) ____  .  ____  .  ____  .  ___
72
65
73
4
40
50.8
49
25.4
74
0
49
-12.7
74
0
49
0
74
0
49
-12.7
74
0
0
LTYPE
5
3B
330
5
100
AcDbSymbolTableRecord
100
AcDbLinetypeTableRecord
2
DIVIDE
70
0
3
Divide ____ . . ____ . . ____ . . ____ . . ____
72
65
73
6
40
31.75
49
12.7
74
0
49
-6.35
74
0
49
0
74
0
49
-6.35
74
0
49
0
74
0
49
-6.35
74
0
0
LTYPE
5
3C
330
5
100
AcDbSymbolTableRecord
100
AcDbLinetypeTableRecord
2
DIVIDE2
70
0
3
Divide (.5x) __..__..__..__..__..__..__..__.._
72
65
73
6
40
15.875
49
6.35
74
0
49
-3.175
74
0
49
0
74
0
49
-3.175
74
0
49
0
74
0
49
-3.175
74
0
0
LTYPE
5
3D
330
5
100
AcDbSymbolTableRecord
100
AcDbLinetypeTableRecord
2
DIVIDEX2
70
0
3
Divide (2x) ________  .  .  ________  .  .  _
72
65
73
6
40
63.5
49
25.4
74
0
49
-12.7
74
0
49
0
74
0
49
-12.7
74
0
49
0
74
0
49
-12.7
74
0
0
LTYPE
5
3E
330
5
100
AcDbSymbolTableRecord
100
AcDbLinetypeTableRecord
2
BORDER
70
0
3
Border __ __ . __ __ . __ __ . __ __ . __ __ .
72
65
73
6
40
44.45
49
12.7
74
0
49
-6.35
74
0
49
12.7
74
0
49
-6.35
74
0
49
0
74
0
49
-6.35
74
0
0
LTYPE
5
3F
330
5
100
AcDbSymbolTableRecord
100
AcDbLinetypeTableRecord
2
BORDER2
70
0
3
Border (.5x) __.__.__.__.__.__.__.__.__.__.__.
72
65
73
6
40
22.225
49
6.35
74
0
49
-3.175
74
0
49
6.35
74
0
49
-3.175
74
0
49
0
74
0
49
-3.175
74
0
0
LTYPE
5
40
330
5
100
AcDbSymbolTableRecord
100
AcDbLinetypeTableRecord
2
BORDERX2
70
0
3
Border (2x) ____  ____  .  ____  ____  .  ___
72
65
73
6
40
88.9
49
25.4
74
0
49
-12.7
74
0
49
25.4
74
0
49
-12.7
74
0
49
0
74
0
49
-12.7
74
0
0
LTYPE
5
41
330
5
100
AcDbSymbolTableRecord
100
AcDbLinetypeTableRecord
2
CENTER
70
0
3
Center ____ _ ____ _ ____ _ ____ _ ____ _ ____
72
65
73
4
40
50.8
49
31.75
74
0
49
-6.35
74
0
49
6.35
74
0
49
-6.35
74
0
0
LTYPE
5
42
330
5
100
AcDbSymbolTableRecord
100
AcDbLinetypeTableRecord
2
CENTER2
70
0
3
Center (.5x) ___ _ ___ _ ___ _ ___ _ ___ _ ___
72
65
73
4
40
28.575
49
19.05
74
0
49
-3.175
74
0
49
3.175
74
0
49
-3.175
74
0
0
LTYPE
5
43
330
5
100
AcDbSymbolTableRecord
100
AcDbLinetypeTableRecord
2
CENTERX2
70
0
3
Center (2x) ________  __  ________  __  _____
72
65
73
4
40
101.6
49
63.5
74
0
49
-12.7
74
0
49
12.7
74
0
49
-12.7
74
0
0
ENDTAB
0
TABLE
2
LAYER
5
2
330
0
100
AcDbSymbolTable
70
1
0
LAYER
5
10
330
2
100
AcDbSymbolTableRecord
100
AcDbLayerTableRecord
2
0
70
0
62
7
6
CONTINUOUS
370
0
390
F
0
LAYER
5
44
330
2
100
AcDbSymbolTableRecord
100
AcDbLayerTableRecord
2
boundary
70
0
62
5
6
CONTINUOUS
370
0
390
F
0
LAYER
5
45
330
2
100
AcDbSymbolTableRecord
100
AcDbLayerTableRecord
2
scratch
70
1
62
7
6
CONTINUOUS
370
0
390
F
0
LAYER
5
46
330
2
100
AcDbSymbolTableRecord
100
AcDbLayerTableRecord
2
dimension
70
1
62
7
6
CONTINUOUS
370
0
390
F
0
LAYER
5
47
330
2
100
AcDbSymbolTableRecord
100
AcDbLayerTableRecord
2
1/4-20_tap_hole
70
0
62
56
420
8421376
6
CONTINUOUS
370
0
390
F
0
LAYER
5
48
330
2
100
AcDbSymbolTableRecord
100
AcDbLayerTableRecord
2
reference
70
0
62
253
420
10526884
6
DOT2
370
0
390
F
0
LAYER
5
49
330
2
100
AcDbSymbolTableRecord
100
AcDbLayerTableRecord
2
1/4-20_tap_hole_side
70
0
62
6
6
CONTINUOUS
370
0
390
F
0
LAYER
5
4A
330
2
100
AcDbSymbolTableRecord
100
AcDbLayerTableRecord
2
5/16_clearance_hole
70
0
62
30
420
16744448
6
CONTINUOUS
370
0
390
F
0
LAYER
5
4B
330
2
100
AcDbSymbolTableRecord
100
AcDbLayerTableRecord
2
carriage_plate
70
1
62
253
420
10526884
6
CONTINUOUS
370
0
390
F
0
LAYER
5
4C
330
2
100
AcDbSymbolTableRecord
100
AcDbLayerTableRecord
2
5/16_through_hole
70
0
62
4
6
CONTINUOUS
370
0
390
F
0
LAYER
5
4D
330
2
100
AcDbSymbolTableRecord
100
AcDbLayerTableRecord
2
bracket
70
0
62
8
6
CONTINUOUS
370
0
390
F
0
LAYER
5
4E
330
2
100
AcDbSymbolTableRecord
100
AcDbLayerTableRecord
2
10-32_tap_hole
70
0
62
6
6
CONTINUOUS
370
0
390
F
0
LAYER
5
4F
330
2
100
AcDbSymbolTableRecord
100
AcDbLayerTableRecord
2
5/16-18_tap_hole
70
0
62
136
420
32896
6
CONTINUOUS
370
0
390
F
0
LAYER
5
50
330
2
100
AcDbSymbolTableRecord
100
AcDbLayerTableRecord
2
1/4-20_through_hole
70
0
62
2
6
CONTINUOUS
370
0
390
F
0
LAYER
5
51
330
2
100
AcDbSymbolTableRecord
100
AcDbLayerTableRecord
2
lower_gantry_plate
70
1
62
8
6
CONTINUOUS
370
0
390
F
0
LAYER
5
52
330
2
100
AcDbSymbolTableRecord
100
AcDbLayerTableRecord
2
10-32_through_hole
70
0
62
216
420
8388736
6
CONTINUOUS
370
0
390
F
0
ENDTAB
0
TABLE
2
STYLE
5
3
330
0
100
AcDbSymbolTable
70
3
0
STYLE
5
53
330
2
100
AcDbSymbolTableRecord
100
AcDbTextStyleTableRecord
2
Standard
70
0
40
0
41
1
50
0
71
0
42
1
3
txt
4

0
ENDTAB
0
TABLE
2
VIEW
5
6
330
0
100
AcDbSymbolTable
70
0
0
ENDTAB
0
TABLE
2
UCS
5
7
330
0
100
AcDbSymbolTable
70
0
0
ENDTAB
0
TABLE
2
APPID
5
9
330
0
100
AcDbSymbolTable
70
1
0
APPID
5
12
330
9
100
AcDbSymbolTableRecord
100
AcDbRegAppTableRecord
2
ACAD
70
0
0
ENDTAB
0
TABLE
2
DIMSTYLE
5
A
330
0
100
AcDbSymbolTable
70
1
100
AcDbDimStyleTable
71
1
0
DIMSTYLE
105
54
330
A
100
AcDbSymbolTableRecord
100
AcDbDimStyleTableRecord
2
Standard
70
0
40
1
41
0.1
42
0.025
43
0.38
44
0.05
45
0
46
0
47
0
48
0
140
0.1
141
0.09
142
0
143
25.4
144
1
145
0
146
1
147
0.025
148
0
71
0
72
0
73
0
74
1
75
0
76
0
77
0
78
0
79
0
170
0
171
2
172
0
173
0
174
0
175
0
176
0
177
0
178
0
179
0
271
4
272
4
273
2
274
2
275
0
276
0
277
2
278
46
279
0
280
0
281
0
282
0
283
1
284
0
285
0
286
0
288
0
289
3
340
Standard
341

371
-2
372
-2
0
ENDTAB
0
TABLE
2
BLOCK_RECORD
5
1
330
0
100
AcDbSymbolTable
70
2
0
BLOCK_RECORD
5
1F
330
1
100
AcDbSymbolTableRecord
100
AcDbBlockTableRecord
2
*Model_Space
70
0
280
1
281
0
0
BLOCK_RECORD
5
1E
330
1
100
AcDbSymbolTableRecord
100
AcDbBlockTableRecord
2
*Paper_Space
70
0
280
1
281
0
0
BLOCK_RECORD
5
55
330
1
100
AcDbSymbolTableRecord
100
AcDbBlockTableRecord
2
carriage_plate-0
70
0
280
1
281
0
0
BLOCK_RECORD
5
58
330
1
100
AcDbSymbolTableRecord
100
AcDbBlockTableRecord
2
lower_gantry_plate-0
70
0
280
1
281
0
0
BLOCK_RECORD
5
5B
330
1
100
AcDbSymbolTableRecord
100
AcDbBlockTableRecord
2
upper_gantry_plate-0
70
0
280
1
281
0
0
ENDTAB
0
ENDSEC
0
SECTION
2
BLOCKS
0
BLOCK
5
20
330
1F
100
AcDbEntity
8
0
100
AcDbBlockBegin
2
*Model_Space
70
0
10
0
20
0
30
0
3
*Model_Space
1

0
ENDBLK
5
21
330
1F
100
AcDbEntity
8
0
100
AcDbBlockEnd
0
BLOCK
5
1C
330
1B
100
AcDbEntity
8
0
100
AcDbBlockBegin
2
*Paper_Space
70
0
10
0
20
0
30
0
3
*Paper_Space
1

0
ENDBLK
5
1D
330
1F
100
AcDbEntity
8
0
100
AcDbBlockEnd
0
BLOCK
5
56
330
55
100
AcDbEntity
8
0
100
AcDbBlockBegin
2
carriage_plate-0
70
0
10
0
20
0
3
carriage_plate-0
1

0
LINE
5
5E
100
AcDbEntity
8
reference
6
ByLayer
62
256
370
-1
100
AcDbLine
10
0
20
12
11
0
21
-3
0
ARC
5
5F
100
AcDbEntity
8
boundary
6
ByLayer
62
256
370
-1
100
AcDbCircle
10
-2.2625
20
1.7875
40
0.1875
100
AcDbArc
50
180
51
270
0
LINE
5
60
100
AcDbEntity
8
boundary
6
ByLayer
62
256
370
-1
100
AcDbLine
10
-2.2375
20
1.6
11
-2.2625
21
1.6
0
ARC
5
61
100
AcDbEntity
8
boundary
6
ByLayer
62
256
370
-1
100
AcDbCircle
10
-2.2375
20
1.7875
40
0.1875
100
AcDbArc
50
270
51
0
0
ARC
5
62
100
AcDbEntity
8
boundary
6
ByLayer
62
256
370
-1
100
AcDbCircle
10
-0.7625
20
1.7875
40
0.1875
100
AcDbArc
50
180
51
270
0
LINE
5
63
100
AcDbEntity
8
boundary
6
ByLayer
62
256
370
-1
100
AcDbLine
10
-0.7375
20
1.6
11
-0.7625
21
1.6
0
ARC
5
64
100
AcDbEntity
8
boundary
6
ByLayer
62
256
370
-1
100
AcDbCircle
10
-0.7375
20
1.7875
40
0.1875
100
AcDbArc
50
270
51
0
0
ARC
5
65
100
AcDbEntity
8
boundary
6
ByLayer
62
256
370
-1
100
AcDbCircle
10
0.7375
20
1.7875
40
0.1875
100
AcDbArc
50
180
51
270
0
LINE
5
66
100
AcDbEntity
8
boundary
6
ByLayer
62
256
370
-1
100
AcDbLine
10
0.7625
20
1.6
11
0.7375
21
1.6
0
ARC
5
67
100
AcDbEntity
8
boundary
6
ByLayer
62
256
370
-1
100
AcDbCircle
10
0.7625
20
1.7875
40
0.1875
100
AcDbArc
50
270
51
0
0
ARC
5
68
100
AcDbEntity
8
boundary
6
ByLayer
62
256
370
-1
100
AcDbCircle
10
2.2375
20
1.7875
40
0.1875
100
AcDbArc
50
180
51
270
0
LINE
5
69
100
AcDbEntity
8
boundary
6
ByLayer
62
256
370
-1
100
AcDbLine
10
2.2625
20
1.6
11
2.2375
21
1.6
0
ARC
5
6A
100
AcDbEntity
8
boundary
6
ByLayer
62
256
370
-1
100
AcDbCircle
10
2.2625
20
1.7875
40
0.1875
100
AcDbArc
50
270
51
0
0
ARC
5
6B
100
AcDbEntity
8
boundary
6
ByLayer
62
256
370
-1
100
AcDbCircle
10
-2.2625
20
-1.7875
40
0.1875
100
AcDbArc
50
90
51
180
0
LINE
5
6C
100
AcDbEntity
8
boundary
6
ByLayer
62
256
370
-1
100
AcDbLine
10
-2.2375
20
-1.6
11
-2.2625
21
-1.6
0
ARC
5
6D
100
AcDbEntity
8
boundary
6
ByLayer
62
256
370
-1
100
AcDbCircle
10
-2.2375
20
-1.7875
40
0.1875
100
AcDbArc
50
0
51
90
0
ARC
5
6E
100
AcDbEntity
8
boundary
6
ByLayer
62
256
370
-1
100
AcDbCircle
10
-0.7625
20
-1.7875
40
0.1875
100
AcDbArc
50
90
51
180
0
LINE
5
6F
100
AcDbEntity
8
boundary
6
ByLayer
62
256
370
-1
100
AcDbLine
10
-0.7375
20
-1.6
11
-0.7625
21
-1.6
0
ARC
5
70
100
AcDbEntity
8
boundary
6
ByLayer
62
256
370
-1
100
AcDbCircle
10
-0.7375
20
-1.7875
40
0.1875
100
AcDbArc
50
0
51
90
0
ARC
5
71
100
AcDbEntity
8
boundary
6
ByLayer
62
256
370
-1
100
AcDbCircle
10
0.7375
20
-1.7875
40
0.1875
100
AcDbArc
50
90
51
180
0
LINE
5
72
100
AcDbEntity
8
boundary
6
ByLayer
62
256
370
-1
100
AcDbLine
10
0.7625
20
-1.6
11
0.7375
21
-1.6
0
ARC
5
73
100
AcDbEntity
8
boundary
6
ByLayer
62
256
370
-1
100
AcDbCircle
10
0.7625
20
-1.7875
40
0.1875
100
AcDbArc
50
0
51
90
0
ARC
5
74
100
AcDbEntity
8
boundary
6
ByLayer
62
256
370
-1
100
AcDbCircle
10
2.2375
20
-1.7875
40
0.1875
100
AcDbArc
50
90
51
180
0
LINE
5
75
100
AcDbEntity
8
boundary
6
ByLayer
62
256
370
-1
100
AcDbLine
10
2.2625
20
-1.6
11
2.2375
21
-1.6
0
ARC
5
76
100
AcDbEntity
8
boundary
6
ByLayer
62
256
370
-1
100
AcDbCircle
10
2.2625
20
-1.7875
40
0.1875
100
AcDbArc
50
0
51
90
0
CIRCLE
5
77
100
AcDbEntity
8
1/4-20_tap_hole
6
ByLayer
62
256
370
-1
100
AcDbCircle
10
-4.14
20
0.75
40
0.1005
0
CIRCLE
5
78
100
AcDbEntity
8
1/4-20_tap_hole
6
ByLayer
62
256
370
-1
100
AcDbCircle
10
-4.14
20
-0.75
40
0.1005
0
CIRCLE
5
79
100
AcDbEntity
8
1/4-20_tap_hole
6
ByLayer
62
256
370
-1
100
AcDbCircle
10
4.14
20
0.75
40
0.1005
0
CIRCLE
5
7A
100
AcDbEntity
8
1/4-20_tap_hole
6
ByLayer
62
256
370
-1
100
AcDbCircle
10
4.14
20
-0.75
40
0.1005
0
ARC
5
7B
100
AcDbEntity
8
boundary
6
ByLayer
62
256
370
-1
100
AcDbCircle
10
-4.3125
20
2.0625
40
0.1875
100
AcDbArc
50
90
51
180
0
LINE
5
7C
100
AcDbEntity
8
boundary
6
ByLayer
62
256
370
-1
100
AcDbLine
10
-4.5
20
2.0625
11
-4.5
21
-2.0625
0
ARC
5
7D
100
AcDbEntity
8
boundary
6
ByLayer
62
256
370
-1
100
AcDbCircle
10
-4.3125
20
-2.0625
40
0.1875
100
AcDbArc
50
180
51
270
0
ARC
5
7E
100
AcDbEntity
8
boundary
6
ByLayer
62
256
370
-1
100
AcDbCircle
10
4.3125
20
2.0625
40
0.1875
100
AcDbArc
50
0
51
90
0
LINE
5
7F
100
AcDbEntity
8
boundary
6
ByLayer
62
256
370
-1
100
AcDbLine
10
4.5
20
-2.0625
11
4.5
21
2.0625
0
ARC
5
80
100
AcDbEntity
8
boundary
6
ByLayer
62
256
370
-1
100
AcDbCircle
10
4.3125
20
-2.0625
40
0.1875
100
AcDbArc
50
270
51
0
0
LINE
5
81
100
AcDbEntity
8
scratch
6
ByLayer
62
256
370
-1
100
AcDbLine
10
4.5
20
0
11
4.5
21
0
0
LINE
5
82
100
AcDbEntity
8
scratch
6
ByLayer
62
256
370
-1
100
AcDbLine
10
-4.5
20
0
11
-4.5
21
0
0
LINE
5
83
100
AcDbEntity
8
boundary
6
ByLayer
62
256
370
-1
100
AcDbLine
10
-2.45
20
1.7875
11
-2.45
21
2.1875
0
LINE
5
84
100
AcDbEntity
8
boundary
6
ByLayer
62
256
370
-1
100
AcDbLine
10
-2.5125
20
2.25
11
-4.3125
21
2.25
0
ARC
5
85
100
AcDbEntity
8
boundary
6
ByLayer
62
256
370
-1
100
AcDbCircle
10
-2.5125
20
2.1875
40
0.0625
100
AcDbArc
50
0
51
90
0
LINE
5
86
100
AcDbEntity
8
boundary
6
ByLayer
62
256
370
-1
100
AcDbLine
10
-2.05
20
2.1875
11
-2.05
21
1.7875
0
ARC
5
87
100
AcDbEntity
8
boundary
6
ByLayer
62
256
370
-1
100
AcDbCircle
10
-1.9875
20
2.1875
40
0.0625
100
AcDbArc
50
90
51
180
0
LINE
5
88
100
AcDbEntity
8
boundary
6
ByLayer
62
256
370
-1
100
AcDbLine
10
-0.95
20
1.7875
11
-0.95
21
2.1875
0
LINE
5
89
100
AcDbEntity
8
boundary
6
ByLayer
62
256
370
-1
100
AcDbLine
10
-1.0125
20
2.25
11
-1.9875
21
2.25
0
ARC
5
8A
100
AcDbEntity
8
boundary
6
ByLayer
62
256
370
-1
100
AcDbCircle
10
-1.0125
20
2.1875
40
0.0625
100
AcDbArc
50
0
51
90
0
LINE
5
8B
100
AcDbEntity
8
boundary
6
ByLayer
62
256
370
-1
100
AcDbLine
10
-0.55
20
2.1875
11
-0.55
21
1.7875
0
ARC
5
8C
100
AcDbEntity
8
boundary
6
ByLayer
62
256
370
-1
100
AcDbCircle
10
-0.4875
20
2.1875
40
0.0625
100
AcDbArc
50
90
51
180
0
LINE
5
8D
100
AcDbEntity
8
boundary
6
ByLayer
62
256
370
-1
100
AcDbLine
10
0.4875
20
2.25
11
-0.4875
21
2.25
0
LINE
5
8E
100
AcDbEntity
8
boundary
6
ByLayer
62
256
370
-1
100
AcDbLine
10
0.55
20
1.7875
11
0.55
21
2.1875
0
ARC
5
8F
100
AcDbEntity
8
boundary
6
ByLayer
62
256
370
-1
100
AcDbCircle
10
0.4875
20
2.1875
40
0.0625
100
AcDbArc
50
0
51
90
0
LINE
5
90
100
AcDbEntity
8
boundary
6
ByLayer
62
256
370
-1
100
AcDbLine
10
0.95
20
2.1875
11
0.95
21
1.7875
0
ARC
5
91
100
AcDbEntity
8
boundary
6
ByLayer
62
256
370
-1
100
AcDbCircle
10
1.0125
20
2.1875
40
0.0625
100
AcDbArc
50
90
51
180
0
LINE
5
92
100
AcDbEntity
8
boundary
6
ByLayer
62
256
370
-1
100
AcDbLine
10
1.9875
20
2.25
11
1.0125
21
2.25
0
LINE
5
93
100
AcDbEntity
8
boundary
6
ByLayer
62
256
370
-1
100
AcDbLine
10
2.05
20
1.7875
11
2.05
21
2.1875
0
ARC
5
94
100
AcDbEntity
8
boundary
6
ByLayer
62
256
370
-1
100
AcDbCircle
10
1.9875
20
2.1875
40
0.0625
100
AcDbArc
50
0
51
90
0
LINE
5
95
100
AcDbEntity
8
boundary
6
ByLayer
62
256
370
-1
100
AcDbLine
10
2.45
20
2.1875
11
2.45
21
1.7875
0
LINE
5
96
100
AcDbEntity
8
boundary
6
ByLayer
62
256
370
-1
100
AcDbLine
10
4.3125
20
2.25
11
2.5125
21
2.25
0
ARC
5
97
100
AcDbEntity
8
boundary
6
ByLayer
62
256
370
-1
100
AcDbCircle
10
2.5125
20
2.1875
40
0.0625
100
AcDbArc
50
90
51
180
0
LINE
5
98
100
AcDbEntity
8
boundary
6
ByLayer
62
256
370
-1
100
AcDbLine
10
-4.3125
20
-2.25
11
-2.5125
21
-2.25
0
LINE
5
99
100
AcDbEntity
8
boundary
6
ByLayer
62
256
370
-1
100
AcDbLine
10
-2.45
20
-1.7875
11
-2.45
21
-2.1875
0
ARC
5
9A
100
AcDbEntity
8
boundary
6
ByLayer
62
256
370
-1
100
AcDbCircle
10
-2.5125
20
-2.1875
40
0.0625
100
AcDbArc
50
270
51
0
0
LINE
5
9B
100
AcDbEntity
8
boundary
6
ByLayer
62
256
370
-1
100
AcDbLine
10
-2.05
20
-2.1875
11
-2.05
21
-1.7875
0
ARC
5
9C
100
AcDbEntity
8
boundary
6
ByLayer
62
256
370
-1
100
AcDbCircle
10
-1.9875
20
-2.1875
40
0.0625
100
AcDbArc
50
180
51
270
0
LINE
5
9D
100
AcDbEntity
8
boundary
6
ByLayer
62
256
370
-1
100
AcDbLine
10
-1.9875
20
-2.25
11
-1.0125
21
-2.25
0
LINE
5
9E
100
AcDbEntity
8
boundary
6
ByLayer
62
256
370
-1
100
AcDbLine
10
-0.95
20
-1.7875
11
-0.95
21
-2.1875
0
ARC
5
9F
100
AcDbEntity
8
boundary
6
ByLayer
62
256
370
-1
100
AcDbCircle
10
-1.0125
20
-2.1875
40
0.0625
100
AcDbArc
50
270
51
0
0
LINE
5
A0
100
AcDbEntity
8
boundary
6
ByLayer
62
256
370
-1
100
AcDbLine
10
-0.55
20
-2.1875
11
-0.55
21
-1.7875
0
ARC
5
A1
100
AcDbEntity
8
boundary
6
ByLayer
62
256
370
-1
100
AcDbCircle
10
-0.4875
20
-2.1875
40
0.0625
100
AcDbArc
50
180
51
270
0
LINE
5
A2
100
AcDbEntity
8
boundary
6
ByLayer
62
256
370
-1
100
AcDbLine
10
-0.4875
20
-2.25
11
0.4875
21
-2.25
0
LINE
5
A3
100
AcDbEntity
8
boundary
6
ByLayer
62
256
370
-1
100
AcDbLine
10
0.55
20
-1.7875
11
0.55
21
-2.1875
0
ARC
5
A4
100
AcDbEntity
8
boundary
6
ByLayer
62
256
370
-1
100
AcDbCircle
10
0.4875
20
-2.1875
40
0.0625
100
AcDbArc
50
270
51
0
0
LINE
5
A5
100
AcDbEntity
8
boundary
6
ByLayer
62
256
370
-1
100
AcDbLine
10
0.95
20
-2.1875
11
0.95
21
-1.7875
0
ARC
5
A6
100
AcDbEntity
8
boundary
6
ByLayer
62
256
370
-1
100
AcDbCircle
10
1.0125
20
-2.1875
40
0.0625
100
AcDbArc
50
180
51
270
0
LINE
5
A7
100
AcDbEntity
8
boundary
6
ByLayer
62
256
370
-1
100
AcDbLine
10
1.0125
20
-2.25
11
1.9875
21
-2.25
0
LINE
5
A8
100
AcDbEntity
8
boundary
6
ByLayer
62
256
370
-1
100
AcDbLine
10
2.05
20
-1.7875
11
2.05
21
-2.1875
0
ARC
5
A9
100
AcDbEntity
8
boundary
6
ByLayer
62
256
370
-1
100
AcDbCircle
10
1.9875
20
-2.1875
40
0.0625
100
AcDbArc
50
270
51
0
0
LINE
5
AA
100
AcDbEntity
8
boundary
6
ByLayer
62
256
370
-1
100
AcDbLine
10
2.45
20
-2.1875
11
2.45
21
-1.7875
0
LINE
5
AB
100
AcDbEntity
8
boundary
6
ByLayer
62
256
370
-1
100
AcDbLine
10
2.5125
20
-2.25
11
4.3125
21
-2.25
0
ARC
5
AC
100
AcDbEntity
8
boundary
6
ByLayer
62
256
370
-1
100
AcDbCircle
10
2.5125
20
-2.1875
40
0.0625
100
AcDbArc
50
180
51
270
0
DIMENSION
5
AD
100
AcDbEntity
8
dimension
6
ByLayer
62
256
370
-1
100
AcDbDimension
10
4.5
20
-3.257412224
30
0
11
0
21
-3.107412224
31
0
70
32
71
5
72
0
3
Standard
53
0
210
0
220
0
230
1
100
AcDbAlignedDimension
13
-4.5
23
-2.0625
33
0
14
4.5
24
-2.0625
34
0
100
AcDbRotatedDimension
0
DIMENSION
5
AE
100
AcDbEntity
8
dimension
6
ByLayer
62
256
370
-1
100
AcDbDimension
10
-0.75
20
2.92326046331
30
0
11
-1.5
21
3.07326046331
31
0
70
32
71
5
72
0
3
Standard
53
0
210
0
220
0
230
1
100
AcDbAlignedDimension
13
-2.25
23
1.6
33
0
14
-0.75
24
1.6
34
0
100
AcDbRotatedDimension
0
DIMENSION
5
AF
100
AcDbEntity
8
dimension
6
ByLayer
62
256
370
-1
100
AcDbDimension
10
3.1203335421
20
1.6
30
0
11
2.9703335421
21
1.925
31
0
70
32
71
5
72
0
3
Standard
53
0
210
0
220
0
230
1
100
AcDbAlignedDimension
13
2.5125
23
2.25
33
0
14
2.25
24
1.6
34
0
50
90
100
AcDbRotatedDimension
0
DIMENSION
5
B0
100
AcDbEntity
8
dimension
6
ByLayer
62
256
370
-1
100
AcDbDimension
10
-4.3125
20
2.0625
30
0
11
-4.78172451111
21
2.84021827758
31
0
70
36
71
5
72
0
3
Standard
53
0
210
0
220
0
230
1
100
AcDbRadialDimension
15
-4.4345439544
25
2.20484297737
35
0
40
0
0
DIMENSION
5
B1
100
AcDbEntity
8
dimension
6
ByLayer
62
256
370
-1
100
AcDbDimension
10
0.7625
20
1.7875
30
0
11
1.4578650732
21
1.20313301246
31
0
70
36
71
5
72
0
3
Standard
53
0
210
0
220
0
230
1
100
AcDbRadialDimension
15
0.8841511135
25
1.64482114175
35
0
40
0
0
DIMENSION
5
B2
100
AcDbEntity
8
dimension
6
ByLayer
62
256
370
-1
100
AcDbDimension
10
5.1194106081
20
-0.75
30
0
11
4.9694106081
21
0
31
0
70
32
71
5
72
0
3
Standard
53
0
210
0
220
0
230
1
100
AcDbAlignedDimension
13
4.14
23
0.75
33
0
14
4.14
24
-0.75
34
0
50
90
100
AcDbRotatedDimension
0
DIMENSION
5
B3
100
AcDbEntity
8
dimension
6
ByLayer
62
256
370
-1
100
AcDbDimension
10
5.1188058767
20
2.25
30
0
11
4.9688058767
21
1.5
31
0
70
32
71
5
72
0
3
Standard
53
0
210
0
220
0
230
1
100
AcDbAlignedDimension
13
4.14
23
0.75
33
0
14
4.3125
24
2.25
34
0
50
90
100
AcDbRotatedDimension
0
DIMENSION
5
B4
100
AcDbEntity
8
dimension
6
ByLayer
62
256
370
-1
100
AcDbDimension
10
6.005891858
20
-2.25
30
0
11
5.855891858
21
0
31
0
70
32
71
5
72
0
3
Standard
53
0
210
0
220
0
230
1
100
AcDbAlignedDimension
13
4.3125
23
2.25
33
0
14
4.3125
24
-2.25
34
0
50
90
100
AcDbRotatedDimension
0
DIMENSION
5
B5
100
AcDbEntity
8
dimension
6
ByLayer
62
256
370
-1
100
AcDbDimension
10
-4.2005847255
20
0.83018566605
30
0
11
-4.0203199014
21
0.84042496338
31
0
70
35
71
5
72
0
3
Standard
53
0
210
0
220
0
230
1
100
AcDbDiametricDimension
15
-4.0794152745
25
0.66981433395
35
0
40
0
0
DIMENSION
5
B6
100
AcDbEntity
8
dimension
6
ByLayer
62
256
370
-1
100
AcDbDimension
10
-2.05
20
-2.72785339575
30
0
11
-2.25
21
-2.57785339575
31
0
70
32
71
5
3
Standard
53
0
210
0
220
0
230
1
100
AcDbAlignedDimension
13
-2.45
23
-2.1875
33
0
14
-2.05
24
-2.1875
34
0
100
AcDbRotatedDimension
0
DIMENSION
5
B7
100
AcDbEntity
8
dimension
6
ByLayer
62
256
370
-1
100
AcDbDimension
10
-4.5
20
-1.61074958193
30
0
11
-4.32
21
-1.46074958193
31
0
70
32
71
5
3
Standard
53
0
210
0
220
0
230
1
100
AcDbAlignedDimension
13
-4.14
23
-0.75
33
0
14
-4.5
24
-2.0625
34
0
100
AcDbRotatedDimension
0
LINE
5
B8
100
AcDbEntity
8
scratch
6
ByLayer
62
256
370
-1
100
AcDbLine
10
1.9875
20
2.25
11
2.5125
21
2.25
0
LINE
5
B9
100
AcDbEntity
8
scratch
6
ByLayer
62
256
370
-1
100
AcDbLine
10
1.9875
20
-2.25
11
2.5125
21
-2.25
0
LINE
5
BA
100
AcDbEntity
8
scratch
6
ByLayer
62
256
370
-1
100
AcDbLine
10
2.25
20
2.25
11
3.75
21
2.25
0
LINE
5
BB
100
AcDbEntity
8
scratch
6
ByLayer
62
256
370
-1
100
AcDbLine
10
2.25
20
-2.25
11
3.75
21
-2.25
0
LINE
5
BC
100
AcDbEntity
8
scratch
6
ByLayer
62
256
370
-1
100
AcDbLine
10
3.75
20
-2.25
11
3.75
21
-1.85
0
LINE
5
BD
100
AcDbEntity
8
scratch
6
ByLayer
62
256
370
-1
100
AcDbLine
10
3.75
20
2.25
11
3.75
21
1.85
0
CIRCLE
5
BE
100
AcDbEntity
8
1/4-20_tap_hole
6
ByLayer
62
256
370
-1
100
AcDbCircle
10
3.75
20
1.85
40
0.1005
0
CIRCLE
5
BF
100
AcDbEntity
8
1/4-20_tap_hole
6
ByLayer
62
256
370
-1
100
AcDbCircle
10
3.75
20
-1.85
40
0.1005
0
CIRCLE
5
C0
100
AcDbEntity
8
1/4-20_tap_hole
6
ByLayer
62
256
370
-1
100
AcDbCircle
10
-3
20
1
40
0.1005
0
CIRCLE
5
C1
100
AcDbEntity
8
1/4-20_tap_hole
6
ByLayer
62
256
370
-1
100
AcDbCircle
10
-3
20
0
40
0.1005
0
CIRCLE
5
C2
100
AcDbEntity
8
1/4-20_tap_hole
6
ByLayer
62
256
370
-1
100
AcDbCircle
10
-3
20
-1
40
0.1005
0
CIRCLE
5
C3
100
AcDbEntity
8
1/4-20_tap_hole
6
ByLayer
62
256
370
-1
100
AcDbCircle
10
-2
20
-1
40
0.1005
0
CIRCLE
5
C4
100
AcDbEntity
8
1/4-20_tap_hole
6
ByLayer
62
256
370
-1
100
AcDbCircle
10
-2
20
0
40
0.1005
0
CIRCLE
5
C5
100
AcDbEntity
8
1/4-20_tap_hole
6
ByLayer
62
256
370
-1
100
AcDbCircle
10
-2
20
1
40
0.1005
0
CIRCLE
5
C6
100
AcDbEntity
8
1/4-20_tap_hole
6
ByLayer
62
256
370
-1
100
AcDbCircle
10
-1
20
1
40
0.1005
0
CIRCLE
5
C7
100
AcDbEntity
8
1/4-20_tap_hole
6
ByLayer
62
256
370
-1
100
AcDbCircle
10
-1
20
0
40
0.1005
0
CIRCLE
5
C8
100
AcDbEntity
8
1/4-20_tap_hole
6
ByLayer
62
256
370
-1
100
AcDbCircle
10
-1
20
-1
40
0.1005
0
LINE
5
C9
100
AcDbEntity
8
scratch
6
ByLayer
62
256
370
-1
100
AcDbLine
10
1.5
20
2.25
11
1.5
21
-2.25
0
LINE
5
CA
100
AcDbEntity
8
scratch
6
ByLayer
62
256
370
-1
100
AcDbLine
10
1.5
20
0
11
0.75
21
0
0
LINE
5
CB
100
AcDbEntity
8
scratch
6
ByLayer
62
256
370
-1
100
AcDbLine
10
1.5
20
0
11
2.25
21
0
0
CIRCLE
5
CC
100
AcDbEntity
8
5/16_clearance_hole
6
ByLayer
62
256
370
-1
100
AcDbCircle
10
2.25
20
0
40
0.45
0
CIRCLE
5
CD
100
AcDbEntity
8
5/16_clearance_hole
6
ByLayer
62
256
370
-1
100
AcDbCircle
10
0.75
20
0
40
0.45
0
ENDBLK
5
57
330
55
100
AcDbEntity
8
0
100
AcDbBlockEnd
0
BLOCK
5
59
330
58
100
AcDbEntity
8
0
100
AcDbBlockBegin
2
lower_gantry_plate-0
70
0
10
0
20
0
3
lower_gantry_plate-0
1

0
LINE
5
CE
100
AcDbEntity
8
scratch
6
ByLayer
62
256
370
-1
100
AcDbLine
10
4.5
20
0
11
4.5
21
0
0
LINE
5
CF
100
AcDbEntity
8
scratch
6
ByLayer
62
256
370
-1
100
AcDbLine
10
-4.5
20
0
11
-4.5
21
0
0
LINE
5
D0
100
AcDbEntity
8
scratch
6
ByLayer
62
256
370
-1
100
AcDbLine
10
1.5
20
2.25
11
1.5
21
-2.25
0
ARC
5
D1
100
AcDbEntity
8
carriage_plate
6
ByLayer
62
256
370
-1
100
AcDbCircle
10
-2.2625
20
1.7875
40
0.1875
100
AcDbArc
50
180
51
270
0
LINE
5
D2
100
AcDbEntity
8
carriage_plate
6
ByLayer
62
256
370
-1
100
AcDbLine
10
-2.2375
20
1.6
11
-2.2625
21
1.6
0
ARC
5
D3
100
AcDbEntity
8
carriage_plate
6
ByLayer
62
256
370
-1
100
AcDbCircle
10
-2.2375
20
1.7875
40
0.1875
100
AcDbArc
50
270
51
0
0
ARC
5
D4
100
AcDbEntity
8
carriage_plate
6
ByLayer
62
256
370
-1
100
AcDbCircle
10
-0.7625
20
1.7875
40
0.1875
100
AcDbArc
50
180
51
270
0
LINE
5
D5
100
AcDbEntity
8
carriage_plate
6
ByLayer
62
256
370
-1
100
AcDbLine
10
-0.7375
20
1.6
11
-0.7625
21
1.6
0
ARC
5
D6
100
AcDbEntity
8
carriage_plate
6
ByLayer
62
256
370
-1
100
AcDbCircle
10
-0.7375
20
1.7875
40
0.1875
100
AcDbArc
50
270
51
0
0
ARC
5
D7
100
AcDbEntity
8
carriage_plate
6
ByLayer
62
256
370
-1
100
AcDbCircle
10
0.7375
20
1.7875
40
0.1875
100
AcDbArc
50
180
51
270
0
LINE
5
D8
100
AcDbEntity
8
carriage_plate
6
ByLayer
62
256
370
-1
100
AcDbLine
10
0.7625
20
1.6
11
0.7375
21
1.6
0
ARC
5
D9
100
AcDbEntity
8
carriage_plate
6
ByLayer
62
256
370
-1
100
AcDbCircle
10
0.7625
20
1.7875
40
0.1875
100
AcDbArc
50
270
51
0
0
ARC
5
DA
100
AcDbEntity
8
carriage_plate
6
ByLayer
62
256
370
-1
100
AcDbCircle
10
2.2375
20
1.7875
40
0.1875
100
AcDbArc
50
180
51
270
0
LINE
5
DB
100
AcDbEntity
8
carriage_plate
6
ByLayer
62
256
370
-1
100
AcDbLine
10
2.2625
20
1.6
11
2.2375
21
1.6
0
ARC
5
DC
100
AcDbEntity
8
carriage_plate
6
ByLayer
62
256
370
-1
100
AcDbCircle
10
2.2625
20
1.7875
40
0.1875
100
AcDbArc
50
270
51
0
0
ARC
5
DD
100
AcDbEntity
8
carriage_plate
6
ByLayer
62
256
370
-1
100
AcDbCircle
10
-2.2625
20
-1.7875
40
0.1875
100
AcDbArc
50
90
51
180
0
LINE
5
DE
100
AcDbEntity
8
carriage_plate
6
ByLayer
62
256
370
-1
100
AcDbLine
10
-2.2375
20
-1.6
11
-2.2625
21
-1.6
0
ARC
5
DF
100
AcDbEntity
8
carriage_plate
6
ByLayer
62
256
370
-1
100
AcDbCircle
10
-2.2375
20
-1.7875
40
0.1875
100
AcDbArc
50
0
51
90
0
ARC
5
E0
100
AcDbEntity
8
carriage_plate
6
ByLayer
62
256
370
-1
100
AcDbCircle
10
-0.7625
20
-1.7875
40
0.1875
100
AcDbArc
50
90
51
180
0
LINE
5
E1
100
AcDbEntity
8
carriage_plate
6
ByLayer
62
256
370
-1
100
AcDbLine
10
-0.7375
20
-1.6
11
-0.7625
21
-1.6
0
ARC
5
E2
100
AcDbEntity
8
carriage_plate
6
ByLayer
62
256
370
-1
100
AcDbCircle
10
-0.7375
20
-1.7875
40
0.1875
100
AcDbArc
50
0
51
90
0
ARC
5
E3
100
AcDbEntity
8
carriage_plate
6
ByLayer
62
256
370
-1
100
AcDbCircle
10
0.7375
20
-1.7875
40
0.1875
100
AcDbArc
50
90
51
180
0
LINE
5
E4
100
AcDbEntity
8
carriage_plate
6
ByLayer
62
256
370
-1
100
AcDbLine
10
0.7625
20
-1.6
11
0.7375
21
-1.6
0
ARC
5
E5
100
AcDbEntity
8
carriage_plate
6
ByLayer
62
256
370
-1
100
AcDbCircle
10
0.7625
20
-1.7875
40
0.1875
100
AcDbArc
50
0
51
90
0
ARC
5
E6
100
AcDbEntity
8
carriage_plate
6
ByLayer
62
256
370
-1
100
AcDbCircle
10
2.2375
20
-1.7875
40
0.1875
100
AcDbArc
50
90
51
180
0
LINE
5
E7
100
AcDbEntity
8
carriage_plate
6
ByLayer
62
256
370
-1
100
AcDbLine
10
2.2625
20
-1.6
11
2.2375
21
-1.6
0
ARC
5
E8
100
AcDbEntity
8
carriage_plate
6
ByLayer
62
256
370
-1
100
AcDbCircle
10
2.2625
20
-1.7875
40
0.1875
100
AcDbArc
50
0
51
90
0
CIRCLE
5
E9
100
AcDbEntity
8
carriage_plate
6
ByLayer
62
256
370
-1
100
AcDbCircle
10
-4.14
20
0.75
40
0.1005
0
CIRCLE
5
EA
100
AcDbEntity
8
carriage_plate
6
ByLayer
62
256
370
-1
100
AcDbCircle
10
-4.14
20
-0.75
40
0.1005
0
CIRCLE
5
EB
100
AcDbEntity
8
carriage_plate
6
ByLayer
62
256
370
-1
100
AcDbCircle
10
4.14
20
0.75
40
0.1005
0
CIRCLE
5
EC
100
AcDbEntity
8
carriage_plate
6
ByLayer
62
256
370
-1
100
AcDbCircle
10
4.14
20
-0.75
40
0.1005
0
ARC
5
ED
100
AcDbEntity
8
carriage_plate
6
ByLayer
62
256
370
-1
100
AcDbCircle
10
-4.3125
20
2.0625
40
0.1875
100
AcDbArc
50
90
51
180
0
LINE
5
EE
100
AcDbEntity
8
carriage_plate
6
ByLayer
62
256
370
-1
100
AcDbLine
10
-4.5
20
2.0625
11
-4.5
21
-2.0625
0
ARC
5
EF
100
AcDbEntity
8
carriage_plate
6
ByLayer
62
256
370
-1
100
AcDbCircle
10
-4.3125
20
-2.0625
40
0.1875
100
AcDbArc
50
180
51
270
0
ARC
5
F0
100
AcDbEntity
8
carriage_plate
6
ByLayer
62
256
370
-1
100
AcDbCircle
10
4.3125
20
2.0625
40
0.1875
100
AcDbArc
50
0
51
90
0
LINE
5
F1
100
AcDbEntity
8
carriage_plate
6
ByLayer
62
256
370
-1
100
AcDbLine
10
4.5
20
-2.0625
11
4.5
21
2.0625
0
ARC
5
F2
100
AcDbEntity
8
carriage_plate
6
ByLayer
62
256
370
-1
100
AcDbCircle
10
4.3125
20
-2.0625
40
0.1875
100
AcDbArc
50
270
51
0
0
LINE
5
F3
100
AcDbEntity
8
carriage_plate
6
ByLayer
62
256
370
-1
100
AcDbLine
10
-2.45
20
1.7875
11
-2.45
21
2.1875
0
LINE
5
F4
100
AcDbEntity
8
carriage_plate
6
ByLayer
62
256
370
-1
100
AcDbLine
10
-2.5125
20
2.25
11
-4.3125
21
2.25
0
ARC
5
F5
100
AcDbEntity
8
carriage_plate
6
ByLayer
62
256
370
-1
100
AcDbCircle
10
-2.5125
20
2.1875
40
0.0625
100
AcDbArc
50
0
51
90
0
LINE
5
F6
100
AcDbEntity
8
carriage_plate
6
ByLayer
62
256
370
-1
100
AcDbLine
10
-2.05
20
2.1875
11
-2.05
21
1.7875
0
ARC
5
F7
100
AcDbEntity
8
carriage_plate
6
ByLayer
62
256
370
-1
100
AcDbCircle
10
-1.9875
20
2.1875
40
0.0625
100
AcDbArc
50
90
51
180
0
LINE
5
F8
100
AcDbEntity
8
carriage_plate
6
ByLayer
62
256
370
-1
100
AcDbLine
10
-0.95
20
1.7875
11
-0.95
21
2.1875
0
LINE
5
F9
100
AcDbEntity
8
carriage_plate
6
ByLayer
62
256
370
-1
100
AcDbLine
10
-1.0125
20
2.25
11
-1.9875
21
2.25
0
ARC
5
FA
100
AcDbEntity
8
carriage_plate
6
ByLayer
62
256
370
-1
100
AcDbCircle
10
-1.0125
20
2.1875
40
0.0625
100
AcDbArc
50
0
51
90
0
LINE
5
FB
100
AcDbEntity
8
carriage_plate
6
ByLayer
62
256
370
-1
100
AcDbLine
10
-0.55
20
2.1875
11
-0.55
21
1.7875
0
ARC
5
FC
100
AcDbEntity
8
carriage_plate
6
ByLayer
62
256
370
-1
100
AcDbCircle
10
-0.4875
20
2.1875
40
0.0625
100
AcDbArc
50
90
51
180
0
LINE
5
FD
100
AcDbEntity
8
carriage_plate
6
ByLayer
62
256
370
-1
100
AcDbLine
10
0.4875
20
2.25
11
-0.4875
21
2.25
0
LINE
5
FE
100
AcDbEntity
8
carriage_plate
6
ByLayer
62
256
370
-1
100
AcDbLine
10
0.55
20
1.7875
11
0.55
21
2.1875
0
ARC
5
FF
100
AcDbEntity
8
carriage_plate
6
ByLayer
62
256
370
-1
100
AcDbCircle
10
0.4875
20
2.1875
40
0.0625
100
AcDbArc
50
0
51
90
0
LINE
5
100
100
AcDbEntity
8
carriage_plate
6
ByLayer
62
256
370
-1
100
AcDbLine
10
0.95
20
2.1875
11
0.95
21
1.7875
0
ARC
5
101
100
AcDbEntity
8
carriage_plate
6
ByLayer
62
256
370
-1
100
AcDbCircle
10
1.0125
20
2.1875
40
0.0625
100
AcDbArc
50
90
51
180
0
LINE
5
102
100
AcDbEntity
8
carriage_plate
6
ByLayer
62
256
370
-1
100
AcDbLine
10
1.9875
20
2.25
11
1.0125
21
2.25
0
LINE
5
103
100
AcDbEntity
8
carriage_plate
6
ByLayer
62
256
370
-1
100
AcDbLine
10
2.05
20
1.7875
11
2.05
21
2.1875
0
ARC
5
104
100
AcDbEntity
8
carriage_plate
6
ByLayer
62
256
370
-1
100
AcDbCircle
10
1.9875
20
2.1875
40
0.0625
100
AcDbArc
50
0
51
90
0
LINE
5
105
100
AcDbEntity
8
carriage_plate
6
ByLayer
62
256
370
-1
100
AcDbLine
10
2.45
20
2.1875
11
2.45
21
1.7875
0
LINE
5
106
100
AcDbEntity
8
carriage_plate
6
ByLayer
62
256
370
-1
100
AcDbLine
10
4.3125
20
2.25
11
2.5125
21
2.25
0
ARC
5
107
100
AcDbEntity
8
carriage_plate
6
ByLayer
62
256
370
-1
100
AcDbCircle
10
2.5125
20
2.1875
40
0.0625
100
AcDbArc
50
90
51
180
0
LINE
5
108
100
AcDbEntity
8
carriage_plate
6
ByLayer
62
256
370
-1
100
AcDbLine
10
-4.3125
20
-2.25
11
-2.5125
21
-2.25
0
LINE
5
109
100
AcDbEntity
8
carriage_plate
6
ByLayer
62
256
370
-1
100
AcDbLine
10
-2.45
20
-1.7875
11
-2.45
21
-2.1875
0
ARC
5
10A
100
AcDbEntity
8
carriage_plate
6
ByLayer
62
256
370
-1
100
AcDbCircle
10
-2.5125
20
-2.1875
40
0.0625
100
AcDbArc
50
270
51
0
0
LINE
5
10B
100
AcDbEntity
8
carriage_plate
6
ByLayer
62
256
370
-1
100
AcDbLine
10
-2.05
20
-2.1875
11
-2.05
21
-1.7875
0
ARC
5
10C
100
AcDbEntity
8
carriage_plate
6
ByLayer
62
256
370
-1
100
AcDbCircle
10
-1.9875
20
-2.1875
40
0.0625
100
AcDbArc
50
180
51
270
0
LINE
5
10D
100
AcDbEntity
8
carriage_plate
6
ByLayer
62
256
370
-1
100
AcDbLine
10
-1.9875
20
-2.25
11
-1.0125
21
-2.25
0
LINE
5
10E
100
AcDbEntity
8
carriage_plate
6
ByLayer
62
256
370
-1
100
AcDbLine
10
-0.95
20
-1.7875
11
-0.95
21
-2.1875
0
ARC
5
10F
100
AcDbEntity
8
carriage_plate
6
ByLayer
62
256
370
-1
100
AcDbCircle
10
-1.0125
20
-2.1875
40
0.0625
100
AcDbArc
50
270
51
0
0
LINE
5
110
100
AcDbEntity
8
carriage_plate
6
ByLayer
62
256
370
-1
100
AcDbLine
10
-0.55
20
-2.1875
11
-0.55
21
-1.7875
0
ARC
5
111
100
AcDbEntity
8
carriage_plate
6
ByLayer
62
256
370
-1
100
AcDbCircle
10
-0.4875
20
-2.1875
40
0.0625
100
AcDbArc
50
180
51
270
0
LINE
5
112
100
AcDbEntity
8
carriage_plate
6
ByLayer
62
256
370
-1
100
AcDbLine
10
-0.4875
20
-2.25
11
0.4875
21
-2.25
0
LINE
5
113
100
AcDbEntity
8
carriage_plate
6
ByLayer
62
256
370
-1
100
AcDbLine
10
0.55
20
-1.7875
11
0.55
21
-2.1875
0
ARC
5
114
100
AcDbEntity
8
carriage_plate
6
ByLayer
62
256
370
-1
100
AcDbCircle
10
0.4875
20
-2.1875
40
0.0625
100
AcDbArc
50
270
51
0
0
LINE
5
115
100
AcDbEntity
8
carriage_plate
6
ByLayer
62
256
370
-1
100
AcDbLine
10
0.95
20
-2.1875
11
0.95
21
-1.7875
0
ARC
5
116
100
AcDbEntity
8
carriage_plate
6
ByLayer
62
256
370
-1
100
AcDbCircle
10
1.0125
20
-2.1875
40
0.0625
100
AcDbArc
50
180
51
270
0
LINE
5
117
100
AcDbEntity
8
carriage_plate
6
ByLayer
62
256
370
-1
100
AcDbLine
10
1.0125
20
-2.25
11
1.9875
21
-2.25
0
LINE
5
118
100
AcDbEntity
8
carriage_plate
6
ByLayer
62
256
370
-1
100
AcDbLine
10
2.05
20
-1.7875
11
2.05
21
-2.1875
0
ARC
5
119
100
AcDbEntity
8
carriage_plate
6
ByLayer
62
256
370
-1
100
AcDbCircle
10
1.9875
20
-2.1875
40
0.0625
100
AcDbArc
50
270
51
0
0
LINE
5
11A
100
AcDbEntity
8
carriage_plate
6
ByLayer
62
256
370
-1
100
AcDbLine
10
2.45
20
-2.1875
11
2.45
21
-1.7875
0
LINE
5
11B
100
AcDbEntity
8
carriage_plate
6
ByLayer
62
256
370
-1
100
AcDbLine
10
2.5125
20
-2.25
11
4.3125
21
-2.25
0
ARC
5
11C
100
AcDbEntity
8
carriage_plate
6
ByLayer
62
256
370
-1
100
AcDbCircle
10
2.5125
20
-2.1875
40
0.0625
100
AcDbArc
50
180
51
270
0
LINE
5
11D
100
AcDbEntity
8
scratch
6
ByLayer
62
256
370
-1
100
AcDbLine
10
1.5
20
0
11
3
21
0
0
LINE
5
11E
100
AcDbEntity
8
scratch
6
ByLayer
62
256
370
-1
100
AcDbLine
10
1.5
20
0
11
0
21
0
0
ARC
5
11F
100
AcDbEntity
8
boundary
6
ByLayer
62
256
370
-1
100
AcDbCircle
10
0.7375
20
1.7875
40
0.1875
100
AcDbArc
50
180
51
270
0
LINE
5
120
100
AcDbEntity
8
boundary
6
ByLayer
62
256
370
-1
100
AcDbLine
10
0.7625
20
1.6
11
0.7375
21
1.6
0
ARC
5
121
100
AcDbEntity
8
boundary
6
ByLayer
62
256
370
-1
100
AcDbCircle
10
0.7625
20
1.7875
40
0.1875
100
AcDbArc
50
270
51
0
0
ARC
5
122
100
AcDbEntity
8
boundary
6
ByLayer
62
256
370
-1
100
AcDbCircle
10
2.2375
20
1.7875
40
0.1875
100
AcDbArc
50
180
51
270
0
LINE
5
123
100
AcDbEntity
8
boundary
6
ByLayer
62
256
370
-1
100
AcDbLine
10
2.2625
20
1.6
11
2.2375
21
1.6
0
ARC
5
124
100
AcDbEntity
8
boundary
6
ByLayer
62
256
370
-1
100
AcDbCircle
10
2.2625
20
1.7875
40
0.1875
100
AcDbArc
50
270
51
0
0
ARC
5
125
100
AcDbEntity
8
boundary
6
ByLayer
62
256
370
-1
100
AcDbCircle
10
0.7375
20
-1.7875
40
0.1875
100
AcDbArc
50
90
51
180
0
LINE
5
126
100
AcDbEntity
8
boundary
6
ByLayer
62
256
370
-1
100
AcDbLine
10
0.7625
20
-1.6
11
0.7375
21
-1.6
0
ARC
5
127
100
AcDbEntity
8
boundary
6
ByLayer
62
256
370
-1
100
AcDbCircle
10
0.7625
20
-1.7875
40
0.1875
100
AcDbArc
50
0
51
90
0
ARC
5
128
100
AcDbEntity
8
boundary
6
ByLayer
62
256
370
-1
100
AcDbCircle
10
2.2375
20
-1.7875
40
0.1875
100
AcDbArc
50
90
51
180
0
LINE
5
129
100
AcDbEntity
8
boundary
6
ByLayer
62
256
370
-1
100
AcDbLine
10
2.2625
20
-1.6
11
2.2375
21
-1.6
0
ARC
5
12A
100
AcDbEntity
8
boundary
6
ByLayer
62
256
370
-1
100
AcDbCircle
10
2.2625
20
-1.7875
40
0.1875
100
AcDbArc
50
0
51
90
0
LINE
5
12B
100
AcDbEntity
8
boundary
6
ByLayer
62
256
370
-1
100
AcDbLine
10
0.55
20
1.7875
11
0.55
21
2.1875
0
ARC
5
12C
100
AcDbEntity
8
boundary
6
ByLayer
62
256
370
-1
100
AcDbCircle
10
0.4875
20
2.1875
40
0.0625
100
AcDbArc
50
0
51
90
0
LINE
5
12D
100
AcDbEntity
8
boundary
6
ByLayer
62
256
370
-1
100
AcDbLine
10
0.95
20
2.1875
11
0.95
21
1.7875
0
ARC
5
12E
100
AcDbEntity
8
boundary
6
ByLayer
62
256
370
-1
100
AcDbCircle
10
1.0125
20
2.1875
40
0.0625
100
AcDbArc
50
90
51
180
0
LINE
5
12F
100
AcDbEntity
8
boundary
6
ByLayer
62
256
370
-1
100
AcDbLine
10
1.9875
20
2.25
11
1.0125
21
2.25
0
LINE
5
130
100
AcDbEntity
8
boundary
6
ByLayer
62
256
370
-1
100
AcDbLine
10
2.05
20
1.7875
11
2.05
21
2.1875
0
ARC
5
131
100
AcDbEntity
8
boundary
6
ByLayer
62
256
370
-1
100
AcDbCircle
10
1.9875
20
2.1875
40
0.0625
100
AcDbArc
50
0
51
90
0
LINE
5
132
100
AcDbEntity
8
boundary
6
ByLayer
62
256
370
-1
100
AcDbLine
10
2.45
20
2.1875
11
2.45
21
1.7875
0
ARC
5
133
100
AcDbEntity
8
boundary
6
ByLayer
62
256
370
-1
100
AcDbCircle
10
2.5125
20
2.1875
40
0.0625
100
AcDbArc
50
90
51
180
0
LINE
5
134
100
AcDbEntity
8
boundary
6
ByLayer
62
256
370
-1
100
AcDbLine
10
0.55
20
-1.7875
11
0.55
21
-2.1875
0
ARC
5
135
100
AcDbEntity
8
boundary
6
ByLayer
62
256
370
-1
100
AcDbCircle
10
0.4875
20
-2.1875
40
0.0625
100
AcDbArc
50
270
51
0
0
LINE
5
136
100
AcDbEntity
8
boundary
6
ByLayer
62
256
370
-1
100
AcDbLine
10
0.95
20
-2.1875
11
0.95
21
-1.7875
0
ARC
5
137
100
AcDbEntity
8
boundary
6
ByLayer
62
256
370
-1
100
AcDbCircle
10
1.0125
20
-2.1875
40
0.0625
100
AcDbArc
50
180
51
270
0
LINE
5
138
100
AcDbEntity
8
boundary
6
ByLayer
62
256
370
-1
100
AcDbLine
10
1.0125
20
-2.25
11
1.9875
21
-2.25
0
LINE
5
139
100
AcDbEntity
8
boundary
6
ByLayer
62
256
370
-1
100
AcDbLine
10
2.05
20
-1.7875
11
2.05
21
-2.1875
0
ARC
5
13A
100
AcDbEntity
8
boundary
6
ByLayer
62
256
370
-1
100
AcDbCircle
10
1.9875
20
-2.1875
40
0.0625
100
AcDbArc
50
270
51
0
0
LINE
5
13B
100
AcDbEntity
8
boundary
6
ByLayer
62
256
370
-1
100
AcDbLine
10
2.45
20
-2.1875
11
2.45
21
-1.7875
0
ARC
5
13C
100
AcDbEntity
8
boundary
6
ByLayer
62
256
370
-1
100
AcDbCircle
10
2.5125
20
-2.1875
40
0.0625
100
AcDbArc
50
180
51
270
0
CIRCLE
5
13D
100
AcDbEntity
8
5/16_through_hole
6
ByLayer
62
256
370
-1
100
AcDbCircle
10
0.75
20
0
40
0.1615
0
CIRCLE
5
13E
100
AcDbEntity
8
5/16_through_hole
6
ByLayer
62
256
370
-1
100
AcDbCircle
10
2.25
20
0
40
0.1615
0
LINE
5
13F
100
AcDbEntity
8
bracket
6
ByLayer
62
256
370
-1
100
AcDbLine
10
3
20
0
11
3
21
0.7
0
LINE
5
140
100
AcDbEntity
8
bracket
6
ByLayer
62
256
370
-1
100
AcDbLine
10
3
20
0
11
3
21
-0.7
0
LINE
5
141
100
AcDbEntity
8
bracket
6
ByLayer
62
256
370
-1
100
AcDbLine
10
3
20
0.7
11
6.15
21
0.7
0
LINE
5
142
100
AcDbEntity
8
bracket
6
ByLayer
62
256
370
-1
100
AcDbLine
10
3
20
-0.7
11
6.15
21
-0.7
0
LINE
5
143
100
AcDbEntity
8
bracket
6
ByLayer
62
256
370
-1
100
AcDbLine
10
6.15
20
0.7
11
6.15
21
-0.7
0
LINE
5
144
100
AcDbEntity
8
scratch
6
ByLayer
62
256
370
-1
100
AcDbLine
10
1.5
20
1
11
2.25
21
1
0
LINE
5
145
100
AcDbEntity
8
scratch
6
ByLayer
62
256
370
-1
100
AcDbLine
10
1.5
20
1
11
0.75
21
1
0
CIRCLE
5
146
100
AcDbEntity
8
10-32_tap_hole
6
ByLayer
62
256
370
-1
100
AcDbCircle
10
0.75
20
1
40
0.0795
0
CIRCLE
5
147
100
AcDbEntity
8
10-32_tap_hole
6
ByLayer
62
256
370
-1
100
AcDbCircle
10
2.25
20
1
40
0.0795
0
LINE
5
148
100
AcDbEntity
8
scratch
6
ByLayer
62
256
370
-1
100
AcDbLine
10
1.5
20
-1
11
2.25
21
-1
0
LINE
5
149
100
AcDbEntity
8
scratch
6
ByLayer
62
256
370
-1
100
AcDbLine
10
1.5
20
-1
11
0.75
21
-1
0
CIRCLE
5
14A
100
AcDbEntity
8
10-32_tap_hole
6
ByLayer
62
256
370
-1
100
AcDbCircle
10
0.75
20
-1
40
0.0795
0
CIRCLE
5
14B
100
AcDbEntity
8
10-32_tap_hole
6
ByLayer
62
256
370
-1
100
AcDbCircle
10
2.25
20
-1
40
0.0795
0
LINE
5
14C
100
AcDbEntity
8
scratch
6
ByLayer
62
256
370
-1
100
AcDbLine
10
3
20
1
11
3.5
21
1
0
LINE
5
14D
100
AcDbEntity
8
scratch
6
ByLayer
62
256
370
-1
100
AcDbLine
10
3
20
-1
11
3.5
21
-1
0
LINE
5
14E
100
AcDbEntity
8
scratch
6
ByLayer
62
256
370
-1
100
AcDbLine
10
6.15
20
1
11
5.65
21
1
0
LINE
5
14F
100
AcDbEntity
8
scratch
6
ByLayer
62
256
370
-1
100
AcDbLine
10
6.15
20
-1
11
5.65
21
-1
0
CIRCLE
5
150
100
AcDbEntity
8
10-32_tap_hole
6
ByLayer
62
256
370
-1
100
AcDbCircle
10
3.5
20
1
40
0.0795
0
CIRCLE
5
151
100
AcDbEntity
8
10-32_tap_hole
6
ByLayer
62
256
370
-1
100
AcDbCircle
10
3.5
20
-1
40
0.0795
0
CIRCLE
5
152
100
AcDbEntity
8
10-32_tap_hole
6
ByLayer
62
256
370
-1
100
AcDbCircle
10
5.65
20
-1
40
0.0795
0
CIRCLE
5
153
100
AcDbEntity
8
10-32_tap_hole
6
ByLayer
62
256
370
-1
100
AcDbCircle
10
5.65
20
1
40
0.0795
0
LINE
5
154
100
AcDbEntity
8
boundary
6
ByLayer
62
256
370
-1
100
AcDbLine
10
0.4875
20
2.25
11
0.0625
21
2.25
0
LINE
5
155
100
AcDbEntity
8
boundary
6
ByLayer
62
256
370
-1
100
AcDbLine
10
0
20
0
11
1.33945743657e-16
21
2.1875
0
ARC
5
156
100
AcDbEntity
8
boundary
6
ByLayer
62
256
370
-1
100
AcDbCircle
10
0.0625
20
2.1875
40
0.0625
100
AcDbArc
50
90
51
180
0
LINE
5
157
100
AcDbEntity
8
boundary
6
ByLayer
62
256
370
-1
100
AcDbLine
10
0
20
0
11
-1.33945743657e-16
21
-2.1875
0
LINE
5
158
100
AcDbEntity
8
boundary
6
ByLayer
62
256
370
-1
100
AcDbLine
10
0.0625
20
-2.25
11
0.4875
21
-2.25
0
ARC
5
159
100
AcDbEntity
8
boundary
6
ByLayer
62
256
370
-1
100
AcDbCircle
10
0.0625
20
-2.1875
40
0.0625
100
AcDbArc
50
180
51
270
0
ARC
5
15A
100
AcDbEntity
8
boundary
6
ByLayer
62
256
370
-1
100
AcDbCircle
10
6.0875
20
1.1875
40
0.0625
100
AcDbArc
50
0
51
90
0
LINE
5
15B
100
AcDbEntity
8
boundary
6
ByLayer
62
256
370
-1
100
AcDbLine
10
6.15
20
1.1875
11
6.15
21
-1.1875
0
ARC
5
15C
100
AcDbEntity
8
boundary
6
ByLayer
62
256
370
-1
100
AcDbCircle
10
6.0875
20
-1.1875
40
0.0625
100
AcDbArc
50
270
51
0
0
DIMENSION
5
15D
100
AcDbEntity
8
dimension
6
ByLayer
62
256
370
-1
100
AcDbDimension
10
6.93828161477
20
1.25
30
0
11
6.78828161477
21
1.125
31
0
70
32
71
5
3
Standard
53
0
210
0
220
0
230
1
100
AcDbAlignedDimension
13
5.65
23
1
33
0
14
6.0875
24
1.25
34
0
50
90
100
AcDbRotatedDimension
0
DIMENSION
5
15E
100
AcDbEntity
8
dimension
6
ByLayer
62
256
370
-1
100
AcDbDimension
10
6.15
20
1.43250496948
30
0
11
5.9
21
1.58250496948
31
0
70
32
71
5
3
Standard
53
0
210
0
220
0
230
1
100
AcDbAlignedDimension
13
5.65
23
1
33
0
14
6.15
24
1.1875
34
0
100
AcDbRotatedDimension
0
LINE
5
15F
100
AcDbEntity
8
scratch
6
ByLayer
62
256
370
-1
100
AcDbLine
10
4.575
20
0.7
11
4.575
21
-0.7
0
LINE
5
160
100
AcDbEntity
8
scratch
6
ByLayer
62
256
370
-1
100
AcDbLine
10
4.575
20
0
11
5.325
21
0
0
LINE
5
161
100
AcDbEntity
8
scratch
6
ByLayer
62
256
370
-1
100
AcDbLine
10
4.575
20
0
11
3.825
21
0
0
CIRCLE
5
162
100
AcDbEntity
8
5/16-18_tap_hole
6
ByLayer
62
256
370
-1
100
AcDbCircle
10
5.325
20
0
40
0.1285
0
CIRCLE
5
163
100
AcDbEntity
8
5/16-18_tap_hole
6
ByLayer
62
256
370
-1
100
AcDbCircle
10
3.825
20
0
40
0.1285
0
ARC
5
164
100
AcDbEntity
8
boundary
6
ByLayer
62
256
370
-1
100
AcDbCircle
10
4.3125
20
2.0625
40
0.1875
100
AcDbArc
50
0
51
90
0
ARC
5
165
100
AcDbEntity
8
boundary
6
ByLayer
62
256
370
-1
100
AcDbCircle
10
4.3125
20
-2.0625
40
0.1875
100
AcDbArc
50
270
51
0
0
LINE
5
166
100
AcDbEntity
8
boundary
6
ByLayer
62
256
370
-1
100
AcDbLine
10
4.3125
20
2.25
11
2.5125
21
2.25
0
LINE
5
167
100
AcDbEntity
8
boundary
6
ByLayer
62
256
370
-1
100
AcDbLine
10
2.5125
20
-2.25
11
4.3125
21
-2.25
0
LINE
5
168
100
AcDbEntity
8
boundary
6
ByLayer
62
256
370
-1
100
AcDbLine
10
4.5
20
1.3125
11
4.5
21
2.0625
0
LINE
5
169
100
AcDbEntity
8
boundary
6
ByLayer
62
256
370
-1
100
AcDbLine
10
4.5625
20
1.25
11
6.0875
21
1.25
0
ARC
5
16A
100
AcDbEntity
8
boundary
6
ByLayer
62
256
370
-1
100
AcDbCircle
10
4.5625
20
1.3125
40
0.0625
100
AcDbArc
50
180
51
270
0
LINE
5
16B
100
AcDbEntity
8
boundary
6
ByLayer
62
256
370
-1
100
AcDbLine
10
4.5
20
-2.0625
11
4.5
21
-1.3125
0
LINE
5
16C
100
AcDbEntity
8
boundary
6
ByLayer
62
256
370
-1
100
AcDbLine
10
4.5625
20
-1.25
11
6.0875
21
-1.25
0
ARC
5
16D
100
AcDbEntity
8
boundary
6
ByLayer
62
256
370
-1
100
AcDbCircle
10
4.5625
20
-1.3125
40
0.0625
100
AcDbArc
50
90
51
180
0
LINE
5
16E
100
AcDbEntity
8
scratch
6
ByLayer
62
256
370
-1
100
AcDbLine
10
2.25
20
2.25
11
3.75
21
2.25
0
LINE
5
16F
100
AcDbEntity
8
scratch
6
ByLayer
62
256
370
-1
100
AcDbLine
10
3.75
20
2.25
11
3.75
21
1.85
0
LINE
5
170
100
AcDbEntity
8
scratch
6
ByLayer
62
256
370
-1
100
AcDbLine
10
2.25
20
-2.25
11
3.75
21
-2.25
0
LINE
5
171
100
AcDbEntity
8
scratch
6
ByLayer
62
256
370
-1
100
AcDbLine
10
3.75
20
-2.25
11
3.75
21
-1.85
0
CIRCLE
5
172
100
AcDbEntity
8
1/4-20_through_hole
6
ByLayer
62
256
370
-1
100
AcDbCircle
10
3.75
20
-1.85
40
0.1285
0
CIRCLE
5
173
100
AcDbEntity
8
carriage_plate
6
ByLayer
62
256
370
-1
100
AcDbCircle
10
-3
20
1
40
0.1005
0
CIRCLE
5
174
100
AcDbEntity
8
carriage_plate
6
ByLayer
62
256
370
-1
100
AcDbCircle
10
-3
20
-2.77555756156e-17
40
0.1005
0
CIRCLE
5
175
100
AcDbEntity
8
carriage_plate
6
ByLayer
62
256
370
-1
100
AcDbCircle
10
-3
20
-1
40
0.1005
0
CIRCLE
5
176
100
AcDbEntity
8
carriage_plate
6
ByLayer
62
256
370
-1
100
AcDbCircle
10
-2
20
1
40
0.1005
0
CIRCLE
5
177
100
AcDbEntity
8
carriage_plate
6
ByLayer
62
256
370
-1
100
AcDbCircle
10
-2
20
-3.05311331772e-16
40
0.1005
0
CIRCLE
5
178
100
AcDbEntity
8
carriage_plate
6
ByLayer
62
256
370
-1
100
AcDbCircle
10
-2
20
-1
40
0.1005
0
CIRCLE
5
179
100
AcDbEntity
8
carriage_plate
6
ByLayer
62
256
370
-1
100
AcDbCircle
10
-1
20
-1
40
0.1005
0
CIRCLE
5
17A
100
AcDbEntity
8
carriage_plate
6
ByLayer
62
256
370
-1
100
AcDbCircle
10
-1
20
-3.05311331772e-16
40
0.1005
0
CIRCLE
5
17B
100
AcDbEntity
8
carriage_plate
6
ByLayer
62
256
370
-1
100
AcDbCircle
10
-1
20
1
40
0.1005
0
CIRCLE
5
17C
100
AcDbEntity
8
carriage_plate
6
ByLayer
62
256
370
-1
100
AcDbCircle
10
3.75
20
1.85
40
0.1005
0
CIRCLE
5
17D
100
AcDbEntity
8
carriage_plate
6
ByLayer
62
256
370
-1
100
AcDbCircle
10
3.75
20
-1.85
40
0.1005
0
CIRCLE
5
17E
100
AcDbEntity
8
1/4-20_through_hole
6
ByLayer
62
256
370
-1
100
AcDbCircle
10
3.75
20
1.85
40
0.1285
0
CIRCLE
5
17F
100
AcDbEntity
8
1/4-20_through_hole
6
ByLayer
62
256
370
-1
100
AcDbCircle
10
4.14
20
0.75
40
0.1285
0
CIRCLE
5
180
100
AcDbEntity
8
1/4-20_through_hole
6
ByLayer
62
256
370
-1
100
AcDbCircle
10
4.14
20
-0.75
40
0.1285
0
ENDBLK
5
5A
330
58
100
AcDbEntity
8
0
100
AcDbBlockEnd
0
BLOCK
5
5C
330
5B
100
AcDbEntity
8
0
100
AcDbBlockBegin
2
upper_gantry_plate-0
70
0
10
0
20
0
3
upper_gantry_plate-0
1

0
LINE
5
181
100
AcDbEntity
8
scratch
6
ByLayer
62
256
370
-1
100
AcDbLine
10
4.5
20
0
11
4.5
21
0
0
LINE
5
182
100
AcDbEntity
8
scratch
6
ByLayer
62
256
370
-1
100
AcDbLine
10
-4.5
20
0
11
-4.5
21
0
0
LINE
5
183
100
AcDbEntity
8
scratch
6
ByLayer
62
256
370
-1
100
AcDbLine
10
1.5
20
2.25
11
1.5
21
-2.25
0
ARC
5
184
100
AcDbEntity
8
carriage_plate
6
ByLayer
62
256
370
-1
100
AcDbCircle
10
-2.2625
20
1.7875
40
0.1875
100
AcDbArc
50
180
51
270
0
LINE
5
185
100
AcDbEntity
8
carriage_plate
6
ByLayer
62
256
370
-1
100
AcDbLine
10
-2.2375
20
1.6
11
-2.2625
21
1.6
0
ARC
5
186
100
AcDbEntity
8
carriage_plate
6
ByLayer
62
256
370
-1
100
AcDbCircle
10
-2.2375
20
1.7875
40
0.1875
100
AcDbArc
50
270
51
0
0
ARC
5
187
100
AcDbEntity
8
carriage_plate
6
ByLayer
62
256
370
-1
100
AcDbCircle
10
-0.7625
20
1.7875
40
0.1875
100
AcDbArc
50
180
51
270
0
LINE
5
188
100
AcDbEntity
8
carriage_plate
6
ByLayer
62
256
370
-1
100
AcDbLine
10
-0.7375
20
1.6
11
-0.7625
21
1.6
0
ARC
5
189
100
AcDbEntity
8
carriage_plate
6
ByLayer
62
256
370
-1
100
AcDbCircle
10
-0.7375
20
1.7875
40
0.1875
100
AcDbArc
50
270
51
0
0
ARC
5
18A
100
AcDbEntity
8
carriage_plate
6
ByLayer
62
256
370
-1
100
AcDbCircle
10
0.7375
20
1.7875
40
0.1875
100
AcDbArc
50
180
51
270
0
LINE
5
18B
100
AcDbEntity
8
carriage_plate
6
ByLayer
62
256
370
-1
100
AcDbLine
10
0.7625
20
1.6
11
0.7375
21
1.6
0
ARC
5
18C
100
AcDbEntity
8
carriage_plate
6
ByLayer
62
256
370
-1
100
AcDbCircle
10
0.7625
20
1.7875
40
0.1875
100
AcDbArc
50
270
51
0
0
ARC
5
18D
100
AcDbEntity
8
carriage_plate
6
ByLayer
62
256
370
-1
100
AcDbCircle
10
2.2375
20
1.7875
40
0.1875
100
AcDbArc
50
180
51
270
0
LINE
5
18E
100
AcDbEntity
8
carriage_plate
6
ByLayer
62
256
370
-1
100
AcDbLine
10
2.2625
20
1.6
11
2.2375
21
1.6
0
ARC
5
18F
100
AcDbEntity
8
carriage_plate
6
ByLayer
62
256
370
-1
100
AcDbCircle
10
2.2625
20
1.7875
40
0.1875
100
AcDbArc
50
270
51
0
0
ARC
5
190
100
AcDbEntity
8
carriage_plate
6
ByLayer
62
256
370
-1
100
AcDbCircle
10
-2.2625
20
-1.7875
40
0.1875
100
AcDbArc
50
90
51
180
0
LINE
5
191
100
AcDbEntity
8
carriage_plate
6
ByLayer
62
256
370
-1
100
AcDbLine
10
-2.2375
20
-1.6
11
-2.2625
21
-1.6
0
ARC
5
192
100
AcDbEntity
8
carriage_plate
6
ByLayer
62
256
370
-1
100
AcDbCircle
10
-2.2375
20
-1.7875
40
0.1875
100
AcDbArc
50
0
51
90
0
ARC
5
193
100
AcDbEntity
8
carriage_plate
6
ByLayer
62
256
370
-1
100
AcDbCircle
10
-0.7625
20
-1.7875
40
0.1875
100
AcDbArc
50
90
51
180
0
LINE
5
194
100
AcDbEntity
8
carriage_plate
6
ByLayer
62
256
370
-1
100
AcDbLine
10
-0.7375
20
-1.6
11
-0.7625
21
-1.6
0
ARC
5
195
100
AcDbEntity
8
carriage_plate
6
ByLayer
62
256
370
-1
100
AcDbCircle
10
-0.7375
20
-1.7875
40
0.1875
100
AcDbArc
50
0
51
90
0
ARC
5
196
100
AcDbEntity
8
carriage_plate
6
ByLayer
62
256
370
-1
100
AcDbCircle
10
0.7375
20
-1.7875
40
0.1875
100
AcDbArc
50
90
51
180
0
LINE
5
197
100
AcDbEntity
8
carriage_plate
6
ByLayer
62
256
370
-1
100
AcDbLine
10
0.7625
20
-1.6
11
0.7375
21
-1.6
0
ARC
5
198
100
AcDbEntity
8
carriage_plate
6
ByLayer
62
256
370
-1
100
AcDbCircle
10
0.7625
20
-1.7875
40
0.1875
100
AcDbArc
50
0
51
90
0
ARC
5
199
100
AcDbEntity
8
carriage_plate
6
ByLayer
62
256
370
-1
100
AcDbCircle
10
2.2375
20
-1.7875
40
0.1875
100
AcDbArc
50
90
51
180
0
LINE
5
19A
100
AcDbEntity
8
carriage_plate
6
ByLayer
62
256
370
-1
100
AcDbLine
10
2.2625
20
-1.6
11
2.2375
21
-1.6
0
ARC
5
19B
100
AcDbEntity
8
carriage_plate
6
ByLayer
62
256
370
-1
100
AcDbCircle
10
2.2625
20
-1.7875
40
0.1875
100
AcDbArc
50
0
51
90
0
CIRCLE
5
19C
100
AcDbEntity
8
carriage_plate
6
ByLayer
62
256
370
-1
100
AcDbCircle
10
-4.14
20
0.75
40
0.1005
0
CIRCLE
5
19D
100
AcDbEntity
8
carriage_plate
6
ByLayer
62
256
370
-1
100
AcDbCircle
10
-4.14
20
-0.75
40
0.1005
0
CIRCLE
5
19E
100
AcDbEntity
8
carriage_plate
6
ByLayer
62
256
370
-1
100
AcDbCircle
10
4.14
20
0.75
40
0.1005
0
CIRCLE
5
19F
100
AcDbEntity
8
carriage_plate
6
ByLayer
62
256
370
-1
100
AcDbCircle
10
4.14
20
-0.75
40
0.1005
0
ARC
5
1A0
100
AcDbEntity
8
carriage_plate
6
ByLayer
62
256
370
-1
100
AcDbCircle
10
-4.3125
20
2.0625
40
0.1875
100
AcDbArc
50
90
51
180
0
LINE
5
1A1
100
AcDbEntity
8
carriage_plate
6
ByLayer
62
256
370
-1
100
AcDbLine
10
-4.5
20
2.0625
11
-4.5
21
-2.0625
0
ARC
5
1A2
100
AcDbEntity
8
carriage_plate
6
ByLayer
62
256
370
-1
100
AcDbCircle
10
-4.3125
20
-2.0625
40
0.1875
100
AcDbArc
50
180
51
270
0
ARC
5
1A3
100
AcDbEntity
8
carriage_plate
6
ByLayer
62
256
370
-1
100
AcDbCircle
10
4.3125
20
2.0625
40
0.1875
100
AcDbArc
50
0
51
90
0
LINE
5
1A4
100
AcDbEntity
8
carriage_plate
6
ByLayer
62
256
370
-1
100
AcDbLine
10
4.5
20
-2.0625
11
4.5
21
2.0625
0
ARC
5
1A5
100
AcDbEntity
8
carriage_plate
6
ByLayer
62
256
370
-1
100
AcDbCircle
10
4.3125
20
-2.0625
40
0.1875
100
AcDbArc
50
270
51
0
0
LINE
5
1A6
100
AcDbEntity
8
carriage_plate
6
ByLayer
62
256
370
-1
100
AcDbLine
10
-2.45
20
1.7875
11
-2.45
21
2.1875
0
LINE
5
1A7
100
AcDbEntity
8
carriage_plate
6
ByLayer
62
256
370
-1
100
AcDbLine
10
-2.5125
20
2.25
11
-4.3125
21
2.25
0
ARC
5
1A8
100
AcDbEntity
8
carriage_plate
6
ByLayer
62
256
370
-1
100
AcDbCircle
10
-2.5125
20
2.1875
40
0.0625
100
AcDbArc
50
0
51
90
0
LINE
5
1A9
100
AcDbEntity
8
carriage_plate
6
ByLayer
62
256
370
-1
100
AcDbLine
10
-2.05
20
2.1875
11
-2.05
21
1.7875
0
ARC
5
1AA
100
AcDbEntity
8
carriage_plate
6
ByLayer
62
256
370
-1
100
AcDbCircle
10
-1.9875
20
2.1875
40
0.0625
100
AcDbArc
50
90
51
180
0
LINE
5
1AB
100
AcDbEntity
8
carriage_plate
6
ByLayer
62
256
370
-1
100
AcDbLine
10
-0.95
20
1.7875
11
-0.95
21
2.1875
0
LINE
5
1AC
100
AcDbEntity
8
carriage_plate
6
ByLayer
62
256
370
-1
100
AcDbLine
10
-1.0125
20
2.25
11
-1.9875
21
2.25
0
ARC
5
1AD
100
AcDbEntity
8
carriage_plate
6
ByLayer
62
256
370
-1
100
AcDbCircle
10
-1.0125
20
2.1875
40
0.0625
100
AcDbArc
50
0
51
90
0
LINE
5
1AE
100
AcDbEntity
8
carriage_plate
6
ByLayer
62
256
370
-1
100
AcDbLine
10
-0.55
20
2.1875
11
-0.55
21
1.7875
0
ARC
5
1AF
100
AcDbEntity
8
carriage_plate
6
ByLayer
62
256
370
-1
100
AcDbCircle
10
-0.4875
20
2.1875
40
0.0625
100
AcDbArc
50
90
51
180
0
LINE
5
1B0
100
AcDbEntity
8
carriage_plate
6
ByLayer
62
256
370
-1
100
AcDbLine
10
0.4875
20
2.25
11
-0.4875
21
2.25
0
LINE
5
1B1
100
AcDbEntity
8
carriage_plate
6
ByLayer
62
256
370
-1
100
AcDbLine
10
0.55
20
1.7875
11
0.55
21
2.1875
0
ARC
5
1B2
100
AcDbEntity
8
carriage_plate
6
ByLayer
62
256
370
-1
100
AcDbCircle
10
0.4875
20
2.1875
40
0.0625
100
AcDbArc
50
0
51
90
0
LINE
5
1B3
100
AcDbEntity
8
carriage_plate
6
ByLayer
62
256
370
-1
100
AcDbLine
10
0.95
20
2.1875
11
0.95
21
1.7875
0
ARC
5
1B4
100
AcDbEntity
8
carriage_plate
6
ByLayer
62
256
370
-1
100
AcDbCircle
10
1.0125
20
2.1875
40
0.0625
100
AcDbArc
50
90
51
180
0
LINE
5
1B5
100
AcDbEntity
8
carriage_plate
6
ByLayer
62
256
370
-1
100
AcDbLine
10
1.9875
20
2.25
11
1.0125
21
2.25
0
LINE
5
1B6
100
AcDbEntity
8
carriage_plate
6
ByLayer
62
256
370
-1
100
AcDbLine
10
2.05
20
1.7875
11
2.05
21
2.1875
0
ARC
5
1B7
100
AcDbEntity
8
carriage_plate
6
ByLayer
62
256
370
-1
100
AcDbCircle
10
1.9875
20
2.1875
40
0.0625
100
AcDbArc
50
0
51
90
0
LINE
5
1B8
100
AcDbEntity
8
carriage_plate
6
ByLayer
62
256
370
-1
100
AcDbLine
10
2.45
20
2.1875
11
2.45
21
1.7875
0
LINE
5
1B9
100
AcDbEntity
8
carriage_plate
6
ByLayer
62
256
370
-1
100
AcDbLine
10
4.3125
20
2.25
11
2.5125
21
2.25
0
ARC
5
1BA
100
AcDbEntity
8
carriage_plate
6
ByLayer
62
256
370
-1
100
AcDbCircle
10
2.5125
20
2.1875
40
0.0625
100
AcDbArc
50
90
51
180
0
LINE
5
1BB
100
AcDbEntity
8
carriage_plate
6
ByLayer
62
256
370
-1
100
AcDbLine
10
-4.3125
20
-2.25
11
-2.5125
21
-2.25
0
LINE
5
1BC
100
AcDbEntity
8
carriage_plate
6
ByLayer
62
256
370
-1
100
AcDbLine
10
-2.45
20
-1.7875
11
-2.45
21
-2.1875
0
ARC
5
1BD
100
AcDbEntity
8
carriage_plate
6
ByLayer
62
256
370
-1
100
AcDbCircle
10
-2.5125
20
-2.1875
40
0.0625
100
AcDbArc
50
270
51
0
0
LINE
5
1BE
100
AcDbEntity
8
carriage_plate
6
ByLayer
62
256
370
-1
100
AcDbLine
10
-2.05
20
-2.1875
11
-2.05
21
-1.7875
0
ARC
5
1BF
100
AcDbEntity
8
carriage_plate
6
ByLayer
62
256
370
-1
100
AcDbCircle
10
-1.9875
20
-2.1875
40
0.0625
100
AcDbArc
50
180
51
270
0
LINE
5
1C0
100
AcDbEntity
8
carriage_plate
6
ByLayer
62
256
370
-1
100
AcDbLine
10
-1.9875
20
-2.25
11
-1.0125
21
-2.25
0
LINE
5
1C1
100
AcDbEntity
8
carriage_plate
6
ByLayer
62
256
370
-1
100
AcDbLine
10
-0.95
20
-1.7875
11
-0.95
21
-2.1875
0
ARC
5
1C2
100
AcDbEntity
8
carriage_plate
6
ByLayer
62
256
370
-1
100
AcDbCircle
10
-1.0125
20
-2.1875
40
0.0625
100
AcDbArc
50
270
51
0
0
LINE
5
1C3
100
AcDbEntity
8
carriage_plate
6
ByLayer
62
256
370
-1
100
AcDbLine
10
-0.55
20
-2.1875
11
-0.55
21
-1.7875
0
ARC
5
1C4
100
AcDbEntity
8
carriage_plate
6
ByLayer
62
256
370
-1
100
AcDbCircle
10
-0.4875
20
-2.1875
40
0.0625
100
AcDbArc
50
180
51
270
0
LINE
5
1C5
100
AcDbEntity
8
carriage_plate
6
ByLayer
62
256
370
-1
100
AcDbLine
10
-0.4875
20
-2.25
11
0.4875
21
-2.25
0
LINE
5
1C6
100
AcDbEntity
8
carriage_plate
6
ByLayer
62
256
370
-1
100
AcDbLine
10
0.55
20
-1.7875
11
0.55
21
-2.1875
0
ARC
5
1C7
100
AcDbEntity
8
carriage_plate
6
ByLayer
62
256
370
-1
100
AcDbCircle
10
0.4875
20
-2.1875
40
0.0625
100
AcDbArc
50
270
51
0
0
LINE
5
1C8
100
AcDbEntity
8
carriage_plate
6
ByLayer
62
256
370
-1
100
AcDbLine
10
0.95
20
-2.1875
11
0.95
21
-1.7875
0
ARC
5
1C9
100
AcDbEntity
8
carriage_plate
6
ByLayer
62
256
370
-1
100
AcDbCircle
10
1.0125
20
-2.1875
40
0.0625
100
AcDbArc
50
180
51
270
0
LINE
5
1CA
100
AcDbEntity
8
carriage_plate
6
ByLayer
62
256
370
-1
100
AcDbLine
10
1.0125
20
-2.25
11
1.9875
21
-2.25
0
LINE
5
1CB
100
AcDbEntity
8
carriage_plate
6
ByLayer
62
256
370
-1
100
AcDbLine
10
2.05
20
-1.7875
11
2.05
21
-2.1875
0
ARC
5
1CC
100
AcDbEntity
8
carriage_plate
6
ByLayer
62
256
370
-1
100
AcDbCircle
10
1.9875
20
-2.1875
40
0.0625
100
AcDbArc
50
270
51
0
0
LINE
5
1CD
100
AcDbEntity
8
carriage_plate
6
ByLayer
62
256
370
-1
100
AcDbLine
10
2.45
20
-2.1875
11
2.45
21
-1.7875
0
LINE
5
1CE
100
AcDbEntity
8
carriage_plate
6
ByLayer
62
256
370
-1
100
AcDbLine
10
2.5125
20
-2.25
11
4.3125
21
-2.25
0
ARC
5
1CF
100
AcDbEntity
8
carriage_plate
6
ByLayer
62
256
370
-1
100
AcDbCircle
10
2.5125
20
-2.1875
40
0.0625
100
AcDbArc
50
180
51
270
0
ARC
5
1D0
100
AcDbEntity
8
lower_gantry_plate
6
ByLayer
62
256
370
-1
100
AcDbCircle
10
0.7375
20
1.7875
40
0.1875
100
AcDbArc
50
180
51
270
0
LINE
5
1D1
100
AcDbEntity
8
lower_gantry_plate
6
ByLayer
62
256
370
-1
100
AcDbLine
10
0.7625
20
1.6
11
0.7375
21
1.6
0
ARC
5
1D2
100
AcDbEntity
8
lower_gantry_plate
6
ByLayer
62
256
370
-1
100
AcDbCircle
10
0.7625
20
1.7875
40
0.1875
100
AcDbArc
50
270
51
0
0
ARC
5
1D3
100
AcDbEntity
8
lower_gantry_plate
6
ByLayer
62
256
370
-1
100
AcDbCircle
10
2.2375
20
1.7875
40
0.1875
100
AcDbArc
50
180
51
270
0
LINE
5
1D4
100
AcDbEntity
8
lower_gantry_plate
6
ByLayer
62
256
370
-1
100
AcDbLine
10
2.2625
20
1.6
11
2.2375
21
1.6
0
ARC
5
1D5
100
AcDbEntity
8
lower_gantry_plate
6
ByLayer
62
256
370
-1
100
AcDbCircle
10
2.2625
20
1.7875
40
0.1875
100
AcDbArc
50
270
51
0
0
ARC
5
1D6
100
AcDbEntity
8
lower_gantry_plate
6
ByLayer
62
256
370
-1
100
AcDbCircle
10
0.7375
20
-1.7875
40
0.1875
100
AcDbArc
50
90
51
180
0
LINE
5
1D7
100
AcDbEntity
8
lower_gantry_plate
6
ByLayer
62
256
370
-1
100
AcDbLine
10
0.7625
20
-1.6
11
0.7375
21
-1.6
0
ARC
5
1D8
100
AcDbEntity
8
lower_gantry_plate
6
ByLayer
62
256
370
-1
100
AcDbCircle
10
0.7625
20
-1.7875
40
0.1875
100
AcDbArc
50
0
51
90
0
ARC
5
1D9
100
AcDbEntity
8
lower_gantry_plate
6
ByLayer
62
256
370
-1
100
AcDbCircle
10
2.2375
20
-1.7875
40
0.1875
100
AcDbArc
50
90
51
180
0
LINE
5
1DA
100
AcDbEntity
8
lower_gantry_plate
6
ByLayer
62
256
370
-1
100
AcDbLine
10
2.2625
20
-1.6
11
2.2375
21
-1.6
0
ARC
5
1DB
100
AcDbEntity
8
lower_gantry_plate
6
ByLayer
62
256
370
-1
100
AcDbCircle
10
2.2625
20
-1.7875
40
0.1875
100
AcDbArc
50
0
51
90
0
LINE
5
1DC
100
AcDbEntity
8
lower_gantry_plate
6
ByLayer
62
256
370
-1
100
AcDbLine
10
0.55
20
1.7875
11
0.55
21
2.1875
0
ARC
5
1DD
100
AcDbEntity
8
lower_gantry_plate
6
ByLayer
62
256
370
-1
100
AcDbCircle
10
0.4875
20
2.1875
40
0.0625
100
AcDbArc
50
0
51
90
0
LINE
5
1DE
100
AcDbEntity
8
lower_gantry_plate
6
ByLayer
62
256
370
-1
100
AcDbLine
10
0.95
20
2.1875
11
0.95
21
1.7875
0
ARC
5
1DF
100
AcDbEntity
8
lower_gantry_plate
6
ByLayer
62
256
370
-1
100
AcDbCircle
10
1.0125
20
2.1875
40
0.0625
100
AcDbArc
50
90
51
180
0
LINE
5
1E0
100
AcDbEntity
8
lower_gantry_plate
6
ByLayer
62
256
370
-1
100
AcDbLine
10
1.9875
20
2.25
11
1.0125
21
2.25
0
LINE
5
1E1
100
AcDbEntity
8
lower_gantry_plate
6
ByLayer
62
256
370
-1
100
AcDbLine
10
2.05
20
1.7875
11
2.05
21
2.1875
0
ARC
5
1E2
100
AcDbEntity
8
lower_gantry_plate
6
ByLayer
62
256
370
-1
100
AcDbCircle
10
1.9875
20
2.1875
40
0.0625
100
AcDbArc
50
0
51
90
0
LINE
5
1E3
100
AcDbEntity
8
lower_gantry_plate
6
ByLayer
62
256
370
-1
100
AcDbLine
10
2.45
20
2.1875
11
2.45
21
1.7875
0
ARC
5
1E4
100
AcDbEntity
8
lower_gantry_plate
6
ByLayer
62
256
370
-1
100
AcDbCircle
10
2.5125
20
2.1875
40
0.0625
100
AcDbArc
50
90
51
180
0
LINE
5
1E5
100
AcDbEntity
8
lower_gantry_plate
6
ByLayer
62
256
370
-1
100
AcDbLine
10
0.55
20
-1.7875
11
0.55
21
-2.1875
0
ARC
5
1E6
100
AcDbEntity
8
lower_gantry_plate
6
ByLayer
62
256
370
-1
100
AcDbCircle
10
0.4875
20
-2.1875
40
0.0625
100
AcDbArc
50
270
51
0
0
LINE
5
1E7
100
AcDbEntity
8
lower_gantry_plate
6
ByLayer
62
256
370
-1
100
AcDbLine
10
0.95
20
-2.1875
11
0.95
21
-1.7875
0
ARC
5
1E8
100
AcDbEntity
8
lower_gantry_plate
6
ByLayer
62
256
370
-1
100
AcDbCircle
10
1.0125
20
-2.1875
40
0.0625
100
AcDbArc
50
180
51
270
0
LINE
5
1E9
100
AcDbEntity
8
lower_gantry_plate
6
ByLayer
62
256
370
-1
100
AcDbLine
10
1.0125
20
-2.25
11
1.9875
21
-2.25
0
LINE
5
1EA
100
AcDbEntity
8
lower_gantry_plate
6
ByLayer
62
256
370
-1
100
AcDbLine
10
2.05
20
-1.7875
11
2.05
21
-2.1875
0
ARC
5
1EB
100
AcDbEntity
8
lower_gantry_plate
6
ByLayer
62
256
370
-1
100
AcDbCircle
10
1.9875
20
-2.1875
40
0.0625
100
AcDbArc
50
270
51
0
0
LINE
5
1EC
100
AcDbEntity
8
lower_gantry_plate
6
ByLayer
62
256
370
-1
100
AcDbLine
10
2.45
20
-2.1875
11
2.45
21
-1.7875
0
ARC
5
1ED
100
AcDbEntity
8
lower_gantry_plate
6
ByLayer
62
256
370
-1
100
AcDbCircle
10
2.5125
20
-2.1875
40
0.0625
100
AcDbArc
50
180
51
270
0
LINE
5
1EE
100
AcDbEntity
8
lower_gantry_plate
6
ByLayer
62
256
370
-1
100
AcDbLine
10
0
20
0
11
1.37772764904e-16
21
2.25
0
LINE
5
1EF
100
AcDbEntity
8
lower_gantry_plate
6
ByLayer
62
256
370
-1
100
AcDbLine
10
3
20
0
11
3
21
2.25
0
LINE
5
1F0
100
AcDbEntity
8
lower_gantry_plate
6
ByLayer
62
256
370
-1
100
AcDbLine
10
0
20
0
11
-1.37772764904e-16
21
-2.25
0
LINE
5
1F1
100
AcDbEntity
8
lower_gantry_plate
6
ByLayer
62
256
370
-1
100
AcDbLine
10
3
20
0
11
3
21
-2.25
0
LINE
5
1F2
100
AcDbEntity
8
lower_gantry_plate
6
ByLayer
62
256
370
-1
100
AcDbLine
10
0.4875
20
2.25
11
1.37772764904e-16
21
2.25
0
LINE
5
1F3
100
AcDbEntity
8
lower_gantry_plate
6
ByLayer
62
256
370
-1
100
AcDbLine
10
3
20
2.25
11
2.5125
21
2.25
0
LINE
5
1F4
100
AcDbEntity
8
lower_gantry_plate
6
ByLayer
62
256
370
-1
100
AcDbLine
10
2.5125
20
-2.25
11
3
21
-2.25
0
LINE
5
1F5
100
AcDbEntity
8
lower_gantry_plate
6
ByLayer
62
256
370
-1
100
AcDbLine
10
-1.37772764904e-16
20
-2.25
11
0.4875
21
-2.25
0
DIMENSION
5
1F6
100
AcDbEntity
8
dimension
6
ByLayer
62
256
370
-1
100
AcDbDimension
10
5.26666069708
20
-0.75
30
0
11
5.11666069708
21
-9.26526004753e-17
31
0
70
32
71
5
72
0
3
Standard
53
0
210
0
220
0
230
1
100
AcDbAlignedDimension
13
4.14
23
0.75
33
0
14
4.14
24
-0.75
34
0
50
90
100
AcDbRotatedDimension
0
LINE
5
1F7
100
AcDbEntity
8
bracket
6
ByLayer
62
256
370
-1
100
AcDbLine
10
3
20
0
11
3
21
0.7
0
LINE
5
1F8
100
AcDbEntity
8
bracket
6
ByLayer
62
256
370
-1
100
AcDbLine
10
3
20
0
11
3
21
-0.7
0
LINE
5
1F9
100
AcDbEntity
8
bracket
6
ByLayer
62
256
370
-1
100
AcDbLine
10
3
20
0.7
11
6.15
21
0.7
0
LINE
5
1FA
100
AcDbEntity
8
bracket
6
ByLayer
62
256
370
-1
100
AcDbLine
10
3
20
-0.7
11
6.15
21
-0.7
0
LINE
5
1FB
100
AcDbEntity
8
bracket
6
ByLayer
62
256
370
-1
100
AcDbLine
10
6.15
20
0.7
11
6.15
21
-0.7
0
LINE
5
1FC
100
AcDbEntity
8
scratch
6
ByLayer
62
256
370
-1
100
AcDbLine
10
6.15
20
1
11
5.65
21
1
0
LINE
5
1FD
100
AcDbEntity
8
scratch
6
ByLayer
62
256
370
-1
100
AcDbLine
10
6.15
20
-1
11
5.65
21
-1
0
LINE
5
1FE
100
AcDbEntity
8
scratch
6
ByLayer
62
256
370
-1
100
AcDbLine
10
3
20
1
11
3.5
21
1
0
LINE
5
1FF
100
AcDbEntity
8
scratch
6
ByLayer
62
256
370
-1
100
AcDbLine
10
3
20
-1
11
3.5
21
-1
0
LINE
5
200
100
AcDbEntity
8
scratch
6
ByLayer
62
256
370
-1
100
AcDbLine
10
1.5
20
1
11
2.25
21
1
0
LINE
5
201
100
AcDbEntity
8
scratch
6
ByLayer
62
256
370
-1
100
AcDbLine
10
1.5
20
-1
11
2.25
21
-1
0
LINE
5
202
100
AcDbEntity
8
scratch
6
ByLayer
62
256
370
-1
100
AcDbLine
10
1.5
20
-1
11
0.75
21
-1
0
LINE
5
203
100
AcDbEntity
8
scratch
6
ByLayer
62
256
370
-1
100
AcDbLine
10
1.5
20
1
11
0.75
21
1
0
CIRCLE
5
204
100
AcDbEntity
8
10-32_through_hole
6
ByLayer
62
256
370
-1
100
AcDbCircle
10
0.75
20
1
40
0.098
0
CIRCLE
5
205
100
AcDbEntity
8
10-32_through_hole
6
ByLayer
62
256
370
-1
100
AcDbCircle
10
2.25
20
1
40
0.098
0
CIRCLE
5
206
100
AcDbEntity
8
10-32_through_hole
6
ByLayer
62
256
370
-1
100
AcDbCircle
10
2.25
20
-1
40
0.098
0
CIRCLE
5
207
100
AcDbEntity
8
10-32_through_hole
6
ByLayer
62
256
370
-1
100
AcDbCircle
10
0.75
20
-1
40
0.098
0
CIRCLE
5
208
100
AcDbEntity
8
10-32_through_hole
6
ByLayer
62
256
370
-1
100
AcDbCircle
10
3.5
20
-1
40
0.098
0
CIRCLE
5
209
100
AcDbEntity
8
10-32_through_hole
6
ByLayer
62
256
370
-1
100
AcDbCircle
10
3.5
20
1
40
0.098
0
CIRCLE
5
20A
100
AcDbEntity
8
10-32_through_hole
6
ByLayer
62
256
370
-1
100
AcDbCircle
10
5.65
20
1
40
0.098
0
CIRCLE
5
20B
100
AcDbEntity
8
10-32_through_hole
6
ByLayer
62
256
370
-1
100
AcDbCircle
10
5.65
20
-1
40
0.098
0
LINE
5
20C
100
AcDbEntity
8
scratch
6
ByLayer
62
256
370
-1
100
AcDbLine
10
1.5
20
-5.55111512313e-17
11
0.75
21
-5.55111512313e-17
0
LINE
5
20D
100
AcDbEntity
8
scratch
6
ByLayer
62
256
370
-1
100
AcDbLine
10
1.5
20
5.55111512313e-17
11
2.25
21
5.55111512313e-17
0
CIRCLE
5
20E
100
AcDbEntity
8
5/16_through_hole
6
ByLayer
62
256
370
-1
100
AcDbCircle
10
2.25
20
5.55111512313e-17
40
0.1615
0
CIRCLE
5
20F
100
AcDbEntity
8
5/16_through_hole
6
ByLayer
62
256
370
-1
100
AcDbCircle
10
0.75
20
-5.55111512313e-17
40
0.1615
0
LINE
5
210
100
AcDbEntity
8
boundary
6
ByLayer
62
256
370
-1
100
AcDbLine
10
0.0625
20
1.25
11
3
21
1.25
0
ARC
5
211
100
AcDbEntity
8
boundary
6
ByLayer
62
256
370
-1
100
AcDbCircle
10
0.0625
20
1.1875
40
0.0625
100
AcDbArc
50
90
51
180
0
LINE
5
212
100
AcDbEntity
8
boundary
6
ByLayer
62
256
370
-1
100
AcDbLine
10
7.65404249467e-17
20
-1.1875
11
7.65404249467e-17
21
1.1875
0
LINE
5
213
100
AcDbEntity
8
boundary
6
ByLayer
62
256
370
-1
100
AcDbLine
10
3
20
-1.25
11
0.0625
21
-1.25
0
ARC
5
214
100
AcDbEntity
8
boundary
6
ByLayer
62
256
370
-1
100
AcDbCircle
10
0.0625
20
-1.1875
40
0.0625
100
AcDbArc
50
180
51
270
0
LINE
5
215
100
AcDbEntity
8
boundary
6
ByLayer
62
256
370
-1
100
AcDbLine
10
3
20
1.25
11
6.0875
21
1.25
0
ARC
5
216
100
AcDbEntity
8
boundary
6
ByLayer
62
256
370
-1
100
AcDbCircle
10
6.0875
20
1.1875
40
0.0625
100
AcDbArc
50
0
51
90
0
LINE
5
217
100
AcDbEntity
8
boundary
6
ByLayer
62
256
370
-1
100
AcDbLine
10
6.15
20
1.1875
11
6.15
21
-1.1875
0
LINE
5
218
100
AcDbEntity
8
boundary
6
ByLayer
62
256
370
-1
100
AcDbLine
10
3
20
-1.25
11
6.0875
21
-1.25
0
ARC
5
219
100
AcDbEntity
8
boundary
6
ByLayer
62
256
370
-1
100
AcDbCircle
10
6.0875
20
-1.1875
40
0.0625
100
AcDbArc
50
270
51
0
0
LINE
5
21A
100
AcDbEntity
8
scratch
6
ByLayer
62
256
370
-1
100
AcDbLine
10
4.575
20
0.7
11
4.575
21
-0.7
0
LINE
5
21B
100
AcDbEntity
8
scratch
6
ByLayer
62
256
370
-1
100
AcDbLine
10
4.575
20
0
11
3.825
21
0
0
LINE
5
21C
100
AcDbEntity
8
scratch
6
ByLayer
62
256
370
-1
100
AcDbLine
10
4.575
20
0
11
5.325
21
0
0
CIRCLE
5
21D
100
AcDbEntity
8
5/16-18_tap_hole
6
ByLayer
62
256
370
-1
100
AcDbCircle
10
3.825
20
0
40
0.1285
0
CIRCLE
5
21E
100
AcDbEntity
8
5/16-18_tap_hole
6
ByLayer
62
256
370
-1
100
AcDbCircle
10
5.325
20
0
40
0.1285
0
ENDBLK
5
5D
330
5B
100
AcDbEntity
8
0
100
AcDbBlockEnd
0
ENDSEC
0
SECTION
2
ENTITIES
0
INSERT
5
21F
100
AcDbEntity
8
0
6
ByLayer
62
256
370
-1
100
AcDbBlockReference
2
carriage_plate-0
10
0
20
0
30
0
41
1
42
1
43
0
50
0
70
1
71
1
44
0
45
0
0
INSERT
5
220
100
AcDbEntity
8
0
6
ByLayer
62
256
370
-1
100
AcDbBlockReference
2
lower_gantry_plate-0
10
0
20
0
30
0
41
1
42
1
43
0
50
0
70
1
71
1
44
0
45
0
0
INSERT
5
221
100
AcDbEntity
8
0
6
ByLayer
62
256
370
-1
100
AcDbBlockReference
2
upper_gantry_plate-0
10
0
20
0
30
0
41
1
42
1
43
0
50
0
70
1
71
1
44
0
45
0
0
ENDSEC
0
SECTION
2
OBJECTS
0
DICTIONARY
5
C
330
0
100
AcDbDictionary
281
1
3
ACAD_GROUP
350
D
0
DICTIONARY
5
D
330
C
100
AcDbDictionary
281
1
0
ENDSEC
0
EOF
