999
dxfrw 0.5.10
0
SECTION
2
HEADER
9
$ACADVER
1
AC1021
9
$HANDSEED
5
20000
9
$DWGCODEPAGE
3
ANSI_1252
9
$INSBASE
10
0
20
0
30
0
9
$EXTMIN
10
-4.8199146506
20
-3.27575707983
30
0
9
$EXTMAX
10
5.14595244782
20
1.56755925564
30
0
9
$LIMMIN
10
0
20
0
9
$LIMMAX
10
420
20
297
9
$ORTHOMODE
70
0
9
$LTSCALE
40
1
9
$TEXTSTYLE
7
STANDARD
9
$CLAYER
8
dimension
9
$DIMASZ
40
0.1
9
$DIMLFAC
40
1
9
$DIMSCALE
40
1
9
$DIMEXO
40
0.025
9
$DIMEXE
40
0.05
9
$DIMTXT
40
0.1
9
$DIMTSZ
40
0
9
$DIMAUNIT
70
0
9
$DIMADEC
70
2
9
$DIMLUNIT
70
2
9
$DIMSTYLE
2
STANDARD
9
$DIMGAP
40
0.025
9
$DIMTIH
70
0
9
$LUNITS
70
2
9
$LUPREC
70
4
9
$AUNITS
70
0
9
$AUPREC
70
2
9
$SPLINESEGS
70
8
9
$GRIDMODE
70
1
9
$SNAPSTYLE
70
0
9
$GRIDUNIT
10
0
20
0
9
$PINSBASE
10
0
20
0
30
0
9
$PLIMMIN
10
0
20
0
9
$PLIMMAX
10
7.8202028e-07
20
1.10599728e-06
9
$INSUNITS
70
1
9
$PSVPSCALE
40
1
0
ENDSEC
0
SECTION
2
CLASSES
0
ENDSEC
0
SECTION
2
TABLES
0
TABLE
2
VPORT
5
8
330
0
100
AcDbSymbolTable
70
1
0
VPORT
5
31
330
2
100
AcDbSymbolTableRecord
100
AcDbViewportTableRecord
2
*ACTIVE
70
0
10
0
20
0
11
1
21
1
12
4.06269546463
22
1.96262825558
13
0
23
0
14
10
24
10
15
10
25
10
16
0
26
0
36
1
17
0
27
0
37
0
40
8.63116627804
41
1.77834394904
42
50
43
0
44
0
50
0
51
0
71
0
72
100
73
1
74
3
75
0
76
1
77
0
78
0
281
0
65
1
110
0
120
0
130
0
111
1
121
0
131
0
112
0
122
1
132
0
79
0
146
0
348
10020
60
7
61
5
292
1
282
1
141
0
142
0
63
250
421
3358443
0
ENDTAB
0
TABLE
2
LTYPE
5
5
330
0
100
AcDbSymbolTable
70
4
0
LTYPE
5
14
330
5
100
AcDbSymbolTableRecord
100
AcDbLinetypeTableRecord
2
ByBlock
70
0
3

72
65
73
0
40
0
0
LTYPE
5
15
330
5
100
AcDbSymbolTableRecord
100
AcDbLinetypeTableRecord
2
ByLayer
70
0
3

72
65
73
0
40
0
0
LTYPE
5
16
330
5
100
AcDbSymbolTableRecord
100
AcDbLinetypeTableRecord
2
Continuous
70
0
3
Solid line
72
65
73
0
40
0
0
LTYPE
5
32
330
5
100
AcDbSymbolTableRecord
100
AcDbLinetypeTableRecord
2
DOT
70
0
3
Dot . . . . . . . . . . . . . . . . . . . . . .
72
65
73
2
40
6.35
49
0
74
0
49
-6.35
74
0
0
LTYPE
5
33
330
5
100
AcDbSymbolTableRecord
100
AcDbLinetypeTableRecord
2
DOT2
70
0
3
Dot (.5x) .....................................
72
65
73
2
40
3.175
49
0
74
0
49
-3.175
74
0
0
LTYPE
5
34
330
5
100
AcDbSymbolTableRecord
100
AcDbLinetypeTableRecord
2
DOTX2
70
0
3
Dot (2x) .  .  .  .  .  .  .  .  .  .  .  .  .
72
65
73
2
40
12.7
49
0
74
0
49
-12.7
74
0
0
LTYPE
5
35
330
5
100
AcDbSymbolTableRecord
100
AcDbLinetypeTableRecord
2
DASHED
70
0
3
Dot . . . . . . . . . . . . . . . . . . . . . .
72
65
73
2
40
19.05
49
12.7
74
0
49
-6.35
74
0
0
LTYPE
5
36
330
5
100
AcDbSymbolTableRecord
100
AcDbLinetypeTableRecord
2
DASHED2
70
0
3
Dashed (.5x) _ _ _ _ _ _ _ _ _ _ _ _ _ _ _ _ _
72
65
73
2
40
9.525
49
6.35
74
0
49
-3.175
74
0
0
LTYPE
5
37
330
5
100
AcDbSymbolTableRecord
100
AcDbLinetypeTableRecord
2
DASHEDX2
70
0
3
Dashed (2x) ____  ____  ____  ____  ____  ___
72
65
73
2
40
38.1
49
25.4
74
0
49
-12.7
74
0
0
LTYPE
5
38
330
5
100
AcDbSymbolTableRecord
100
AcDbLinetypeTableRecord
2
DASHDOT
70
0
3
Dash dot __ . __ . __ . __ . __ . __ . __ . __
72
65
73
4
40
25.4
49
12.7
74
0
49
-6.35
74
0
49
0
74
0
49
-6.35
74
0
0
LTYPE
5
39
330
5
100
AcDbSymbolTableRecord
100
AcDbLinetypeTableRecord
2
DASHDOT2
70
0
3
Dash dot (.5x) _._._._._._._._._._._._._._._.
72
65
73
4
40
12.7
49
6.35
74
0
49
-3.175
74
0
49
0
74
0
49
-3.175
74
0
0
LTYPE
5
3A
330
5
100
AcDbSymbolTableRecord
100
AcDbLinetypeTableRecord
2
DASHDOTX2
70
0
3
Dash dot (2x) ____  .  ____  .  ____  .  ___
72
65
73
4
40
50.8
49
25.4
74
0
49
-12.7
74
0
49
0
74
0
49
-12.7
74
0
0
LTYPE
5
3B
330
5
100
AcDbSymbolTableRecord
100
AcDbLinetypeTableRecord
2
DIVIDE
70
0
3
Divide ____ . . ____ . . ____ . . ____ . . ____
72
65
73
6
40
31.75
49
12.7
74
0
49
-6.35
74
0
49
0
74
0
49
-6.35
74
0
49
0
74
0
49
-6.35
74
0
0
LTYPE
5
3C
330
5
100
AcDbSymbolTableRecord
100
AcDbLinetypeTableRecord
2
DIVIDE2
70
0
3
Divide (.5x) __..__..__..__..__..__..__..__.._
72
65
73
6
40
15.875
49
6.35
74
0
49
-3.175
74
0
49
0
74
0
49
-3.175
74
0
49
0
74
0
49
-3.175
74
0
0
LTYPE
5
3D
330
5
100
AcDbSymbolTableRecord
100
AcDbLinetypeTableRecord
2
DIVIDEX2
70
0
3
Divide (2x) ________  .  .  ________  .  .  _
72
65
73
6
40
63.5
49
25.4
74
0
49
-12.7
74
0
49
0
74
0
49
-12.7
74
0
49
0
74
0
49
-12.7
74
0
0
LTYPE
5
3E
330
5
100
AcDbSymbolTableRecord
100
AcDbLinetypeTableRecord
2
BORDER
70
0
3
Border __ __ . __ __ . __ __ . __ __ . __ __ .
72
65
73
6
40
44.45
49
12.7
74
0
49
-6.35
74
0
49
12.7
74
0
49
-6.35
74
0
49
0
74
0
49
-6.35
74
0
0
LTYPE
5
3F
330
5
100
AcDbSymbolTableRecord
100
AcDbLinetypeTableRecord
2
BORDER2
70
0
3
Border (.5x) __.__.__.__.__.__.__.__.__.__.__.
72
65
73
6
40
22.225
49
6.35
74
0
49
-3.175
74
0
49
6.35
74
0
49
-3.175
74
0
49
0
74
0
49
-3.175
74
0
0
LTYPE
5
40
330
5
100
AcDbSymbolTableRecord
100
AcDbLinetypeTableRecord
2
BORDERX2
70
0
3
Border (2x) ____  ____  .  ____  ____  .  ___
72
65
73
6
40
88.9
49
25.4
74
0
49
-12.7
74
0
49
25.4
74
0
49
-12.7
74
0
49
0
74
0
49
-12.7
74
0
0
LTYPE
5
41
330
5
100
AcDbSymbolTableRecord
100
AcDbLinetypeTableRecord
2
CENTER
70
0
3
Center ____ _ ____ _ ____ _ ____ _ ____ _ ____
72
65
73
4
40
50.8
49
31.75
74
0
49
-6.35
74
0
49
6.35
74
0
49
-6.35
74
0
0
LTYPE
5
42
330
5
100
AcDbSymbolTableRecord
100
AcDbLinetypeTableRecord
2
CENTER2
70
0
3
Center (.5x) ___ _ ___ _ ___ _ ___ _ ___ _ ___
72
65
73
4
40
28.575
49
19.05
74
0
49
-3.175
74
0
49
3.175
74
0
49
-3.175
74
0
0
LTYPE
5
43
330
5
100
AcDbSymbolTableRecord
100
AcDbLinetypeTableRecord
2
CENTERX2
70
0
3
Center (2x) ________  __  ________  __  _____
72
65
73
4
40
101.6
49
63.5
74
0
49
-12.7
74
0
49
12.7
74
0
49
-12.7
74
0
0
ENDTAB
0
TABLE
2
LAYER
5
2
330
0
100
AcDbSymbolTable
70
1
0
LAYER
5
10
330
2
100
AcDbSymbolTableRecord
100
AcDbLayerTableRecord
2
0
70
0
62
7
6
CONTINUOUS
370
0
390
F
0
LAYER
5
44
330
2
100
AcDbSymbolTableRecord
100
AcDbLayerTableRecord
2
connector_hole
70
0
62
4
6
CONTINUOUS
370
0
390
F
0
LAYER
5
45
330
2
100
AcDbSymbolTableRecord
100
AcDbLayerTableRecord
2
scratch
70
0
62
7
6
CONTINUOUS
370
0
390
F
0
LAYER
5
46
330
2
100
AcDbSymbolTableRecord
100
AcDbLayerTableRecord
2
4-40_thread_insert
70
0
62
2
6
CONTINUOUS
370
0
390
F
0
LAYER
5
47
330
2
100
AcDbSymbolTableRecord
100
AcDbLayerTableRecord
2
connector_footprint
70
1
62
8
6
CONTINUOUS
370
0
390
F
0
LAYER
5
48
330
2
100
AcDbSymbolTableRecord
100
AcDbLayerTableRecord
2
boundary
70
0
62
5
6
CONTINUOUS
370
0
390
F
0
LAYER
5
49
330
2
100
AcDbSymbolTableRecord
100
AcDbLayerTableRecord
2
dimension
70
0
62
7
6
CONTINUOUS
370
0
390
F
0
LAYER
5
4A
330
2
100
AcDbSymbolTableRecord
100
AcDbLayerTableRecord
2
notes
70
0
62
7
6
CONTINUOUS
370
0
390
F
0
LAYER
5
4B
330
2
100
AcDbSymbolTableRecord
100
AcDbLayerTableRecord
2
6-32_through_hole
70
0
62
6
6
CONTINUOUS
370
0
390
F
0
ENDTAB
0
TABLE
2
STYLE
5
3
330
0
100
AcDbSymbolTable
70
3
0
STYLE
5
4C
330
2
100
AcDbSymbolTableRecord
100
AcDbTextStyleTableRecord
2
iso
70
0
40
0
41
1
50
0
71
0
42
1
3
iso
4

0
STYLE
5
4D
330
2
100
AcDbSymbolTableRecord
100
AcDbTextStyleTableRecord
2
Standard
70
0
40
0
41
1
50
0
71
0
42
1
3
txt
4

0
ENDTAB
0
TABLE
2
VIEW
5
6
330
0
100
AcDbSymbolTable
70
0
0
ENDTAB
0
TABLE
2
UCS
5
7
330
0
100
AcDbSymbolTable
70
0
0
ENDTAB
0
TABLE
2
APPID
5
9
330
0
100
AcDbSymbolTable
70
1
0
APPID
5
12
330
9
100
AcDbSymbolTableRecord
100
AcDbRegAppTableRecord
2
ACAD
70
0
0
ENDTAB
0
TABLE
2
DIMSTYLE
5
A
330
0
100
AcDbSymbolTable
70
1
100
AcDbDimStyleTable
71
1
0
DIMSTYLE
105
4E
330
A
100
AcDbSymbolTableRecord
100
AcDbDimStyleTableRecord
2
Standard
70
0
40
1
41
0.1
42
0.025
43
0.38
44
0.05
45
0
46
0
47
0
48
0
140
0.1
141
0.09
142
0
143
25.4
144
1
145
0
146
1
147
0.025
148
0
71
0
72
0
73
0
74
1
75
0
76
0
77
0
78
0
79
0
170
0
171
2
172
0
173
0
174
0
175
0
176
0
177
0
178
0
179
0
271
4
272
4
273
2
274
2
275
0
276
0
277
2
278
46
279
0
280
0
281
0
282
0
283
1
284
0
285
0
286
0
288
0
289
3
340
Standard
341

371
-2
372
-2
0
ENDTAB
0
TABLE
2
BLOCK_RECORD
5
1
330
0
100
AcDbSymbolTable
70
2
0
BLOCK_RECORD
5
1F
330
1
100
AcDbSymbolTableRecord
100
AcDbBlockTableRecord
2
*Model_Space
70
0
280
1
281
0
0
BLOCK_RECORD
5
1E
330
1
100
AcDbSymbolTableRecord
100
AcDbBlockTableRecord
2
*Paper_Space
70
0
280
1
281
0
0
BLOCK_RECORD
5
4F
330
1
100
AcDbSymbolTableRecord
100
AcDbBlockTableRecord
2
*D6
70
0
280
1
281
0
0
BLOCK_RECORD
5
52
330
1
100
AcDbSymbolTableRecord
100
AcDbBlockTableRecord
2
*D3
70
0
280
1
281
0
0
BLOCK_RECORD
5
55
330
1
100
AcDbSymbolTableRecord
100
AcDbBlockTableRecord
2
*D7
70
0
280
1
281
0
0
BLOCK_RECORD
5
58
330
1
100
AcDbSymbolTableRecord
100
AcDbBlockTableRecord
2
*D10
70
0
280
1
281
0
0
BLOCK_RECORD
5
5B
330
1
100
AcDbSymbolTableRecord
100
AcDbBlockTableRecord
2
*D1
70
0
280
1
281
0
0
BLOCK_RECORD
5
5E
330
1
100
AcDbSymbolTableRecord
100
AcDbBlockTableRecord
2
*D4
70
0
280
1
281
0
0
BLOCK_RECORD
5
61
330
1
100
AcDbSymbolTableRecord
100
AcDbBlockTableRecord
2
*D8
70
0
280
1
281
0
0
BLOCK_RECORD
5
64
330
1
100
AcDbSymbolTableRecord
100
AcDbBlockTableRecord
2
*D2
70
0
280
1
281
0
0
BLOCK_RECORD
5
67
330
1
100
AcDbSymbolTableRecord
100
AcDbBlockTableRecord
2
*D9
70
0
280
1
281
0
0
BLOCK_RECORD
5
6A
330
1
100
AcDbSymbolTableRecord
100
AcDbBlockTableRecord
2
*D5
70
0
280
1
281
0
0
ENDTAB
0
ENDSEC
0
SECTION
2
BLOCKS
0
BLOCK
5
20
330
1F
100
AcDbEntity
8
0
100
AcDbBlockBegin
2
*Model_Space
70
0
10
0
20
0
30
0
3
*Model_Space
1

0
ENDBLK
5
21
330
1F
100
AcDbEntity
8
0
100
AcDbBlockEnd
0
BLOCK
5
1C
330
1B
100
AcDbEntity
8
0
100
AcDbBlockBegin
2
*Paper_Space
70
0
10
0
20
0
30
0
3
*Paper_Space
1

0
ENDBLK
5
1D
330
1F
100
AcDbEntity
8
0
100
AcDbBlockEnd
0
BLOCK
5
50
330
4F
100
AcDbEntity
8
0
100
AcDbBlockBegin
2
*D6
70
1
10
0
20
0
3
*D6
1

0
LINE
5
6D
100
AcDbEntity
8
dimension
6
CONTINUOUS
62
7
370
0
100
AcDbLine
10
2.315
20
0.878201927337
11
3.245
21
0.878201927337
0
SOLID
5
6E
100
AcDbEntity
8
dimension
6
CONTINUOUS
62
7
370
0
100
AcDbTrace
10
2.315
20
0.878201927337
30
0
11
2.415
21
0.894853313648
31
0
12
2.415
22
0.861550541026
32
0
13
2.415
23
0.861550541026
33
0
0
SOLID
5
6F
100
AcDbEntity
8
dimension
6
CONTINUOUS
62
7
370
0
100
AcDbTrace
10
3.245
20
0.878201927337
30
0
11
3.145
21
0.861550541026
31
0
12
3.145
22
0.894853313648
32
0
13
3.145
23
0.894853313648
33
0
0
MTEXT
5
70
100
AcDbEntity
8
dimension
6
CONTINUOUS
62
7
370
0
100
AcDbMText
10
2.78
20
0.953201927337
30
0
40
0.1
41
0.233333333333
71
5
72
1
1
0.93
7
standard
210
0
220
0
230
1
50
0
73
2
44
1
0
LINE
5
71
100
AcDbEntity
8
dimension
6
CONTINUOUS
62
7
370
0
100
AcDbLine
10
2.315
20
-0.35
11
2.315
21
0.928201927337
0
LINE
5
72
100
AcDbEntity
8
dimension
6
CONTINUOUS
62
7
370
0
100
AcDbLine
10
3.245
20
0.4
11
3.245
21
0.928201927337
0
ENDBLK
5
51
330
4F
100
AcDbEntity
8
0
100
AcDbBlockEnd
0
BLOCK
5
53
330
52
100
AcDbEntity
8
0
100
AcDbBlockBegin
2
*D3
70
1
10
0
20
0
3
*D3
1

0
LINE
5
73
100
AcDbEntity
8
dimension
6
CONTINUOUS
62
7
370
0
100
AcDbLine
10
-4
20
-1.56680406958
11
4
21
-1.56680406958
0
SOLID
5
74
100
AcDbEntity
8
dimension
6
CONTINUOUS
62
7
370
0
100
AcDbTrace
10
-4
20
-1.56680406958
30
0
11
-3.9
21
-1.55015268327
31
0
12
-3.9
22
-1.58345545589
32
0
13
-3.9
23
-1.58345545589
33
0
0
SOLID
5
75
100
AcDbEntity
8
dimension
6
CONTINUOUS
62
7
370
0
100
AcDbTrace
10
4
20
-1.56680406958
30
0
11
3.9
21
-1.58345545589
31
0
12
3.9
22
-1.55015268327
32
0
13
3.9
23
-1.55015268327
33
0
0
MTEXT
5
76
100
AcDbEntity
8
dimension
6
CONTINUOUS
62
7
370
0
100
AcDbMText
10
4.5924254968e-18
20
-1.49180406958
30
0
40
0.1
41
0.0444444444444
71
5
72
1
1
8
7
standard
210
0
220
0
230
1
50
0
73
2
44
1
0
LINE
5
77
100
AcDbEntity
8
dimension
6
CONTINUOUS
62
7
370
0
100
AcDbLine
10
-4
20
-0.75
11
-4
21
-1.61680406958
0
LINE
5
78
100
AcDbEntity
8
dimension
6
CONTINUOUS
62
7
370
0
100
AcDbLine
10
4
20
-0.75
11
4
21
-1.61680406958
0
ENDBLK
5
54
330
52
100
AcDbEntity
8
0
100
AcDbBlockEnd
0
BLOCK
5
56
330
55
100
AcDbEntity
8
0
100
AcDbBlockBegin
2
*D7
70
1
10
0
20
0
3
*D7
1

0
LINE
5
79
100
AcDbEntity
8
dimension
6
CONTINUOUS
62
7
370
0
100
AcDbLine
10
4.23901314926
20
-0.375
11
4.23901314926
21
0.375
0
SOLID
5
7A
100
AcDbEntity
8
dimension
6
CONTINUOUS
62
7
370
0
100
AcDbTrace
10
4.23901314926
20
-0.375
30
0
11
4.22236176295
21
-0.275
31
0
12
4.25566453557
22
-0.275
32
0
13
4.25566453557
23
-0.275
33
0
0
SOLID
5
7B
100
AcDbEntity
8
dimension
6
CONTINUOUS
62
7
370
0
100
AcDbTrace
10
4.23901314926
20
0.375
30
0
11
4.25566453557
21
0.275
31
0
12
4.22236176295
22
0.275
32
0
13
4.22236176295
23
0.275
33
0
0
MTEXT
5
7C
100
AcDbEntity
8
dimension
6
CONTINUOUS
62
7
370
0
100
AcDbMText
10
4.16401314926
20
-7.40818758533e-17
30
0
40
0.1
41
0.233333333333
71
5
72
1
1
0.75
7
standard
210
0
220
0
230
1
50
90
73
2
44
1
0
LINE
5
7D
100
AcDbEntity
8
dimension
6
CONTINUOUS
62
7
370
0
100
AcDbLine
10
2.34
20
-0.375
11
4.28901314926
21
-0.375
0
LINE
5
7E
100
AcDbEntity
8
dimension
6
CONTINUOUS
62
7
370
0
100
AcDbLine
10
3.27
20
0.375
11
4.28901314926
21
0.375
0
ENDBLK
5
57
330
55
100
AcDbEntity
8
0
100
AcDbBlockEnd
0
BLOCK
5
59
330
58
100
AcDbEntity
8
0
100
AcDbBlockBegin
2
*D10
70
1
10
0
20
0
3
*D10
1

0
LINE
5
7F
100
AcDbEntity
8
dimension
6
CONTINUOUS
62
7
370
0
100
AcDbLine
10
1.39
20
1.43552238122
11
3.775
21
1.43552238122
0
SOLID
5
80
100
AcDbEntity
8
dimension
6
CONTINUOUS
62
7
370
0
100
AcDbTrace
10
1.39
20
1.43552238122
30
0
11
1.49
21
1.45217376754
31
0
12
1.49
22
1.41887099491
32
0
13
1.49
23
1.41887099491
33
0
0
SOLID
5
81
100
AcDbEntity
8
dimension
6
CONTINUOUS
62
7
370
0
100
AcDbTrace
10
3.775
20
1.43552238122
30
0
11
3.675
21
1.41887099491
31
0
12
3.675
22
1.45217376754
32
0
13
3.675
23
1.45217376754
33
0
0
MTEXT
5
82
100
AcDbEntity
8
dimension
6
CONTINUOUS
62
7
370
0
100
AcDbMText
10
2.5825
20
1.51052238122
30
0
40
0.1
41
0.311111111111
71
5
72
1
1
2.385
7
standard
210
0
220
0
230
1
50
0
73
2
44
1
0
LINE
5
83
100
AcDbEntity
8
dimension
6
CONTINUOUS
62
7
370
0
100
AcDbLine
10
1.39
20
0.525
11
1.39
21
1.48552238122
0
LINE
5
84
100
AcDbEntity
8
dimension
6
CONTINUOUS
62
7
370
0
100
AcDbLine
10
3.775
20
0.525
11
3.775
21
1.48552238122
0
ENDBLK
5
5A
330
58
100
AcDbEntity
8
0
100
AcDbBlockEnd
0
BLOCK
5
5C
330
5B
100
AcDbEntity
8
0
100
AcDbBlockBegin
2
*D1
70
1
10
0
20
0
3
*D1
1

0
LINE
5
85
100
AcDbEntity
8
dimension
6
CONTINUOUS
62
7
370
0
100
AcDbLine
10
-2.78
20
-1.03354093011
11
-1.23259516441e-32
21
-1.03354093011
0
SOLID
5
86
100
AcDbEntity
8
dimension
6
CONTINUOUS
62
7
370
0
100
AcDbTrace
10
-2.78
20
-1.03354093011
30
0
11
-2.68
21
-1.0168895438
31
0
12
-2.68
22
-1.05019231642
32
0
13
-2.68
23
-1.05019231642
33
0
0
SOLID
5
87
100
AcDbEntity
8
dimension
6
CONTINUOUS
62
7
370
0
100
AcDbTrace
10
-1.23259516441e-32
20
-1.03354093011
30
0
11
-0.1
21
-1.05019231642
31
0
12
-0.1
22
-1.0168895438
32
0
13
-0.1
23
-1.0168895438
33
0
0
MTEXT
5
88
100
AcDbEntity
8
dimension
6
CONTINUOUS
62
7
370
0
100
AcDbMText
10
-1.39
20
-0.958540930109
30
0
40
0.1
41
0.233333333333
71
5
72
1
1
2.78
7
standard
210
0
220
0
230
1
50
0
73
2
44
1
0
LINE
5
89
100
AcDbEntity
8
dimension
6
CONTINUOUS
62
7
370
0
100
AcDbLine
10
-2.78
20
-0.025
11
-2.78
21
-1.08354093011
0
LINE
5
8A
100
AcDbEntity
8
dimension
6
CONTINUOUS
62
7
370
0
100
AcDbLine
10
-4.5924254968e-18
20
-0.025
11
-9.18485099361e-18
21
-1.08354093011
0
ENDBLK
5
5D
330
5B
100
AcDbEntity
8
0
100
AcDbBlockEnd
0
BLOCK
5
5F
330
5E
100
AcDbEntity
8
0
100
AcDbBlockBegin
2
*D4
70
1
10
0
20
0
3
*D4
1

0
LINE
5
8B
100
AcDbEntity
8
dimension
6
CONTINUOUS
62
7
370
0
100
AcDbLine
10
-4.6949146506
20
0.725
11
-4.6949146506
21
-0.725
0
SOLID
5
8C
100
AcDbEntity
8
dimension
6
CONTINUOUS
62
7
370
0
100
AcDbTrace
10
-4.6949146506
20
0.725
30
0
11
-4.67826326429
21
0.625
31
0
12
-4.71156603691
22
0.625
32
0
13
-4.71156603691
23
0.625
33
0
0
SOLID
5
8D
100
AcDbEntity
8
dimension
6
CONTINUOUS
62
7
370
0
100
AcDbTrace
10
-4.6949146506
20
-0.725
30
0
11
-4.71156603691
21
-0.625
31
0
12
-4.67826326429
22
-0.625
32
0
13
-4.67826326429
23
-0.625
33
0
0
MTEXT
5
8E
100
AcDbEntity
8
dimension
6
CONTINUOUS
62
7
370
0
100
AcDbMText
10
-4.7699146506
20
-1.573486027e-16
30
0
40
0.1
41
0.222222222222
71
5
72
1
1
1.45
7
standard
210
0
220
0
230
1
50
90
73
2
44
1
0
LINE
5
8F
100
AcDbEntity
8
dimension
6
CONTINUOUS
62
7
370
0
100
AcDbLine
10
-4.025
20
0.725
11
-4.7449146506
21
0.725
0
LINE
5
90
100
AcDbEntity
8
dimension
6
CONTINUOUS
62
7
370
0
100
AcDbLine
10
-4.025
20
-0.725
11
-4.7449146506
21
-0.725
0
ENDBLK
5
60
330
5E
100
AcDbEntity
8
0
100
AcDbBlockEnd
0
BLOCK
5
62
330
61
100
AcDbEntity
8
0
100
AcDbBlockBegin
2
*D8
70
1
10
0
20
0
3
*D8
1

0
LINE
5
91
100
AcDbEntity
8
dimension
6
CONTINUOUS
62
7
370
0
100
AcDbLine
10
-3.775
20
1.44255925564
11
-1.39
21
1.44255925564
0
SOLID
5
92
100
AcDbEntity
8
dimension
6
CONTINUOUS
62
7
370
0
100
AcDbTrace
10
-3.775
20
1.44255925564
30
0
11
-3.675
21
1.45921064195
31
0
12
-3.675
22
1.42590786933
32
0
13
-3.675
23
1.42590786933
33
0
0
SOLID
5
93
100
AcDbEntity
8
dimension
6
CONTINUOUS
62
7
370
0
100
AcDbTrace
10
-1.39
20
1.44255925564
30
0
11
-1.49
21
1.42590786933
31
0
12
-1.49
22
1.45921064195
32
0
13
-1.49
23
1.45921064195
33
0
0
MTEXT
5
94
100
AcDbEntity
8
dimension
6
CONTINUOUS
62
7
370
0
100
AcDbMText
10
-2.5825
20
1.51755925564
30
0
40
0.1
41
0.311111111111
71
5
72
1
1
2.385
7
standard
210
0
220
0
230
1
50
0
73
2
44
1
0
LINE
5
95
100
AcDbEntity
8
dimension
6
CONTINUOUS
62
7
370
0
100
AcDbLine
10
-3.775
20
0.525
11
-3.775
21
1.49255925564
0
LINE
5
96
100
AcDbEntity
8
dimension
6
CONTINUOUS
62
7
370
0
100
AcDbLine
10
-1.39
20
0.525
11
-1.39
21
1.49255925564
0
ENDBLK
5
63
330
61
100
AcDbEntity
8
0
100
AcDbBlockEnd
0
BLOCK
5
65
330
64
100
AcDbEntity
8
0
100
AcDbBlockBegin
2
*D2
70
1
10
0
20
0
3
*D2
1

0
LINE
5
97
100
AcDbEntity
8
dimension
6
CONTINUOUS
62
7
370
0
100
AcDbLine
10
0
20
-1.02254581383
11
2.78
21
-1.02254581383
0
SOLID
5
98
100
AcDbEntity
8
dimension
6
CONTINUOUS
62
7
370
0
100
AcDbTrace
10
0
20
-1.02254581383
30
0
11
0.1
21
-1.00589442752
31
0
12
0.1
22
-1.03919720014
32
0
13
0.1
23
-1.03919720014
33
0
0
SOLID
5
99
100
AcDbEntity
8
dimension
6
CONTINUOUS
62
7
370
0
100
AcDbTrace
10
2.78
20
-1.02254581383
30
0
11
2.68
21
-1.03919720014
31
0
12
2.68
22
-1.00589442752
32
0
13
2.68
23
-1.00589442752
33
0
0
MTEXT
5
9A
100
AcDbEntity
8
dimension
6
CONTINUOUS
62
7
370
0
100
AcDbMText
10
1.39
20
-0.947545813832
30
0
40
0.1
41
0.233333333333
71
5
72
1
1
2.78
7
standard
210
0
220
0
230
1
50
0
73
2
44
1
0
LINE
5
9B
100
AcDbEntity
8
dimension
6
CONTINUOUS
62
7
370
0
100
AcDbLine
10
-4.5924254968e-18
20
-0.025
11
-9.18485099361e-18
21
-1.07254581383
0
LINE
5
9C
100
AcDbEntity
8
dimension
6
CONTINUOUS
62
7
370
0
100
AcDbLine
10
2.78
20
-0.025
11
2.78
21
-1.07254581383
0
ENDBLK
5
66
330
64
100
AcDbEntity
8
0
100
AcDbBlockEnd
0
BLOCK
5
68
330
67
100
AcDbEntity
8
0
100
AcDbBlockBegin
2
*D9
70
1
10
0
20
0
3
*D9
1

0
LINE
5
9D
100
AcDbEntity
8
dimension
6
CONTINUOUS
62
7
370
0
100
AcDbLine
10
-1.39
20
1.44115188076
11
1.39
21
1.44115188076
0
SOLID
5
9E
100
AcDbEntity
8
dimension
6
CONTINUOUS
62
7
370
0
100
AcDbTrace
10
-1.39
20
1.44115188076
30
0
11
-1.29
21
1.45780326707
31
0
12
-1.29
22
1.42450049445
32
0
13
-1.29
23
1.42450049445
33
0
0
SOLID
5
9F
100
AcDbEntity
8
dimension
6
CONTINUOUS
62
7
370
0
100
AcDbTrace
10
1.39
20
1.44115188076
30
0
11
1.29
21
1.42450049445
31
0
12
1.29
22
1.45780326707
32
0
13
1.29
23
1.45780326707
33
0
0
MTEXT
5
A0
100
AcDbEntity
8
dimension
6
CONTINUOUS
62
7
370
0
100
AcDbMText
10
4.5924254968e-18
20
1.51615188076
30
0
40
0.1
41
0.233333333333
71
5
72
1
1
2.78
7
standard
210
0
220
0
230
1
50
0
73
2
44
1
0
LINE
5
A1
100
AcDbEntity
8
dimension
6
CONTINUOUS
62
7
370
0
100
AcDbLine
10
-1.39
20
0.525
11
-1.39
21
1.49115188076
0
LINE
5
A2
100
AcDbEntity
8
dimension
6
CONTINUOUS
62
7
370
0
100
AcDbLine
10
1.39
20
0.525
11
1.39
21
1.49115188076
0
ENDBLK
5
69
330
67
100
AcDbEntity
8
0
100
AcDbBlockEnd
0
BLOCK
5
6B
330
6A
100
AcDbEntity
8
0
100
AcDbBlockBegin
2
*D5
70
1
10
0
20
0
3
*D5
1

0
LINE
5
A3
100
AcDbEntity
8
dimension
6
CONTINUOUS
62
7
370
0
100
AcDbLine
10
-4.39551323631
20
0.5
11
-4.39551323631
21
-0.5
0
SOLID
5
A4
100
AcDbEntity
8
dimension
6
CONTINUOUS
62
7
370
0
100
AcDbTrace
10
-4.39551323631
20
0.5
30
0
11
-4.37886185
21
0.4
31
0
12
-4.41216462262
22
0.4
32
0
13
-4.41216462262
23
0.4
33
0
0
SOLID
5
A5
100
AcDbEntity
8
dimension
6
CONTINUOUS
62
7
370
0
100
AcDbTrace
10
-4.39551323631
20
-0.5
30
0
11
-4.41216462262
21
-0.4
31
0
12
-4.37886185
22
-0.4
32
0
13
-4.37886185
23
-0.4
33
0
0
MTEXT
5
A6
100
AcDbEntity
8
dimension
6
CONTINUOUS
62
7
370
0
100
AcDbMText
10
-4.47051323631
20
-4.63263002377e-17
30
0
40
0.1
41
0.0222222222222
71
5
72
1
1
1
7
standard
210
0
220
0
230
1
50
90
73
2
44
1
0
LINE
5
A7
100
AcDbEntity
8
dimension
6
CONTINUOUS
62
7
370
0
100
AcDbLine
10
-3.8
20
0.5
11
-4.44551323631
21
0.5
0
LINE
5
A8
100
AcDbEntity
8
dimension
6
CONTINUOUS
62
7
370
0
100
AcDbLine
10
-3.8
20
-0.5
11
-4.44551323631
21
-0.5
0
ENDBLK
5
6C
330
6A
100
AcDbEntity
8
0
100
AcDbBlockEnd
0
ENDSEC
0
SECTION
2
ENTITIES
0
CIRCLE
5
A9
100
AcDbEntity
8
connector_hole
6
ByLayer
62
256
370
-1
100
AcDbCircle
10
-2.78
20
0
40
0.465
0
CIRCLE
5
AA
100
AcDbEntity
8
4-40_thread_insert
6
ByLayer
62
256
370
-1
100
AcDbCircle
10
-3.245
20
-0.375
40
0.079
0
CIRCLE
5
AB
100
AcDbEntity
8
4-40_thread_insert
6
ByLayer
62
256
370
-1
100
AcDbCircle
10
-2.315
20
0.375
40
0.079
0
LINE
5
AC
100
AcDbEntity
8
connector_footprint
6
ByLayer
62
256
370
-1
100
AcDbLine
10
-3.385
20
0.5
11
-3.385
21
-0.5
0
LINE
5
AD
100
AcDbEntity
8
connector_footprint
6
ByLayer
62
256
370
-1
100
AcDbLine
10
-3.385
20
-0.5
11
-2.175
21
-0.5
0
LINE
5
AE
100
AcDbEntity
8
connector_footprint
6
ByLayer
62
256
370
-1
100
AcDbLine
10
-2.175
20
-0.5
11
-2.175
21
0.5
0
LINE
5
AF
100
AcDbEntity
8
connector_footprint
6
ByLayer
62
256
370
-1
100
AcDbLine
10
-2.175
20
0.5
11
-3.385
21
0.5
0
CIRCLE
5
B0
100
AcDbEntity
8
connector_hole
6
ByLayer
62
256
370
-1
100
AcDbCircle
10
0
20
0
40
0.465
0
CIRCLE
5
B1
100
AcDbEntity
8
4-40_thread_insert
6
ByLayer
62
256
370
-1
100
AcDbCircle
10
-0.465
20
-0.375
40
0.079
0
CIRCLE
5
B2
100
AcDbEntity
8
4-40_thread_insert
6
ByLayer
62
256
370
-1
100
AcDbCircle
10
0.465
20
0.375
40
0.079
0
LINE
5
B3
100
AcDbEntity
8
connector_footprint
6
ByLayer
62
256
370
-1
100
AcDbLine
10
-0.605
20
0.5
11
-0.605
21
-0.5
0
LINE
5
B4
100
AcDbEntity
8
connector_footprint
6
ByLayer
62
256
370
-1
100
AcDbLine
10
-0.605
20
-0.5
11
0.605
21
-0.5
0
LINE
5
B5
100
AcDbEntity
8
connector_footprint
6
ByLayer
62
256
370
-1
100
AcDbLine
10
0.605
20
-0.5
11
0.605
21
0.5
0
LINE
5
B6
100
AcDbEntity
8
connector_footprint
6
ByLayer
62
256
370
-1
100
AcDbLine
10
0.605
20
0.5
11
-0.605
21
0.5
0
CIRCLE
5
B7
100
AcDbEntity
8
connector_hole
6
ByLayer
62
256
370
-1
100
AcDbCircle
10
2.78
20
0
40
0.465
0
CIRCLE
5
B8
100
AcDbEntity
8
4-40_thread_insert
6
ByLayer
62
256
370
-1
100
AcDbCircle
10
2.315
20
-0.375
40
0.079
0
CIRCLE
5
B9
100
AcDbEntity
8
4-40_thread_insert
6
ByLayer
62
256
370
-1
100
AcDbCircle
10
3.245
20
0.375
40
0.079
0
LINE
5
BA
100
AcDbEntity
8
connector_footprint
6
ByLayer
62
256
370
-1
100
AcDbLine
10
2.175
20
0.5
11
2.175
21
-0.5
0
LINE
5
BB
100
AcDbEntity
8
connector_footprint
6
ByLayer
62
256
370
-1
100
AcDbLine
10
2.175
20
-0.5
11
3.385
21
-0.5
0
LINE
5
BC
100
AcDbEntity
8
connector_footprint
6
ByLayer
62
256
370
-1
100
AcDbLine
10
3.385
20
-0.5
11
3.385
21
0.5
0
LINE
5
BD
100
AcDbEntity
8
connector_footprint
6
ByLayer
62
256
370
-1
100
AcDbLine
10
3.385
20
0.5
11
2.175
21
0.5
0
DIMENSION
5
BE
100
AcDbEntity
8
dimension
6
ByLayer
62
256
370
-1
100
AcDbDimension
2
*D1
10
-6.32861295923e-17
20
-1.03354093011
30
0
11
-1.39
21
-0.958540930109
31
0
70
32
71
5
3
Standard
53
0
210
0
220
0
230
1
100
AcDbAlignedDimension
13
-2.78
23
0
33
0
14
0
24
0
34
0
100
AcDbRotatedDimension
0
DIMENSION
5
BF
100
AcDbEntity
8
dimension
6
ByLayer
62
256
370
-1
100
AcDbDimension
2
*D2
10
2.78
20
-1.02254581383
30
0
11
1.39
21
-0.947545813832
31
0
70
32
71
5
3
Standard
53
0
210
0
220
0
230
1
100
AcDbAlignedDimension
13
0
23
0
33
0
14
2.78
24
0
34
0
100
AcDbRotatedDimension
0
DIMENSION
5
C0
100
AcDbEntity
8
dimension
6
ByLayer
62
256
370
-1
100
AcDbDimension
2
*D3
10
4
20
-1.56680406958
30
0
11
4.5924254968e-18
21
-1.49180406958
31
0
70
32
71
5
3
Standard
53
0
210
0
220
0
230
1
100
AcDbAlignedDimension
13
-4
23
-0.725
33
0
14
4
24
-0.725
34
0
100
AcDbRotatedDimension
0
DIMENSION
5
C1
100
AcDbEntity
8
dimension
6
ByLayer
62
256
370
-1
100
AcDbDimension
2
*D4
10
-4.6949146506
20
-0.725
30
0
11
-4.7699146506
21
-1.573486027e-16
31
0
70
32
71
5
3
Standard
53
0
210
0
220
0
230
1
100
AcDbAlignedDimension
13
-4
23
0.725
33
0
14
-4
24
-0.725
34
0
50
90
100
AcDbRotatedDimension
0
CIRCLE
5
C2
100
AcDbEntity
8
6-32_through_hole
6
ByLayer
62
256
370
-1
100
AcDbCircle
10
-1.39
20
0.5
40
0.072
0
CIRCLE
5
C3
100
AcDbEntity
8
6-32_through_hole
6
ByLayer
62
256
370
-1
100
AcDbCircle
10
-1.39
20
-0.5
40
0.072
0
CIRCLE
5
C4
100
AcDbEntity
8
6-32_through_hole
6
ByLayer
62
256
370
-1
100
AcDbCircle
10
1.39
20
0.5
40
0.072
0
CIRCLE
5
C5
100
AcDbEntity
8
6-32_through_hole
6
ByLayer
62
256
370
-1
100
AcDbCircle
10
1.39
20
-0.5
40
0.072
0
CIRCLE
5
C6
100
AcDbEntity
8
6-32_through_hole
6
ByLayer
62
256
370
-1
100
AcDbCircle
10
-3.775
20
0.5
40
0.072
0
CIRCLE
5
C7
100
AcDbEntity
8
6-32_through_hole
6
ByLayer
62
256
370
-1
100
AcDbCircle
10
-3.775
20
-0.5
40
0.072
0
CIRCLE
5
C8
100
AcDbEntity
8
6-32_through_hole
6
ByLayer
62
256
370
-1
100
AcDbCircle
10
3.775
20
0.5
40
0.072
0
CIRCLE
5
C9
100
AcDbEntity
8
6-32_through_hole
6
ByLayer
62
256
370
-1
100
AcDbCircle
10
3.775
20
-0.5
40
0.072
0
DIMENSION
5
CA
100
AcDbEntity
8
dimension
6
ByLayer
62
256
370
-1
100
AcDbDimension
2
*D5
10
-4.39551323631
20
-0.5
30
0
11
-4.47051323631
21
-4.63263002377e-17
31
0
70
32
71
5
3
Standard
53
0
210
0
220
0
230
1
100
AcDbAlignedDimension
13
-3.775
23
0.5
33
0
14
-3.775
24
-0.5
34
0
50
90
100
AcDbRotatedDimension
0
ARC
5
CB
100
AcDbEntity
8
boundary
6
ByLayer
62
256
370
-1
100
AcDbCircle
10
-3.75
20
0.475
40
0.25
100
AcDbArc
50
90
51
180
0
LINE
5
CC
100
AcDbEntity
8
boundary
6
ByLayer
62
256
370
-1
100
AcDbLine
10
-4
20
-0.475
11
-4
21
0.475
0
ARC
5
CD
100
AcDbEntity
8
boundary
6
ByLayer
62
256
370
-1
100
AcDbCircle
10
-3.75
20
-0.475
40
0.25
100
AcDbArc
50
180
51
270
0
LINE
5
CE
100
AcDbEntity
8
boundary
6
ByLayer
62
256
370
-1
100
AcDbLine
10
3.75
20
-0.725
11
-3.75
21
-0.725
0
ARC
5
CF
100
AcDbEntity
8
boundary
6
ByLayer
62
256
370
-1
100
AcDbCircle
10
3.75
20
-0.475
40
0.25
100
AcDbArc
50
270
51
2.54444374517e-14
0
LINE
5
D0
100
AcDbEntity
8
boundary
6
ByLayer
62
256
370
-1
100
AcDbLine
10
-3.75
20
0.725
11
3.75
21
0.725
0
LINE
5
D1
100
AcDbEntity
8
boundary
6
ByLayer
62
256
370
-1
100
AcDbLine
10
4
20
0.475
11
4
21
-0.475
0
ARC
5
D2
100
AcDbEntity
8
boundary
6
ByLayer
62
256
370
-1
100
AcDbCircle
10
3.75
20
0.475
40
0.25
100
AcDbArc
50
0
51
90
0
DIMENSION
5
D3
100
AcDbEntity
8
dimension
6
ByLayer
62
256
370
-1
100
AcDbDimension
2
*D6
10
3.245
20
0.878201927337
30
0
11
2.78
21
0.953201927337
31
0
70
32
71
5
3
Standard
53
0
210
0
220
0
230
1
100
AcDbAlignedDimension
13
2.315
23
-0.375
33
0
14
3.245
24
0.375
34
0
100
AcDbRotatedDimension
0
DIMENSION
5
D4
100
AcDbEntity
8
dimension
6
ByLayer
62
256
370
-1
100
AcDbDimension
2
*D7
10
4.23901314926
20
0.375
30
0
11
4.16401314926
21
-7.40818758533e-17
31
0
70
32
71
5
3
Standard
53
0
210
0
220
0
230
1
100
AcDbAlignedDimension
13
2.315
23
-0.375
33
0
14
3.245
24
0.375
34
0
50
90
100
AcDbRotatedDimension
0
DIMENSION
5
D5
100
AcDbEntity
8
dimension
6
ByLayer
62
256
370
-1
100
AcDbDimension
2
*D8
10
-1.39
20
1.44255925564
30
0
11
-2.5825
21
1.51755925564
31
0
70
32
71
5
3
Standard
53
0
210
0
220
0
230
1
100
AcDbAlignedDimension
13
-3.775
23
0.5
33
0
14
-1.39
24
0.5
34
0
100
AcDbRotatedDimension
0
DIMENSION
5
D6
100
AcDbEntity
8
dimension
6
ByLayer
62
256
370
-1
100
AcDbDimension
2
*D9
10
1.39
20
1.44115188076
30
0
11
4.5924254968e-18
21
1.51615188076
31
0
70
32
71
5
3
Standard
53
0
210
0
220
0
230
1
100
AcDbAlignedDimension
13
-1.39
23
0.5
33
0
14
1.39
24
0.5
34
0
100
AcDbRotatedDimension
0
DIMENSION
5
D7
100
AcDbEntity
8
dimension
6
ByLayer
62
256
370
-1
100
AcDbDimension
2
*D10
10
3.775
20
1.43552238122
30
0
11
2.5825
21
1.51052238122
31
0
70
32
71
5
3
Standard
53
0
210
0
220
0
230
1
100
AcDbAlignedDimension
13
1.39
23
0.5
33
0
14
3.775
24
0.5
34
0
100
AcDbRotatedDimension
0
MTEXT
5
D8
100
AcDbEntity
8
notes
6
ByLayer
62
256
370
-1
100
AcDbMText
10
-2.94293651161
20
-2.49797930205
30
0
40
0.1
41
5.28888895944
71
1
72
1
1
Notes:\P\P1.)  Standoffs: 2.25" 1/4 hex, 6-32 male-female,  McMaster-Carr 93505A006\P\P2.) Connector: CNC Router Parts 7A Bulkhead Enclosure Connector.
7
iso
210
0
220
0
230
1
50
0
73
2
44
1
0
ENDSEC
0
SECTION
2
OBJECTS
0
DICTIONARY
5
C
330
0
100
AcDbDictionary
281
1
3
ACAD_GROUP
350
D
0
DICTIONARY
5
D
330
C
100
AcDbDictionary
281
1
0
ENDSEC
0
EOF
